<svg xmlns="http://www.w3.org/2000/svg" viewBox="0 0 100 100"><defs><style>.cls-1{fill-rule:evenodd;}</style></defs><g id="Outline"><path class="cls-1" d="M81.5,18.5h-9v9h9Zm-27,0h-9v9h9Zm-27,0h-9v9h9ZM83.75,14A2.25,2.25,0,0,1,86,16.25v13.5A2.25,2.25,0,0,1,83.75,32H70.25A2.25,2.25,0,0,1,68,29.75V16.25A2.25,2.25,0,0,1,70.25,14Zm-27,0A2.25,2.25,0,0,1,59,16.25v13.5A2.25,2.25,0,0,1,56.75,32H43.25A2.25,2.25,0,0,1,41,29.75V16.25A2.25,2.25,0,0,1,43.25,14Zm-27,0A2.25,2.25,0,0,1,32,16.25v13.5A2.25,2.25,0,0,1,29.75,32H16.25A2.25,2.25,0,0,1,14,29.75V16.25A2.25,2.25,0,0,1,16.25,14ZM81.5,45.5h-9v9h9Zm-27,0h-9v9h9Zm-27,0h-9v9h9ZM83.75,41A2.25,2.25,0,0,1,86,43.25v13.5A2.25,2.25,0,0,1,83.75,59H70.25A2.25,2.25,0,0,1,68,56.75V43.25A2.25,2.25,0,0,1,70.25,41Zm-27,0A2.25,2.25,0,0,1,59,43.25v13.5A2.25,2.25,0,0,1,56.75,59H43.25A2.25,2.25,0,0,1,41,56.75V43.25A2.25,2.25,0,0,1,43.25,41Zm-27,0A2.25,2.25,0,0,1,32,43.25v13.5A2.25,2.25,0,0,1,29.75,59H16.25A2.25,2.25,0,0,1,14,56.75V43.25A2.25,2.25,0,0,1,16.25,41ZM81.5,72.5h-9v9h9Zm-27,0h-9v9h9Zm-27,0h-9v9h9ZM83.75,68A2.25,2.25,0,0,1,86,70.25v13.5A2.25,2.25,0,0,1,83.75,86H70.25A2.25,2.25,0,0,1,68,83.75V70.25A2.25,2.25,0,0,1,70.25,68Zm-27,0A2.25,2.25,0,0,1,59,70.25v13.5A2.25,2.25,0,0,1,56.75,86H43.25A2.25,2.25,0,0,1,41,83.75V70.25A2.25,2.25,0,0,1,43.25,68Zm-27,0A2.25,2.25,0,0,1,32,70.25v13.5A2.25,2.25,0,0,1,29.75,86H16.25A2.25,2.25,0,0,1,14,83.75V70.25A2.25,2.25,0,0,1,16.25,68Z"/></g></svg>