<?xml version="1.0" encoding="UTF-8"?>
<svg width="32px" height="32px" viewBox="0 0 32 32" version="1.1" xmlns="http://www.w3.org/2000/svg" xmlns:xlink="http://www.w3.org/1999/xlink">
    <!-- Generator: Sketch 50.2 (55047) - http://www.bohemiancoding.com/sketch -->
    <title>add-user-outline</title>
    <desc>Created with Sketch.</desc>
    <defs></defs>
    <g id="add-user" stroke="none" stroke-width="1" fill="none" fill-rule="evenodd">
        <path d="M16,32 C7.163444,32 0,24.836556 0,16 C0,7.163444 7.163444,0 16,0 C24.836556,0 32,7.163444 32,16 C32,24.836556 24.836556,32 16,32 Z M16,30 C23.7319865,30 30,23.7319865 30,16 C30,8.2680135 23.7319865,2 16,2 C8.2680135,2 2,8.2680135 2,16 C2,23.7319865 8.2680135,30 16,30 Z M17.9999246,16.0006155 C16.3429693,16.0006155 14.9999246,14.6575708 14.9999246,13.0006155 C14.9999246,11.3430447 16.3429693,10 17.9999246,10 C19.6568799,10 20.9999246,11.3430447 20.9999246,13.0006155 C20.9999246,14.6575708 19.6568799,16.0006155 17.9999246,16.0006155 Z M18.000188,18 C21.4048174,18 24.343452,19.4039334 25.7107703,21.4334342 C26.4180959,22.4826021 25.7461033,24 24.582116,24 L11.4175932,24 C10.253606,24 9.58227997,22.4826021 10.2889389,21.4334342 C11.6562573,19.4039334 14.5955585,18 18.000188,18 Z M9,6 L11,6 L11,9 L14,9 L14,11 L11,11 L11,14 L9,14 L9,11 L6,11 L6,9 L9,9 L9,6 Z" id="Combined-Shape" fill="#212121"></path>
    </g>
</svg>