<?xml version="1.0" encoding="UTF-8"?>
<svg width="32px" height="32px" viewBox="0 0 32 32" version="1.1" xmlns="http://www.w3.org/2000/svg" xmlns:xlink="http://www.w3.org/1999/xlink">
    <!-- Generator: Sketch 50.2 (55047) - http://www.bohemiancoding.com/sketch -->
    <title>airplane-outline</title>
    <desc>Created with Sketch.</desc>
    <defs></defs>
    <g id="airplane" stroke="none" stroke-width="1" fill="none" fill-rule="evenodd">
        <path d="M14.8317235,13.5969572 L2.21077826,6.98214314 L20.1142077,8.34439586 L25.8647445,2.56489391 C25.8647445,2.56489391 27.678665,0.741836828 30.6330439,0.0649825856 C33.5874228,-0.611871657 31.1000402,4.18044534 29.2861198,6.00350241 L23.5364883,11.7820944 L24.8921223,29.7777318 L18.3104597,17.0932156 L9.2816668,26.167486 L7.47523215,31.9996456 L5.89166829,26.0783013 L-2.30926389e-14,24.4867612 L5.80293063,22.6712276 L14.8317235,13.5969572 Z M21.5425883,11.9869643 L21.4454787,11.0418425 L27.8652408,4.58974443 C28.3275145,4.12514226 28.8553336,3.39214496 29.273517,2.65837267 C29.0953367,2.74471639 28.920471,2.83672388 28.7490867,2.9339265 C28.3153032,3.17995196 27.9330931,3.4424779 27.6096001,3.70105565 C27.4296441,3.8449 27.3195234,3.94458126 27.2856235,3.97865189 L20.859712,10.4369304 L19.9072949,10.3380849 C17.9796405,10.1380255 16.0362936,9.94203976 14.1622913,9.76055451 C12.9820137,9.6462521 11.8596809,9.54068111 10.8074181,9.44532077 C11.7593788,9.91041498 12.7410611,10.3840077 13.7228648,10.8529884 C14.2381181,11.0991108 14.7164951,11.3263065 15.1456228,11.5291033 C15.4025977,11.6505444 15.5856656,11.7366855 15.6824718,11.7820643 L18.2619687,12.991228 L7.00819581,24.3016855 L7.53248401,24.4415694 L7.66651196,24.9489824 L18.9180109,13.6408103 L20.128614,16.2494598 C20.1737736,16.3467714 20.2594915,16.5307795 20.3803327,16.7890677 C20.5821241,17.22038 20.8081924,17.7011905 21.053093,18.219064 C21.5109725,19.187308 21.9732705,20.1554357 22.4276658,21.0953468 C22.1825899,18.3642036 21.8764895,15.2366649 21.5425883,11.9869643 Z" id="Combined-Shape" fill="#212121" fill-rule="nonzero"></path>
    </g>
</svg>