<?xml version="1.0" encoding="UTF-8"?>
<svg width="32px" height="32px" viewBox="0 0 32 32" version="1.1" xmlns="http://www.w3.org/2000/svg" xmlns:xlink="http://www.w3.org/1999/xlink">
    <!-- Generator: Sketch 50.2 (55047) - http://www.bohemiancoding.com/sketch -->
    <title>alert-outline</title>
    <desc>Created with Sketch.</desc>
    <defs></defs>
    <g id="alert" stroke="none" stroke-width="1" fill="none" fill-rule="evenodd">
        <path d="M31.7417725,27.158277 C32.4757619,28.420383 31.5577751,30 30.0877964,30 L1.91220363,30 C0.442224873,30 -0.475761858,28.420383 0.258227533,27.158277 L14.3460239,2.94806782 C15.0820133,1.68397739 16.9179867,1.68397739 17.6539761,2.94806782 L31.7417725,27.158277 Z M16,4.08226393 L2.08239224,28 L29.9176078,28 L16,4.08226393 Z M16,24 C15.4481675,24 15,23.5528795 15,23 C15,22.4481675 15.4481675,22 16,22 C16.5518325,22 17,22.4481675 17,23 C17,23.5528795 16.5518325,24 16,24 Z M15,19.0029699 L15,12.9970301 C15,12.4530363 15.4477153,12 16,12 C16.5561352,12 17,12.4463856 17,12.9970301 L17,19.0029699 C17,19.5469637 16.5522847,20 16,20 C15.4438648,20 15,19.5536144 15,19.0029699 Z" id="Combined-Shape" fill="#212121" fill-rule="nonzero"></path>
    </g>
</svg>