<svg xmlns="http://www.w3.org/2000/svg" viewBox="0 0 100 100"><g id="Outline"><path d="M81.73,60.69c-2.91-1.59-24-13-29.28-15.86V42.67a8.26,8.26,0,1,0-10.6-7.91v.5h4.68v-.5a3.58,3.58,0,1,1,3.58,3.58,2.33,2.33,0,0,0-2.34,2.33v4.18c-6.5,3.56-26.47,14.48-29.16,15.79-4.15,2-5,5.37-4.45,7.81a6.7,6.7,0,0,0,6.68,5H79.41a6.42,6.42,0,0,0,6.39-4.79C86.59,65.61,85,62.46,81.73,60.69Zm-2.32,8.13H20.84a2,2,0,0,1-2.12-1.42c-.21-.9.52-1.86,2-2.56,2.83-1.38,22.95-12.38,29.46-16l3.61,2,25.75,14c1.61.88,2,2,1.77,2.77h0A1.72,1.72,0,0,1,79.41,68.82Z"/></g></svg>