<svg xmlns="http://www.w3.org/2000/svg" viewBox="0 0 100 100"><g id="Outline"><path d="M52,18.55c.58,0,1.17,0,1.75,0A33.81,33.81,0,0,1,64,20.78a28,28,0,0,1,6.59,3.76,32.93,32.93,0,0,1,5.86,5.6A18.2,18.2,0,0,1,80.14,37a8.37,8.37,0,0,1-.23,5.29,7.47,7.47,0,0,1-3,3.83,15.79,15.79,0,0,1-4.4,1.64,19.3,19.3,0,0,0-4.75,1.72,9.9,9.9,0,0,0-4.59,11.58,19.6,19.6,0,0,0,2.33,4.47,15.1,15.1,0,0,1,2.08,4.07,7.27,7.27,0,0,1-.46,4.74,8.72,8.72,0,0,1-3.54,4.09,19.25,19.25,0,0,1-7.52,2.64,32.48,32.48,0,0,1-5,.37c-1.07,0-2.14,0-3.2-.14a28.26,28.26,0,0,1-7.47-1.63A32.91,32.91,0,0,1,29.6,73a31.57,31.57,0,0,1-7.28-10.17,30.89,30.89,0,0,1-2.77-11.88c0-.18.17-18.18,15.43-27.69a31.18,31.18,0,0,1,8.39-3.55A33.47,33.47,0,0,1,52,18.55M52,14a37.69,37.69,0,0,0-9.82,1.3,35.64,35.64,0,0,0-9.62,4.08C17.3,28.9,14.87,46.42,15,51.06a35.22,35.22,0,0,0,3.17,13.62A36.34,36.34,0,0,0,26.49,76.3a37.59,37.59,0,0,0,12.25,7.63,33.33,33.33,0,0,0,8.69,1.91c1.2.11,2.41.16,3.61.16a38.14,38.14,0,0,0,5.73-.43,23.8,23.8,0,0,0,9.3-3.32A13.27,13.27,0,0,0,71.34,76a11.75,11.75,0,0,0,.63-7.6,19.29,19.29,0,0,0-2.64-5.34,15.65,15.65,0,0,1-1.84-3.42,5,5,0,0,1,.15-3.53A5.12,5.12,0,0,1,70,53.45a16.78,16.78,0,0,1,3.7-1.29A19.85,19.85,0,0,0,79.33,50a12,12,0,0,0,4.8-6,13,13,0,0,0,.43-8.08A22.72,22.72,0,0,0,80,27.3a37,37,0,0,0-6.68-6.4,32.5,32.5,0,0,0-7.69-4.36A38.18,38.18,0,0,0,54,14.05c-.66,0-1.33-.05-2-.05ZM32.35,53.13a3.5,3.5,0,1,1-3.5,3.5,3.5,3.5,0,0,1,3.5-3.5m0-3.5a7,7,0,1,0,7,7,7,7,0,0,0-7-7ZM37.42,33a3.5,3.5,0,1,1-3.5,3.5,3.5,3.5,0,0,1,3.5-3.5m0-3.5a7,7,0,1,0,7,7,7,7,0,0,0-7-7Zm21.5-3a3.5,3.5,0,1,1-3.5,3.5,3.5,3.5,0,0,1,3.5-3.5m0-3.5a7,7,0,1,0,7,7,7,7,0,0,0-7-7ZM50.68,67a3.5,3.5,0,1,1-3.5,3.5,3.5,3.5,0,0,1,3.5-3.5m0-3.5a7,7,0,1,0,7,7,7,7,0,0,0-7-7Z"/></g></svg>