<?xml version="1.0" encoding="UTF-8"?>
<svg width="32px" height="32px" viewBox="0 0 32 32" version="1.1" xmlns="http://www.w3.org/2000/svg" xmlns:xlink="http://www.w3.org/1999/xlink">
    <!-- Generator: Sketch 50.2 (55047) - http://www.bohemiancoding.com/sketch -->
    <title>audience-outline</title>
    <desc>Created with Sketch.</desc>
    <defs></defs>
    <g id="audience" stroke="none" stroke-width="1" fill="none" fill-rule="evenodd">
        <path d="M20,20.7269539 C21.5063354,20.2635523 23.2003832,20 24.9989791,20 C27.647076,20 30.0685431,20.5713041 32,21.5106012 L32,28 L20,28 L0,28 L0,20.1369854 C2.75620693,18.8086474 6.2145904,18 9.99890627,18 C13.7832221,18 17.2416056,18.8086474 20,20.1369854 L20,20.7269539 Z M18,21.5106012 L18,21.4439124 C15.6461196,20.512879 12.8925112,20 9.99890627,20 C7.10535066,20 4.35199522,20.5128723 2,21.4435824 L2,26 L18,26 L18,21.5106012 Z M10.0007527,14 C7.24296252,14 5,11.7555321 5,8.99924733 C5,6.24296252 7.24296252,4 10.0007527,4 C12.7570375,4 15,6.24296252 15,8.99924733 C15,11.7555321 12.7570375,14 10.0007527,14 Z M10,12 C11.6536697,12 13,10.6548165 13,9 C13,7.34633028 11.6536697,6 10,6 C8.34633028,6 7,7.34633028 7,9 C7,10.6548165 8.34633028,12 10,12 Z M25,18 C22.795107,18 21,16.206422 21,14 C21,11.795107 22.795107,10 25,10 C27.204893,10 29,11.795107 29,14 C29,16.206422 27.204893,18 25,18 Z M25,16 C26.1024465,16 27,15.103211 27,14 C27,12.8975535 26.1024465,12 25,12 C23.8975535,12 23,12.8975535 23,14 C23,15.103211 23.8975535,16 25,16 Z M20,26 L30,26 L30,22.8352004 C28.5095591,22.2960599 26.7959275,22 24.9989791,22 C23.2022015,22 21.4889114,22.2960124 20,22.8348156 L20,26 Z" id="Combined-Shape" fill="#212121"></path>
    </g>
</svg>