<svg xmlns="http://www.w3.org/2000/svg" viewBox="0 0 100 100"><g id="Outline"><path d="M66.44,86H33.56c-5,0-9-1.88-11-5.29s-2-7.8.23-12.37L39.45,38.46V23L37.13,21c-2.07-1.72-1.74-3.46-1.5-4.13.47-1.32,2-2.9,6.69-2.9H57.68c4.68,0,6.22,1.58,6.69,2.9.24.67.57,2.41-1.5,4.13L60.55,23V38.45L77.27,68.34c2.23,4.57,2.31,9,.22,12.37S71.47,86,66.44,86ZM40.71,18.42l3,2.51V39.47L26.56,70.26c-1.55,3.17-1.7,6.08-.42,8.17s3.92,3.25,7.42,3.25H66.44c3.5,0,6.13-1.15,7.42-3.25s1.13-5-.42-8.17L56.28,39.47V20.93l3-2.51a11.58,11.58,0,0,0-1.61-.1H42.32A11.58,11.58,0,0,0,40.71,18.42Z"/></g></svg>