<svg xmlns="http://www.w3.org/2000/svg" viewBox="0 0 100 100"><g id="Outline"><path d="M85.66,51.54A2,2,0,0,0,84,50.73H64.36c-.85-.74-2.61-2.7-4.6-4.64-8.71-8.48-9-10.57-13.5-10.57H36.68L32.81,30H21.15l1,5.52H18.3V50.73H15.9A1.9,1.9,0,0,0,14,53l2.72,14.53a3,3,0,0,0,3,2.46h0l48.07-.24a3.73,3.73,0,0,0,2.78-1.27c4.18-4.8,14.65-14.32,14.74-14.4A1.9,1.9,0,0,0,85.66,51.54Zm-63.55-.81,0-10.65H43.7c3.11,0,4.13.75,5.59,2.37H26.17l0,8.28Zm9.85,0V47H53.81l4.56,3.78Zm45.76,4.38-10.8,10c-4.78.11-41.82.06-46.08.06L19,55.11ZM25.38,35.46l-.65-2.92h6.36l2,3Z"/></g></svg>