<svg xmlns="http://www.w3.org/2000/svg" viewBox="0 0 100 100"><g id="Outline"><ellipse cx="43.75" cy="32.07" rx="3.08" ry="3.11"/><ellipse cx="56.25" cy="32.07" rx="3.08" ry="3.11"/><ellipse cx="43.15" cy="62.9" rx="2.29" ry="2.31"/><ellipse cx="43.15" cy="71.59" rx="2.29" ry="2.31"/><rect x="51.52" y="60.86" width="8.28" height="4.36"/><rect x="51.52" y="69.09" width="8.28" height="7.92"/><path d="M62.08,50.67H54.14V46.5h16V29.11A8.16,8.16,0,0,0,62,20.92H52.22V14H47.78v6.92H38a8.16,8.16,0,0,0-8.14,8.19V46.5h16v4.17H37.92c-8,0-14.92,5.9-14.92,10.73V86H77V64.39C77,56.82,70.31,50.67,62.08,50.67ZM34.76,29.11A3.21,3.21,0,0,1,38,25.89H62a3.21,3.21,0,0,1,3.2,3.22V41.53H34.76ZM72.55,81.52H27.45V61.4c0-1.86,4.42-6.25,10.47-6.25H62.08c5.78,0,10.47,4.14,10.47,9.24Z"/></g></svg>