<svg xmlns="http://www.w3.org/2000/svg" viewBox="0 0 100 100"><g id="Outline"><path d="M49.85,52.26l.09.12a1.44,1.44,0,0,0-.19.31,1.1,1.1,0,0,0-.21-.36l.05-.07A.76.76,0,0,0,49.85,52.26Zm28.5.28L77.14,51l.06,2.06Zm-57.26,0,.74.33V51.59ZM49.75,79.48a1.19,1.19,0,0,1-1.08.81l1.08.48,1.08-.48a1.15,1.15,0,0,1-.59-.19A1.24,1.24,0,0,1,49.75,79.48Zm-25.47-10,.16.07a1.43,1.43,0,0,1-.16-.24Zm50.94,0v-.16a1.14,1.14,0,0,1-.15.23ZM49.72,52.1l-.13.16a.76.76,0,0,0,.26,0Zm-.22.16s0,.05,0,.07l.05-.07A.27.27,0,0,1,49.5,52.26Zm.35,0,.09.12a.37.37,0,0,1,.07-.12A.85.85,0,0,1,49.85,52.26Zm35.59,1.91-8.13,3.56.31,12.58a1.22,1.22,0,0,1-.71,1.1L50.24,83.18a1.21,1.21,0,0,1-.49.11,1.16,1.16,0,0,1-.48-.11L22.6,71.41a1.21,1.21,0,0,1-.72-1.1l0-12.7L14,54.17,24.72,40.31,14.18,29,37.7,16.71,50,30,62.48,16.71,86,28.76,75,40.64ZM56.14,29.81l15.68,7.86,6.79-7.31L63.08,22.41ZM28.36,37.87,44,30l-6.94-7.4-15.53,8ZM26.57,54.94l11.37,5,5.86-7.67L27,44.86l-.46.61-4.74,6.12-.74.95.74.33Zm20.84.18L39.58,65.38l-13-5.7V68l20.84,9.2ZM68.49,41.47l-18.73-8.9-2.58,1.24L31.45,41.69l18.3,8.08Zm4.45,18.18L59.86,65.38,52.1,55.21v22L72.94,68Zm5.41-7.11L77.14,51l-4.2-5.44-.54-.69-.19-.25-16.7,7.47.15.2,5.84,7.65,11.44-5,4.26-1.87Z"/></g></svg>