<?xml version="1.0" encoding="UTF-8"?>
<svg width="32px" height="32px" viewBox="0 0 32 32" version="1.1" xmlns="http://www.w3.org/2000/svg" xmlns:xlink="http://www.w3.org/1999/xlink">
    <!-- Generator: Sketch 50.2 (55047) - http://www.bohemiancoding.com/sketch -->
    <title>brightness-outline</title>
    <desc>Created with Sketch.</desc>
    <defs></defs>
    <g id="brightness" stroke="none" stroke-width="1" fill="none" fill-rule="evenodd">
        <path d="M16,22 C19.3137085,22 22,19.3137085 22,16 C22,12.6862915 19.3137085,10 16,10 C12.6862915,10 10,12.6862915 10,16 C10,19.3137085 12.6862915,22 16,22 Z M16,24 C11.581722,24 8,20.418278 8,16 C8,11.581722 11.581722,8 16,8 C20.418278,8 24,11.581722 24,16 C24,20.418278 20.418278,24 16,24 Z M1,15 L5,15 C5.55228475,15 6,15.4477153 6,16 C6,16.5522847 5.55228475,17 5,17 L1,17 C0.44771525,17 6.76353751e-17,16.5522847 0,16 C-6.76353751e-17,15.4477153 0.44771525,15 1,15 Z M27,15 L31,15 C31.5522847,15 32,15.4477153 32,16 C32,16.5522847 31.5522847,17 31,17 L27,17 C26.4477153,17 26,16.5522847 26,16 C26,15.4477153 26.4477153,15 27,15 Z M15,31 L15,27 C15,26.4477153 15.4477153,26 16,26 C16.5522847,26 17,26.4477153 17,27 L17,31 C17,31.5522847 16.5522847,32 16,32 C15.4477153,32 15,31.5522847 15,31 Z M15,5 L15,1 C15,0.44771525 15.4477153,0 16,0 C16.5522847,0 17,0.44771525 17,1 L17,5 C17,5.55228475 16.5522847,6 16,6 C15.4477153,6 15,5.55228475 15,5 Z M25.8994949,27.3137085 L23.0710678,24.4852814 C22.6805435,24.0947571 22.6805435,23.4615921 23.0710678,23.0710678 C23.4615921,22.6805435 24.0947571,22.6805435 24.4852814,23.0710678 L27.3137085,25.8994949 C27.7042328,26.2900192 27.7042328,26.9231842 27.3137085,27.3137085 C26.9231842,27.7042328 26.2900192,27.7042328 25.8994949,27.3137085 Z M7.51471863,8.92893219 L4.6862915,6.10050506 C4.29576721,5.70998077 4.29576721,5.07681579 4.6862915,4.6862915 C5.07681579,4.29576721 5.70998077,4.29576721 6.10050506,4.6862915 L8.92893219,7.51471863 C9.31945648,7.90524292 9.31945648,8.5384079 8.92893219,8.92893219 C8.5384079,9.31945648 7.90524292,9.31945648 7.51471863,8.92893219 Z M27.3137085,6.10050506 L24.4852814,8.92893219 C24.0947571,9.31945648 23.4615921,9.31945648 23.0710678,8.92893219 C22.6805435,8.5384079 22.6805435,7.90524292 23.0710678,7.51471863 L25.8994949,4.6862915 C26.2900192,4.29576721 26.9231842,4.29576721 27.3137085,4.6862915 C27.7042328,5.07681579 27.7042328,5.70998077 27.3137085,6.10050506 Z M8.92893219,24.4852814 L6.10050506,27.3137085 C5.70998077,27.7042328 5.07681579,27.7042328 4.6862915,27.3137085 C4.29576721,26.9231842 4.29576721,26.2900192 4.6862915,25.8994949 L7.51471863,23.0710678 C7.90524292,22.6805435 8.5384079,22.6805435 8.92893219,23.0710678 C9.31945648,23.4615921 9.31945648,24.0947571 8.92893219,24.4852814 Z" id="ic_ol_brightness_32" fill="#212121" fill-rule="nonzero"></path>
    </g>
</svg>