<?xml version="1.0" encoding="UTF-8"?>
<svg width="32px" height="32px" viewBox="0 0 32 32" version="1.1" xmlns="http://www.w3.org/2000/svg" xmlns:xlink="http://www.w3.org/1999/xlink">
    <!-- Generator: Sketch 50.2 (55047) - http://www.bohemiancoding.com/sketch -->
    <title>bubble-plot-outline</title>
    <desc>Created with Sketch.</desc>
    <defs></defs>
    <g id="bubble-plot" stroke="none" stroke-width="1" fill="none" fill-rule="evenodd">
        <path d="M2,32 C0.896,32 0,31.104 0,30 L0,2 C0,0.896 0.896,0 2,0 L30,0 C31.104,0 32,0.896 32,2 L32,30 C32,31.104 31.104,32 30,32 L2,32 Z M2,30 L30,30 L30,2 L2,2 L2,30 Z M22.8202431,16.0039215 C25.58755,15.8951037 27.8961644,18.064571 27.9967186,20.81945 C28.0958954,23.574329 25.9346686,25.896692 23.1797589,25.9972451 C23.1191508,25.9986226 23.0585428,26 22.9979348,26 C20.3242949,26 18.1010827,23.8746108 18.0032834,21.1803391 C17.9041066,18.4254601 20.0639559,16.1030971 22.8202431,16.0039215 Z M23.1077534,23.9987035 C24.7599577,23.9381402 26.0572126,22.5451834 25.9980544,20.8930719 C25.9388962,19.239552 24.531776,17.949412 22.8922486,18.0015247 C21.2386358,18.0634965 19.9427894,19.4564532 20.0019476,21.1085647 C20.0625143,22.7620847 21.4837198,24.0465908 23.1077534,23.9987035 Z M10.2652249,9.00277574 C13.8855808,8.89964415 16.8672837,11.6828748 16.9955432,15.2647141 C17.0590118,16.9994403 16.4428373,18.6548344 15.259412,19.9267907 C14.0773089,21.1974247 12.4694372,21.9325678 10.7346282,21.9947112 C10.6552924,21.9973556 10.5759567,22 10.4979431,22 C7.01906935,22 4.12992482,19.2366024 4.00430985,15.7327728 C3.87472808,12.1522557 6.68321456,9.13235132 10.2652249,9.00277574 Z M13.7945254,18.5649999 C14.6124102,17.6851222 15.0404497,16.5391738 14.9969872,15.3379036 C14.9061111,12.8589668 12.779084,10.9121716 10.3372832,11.0030572 C7.85860516,11.0926256 5.91464725,13.1829937 6.00288924,15.6619305 C6.09244828,18.1408673 8.20103678,20.0692219 10.6625932,19.9980941 C11.863738,19.9546271 12.9753237,19.4461948 13.7945254,18.5649999 Z M21.9980523,14 C19.8587418,14 18.0800502,12.3002845 18.0027747,10.1451428 C17.9634591,9.07841541 18.3430579,8.05912827 19.0710742,7.27704226 C19.7990906,6.49495625 20.7874032,6.04359639 21.8557028,6.00428877 C22.9389151,5.95413767 23.9434963,6.3458584 24.725741,7.07237157 C25.5079857,7.80024018 25.9594372,8.78970775 25.9973971,9.85779055 C26.0353569,10.9245179 25.6571138,11.9438051 24.9290975,12.7258911 C24.2010812,13.5079771 23.2114128,13.9593369 22.1431133,13.9972891 C22.0943077,14 22.0455022,14 21.9980523,14 Z M20.5349647,8.63849572 C20.1709455,9.02868051 19.9820416,9.53881609 20.0013456,10.0723903 C20.0192708,10.6059646 20.2467829,11.100934 20.6383793,11.4649226 C21.027218,11.8275325 21.5180924,12.0053906 22.0723944,11.9998756 C22.6060135,11.9805732 23.0996457,11.754459 23.4650437,11.3628955 C23.8276841,10.9727107 24.0179669,10.4625751 23.9986628,9.92762213 C23.9793588,9.39404789 23.7532256,8.90045724 23.3630081,8.53508986 C22.9727905,8.17247997 22.4998412,7.98083444 21.9276141,8.00151561 C21.393995,8.02081804 20.898984,8.24693219 20.5349647,8.63849572 Z" id="ic_ol_Bubble-Plot" fill="#212121"></path>
    </g>
</svg>