<?xml version="1.0" encoding="UTF-8"?>
<svg width="32px" height="32px" viewBox="0 0 32 32" version="1.1" xmlns="http://www.w3.org/2000/svg" xmlns:xlink="http://www.w3.org/1999/xlink">
    <!-- Generator: Sketch 50.2 (55047) - http://www.bohemiancoding.com/sketch -->
    <title>building-outline</title>
    <desc>Created with Sketch.</desc>
    <defs></defs>
    <g id="building" stroke="none" stroke-width="1" fill="none" fill-rule="evenodd">
        <path d="M28,30 L32,30 L32,32 L0,32 L0,30 L4,30 L4,2 C4,0.896 4.896,0 6,0 L20,0 C21.104,0 22,0.896 22,2 L22,6 L26,6 C27.104,6 28,6.896 28,8 L28,30 Z M26,30 L26,8 L22,8 L20,8 L20,6 L20,2 L6,2 L6,30 L26,30 Z M9,23 L9,21 L11,21 L11,23 L9,23 Z M9,15 L9,13 L11,13 L11,15 L9,15 Z M9,7 L9,5 L11,5 L11,7 L9,7 Z M15,25 L15,21 L17,21 L17,25 L15,25 Z M15,15 L15,13 L17,13 L17,15 L15,15 Z M15,7 L15,5 L17,5 L17,7 L15,7 Z M21,23 L21,21 L23,21 L23,23 L21,23 Z M21,15 L21,13 L23,13 L23,15 L21,15 Z" id="Combined-Shape" fill="#212121"></path>
    </g>
</svg>