<svg xmlns="http://www.w3.org/2000/svg" viewBox="0 0 100 100"><g id="Outline"><path d="M70.43,86h-.81a7.1,7.1,0,0,1-7.09-7.09V77.29H37.21v1.62A7.1,7.1,0,0,1,30.12,86h-.81a7.09,7.09,0,0,1-7.08-7.09v-4.4a9.62,9.62,0,0,1-2.88-6.88V47.93H16.19V29.33h3.16V23.4c0-6.46,15.82-9.4,30.52-9.4s30.52,2.94,30.52,9.4v5.93h3.42v18.6H80.39v19.7a9.62,9.62,0,0,1-2.88,6.88v4.4A7.09,7.09,0,0,1,70.43,86ZM33.74,73.82H66v5.09a3.62,3.62,0,0,0,3.62,3.62h.81A3.62,3.62,0,0,0,74,78.91v-6l.63-.52a6.2,6.2,0,0,0,2.25-4.78V44.47h3.42V32.8H76.92V23.4c0-1.77-9.2-5.93-27.05-5.93s-27,4.16-27,5.93v9.4H19.66V44.47l1.38,0,.28.06,1.5.21V67.63a6.2,6.2,0,0,0,2.25,4.78l.62.52v6a3.63,3.63,0,0,0,3.62,3.62h.81a3.62,3.62,0,0,0,3.62-3.62Zm34.55-.89a5.25,5.25,0,1,1,5.24-5.24A5.25,5.25,0,0,1,68.29,72.93Zm0-7a1.78,1.78,0,1,0,1.77,1.78A1.78,1.78,0,0,0,68.29,65.91Zm-36.84,7a5.25,5.25,0,1,1,5.25-5.24A5.25,5.25,0,0,1,31.45,72.93Zm0-7a1.78,1.78,0,1,0,1.78,1.78A1.78,1.78,0,0,0,31.45,65.91Zm37.89-5.47H30.4a6.14,6.14,0,0,1-6.14-6.14V35.47a6.14,6.14,0,0,1,6.14-6.14H69.34a6.15,6.15,0,0,1,6.14,6.14V54.3A6.15,6.15,0,0,1,69.34,60.44ZM30.4,32.8a2.68,2.68,0,0,0-2.67,2.67V54.3A2.67,2.67,0,0,0,30.4,57H69.34A2.67,2.67,0,0,0,72,54.3V35.47a2.68,2.68,0,0,0-2.67-2.67Z"/><rect x="39.57" y="21.22" width="19.66" height="4.9"/></g></svg>