<svg xmlns="http://www.w3.org/2000/svg" viewBox="0 0 100 100"><g id="Outline"><circle cx="57.5" cy="54.99" r="3"/><circle cx="27.5" cy="54.99" r="3"/><circle cx="42.5" cy="54.99" r="3"/><circle cx="72.5" cy="54.99" r="3"/><circle cx="57.5" cy="69.01" r="3"/><circle cx="27.5" cy="69.01" r="3"/><circle cx="42.5" cy="69.01" r="3"/><circle cx="72.5" cy="69.01" r="3"/><path d="M74.75,41.71H24.81v-19H74.75Zm-45.44-4.5H70.25v-10H29.31Z"/><path d="M81.51,18.6V75.45a87.64,87.64,0,0,1-31.15,6,93.42,93.42,0,0,1-31.87-6V18.6h63M86,14.11H14V75.45a4.49,4.49,0,0,0,3,4.22,97.21,97.21,0,0,0,33.39,6.22,91.61,91.61,0,0,0,32.73-6.24A4.49,4.49,0,0,0,86,75.45V14.11Z"/></g></svg>