<?xml version="1.0" encoding="UTF-8"?>
<svg width="32px" height="32px" viewBox="0 0 32 32" version="1.1" xmlns="http://www.w3.org/2000/svg" xmlns:xlink="http://www.w3.org/1999/xlink">
    <!-- Generator: Sketch 53.2 (72643) - https://sketchapp.com -->
    <title>calendar-decline-outline-fill</title>
    <desc>Created with Sketch.</desc>
    <g id="calendar-decline-outline" stroke="none" stroke-width="1" fill="none" fill-rule="evenodd">
        <path d="M30,10 L30,12 L30,30 C30,31.104 29.104,32 28,32 L4,32 C2.896,32 2,31.104 2,30 L2,4 L7,4 L7,0 L9,0 L9,4 L23,4 L23,0 L25,0 L25,4 L30,4 L30,10 Z M4,10 L28,10 L28,6 L4,6 L4,10 Z M4,30 L28,30 L28,12 L4,12 L4,30 Z M22,25.6777547 L20.6777547,27 L16,22.3222453 L11.3222453,27 L10,25.6777547 L14.6777547,21 L10,16.3222453 L11.3222453,15 L16,19.6777547 L20.6777547,15 L22,16.3222453 L17.3222453,21 L22,25.6777547 Z" id="Icon/Calender-Declined/Outline" fill="#212121"></path>
    </g>
</svg>