<?xml version="1.0" encoding="UTF-8"?>
<svg width="32px" height="32px" viewBox="0 0 32 32" version="1.1" xmlns="http://www.w3.org/2000/svg" xmlns:xlink="http://www.w3.org/1999/xlink">
    <!-- Generator: Sketch 53.2 (72643) - https://sketchapp.com -->
    <title>call-outline-fill</title>
    <desc>Created with Sketch.</desc>
    <g id="call-outline" stroke="none" stroke-width="1" fill="none" fill-rule="evenodd">
        <path d="M24.8797255,31.9948072 C23.1424442,31.9350861 21.4337593,31.5350848 19.8504905,30.8174687 C16.2962609,29.3380206 12.4310361,26.5923782 8.92567713,23.0870192 C5.42031813,19.5816602 2.66579015,15.6986643 1.17301369,12.1622058 C-0.484145886,8.20368248 -0.381961784,5.01376136 1.45735206,3.17444751 L3.65208888,0.979710697 C4.38189756,0.245143384 5.41274208,-0.106691718 6.43936888,0.028390755 C7.46599567,0.163473228 8.3707411,0.769991217 8.88569205,1.66834269 L13.1329965,9.07002596 C13.8781911,10.3696674 13.6616687,12.0072312 12.6043048,13.0685343 L11.1470707,14.5257685 C11.1238064,14.5525172 11.1238064,14.5923182 11.1470707,14.619067 C12.0727566,15.7652728 13.058978,16.8612392 14.1015241,17.9022867 C15.1410905,18.9433583 16.2355785,19.9281008 17.3803009,20.8522973 C17.4084898,20.8762203 17.4498533,20.8762203 17.4780422,20.8522973 L18.9352764,19.3950631 C19.9955006,18.3362306 21.6331756,18.1178739 22.9337848,18.8619287 L30.335468,23.1225615 C31.2289873,23.6382464 31.8318783,24.5401302 31.9667998,25.5629223 C32.1017213,26.5857145 31.7533279,27.6130868 31.0241,28.3428363 L28.8293632,30.5375731 C27.7615959,31.5334634 26.3384451,32.0585404 24.8797255,31.9948072 L24.8797255,31.9948072 Z M5.99343766,2.00599451 C5.64444019,2.00422523 5.30955185,2.1436285 5.06489517,2.39251699 L2.87015835,4.5872538 C1.65727748,5.79569188 1.71059093,8.27476707 3.01677033,11.3891608 C4.39847711,14.6945944 6.98862197,18.3465654 10.3162695,21.6742129 C13.643917,25.0018604 17.3003308,27.596448 20.6057643,28.9781548 C23.7157153,30.2754487 26.1947905,30.3332049 27.4076714,29.120324 L29.6024082,26.9255872 C29.8919005,26.6346486 30.0312079,26.2265598 29.9800451,25.8193332 L29.9800451,25.8193332 C29.9219603,25.4123635 29.6793256,25.054969 29.3225126,24.8508056 L21.9297149,20.5901728 C21.4123149,20.2972194 20.7634464,20.382406 20.3391971,20.7989838 L18.881963,22.256218 C18.1374067,23.0060025 16.9470823,23.07309 16.1229922,22.4117155 C14.9201029,21.4378292 13.7707079,20.3996659 12.6798322,19.3017646 C11.5807302,18.2120343 10.5425063,17.0625722 9.56988126,15.8586046 C8.91890124,15.0346247 8.98962269,13.8533854 9.73426438,13.1129622 L11.1914985,11.655728 C11.6080763,11.2314788 11.693263,10.5826103 11.4003095,10.0652103 L7.13967673,2.663527 C6.93551332,2.306714 6.5781189,2.06407926 6.17114915,2.00599451 L5.99343766,2.00599451 Z" id="Shape" fill="#2D2D2D" fill-rule="nonzero"></path>
    </g>
</svg>