<?xml version="1.0" encoding="UTF-8"?>
<svg width="32px" height="32px" viewBox="0 0 32 32" version="1.1" xmlns="http://www.w3.org/2000/svg" xmlns:xlink="http://www.w3.org/1999/xlink">
    <!-- Generator: Sketch 50.2 (55047) - http://www.bohemiancoding.com/sketch -->
    <title>camera-outline</title>
    <desc>Created with Sketch.</desc>
    <defs></defs>
    <g id="camera" stroke="none" stroke-width="1" fill="none" fill-rule="evenodd">
        <path d="M10.54,3 L21.46,3 C21.894,3 22.3,3.21 22.548,3.564 L26,8 L30,8 C31.104,8 32,8.894 32,10 L32,27 C32,28.106 31.104,29 30,29 L2,29 C0.896,29 0,28.106 0,27 L0,10 C0,8.894 0.896,8 2,8 L6,8 L9.452,3.564 C9.702,3.21 10.106,3 10.54,3 Z M25,10 L21,5 L11,5 L7,10 L2,10 L2,27 L30,27 L30,10 L25,10 Z M16,22.0004 C13.242,22.0004 11,19.7564 11,17.0004 C11,14.2444 13.242,12.0004 16,12.0004 C18.758,12.0004 21,14.2444 21,17.0004 C21,19.7564 18.758,22.0004 16,22.0004 Z M16,14.0004 C14.346,14.0004 13,15.3464 13,17.0004 C13,18.6544 14.346,20.0004 16,20.0004 C17.654,20.0004 19,18.6544 19,17.0004 C19,15.3464 17.654,14.0004 16,14.0004 Z" id="Combined-Shape" fill="#212121"></path>
    </g>
</svg>