<svg xmlns="http://www.w3.org/2000/svg" viewBox="0 0 100 100"><g id="Outline"><path d="M50,77.87c-3.59,0-7.46-2.93-7.46-6.52H39.2c0,4.86,4.49,8.9,9.13,9.69v.8H45.65v3.33h8.68V81.84H51.66V81c4.63-.79,9.12-4.83,9.12-9.69H57.46C57.46,74.94,53.59,77.87,50,77.87Z"/><path d="M50,76a5.91,5.91,0,0,0,5.91-5.9V60.84a5.91,5.91,0,1,0-11.81,0v9.24A5.91,5.91,0,0,0,50,76Zm0-3.33a2.57,2.57,0,0,1-2.57-2.57V64.41h5.15v5.67A2.57,2.57,0,0,1,50,72.65ZM50,58c2.55,0,2.41,1.78,2.55,3.06H47.45C47.59,59.8,47.45,58,50,58Z"/><path d="M79.1,46.13l2.35,2.35a15.57,15.57,0,0,0,0-22L79.1,28.85a12.12,12.12,0,0,1,3.16,5.48A12.25,12.25,0,0,1,79.1,46.13Z"/><path d="M74.82,42.91l2.35,2.35a10.92,10.92,0,0,0,0-15.45l-2.35,2.36a7.64,7.64,0,0,1,2,7.33A7.72,7.72,0,0,1,74.82,42.91Z"/><path d="M57.28,43.45h2.94l9,6.69a1.69,1.69,0,0,0,1,.32,1.65,1.65,0,0,0,.75-.17,1.67,1.67,0,0,0,.91-1.49V26.29A1.66,1.66,0,0,0,69.25,25l-9,6.69H57.28a1.66,1.66,0,0,0-1.66,1.66v8.49A1.66,1.66,0,0,0,57.28,43.45ZM58.94,35h1.83a1.68,1.68,0,0,0,1-.33l6.82-5.05V45.5l-6.82-5a1.68,1.68,0,0,0-1-.33H58.94Z"/><path d="M37,46V44l4.89,1.73a1.69,1.69,0,0,0,1.67,0,1.68,1.68,0,0,0,.83-1.44V30.8a1.68,1.68,0,0,0-.83-1.44,1.71,1.71,0,0,0-1.67,0L37,31.09v-2a1.66,1.66,0,0,0-1.66-1.67H15.66A1.66,1.66,0,0,0,14,29.07V46a1.66,1.66,0,0,0,1.66,1.66H35.32A1.66,1.66,0,0,0,37,46ZM41,33.68V41.4L37,40.16V34.93ZM33.65,44.36H17.33V30.73H33.65V44.36Z"/><polygon points="51.66 14.83 48.33 14.83 48.33 47.3 18.13 67.05 19.95 69.84 49.99 50.19 80.03 69.84 81.86 67.05 51.66 47.3 51.66 14.83"/></g></svg>