<svg xmlns="http://www.w3.org/2000/svg" viewBox="0 0 100 100"><g id="Outline"><path d="M64.69,43.52v-4c0-.08,0-.16,0-.29V35l-2.48,0a9.25,9.25,0,0,0-5.69-8.43,1.89,1.89,0,0,1-1.15-1.32l-.15-.74a2,2,0,0,1,.29-1.37,6.35,6.35,0,0,0,.73-4.73A6.38,6.38,0,0,0,45.92,15a6.34,6.34,0,0,0-1.42,8.11,2,2,0,0,1,.31,1.4l-.15.74a1.89,1.89,0,0,1-1.15,1.32A9.25,9.25,0,0,0,37.82,35l-2.5,0v8.55a7.32,7.32,0,0,0-5.14,7v36H69.83v-36A7.31,7.31,0,0,0,64.69,43.52ZM49,26.14l.15-.75a6.41,6.41,0,0,0-.84-4.55h0a1.82,1.82,0,0,1-.26-.94,1.94,1.94,0,0,1,3.82-.48,1.87,1.87,0,0,1-.21,1.43,6.4,6.4,0,0,0-.83,4.54l.15.75a6.3,6.3,0,0,0,3.79,4.53,4.83,4.83,0,0,1,2.94,4H42.28a4.8,4.8,0,0,1,2.94-4A6.3,6.3,0,0,0,49,26.14Zm-9.26,17v-3.7a.33.33,0,0,1,.33-.33H59.92a.33.33,0,0,1,.33.33v3.7Zm25.64,14a5.93,5.93,0,0,0-1.86,1.24,2,2,0,0,1-1.7.67,5.42,5.42,0,0,1-1.5-.76A8.36,8.36,0,0,0,56,56.77a7.85,7.85,0,0,0-4,1.45,5.82,5.82,0,0,1-1.85.87,5.88,5.88,0,0,1-1.85-.88,7.92,7.92,0,0,0-4-1.46A8.46,8.46,0,0,0,40,58.33a8.73,8.73,0,0,1-1.47.75,7.61,7.61,0,0,1-3.89-1.21V50.51a2.89,2.89,0,0,1,2.89-2.89h25a2.89,2.89,0,0,1,2.89,2.89ZM38.52,63.53a7.48,7.48,0,0,0,3.73-1.39,5.71,5.71,0,0,1,2.08-.94A6.29,6.29,0,0,1,46,62a8.11,8.11,0,0,0,4.13,1.5A8.1,8.1,0,0,0,54.27,62a6.33,6.33,0,0,1,1.7-.83,5.76,5.76,0,0,1,2.08.95,7.33,7.33,0,0,0,3.76,1.39,6.36,6.36,0,0,0,3.58-.95V81.21H34.61V62.79a11,11,0,0,0,3.89.74Z"/></g></svg>