<?xml version="1.0" encoding="UTF-8"?>
<svg width="32px" height="32px" viewBox="0 0 32 32" version="1.1" xmlns="http://www.w3.org/2000/svg" xmlns:xlink="http://www.w3.org/1999/xlink">
    <!-- Generator: Sketch 50.2 (55047) - http://www.bohemiancoding.com/sketch -->
    <title>center-map-outline</title>
    <desc>Created with Sketch.</desc>
    <defs></defs>
    <g id="center-map" stroke="none" stroke-width="1" fill="none" fill-rule="evenodd">
        <path d="M32,15.9946667 L32,16 L32,16.0053333 C32,16.3413333 31.9706667,16.6693333 31.9493333,17 C31.452,25.036 25.036,31.452 17,31.9493333 C16.668,31.9706667 16.3373333,32 16,32 C15.6626667,32 15.332,31.9706667 15,31.9493333 C6.964,31.4506667 0.549333333,25.036 0.0506666667,17 C0.0306666667,16.668 0,16.3373333 0,16 C0,15.6626667 0.0306666667,15.332 0.0506666667,15 C0.549333333,6.964 6.964,0.549333333 15,0.0506666667 C15.332,0.0293333333 15.6626667,0 16,0 C16.3373333,0 16.668,0.0293333333 17,0.0506666667 C25.036,0.548 31.452,6.964 31.9493333,15 C31.9706667,15.3306667 32,15.6586667 32,15.9946667 Z M29.9493333,15 C29.4573333,8.07866667 23.9213333,2.544 17,2.05066667 L17,8.06933333 C20.6173333,8.52133333 23.4786667,11.3826667 23.9306667,15 L29.9493333,15 Z M15,15 L15,10.1013333 C12.496,10.5253333 10.5253333,12.496 10.1013333,15 L15,15 Z M15,17 L10.1013333,17 C10.5253333,19.504 12.496,21.4746667 15,21.8986667 L15,17 Z M17,17 L17,21.8986667 C19.5053333,21.4746667 21.4746667,19.5053333 21.8986667,17 L17,17 Z M17,15 L21.8986667,15 C21.4746667,12.4946667 19.5053333,10.5253333 17,10.1013333 L17,15 Z M15,2.05066667 C8.07866667,2.544 2.544,8.07866667 2.05066667,15 L8.06933333,15 C8.52133333,11.3826667 11.3826667,8.52133333 15,8.06933333 L15,2.05066667 Z M2.05066667,17 C2.544,23.9213333 8.07866667,29.456 15,29.9493333 L15,23.9306667 C11.3826667,23.4786667 8.52133333,20.6173333 8.06933333,17 L2.05066667,17 Z M17,29.9493333 C23.9213333,29.456 29.4573333,23.9213333 29.9493333,17 L23.9306667,17 C23.4786667,20.6173333 20.6173333,23.4786667 17,23.9306667 L17,29.9493333 Z" id="Combined-Shape" fill="#212121"></path>
    </g>
</svg>