<?xml version="1.0" encoding="UTF-8"?>
<svg width="32px" height="32px" viewBox="0 0 32 32" version="1.1" xmlns="http://www.w3.org/2000/svg" xmlns:xlink="http://www.w3.org/1999/xlink">
    <!-- Generator: Sketch 53.2 (72643) - https://sketchapp.com -->
    <title>Change-outline-fill</title>
    <desc>Created with Sketch.</desc>
    <g id="Change-outline" stroke="none" stroke-width="1" fill="none" fill-rule="evenodd">
        <path d="M2.66666667,7.10542736e-15 C1.19390733,7.10542736e-15 7.10542736e-15,1.19390733 7.10542736e-15,2.66666667 L7.10542736e-15,29.3333333 C7.10542736e-15,30.8060927 1.19390733,32 2.66666667,32 L29.3333333,32 C30.8060927,32 32,30.8060927 32,29.3333333 L32,7.10542736e-15 L2.66666667,7.10542736e-15 Z M29.3333333,30 L2.66666667,30 C2.29847683,30 2,29.7015232 2,29.3333333 L2,22.2622222 L22,22.2266667 L17.2577778,26.9511111 C16.9067702,27.3033461 16.9077651,27.8734368 17.26,28.2244444 C17.612235,28.575452 18.1823257,28.5744571 18.5333333,28.2222222 L25.4311111,21.3288889 L18.5333333,14.4444444 C18.1810984,14.0922095 17.6100127,14.0922095 17.2577778,14.4444444 C16.9055428,14.7966794 16.9055428,15.3677651 17.2577778,15.72 L21.9777778,20.4222222 L2,20.4533333 L2,2.67555556 C1.99762184,2.49720949 2.06680846,2.32534768 2.19209141,2.1983943 C2.31737435,2.07144092 2.48830474,1.99998414 2.66666667,2 L30,2 L30,9.8 L10.0222222,9.76888889 L14.7422222,5.04888889 C14.9692844,4.82103283 15.0575387,4.48934895 14.9737406,4.17877935 C14.8899425,3.86820975 14.646823,3.62593734 14.3359628,3.5432238 C14.0251026,3.46051025 13.6937288,3.54992172 13.4666667,3.77777778 L6.56888889,10.6755556 L13.4666667,17.5555556 C13.8189016,17.9077905 14.3899873,17.9077905 14.7422222,17.5555556 C15.0944572,17.2033206 15.0944572,16.6322349 14.7422222,16.28 L10.0222222,11.5777778 L30.0222222,11.6088889 L30.0222222,29.3333333 C30.0223227,29.5140628 29.9490425,29.6870887 29.8191699,29.8127719 C29.6892973,29.9384551 29.5139624,30.0060243 29.3333333,30 Z" id="Shape" fill="#2D2D2D" fill-rule="nonzero"></path>
    </g>
</svg>