<?xml version="1.0" encoding="UTF-8"?>
<svg width="32px" height="32px" viewBox="0 0 32 32" version="1.1" xmlns="http://www.w3.org/2000/svg" xmlns:xlink="http://www.w3.org/1999/xlink">
    <!-- Generator: Sketch 50.2 (55047) - http://www.bohemiancoding.com/sketch -->
    <title>circle-checkmark-outline</title>
    <desc>Created with Sketch.</desc>
    <defs></defs>
    <g id="circle-checkmark" stroke="none" stroke-width="1" fill="none" fill-rule="evenodd">
        <path d="M16,0 C24.8373333,0 32,7.164 32,16 C32,24.836 24.8373333,32 16,32 C7.164,32 0,24.836 0,16 C0,7.164 7.164,0 16,0 Z M16,30 C23.72,30 30,23.72 30,16 C30,8.28 23.72,2 16,2 C8.28,2 2,8.28 2,16 C2,23.72 8.28,30 16,30 Z M14.0134667,18.5917333 L21.9974667,10.5784 L23.4134667,11.9904 L14.0148,21.4224 L9.4028,16.8090667 L10.8161333,15.3957333 L14.0134667,18.5917333 Z" id="Combined-Shape" fill="#212121"></path>
    </g>
</svg>