<?xml version="1.0" encoding="UTF-8"?>
<svg width="32px" height="32px" viewBox="0 0 32 32" version="1.1" xmlns="http://www.w3.org/2000/svg" xmlns:xlink="http://www.w3.org/1999/xlink">
    <!-- Generator: Sketch 50.2 (55047) - http://www.bohemiancoding.com/sketch -->
    <title>circle-more-outline</title>
    <desc>Created with Sketch.</desc>
    <defs></defs>
    <g id="circle-more" stroke="none" stroke-width="1" fill="none" fill-rule="evenodd">
        <path d="M16,0 C24.836,0 32,7.164 32,16 C32,24.836 24.836,32 16,32 C7.164,32 0,24.836 0,16 C0,7.164 7.164,0 16,0 Z M16,30 C23.72,30 30,23.72 30,16 C30,8.28 23.72,2 16,2 C8.28,2 2,8.28 2,16 C2,23.72 8.28,30 16,30 Z M24,14 C25.1048889,14 26,14.8951111 26,16 C26,17.1048889 25.1048889,18 24,18 C22.8951111,18 22,17.1048889 22,16 C22,14.8951111 22.8951111,14 24,14 Z M8,14 C9.10488889,14 10,14.8951111 10,16 C10,17.1048889 9.10488889,18 8,18 C6.89511111,18 6,17.1048889 6,16 C6,14.8951111 6.89511111,14 8,14 Z M16,14 C17.1048889,14 18,14.8951111 18,16 C18,17.1048889 17.1048889,18 16,18 C14.8951111,18 14,17.1048889 14,16 C14,14.8951111 14.8951111,14 16,14 Z" id="Combined-Shape" fill="#212121"></path>
    </g>
</svg>