<?xml version="1.0" encoding="UTF-8"?>
<svg width="32px" height="32px" viewBox="0 0 32 32" version="1.1" xmlns="http://www.w3.org/2000/svg" xmlns:xlink="http://www.w3.org/1999/xlink">
    <!-- Generator: Sketch 50.2 (55047) - http://www.bohemiancoding.com/sketch -->
    <title>circle-save-outline</title>
    <desc>Created with Sketch.</desc>
    <defs></defs>
    <g id="circle-save" stroke="none" stroke-width="1" fill="none" fill-rule="evenodd">
        <path d="M16,0 C24.8226667,0 32,7.17733333 32,16 C32,24.8226667 24.8226667,32 16,32 C7.17733333,32 0,24.8226667 0,16 C0,7.17733333 7.17733333,0 16,0 Z M14.344,30.0226667 C22.8666667,30.9973333 30.1173333,24.3306667 30.1173333,16 C30.1173333,8.55333333 24.3173333,2.45333333 17,1.93733333 L17,2.05066667 L17,18.5853333 L21.5226667,14.064 C21.9133333,13.6733333 22.5466667,13.6733333 22.9373333,14.064 C23.3266667,14.4533333 23.3266667,15.0866667 22.9373333,15.4773333 L16,22.4146667 L9.06266667,15.4773333 C8.672,15.0866667 8.672,14.4533333 9.06266667,14.064 C9.45333333,13.6733333 10.0866667,13.6733333 10.4773333,14.064 L15,18.5866667 L15,2.05066667 L15,1.93733333 C7.084,2.496 0.944,9.588 2.00133333,17.8533333 C2.81333333,24.192 7.99466667,29.296 14.344,30.0226667 Z" id="Combined-Shape" fill="#212121"></path>
    </g>
</svg>