<svg xmlns="http://www.w3.org/2000/svg" viewBox="0 0 100 100"><g id="Outline"><path d="M73.5,18.5v63h-47v-63h47M74.78,14H25.22A3.22,3.22,0,0,0,22,17.22V82.78A3.22,3.22,0,0,0,25.22,86H74.78A3.22,3.22,0,0,0,78,82.78V17.22A3.22,3.22,0,0,0,74.78,14ZM69.5,24.88v8.36H30.08V24.88ZM67.17,27H39v4.18H67.17ZM30.08,47.34H69.5v-.12H30.08Zm0,13.93H69.5V61.2H30.08Zm0,13.93H69.5v0H30.08Zm0-36.34V39H69.5v-.11Zm0,8.36H69.5V39H30.08ZM39,41H67.17v4.18H39Zm-9,11.95H69.5v-.06H30.08Zm0,8.3H69.5V52.9H30.08Zm2-6.27H60.23v4.18H32.1Zm-2,11.9H69.5v0H30.08Zm0,8.35H69.5V66.83H30.08Zm9-6.27H67.17v4.18H39Z"/></g></svg>