<?xml version="1.0" encoding="UTF-8"?>
<svg width="32px" height="32px" viewBox="0 0 32 32" version="1.1" xmlns="http://www.w3.org/2000/svg" xmlns:xlink="http://www.w3.org/1999/xlink">
    <!-- Generator: Sketch 50.2 (55047) - http://www.bohemiancoding.com/sketch -->
    <title>cloud-outline</title>
    <desc>Created with Sketch.</desc>
    <defs></defs>
    <g id="cloud" stroke="none" stroke-width="1" fill="none" fill-rule="evenodd">
        <path d="M7,27 C3.13400675,27 0,23.8659932 0,20 C0,17.2033498 1.64003851,14.7897511 4.01081417,13.6685053 C4.18144384,11.0616254 6.34996272,9 9,9 C9.78910961,9 10.5355236,9.18280179 11.1992049,9.50836838 C12.7541527,6.81364799 15.6652763,5 19,5 C23.860365,5 27.8208715,8.85275186 27.9940921,13.670828 C30.3622239,14.7930819 32,17.2052794 32,20 C32,23.8659932 28.8659932,27 25,27 L7,27 Z M7,25 L25,25 C27.7614237,25 30,22.7614237 30,20 C30,18.0475523 28.8716857,16.2999328 27.1376032,15.4781539 L26.0390607,14.9575563 L25.9953834,13.7426861 C25.8603635,9.98714925 22.7704068,7 19,7 C16.4682491,7 14.174581,8.35368909 12.9314922,10.5079587 L11.9970137,12.1274075 L10.3183831,11.303961 C9.91240033,11.1048076 9.46573294,11 9,11 C7.41753139,11 6.10924001,12.230139 6.00654371,13.799133 L5.92968476,14.973384 L4.86589471,15.4764979 C3.12993372,16.2975115 2,18.0461637 2,20 C2,22.7614237 4.23857625,25 7,25 Z" id="Combined-Shape-Copy" fill="#212121" fill-rule="nonzero"></path>
    </g>
</svg>