<svg xmlns="http://www.w3.org/2000/svg" viewBox="0 0 100 100"><g id="Outline"><path d="M36.27,53.64a7.33,7.33,0,0,0-5.59,8.79,7.38,7.38,0,0,0,7.19,5.79,8.54,8.54,0,0,0,1.59-.2,7.32,7.32,0,0,0,5.6-8.78,7.44,7.44,0,0,0-8.79-5.6m4.59,9.09a3.51,3.51,0,0,1-2.29,1.6,4,4,0,0,1-2.8-.5,3.51,3.51,0,0,1-1.6-2.3A3.73,3.73,0,0,1,37,57.14a3.91,3.91,0,0,1,2.79.5,3.51,3.51,0,0,1,1.6,2.3,3.84,3.84,0,0,1-.5,2.79"/><path d="M56.24,64.63,61.53,62,58.94,49.75l-6-.1a17.27,17.27,0,0,0-2.6-2.8l.4-6L38.87,37.07l-3.2,5.09c-.7.1-1.3.2-1.9.3a17.28,17.28,0,0,0-1.89.5l-5-3.3-9.19,8.39,2.8,5.3A22.42,22.42,0,0,0,19.29,57L14,59.54l2.7,12.28,6,.2a17.67,17.67,0,0,0,2.59,2.8l-.4,6,12,3.79L40,79.51c.7-.1,1.3-.2,1.9-.3a12.09,12.09,0,0,0,1.8-.5l5,3.3,9.29-8.49L55,68.32A26,26,0,0,0,56.24,64.63Zm-4.19-3.2-.3,1.8a13.52,13.52,0,0,1-1.1,3.4l-.8,1.79,2.2,4.1L48.25,76l-3.89-2.59-1.8.6c-.7.2-1.2.4-1.7.5s-1.1.2-1.79.3l-1.9.2-2.4,4-5-1.6.3-4.69-1.4-1.2a12.74,12.74,0,0,1-2.5-2.7l-1.1-1.39-4.59-.1-1.1-5.1,4.2-2.09.3-1.8A15.43,15.43,0,0,1,25,54.94l.8-1.69-2.19-4.1,3.79-3.49,3.9,2.59,1.69-.8c.7-.2,1.2-.4,1.7-.5s1.1-.2,1.8-.3l1.9-.2,2.39-4,5,1.6-.3,4.69L46.85,50a12.74,12.74,0,0,1,2.5,2.7l1.1,1.49,4.59.1,1.1,5.1Z"/><path d="M82.21,30.88c-.1-.4-.1-.8-.2-1.2s-.2-.7-.3-1.1L84.1,25l-6.49-7.09L73.82,20a18.66,18.66,0,0,0-2.2-.7l-1.9-3.89-9.48,2.1-.1,4.39a12.88,12.88,0,0,0-1.7,1.6l-4.4-.3-2.89,9.18,3.69,2.2c.1.4.1.8.2,1.2s.2.7.3,1.1L53,40.46l6.49,7.09,3.89-2.09a18.66,18.66,0,0,0,2.2.7l2,3.89L76.91,48l.1-4.39a12.88,12.88,0,0,0,1.7-1.6l4.39.3L86,33.07Zm-8.29,9.58-1.2,1-.1,3.1-2.9.6-1.4-2.8-1.49-.3a8.78,8.78,0,0,1-2.3-.7l-1.4-.7-2.79,1.5-2-2.2,1.8-2.59-.5-1.5a3,3,0,0,1-.3-1.2c-.1-.4-.1-.7-.2-1.2L59,31.88l-2.7-1.7.9-2.8,3.2.2,1-1.2a9.4,9.4,0,0,1,1.8-1.69l1.3-.9.1-3.2,2.9-.6,1.39,2.8,1.5.3a10.1,10.1,0,0,1,2.3.7l1.4.7L76.91,23l2,2.19-2,2.8.5,1.5a2.66,2.66,0,0,1,.3,1.2c.1.3.1.7.2,1.2l.1,1.59,2.7,1.7-.8,2.7-3.2-.2-1,1.2A7,7,0,0,1,73.92,40.46Z"/><path d="M65.43,37.57a5.61,5.61,0,0,0,3.09.9,4.87,4.87,0,0,0,1.2-.1,5.78,5.78,0,1,0-2.49-11.29,5.47,5.47,0,0,0-3.6,2.5,6.15,6.15,0,0,0-.8,4.39,6,6,0,0,0,2.6,3.6m1.4-6a1.76,1.76,0,0,1,1.29-.9h.4a2,2,0,0,1,2,1.59,2,2,0,0,1-.3,1.5,1.76,1.76,0,0,1-1.3.9,2,2,0,0,1-2.39-1.5,2.19,2.19,0,0,1,.3-1.59"/></g></svg>