<?xml version="1.0" encoding="UTF-8"?>
<svg width="32px" height="32px" viewBox="0 0 32 32" version="1.1" xmlns="http://www.w3.org/2000/svg" xmlns:xlink="http://www.w3.org/1999/xlink">
    <!-- Generator: Sketch 53.2 (72643) - https://sketchapp.com -->
    <title>community-outline-fill</title>
    <desc>Created with Sketch.</desc>
    <g id="community-outline" stroke="none" stroke-width="1" fill="none" fill-rule="evenodd">
        <path d="M15.9999743,11.9999934 C12.699125,11.995008 10.0202487,9.32843889 10.0000638,6.02764755 C9.9889034,3.598433 11.4436375,1.40220226 13.6847438,0.464838757 C15.9258501,-0.472524747 18.5110267,0.0339758963 20.2327092,1.74774869 C21.9543917,3.46152148 22.472791,6.04433833 21.5457572,8.2897372 C20.6187233,10.5351361 18.4292145,11.9999678 15.9999743,11.9999934 Z M15.9999743,2.16399918 L15.9999743,2.1731874 C14.9797671,2.17440118 14.001963,2.58147257 13.2822928,3.3045902 C12.5626227,4.02770783 12.1602289,5.00744622 12.1638906,6.02764755 C12.176564,8.14635637 13.9025973,9.8545964 16.0213237,9.84531529 C18.1400501,9.83603417 19.8510515,8.11273815 19.8451627,5.99399961 C19.8392739,3.87526107 18.1187196,2.1615027 15.9999743,2.16399918 Z M4.98161318,14.8166257 C2.22843055,14.8040321 0.00249014642,12.5699081 3.55271368e-15,9.81669779 C1.35782889e-05,7.79275198 1.22019807,5.96844884 3.09079257,5.19564039 C4.96138707,4.42283195 7.1133746,4.8539721 8.54189205,6.28774145 C9.9704095,7.72151081 10.3936496,9.87506601 9.61398179,11.7428119 C8.834314,13.6105578 7.00554542,14.8240395 4.98161318,14.8166257 Z M4.98161318,6.96875349 C4.22629139,6.96875349 3.50190562,7.26880391 2.96781245,7.80289707 C2.43371929,8.33699023 2.13366888,9.061376 2.13366888,9.81669779 C2.13366888,11.389574 3.40873698,12.6646421 4.98161318,12.6646421 C6.55448939,12.6646421 7.82955748,11.389574 7.82955748,9.81669779 C7.82955748,8.24382159 6.55448939,6.96875349 4.98161318,6.96875349 Z M27.0366294,14.8167639 C25.7045813,14.8252956 24.4240946,14.3024268 23.4787437,13.3639512 C22.5333928,12.4254755 22.0011914,11.1488394 22,9.81676457 C22.000074,7.06012578 24.231248,4.82359653 26.9878787,4.81691408 C29.7445094,4.81023162 31.9865005,7.03591729 31.9999393,9.79252333 C32.0133782,12.5491294 29.7931942,14.7965688 27.0366294,14.8167639 Z M27.0366294,6.97335834 C25.4673049,6.97587935 24.1957442,8.2474401 24.1932232,9.81676457 C24.1913714,10.9694982 24.884581,12.0096705 25.9492147,12.4516584 C27.0138485,12.8936463 28.2399271,12.650276 29.055034,11.8351691 C29.8701408,11.0200623 30.1135112,9.79398365 29.6715233,8.72934992 C29.2295354,7.6647162 28.189363,6.97150656 27.0366294,6.97335834 Z M25.7333333,17.1517039 C27.7029321,17.1239981 29.6519808,17.5571601 31.4266667,18.4170058 L32,18.7076229 L32,32 L3.55271368e-15,32 L3.55271368e-15,18.7076229 L0.577777778,18.4170058 C2.35246363,17.5571601 4.30151235,17.1239981 6.27111111,17.1517039 C6.9750307,17.1525667 7.67784256,17.2078724 8.37333333,17.3171321 L8.37333333,16.8432027 L8.94666667,16.5481146 C11.1310318,15.5034013 13.5237056,14.9742923 15.9422222,15.0011377 C18.4050355,14.9714621 20.8404993,15.5227195 23.0533333,16.6107091 L23.6177778,16.9057971 L23.6177778,17.3216031 C24.3176336,17.2108602 25.0248764,17.1540619 25.7333333,17.1517039 Z M2.08888889,29.8941441 L8.36888889,29.8941441 L8.36888889,19.4364011 C6.26062574,19.0594774 4.09020771,19.2649922 2.08888889,20.0310483 L2.08888889,29.8941441 Z M10.4755556,29.8941441 L21.5244444,29.8941441 L21.5244444,18.2068674 C19.7569614,17.4580554 17.8554999,17.0821839 15.9377778,17.1025225 C14.0658133,17.0851476 12.2090901,17.4422999 10.4755556,18.153215 L10.4755556,29.8941441 Z M29.9111111,29.8941441 L29.9111111,20.0310483 C27.9056132,19.2629854 25.7303701,19.0574501 23.6177778,19.4364011 L23.6177778,29.8941441 L29.9111111,29.8941441 Z" id="Combined-Shape" fill="#2D2D2D" fill-rule="nonzero"></path>
    </g>
</svg>