<?xml version="1.0" encoding="UTF-8"?>
<svg width="32px" height="32px" viewBox="0 0 32 32" version="1.1" xmlns="http://www.w3.org/2000/svg" xmlns:xlink="http://www.w3.org/1999/xlink">
    <!-- Generator: Sketch 50.2 (55047) - http://www.bohemiancoding.com/sketch -->
    <title>compass-outline</title>
    <desc>Created with Sketch.</desc>
    <defs></defs>
    <g id="compass" stroke="none" stroke-width="1" fill="none" fill-rule="evenodd">
        <path d="M17.4620276,18.9327416 L13.1237589,14.5944729 L11.6776693,20.3788312 L17.4620276,18.9327416 Z M14.5379724,13.1802593 L18.8762411,17.5185281 L20.3223307,11.7341698 L14.5379724,13.1802593 Z M16,0 C24.8,0 32,7.2 32,16 C32,24.8 24.8,32 16,32 C7.2,32 0,24.8 0,16 C0,7.2 7.2,0 16,0 Z M17,29.9 C23.9,29.5 29.5,23.9 29.9,17 L27,17 C26.4,17 26,16.6 26,16 C26,15.4 26.4,15 27,15 L29.9,15 C29.5,8.1 23.9,2.6 17,2.1 L17,5 C17,5.6 16.6,6 16,6 C15.4,6 15,5.6 15,5 L15,2.1 C8.1,2.5 2.5,8.1 2.1,15 L5,15 C5.6,15 6,15.4 6,16 C6,16.6 5.6,17 5,17 L2.1,17 C2.5,23.9 8.1,29.5 15,29.9 L15,27 C15,26.4 15.4,26 16,26 C16.6,26 17,26.4 17,27 L17,29.9 Z M19.0784697,20.5901839 L10.5458364,22.7233423 C10.0100414,22.857291 9.46710696,22.5315303 9.33315823,21.9957354 C9.29334823,21.8364954 9.29334823,21.6699041 9.33315823,21.5106641 L11.4663166,12.9780308 C11.6454592,12.2614604 12.2049599,11.7019597 12.9215303,11.5228171 L21.4541636,9.38965873 C21.9899586,9.25571 22.532893,9.58147069 22.6668418,10.1172656 C22.7066518,10.2765056 22.7066518,10.4430969 22.6668418,10.6023369 L20.5336834,19.1349702 C20.3545408,19.8515406 19.7950401,20.4110413 19.0784697,20.5901839 Z" id="Combined-Shape" fill="#212121" fill-rule="nonzero"></path>
    </g>
</svg>