<svg xmlns="http://www.w3.org/2000/svg" viewBox="0 0 100 100"><g id="Outline"><path d="M37.46,14.15V37a25.83,25.83,0,0,0-16.3,7.1A24.45,24.45,0,0,0,38.45,85.85a24.22,24.22,0,0,0,17.29-7,25.8,25.8,0,0,0,7.1-16.15H70.2L85.89,45.26l.11-.12v-31Zm43,31.37-9.73,11.9V45.52ZM82.3,17.86V42.77H67V59H62.8A25.15,25.15,0,0,0,56,44a25.49,25.49,0,0,0-14.86-6.9V17.86ZM53,76a20.61,20.61,0,1,1,0-29.13A20.46,20.46,0,0,1,53,76Z"/><path d="M48.66,68.77c.19-.33.44-.59.62-.92s.31-.59.5-.91l3.85-.87.17-8.78-3.83-1a16.44,16.44,0,0,0-1-1.85l1.2-3.77-7.59-4.59-2.84,2.85a11.56,11.56,0,0,0-2.12,0l-2.72-3-7.7,4.24L28.25,54c-.19.33-.44.6-.63.92l-.49.92-3.85.86-.18,8.78L27,66.52a15.47,15.47,0,0,0,1,1.84L26.88,72.2l7.52,4.52,2.84-2.84a11.66,11.66,0,0,0,2.13,0l2.71,3,7.71-4.25ZM37.14,69.89l-1.42-.1-2,2-2.29-1.42.84-2.73-.8-1.15a7.68,7.68,0,0,1-1.08-1.9l-.48-1.35-2.8-.77.07-2.71L30,59.16l.62-1.31a2.83,2.83,0,0,1,.55-1c.19-.33.38-.52.63-.92l.94-1.12L32,52l2.36-1.28,2,2.15,1.41-.17a9,9,0,0,1,2.26,0l1.42.23,2.08-2.05,2.29,1.43L45,55.06l.8,1.14a9.56,9.56,0,0,1,1.08,1.91l.48,1.34,2.79.77-.06,2.71L47,63.52l-.62,1.31a2.48,2.48,0,0,1-.55,1c-.13.26-.38.52-.63.92l-.94,1.11L45,70.67l-2.23,1.27-2-2.14L39.34,70A6.52,6.52,0,0,1,37.14,69.89Zm-3.78-7.27a5,5,0,0,0,1.48,2.55,4.42,4.42,0,0,0,.85.69,5.28,5.28,0,1,0,5.46-9,5,5,0,0,0-3.95-.61,5.61,5.61,0,0,0-3.3,2.4,5.42,5.42,0,0,0-.54,4m4.69-3.08a1.63,1.63,0,0,1,1.43.23l.26.25a1.84,1.84,0,0,1,.32,2.31,1.82,1.82,0,0,1-1.15.81,1.61,1.61,0,0,1-1.42-.23,1.81,1.81,0,0,1-.64-2.5,2,2,0,0,1,1.2-.87"/></g></svg>