<svg xmlns="http://www.w3.org/2000/svg" viewBox="0 0 100 100"><g id="Outline"><path d="M23,23.75H14v4.5h9V47.58H14v4.55h9V71.69H14v4.5h9V86H81.5A4.51,4.51,0,0,0,86,81.5v-63A4.51,4.51,0,0,0,81.5,14H23ZM81.5,18.5v63h-54v-63Z"/><path d="M54.5,29.7a9.16,9.16,0,1,1-9.16,9.15A9.17,9.17,0,0,1,54.5,29.7m0-3.5A12.66,12.66,0,1,0,67.15,38.85,12.67,12.67,0,0,0,54.5,26.2Z"/><path d="M54.5,58.55A45.44,45.44,0,0,1,70.74,61.4v8.9H38.25V61.4A45.49,45.49,0,0,1,54.5,58.55m0-3.5a47.86,47.86,0,0,0-18.9,3.66,1.44,1.44,0,0,0-.85,1.3V72.38a1.42,1.42,0,0,0,1.42,1.42H72.82a1.42,1.42,0,0,0,1.42-1.42V60a1.42,1.42,0,0,0-.85-1.3A47.84,47.84,0,0,0,54.5,55.05Z"/></g></svg>