<svg xmlns="http://www.w3.org/2000/svg" viewBox="0 0 100 100"><g id="Outline"><path d="M50.1,86A36,36,0,1,0,14,50.1,36,36,0,0,0,50.1,86Zm-.19-67.5A31.5,31.5,0,1,1,18.5,50.09,31.53,31.53,0,0,1,49.91,18.5ZM59.18,50c-1.48-1.36-3.9-2.42-7.22-3.18v-7a2.92,2.92,0,0,1,1.92,1,4.26,4.26,0,0,1,1,2.72h5.6A8.2,8.2,0,0,0,58,37.73a10.53,10.53,0,0,0-6-2.53V32H48.79v3.21a10.33,10.33,0,0,0-6.17,2.56,7.64,7.64,0,0,0-2.46,5.82,7,7,0,0,0,.94,3.77,6.42,6.42,0,0,0,2.33,2.28,15.68,15.68,0,0,0,2.25,1.09c.52.19,1.56.5,3.11.92v8.24a5.16,5.16,0,0,1-2.56-1.59A5,5,0,0,1,45.09,55v-.12h-5.6a10.86,10.86,0,0,0,3,7.1,10.31,10.31,0,0,0,6.33,2.67V68h.52v0h2.32v0H52V64.61a11.94,11.94,0,0,0,4.92-1.34,8.88,8.88,0,0,0,3.43-3.18,7.49,7.49,0,0,0,1.18-3.92A7.92,7.92,0,0,0,59.18,50ZM46.6,45a2.5,2.5,0,0,1-.84-2,3,3,0,0,1,1-2.37,3.56,3.56,0,0,1,2-.87v6.25A6,6,0,0,1,46.6,45Zm8.09,13.76A5.33,5.33,0,0,1,52,60V52.55a8.17,8.17,0,0,1,3,1.33,2.84,2.84,0,0,1,.93,2.29A3.32,3.32,0,0,1,54.69,58.79Z"/></g></svg>