<svg xmlns="http://www.w3.org/2000/svg" viewBox="0 0 100 100"><g id="Outline"><path d="M25.19,17V44.45a4.49,4.49,0,0,0,4.5,4.49h44a4.5,4.5,0,0,0,4.5-4.49V17.14Zm48.5,4.49v3.56h-44V21.49Zm-44,23v-13h44v13Z"/><ellipse cx="61.88" cy="40.87" rx="2.36" ry="2.35"/><ellipse cx="69.74" cy="40.87" rx="2.36" ry="2.35"/><path d="M85.91,68.11A35.52,35.52,0,0,0,84.6,63l-.08-.21-.17-.16c-1-.87-1-.89-20.87,1.16a4.16,4.16,0,0,0-3.73-4L39.36,57.46,36.21,55,14,49.07V76.7l1.79.54c5.58,1.66,14.61,4.38,17.1,5.24.64.48,1.59.52,3,.52h1.76c1.86,0,4.35-.07,6.83-.12,5-.1,9.92-.22,9.92-.22h.37L83,73.17A4.42,4.42,0,0,0,85.91,68.11ZM19,55.58l15,4,3.42,2.71,21.07,2.45v3.2H36.06v5H58.61a4.86,4.86,0,0,0,4.76-4.07c5.95-.58,13.63-1.4,17.27-1.72.08.41.17.88.29,1.45l-27,9.06c-6.72.16-17,.38-18.91.34-1.85-.8-5.75-2-16-5Z"/></g></svg>