<svg xmlns="http://www.w3.org/2000/svg" viewBox="0 0 100 100"><g id="Outline"><path d="M69.87,17.8C64.52,15.35,57.47,14,50,14s-14.52,1.35-19.87,3.8C24.24,20.49,21,24.28,21,28.47V71.53c0,4.19,3.24,8,9.13,10.67C35.47,84.65,42.53,86,50,86s14.53-1.35,19.87-3.8C75.76,79.51,79,75.72,79,71.53V28.47C79,24.28,75.76,20.49,69.87,17.8ZM74.6,64.49v7c0,2.34-2.39,4.77-6.57,6.68-4.78,2.19-11.18,3.4-18,3.4s-13.25-1.21-18-3.4c-4.18-1.91-6.57-4.34-6.57-6.68v-7a22.26,22.26,0,0,0,4.73,2.83c5.35,2.45,12.4,3.8,19.87,3.8s14.52-1.35,19.87-3.8A22.51,22.51,0,0,0,74.6,64.49ZM68,63.33c-4.78,2.19-11.18,3.4-18,3.4s-13.25-1.21-18-3.4C27.79,61.42,25.4,59,25.4,56.65v-7a23,23,0,0,0,4.73,2.84c5.34,2.44,12.4,3.79,19.87,3.79s14.53-1.35,19.87-3.79a23,23,0,0,0,4.73-2.84v7C74.6,59,72.21,61.42,68,63.33Zm0-14.88c-4.78,2.19-11.18,3.4-18,3.4s-13.25-1.21-18-3.4c-4.18-1.91-6.57-4.34-6.57-6.68V36.31a23,23,0,0,0,4.73,2.84c5.35,2.45,12.4,3.79,19.87,3.79s14.52-1.34,19.87-3.79a23,23,0,0,0,4.73-2.84v5.46C74.6,44.11,72.21,46.54,68,48.45Zm0-13.29c-4.78,2.19-11.18,3.39-18,3.39s-13.25-1.2-18-3.39c-4.18-1.91-6.57-4.35-6.57-6.69S27.79,23.7,32,21.79c4.78-2.19,11.18-3.4,18-3.4s13.25,1.21,18,3.4c4.18,1.91,6.57,4.34,6.57,6.68S72.21,33.24,68,35.16Z"/></g></svg>