<svg xmlns="http://www.w3.org/2000/svg" viewBox="0 0 100 100"><g id="Outline"><path d="M23.56,34.21v27.5a4.51,4.51,0,0,0,4.5,4.5h44a4.5,4.5,0,0,0,4.5-4.5V34.35Zm48.5,4.5v3.57h-44V38.71Zm-44,23v-13h44v13Z"/><circle cx="60.25" cy="58.13" r="2.36"/><circle cx="68.11" cy="58.13" r="2.36"/><path id="Outline-v2" d="M50,81.5a31.37,31.37,0,0,1-20.6-7.72L73.78,29.4A31.46,31.46,0,0,1,50,81.5M18.5,50A31.46,31.46,0,0,1,70.6,26.22L26.22,70.6A31.37,31.37,0,0,1,18.5,50M50,14A36,36,0,1,0,86,50,36,36,0,0,0,50,14"/></g></svg>