<?xml version="1.0" encoding="UTF-8"?>
<svg width="32px" height="32px" viewBox="0 0 32 32" version="1.1" xmlns="http://www.w3.org/2000/svg" xmlns:xlink="http://www.w3.org/1999/xlink">
    <!-- Generator: Sketch 50.2 (55047) - http://www.bohemiancoding.com/sketch -->
    <title>delete-outline</title>
    <desc>Created with Sketch.</desc>
    <defs></defs>
    <g id="delete" stroke="none" stroke-width="1" fill="none" fill-rule="evenodd">
        <path d="M24.6352651,27.7119821 L24.9966,10.0745753 L26.9966083,10.0745753 L26.6352735,27.7533156 C26.5872733,30.1133255 24.6592652,32 22.2992554,32 L7.84986187,32 C5.48985204,32 3.56317735,30.1133255 3.51517715,27.7533156 L3.15250897,10.0745753 L5.1525173,10.0745753 L5.51385214,27.7119821 C5.54051892,28.9733207 6.58852329,29.9999917 7.84986187,29.9999917 L22.2992554,29.9999917 C23.5619273,29.9999917 24.6099317,28.9733207 24.6352651,27.7119821 Z M2.00010417,4 L28,4 C28.5533356,4 29.0000042,4.44666853 29.0000042,5.00000417 C29.0000042,5.55333981 28.5533356,6.00000833 28,6.00000833 L2.00010417,6.00000833 C1.44676853,6.00000833 1.0001,5.55333981 1.0001,5.00000417 C1.0001,4.44666853 1.44676853,4 2.00010417,4 Z M20.9999958,2.00000833 L9.00010417,2.00000833 C8.44676853,2.00000833 8.0001,1.55333981 8.0001,1.00000417 C8.0001,0.446668528 8.44676853,0 9.00010417,0 L20.9999958,0 C21.5533315,0 22,0.446668528 22,1.00000417 C22,1.55333981 21.5533315,2.00000833 20.9999958,2.00000833 Z" id="Combined-Shape" fill="#212121"></path>
    </g>
</svg>