<?xml version="1.0" encoding="UTF-8"?>
<svg width="32px" height="32px" viewBox="0 0 32 32" version="1.1" xmlns="http://www.w3.org/2000/svg" xmlns:xlink="http://www.w3.org/1999/xlink">
    <!-- Generator: Sketch 53.2 (72643) - https://sketchapp.com -->
    <title>desktop-outline-fill</title>
    <desc>Created with Sketch.</desc>
    <g id="desktop-outline" stroke="none" stroke-width="1" fill="none" fill-rule="evenodd">
        <path d="M25.7111111,7.27111111 C26.2592103,7.27110565 26.7042198,7.71412853 26.7066667,8.26222222 L26.7066667,21.0044444 C26.7066667,21.5542746 26.2609413,22 25.7111111,22 L6.28888889,22 C5.73905874,22 5.29333333,21.5542746 5.29333333,21.0044444 L5.29333333,8.26222222 C5.2957802,7.71412853 5.74078974,7.27110565 6.28888889,7.27111111 L25.7111111,7.27111111 Z M24.72,20 L24.72,9 L7.28,9 L7.28,20 L24.72,20 Z M31.0088889,23 C31.2725198,22.9999973 31.5252886,23.1050276 31.7112863,23.2918593 C31.897284,23.4786911 32.0011822,23.7319273 32,23.9955556 L32,27.0177778 C31.9951218,27.5616788 31.5528118,28.0000219 31.0088889,28 L0.991111111,28 C0.447188179,28.0000219 0.00487823213,27.5616788 -7.10542736e-15,27.0177778 L-7.10542736e-15,23.9866667 C0.00244683663,23.4410276 0.445466535,22.9999945 0.991111111,23 L2.12,23 L2.12,4.99111111 C2.12,4.7282521 2.22442034,4.47615911 2.41028972,4.29028972 C2.59615911,4.10442034 2.8482521,4 3.11111111,4 L28.8888889,4 C29.4310786,4.00240961 29.8706982,4.44004895 29.8755556,4.98222222 L29.8755556,23 L31.0088889,23 Z M4.11111111,5.97333333 L4.11111111,22.9733333 L27.8888889,22.9733333 L27.8888889,5.97333333 L4.11111111,5.97333333 Z M30.0133333,26.36 L30.0133333,24.8133333 L1.98666667,24.8133333 L1.98666667,26.36 L30.0133333,26.36 Z" id="Combined-Shape" fill="#2D2D2D" fill-rule="nonzero"></path>
    </g>
</svg>