<svg xmlns="http://www.w3.org/2000/svg" viewBox="0 0 100 100"><g id="Outline"><path d="M68.16,75.1a5.69,5.69,0,0,0-1,.1L55.39,66.79v-8.1H69.15c.79,0,1.14-.26,1.14-1v-7c0-1.73-1.68-3.17-4-3.17H40.2c-2.29,0-4,1.44-4,3.17v1.22c-4-2.78-6.91-11.19-6.91-15.54V31.25h3.76l2.17,12.86c.14.78.45,1.07,1.23.94l6.86-1.16c1.7-.29,2.84-2.19,2.46-4.45l-3.73-22C41.69,15.16,40,13.75,38.28,14L31.43,15.2c-.78.13-1,.51-.85,1.29l2,11.83H26.39v8c0,6,4.23,17,9.84,19v2.3c0,.79.34,1,1.13,1H52.67V67L41.17,75.2a5.69,5.69,0,0,0-1-.1,5.48,5.48,0,1,0,3.74,1.5l8.78-6.29v2.45a5.45,5.45,0,1,0,2.72,0V70.14l9,6.46a5.45,5.45,0,1,0,3.75-1.5ZM38.76,16.84c.05,0,.38.28.51,1.06l3.73,22c.13.78-.09,1.16-.14,1.17l-4.66.79L34.1,17.62Zm.31,33.85s.33-.33,1.13-.33H66.31c.8,0,1.14.28,1.14.33v4.72H39.07Zm1.08,32.47a2.61,2.61,0,1,1,2.61-2.61A2.61,2.61,0,0,1,40.15,83.16ZM56.64,78A2.61,2.61,0,1,1,54,75.42,2.61,2.61,0,0,1,56.64,78Zm11.52,5.13a2.61,2.61,0,1,1,2.61-2.61A2.61,2.61,0,0,1,68.16,83.16Z"/></g></svg>