<?xml version="1.0" encoding="UTF-8"?>
<svg width="32px" height="32px" viewBox="0 0 32 32" version="1.1" xmlns="http://www.w3.org/2000/svg" xmlns:xlink="http://www.w3.org/1999/xlink">
    <!-- Generator: Sketch 53.2 (72643) - https://sketchapp.com -->
    <title>digital-transformation-outline-fill</title>
    <desc>Created with Sketch.</desc>
    <g id="digital-transformation-outline" stroke="none" stroke-width="1" fill="none" fill-rule="evenodd">
        <path d="M16,17 C14.3431458,17 13,15.6568542 13,14 C13,12.3431458 14.3431458,11 16,11 C17.6568542,11 19,12.3431458 19,14 C19,15.6568542 17.6568542,17 16,17 Z M16,12.6343931 L16,12.6387283 C15.637818,12.6375767 15.2900127,12.7803495 15.0330983,13.0356378 C14.7761839,13.2909262 14.6312058,13.637818 14.6300578,14 C14.6283031,14.554481 14.960964,15.0553407 15.4727349,15.2687483 C15.9845058,15.482156 16.574452,15.366022 16.9671522,14.9745646 C17.3598523,14.5831072 17.4778555,13.9935321 17.266071,13.4810873 C17.0542865,12.9686426 16.5544838,12.6343958 16,12.6343931 Z M7.75830708,16.5479938 C7.31260185,16.4398441 6.99908521,16.0403343 7.00000201,15.5816965 L7.00000201,12.3534834 C7.00398477,11.8978786 7.31902197,11.5040821 7.76264026,11.4001856 L9.2662509,11.0231997 C9.48403691,10.530988 9.75580304,10.0644804 10.076554,9.63225149 L9.64323685,8.12864085 C9.5183444,7.68968157 9.70756834,7.2219771 10.1025531,6.99334981 L12.9017821,5.3770767 C13.2989435,5.15814774 13.7928525,5.22694221 14.1150702,5.5460704 L15.1983632,6.66836192 C15.7322613,6.60336565 16.2720719,6.60336565 16.80597,6.66836192 L17.8892629,5.5460704 C18.2121472,5.22829195 18.7051173,5.15962825 19.1025511,5.3770767 L21.9017801,6.99334981 C22.2922495,7.21949992 22.4809722,7.68062404 22.3610963,8.11564133 L21.9277791,9.61925197 C22.2476208,10.0520799 22.5193267,10.5184841 22.7380823,11.0102001 L24.2416929,11.3871861 C24.6873982,11.4953358 25.0009148,11.8948456 24.999998,12.3534834 L24.999998,15.5990292 C24.9993464,16.0571253 24.6864991,16.4557821 24.2416929,16.5653265 L22.7380823,16.9423124 C22.5202963,17.4345241 22.2485301,17.9010317 21.9277791,18.3332606 L22.3610963,19.8325381 C22.4882182,20.2728354 22.2986928,20.7430729 21.9017801,20.9721623 L19.1025511,22.5841022 C18.9516969,22.6732292 18.7794478,22.7196616 18.6042363,22.7184306 C18.3344975,22.7191659 18.0761869,22.6095796 17.8892629,22.4151085 L16.80597,21.292817 C16.2723428,21.3621361 15.7319904,21.3621361 15.1983632,21.292817 L14.1107371,22.3977758 C13.7891964,22.7182696 13.2943322,22.7871971 12.8974489,22.5667695 L10.0982199,20.9548296 C9.70254565,20.7246662 9.51341887,20.2554177 9.63890368,19.8152054 L10.0722209,18.3159279 C9.75237923,17.8831001 9.48067331,17.4166958 9.26191773,16.9249798 L7.75830708,16.5479938 Z M11.866154,9.95290621 L11.4501695,10.4988859 C11.1521475,10.8862669 10.9046143,11.3099855 10.7135303,11.7598389 L10.4665395,12.4141478 L8.65094049,12.847465 L8.65094049,15.1093807 L10.4665395,15.5426979 L10.6831981,16.1710079 C10.8732261,16.6227355 11.120822,17.048018 11.4198373,17.436294 L11.8531545,17.9779405 L11.3331739,19.7892064 L13.2961007,20.9114979 L14.5960523,19.5595483 L15.2633608,19.6462117 C15.7474934,19.7177309 16.2395071,19.7177309 16.7236397,19.6462117 L17.3996145,19.5595483 L18.6995661,20.9114979 L20.6408271,19.7892064 L20.1251796,17.9779405 L20.5584968,17.436294 C20.8572744,17.0470744 21.1061972,16.6220133 21.2994692,16.1710079 L21.5637927,15.4993662 L23.3837249,15.066049 L23.3837249,12.8257992 L21.5637927,12.392482 L21.2994692,11.7598389 C21.1039605,11.3085674 20.8505045,10.884684 20.5454973,10.4988859 L20.1121801,9.95290621 L20.6278276,8.14597353 L18.6865666,7.02368202 L17.386615,8.37563164 L16.7106402,8.2889682 C16.2266665,8.21531782 15.7343349,8.21531782 15.2503613,8.2889682 L14.5743865,8.37563164 L13.2744349,7.02368202 L11.3331739,8.14597353 L11.866154,9.95290621 Z M30,2 L30,26 L2,26 L2,2 L30,2 Z M28,24 L28,4 L4,4 L4,24 L28,24 Z M0,28 L32,28 L32,30 L0,30 L0,28 Z" id="Combined-Shape" fill="#2D2D2D" fill-rule="nonzero"></path>
    </g>
</svg>