<svg xmlns="http://www.w3.org/2000/svg" viewBox="0 0 100 100"><g id="Outline"><path d="M63.15,77.3l0-.73-.58-.44A13.43,13.43,0,0,1,60.36,74c-1.47-1.89-2.18-6-2.13-12.34,0-4.14.38-7.57.38-7.61.6-5.89,1.34-13.23,3.11-24,1.15-6.93,2.23-12.29,4.9-13a2.71,2.71,0,0,1,.77-.1,4.14,4.14,0,0,1,1.25.21,3.78,3.78,0,0,1,.38.75,3.54,3.54,0,0,1,.21,1.41c0,.31,0,.63,0,.94v58.1L69.39,86h2.87l-.16-7.75V20.11c0-.27,0-.54,0-.83A6.58,6.58,0,0,0,70.67,15l-.24-.31-.37-.14a6.54,6.54,0,0,0-4.23-.33c-4.3,1.23-5.54,6.87-6.93,15.34-1.79,10.84-2.54,18.23-3.14,24.17,0,.14-.36,3.59-.39,7.86-.07,7.16.8,11.65,2.73,14.13a14.86,14.86,0,0,0,2.17,2.22q-.12,4-.22,8.07h2.87C63,83.09,63.07,80.18,63.15,77.3Z"/><path d="M47.59,59.4c4.08-3.13,6.4-8.77,6.06-14.72L52,14.1H49.1l1.68,30.74c.3,5-1.6,9.73-4.93,12.28a5.42,5.42,0,0,0-2.14,4.38L44.2,86h2.86l-.48-24.56A2.49,2.49,0,0,1,47.59,59.4Z"/><path d="M37.7,61.5a5.38,5.38,0,0,0-2.13-4.38c-3.34-2.55-5.23-7.26-4.94-12.29L32.32,14.1H29.45L27.77,44.67c-.34,6,2,11.6,6.06,14.73a2.52,2.52,0,0,1,1,2L34.36,86h2.86Z"/><rect x="36.09" y="14.1" width="2.87" height="28.81"/><rect x="42.8" y="14.1" width="2.87" height="28.81"/></g></svg>