<svg xmlns="http://www.w3.org/2000/svg" viewBox="0 0 100 100"><g id="Outline"><path d="M85.91,64.15a35.74,35.74,0,0,0-1.31-5.08l-.08-.21-.17-.16c-1-.86-1-.88-20.87,1.16a4.14,4.14,0,0,0-3.73-4L39.36,53.53l-3.15-2.44L14,45.16V72.72l1.79.54c5.58,1.65,14.61,4.37,17.1,5.22.64.48,1.59.52,3,.52h1.76c1.86,0,4.35-.07,6.83-.12,5-.1,9.92-.22,9.92-.22h.37L83,69.2A4.41,4.41,0,0,0,85.91,64.15ZM19,51.66l15,4,3.42,2.71,21.07,2.43V64H36.06v5H58.61a4.87,4.87,0,0,0,4.76-4.06c5.95-.58,13.63-1.4,17.27-1.72.08.41.17.88.29,1.45l-27,9c-6.72.16-17,.38-18.91.34-1.85-.79-5.75-2-16-5Z"/><polygon id="Fill-2" points="51.55 21 51.55 32.2 40.3 32.2 40.3 36.68 51.55 36.68 51.55 47.88 56.05 47.88 56.05 36.68 67.3 36.68 67.3 32.2 56.05 32.2 56.05 21 51.55 21"/></g></svg>