<svg xmlns="http://www.w3.org/2000/svg" viewBox="0 0 100 100"><g id="Outline"><path d="M56.2,35.21l-2,4.14a7.25,7.25,0,1,1-8.47,0l-2-4.15a11.8,11.8,0,1,0,12.46,0Z"/><path d="M24.58,65H75.42a2.28,2.28,0,0,0,2.28-2.28V28a2.28,2.28,0,0,0-2.28-2.27H24.58A2.28,2.28,0,0,0,22.3,28V62.75A2.28,2.28,0,0,0,24.58,65Zm2.28-34.75H73.14V60.47H26.86Z"/><path d="M83.72,17.14H16.28A2.28,2.28,0,0,0,14,19.42V71.34a2.28,2.28,0,0,0,2.28,2.28H47.73V78.3H36.11v4.56H63.89V78.3H52.29V73.62H83.72A2.28,2.28,0,0,0,86,71.34V19.42A2.28,2.28,0,0,0,83.72,17.14ZM81.44,69.06H18.56V21.7H81.44Z"/><rect x="47.72" y="33.47" width="4.56" height="11.32"/></g></svg>