<?xml version="1.0" encoding="UTF-8"?>
<svg width="32px" height="32px" viewBox="0 0 32 32" version="1.1" xmlns="http://www.w3.org/2000/svg" xmlns:xlink="http://www.w3.org/1999/xlink">
    <!-- Generator: Sketch 50.2 (55047) - http://www.bohemiancoding.com/sketch -->
    <title>doc-outline</title>
    <desc>Created with Sketch.</desc>
    <defs></defs>
    <g id="doc" stroke="none" stroke-width="1" fill="none" fill-rule="evenodd">
        <path d="M30,4 C31.104,4 32,4.896 32,6 L32,28 L0,28 L0,4 L30,4 Z M2,26 L30,26 L30,6 L2,6 L2,26 Z M5,19.8869776 L5,12.1121371 L7.94659919,12.1121371 C8.8937909,12.1121371 9.68617676,12.4102765 10.3237805,13.0065642 C10.9613843,13.6028518 11.2801814,14.3673346 11.2801814,15.3000353 L11.2801814,16.6990794 C11.2801814,17.63534 10.9613843,18.4007127 10.3237805,18.9952204 C9.68617676,19.5897282 8.8937909,19.8869776 7.94659919,19.8869776 L5,19.8869776 Z M6.86857509,13.5005015 L6.86857509,18.4986132 L7.94659919,18.4986132 C8.37043984,18.4986132 8.71964244,18.3312992 8.99421747,17.9966661 C9.2687925,17.662033 9.40607796,17.2295084 9.40607796,16.6990794 L9.40607796,15.2893556 C9.40607796,14.7660464 9.2687925,14.3370817 8.99421747,14.0024486 C8.71964244,13.6678155 8.37043984,13.5005015 7.94659919,13.5005015 L6.86857509,13.5005015 Z M19.3692319,16.6990794 C19.3692319,17.6566996 19.0550417,18.4461014 18.4266519,19.0673086 C17.798262,19.6885158 16.9773134,19.9991147 15.9637814,19.9991147 C14.9428783,19.9991147 14.1154801,19.6885158 13.4815619,19.0673086 C12.8476437,18.4461014 12.5306893,17.6566996 12.5306893,16.6990794 L12.5306893,15.3000353 C12.5306893,14.345975 12.8467223,13.5574631 13.4787977,12.934476 C14.1108731,12.3114889 14.9355072,12 15.9527248,12 C16.9625712,12 17.7844412,12.3114889 18.4183594,12.934476 C19.0522776,13.5574631 19.3692319,14.345975 19.3692319,15.3000353 L19.3692319,16.6990794 Z M17.5061851,15.2893556 C17.5061851,14.734007 17.3707424,14.2783433 17.099853,13.9223507 C16.8289635,13.566358 16.4465913,13.3883644 15.9527248,13.3883644 C15.4478016,13.3883644 15.0617438,13.565468 14.7945399,13.9196807 C14.527336,14.2738934 14.3937361,14.7304471 14.3937361,15.2893556 L14.3937361,16.6990794 C14.3937361,17.2615478 14.5291788,17.7207714 14.8000683,18.076764 C15.0709577,18.4327567 15.4588582,18.6107503 15.9637814,18.6107503 C16.4539624,18.6107503 16.8335705,18.4327567 17.1026172,18.076764 C17.3716638,17.7207714 17.5061851,17.2615478 17.5061851,16.6990794 L17.5061851,15.2893556 Z M26.9717895,17.2651049 L26.9828462,17.297144 C26.9975885,18.1835657 26.738681,18.8554917 26.206116,19.3129423 C25.673551,19.7703928 24.9189417,19.9991147 23.9422654,19.9991147 C22.9471613,19.9991147 22.1483258,19.7054251 21.5457349,19.1180373 C20.9431441,18.5306494 20.6418532,17.7617169 20.6418532,16.8112165 L20.6418532,15.1878982 C20.6418532,14.2409577 20.9320875,13.4729151 21.5125649,12.8837473 C22.0930424,12.2945795 22.860551,12 23.8151138,12 C24.836017,12 25.6256387,12.2296118 26.1840027,12.6888423 C26.7423667,13.1480728 27.0141734,13.815549 26.9994312,14.6912909 L26.9828462,14.7233301 L25.164026,14.7233301 C25.164026,14.2463 25.0589888,13.9045521 24.8489113,13.6980764 C24.6388338,13.4916007 24.2942381,13.3883644 23.8151138,13.3883644 C23.3949588,13.3883644 23.0724761,13.5512286 22.8476563,13.8769618 C22.6228365,14.2026951 22.5104283,14.6361096 22.5104283,15.1772184 L22.5104283,16.8112165 C22.5104283,17.3558852 22.633893,17.7919697 22.8808263,18.1194829 C23.1277595,18.4469962 23.481569,18.6107503 23.9422654,18.6107503 C24.3697916,18.6107503 24.6784536,18.507514 24.8682605,18.3010383 C25.0580674,18.0945625 25.1529694,17.7492548 25.1529694,17.2651049 L26.9717895,17.2651049 Z" id="Combined-Shape" fill="#212121"></path>
    </g>
</svg>