<?xml version="1.0" encoding="UTF-8"?>
<svg width="32px" height="32px" viewBox="0 0 32 32" version="1.1" xmlns="http://www.w3.org/2000/svg" xmlns:xlink="http://www.w3.org/1999/xlink">
    <!-- Generator: Sketch 50.2 (55047) - http://www.bohemiancoding.com/sketch -->
    <title>door-opened-outline</title>
    <desc>Created with Sketch.</desc>
    <defs></defs>
    <g id="door-opened" stroke="none" stroke-width="1" fill="none" fill-rule="evenodd">
        <path d="M8.32866237,28.9992487 L5,28.9992487 C4.44771525,28.9992487 4,28.5515451 4,27.9992746 C4,27.4470042 4.44771525,26.9993005 5,26.9993005 L6,26.9993005 L6,1.99994819 C6,0.895407303 6.8954305,2.02900869e-16 8,0 L24,0 C25.1045695,-2.02900869e-16 26,0.895407303 26,1.99994819 L26,26.9993005 L27,26.9993005 C27.5522847,26.9993005 28,27.4470042 28,27.9992746 C28,28.5515451 27.5522847,28.9992487 27,28.9992487 L21,28.9992487 L21,31.0000259 C21,31.5522963 20.5522847,32 20,32 C19.9151091,32 19.8305637,31.9891908 19.7484036,31.9678331 L8.32866237,28.9992487 Z M9.81757931,1.99994819 L19.5031929,4.51774262 C20.3846642,4.74688284 21,5.54261182 21,6.45335695 L21,26.9993005 L24,26.9993005 L24,1.99994819 L9.81757931,1.99994819 Z M19,6.45335695 L8,3.59388515 L8,26.847392 L19,29.7068638 L19,6.45335695 Z M16,14.9996114 C16.5522847,14.9996114 17,15.4473151 17,15.9995855 L17,19.9994819 C17,20.5517523 16.5522847,20.999456 16,20.999456 C15.4477153,20.999456 15,20.5517523 15,19.9994819 L15,15.9995855 C15,15.4473151 15.4477153,14.9996114 16,14.9996114 Z" id="ic_ol_door_opened_32" fill="#212121" fill-rule="nonzero"></path>
    </g>
</svg>