<?xml version="1.0" encoding="UTF-8"?>
<svg width="32px" height="32px" viewBox="0 0 32 32" version="1.1" xmlns="http://www.w3.org/2000/svg" xmlns:xlink="http://www.w3.org/1999/xlink">
    <!-- Generator: Sketch 50.2 (55047) - http://www.bohemiancoding.com/sketch -->
    <title>down-chevron-circle-outline</title>
    <desc>Created with Sketch.</desc>
    <defs></defs>
    <g id="down-chevron-circle" stroke="none" stroke-width="1" fill="none" fill-rule="evenodd">
        <path d="M31.7506667,13.2706667 C31.6266667,12.5506667 31.4666667,11.8426667 31.2506667,11.16 C29.5866667,5.912 25.2853333,1.852 19.9053333,0.5 C18.6546667,0.185333333 17.3533333,0.00133333333 16.0053333,0 L16,0 L15.9946667,0 C14.6466667,0.00133333333 13.3453333,0.185333333 12.0946667,0.5 C6.016,2.028 1.328,7.02 0.250666667,13.264 C0.0973333333,14.1546667 0,15.0653333 0,16 C0,16.9346667 0.0973333333,17.8453333 0.250666667,18.736 C1.32933333,24.9813333 6.01733333,29.9733333 12.096,31.5 C13.348,31.8146667 14.6506667,32 16,32 C17.3493333,32 18.652,31.8146667 19.904,31.5 C25.284,30.1493333 29.5853333,26.0893333 31.2506667,20.84 C31.4666667,20.1573333 31.6266667,19.4493333 31.7506667,18.7293333 C31.904,17.8413333 32,16.932 32,16 C32,15.068 31.904,14.1586667 31.7506667,13.2706667 L31.7506667,13.2706667 Z M16,30 C8.28,30 2,23.72 2,16 C2,8.28 8.28,2 16,2 C23.72,2 30,8.28 30,16 C30,23.72 23.72,30 16,30 L16,30 Z M16.0002667,17.0312 L11.1109333,12.1405333 L9.6976,13.5552 L16.0002667,19.8592 L22.3029333,13.5552 L20.8896,12.1405333 L16.0002667,17.0312 L16.0002667,17.0312 Z" id="Combined-Shape" fill="#212121"></path>
    </g>
</svg>