<?xml version="1.0" encoding="UTF-8"?>
<svg width="32px" height="32px" viewBox="0 0 32 32" version="1.1" xmlns="http://www.w3.org/2000/svg" xmlns:xlink="http://www.w3.org/1999/xlink">
    <!-- Generator: Sketch 50.2 (55047) - http://www.bohemiancoding.com/sketch -->
    <title>edit-outline</title>
    <desc>Created with Sketch.</desc>
    <defs></defs>
    <g id="edit" stroke="none" stroke-width="1" fill="none" fill-rule="evenodd">
        <path d="M28.0664038,30.0263397 L28.0414287,12.3449747 L30,12.3449747 L30,30.0644971 C30,31.134221 29.1337594,32 28.0664038,32 L0,32 L0,3.93418712 C0,2.865779 0.866240595,2 1.93359623,2 L19.6343487,2 L19.6343487,3.97366033 L1.93359623,3.97366033 L1.96908712,30.0263397 L28.0664038,30.0263397 Z M12.6377526,17.9530667 L14.6371861,15.9530667 L16.0514521,17.3677333 L14.0520186,19.3677333 L12.6377526,17.9530667 Z M30.585734,0 L32,1.41466667 L30.407118,3.00666667 L29.4074012,4.00666667 L27.4132996,6.00133333 L26.408251,7.00666667 L17.5041072,15.9146667 L16.0898412,14.5 L24.9966509,5.59066667 L25.9963677,4.59066667 L27.9958012,2.59066667 L28.9955179,1.59066667 L30.585734,0 Z" id="Combined-Shape" fill="#212121"></path>
    </g>
</svg>