<svg xmlns="http://www.w3.org/2000/svg" viewBox="0 0 100 100"><g id="Outline"><path d="M84.24,35.32,49.69,26.06l-.09,0L15.73,35.72a2.2,2.2,0,0,0,0,4.24l10.72,3.13V56.82l.82.66a36.29,36.29,0,0,0,22.62,7.93A36,36,0,0,0,68.76,60v4.71l-4.08,7.07L68.49,74,71,69.69,73.43,74l3.81-2.2-4.08-7.07V42.79l11.13-3.23a2.2,2.2,0,0,0-.05-4.24ZM47.66,36.51a2.18,2.18,0,0,0,1.69,2.6l12,2.54L49.58,45.06,27,38.66l-.44-.11-2.4-.68,25.49-7.19,25.78,6.89-5.13,1.49-20-4.24A2.19,2.19,0,0,0,47.66,36.51ZM30.91,44.35,49,49.45l.59.17,19.12-5.3V54.66a31.42,31.42,0,0,1-37.79,0Z"/></g></svg>