<svg xmlns="http://www.w3.org/2000/svg" viewBox="0 0 100 100"><g id="Outline"><path d="M50.06,23.3a2.06,2.06,0,0,0-1.8,1l-10,17.32a2.06,2.06,0,0,0,0,2.09,2.08,2.08,0,0,0,1.81,1h20a2.08,2.08,0,0,0,1.8-1,2.11,2.11,0,0,0,0-2.09l-10-17.32a2.09,2.09,0,0,0-1.8-1ZM43.67,40.62l6.39-11.07,6.38,11.07Zm0,0"/><path d="M60.05,55.14h-20a2.08,2.08,0,0,0-1.81,1,2.06,2.06,0,0,0,0,2.09l10,17.31a2.08,2.08,0,0,0,3.61,0l10-17.31a2.11,2.11,0,0,0,0-2.09,2.08,2.08,0,0,0-1.8-1Zm-10,15.23L43.67,59.3H56.44Zm0,0"/><path d="M38.5,14a8.63,8.63,0,0,0-8.62,8.62V77.38A8.63,8.63,0,0,0,38.5,86h23a8.63,8.63,0,0,0,8.62-8.62V22.62A8.63,8.63,0,0,0,61.5,14ZM66,22.62V77.38a4.46,4.46,0,0,1-4.46,4.45h-23A4.46,4.46,0,0,1,34,77.38V22.62a4.46,4.46,0,0,1,4.46-4.46h23A4.46,4.46,0,0,1,66,22.62Zm0,0"/></g></svg>