<svg xmlns="http://www.w3.org/2000/svg" viewBox="0 0 100 100"><g id="Outline"><path d="M82.88,63.93H67.93a3.11,3.11,0,0,1-2.8-1.74,3.06,3.06,0,0,1,.32-3.25c1.89-2.49,5.71-4,10-4s8.06,1.54,10,4a3.11,3.11,0,0,1-2.48,5Zm-7.48-6c-3.27,0-6.24,1.12-7.56,2.85,0,0,0,0,0,.09a.1.1,0,0,0,.1,0H82.88a.09.09,0,0,0,.09,0,.07.07,0,0,0,0-.09C81.65,59,78.68,57.92,75.4,57.92Z"/><path d="M75.4,53.36a5.2,5.2,0,1,1,5.2-5.2A5.21,5.21,0,0,1,75.4,53.36Zm0-7.38a2.19,2.19,0,1,0,2.19,2.18A2.19,2.19,0,0,0,75.4,46Z"/><path d="M32.08,63.93h-15a3.11,3.11,0,0,1-2.48-5c1.9-2.49,5.71-4,10-4s8,1.54,9.95,4a3.11,3.11,0,0,1-2.47,5Zm-7.48-6c-3.28,0-6.25,1.12-7.57,2.85a.07.07,0,0,0,0,.09.09.09,0,0,0,.09,0h15a.09.09,0,0,0,.09,0s0-.07,0-.09C30.84,59,27.87,57.92,24.6,57.92Z"/><path d="M24.6,53.36a5.2,5.2,0,1,1,5.2-5.2A5.2,5.2,0,0,1,24.6,53.36Zm0-7.38a2.19,2.19,0,1,0,2.18,2.18A2.19,2.19,0,0,0,24.6,46Z"/><path d="M57.05,37.23h-15a3.11,3.11,0,0,1-2.48-5c1.9-2.49,5.72-4,10-4s8.06,1.54,10,4a3.11,3.11,0,0,1-2.48,5Zm-7.48-6c-3.27,0-6.24,1.12-7.56,2.85,0,0,0,0,0,.09a.09.09,0,0,0,.09.06h15a.09.09,0,0,0,.09-.06s0-.07,0-.09C55.81,32.34,52.84,31.22,49.57,31.22Z"/><path d="M49.57,26.66a5.2,5.2,0,1,1,5.2-5.19A5.2,5.2,0,0,1,49.57,26.66Zm0-7.38a2.19,2.19,0,1,0,2.18,2.19A2.19,2.19,0,0,0,49.57,19.28Z"/><path d="M57.91,83.73H43a3.11,3.11,0,0,1-2.48-5c1.9-2.48,5.72-4,10-4s8.06,1.55,10,4a3.11,3.11,0,0,1-2.48,5Zm-7.48-6c-3.27,0-6.24,1.11-7.56,2.84,0,0,0,0,0,.09a.09.09,0,0,0,.09.06h15a.09.09,0,0,0,.09-.06s0-.07,0-.09C56.67,78.84,53.7,77.73,50.43,77.73Z"/><path d="M50.43,73.17a5.2,5.2,0,1,1,5.2-5.2A5.21,5.21,0,0,1,50.43,73.17Zm0-7.39A2.19,2.19,0,1,0,52.62,68,2.19,2.19,0,0,0,50.43,65.78Z"/><path d="M26.26,39.88a1.54,1.54,0,0,1-.74-.19,1.51,1.51,0,0,1-.57-2,28.61,28.61,0,0,1,7.5-8.7,1.51,1.51,0,1,1,1.85,2.38,25.8,25.8,0,0,0-6.73,7.79A1.49,1.49,0,0,1,26.26,39.88Z"/><path d="M73.75,39.88a1.52,1.52,0,0,1-1.32-.77,25.77,25.77,0,0,0-6.72-7.79,1.5,1.5,0,1,1,1.84-2.38,28.64,28.64,0,0,1,7.51,8.7,1.5,1.5,0,0,1-1.31,2.24Z"/><path d="M33.37,78.14a1.53,1.53,0,0,1-.92-.32,28.61,28.61,0,0,1-7.5-8.7,1.5,1.5,0,1,1,2.62-1.47,25.92,25.92,0,0,0,6.73,7.79,1.51,1.51,0,0,1-.93,2.7Z"/><path d="M66.63,78.14a1.48,1.48,0,0,1-1.19-.59,1.5,1.5,0,0,1,.27-2.11,25.75,25.75,0,0,0,6.72-7.79,1.51,1.51,0,1,1,2.63,1.47,28.64,28.64,0,0,1-7.51,8.7A1.51,1.51,0,0,1,66.63,78.14Z"/></g></svg>