<?xml version="1.0" encoding="UTF-8"?>
<svg width="32px" height="32px" viewBox="0 0 32 32" version="1.1" xmlns="http://www.w3.org/2000/svg" xmlns:xlink="http://www.w3.org/1999/xlink">
    <!-- Generator: Sketch 53.2 (72643) - https://sketchapp.com -->
    <title>Entrepreneur-outline-fill</title>
    <desc>Created with Sketch.</desc>
    <g id="Entrepreneur-outline" stroke="none" stroke-width="1" fill="none" fill-rule="evenodd">
        <path d="M30,16 L32,16 L32,29.3333333 C32,30.8060927 30.8060927,32 29.3333333,32 L2.66666667,32 C1.19390733,32 0,30.8060927 0,29.3333333 L0,2.66666667 C0,1.19390733 1.19390733,0 2.66666667,0 L16,0 L16,2 L2.66666667,2 C2.29847683,2 2,2.29847683 2,2.66666667 L2,29.3333333 C2,29.7015232 2.29847683,30 2.66666667,30 L29.3333333,30 C29.7015232,30 30,29.7015232 30,29.3333333 L30,16 Z M13.3983562,19.9452055 L12,18.5643836 L28.5961644,1.97260274 L21.3019178,1.97260274 C20.7571986,1.97260274 20.3156164,1.53102058 20.3156164,0.98630137 C20.3156164,0.441582165 20.7571986,1.77635684e-15 21.3019178,1.77635684e-15 L31.9627397,1.77635684e-15 L31.9627397,10.6608219 C31.9627397,11.2055411 31.5211576,11.6471233 30.9764384,11.6471233 C30.4317192,11.6471233 29.990137,11.2055411 29.990137,10.6608219 L29.990137,3.36657534 L13.3983562,19.9452055 Z" id="Combined-Shape" fill="#2D2D2D" fill-rule="nonzero"></path>
    </g>
</svg>