<svg xmlns="http://www.w3.org/2000/svg" viewBox="0 0 100 100"><g id="Outline"><polygon points="62.99 62.74 60 65.73 66.53 72.26 21.18 72.26 21.18 76.48 66.53 76.48 60 83.01 62.99 86 74.62 74.37 62.99 62.74"/><polygon points="21.18 59.57 33.45 59.57 33.45 55.16 26.54 55.16 26.54 38.13 33.13 38.13 33.13 33.71 26.54 33.71 26.54 18.41 33.45 18.41 33.45 14 21.18 14 21.18 59.57"/><polygon points="52.33 14 46.93 14 43.76 29.91 40.58 14 35.18 14 40.81 36.66 34.73 59.57 40.13 59.57 43.76 42.78 47.38 59.57 52.78 59.57 46.83 36.66 52.33 14"/><rect x="55.21" y="14" width="5.36" height="45.57"/><polygon points="64.08 14 64.08 18.41 68.77 18.41 68.77 59.57 74.13 59.57 74.13 18.41 78.82 18.41 78.82 14 64.08 14"/></g></svg>