<svg xmlns="http://www.w3.org/2000/svg" viewBox="0 0 100 100"><g id="Outline"><path d="M26.74,18.39,34,18.34a2,2,0,0,0,1.47-.62A2.08,2.08,0,0,0,34,14.17h0l-15.24-.1h0l-.12,15.69a2.09,2.09,0,0,0,2.09,2.08h0a2.12,2.12,0,0,0,1.47-.62,2.07,2.07,0,0,0,.6-1.48L23,21.12,45.2,43.28l1.85,1.93V86h4.54V43.33Z"/><path d="M78.51,13.68h0l-15.24.1h0a2.07,2.07,0,0,0-1.47.6,2,2,0,0,0-.62,1.47,2.05,2.05,0,0,0,.6,1.48,2,2,0,0,0,1.47.62l7.27.05L52.55,35.94l3.21,3.21L74.18,20.72l.28,8.63a2.07,2.07,0,0,0,.6,1.47,2.12,2.12,0,0,0,1.47.63h0a2.08,2.08,0,0,0,2.08-2.08Z"/></g></svg>