<?xml version="1.0" encoding="UTF-8"?>
<svg width="32px" height="32px" viewBox="0 0 32 32" version="1.1" xmlns="http://www.w3.org/2000/svg" xmlns:xlink="http://www.w3.org/1999/xlink">
    <!-- Generator: Sketch 53.2 (72643) - https://sketchapp.com -->
    <title>family-outline-fill</title>
    <desc>Created with Sketch.</desc>
    <g id="family-outline" stroke="none" stroke-width="1" fill="none" fill-rule="evenodd">
        <path d="M16.0000039,16.0000047 C14.6728749,15.9989593 13.400517,15.4707566 12.4628345,14.5315952 C11.5251521,13.5924338 10.9989553,12.3192449 11.0000016,10.9921159 C11.0043555,8.23172172 13.2448571,5.99710134 16.0052532,6.00000282 C18.7656494,6.0029043 21.0014483,8.24222977 20.9999993,11.0026271 C20.9985503,13.7630243 18.7604015,16.0000013 16.0000039,16.0000047 Z M16.0000039,7.80205137 C14.2368996,7.80204601 12.8064008,9.229017 12.8020529,10.9921159 C12.7988613,12.2862793 13.5759903,13.4547865 14.7707265,13.9522544 C15.9654628,14.4497223 17.34225,14.1780692 18.2584936,13.2640852 C19.1747371,12.3501012 19.4497888,10.9739889 18.9552724,9.77802802 C18.460756,8.58206712 17.2941712,7.80205531 16.0000039,7.80205137 Z M5.99994312,17.9999992 C3.79230934,18.0000001 2.00208447,16.2114642 2.00000179,14.0038314 C1.99847522,12.3856636 2.97206116,10.9259821 4.46661532,10.3056781 C5.96116948,9.68537399 7.68223412,10.0266599 8.82699188,11.1703377 C9.97174965,12.3140155 10.3146598,14.0347573 9.69576668,15.5298963 C9.07687352,17.0250352 7.61811161,17.9999984 5.99994312,17.9999992 Z M5.99994312,11.7246195 C5.39946176,11.7246195 4.82357456,11.9631598 4.39897012,12.3877642 C3.97436568,12.8123687 3.73582539,13.3882559 3.73582539,13.9887372 C3.73582539,15.2391749 4.74950542,16.252855 5.99994312,16.252855 C7.25038081,16.252855 8.26406085,15.2391749 8.26406085,13.9887372 C8.26406085,12.7382995 7.25038081,11.7246195 5.99994312,11.7246195 Z M25.9961698,17.9999998 C23.7908697,17.9958467 22.0041549,16.2091319 22.0000018,14.0038318 C21.9984756,12.3853207 22.9724703,10.9254006 24.467488,10.305318 C25.9625058,9.68523543 27.6838666,10.0272136 28.8283273,11.1716743 C29.972788,12.3161349 30.3147661,14.0374958 29.6946836,15.5325135 C29.074601,17.0275313 27.6146809,18.001526 25.9961698,17.9999998 Z M25.9961698,11.7283933 C24.745732,11.7283933 23.7320519,12.7420734 23.7320519,13.9925112 C23.7320519,15.242949 24.745732,16.256629 25.9961698,16.256629 C27.2466076,16.256629 28.2602876,15.242949 28.2602876,13.9925112 C28.2602876,12.7420734 27.2466076,11.7283933 25.9961698,11.7283933 Z M25.127075,20.9555779 C26.9714746,20.9305544 28.7966732,21.3230949 30.4590727,22.1023161 L31,22.3701673 L31,31 L1,31 L1,22.3534266 L1.5409273,22.0897605 C3.20332681,21.3105394 5.02852535,20.9179989 6.87292501,20.9430223 C7.532546,20.9450526 8.19113552,20.9940096 8.84344591,21.0895035 L8.84344591,20.6709859 L9.38437321,20.4073198 C11.4308119,19.4569569 13.6732685,18.9759297 15.939897,19.0011007 C18.2502137,18.973271 20.5350843,19.4735144 22.6113337,20.4617271 L23.1393818,20.7295784 L23.1393818,21.1062442 C23.7971259,21.00744 24.4615699,20.9570754 25.127075,20.9555779 Z M2.96193475,29.0915598 L8.84344591,29.0915598 L8.84344591,23.0356103 C6.86938233,22.6909921 4.83634787,22.8761659 2.96193475,23.5713128 L2.96193475,29.0915598 Z M10.8182599,29.0915598 L21.1817401,29.0915598 L21.1817401,21.9139831 C19.5230776,21.2339607 17.7391813,20.8921305 15.939897,20.9095409 C14.1848434,20.8952724 12.4442276,21.2195692 10.8182599,21.863761 L10.8182599,29.0915598 Z M29.0380653,29.0915598 L29.0380653,23.5713128 C27.1582044,22.8739323 25.1190317,22.6887402 23.1393818,23.0356103 L23.1393818,29.0915598 L29.0380653,29.0915598 Z M16.0133746,2.40133143 L0.875555556,9.99524489 L0,8.03613885 L16.0000413,0 L32,8.02662863 L31.1511111,10 L16.0133746,2.40133143 Z" id="Combined-Shape" fill="#2D2D2D" fill-rule="nonzero"></path>
    </g>
</svg>