<?xml version="1.0" encoding="UTF-8"?>
<svg width="32px" height="32px" viewBox="0 0 32 32" version="1.1" xmlns="http://www.w3.org/2000/svg" xmlns:xlink="http://www.w3.org/1999/xlink">
    <!-- Generator: Sketch 50.2 (55047) - http://www.bohemiancoding.com/sketch -->
    <title>filter-outline</title>
    <desc>Created with Sketch.</desc>
    <defs></defs>
    <g id="filter" stroke="none" stroke-width="1" fill="none" fill-rule="evenodd">
        <path d="M0,0 L0,8.002 L10,14 L10.778,21 L11,23 L12,32 L20,32 L21,23 L21.222,21 L22,14 L32,8.002 L32,0 L0,0 Z M2,2 L30,2 L30,7 L2,7 L2,2 Z M11.878,12.794 L5.554,9 L26.446,9 L20.122,12.794 L19.21,21 L12.79,21 L11.878,12.794 Z M13.012,23 L18.988,23 L18.21,30 L13.79,30 L13.012,23 Z" id="Page-1" fill="#212121"></path>
    </g>
</svg>