<svg xmlns="http://www.w3.org/2000/svg" viewBox="0 0 100 100"><g id="Outline"><path d="M50.85,21.21,65,23.57V15.09L50.85,17.45V16a2,2,0,0,0-2-2H47.52a2,2,0,0,0-1.9,1.32,10.12,10.12,0,0,0-9.13,7.83,2.23,2.23,0,0,0,1.69,2.68,2.83,2.83,0,0,0,.5.05,2.24,2.24,0,0,0,2.18-1.75,5.64,5.64,0,0,1,4.62-4.28v5.46a2.05,2.05,0,0,0,.35,1.15A13.27,13.27,0,0,0,35,39.43V86H61.84V39.43a13.27,13.27,0,0,0-11.3-13,2.07,2.07,0,0,0,.31-1.08Zm6.5,18.22V81.51H39.49V39.43a8.93,8.93,0,0,1,17.86,0Z"/><path d="M47.45,45.73c.07,1.85-1,3.16-2.09,4.56-1.77,2.23-3.78,4.75-.5,9.41l1.24,1.77-.05-2.15c0-2.34.66-3,1.66-3.79A10.35,10.35,0,0,0,49,54.25c1.2,2.89-1.38,6.52-1.41,6.56l-1.82,2.52,2.69-1.6c3-1.77,4.67-3.93,5-6.42.39-3-1.26-6.42-4.89-10.05L47.4,44.08Z"/></g></svg>