<svg xmlns="http://www.w3.org/2000/svg" viewBox="0 0 100 100"><g id="Outline"><polygon points="36.21 32.42 37.89 36.01 82.42 36.01 82.42 73.53 28.66 73.53 28.66 60.73 25.07 62.7 25.07 77.11 86 77.11 86 32.42 36.21 32.42"/><path d="M19.71,62.62l3.89-5.47c.06-.09,5.56-7.95,3-14.23a19.2,19.2,0,0,1-2.79,2.78c-2.12,1.83-3.65,3.15-3.54,8.22l.11,4.64-2.64-3.81c-7-10.11-2.71-15.58,1.07-20.4,2.37-3,4.61-5.88,4.47-9.88l-.13-3.58,2.51,2.55c7.76,7.88,11.27,15.21,10.44,21.79-.68,5.38-4.26,10.07-10.65,13.92Zm6.79-25,1.31,1.77c3.32,4.5,2.44,9.85,1,13.78a13.88,13.88,0,0,0,4.57-8.33c.65-5.1-1.9-10.9-7.58-17.27C25,31,22.89,33.66,21,36.07c-3.2,4.09-5.84,7.45-3.09,13.45.76-3.06,2.44-4.51,4.08-5.93a13.51,13.51,0,0,0,3.47-4Z"/><path d="M45.71,55.61H39.87v4.55H46.4v2.32H37.05V47h9v2.32H39.87v4h5.84Z"/><path d="M57.17,62.48,55.49,59.4c-.66-1.2-1.1-2-1.54-2.92h-.07c-.36.9-.78,1.72-1.4,2.92l-1.54,3.08H47.71l4.59-7.84L47.89,47h3.24l1.67,3.2c.51,1,.88,1.72,1.29,2.59h0c.41-1,.73-1.65,1.21-2.59L57,47h3.24l-4.53,7.56,4.71,7.93Z"/><path d="M65.35,47V62.48H62.52V47Z"/><path d="M71.55,49.36H67.14V47H78.83v2.37H74.37V62.48H71.55Z"/></g></svg>