<svg xmlns="http://www.w3.org/2000/svg" viewBox="0 0 100 100"><g id="Outline"><path d="M71,64.55h-2.3V19.79a5.74,5.74,0,0,0-10.81-2.73A5.72,5.72,0,0,0,47.78,17a5.71,5.71,0,0,0-10,0A5.74,5.74,0,0,0,27,19.79V51.47a5.74,5.74,0,0,0,10.76,2.82,5.71,5.71,0,0,0,10,0,5.72,5.72,0,0,0,9.41.91v9.35h-2a2,2,0,0,0-2,2v1.26a2,2,0,0,0,2,2h2.14L60,86h6.09l2.7-16.11H71a2,2,0,0,0,2-2V66.59A2,2,0,0,0,71,64.55ZM34.57,51.47a1.83,1.83,0,1,1-3.65,0V19.79a1.83,1.83,0,1,1,3.65,0Zm10,0a1.83,1.83,0,1,1-3.66,0V19.79a1.83,1.83,0,1,1,3.66,0Zm10,0a1.83,1.83,0,1,1-3.65,0V19.79a1.83,1.83,0,1,1,3.65,0Zm6.55-31.68a1.76,1.76,0,1,1,3.52,0V64.55H61.17ZM63.08,80.9l-2-11.74h4Z"/></g></svg>