<svg xmlns="http://www.w3.org/2000/svg" viewBox="0 0 100 100"><g id="Outline"><path id="Outline-v2" d="M56.14,85.44A35.61,35.61,0,0,0,84.88,58.79,36.29,36.29,0,0,0,86,50h0A36.13,36.13,0,0,0,56.16,14.56a34.16,34.16,0,0,0-12.32,0,35.93,35.93,0,0,0,0,70.88,33.94,33.94,0,0,0,12.28,0ZM18.5,50A31.5,31.5,0,1,1,50,81.5,31.53,31.53,0,0,1,18.5,50Z"/><path d="M59.22,73.66H40.47V59.58H26.39V40.83H40.47V26.75H59.22V40.83H73.3V59.58H59.22ZM45,69.16h9.75V55.08H68.8V45.33H54.72V31.25H45V45.33H30.89v9.75H45Z"/></g></svg>