<?xml version="1.0" encoding="UTF-8"?>
<svg width="32px" height="32px" viewBox="0 0 32 32" version="1.1" xmlns="http://www.w3.org/2000/svg" xmlns:xlink="http://www.w3.org/1999/xlink">
    <!-- Generator: Sketch 53.2 (72643) - https://sketchapp.com -->
    <title>f&amp;b-outline-fill</title>
    <desc>Created with Sketch.</desc>
    <g id="f&amp;b-outline" stroke="none" stroke-width="1" fill="none" fill-rule="evenodd">
        <path d="M25.8549892,0.00223128403 C22.9406498,0.00858056354 20.4543269,2.1157055 19.9660889,4.99299438 L7.3939302,4.99299438 L5.79633855,0.762178291 C5.64913733,0.374670454 5.27841418,0.118326944 4.86441009,0.117778782 L0.994688094,0.117778782 L0.994688094,2.10875106 L4.18099588,2.10875106 L5.26824575,4.99299438 L0.994688094,4.99299438 C0.612385154,4.99275494 0.263819868,5.21209485 0.0981700991,5.55714172 C-0.0674796696,5.90218858 -0.0208584167,6.31179517 0.218081042,6.61065935 L12.4307816,22.0006973 L12.4307816,30.0001395 L8.10840868,30.0001395 L8.10840868,32 L18.7323931,32 L18.7323931,30.0001395 L14.4188957,30.0001395 L14.4188957,22.0006973 L22.9704488,11.2325593 C23.8524611,11.7241753 24.8455664,11.9812239 25.8549892,11.9791739 C28.0302337,12.0385221 30.0660914,10.9102839 31.171182,9.03302885 C32.2762727,7.15577384 32.2762727,4.82563132 31.171182,2.94837631 C30.0660914,1.0711213 28.0302337,-0.0571169617 25.8549892,0.00223128403 L25.8549892,0.00223128403 Z M20.8713909,6.98396665 L23.7958711,6.98396665 L21.9808295,9.27714008 L21.9808295,9.27714008 L19.9128359,11.8991795 L10.0077676,11.8991795 L8.14834848,6.98396665 L20.8713909,6.98396665 Z M18.3241197,13.8901517 L13.4425897,20.0630546 L8.56105965,13.8901517 L18.3241197,13.8901517 Z M6.02266403,6.98396665 L7.8820832,11.8991795 L6.95015474,11.8991795 L3.04936846,6.98396665 L6.02266403,6.98396665 Z M25.8549892,10.001534 C25.2952265,10.0020275 24.7416954,9.88389222 24.2307711,9.65489151 L26.6360341,6.62399175 C26.8717165,6.32357328 26.9158666,5.91492446 26.7498008,5.57097658 C26.5837351,5.22702871 26.2364811,5.00790226 25.8549892,5.00632678 L21.989705,5.00632678 C22.5065309,2.99224946 24.4782867,1.7107695 26.5256025,2.0583644 C28.5729184,2.40595929 30.0127234,4.26665673 29.8377815,6.33877938 C29.6628397,8.41090204 27.9315189,10.0031024 25.8549892,10.001534 L25.8549892,10.001534 Z" id="Shape" fill="#2D2D2D" fill-rule="nonzero"></path>
    </g>
</svg>