<?xml version="1.0" encoding="UTF-8"?>
<svg width="32px" height="32px" viewBox="0 0 32 32" version="1.1" xmlns="http://www.w3.org/2000/svg" xmlns:xlink="http://www.w3.org/1999/xlink">
    <!-- Generator: Sketch 50.2 (55047) - http://www.bohemiancoding.com/sketch -->
    <title>folder-opened-outline</title>
    <desc>Created with Sketch.</desc>
    <defs></defs>
    <g id="folder-opened" stroke="none" stroke-width="1" fill="none" fill-rule="evenodd">
        <path d="M2.00646986,14 L3.61043818,28 L28.3960317,28 L30,14 L2.00646986,14 Z M1.00705163,12 L30.99303,12 C31.5491642,12 32,12.4241513 32,12.9473684 C32,12.980495 31.9981532,13.0135989 31.9944672,13.0465435 L30.2874215,28.3036133 C30.179528,29.2679334 29.3151983,30 28.2845472,30 L3.71553441,30 C2.68488334,30 1.82055366,29.2679334 1.71266017,28.3036133 L0.00561450599,13.0465435 C-0.0526042781,12.5262012 0.348558743,12.0599782 0.901637192,12.0052054 C0.936654437,12.0017375 0.971840915,12 1.00705163,12 Z M28,7 L12,7 L12,3 L4.00646986,3 L4.00646986,10 L2.00646986,10 L2.00646986,3 C2.00646986,1.8954305 2.90190036,1 4.00646986,1 L12,1 C13.1045695,1 14,1.8954305 14,3 L14,5 L28,5 C29.1045695,5 30,5.8954305 30,7 L30,10 L28,10 L28,7 Z" id="Combined-Shape" fill="#212121" fill-rule="nonzero"></path>
    </g>
</svg>