<?xml version="1.0" encoding="UTF-8"?>
<svg width="32px" height="32px" viewBox="0 0 32 32" version="1.1" xmlns="http://www.w3.org/2000/svg" xmlns:xlink="http://www.w3.org/1999/xlink">
    <!-- Generator: Sketch 50.2 (55047) - http://www.bohemiancoding.com/sketch -->
    <title>folder-closed-outline</title>
    <desc>Created with Sketch.</desc>
    <defs></defs>
    <g id="folder-closed" stroke="none" stroke-width="1" fill="none" fill-rule="evenodd">
        <path d="M30,8 C31.1053333,8 32,8.896 32,10 L32,28 C32,29.104 31.1053333,30 30,30 L2,30 C0.896,30 0,29.104 0,28 L0,8 L30,8 Z M2,28 L30,28 L30,10 L2,10 L2,28 Z M2,4 L2,6 L0,6 L0,4 C0,2.896 0.896,2 2,2 L10,2 C11.1053333,2 12,2.896 12,4 L12,6 L10,6 L10,4 L2,4 Z" id="Combined-Shape" fill="#212121"></path>
    </g>
</svg>