<svg xmlns="http://www.w3.org/2000/svg" viewBox="0 0 100 100"><g id="Outline"><path d="M55.32,68.2l1.12,0C64.8,68,71.62,62.07,76,57.66c9.19-9.19,12.41-24.57.8-36.18A23.88,23.88,0,0,0,58.17,14a27.3,27.3,0,0,0-17.52,8.25c-4.4,4.4-10.29,11.23-10.5,19.59l0,1.12,2.12,10.48a6,6,0,0,1-1.6,3.66L17.22,69.9A4.94,4.94,0,0,0,17.14,77l4.21,4.21a4.9,4.9,0,0,0,3.49,1.44h.06a4.86,4.86,0,0,0,3.51-1.53L41.13,67.72a5.92,5.92,0,0,1,3.71-1.64ZM44.48,60.86a11.33,11.33,0,0,0-7.11,3.23L24.83,77.27,21,73.48l13-12.39.18-.18a11.25,11.25,0,0,0,3.2-7.08,13.46,13.46,0,0,0-.27-3.77L48.25,61.13A13.78,13.78,0,0,0,44.48,60.86ZM72.33,54c-5.56,5.56-10.34,8.41-14.95,8.9L35.44,40.93c.49-4.6,3.35-9.39,8.91-14.95a22.06,22.06,0,0,1,14.13-6.72,18.82,18.82,0,0,1,14.66,5.91C79.88,31.91,82.5,43.8,72.33,54Z"/><path d="M75.76,86a8.56,8.56,0,1,1,8.55-8.56A8.57,8.57,0,0,1,75.76,86Zm0-11.89a3.33,3.33,0,1,0,3.33,3.33A3.34,3.34,0,0,0,75.76,74.11Z"/></g></svg>