<?xml version="1.0" encoding="UTF-8"?>
<svg width="32px" height="32px" viewBox="0 0 32 32" version="1.1" xmlns="http://www.w3.org/2000/svg" xmlns:xlink="http://www.w3.org/1999/xlink">
    <!-- Generator: Sketch 50.2 (55047) - http://www.bohemiancoding.com/sketch -->
    <title>globe-map-outline</title>
    <desc>Created with Sketch.</desc>
    <defs></defs>
    <g id="globe-map" stroke="none" stroke-width="1" fill="none" fill-rule="evenodd">
        <path d="M8.86264694,3.95345188 L9.9,5.1 C10.3,5.6 10.3,6.3 10.1,7.6 C10,8.2 9.9,8.8 10,9.1 C10.1,9.7 10.8,10.9 11.3,11.5 C11.9,12.3 13.2,13.2 14.6,14.1 C17.3,16 19.2,17.4 19.4,19.1 L19.5,19.7 L19.1,20 C19,20.1 18.8,20.2 18.7,20.3 C18.5,20.4 18.2,20.6 18.2,20.7 C18.2,21.2 19.3,21.9 20.1,22.5 C21.2,23.2 21.9,23.7 22.1,24.3 C22.4,25 22.3,26.5 22.1,27.1 C22.0413893,27.1 21.7079617,27.993155 21.2205213,28.9942387 C23.633879,28.0237507 25.7144759,26.4004313 27.2436787,24.3429134 C27.6287769,22.8088463 27.8820458,19.3829045 27.4656854,18.8 C27.2656854,18.5 26.2656854,18.3 25.5656854,18.2 C24.7656854,18.1 24.2656854,17.9 23.8656854,17.7 C23.6656854,17.6 23.5656854,17.4 23.2656854,17.1 C23.0656854,16.9 22.8656854,16.6 22.7656854,16.6 C22.4656854,16.5 21.7656854,16.5 21.0656854,16.6 C20.1656854,16.7 19.4656854,16.8 19.0656854,16.6 C17.7656854,16.1 15.5656854,14.5 15.1656854,13.3 C15.0656854,13 15.1656854,12.6 15.3656854,12.4 C15.5656854,12.2 15.8656854,12 16.2656854,12.1 C16.4656854,12.1 16.7656854,12.2 16.8656854,12.2 C17.1656854,12.3 17.6656854,12.4 17.7656854,12.3 C18.3656854,11.9 18.7656854,10.7 19.1656854,9.6 C19.4656854,8.8 19.7656854,8 20.0656854,7.5 C20.2656854,7.3 20.3656854,7.2 20.6656854,7 C20.8656854,6.9 21.1656854,6.6 21.2656854,6.5 C21.2656854,6.4 20.3656854,6.1 20.0656854,6 C19.5656854,5.8 19.1656854,5.7 18.9656854,5.6 C18.7656854,5.5 18.6656854,5.3 18.4656854,5 C18.3656854,4.8 18.0656854,4.5 17.9656854,4.4 C17.8656854,4.4 17.7656854,4.7 17.6656854,4.8 C17.5656854,4.9 17.5656854,5 17.4656854,5.1 C17.2656854,5.3 17.0656854,5.5 16.7656854,5.5 C16.4656854,5.5 16.2656854,5.5 16.0656854,5.3 C15.7656854,5.1 15.3656854,4.6 15.1656854,4.2 C14.9656854,3.8 14.9656854,3.3 15.0656854,2.3 L15.0656854,2.0306822 C12.810339,2.17928774 10.7008959,2.86197452 8.86264694,3.95345188 Z M6.3645522,5.84327849 C3.67632791,8.3943706 2,12.0014216 2,16 C2,23.7319865 8.2680135,30 16,30 C17.0033382,30 17.9820248,29.8944538 18.9255625,29.6938588 C19.4113601,28.61419 19.9044263,27.2171034 20.1,26.5 C20.2,26.2 20.2,25.3 20.1,25.1 C20,25 19.2,24.4 18.8,24.2 C17.5,23.3 16,22.3 16,20.7 C16,19.8 16.6,19.3 17.1,18.9 C16.4,18 14.5,16.6 13.4,15.9 C11.9,14.8 10.5,13.9 9.7,12.8 C9.1,12 8.3,10.5 8,9.6 C7.9,8.9 8,8.1 8.1,7.3 C8.1,7.2 8.2,6.9 8.2,6.6 C7.31892249,6.5412615 6.7138619,6.27551031 6.3645522,5.84327849 Z M17.1094055,2.04331295 C17.1129831,2.16974421 17.1040614,2.28487211 17.0656854,2.4 C17.0656854,2.5 17.0656854,2.6 17.0656854,2.7 C17.3656854,2.5 17.6656854,2.4 17.9656854,2.4 C19.0656854,2.4 19.6656854,3.2 20.0656854,3.7 C20.0656854,3.8 20.1656854,3.8 20.1656854,3.9 C20.2656854,4 20.4656854,4 20.5656854,4.1 C21.4656854,4.4 22.9656854,4.8 23.1656854,6.2 C23.3656854,7.4 22.3656854,8.2 21.7656854,8.5 C21.6656854,8.6 21.5656854,8.6 21.5656854,8.7 C21.3656854,9 21.1656854,9.7 20.9656854,10.2 C20.4656854,11.7 19.8656854,13.2 18.6656854,13.9 C18.5656854,13.9 18.4656854,14 18.4656854,14 C18.8656854,14.3 19.2656854,14.5 19.7656854,14.7 C19.8656854,14.7 20.4656854,14.6 20.7656854,14.6 C21.7656854,14.5 22.6656854,14.4 23.4656854,14.7 C24.0656854,14.9 24.4656854,15.4 24.7656854,15.8 C24.8656854,15.9 24.9656854,16 24.9656854,16.1 C25.1656854,16.2 25.6656854,16.3 25.9656854,16.3 C27.0656854,16.5 28.3656854,16.7 29.0656854,17.7 C29.3474449,18.058603 29.517667,18.6468419 29.5981991,19.3437155 C29.8607647,18.2722672 30,17.1523937 30,16 C30,8.6414099 24.3227637,2.6088094 17.1094055,2.04331295 Z M16,32 C7.163444,32 0,24.836556 0,16 C0,7.163444 7.163444,0 16,0 C24.836556,0 32,7.163444 32,16 C32,24.836556 24.836556,32 16,32 Z" id="Combined-Shape" fill="#212121"></path>
    </g>
</svg>