<?xml version="1.0" encoding="UTF-8"?>
<svg width="32px" height="32px" viewBox="0 0 32 32" version="1.1" xmlns="http://www.w3.org/2000/svg" xmlns:xlink="http://www.w3.org/1999/xlink">
    <!-- Generator: Sketch 53.2 (72643) - https://sketchapp.com -->
    <title>governance-outline-fill</title>
    <desc>Created with Sketch.</desc>
    <g id="governance-outline" stroke="none" stroke-width="1" fill="none" fill-rule="evenodd">
        <path d="M31.9866722,16.2694346 L26.1313342,4.87809187 L16.9396085,4.87809187 L16.9396085,1 L15.1048174,1 L15.1048174,4.87809187 L5.86422324,4.87809187 L0,16.2694346 L0,17.1881625 C0,20.7131248 2.87412927,23.5706714 6.41954741,23.5706714 C9.96496555,23.5706714 12.8390948,20.7131248 12.8390948,17.1881625 L12.8390948,16.2694346 L7.95224212,6.71996466 L15.1048174,6.71996466 L15.1048174,29.1625442 L8.31653478,29.1625442 L8.31653478,31 L23.7101208,31 L23.7101208,29.1625442 L16.9396085,29.1625442 L16.9396085,6.71996466 L24.0477579,6.71996466 L19.1609052,16.2738516 L19.1609052,17.1881625 C19.1609052,20.7131248 22.0350345,23.5706714 25.5804526,23.5706714 C29.1258707,23.5706714 32,20.7131248 32,17.1881625 L31.9866722,16.2694346 Z M6.41954741,21.7287986 C4.25422111,21.7259451 2.38732867,20.2145059 1.94585589,18.1068905 L10.8932389,18.1068905 C10.4533165,20.2154428 8.58548246,21.7276444 6.41954741,21.7287986 Z M2.09690407,16.2694346 L6.4284326,7.82862191 L10.7555185,16.2650177 L2.09690407,16.2694346 Z M25.5626822,7.82862191 L29.8986533,16.2694346 L21.2267111,16.2694346 L25.5626822,7.82862191 Z M25.5626822,21.7376325 C23.3967472,21.7364783 21.5289131,20.2242767 21.0889907,18.1157244 L30.0408163,18.1157244 C29.5956957,20.2198287 27.7297427,21.7268227 25.5671248,21.7287986 L25.5626822,21.7376325 Z" id="Shape" fill="#2D2D2D" fill-rule="nonzero"></path>
    </g>
</svg>