<?xml version="1.0" encoding="UTF-8"?>
<svg width="32px" height="32px" viewBox="0 0 32 32" version="1.1" xmlns="http://www.w3.org/2000/svg" xmlns:xlink="http://www.w3.org/1999/xlink">
    <!-- Generator: Sketch 53.2 (72643) - https://sketchapp.com -->
    <title>growth-outline-fill</title>
    <desc>Created with Sketch.</desc>
    <g id="growth-outline" stroke="none" stroke-width="1" fill="none" fill-rule="evenodd">
        <path d="M16.1699652,30 L16.1699652,27.9822222 C17.0809802,28.3351014 18.0504268,28.5100712 19.0264798,28.4977778 C21.0177563,28.4585418 22.9701354,27.935555 24.7174339,26.9733333 C28.2052956,25.1022222 30.5055183,21.9377778 30.4569532,19.1022222 L30.4569532,18.6 L30.0463568,18.3111111 C27.7461341,16.6755556 23.865336,16.8355556 20.3642293,18.7111111 C18.7309458,19.571561 17.3075219,20.7858934 16.1964552,22.2666667 L16.1964552,17.5111111 C18.4304528,16.04 19.8918227,12.7155556 19.8829926,9.00444444 C19.8829926,5.02666667 18.1743819,1.49777778 15.6534084,0.226666667 L15.2119069,0 L14.7704055,0.226666667 C12.258262,1.51111111 10.5761414,5.04888889 10.5893864,9.02666667 C10.5893864,12.6844444 12.0375113,15.96 14.2229436,17.4711111 L14.2229436,19.2888889 C13.4015509,17.9886356 12.3547475,16.8475411 11.1324332,15.92 C7.98452765,13.52 4.16553981,12.7377778 1.63573631,13.9822222 L1.19423482,14.2044444 L1.10593453,14.6977778 C0.536397613,17.4888889 2.30240355,20.9777778 5.46355417,23.3822222 C7.6136664,25.0266667 10.0728297,25.9066667 12.2229419,25.9066667 C12.8882034,25.9101484 13.5502998,25.8142908 14.1876235,25.6222222 L14.1876235,30 L1.71079156,30 L1.71079156,32 L31,32 L31,30 L16.1699652,30 Z M21.2869674,20.4666667 C23.856506,19.0888889 26.6997755,18.7911111 28.4525364,19.6711111 C28.2008806,21.6222222 26.3686494,23.8355556 23.8035258,25.2133333 C21.2384022,26.5911111 18.3730576,26.8888889 16.6202967,26 C16.8719525,24.0577778 18.6997687,21.8444444 21.2869674,20.4666667 Z M6.67768325,21.8 C4.35980046,20.0222222 2.89843055,17.5555556 2.95582574,15.5777778 C4.82779204,14.9866667 7.58717631,15.7333333 9.9050591,17.5066667 C12.2229419,19.28 13.6843118,21.7511111 13.6269166,23.7288889 C11.7417053,24.3155556 8.97790598,23.5644444 6.66002319,21.7955556 L6.67768325,21.8 Z M12.5319929,9.02222222 C12.5319929,6.09333333 13.5960115,3.42222222 15.1810018,2.27555556 C16.7792372,3.41777778 17.8653309,6.08 17.8697459,9.00888889 C17.8741609,11.9377778 16.8057273,14.6088889 15.220737,15.7555556 C13.6225016,14.6177778 12.540823,11.9511111 12.5319929,9.02222222 Z" id="Shape" fill="#2D2D2D" fill-rule="nonzero"></path>
    </g>
</svg>