<svg xmlns="http://www.w3.org/2000/svg" viewBox="0 0 100 100"><g id="Outline"><path d="M23.88,55.32c2.06,3,4.47,6.58,6.6,9.77l1,1.5a50.46,50.46,0,0,1,2.79,4.91c2,3.9,4.15,7.94,8.26,10.61A23.13,23.13,0,0,0,55,86h2.28a21,21,0,0,0,16-7.58C77.5,73.28,77.5,67,77.5,61.53V29.16a6.1,6.1,0,0,0-6.13-5.74H71a5.65,5.65,0,0,0-3.12.93,5.75,5.75,0,0,0-5.73-5.64h-.25a6.26,6.26,0,0,0-3.51,1.1v-.07A6.1,6.1,0,0,0,52.22,14H52a5.73,5.73,0,0,0-5.43,3.88,5.82,5.82,0,0,0-3.43-1.13h-.28a5.74,5.74,0,0,0-5.76,5.74h0v27L35.3,46.69a6.76,6.76,0,0,0-9.47-1.35l0,0-.64.48A6.78,6.78,0,0,0,23.88,55.32ZM73.56,61.5c0,5.09,0,10.36-3.37,14.43a17.13,17.13,0,0,1-13,6.18H55A19.27,19.27,0,0,1,44.63,78.9c-3.26-2.11-5-5.53-6.93-9.16a58.51,58.51,0,0,0-3-5.29l-1-1.5c-2.14-3.21-4.57-6.85-6.69-9.9a2.91,2.91,0,0,1,.45-4.1l.05,0,.64-.48a2.9,2.9,0,0,1,4,.51l4,6.48A2.55,2.55,0,0,0,41,54.05V22.5a1.88,1.88,0,0,1,1.88-1.88h.28A1.88,1.88,0,0,1,45,22.5V48.17a2.75,2.75,0,0,0,2.75,2.75,2.26,2.26,0,0,0,1.66-.67,2.71,2.71,0,0,0,.69-2V19.74a1.88,1.88,0,0,1,1.88-1.88h.3a2.24,2.24,0,0,1,2.27,1.88V48.17a2.75,2.75,0,0,0,2.75,2.75,2.31,2.31,0,0,0,1.7-.67,2.63,2.63,0,0,0,.68-2V24.5a2.25,2.25,0,0,1,2.27-1.88h.29A1.88,1.88,0,0,1,64,24.5V48.17a2.64,2.64,0,0,0,.68,2.08,2.26,2.26,0,0,0,1.67.67,2.75,2.75,0,0,0,2.75-2.75v-19A1.88,1.88,0,0,1,71,27.28h.29a2.25,2.25,0,0,1,2.27,1.88Z"/></g></svg>