<?xml version="1.0" encoding="UTF-8"?>
<svg width="32px" height="32px" viewBox="0 0 32 32" version="1.1" xmlns="http://www.w3.org/2000/svg" xmlns:xlink="http://www.w3.org/1999/xlink">
    <!-- Generator: Sketch 50.2 (55047) - http://www.bohemiancoding.com/sketch -->
    <title>help-question-outline</title>
    <desc>Created with Sketch.</desc>
    <defs></defs>
    <g id="help-question" stroke="none" stroke-width="1" fill="none" fill-rule="evenodd">
        <path d="M16,0 C24.836,0 32,7.164 32,16 C32,24.836 24.836,32 16,32 C7.164,32 0,24.836 0,16 C0,7.164 7.164,0 16,0 Z M16,30 C23.72,30 30,23.72 30,16 C30,8.28 23.72,2 16,2 C8.28,2 2,8.28 2,16 C2,23.72 8.28,30 16,30 Z M15.7826667,23.0026667 L15.7826667,20.6706667 L17.6306667,20.6706667 L17.6306667,23.0026667 L15.7826667,23.0026667 Z M19.4617333,9.12493333 C19.9057333,9.5076 20.2590667,9.97293333 20.5124,10.5089333 C20.7697333,11.0542667 20.8990667,11.6729333 20.8990667,12.3502667 C20.8990667,13.2169333 20.6977333,13.9756 20.3004,14.6049333 C19.9604,15.1462667 19.5257333,15.6702667 19.0084,16.1596 C18.6457333,16.5222667 18.3390667,16.8222667 18.1097333,17.0396 C17.9324,17.2076 17.8457333,17.3342667 17.8030667,17.4129333 C17.7750667,17.4676 17.7257333,17.5956 17.6990667,17.8156 C17.6684,18.0836 17.6457333,18.4769333 17.6350667,18.9916 L15.6350667,18.9476 C15.6484,18.3476 15.6750667,17.8916 15.7137333,17.5729333 C15.7670667,17.1529333 15.8750667,16.7862667 16.0364,16.4756 C16.2070667,16.1596 16.4404,15.8649333 16.7364,15.5862667 C16.9550667,15.3782667 17.2470667,15.0929333 17.6137333,14.7249333 C18.0284,14.3316 18.3564,13.9396 18.6084,13.5396 C18.8017333,13.2329333 18.8990667,12.8329333 18.8990667,12.3502667 C18.8990667,11.9702667 18.8337333,11.6369333 18.7044,11.3622667 C18.5697333,11.0796 18.3910667,10.8422667 18.1577333,10.6409333 C17.9177333,10.4356 17.6417333,10.2796 17.3164,10.1689333 C16.5390667,9.9036 15.5297333,9.95693333 14.8537333,10.2316 C14.4710667,10.3862667 14.1590667,10.5916 13.8977333,10.8609333 C13.6430667,11.1249333 13.4537333,11.4449333 13.3177333,11.8356 C13.1750667,12.2542667 13.1017333,12.7329333 13.1017333,13.2582667 L11.1017333,13.2582667 C11.1017333,12.5129333 11.2110667,11.8156 11.4270667,11.1849333 C11.6577333,10.5169333 12.0057333,9.94226667 12.4604,9.4716 C12.9137333,9.00226667 13.4657333,8.6356 14.1017333,8.37826667 C15.2110667,7.92626667 16.7270667,7.85293333 17.9630667,8.27693333 C18.5270667,8.47026667 19.0297333,8.75426667 19.4617333,9.12493333 Z" id="Combined-Shape" fill="#212121"></path>
    </g>
</svg>