<?xml version="1.0" encoding="UTF-8"?>
<svg width="32px" height="32px" viewBox="0 0 32 32" version="1.1" xmlns="http://www.w3.org/2000/svg" xmlns:xlink="http://www.w3.org/1999/xlink">
    <!-- Generator: Sketch 50.2 (55047) - http://www.bohemiancoding.com/sketch -->
    <title>horizontal-more-outline</title>
    <desc>Created with Sketch.</desc>
    <defs></defs>
    <g id="horizontal-more" stroke="none" stroke-width="1" fill="none" fill-rule="evenodd">
        <path d="M28,14 C26.8951112,14 26,14.8951112 26,16 C26,17.1048888 26.8951112,18 28,18 C29.1048888,18 30,17.1048888 30,16 C30,14.8951112 29.1048888,14 28,14 Z M4,14 C2.89511112,14 2,14.895671 2,16.0012508 C2,17.1068306 2.89511112,18.0025016 4,18.0025016 C5.10488888,18.0025016 6,17.1068306 6,16.0012508 C6,14.895671 5.10488888,14 4,14 Z M16,14 C14.8951112,14 14,14.8951112 14,16 C14,17.1048888 14.8951112,18 16,18 C17.1048888,18 18,17.1048888 18,16 C18,14.8951112 17.1048888,14 16,14 Z" id="Combined-Shape" fill="#212121"></path>
    </g>
</svg>