<?xml version="1.0" encoding="UTF-8"?>
<svg width="32px" height="32px" viewBox="0 0 32 32" version="1.1" xmlns="http://www.w3.org/2000/svg" xmlns:xlink="http://www.w3.org/1999/xlink">
    <!-- Generator: Sketch 50.2 (55047) - http://www.bohemiancoding.com/sketch -->
    <title>hospital-outline</title>
    <desc>Created with Sketch.</desc>
    <defs></defs>
    <g id="hospital" stroke="none" stroke-width="1" fill="none" fill-rule="evenodd">
        <path d="M32,30 L32,32 L30,32 L24.75,32 L21,32 L19,32 L13,32 L11,32 L7.25,32 L2,32 L0,32 L0,30 L2,30 L2,10 C2,8.896 2.896,8 4,8 L5.25,8 L5.25,2 C5.25,0.896 6.146,5.68434189e-14 7.25,5.68434189e-14 L24.75,5.68434189e-14 C25.854,5.68434189e-14 26.75,0.896 26.75,2 L26.75,8 L28,8 C29.104,8 30,8.896 30,10 L30,30 L32,30 Z M4,10 L4,30 L11,30 L11,19 L21,19 L21,30 L28,30 L28,10 L25,10 L25,2 L7,2 L7,10 L4,10 Z M13,30 L19,30 L19,21 L13,21 L13,30 Z M15,15.9998 L15,10.9998 L10,10.9998 L10,8.9998 L15,8.9998 L15,3.9998 L17,3.9998 L17,8.9998 L22,8.9998 L22,10.9998 L17,10.9998 L17,15.9998 L15,15.9998 Z" id="Combined-Shape" fill="#212121"></path>
    </g>
</svg>