<svg xmlns="http://www.w3.org/2000/svg" viewBox="0 0 100 100"><g id="Outline"><path d="M76,58.78a6,6,0,0,0-4.15,1.69L61.21,54.33A11.91,11.91,0,0,0,61,45.12L71.69,39a5.93,5.93,0,1,0-1.62-4.07,6.19,6.19,0,0,0,.16,1.37L59.39,42.51a12,12,0,0,0-7.79-4.38V25.66a5.94,5.94,0,1,0-3.07,0V38.13a12,12,0,0,0-7.8,4.38L29.78,36.18a5.57,5.57,0,0,0,.15-1.3,5.95,5.95,0,1,0-1.57,4l10.78,6.22a11.79,11.79,0,0,0-.22,9.21L28.19,60.52A5.87,5.87,0,0,0,24,58.78a6,6,0,1,0,5.72,4.4L40.39,57a11.91,11.91,0,0,0,8.14,4.83V74.34a5.94,5.94,0,1,0,3.07,0V61.85A11.91,11.91,0,0,0,59.74,57l10.55,6.09a6.06,6.06,0,0,0-.22,1.6A5.94,5.94,0,1,0,76,58.78Zm0-27a3.1,3.1,0,1,1-3.09,3.1A3.1,3.1,0,0,1,76,31.78ZM24,38a3.1,3.1,0,1,1,3.09-3.1A3.1,3.1,0,0,1,24,38Zm0,29.83a3.1,3.1,0,1,1,3.09-3.1A3.1,3.1,0,0,1,24,67.81ZM47,19.93A3.1,3.1,0,1,1,50.06,23,3.1,3.1,0,0,1,47,19.93Zm6.19,60.14a3.1,3.1,0,1,1-3.1-3.1A3.1,3.1,0,0,1,53.16,80.07Zm4.3-27.91A7.56,7.56,0,0,1,56,54.88a7.73,7.73,0,0,1-4.43,2.67,7.44,7.44,0,0,1-3.07,0,7.69,7.69,0,0,1-4.43-2.67,7.56,7.56,0,0,1-1.43-2.72,7.51,7.51,0,0,1,.19-4.89,7.76,7.76,0,0,1,5.67-4.84,7.73,7.73,0,0,1,8.74,4.84,7.51,7.51,0,0,1,.19,4.89ZM76,67.81a3.1,3.1,0,1,1,3.1-3.1A3.1,3.1,0,0,1,76,67.81Z"/></g></svg>