<?xml version="1.0" encoding="UTF-8"?>
<svg width="32px" height="32px" viewBox="0 0 32 32" version="1.1" xmlns="http://www.w3.org/2000/svg" xmlns:xlink="http://www.w3.org/1999/xlink">
    <!-- Generator: Sketch 50.2 (55047) - http://www.bohemiancoding.com/sketch -->
    <title>image-outline</title>
    <desc>Created with Sketch.</desc>
    <defs></defs>
    <g id="image" stroke="none" stroke-width="1" fill="none" fill-rule="evenodd">
        <path d="M30,4.0002 C31.104,4.0002 32,4.8962 32,6.0002 L32,26.0002 C32,26.7342 31.584,27.3502 30.994,27.6982 C30.696,27.8722 30.37,28.0002 30,28.0002 L2,28.0002 C1.64,28.0002 1.32,27.8782 1.026,27.7122 C0.424,27.3662 0,26.7442 0,26.0002 L0,6.0002 C0,4.8962 0.896,4.0002 2,4.0002 L30,4.0002 Z M19,12.8842 L29.618,26.0002 L30,26.0002 L30,6.0002 L2,6.0002 L2,26.0002 L2.408,26.0002 L10,16.5902 L13,20.2942 L19,12.8842 Z M4.978,26.0002 L27.046,26.0002 L19,16.0622 L14.554,21.5522 L13,23.4722 L11.446,21.5522 L10.002,19.7702 L4.978,26.0002 Z" id="Fill-1" fill="#212121"></path>
        <path d="M8,14 C6.898,14 6,13.102 6,12 C6,10.898 6.898,10 8,10 C9.102,10 10,10.898 10,12 C10,13.102 9.102,14 8,14 M8,8 C5.79,8 4,9.79 4,12 C4,14.21 5.79,16 8,16 C10.21,16 12,14.21 12,12 C12,9.79 10.21,8 8,8" id="Fill-4" fill="#212121"></path>
    </g>
</svg>