<svg xmlns="http://www.w3.org/2000/svg" viewBox="0 0 100 100"><g id="Outline"><path d="M84.64,24.19a100.14,100.14,0,0,0-69.31.37A2.06,2.06,0,0,0,14,26.48v26a2.08,2.08,0,0,0,1.33,1.94c2.79,1.05,9,2.51,13.47,3.58l2.91.69a2,2,0,0,0,.85.19,2.06,2.06,0,0,0,2.06-2.06v-8c2.26-.38,4.49-.68,6.65-.89a2.06,2.06,0,0,0,1.39-.75,2,2,0,0,0,.45-1.51,2,2,0,0,0-2.25-1.84c-2,.2-4.13.49-6.24.83V31.41a2.06,2.06,0,0,0-2.06-2.05l-.25,0-.08,0a48.84,48.84,0,0,1-10.9-2.48,96.2,96.2,0,0,1,57.92-.21,48.57,48.57,0,0,1-11.48,2.69l-.08,0-.25,0a2.06,2.06,0,0,0-2.06,2.05V44.9c-2-.32-4-.6-6-.79A2.05,2.05,0,0,0,57.14,46,2.08,2.08,0,0,0,59,48.21c2.07.2,4.22.49,6.39.85V56.8a2.06,2.06,0,0,0,2.06,2.06,2,2,0,0,0,.85-.19L71.2,58c4.51-1.07,10.68-2.53,13.47-3.58A2.08,2.08,0,0,0,86,52.47V26.13A2.06,2.06,0,0,0,84.64,24.19ZM69.5,33.29a48.24,48.24,0,0,0,12.39-3.23V51c-2.82,1-8.66,2.46-12.39,3.39Zm-39,21.13C26.77,53.49,21,52,18.12,51v-21A48.45,48.45,0,0,0,30.5,33.29Z"/><path d="M50,57.13A10.76,10.76,0,1,0,39.25,46.37,10.78,10.78,0,0,0,50,57.13ZM50,39.7a6.67,6.67,0,1,1-6.67,6.67A6.67,6.67,0,0,1,50,39.7Z"/><path d="M74.82,73.9h0C70.28,68,60.54,64.13,50,64.13S29.74,68,25.2,73.9a4.94,4.94,0,0,0,3.95,7.91H70.88a4.92,4.92,0,0,0,4.43-2.76A4.86,4.86,0,0,0,74.82,73.9Zm-3.18,3.34a.8.8,0,0,1-.76.48H29.15a.83.83,0,0,1-.77-.48.75.75,0,0,1,.07-.85c3.79-5,12.26-8.17,21.56-8.17s17.77,3.21,21.56,8.17A.75.75,0,0,1,71.64,77.24Z"/></g></svg>