<?xml version="1.0" encoding="UTF-8"?>
<svg width="32px" height="32px" viewBox="0 0 32 32" version="1.1" xmlns="http://www.w3.org/2000/svg" xmlns:xlink="http://www.w3.org/1999/xlink">
    <!-- Generator: Sketch 53.2 (72643) - https://sketchapp.com -->
    <title>Infinity-outline-fill</title>
    <desc>Created with Sketch.</desc>
    <g id="Infinity-outline" stroke="none" stroke-width="1" fill="none" fill-rule="evenodd">
        <path d="M24.5158706,23.0067774 C22.3710824,23.0056197 20.3293188,22.0866643 18.9062367,20.4819976 L18.8795665,20.4508824 L16.0080741,16.8637393 L13.1099114,20.4819976 C11.0468204,22.8164195 7.75467367,23.6310243 4.84103458,22.5280386 C1.92739549,21.4250529 0,18.6345409 0,15.5191163 C0,12.4036917 1.92739549,9.61317971 4.84103458,8.510194 C7.75467367,7.40720828 11.0468204,8.22181313 13.1099114,10.556235 L13.1365816,10.5873502 L15.994739,14.1433781 L18.8795665,10.5428999 C21.1600591,7.95218011 24.9150253,7.25396059 27.9743554,8.85176375 C31.0336855,10.4495669 32.6061706,13.9301663 31.7830235,17.2820172 C30.9598764,20.6338681 27.9539807,22.9901094 24.5025355,22.9889972 L24.5158706,23.0067774 Z M20.1864067,19.375184 C21.7870039,21.1739782 24.3324299,21.7969616 26.5828449,20.9406881 C28.8332599,20.0844146 30.3207298,17.9269311 30.3207298,15.5191163 C30.3207298,13.1113015 28.8332599,10.9538181 26.5828449,10.0975445 C24.3324299,9.24127102 21.7870039,9.86425442 20.1864067,11.6630487 L17.0926626,15.5124488 L20.1864067,19.375184 Z M7.50027755,9.7116784 C4.83422624,9.71253028 2.51203143,11.5305303 1.87134789,14.1184551 C1.23066435,16.7063799 2.43647854,19.3977968 4.79420483,20.6423678 C7.15193112,21.8869388 10.0544166,21.3641666 11.8297414,19.375184 L14.9412657,15.5124488 L11.8564116,11.6630487 C10.7534103,10.4152489 9.16567754,9.70400944 7.50027755,9.7116784 Z" id="Shape" fill="#2D2D2D" fill-rule="nonzero"></path>
    </g>
</svg>