<?xml version="1.0" encoding="UTF-8"?>
<svg width="32px" height="32px" viewBox="0 0 32 32" version="1.1" xmlns="http://www.w3.org/2000/svg" xmlns:xlink="http://www.w3.org/1999/xlink">
    <!-- Generator: Sketch 50.2 (55047) - http://www.bohemiancoding.com/sketch -->
    <title>information-outline</title>
    <desc>Created with Sketch.</desc>
    <defs></defs>
    <g id="information" stroke="none" stroke-width="1" fill="none" fill-rule="evenodd">
        <path d="M16,32 C7.164,32 0,24.836 0,16 C0,7.164 7.164,0 16,0 C24.8373333,0 32,7.164 32,16 C32,24.836 24.8373333,32 16,32 Z M16,2 C8.28,2 2,8.28 2,16 C2,23.72 8.28,30 16,30 C23.72,30 30,23.72 30,16 C30,8.28 23.72,2 16,2 Z M15,24 L15,14 L17,14 L17,24 L15,24 Z M16,10 C15.448,10 15,9.552 15,9 C15,8.448 15.448,8 16,8 C16.552,8 17,8.448 17,9 C17,9.552 16.552,10 16,10 Z" id="Combined-Shape" fill="#212121"></path>
    </g>
</svg>