<svg xmlns="http://www.w3.org/2000/svg" xmlns:xlink="http://www.w3.org/1999/xlink" viewBox="0 0 100 100"><defs><style>.cls-1{fill:#fff;}.cls-2{mask:url(#mask);}</style><mask id="mask" x="5.06" y="25.14" width="72" height="72" maskUnits="userSpaceOnUse"><g id="mask-2"><polygon id="path-1" class="cls-1" points="5.06 97.14 77.06 97.14 77.06 25.14 5.06 25.14 5.06 97.14"/></g></mask></defs><g id="Outline"><path d="M14,27V68.5A4.49,4.49,0,0,0,18.5,73h63A4.49,4.49,0,0,0,86,68.5V27ZM81.5,68.5h-63v-37h63Z"/><circle cx="57.5" cy="38.97" r="3"/><circle cx="27.5" cy="38.97" r="3"/><circle cx="42.5" cy="38.97" r="3"/><circle cx="72.5" cy="38.97" r="3"/><circle cx="57.5" cy="50" r="3"/><circle cx="27.5" cy="50" r="3"/><circle cx="42.5" cy="50" r="3"/><circle cx="72.5" cy="50" r="3"/><g class="cls-2"><polygon id="Fill-4" points="38.69 63.38 61.31 63.38 61.31 58.88 38.69 58.88 38.69 63.38"/></g></g></svg>