<svg xmlns="http://www.w3.org/2000/svg" viewBox="0 0 100 100"><g id="Outline"><path d="M34,81.05H33.9c-3.8-.21-6.55-1.51-8.19-3.89-2.58-3.76-1.17-8.5-1-9a1.86,1.86,0,0,1,.1-.25l12.78-27.8c0-2.18,0-11,0-12.53a.41.41,0,0,0-.33-.43A4.33,4.33,0,0,1,34.55,26,4,4,0,0,1,33.39,23,4.06,4.06,0,0,1,37.56,19H53.51a2.26,2.26,0,0,1,2.25,2.24l.1,18.53c1.3,2.83,8.52,18.5,12.56,27.17,0,.09.07.17.1.26,1.36,4.21,1.12,7.63-.71,10.16C65.16,81,60.23,81.05,60,81.05Zm.06-4.5H60s2.87-.08,4.16-1.9c1.14-1.58.7-4.1.11-6-4.45-9.55-12.63-27.32-12.71-27.5a2.47,2.47,0,0,1-.21-.93l-.09-16.78H39.9a4.71,4.71,0,0,1,2.19,4c0,1.79,0,12.7,0,13.16a2.47,2.47,0,0,1-.21.93L29,69.61c-.27,1-.64,3.43.46,5C30.23,75.77,31.79,76.42,34.08,76.55ZM21.12,65c-.33-.27-.28-1.46-.28-1.8l0-24.16,0-.32a2.1,2.1,0,0,0-1.09-1.45l-.18-.09h6.72V54.11l3.6-7.88V35.39l0-.33A1.79,1.79,0,0,0,28,33.59H19.15l-1.17,0c-2.58.12-4,1.18-4,3.43l0,.41a3.24,3.24,0,0,0,3.19,3l0,22.79c0,1.84.49,4.77,2.26,5.38M86,58.38a15.73,15.73,0,0,0-9-14.09V31.12a2.25,2.25,0,0,0-2.25-2.25h0v0h-8c-2.37,0-4.92,1.25-4.92,4a3.74,3.74,0,0,0,2.67,3.57v7.9c-.48.22-.9.44-1.29.66l1.9,4.12a10.67,10.67,0,0,1,2.36-1.12A2.24,2.24,0,0,0,69,45.81V34.53c0-.94-.62-.92-.84-1.26l4.36.07v1.15h0v11.3A2.25,2.25,0,0,0,74,47.91c.31.11,7.5,2.71,7.5,10.47,0,6.17-4.77,9-7.51,10.06l1.89,4.11C80.38,70.67,86,66.29,86,58.38ZM59.43,66.51l-.64-2h-24l-.64,2c-.66,2-1.48,3.88-.9,5.18a3.43,3.43,0,0,0,3.35,2H57a3.42,3.42,0,0,0,3.34-2c.59-1.3-.23-3.14-.89-5.18"/></g></svg>