<?xml version="1.0" encoding="UTF-8"?>
<svg width="32px" height="32px" viewBox="0 0 32 32" version="1.1" xmlns="http://www.w3.org/2000/svg" xmlns:xlink="http://www.w3.org/1999/xlink">
    <!-- Generator: Sketch 53.2 (72643) - https://sketchapp.com -->
    <title>leader-outline-fill</title>
    <desc>Created with Sketch.</desc>
    <g id="leader-outline" stroke="none" stroke-width="1" fill="none" fill-rule="evenodd">
        <path d="M16.0273973,17.6219178 C11.164242,17.6146756 7.22368059,13.6741141 7.21643836,8.8109589 C7.21643836,3.94480067 11.161239,0 16.0273973,0 C20.8935555,0 24.8383562,3.94480067 24.8383562,8.8109589 C24.8383562,13.6771171 20.8935555,17.6219178 16.0273973,17.6219178 Z M16.0273973,1.97260274 C12.2516795,1.97502075 9.1914591,5.03524111 9.1890411,8.8109589 C9.1890411,12.5876787 12.2506774,15.6493151 16.0273973,15.6493151 C19.8041171,15.6493151 22.8657534,12.5876787 22.8657534,8.8109589 C22.8657534,5.03423908 19.8041171,1.97260274 16.0273973,1.97260274 Z M29.1780822,21.5545205 C29.5396893,21.7090008 29.7742636,22.0643118 29.7742466,22.4575342 L29.7742466,31.0712329 C29.7742466,31.6159521 29.3326644,32.0575342 28.7879452,32.0575342 L3.27123288,32.0575342 C2.72651367,32.0575342 2.28493151,31.6159521 2.28493151,31.0712329 L2.28493151,22.4575342 C2.28416186,22.0653609 2.51682185,21.710339 2.87671233,21.5545205 C10.6136986,18.1484932 21.4367123,18.1484932 29.1780822,21.5545205 Z M16.0273973,23.4087671 L14.9928767,26.9024658 L15.9528767,27.8931507 L17.0531507,26.8630137 L16.0273973,23.4087671 Z M27.8016438,30.0849315 L27.8016438,23.1106849 C24.9761331,21.9939312 21.9983524,21.3097066 18.9687671,21.0810959 L17.2416438,21.6684932 L19.1923288,26.990137 C19.3631818,27.4552433 19.1624432,27.9749123 18.7232877,28.2043836 L15.9178082,30.3172603 L13.2876712,28.1868493 C12.8688417,27.948582 12.6834873,27.4425644 12.8493151,26.990137 L14.8131507,21.6684932 L13.0860274,21.0810959 C10.0564421,21.3097066 7.07866143,21.9939312 4.25315068,23.1106849 L4.25315068,30.0849315 L27.8016438,30.0849315 Z" id="Combined-Shape" fill="#2D2D2D" fill-rule="nonzero"></path>
    </g>
</svg>