<?xml version="1.0" encoding="UTF-8"?>
<svg width="32px" height="32px" viewBox="0 0 32 32" version="1.1" xmlns="http://www.w3.org/2000/svg" xmlns:xlink="http://www.w3.org/1999/xlink">
    <!-- Generator: Sketch 50.2 (55047) - http://www.bohemiancoding.com/sketch -->
    <title>left-chevron-circle-outline</title>
    <desc>Created with Sketch.</desc>
    <defs></defs>
    <g id="left-chevron-circle" stroke="none" stroke-width="1" fill="none" fill-rule="evenodd">
        <path d="M18.7293333,31.7506667 C19.4493333,31.6266667 20.1573333,31.4666667 20.84,31.2506667 C26.088,29.5866667 30.148,25.2853333 31.5,19.9053333 C31.8146667,18.6546667 31.9986667,17.3533333 32,16.0053333 L32,16 L32,15.9946667 C31.9986667,14.6466667 31.8146667,13.3453333 31.5,12.0946667 C29.972,6.016 24.98,1.328 18.736,0.250666667 C17.8453333,0.0973333333 16.9346667,1.71695481e-16 16,0 C15.0653333,-1.71695481e-16 14.1546667,0.0973333333 13.264,0.250666667 C7.01866667,1.32933333 2.02666667,6.01733333 0.5,12.096 C0.185333333,13.348 0,14.6506667 0,16 C0,17.3493333 0.185333333,18.652 0.5,19.904 C1.85066667,25.284 5.91066667,29.5853333 11.16,31.2506667 C11.8426667,31.4666667 12.5506667,31.6266667 13.2706667,31.7506667 C14.1586667,31.904 15.068,32 16,32 C16.932,32 17.8413333,31.904 18.7293333,31.7506667 L18.7293333,31.7506667 Z M2,16 C2,8.28 8.28,2 16,2 C23.72,2 30,8.28 30,16 C30,23.72 23.72,30 16,30 C8.28,30 2,23.72 2,16 L2,16 Z M14.9688,16.0002667 L19.8594667,11.1109333 L18.4448,9.6976 L12.1408,16.0002667 L18.4448,22.3029333 L19.8594667,20.8896 L14.9688,16.0002667 L14.9688,16.0002667 Z" id="Combined-Shape" fill="#212121"></path>
    </g>
</svg>