<svg xmlns="http://www.w3.org/2000/svg" xmlns:xlink="http://www.w3.org/1999/xlink" viewBox="0 0 100 100"><defs><style>.cls-1{clip-path:url(#clip-path);}</style><clipPath id="clip-path"><path d="M27.5,38.75v9l0,.26A2.25,2.25,0,0,0,32,47.75V38.49a2.25,2.25,0,0,0-4.49.26M68,34.25v9l0,.26a2.25,2.25,0,0,0,4.48-.26v-9l0-.26a2.25,2.25,0,0,0-4.48.26m-20.25-4.5v18l0,.26a2.25,2.25,0,0,0,4.48-.26v-18l0-.26a2.25,2.25,0,0,0-4.48.26M43.25,72.5h13.5v9H43.25ZM20.75,68h18V81.5h-18Zm40.5,0h18V81.5h-18Zm-18-4.5h13.5V68H43.25Zm-22.5-36h18v36h-18ZM61.25,23h18V63.5h-18Zm-18-4.5h13.5V59H43.25ZM41,14l-.31,0a2.25,2.25,0,0,0-1.94,2.23V23H18.5a2.25,2.25,0,0,0-2.25,2.25v58.5A2.25,2.25,0,0,0,18.5,86h63a2.25,2.25,0,0,0,2.25-2.25v-63l0-.31A2.25,2.25,0,0,0,81.5,18.5H61.25V16.25A2.25,2.25,0,0,0,59,14Z"/></clipPath></defs><g id="Outline"><path d="M27.5,38.75v9l0,.26A2.25,2.25,0,0,0,32,47.75V38.49a2.25,2.25,0,0,0-4.49.26M68,34.25v9l0,.26a2.25,2.25,0,0,0,4.48-.26v-9l0-.26a2.25,2.25,0,0,0-4.48.26m-20.25-4.5v18l0,.26a2.25,2.25,0,0,0,4.48-.26v-18l0-.26a2.25,2.25,0,0,0-4.48.26M43.25,72.5h13.5v9H43.25ZM20.75,68h18V81.5h-18Zm40.5,0h18V81.5h-18Zm-18-4.5h13.5V68H43.25Zm-22.5-36h18v36h-18ZM61.25,23h18V63.5h-18Zm-18-4.5h13.5V59H43.25ZM41,14l-.31,0a2.25,2.25,0,0,0-1.94,2.23V23H18.5a2.25,2.25,0,0,0-2.25,2.25v58.5A2.25,2.25,0,0,0,18.5,86h63a2.25,2.25,0,0,0,2.25-2.25v-63l0-.31A2.25,2.25,0,0,0,81.5,18.5H61.25V16.25A2.25,2.25,0,0,0,59,14Z"/><g class="cls-1"><rect x="14" y="14" width="72" height="72"/><rect x="1.25" y="-1" width="97.5" height="102"/></g></g></svg>