<svg xmlns="http://www.w3.org/2000/svg" viewBox="0 0 100 100"><g id="Outline"><path d="M52.16,75.92H34.24V24.08H52.16ZM37.48,72.68H48.92V27.32H37.48Z"/><path d="M31.92,75.92H14V24.08H31.92ZM17.24,72.68H28.68V27.32H17.24Z"/><path d="M69.05,77.43l-16.82-49,17-5.82L86,71.61Zm-12.71-47L71.06,73.31,81.88,69.6,67.16,26.69Z"/><rect x="18.76" y="30.57" width="8.4" height="3.24"/><rect x="18.76" y="35.73" width="8.4" height="3.24"/><rect x="18.76" y="65.67" width="8.4" height="3.24"/><rect x="39" y="31.29" width="8.4" height="3.24"/><rect x="39" y="36.45" width="8.4" height="3.24"/><rect x="39" y="65.67" width="8.4" height="3.24"/><rect x="59.53" y="32.25" width="8.4" height="3.24" transform="translate(-7.6 22.9) rotate(-19.25)"/><rect x="60.99" y="37.16" width="8.4" height="3.24" transform="translate(-9.14 23.66) rotate(-19.25)"/><rect x="70.86" y="64.71" width="8.4" height="3.24" transform="translate(-17.67 28.45) rotate(-19.25)"/></g></svg>