<svg xmlns="http://www.w3.org/2000/svg" viewBox="0 0 100 100"><g id="Outline"><path d="M57.7,69.54H41.83a2.18,2.18,0,1,0,0,4.35H57.7a2.18,2.18,0,0,0,0-4.35Z"/><path d="M55.21,75.59H43.89a2.18,2.18,0,0,0,0,4.36H55.21a2.18,2.18,0,1,0,0-4.36Z"/><path d="M52.85,81.65H46.68a2.18,2.18,0,1,0,0,4.35h6.17a2.18,2.18,0,0,0,0-4.35Z"/><path d="M62.9,36.71c-2.16-2.64-6.17-5.78-13-5.78s-10.85,3.14-13,5.78a18.65,18.65,0,0,0-4,11.63c0,4,1.8,6.88,3.55,9.66.3.48.6.93.88,1.36,1.35,2,2.41,3.6,2.41,6.59a2.18,2.18,0,1,0,4.35,0c0-4.22-1.54-6.56-3.17-9-.26-.4-.53-.81-.79-1.23-1.54-2.46-2.88-4.59-2.88-7.34,0-10.31,7.94-13.06,12.63-13.06S62.52,38,62.52,48.34c0,2.75-1.33,4.88-2.88,7.35l-.79,1.22c-1.63,2.48-3.17,4.82-3.17,9A2.18,2.18,0,1,0,60,66c0-3,1.06-4.58,2.4-6.59L63.33,58c1.74-2.78,3.54-5.66,3.54-9.66A18.65,18.65,0,0,0,62.9,36.71Z"/><path d="M49.76,27.5a2.18,2.18,0,0,0,2.18-2.17V16.18a2.18,2.18,0,1,0-4.35,0v9.15A2.17,2.17,0,0,0,49.76,27.5Z"/><path d="M31.28,35.18a2.18,2.18,0,0,0,3.06-.26,2.18,2.18,0,0,0-.27-3.07l-7-5.88a2.11,2.11,0,0,0-1.58-.5,2.16,2.16,0,0,0-2,2.35,2.14,2.14,0,0,0,.77,1.48Z"/><path d="M29.76,48a2.19,2.19,0,0,0-2.18-2.18H18.43a2.18,2.18,0,0,0,0,4.36h9.15A2.19,2.19,0,0,0,29.76,48Z"/><path d="M33.17,60.17a2.1,2.1,0,0,0-1.59.5l-7,5.88a2.18,2.18,0,0,0,2.8,3.33l7-5.88a2.17,2.17,0,0,0-1.21-3.83Z"/><path d="M68.72,60.3a2.18,2.18,0,0,0-2.8,3.34l7,5.88a2.19,2.19,0,0,0,1.4.51A2.15,2.15,0,0,0,76,69.25a2.17,2.17,0,0,0-.27-3.06Z"/><path d="M81.57,45.33H72.42a2.18,2.18,0,0,0,0,4.36h9.15a2.18,2.18,0,0,0,0-4.36Z"/><path d="M67,35.33a2.17,2.17,0,0,0,1.4-.51l7-5.88a2.18,2.18,0,1,0-2.8-3.33l-7,5.88A2.17,2.17,0,0,0,67,35.33Z"/></g></svg>