<?xml version="1.0" encoding="UTF-8"?>
<svg width="32px" height="32px" viewBox="0 0 32 32" version="1.1" xmlns="http://www.w3.org/2000/svg" xmlns:xlink="http://www.w3.org/1999/xlink">
    <!-- Generator: Sketch 50.2 (55047) - http://www.bohemiancoding.com/sketch -->
    <title>link-outline</title>
    <desc>Created with Sketch.</desc>
    <defs></defs>
    <g id="link" stroke="none" stroke-width="1" fill="none" fill-rule="evenodd">
        <path d="M17,21 L30,21 L30,11 L17,11 L17,9 L30,9 C31.1045695,9 32,9.8954305 32,11 L32,21 C32,22.1045695 31.1045695,23 30,23 L17,23 L17,21 Z M15,21 L15,23 L2,23 C0.8954305,23 0,22.1045695 0,21 L0,11 C0,9.8954305 0.8954305,9 2,9 L15,9 L15,11 L2,11 L2,21 L15,21 Z M6,15 L26,15 L26,17 L6,17 L6,15 Z" id="Combined-Shape" fill="#212121" fill-rule="nonzero" transform="translate(16.000000, 16.000000) rotate(-45.000000) translate(-16.000000, -16.000000) "></path>
    </g>
</svg>