<svg xmlns="http://www.w3.org/2000/svg" viewBox="0 0 100 100"><g id="Outline"><path d="M56.68,50.49,72.05,35,55.72,18.62,40.15,33.92,36.9,30.67,52.45,15.35a4.62,4.62,0,0,1,6.53,0L75.31,31.68a4.62,4.62,0,0,1,0,6.53L60,53.77Z"/><path d="M44.28,81.38,28,65.05,43.26,49.9,40,46.64,24.69,61.79a4.62,4.62,0,0,0,0,6.53L41,84.65a4.62,4.62,0,0,0,6.53,0l15.21-15.3-3.27-3.26Z"/><polygon points="49.42 44.6 58.98 34.95 55.72 31.68 46.16 41.33 49.42 44.6"/><polygon points="44.28 68.32 53.76 58.77 50.49 55.5 41.02 65.05 44.28 68.32"/></g></svg>