<?xml version="1.0" encoding="UTF-8"?>
<svg width="32px" height="32px" viewBox="0 0 32 32" version="1.1" xmlns="http://www.w3.org/2000/svg" xmlns:xlink="http://www.w3.org/1999/xlink">
    <!-- Generator: Sketch 50.2 (55047) - http://www.bohemiancoding.com/sketch -->
    <title>list-view-outline</title>
    <desc>Created with Sketch.</desc>
    <defs></defs>
    <g id="list-view" stroke="none" stroke-width="1" fill="none" fill-rule="evenodd">
        <path d="M4,17 L4,15 L32,15 L32,17 L4,17 Z M4,9 L4,7 L32,7 L32,9 L4,9 Z M4,25 L4,23 L32,23 L32,25 L4,25 Z M0,17 L0,15 L2,15 L2,17 L0,17 Z M0,9 L0,7 L2,7 L2,9 L0,9 Z M0,25 L0,23 L2,23 L2,25 L0,25 Z" id="Combined-Shape" fill="#212121"></path>
    </g>
</svg>