<?xml version="1.0" encoding="UTF-8"?>
<svg width="32px" height="32px" viewBox="0 0 32 32" version="1.1" xmlns="http://www.w3.org/2000/svg" xmlns:xlink="http://www.w3.org/1999/xlink">
    <!-- Generator: Sketch 50.2 (55047) - http://www.bohemiancoding.com/sketch -->
    <title>location-outline</title>
    <desc>Created with Sketch.</desc>
    <defs></defs>
    <g id="location" stroke="none" stroke-width="1" fill="none" fill-rule="evenodd">
        <path d="M25.1923882,3.80761184 C30.2692039,8.88442764 30.2692039,17.1155724 25.1923882,22.1923882 L16,32 L6.80761184,22.1923882 C1.73079605,17.1155724 1.73079605,8.88442764 6.80761184,3.80761184 C11.8844276,-1.26920395 20.1155724,-1.26920395 25.1923882,3.80761184 Z M16.0001134,29.0755121 L23.7781746,20.7781746 C28.0739418,16.4824074 28.0739418,9.51759262 23.7781746,5.22182541 C19.4824074,0.926058198 12.5175926,0.926058198 8.22182541,5.22182541 C3.9260582,9.51759262 3.9260582,16.4824074 8.26685313,20.8246839 L16.0001134,29.0755121 Z M16,18 C13.2385763,18 11,15.7614237 11,13 C11,10.2385763 13.2385763,8 16,8 C18.7614237,8 21,10.2385763 21,13 C21,15.7614237 18.7614237,18 16,18 Z M16,16 C17.6568542,16 19,14.6568542 19,13 C19,11.3431458 17.6568542,10 16,10 C14.3431458,10 13,11.3431458 13,13 C13,14.6568542 14.3431458,16 16,16 Z" id="Combined-Shape" fill="#212121" fill-rule="nonzero"></path>
    </g>
</svg>