<?xml version="1.0" encoding="UTF-8"?>
<svg width="32px" height="32px" viewBox="0 0 32 32" version="1.1" xmlns="http://www.w3.org/2000/svg" xmlns:xlink="http://www.w3.org/1999/xlink">
    <!-- Generator: Sketch 53.2 (72643) - https://sketchapp.com -->
    <title>location-outline-fill</title>
    <desc>Created with Sketch.</desc>
    <g id="location-outline" stroke="none" stroke-width="1" fill="none" fill-rule="evenodd">
        <path d="M32,15 L32,17 L30.0666667,17 C29.5597226,23.9957922 23.9957922,29.5597226 17,30.0666667 L17,32 L15,32 L15,30.0666667 C8.00420782,29.5597226 2.44027745,23.9957922 1.93333333,17 L7.10542736e-15,17 L7.10542736e-15,15 L1.93333333,15 C2.44027745,8.00420782 8.00420782,2.44027745 15,1.93333333 L15,7.10542736e-15 L17,7.10542736e-15 L17,1.93333333 C23.9957922,2.44027745 29.5597226,8.00420782 30.0666667,15 L32,15 Z M17,28.0622222 C22.8913533,27.5651775 27.5651775,22.8913533 28.0622222,17 L26.9511111,17 L26.9511111,15 L28.0622222,15 C27.5651775,9.1086467 22.8913533,4.43482249 17,3.93777778 L17,5.04888889 L15,5.04888889 L15,3.93777778 C9.1086467,4.43482249 4.43482249,9.1086467 3.93777778,15 L5.04888889,15 L5.04888889,17 L3.93777778,17 C4.43482249,22.8913533 9.1086467,27.5651775 15,28.0622222 L15,26.9511111 L17,26.9511111 L17,28.0622222 Z M21,13.5555556 C21.5522847,13.5555556 22,14.0032708 22,14.5555556 L22,21.3733333 C22,21.9256181 21.5522847,22.3733333 21,22.3733333 L11,22.3733333 C10.4477153,22.3733333 10,21.9256181 10,21.3733333 L10,14.5555556 C10,14.0032708 10.4477153,13.5555556 11,13.5555556 L11.8355556,13.5555556 L11.8355556,12.6977778 C11.7732944,10.3330785 13.6355229,8.36352837 16,8.29333333 C18.3644771,8.36352837 20.2267056,10.3330785 20.1644444,12.6977778 L20.1644444,13.5555556 L21,13.5555556 Z M13.8355556,12.6977778 L13.8355556,13.5555556 L18.1644444,13.5555556 L18.1644444,12.6977778 C18.2250279,11.4381354 17.2590572,10.3650551 16,10.2933333 C14.7409428,10.3650551 13.7749721,11.4381354 13.8355556,12.6977778 Z M20,20.3733333 L20,15.5555556 L12,15.5555556 L12,20.3733333 L20,20.3733333 Z" id="Combined-Shape" fill="#2D2D2D" fill-rule="nonzero"></path>
    </g>
</svg>