<svg xmlns="http://www.w3.org/2000/svg" viewBox="0 0 100 100"><g id="Outline"><path d="M27.49,18.5a5.14,5.14,0,1,1-5.2,5.14,5.19,5.19,0,0,1,5.2-5.14m0-4.5a9.64,9.64,0,1,0,9.76,9.64A9.7,9.7,0,0,0,27.49,14ZM41,38.9s-6.44-4.3-13.78-4.3A24.81,24.81,0,0,0,14,38.9V62.74h6.11V86h4.56V62.74h5.65V86h4.55V62.74H41ZM18.31,41.27a19.62,19.62,0,0,1,8.89-2.41,22.16,22.16,0,0,1,9.48,2.51V58.48H18.31Z"/><path d="M68,18.53a5.11,5.11,0,1,1-5.22,5.11A5.17,5.17,0,0,1,68,18.53M68,14a9.64,9.64,0,1,0,9.73,9.64A9.69,9.69,0,0,0,68,14ZM86,70.74,82,38.9s-6.42-4.3-13.74-4.3a24.66,24.66,0,0,0-13.15,4.3L50,70.74H60.46V86H65V70.74h5.63V86h4.55V70.74ZM59,41.5a19.65,19.65,0,0,1,9.27-2.64A22.51,22.51,0,0,1,78,41.54l3,24.94H55.19Z"/></g></svg>