<?xml version="1.0" encoding="UTF-8"?>
<svg width="32px" height="32px" viewBox="0 0 32 32" version="1.1" xmlns="http://www.w3.org/2000/svg" xmlns:xlink="http://www.w3.org/1999/xlink">
    <!-- Generator: Sketch 53.2 (72643) - https://sketchapp.com -->
    <title>management-outline-fill</title>
    <desc>Created with Sketch.</desc>
    <g id="management-outline" stroke="none" stroke-width="1" fill="none" fill-rule="evenodd">
        <path d="M12,3 L12,5 L10,5 L10,3 C10,1.88888889 10.8888889,1 12,1 L20,1 C21.1111111,1 22,1.88888889 22,3 L22,5 L20,5 L20,3 L12,3 Z M30,7 C31.1111111,7 32,7.88888889 32,9 L32,29 C32,30.1111111 31.1111111,31 30,31 L2,31 C0.888888889,31 0,30.1111111 0,29 L0,7 L30,7 Z M30,9 L2,9 L2,13 L30,13 L30,9 Z M2,29 L30,29 L30,15 L2,15 L2,29 Z" id="Combined-Shape" fill="#2D2D2D" fill-rule="nonzero"></path>
    </g>
</svg>