<svg xmlns="http://www.w3.org/2000/svg" viewBox="0 0 100 100"><g id="Outline"><path d="M23.5,71.22H36.68v-13H23.5Zm8.86-8.73V67H27.83V62.49Z"/><path d="M79.81,45V27.31a.24.24,0,0,1,.24-.24h3.26a.24.24,0,0,0,.24-.24V14.24a.24.24,0,0,0-.24-.24H63.85a.24.24,0,0,0-.24.24V26.83a.24.24,0,0,0,.24.24h2.29a.25.25,0,0,1,.25.24V45a.24.24,0,0,1-.25.24H59.07a.24.24,0,0,1-.25-.24V18.45a.23.23,0,0,0-.42-.14l-13,16.12a.24.24,0,0,1-.43-.15v-11A.24.24,0,0,0,44.7,23H18.54A4.21,4.21,0,0,0,14,27.5V86H85.76a.24.24,0,0,0,.24-.24V45.44a.24.24,0,0,0-.24-.24H80.05A.23.23,0,0,1,79.81,45Zm1.59,5V81.22a.24.24,0,0,1-.24.24H18.77a.24.24,0,0,1-.24-.24V27.8a.23.23,0,0,1,.24-.23H40.1a.23.23,0,0,1,.24.23V48.4a.24.24,0,0,0,.43.14l13-17a.24.24,0,0,1,.43.14V49.5a.24.24,0,0,0,.24.24H70.75A.24.24,0,0,0,71,49.5V27.31a.24.24,0,0,1,.24-.24H75a.24.24,0,0,1,.24.24V49.5a.24.24,0,0,0,.24.24h5.72A.24.24,0,0,1,81.4,50ZM79,18.78v3.51a.24.24,0,0,1-.24.24H68.46a.24.24,0,0,1-.25-.24V18.78a.24.24,0,0,1,.25-.24H78.71A.24.24,0,0,1,79,18.78Z"/><path d="M43.37,71.22H56.56v-13H43.37Zm8.86-8.73V67H47.7V62.49Z"/><path d="M63.24,71.22H76.43v-13H63.24Zm8.86-8.73V67H67.57V62.49Z"/></g></svg>