<svg xmlns="http://www.w3.org/2000/svg" viewBox="0 0 100 100"><g id="Outline"><path d="M21.48,52.05V80.31H34.9V57.51h1.57v.05l21.19,6v4.56H69.79V19.69H57.65v4.84L37.17,30.39H21.48v5.44a8.14,8.14,0,0,0,0,16.22ZM62,24h3.48V63.83H62ZM39.08,34.37,57.65,29V59.13L39.08,53.77ZM25.81,51.2V34.72h9V53.19H25.81Zm0,6.32h4.76V76H25.81ZM21.48,40.18v7.51a3.81,3.81,0,0,1,0-7.51Z"/><path d="M74.63,41.68h9.1a2.28,2.28,0,0,1,0,4.55h-9.1a2.28,2.28,0,1,1,0-4.55Z"/><path d="M74.63,28h9.1a2.28,2.28,0,0,1,0,4.55h-9.1a2.28,2.28,0,1,1,0-4.55Z"/><path d="M74.63,55.66h9.1a2.27,2.27,0,0,1,0,4.54h-9.1a2.27,2.27,0,1,1,0-4.54Z"/></g></svg>