<svg xmlns="http://www.w3.org/2000/svg" viewBox="0 0 100 100"><g id="Outline"><path d="M34.48,43.1a4.68,4.68,0,1,0-4.68-4.67A4.68,4.68,0,0,0,34.48,43.1ZM32,38.43a2.46,2.46,0,1,1,2.46,2.45A2.46,2.46,0,0,1,32,38.43Z"/><path d="M50,43.1a4.68,4.68,0,1,0-4.68-4.67A4.68,4.68,0,0,0,50,43.1Zm-2.46-4.67A2.46,2.46,0,1,1,50,40.88,2.46,2.46,0,0,1,47.54,38.43Z"/><path d="M65.53,43.1a4.68,4.68,0,1,0-4.68-4.67A4.68,4.68,0,0,0,65.53,43.1Zm-2.46-4.67a2.46,2.46,0,1,1,2.46,2.45A2.46,2.46,0,0,1,63.07,38.43Z"/><path d="M76.29,50.38c-.27-.65-1.1-1.24-3.21-1.24h-.56v-3.8a1,1,0,0,0-.6-.91,17,17,0,0,0-12.79,0,1,1,0,0,0-.6.91v3.8H57v-3.8a1,1,0,0,0-.59-.91,17,17,0,0,0-12.8,0,1,1,0,0,0-.59.91v3.8H41.47v-3.8a1,1,0,0,0-.6-.91,15.9,15.9,0,0,0-6.39-1.25,15.92,15.92,0,0,0-6.4,1.25,1,1,0,0,0-.6.91v3.8h-.56c-2.11,0-2.94.59-3.21,1.24L14,64v.43c0,.83.58,1.82,3.32,1.82H82.68c2.74,0,3.32-1,3.32-1.82V64ZM17.61,63.56l8.31-11.65a5.43,5.43,0,0,1,1-.08H73.08a5.43,5.43,0,0,1,1,.08l8.31,11.65ZM60.75,46.17a15.73,15.73,0,0,1,9.55,0v3H60.75Zm-15.52,0A13.8,13.8,0,0,1,50,45.4a14.59,14.59,0,0,1,4.77.77v3H45.23Zm-15.53,0a15.73,15.73,0,0,1,9.55,0v3H29.7Z"/></g></svg>