<svg xmlns="http://www.w3.org/2000/svg" viewBox="0 0 100 100"><g id="Outline"><path d="M49.31,62A10.67,10.67,0,1,0,38.65,51.37,10.68,10.68,0,0,0,49.31,62Zm0-18.12a7.46,7.46,0,1,1-7.45,7.45A7.46,7.46,0,0,1,49.31,43.92Z"/><path d="M75,67.46a8.4,8.4,0,1,0-8.39-8.4A8.41,8.41,0,0,0,75,67.46Zm0-13.58a5.19,5.19,0,1,1-5.18,5.18A5.18,5.18,0,0,1,75,53.88Z"/><path d="M85.1,72.57c-5.69-2.79-13.55-3.09-19.74-.95V70.29l-.9-.43C56,65.74,44,65.74,35.54,69.86l-.9.43v1.33c-6.19-2.14-14-1.84-19.74.95L14,73V83.74H86V73Zm-50.46,8H17.21V75a24,24,0,0,1,17.43,0ZM62.15,73v7.52H37.85V72.32a32.42,32.42,0,0,1,24.3,0Zm20.64,7.52H65.36V75a24,24,0,0,1,17.43,0Z"/><path d="M25,67.46a8.4,8.4,0,1,0-8.4-8.4A8.4,8.4,0,0,0,25,67.46Zm0-13.58a5.19,5.19,0,1,1-5.19,5.18A5.18,5.18,0,0,1,25,53.88Z"/><path d="M70.84,43.92A13.83,13.83,0,1,1,84.67,30.09,13.84,13.84,0,0,1,70.84,43.92Zm0-24.67A10.84,10.84,0,1,0,81.68,30.09,10.85,10.85,0,0,0,70.84,19.25Z"/><polygon points="72.15 29.01 72.15 21.38 69.16 21.38 69.16 32.05 70.77 32.05 72.15 32.05 79.03 32.05 79.03 29.01 72.15 29.01"/></g></svg>