<?xml version="1.0" encoding="UTF-8"?>
<svg width="32px" height="32px" viewBox="0 0 32 32" version="1.1" xmlns="http://www.w3.org/2000/svg" xmlns:xlink="http://www.w3.org/1999/xlink">
    <!-- Generator: Sketch 50.2 (55047) - http://www.bohemiancoding.com/sketch -->
    <title>minimize-outline</title>
    <desc>Created with Sketch.</desc>
    <defs></defs>
    <g id="minimize" stroke="none" stroke-width="1" fill="none" fill-rule="evenodd">
        <path d="M10,0 L12,0 L12,12 L-2.48689958e-14,12 L-2.48689958e-14,10 L10,10 L10,0 Z M20,0 L22,0 L22,10 L32,10 L32,12 L20,12 L20,0 Z M20,20 L32,20 L32,22 L22,22 L22,32 L20,32 L20,20 Z M0,20 L12,20 L12,32 L10,32 L10,22 L0,22 L0,20 Z" id="Combined-Shape" fill="#212121"></path>
    </g>
</svg>