<svg xmlns="http://www.w3.org/2000/svg" xmlns:xlink="http://www.w3.org/1999/xlink" viewBox="0 0 100 100"><defs><style>.cls-1{fill:#fff;}.cls-2{mask:url(#mask);}.cls-3{mask:url(#mask-2-2);}.cls-4{mask:url(#mask-3);}</style><mask id="mask" x="21" y="14" width="58" height="72" maskUnits="userSpaceOnUse"><g id="mask-2"><polygon id="path-1" class="cls-1" points="79 50 79 86 21 86 21 50 21 14 79 14 79 50"/></g></mask><mask id="mask-2-2" x="20.75" y="31.48" width="58.5" height="72" maskUnits="userSpaceOnUse"><g id="mask-4"><polygon id="path-3" class="cls-1" points="79.25 31.48 20.75 31.48 20.75 103.48 79.25 103.48 79.25 31.48"/></g></mask><mask id="mask-3" x="20.75" y="35.48" width="58.5" height="72" maskUnits="userSpaceOnUse"><g id="mask-4-2" data-name="mask-4"><polygon id="path-3-2" data-name="path-3" class="cls-1" points="79.25 35.48 20.75 35.48 20.75 107.48 79.25 107.48 79.25 35.48"/></g></mask></defs><g id="Outline"><g id="Group-3"><g class="cls-2"><path id="Fill-1" d="M74.54,81.2c0,.2-.13.3-.19.3H25.65c-.06,0-.19-.1-.19-.3V18.8c0-.2.13-.3.19-.3h48.7c.06,0,.19.1.19.3ZM74.35,14H25.65A4.73,4.73,0,0,0,21,18.8V81.2A4.73,4.73,0,0,0,25.65,86h48.7A4.73,4.73,0,0,0,79,81.2V18.8A4.73,4.73,0,0,0,74.35,14Z"/></g></g><g class="cls-3"><polygon id="Fill-4" points="68 71.98 32 71.98 32 76.48 68 76.48 68 71.98"/></g><g class="cls-4"><polygon id="Fill-6" points="68 62.48 32 62.48 32 66.98 68 66.98 68 62.48"/></g><path d="M50,21.68,30.55,42.26h4.2V56.53h30.5V42.26h4.2Zm0,6.7L60.78,40.13V52.06H39.22V40.13Z"/></g></svg>