<svg xmlns="http://www.w3.org/2000/svg" viewBox="0 0 100 100"><defs><style>.cls-1{fill-rule:evenodd;}</style></defs><g id="Outline"><path id="Fill-1" d="M50,18,14,54.28H24.54L24.49,82H75.4l0-27.72H86Zm0,7.41L75.25,49.74H71v4.54l0,23.18H29L29,54.28V49.74l-4.27-.05Z"/><path class="cls-1" d="M59.37,59.94a7,7,0,0,0-1.67-4.8C56.62,54,54.62,53,51.76,52.2V45.92a3.41,3.41,0,0,1,1.66,2.42l0,.2,5.19-.63,0-.23a7.46,7.46,0,0,0-2.31-4.32,8.45,8.45,0,0,0-4.54-1.91V38.08h-3.5v3.38a8.08,8.08,0,0,0-4.86,2.26,6.84,6.84,0,0,0-2,5,7.42,7.42,0,0,0,1.75,5,10.5,10.5,0,0,0,5.1,2.93v6.7a5.13,5.13,0,0,1-1.19-1.07A5.49,5.49,0,0,1,46,59.89l0-.2-5.33.54,0,.23a9.31,9.31,0,0,0,2.64,5.46,9,9,0,0,0,5,2.26v3.25h3.5V68.1a9.26,9.26,0,0,0,5.51-2.68A7.71,7.71,0,0,0,59.37,59.94ZM47.1,50.08a2.59,2.59,0,0,1-.56-1.59,2.79,2.79,0,0,1,.61-1.73,3.19,3.19,0,0,1,1.11-.87V51A3.47,3.47,0,0,1,47.1,50.08Zm6.41,12.63a3.56,3.56,0,0,1-1.75,1V57.58a4.3,4.3,0,0,1,1.89,1.1,2.78,2.78,0,0,1,.68,1.89A3.15,3.15,0,0,1,53.51,62.71Z"/></g></svg>