<?xml version="1.0" encoding="UTF-8"?>
<svg width="32px" height="32px" viewBox="0 0 32 32" version="1.1" xmlns="http://www.w3.org/2000/svg" xmlns:xlink="http://www.w3.org/1999/xlink">
    <!-- Generator: Sketch 50.2 (55047) - http://www.bohemiancoding.com/sketch -->
    <title>move-outline</title>
    <desc>Created with Sketch.</desc>
    <defs></defs>
    <g id="move" stroke="none" stroke-width="1" fill="none" fill-rule="evenodd">
        <path d="M27.1377053,11.1377053 C26.7793729,10.7793729 26.1968531,10.7793729 25.8385207,11.1377053 C25.4801884,11.4960377 25.4801884,12.0785575 25.8385207,12.4368899 L28.4828299,15.081199 L16.918801,15.081199 L16.918801,3.51717009 L19.5649477,6.16331687 C19.7450327,6.34340186 19.9784082,6.43160675 20.2136212,6.43160675 C20.4488343,6.43160675 20.6840473,6.34340186 20.8641323,6.16331687 C21.2224647,5.8049845 21.2224647,5.22246468 20.8641323,4.86413231 L16,0 L11.1377053,4.86413231 C10.7793729,5.22246468 10.7793729,5.8049845 11.1377053,6.16331687 C11.4960377,6.52164925 12.0785575,6.52164925 12.4368899,6.16331687 L15.081199,3.51900769 L15.081199,15.081199 L3.51717009,15.081199 L6.16331687,12.4368899 C6.52164925,12.0785575 6.52164925,11.4960377 6.16331687,11.1377053 C5.8049845,10.7793729 5.22246468,10.7793729 4.86413231,11.1377053 L0,16 L4.86413231,20.8641323 C5.0442173,21.0442173 5.27759274,21.1324222 5.51280579,21.1324222 C5.74801884,21.1324222 5.98323188,21.0442173 6.16331687,20.8641323 C6.52164925,20.5057999 6.52164925,19.9232801 6.16331687,19.5649477 L3.51717009,16.918801 L15.081199,16.918801 L15.081199,28.4828299 L12.4368899,25.8385207 C12.0785575,25.4801884 11.4960377,25.4801884 11.1377053,25.8385207 C10.7793729,26.1968531 10.7793729,26.7793729 11.1377053,27.1377053 L16,32.0018376 L20.8641323,27.1377053 C21.2224647,26.7793729 21.2224647,26.1968531 20.8641323,25.8385207 C20.5057999,25.4801884 19.9232801,25.4801884 19.5649477,25.8385207 L16.918801,28.4846675 L16.918801,16.918801 L28.4828299,16.918801 L25.8385207,19.5649477 C25.4801884,19.9232801 25.4801884,20.5057999 25.8385207,20.8641323 C26.0186057,21.0442173 26.2538188,21.1324222 26.4871942,21.1324222 C26.7224073,21.1324222 26.9576203,21.0442173 27.1377053,20.8641323 L32,16 L27.1377053,11.1377053 Z" id="Fill-1" fill="#212121"></path>
    </g>
</svg>