<svg xmlns="http://www.w3.org/2000/svg" viewBox="0 0 100 100"><g id="Outline"><path d="M58.78,51.15a3.44,3.44,0,0,1,3.44,3.44V74.11h13.4L76,25.89H51.89V51.15Zm8.61-20.09h3.44V34.5H67.39Zm0,13.77h3.44v3.45H67.39ZM57.06,31.06H60.5V34.5H57.06Zm0,13.77H60.5v3.45H57.06Z"/><path d="M32.94,65.88H29.5V62.44h3.44Zm0-12.24H29.5V50.19h3.44Zm0-11.49H29.5V38.71h3.44ZM43.28,69.33H39.83V62.44h3.45Zm0-15.69H39.83V50.19h3.45Zm0-11.49H39.83V38.71h3.45Z"/><rect x="66.74" y="62.44" width="3.44" height="6.89"/><path d="M79.06,74.11l.38-48.22A3.45,3.45,0,0,0,76,22.44H51.89a3.46,3.46,0,0,0-3.45,3.45V30.1H24.33a3.44,3.44,0,0,0-3.44,3.44V74.11H14v3.45H86V74.11Zm-27.17,0H24.33V33.54H48.44V54.59H58.78V74.11Zm23.73,0H62.22V54.59a3.44,3.44,0,0,0-3.44-3.44H51.89V25.89H76Z"/><rect x="67.39" y="44.83" width="3.44" height="3.44"/><rect x="67.39" y="31.06" width="3.44" height="3.44"/><rect x="57.06" y="44.83" width="3.44" height="3.44"/><rect x="57.06" y="31.06" width="3.44" height="3.44"/><rect x="39.83" y="38.71" width="3.44" height="3.44"/><rect x="39.83" y="50.19" width="3.44" height="3.44"/><rect x="29.5" y="50.19" width="3.44" height="3.44"/><rect x="39.83" y="62.44" width="3.44" height="6.89"/><rect x="29.5" y="38.71" width="3.44" height="3.44"/><rect x="29.5" y="62.44" width="3.44" height="3.44"/><rect x="49.34" y="62.44" width="3.44" height="3.44"/><rect x="66.74" y="62.44" width="3.44" height="6.89"/></g></svg>