<?xml version="1.0" encoding="UTF-8"?>
<svg width="32px" height="32px" viewBox="0 0 32 32" version="1.1" xmlns="http://www.w3.org/2000/svg" xmlns:xlink="http://www.w3.org/1999/xlink">
    <!-- Generator: Sketch 53.2 (72643) - https://sketchapp.com -->
    <title>network-outline-fill</title>
    <desc>Created with Sketch.</desc>
    <g id="network-outline" stroke="none" stroke-width="1" fill="none" fill-rule="evenodd">
        <path d="M23.0607008,8.07963021 L9.82240283,14.6744708 C9.93817615,15.0966248 10,15.5410925 10,16 C10,16.4382816 9.94360869,16.8633922 9.83768584,17.2684722 L23.0697746,23.9088142 C23.9853705,22.7463469 25.4055259,22 27,22 C29.7614237,22 32,24.2385763 32,27 C32,29.7614237 29.7614237,32 27,32 C24.2385763,32 22,29.7614237 22,27 C22,26.5488431 22.0597532,26.1116424 22.1717772,25.6958799 L8.95290578,19.0621708 C8.03817635,20.2412207 6.60769937,21 5,21 C2.23857625,21 0,18.7614237 0,16 C0,13.2385763 2.23857625,11 5,11 C6.58648454,11 8.00039299,11.7388861 8.91637073,12.8913035 L22.1679752,6.28992571 C22.0584016,5.87841045 22,5.44602544 22,5 C22,2.23857625 24.2385763,0 27,0 C29.7614237,0 32,2.23857625 32,5 C32,7.76142375 29.7614237,10 27,10 C25.4002494,10 23.9759731,9.24870526 23.0607559,8.07970062 Z M27,8 C28.6568542,8 30,6.65685425 30,5 C30,3.34314575 28.6568542,2 27,2 C25.3431458,2 24,3.34314575 24,5 C24,6.65685425 25.3431458,8 27,8 Z M5,19 C6.65685425,19 8,17.6568542 8,16 C8,14.3431458 6.65685425,13 5,13 C3.34314575,13 2,14.3431458 2,16 C2,17.6568542 3.34314575,19 5,19 Z M27,30 C28.6568542,30 30,28.6568542 30,27 C30,25.3431458 28.6568542,24 27,24 C25.3431458,24 24,25.3431458 24,27 C24,28.6568542 25.3431458,30 27,30 Z" id="Icon/Network/Outline" fill="#212121" fill-rule="nonzero"></path>
    </g>
</svg>