<svg xmlns="http://www.w3.org/2000/svg" viewBox="0 0 100 100"><g id="Outline"><path d="M23.27,18.05a33.28,33.28,0,0,0,0,46.09l2.65-2.64a29.62,29.62,0,0,1,0-40.8Z"/><path d="M30.82,23.59a25.63,25.63,0,0,0,0,35L33.46,56a21.74,21.74,0,0,1,0-29.72Z"/><path d="M38.36,29.45a17.12,17.12,0,0,0,0,23.3L41,50.1a13.4,13.4,0,0,1,0-18Z"/><path d="M74.08,61.5l2.65,2.64a33.28,33.28,0,0,0,0-46.09L74.08,20.7A29.62,29.62,0,0,1,74.08,61.5Z"/><path d="M66.54,56l2.64,2.64a25.63,25.63,0,0,0,0-35l-2.64,2.65A21.74,21.74,0,0,1,66.54,56Z"/><path d="M59,50.1l2.65,2.65a17.14,17.14,0,0,0,0-23.3L59,32.1A13.4,13.4,0,0,1,59,50.1Z"/><path d="M20.74,82H82.23V78.8H64.06V77.7H52V45.53l.21-.12a4.23,4.23,0,1,0-4.24,0l.21.12V77.7H37.08v1.1H20.74Z"/></g></svg>