<svg xmlns="http://www.w3.org/2000/svg" viewBox="0 0 100 100"><g id="Outline"><path d="M76.43,26.14V14H14V79.07A6.94,6.94,0,0,0,20.93,86H79.07A6.94,6.94,0,0,0,86,79.07V26.14Zm5.28,4.29V79.07a2.64,2.64,0,0,1-5.28,0V30.43ZM18.29,18.29H72.15V79.07a7,7,0,0,0,.52,2.64H20.93a2.64,2.64,0,0,1-2.64-2.64Z"/><rect x="22.67" y="29.01" width="45.09" height="3.99"/><rect x="22.67" y="38.82" width="20.59" height="3.99"/><rect x="22.67" y="48.62" width="20.59" height="3.99"/><rect x="22.67" y="58.43" width="20.59" height="3.99"/><rect x="22.67" y="68.24" width="20.59" height="3.99"/><path d="M49.17,38.67V72.72H68v-34Zm15.36,31H52.66V41.74H64.53Z"/></g></svg>