<svg xmlns="http://www.w3.org/2000/svg" viewBox="0 0 100 100"><g id="Outline"><path d="M37.46,14.15V37a25.83,25.83,0,0,0-16.3,7.1A24.45,24.45,0,0,0,38.45,85.85a24.22,24.22,0,0,0,17.29-7,25.8,25.8,0,0,0,7.1-16.15H70.2L85.89,45.26l.11-.12v-31Zm43,31.37-9.73,11.9V45.52ZM82.3,17.86V42.77H67V59H62.8A25.15,25.15,0,0,0,56,44a25.49,25.49,0,0,0-14.86-6.9V17.86ZM53,76a20.61,20.61,0,1,1,0-29.13A20.46,20.46,0,0,1,53,76Z"/><polygon points="40.21 47.54 36.51 47.54 36.51 59.94 24.11 59.94 24.11 63.64 36.51 63.64 36.51 75.09 40.21 75.09 40.21 63.64 51.66 63.64 51.66 59.94 40.21 59.94 40.21 47.54"/></g></svg>