<svg xmlns="http://www.w3.org/2000/svg" xmlns:xlink="http://www.w3.org/1999/xlink" viewBox="0 0 100 100"><defs><style>.cls-1{fill:#fff;}.cls-2{mask:url(#mask);}.cls-3{mask:url(#mask-3);}.cls-4{mask:url(#mask-4-4);}</style><mask id="mask" x="21.59" y="14" width="65.81" height="72" maskUnits="userSpaceOnUse"><g id="mask-4"><polygon id="path-3" class="cls-1" points="21.59 86 87.41 86 87.41 14 21.59 14 21.59 86"/></g></mask><mask id="mask-3" x="21.59" y="27.64" width="65.81" height="72" maskUnits="userSpaceOnUse"><g id="mask-4-3" data-name="mask-4"><polygon id="path-3-3" data-name="path-3" class="cls-1" points="21.59 99.64 87.41 99.64 87.41 27.64 21.59 27.64 21.59 99.64"/></g></mask><mask id="mask-4-4" x="8.94" y="14" width="131.62" height="72" maskUnits="userSpaceOnUse"><g id="mask-4-5" data-name="mask-4"><polygon id="path-3-4" data-name="path-3" class="cls-1" points="8.94 86 140.56 86 140.56 14 8.94 14 8.94 86"/></g></mask></defs><g id="Outline"><path d="M23,23.75H14v4.5h9V47.58H14v4.55h9V71.69H14v4.5h9V86H81.5A4.51,4.51,0,0,0,86,81.5v-63A4.51,4.51,0,0,0,81.5,14H23ZM81.5,18.5v63h-54v-63Z"/><g class="cls-2"><polygon id="Fill-4" points="34.25 45.5 74.75 45.5 74.75 41 34.25 41 34.25 45.5"/></g><g class="cls-2"><polygon id="Fill-6" points="34.25 59 74.75 59 74.75 54.5 34.25 54.5 34.25 59"/></g><g class="cls-3"><polygon id="Fill-6-2" data-name="Fill-6" points="34.25 72.64 74.75 72.64 74.75 68.14 34.25 68.14 34.25 72.64"/></g><g class="cls-4"><polygon id="Fill-7" points="34.25 32 74.75 32 74.75 27.5 34.25 27.5 34.25 32"/></g></g></svg>