<?xml version="1.0" encoding="UTF-8"?>
<svg width="32px" height="32px" viewBox="0 0 32 32" version="1.1" xmlns="http://www.w3.org/2000/svg" xmlns:xlink="http://www.w3.org/1999/xlink">
    <!-- Generator: Sketch 50.2 (55047) - http://www.bohemiancoding.com/sketch -->
    <title>notification-outline</title>
    <desc>Created with Sketch.</desc>
    <defs></defs>
    <g id="notification" stroke="none" stroke-width="1" fill="none" fill-rule="evenodd">
        <path d="M32,21.5346667 L32,26.9986667 L0,26.9986667 L0,21.5346667 L3.59466667,19.9 L6.72266667,9.81466667 C7.24,8.14266667 8.78666667,7.00266667 10.5373333,7 L21.464,7 C23.2133333,7.00266667 24.76,8.14266667 25.2773333,9.81466667 L28.4053333,19.9 L32,21.5346667 Z M30,24.9986667 L30,22.8226667 L27.5773333,21.72 L26.76,21.3493333 L26.4946667,20.492 L23.368,10.408 C23.1066667,9.56533333 22.3386667,9 21.4573333,9 L10.5426667,9 C9.66133333,9 8.89333333,9.56533333 8.632,10.408 L5.50533333,20.492 L5.24,21.3493333 L4.42266667,21.72 L2,22.8226667 L2,24.9986667 L30,24.9986667 Z M21.7088,29 C20.2656,30.2384 18.408,31 16.3552,31 C14.3024,31 12.4448,30.2384 11,29 L21.7088,29 Z M11,6 C11,3.23857625 13.2385763,1 16,1 C18.7614237,1 21,3.23857625 21,6 L19,6 C19,4.34314575 17.6568542,3 16,3 C14.3431458,3 13,4.34314575 13,6 L11,6 Z" id="Combined-Shape" fill="#212121"></path>
    </g>
</svg>