<svg xmlns="http://www.w3.org/2000/svg" viewBox="0 0 100 100"><g id="Outline"><path d="M68,32.81a2.24,2.24,0,0,0-2,1.21L53,59.14A19.86,19.86,0,0,0,33.85,44.41h-.12l30-24H86V15.88H62.9a2.27,2.27,0,0,0-1.41.5S22,48.17,21.88,48.46A19.84,19.84,0,1,0,53.27,68.38L69.4,37.3H86V32.81ZM33.85,79.65A15.39,15.39,0,1,1,49.24,64.26,15.39,15.39,0,0,1,33.85,79.65Z"/><path d="M33.85,55.84a8.42,8.42,0,1,0,8.43,8.42A8.43,8.43,0,0,0,33.85,55.84Z"/><path d="M34.05,54.48a2.27,2.27,0,0,0,1.51-.79,2.16,2.16,0,0,0,.51-1.63,2.22,2.22,0,0,0-2.21-2h-.2a2.24,2.24,0,0,0-2,2.41,2.24,2.24,0,0,0,2.22,2Z"/><path d="M33.85,74a2.23,2.23,0,1,0,2.23,2.23A2.22,2.22,0,0,0,33.85,74Z"/><path d="M21.85,62a2.23,2.23,0,1,0,2.22,2.23A2.23,2.23,0,0,0,21.85,62Z"/><path d="M45.86,66.49a2.23,2.23,0,1,0-2.23-2.23A2.23,2.23,0,0,0,45.86,66.49Z"/><path d="M26.94,57.35a2.23,2.23,0,0,0,0-3.15,2.2,2.2,0,0,0-1.58-.65,2.18,2.18,0,0,0-1.57.65,2.23,2.23,0,1,0,3.15,3.15Z"/><path d="M42.34,70.53a2.18,2.18,0,0,0-1.57.65,2.23,2.23,0,1,0,3.15,0A2.18,2.18,0,0,0,42.34,70.53Z"/><path d="M25.36,70.53a2.18,2.18,0,0,0-1.57.65,2.23,2.23,0,1,0,3.15,0A2.2,2.2,0,0,0,25.36,70.53Z"/><path d="M43.92,57.35a2.23,2.23,0,0,0,0-3.15,2.23,2.23,0,0,0-3.15,0,2.23,2.23,0,1,0,3.15,3.15Z"/></g></svg>