<svg xmlns="http://www.w3.org/2000/svg" viewBox="0 0 100 100"><g id="Outline"><path d="M69.93,23V18.19a4.13,4.13,0,0,0-4.12-4.12L53.18,14a4.13,4.13,0,0,0-4.12,4.12v4.17H33.12c-6.51,0-11.91,5-12,11.17l.2,52.47L77.88,86l.19-52.53A11.47,11.47,0,0,0,69.93,23ZM53.58,18.51l11.84.07v3.79l-11.84-.08ZM49.3,32.9H37.48V27.19H49.3ZM37.48,81.45V76H49.3v5.47Zm0-9.6v-5.6H49.3v5.6Zm0-9.74v-5.6H49.3v5.6Zm0-9.74v-5.6H49.3v5.6Zm0-9.73V37H49.3v5.61ZM25.6,33.48c.08-3.69,3.45-6.7,7.52-6.7h.33V81.45H25.77Zm47.78,48-20-.07V26.8L66,26.87c4.07,0,7.45,3,7.53,6.65Z"/></g></svg>