<svg xmlns="http://www.w3.org/2000/svg" viewBox="0 0 100 100"><g id="Outline"><path d="M49.94,52.25,69.25,32.89V43.57a2.25,2.25,0,0,0,4.5,0V25.25H55.43a2.25,2.25,0,0,0,0,4.5H66.07L46.75,49.1Z"/><path d="M31,14a6,6,0,0,0-6,6v6H19a6,6,0,0,0-6,6V80a6,6,0,0,0,6,6H67a6,6,0,0,0,6-6V74h6a6,6,0,0,0,6-6V14ZM68.5,80A1.5,1.5,0,0,1,67,81.5H19A1.5,1.5,0,0,1,17.5,80V32A1.5,1.5,0,0,1,19,30.5h6V68a6,6,0,0,0,6,6H68.5Zm12-12A1.5,1.5,0,0,1,79,69.5H31A1.5,1.5,0,0,1,29.5,68V20A1.5,1.5,0,0,1,31,18.5H80.5Z"/></g></svg>