<svg xmlns="http://www.w3.org/2000/svg" viewBox="0 0 100 100"><g id="Outline"><path d="M85.62,25.85a2.24,2.24,0,0,0-2-.85L78.8,26l-9.63,2L55.34,31,35.65,35.13C28.26,36.69,22.06,38,15.79,39.41l-.13,0a2.34,2.34,0,0,0-1.66,2,2.66,2.66,0,0,0,1.45,2.42c5.67,3,11.45,6.19,17.66,9.6a1.91,1.91,0,0,1,.8.8l.42,2.26c3.33,17.95,3.48,18,4.18,18.32s.75.32,6.27-3.25c2.65-1.71,5.92-3.9,7.95-5.31.47-.33.55-.33,1,0,3.16,2.17,6.41,4.31,9.55,6.38l2.27,1.5a4,4,0,0,0,2.06.84,1.81,1.81,0,0,0,.55-.09c.88-.3,1.3-1.27,1.61-2.14l14.07-39,.49-1.36c.5-1.35,1-2.7,1.45-4.07A2.63,2.63,0,0,0,85.62,25.85ZM43.2,67.54l2-6.89,4.08,2.72Zm25.72-35-7.58,4Q48.88,43.09,36.41,49.64a1,1,0,0,1-1.14,0c-3.53-1.94-7.07-3.85-10.62-5.76L22,42.5ZM38.68,53.39q7.8-4.14,15.64-8.23L58.44,43l2.76-1.44-3.72,2.8q-7,5.27-14,10.57a5.5,5.5,0,0,0-1.74,2.49c-.66,2-1.26,4-1.84,5.95-.58-3.3-1.13-6.44-1.62-9.58A1.42,1.42,0,0,1,38.68,53.39Zm27.73,16.1L47.78,57.1,79.43,33.27Z"/></g></svg>