<svg xmlns="http://www.w3.org/2000/svg" viewBox="0 0 100 100"><g id="Outline"><path d="M38.11,84.09V72.55h6.65a13.33,13.33,0,0,0,10.58-5.24V84.24h3.94V66.85h9l.79,0a17,17,0,0,0,5.35-33.1q0-.51,0-1a17,17,0,1,0-34,0,5.54,5.54,0,0,0,.1,1A13.25,13.25,0,0,0,36.07,33,13.39,13.39,0,0,0,22.69,46.33c0,.11,0,.22,0,.32a13.38,13.38,0,0,0,4,25.9h.13a10.84,10.84,0,0,0,1.14,0h5.91V84.09Zm6.65-15.77h-17c-.28,0-.51,0-.9,0a9.13,9.13,0,0,1-1.48-18l2-.43-.33-2a8.56,8.56,0,0,1-.13-1.51,9.13,9.13,0,0,1,18.26,0,9.61,9.61,0,0,1-.12,1.51l-.33,2,2,.43a9.14,9.14,0,0,1-2,18.06ZM69,62.93l-.7,0H57.6a13.09,13.09,0,0,0,.54-3.73,13.47,13.47,0,0,0-8.69-12.53v-.32a13.35,13.35,0,0,0-4.68-10.14l-.21-1.29a13,13,0,1,1,25.72,0L70,36.75l1.84.4A13,13,0,0,1,69,62.93Z"/></g></svg>