<?xml version="1.0" encoding="UTF-8"?>
<svg width="32px" height="32px" viewBox="0 0 32 32" version="1.1" xmlns="http://www.w3.org/2000/svg" xmlns:xlink="http://www.w3.org/1999/xlink">
    <!-- Generator: Sketch 53.2 (72643) - https://sketchapp.com -->
    <title>partership-outline-fill</title>
    <desc>Created with Sketch.</desc>
    <g id="partership-outline" stroke="none" stroke-width="1" fill="none" fill-rule="evenodd">
        <path d="M23.3866667,15.0011447 C26.1843207,14.9688274 28.9470021,15.6212388 31.4311111,16.9008525 L32,17.2101072 L32,30 L0,30 L0,17.1217487 L0.577777778,16.8301657 C3.02921595,15.598993 5.74248949,14.9716938 8.48888889,15.0011447 C11.0607969,14.9797407 13.6052634,15.527551 15.9377778,16.6048515 C18.2705299,15.5282546 20.814835,14.9804791 23.3866667,15.0011447 Z M2.10666667,27.8131271 L14.8933333,27.8131271 L14.8933333,18.5354847 C12.8780874,17.6445756 10.6943786,17.1926646 8.48888889,17.2101072 C6.29089358,17.1959503 4.11512118,17.6477866 2.10666667,18.5354847 L2.10666667,27.8131271 Z M29.8933333,27.8131271 L29.8933333,18.5708281 C25.8261737,16.7907074 21.2007371,16.7555484 17.1066667,18.4736337 L17.1066667,27.8131271 L29.8933333,27.8131271 Z M23.9979417,14 C20.6922813,14 18,11.3064411 18,8 C18,4.69355888 20.6675815,2 23.9979417,2 C27.3283019,2 30,4.68965517 30,8 C30,11.3103448 27.2912521,14 23.9979417,14 Z M23.9979417,3.95185426 C21.704286,4.015662 19.895935,5.82467904 19.9512864,8 C19.8684199,9.42224683 20.6214654,10.771409 21.9082946,11.5061909 C23.1951237,12.2409728 24.8048763,12.2409728 26.0917054,11.5061909 C27.3785346,10.771409 28.1315801,9.42224683 28.0487136,8 C28.1040373,5.82319931 26.2932214,4.01355736 23.9979417,3.95185426 Z M8,14 C4.69135802,14 2,11.3064411 2,8 C2,4.69355888 4.69135802,2 8,2 C11.308642,2 14,4.68965517 14,8 C14,11.3103448 11.2921811,14 8,14 Z M8,3.95185426 C5.70713085,4.015662 3.89940002,5.82467904 3.95473251,8 C3.89712131,10.176152 5.70613431,11.9864521 8,12.0481457 C10.2938657,11.9864521 12.1028787,10.176152 12.0452675,8 C12.1006,5.82467904 10.2928692,4.015662 8,3.95185426 Z" id="Combined-Shape" fill="#2D2D2D" fill-rule="nonzero"></path>
    </g>
</svg>