<svg xmlns="http://www.w3.org/2000/svg" viewBox="0 0 100 100"><g id="Outline"><path d="M31.63,50.77a8.82,8.82,0,1,0-8.82,8.81A8.83,8.83,0,0,0,31.63,50.77Zm-4.64,0a4.18,4.18,0,1,1-4.18-4.18A4.18,4.18,0,0,1,27,50.77Z"/><path d="M58.81,50.77A8.81,8.81,0,1,0,50,59.58,8.83,8.83,0,0,0,58.81,50.77Zm-4.63,0A4.18,4.18,0,1,1,50,46.59,4.18,4.18,0,0,1,54.18,50.77Z"/><path d="M77.18,42A8.82,8.82,0,1,0,86,50.77,8.83,8.83,0,0,0,77.18,42Zm4.18,8.82a4.18,4.18,0,1,1-4.18-4.18A4.18,4.18,0,0,1,81.36,50.77Z"/><path d="M35.11,67.07a8.82,8.82,0,1,0,8.82,8.81A8.83,8.83,0,0,0,35.11,67.07Zm4.17,8.81a4.17,4.17,0,1,1-4.17-4.17A4.18,4.18,0,0,1,39.28,75.88Z"/><path d="M62.29,67.07a8.82,8.82,0,1,0,8.82,8.81A8.82,8.82,0,0,0,62.29,67.07Zm4.18,8.81a4.18,4.18,0,1,1-4.18-4.17A4.18,4.18,0,0,1,66.47,75.88Z"/><path d="M35.11,34.93a8.82,8.82,0,1,0-8.82-8.81A8.83,8.83,0,0,0,35.11,34.93Zm-4.17-8.81a4.17,4.17,0,1,1,4.17,4.17A4.18,4.18,0,0,1,30.94,26.12Z"/><path d="M62.29,34.93a8.82,8.82,0,1,0-8.81-8.81A8.82,8.82,0,0,0,62.29,34.93Zm-4.17-8.81a4.18,4.18,0,1,1,4.17,4.17A4.18,4.18,0,0,1,58.12,26.12Z"/></g></svg>