<svg xmlns="http://www.w3.org/2000/svg" viewBox="0 0 100 100"><defs><style>.cls-1{fill-rule:evenodd;}</style></defs><g id="Outline"><path d="M70.25,23V14h-4.5v9H34.25V14h-4.5v9H18.5V81.5A4.51,4.51,0,0,0,23,86H77a4.51,4.51,0,0,0,4.5-4.5V23ZM77,81.5H23V41H77Zm0-45H23v-9H77Z"/><path class="cls-1" d="M59.37,66.43a7,7,0,0,0-1.67-4.79c-1.08-1.2-3.08-2.19-5.94-3V52.42a3.37,3.37,0,0,1,1.66,2.41l0,.21,5.19-.64,0-.23a7.4,7.4,0,0,0-2.31-4.31,8.39,8.39,0,0,0-4.54-1.92V44.57h-3.5V48a8.08,8.08,0,0,0-4.86,2.26,6.83,6.83,0,0,0-2,5,7.42,7.42,0,0,0,1.75,5,10.35,10.35,0,0,0,5.1,2.93v6.71A5.22,5.22,0,0,1,46,66.39l0-.2-5.33.53,0,.24a9.34,9.34,0,0,0,2.64,5.46,9.08,9.08,0,0,0,5,2.25v3.26h3.5V74.6a9.32,9.32,0,0,0,5.51-2.68A7.72,7.72,0,0,0,59.37,66.43ZM47.1,56.58a2.62,2.62,0,0,1-.56-1.6,2.76,2.76,0,0,1,.61-1.72,3.1,3.1,0,0,1,1.11-.88v5.13A3.45,3.45,0,0,1,47.1,56.58ZM53.51,69.2a3.56,3.56,0,0,1-1.75,1V64.07a4.21,4.21,0,0,1,1.89,1.11,2.75,2.75,0,0,1,.68,1.88A3.11,3.11,0,0,1,53.51,69.2Z"/></g></svg>