<?xml version="1.0" encoding="UTF-8"?>
<svg width="32px" height="32px" viewBox="0 0 32 32" version="1.1" xmlns="http://www.w3.org/2000/svg" xmlns:xlink="http://www.w3.org/1999/xlink">
    <!-- Generator: Sketch 50.2 (55047) - http://www.bohemiancoding.com/sketch -->
    <title>pdf-outline</title>
    <desc>Created with Sketch.</desc>
    <defs></defs>
    <g id="pdf" stroke="none" stroke-width="1" fill="none" fill-rule="evenodd">
        <path d="M30,4 C31.104,4 32,4.896 32,6 L32,28 L0,28 L0,4 L30,4 Z M2,26 L30,26 L30,6 L2,6 L2,26 Z M7.86895217,17.2582418 L7.86895217,20 L6,20 L6,12 L9.07437103,12 C10.0291265,12 10.7866528,12.2417558 11.3469726,12.7252747 C11.9072925,13.2087936 12.1874482,13.8443184 12.1874482,14.6318681 C12.1874482,15.4194179 11.9072925,16.0540269 11.3469726,16.5357143 C10.7866528,17.0174017 10.0291265,17.2582418 9.07437103,17.2582418 L7.86895217,17.2582418 Z M7.86895217,15.8296703 L9.07437103,15.8296703 C9.47986563,15.8296703 9.78951142,15.7188656 10.0033177,15.4972527 C10.2171239,15.2756399 10.3240254,14.9908442 10.3240254,14.6428571 C10.3240254,14.287544 10.2180455,13.9963381 10.0060824,13.7692308 C9.7941193,13.5421234 9.48355195,13.4285714 9.07437103,13.4285714 L7.86895217,13.4285714 L7.86895217,15.8296703 Z M13.2214542,20 L13.2214542,12 L16.1686481,12 C17.1160309,12 17.9085767,12.3067735 18.5463091,12.9203297 C19.1840415,13.5338859 19.502903,14.320508 19.502903,15.2802198 L19.502903,16.7197802 C19.502903,17.683155 19.1840415,18.4706929 18.5463091,19.0824176 C17.9085767,19.6941423 17.1160309,20 16.1686481,20 L13.2214542,20 Z M15.0904064,13.4285714 L15.0904064,18.5714286 L16.1686481,18.5714286 C16.5925742,18.5714286 16.9418473,18.3992691 17.2164777,18.0549451 C17.4911082,17.710621 17.6284213,17.2655705 17.6284213,16.7197802 L17.6284213,15.2692308 C17.6284213,14.7307665 17.4911082,14.289379 17.2164777,13.9450549 C16.9418473,13.6007309 16.5925742,13.4285714 16.1686481,13.4285714 L15.0904064,13.4285714 Z M25.4359967,16.7802198 L22.4888029,16.7802198 L22.4888029,20 L20.6198507,20 L20.6198507,12 L26,12 L26,13.4285714 L22.4888029,13.4285714 L22.4888029,15.3516484 L25.4359967,15.3516484 L25.4359967,16.7802198 Z" id="Combined-Shape" fill="#333333"></path>
    </g>
</svg>