<?xml version="1.0" encoding="UTF-8"?>
<svg width="32px" height="32px" viewBox="0 0 32 32" version="1.1" xmlns="http://www.w3.org/2000/svg" xmlns:xlink="http://www.w3.org/1999/xlink">
    <!-- Generator: Sketch 50.2 (55047) - http://www.bohemiancoding.com/sketch -->
    <title>person-outline</title>
    <desc>Created with Sketch.</desc>
    <defs></defs>
    <g id="person" stroke="none" stroke-width="1" fill="none" fill-rule="evenodd">
        <path d="M16.0003759,18 C22.8096348,18 28.6869039,20.8078669 31.4215407,24.8668684 C32.8361919,26.9652042 31.4922066,30 29.164232,30 L2.83518649,30 C0.507211936,30 -0.835440054,26.9652042 0.57787783,24.8668684 C3.3125146,20.8078669 9.19111701,18 16.0003759,18 Z M16.0003759,20 C9.96749743,20 4.63733231,22.4209048 2.23669567,25.9841523 C1.67508435,26.8179698 2.19605643,28 2.83518649,28 L29.164232,28 C29.8038213,28 30.3249379,26.8180797 29.7628606,25.9843569 C27.361927,22.4206684 22.0329494,20 16.0003759,20 Z M15.5014065,14.001231 C12.187496,14.001231 9.5014065,11.3151416 9.5014065,8 C9.5014065,4.68608945 12.187496,2 15.5014065,2 C18.815317,2 21.5014065,4.68608945 21.5014065,8 C21.5014065,11.3151416 18.815317,14.001231 15.5014065,14.001231 Z M15.501421,4.00001448 C13.2951376,4.00001448 11.501421,5.79491667 11.501421,8.00001448 C11.501421,10.2062978 13.2951376,12.0012 15.501421,12.0012 C17.7077043,12.0012 19.501421,10.2062978 19.501421,8.00001448 C19.501421,5.79491667 17.7077043,4.00001448 15.501421,4.00001448 Z" id="Combined-Shape" fill="#212121"></path>
    </g>
</svg>