<?xml version="1.0" encoding="UTF-8"?>
<svg width="32px" height="32px" viewBox="0 0 32 32" version="1.1" xmlns="http://www.w3.org/2000/svg" xmlns:xlink="http://www.w3.org/1999/xlink">
    <!-- Generator: Sketch 50.2 (55047) - http://www.bohemiancoding.com/sketch -->
    <title>physician-outline</title>
    <desc>Created with Sketch.</desc>
    <defs></defs>
    <g id="physician" stroke="none" stroke-width="1" fill="none" fill-rule="evenodd">
        <path d="M20,22 L13.9291111,22 C13.4438815,25.3922941 10.5264719,28 7,28 C3.13400675,28 0,24.8659932 0,21 C0,17.1340068 3.13400675,14 7,14 C10.5264719,14 13.4438815,16.6077059 13.9291111,20 L20,20 L20,14.9450712 C15.5000495,14.4476269 12,10.6325537 12,6 L12,0 L19,0 L19,2 L14,2 L14,6 C14,9.86599325 17.1340068,13 21,13 C24.8659932,13 28,9.86599325 28,6 L28,2 L23,2 L23,0 L30,0 L30,6 C30,10.6325537 26.4999505,14.4476269 22,14.9450712 L22,20 L26,20 C29.3137085,20 32,22.6862915 32,26 C32,29.3137085 29.3137085,32 26,32 C22.6862915,32 20,29.3137085 20,26 L20,22 Z M22,22 L22,26 C22,28.209139 23.790861,30 26,30 C28.209139,30 30,28.209139 30,26 C30,23.790861 28.209139,22 26,22 L22,22 Z M7,26 C9.76142375,26 12,23.7614237 12,21 C12,18.2385763 9.76142375,16 7,16 C4.23857625,16 2,18.2385763 2,21 C2,23.7614237 4.23857625,26 7,26 Z M7,23 C5.8954305,23 5,22.1045695 5,21 C5,19.8954305 5.8954305,19 7,19 C8.1045695,19 9,19.8954305 9,21 C9,22.1045695 8.1045695,23 7,23 Z" id="Combined-Shape" fill="#212121" fill-rule="nonzero"></path>
    </g>
</svg>