<?xml version="1.0" encoding="UTF-8"?>
<svg width="32px" height="32px" viewBox="0 0 32 32" version="1.1" xmlns="http://www.w3.org/2000/svg" xmlns:xlink="http://www.w3.org/1999/xlink">
    <!-- Generator: Sketch 50.2 (55047) - http://www.bohemiancoding.com/sketch -->
    <title>pie-chart-outline</title>
    <desc>Created with Sketch.</desc>
    <defs></defs>
    <g id="pie-chart" stroke="none" stroke-width="1" fill="none" fill-rule="evenodd">
        <path d="M31.9559908,15.0031257 C31.9746614,15.2925193 31.9973328,15.5819129 32,15.8753074 L32,16.1313607 C31.9973328,16.4247552 31.9746614,16.7128152 31.9559908,17.0035424 C31.4372161,25.3732861 24.5037716,32.0066681 16.003334,32.0066681 C13.4121275,32.0066681 10.9729527,31.3772036 8.80850177,30.2836424 C8.21104397,29.9822463 7.62692228,29.6568452 7.07480725,29.2847677 C2.80725151,26.4108356 0,21.5351532 0,16.003334 C0,10.4715149 2.80725151,5.59583247 7.07480725,2.7219004 C7.35086476,2.53519483 7.641592,2.37116066 7.92965201,2.20179204 C8.21771202,2.03375703 8.50977287,1.87372369 8.80850177,1.72302563 C10.9742863,0.629464472 13.4121275,0 16.003334,0 C24.5037716,0 31.4372161,6.63338195 31.9559908,15.0031257 Z M16.003334,2.00041675 C13.7828714,2.00041675 11.6904355,2.53386122 9.82337987,3.45672015 L16.5781204,15.0031257 L29.9555741,15.0031257 C29.4394666,7.74828089 23.3862055,2.00041675 16.003334,2.00041675 Z M2.00041675,16.003334 C2.00041675,20.7896645 4.41692019,25.0198791 8.09235257,27.5457387 L14.8444259,16.003334 L8.09235257,4.46092936 C4.41692019,6.98678891 2.00041675,11.2170035 2.00041675,16.003334 Z M16.003334,30.0062513 C23.3875391,30.0062513 29.4394666,24.2583872 29.9555741,17.0035424 L16.5781204,17.0035424 L9.82337987,28.5499479 C11.6904355,29.4728068 13.7828714,30.0062513 16.003334,30.0062513 Z" id="Combined-Shape" fill="#212121"></path>
    </g>
</svg>