<svg xmlns="http://www.w3.org/2000/svg" viewBox="0 0 100 100"><g id="Outline"><path d="M80.4,81.62c-1.51-7.77-2.78-15.47-3.78-22.89l-.81-6.36c-.75-5.87-1.3-10.15-1.66-16.28h1.56v-10H49.85v10h1.42c-.4,6.87-1,11.77-1.92,18.48L49,57.28c-.67,5.2-1.49,10.55-2.42,15.92h-1.9L43.43,14.3H34.72L32.56,65.83l-1.3-38.61H22.58l-2.1,46H16.9v8.42H14V86.3H86V81.62ZM27.48,31.92l1.14,41.64H24.39L26.5,31.92ZM38.61,18.11h.44V18h.06v.12h.48l.82,55.7H36.17ZM21.34,81.36v-3.7H45.7L45,81.36ZM54,32.49V30H71.52v2.47Zm-3.4,42.89L51,73.53l.09-.58h0c.88-5.09,1.66-10.17,2.31-15.11l.32-2.44c.92-7,1.59-12,2-19.16h14c.36,6.28.92,10.64,1.69,16.62L72.2,59c1,7.21,2.2,14.68,3.68,22.24H49.54C49.92,79.29,50.29,77.31,50.64,75.38Z"/></g></svg>