<svg xmlns="http://www.w3.org/2000/svg" viewBox="0 0 100 100"><defs><style>.cls-1{fill-rule:evenodd;}</style></defs><g id="Outline"><path class="cls-1" d="M46.67,49.79V35.63h6.69V49.79ZM68.14,25.44H31.86a7.15,7.15,0,0,0-5.78,2.37l-10,10.44a7.45,7.45,0,0,0-1.68,2.51A6.59,6.59,0,0,0,14,43.3V63.92A10.66,10.66,0,0,0,24.64,74.56H75.37A10.66,10.66,0,0,0,86,63.92V43.3a6.59,6.59,0,0,0-.42-2.54,7.45,7.45,0,0,0-1.68-2.51l-10-10.44a7.15,7.15,0,0,0-5.78-2.37Zm0,4.35H31.86a2.86,2.86,0,0,0-2.59,1l-10,10.47a3.37,3.37,0,0,0-.78,1.07,2.89,2.89,0,0,0-.12,1V63.92a6.31,6.31,0,0,0,6.29,6.29H75.37a6.31,6.31,0,0,0,6.28-6.29V43.3a2.89,2.89,0,0,0-.12-1,3.37,3.37,0,0,0-.78-1.07l-10-10.47a2.85,2.85,0,0,0-2.59-1ZM72,63.37h-7V49.21h7V63.37ZM28,63.37V49.21h6.41V63.37Z"/></g></svg>