<?xml version="1.0" encoding="UTF-8"?>
<svg width="32px" height="32px" viewBox="0 0 32 32" version="1.1" xmlns="http://www.w3.org/2000/svg" xmlns:xlink="http://www.w3.org/1999/xlink">
    <!-- Generator: Sketch 50.2 (55047) - http://www.bohemiancoding.com/sketch -->
    <title>ppt-outline</title>
    <desc>Created with Sketch.</desc>
    <defs></defs>
    <g id="ppt" stroke="none" stroke-width="1" fill="none" fill-rule="evenodd">
        <path d="M30,4 C31.104,4 32,4.896 32,6 L32,28 L0,28 L0,4 L30,4 Z M2,26 L30,26 L30,6 L2,6 L2,26 Z M7.86482759,17.2582418 L7.86482759,20 L6,20 L6,12 L9.06758621,12 C10.0202346,12 10.7760892,12.2417558 11.3351724,12.7252747 C11.8942557,13.2087936 12.1737931,13.8443184 12.1737931,14.6318681 C12.1737931,15.4194179 11.8942557,16.0540269 11.3351724,16.5357143 C10.7760892,17.0174017 10.0202346,17.2582418 9.06758621,17.2582418 L7.86482759,17.2582418 Z M7.86482759,15.8296703 L9.06758621,15.8296703 C9.47218593,15.8296703 9.78114836,15.7188656 9.99448276,15.4972527 C10.2078172,15.2756399 10.3144828,14.9908442 10.3144828,14.6428571 C10.3144828,14.287544 10.2087367,13.9963381 9.99724138,13.7692308 C9.78574607,13.5421234 9.47586411,13.4285714 9.06758621,13.4285714 L7.86482759,13.4285714 L7.86482759,15.8296703 Z M15.0703448,17.2582418 L15.0703448,20 L13.2055172,20 L13.2055172,12 L16.2731034,12 C17.2257519,12 17.9816064,12.2417558 18.5406897,12.7252747 C19.0997729,13.2087936 19.3793103,13.8443184 19.3793103,14.6318681 C19.3793103,15.4194179 19.0997729,16.0540269 18.5406897,16.5357143 C17.9816064,17.0174017 17.2257519,17.2582418 16.2731034,17.2582418 L15.0703448,17.2582418 Z M15.0703448,15.8296703 L16.2731034,15.8296703 C16.6777032,15.8296703 16.9866656,15.7188656 17.2,15.4972527 C17.4133344,15.2756399 17.52,14.9908442 17.52,14.6428571 C17.52,14.287544 17.4142539,13.9963381 17.2027586,13.7692308 C16.9912633,13.5421234 16.6813814,13.4285714 16.2731034,13.4285714 L15.0703448,13.4285714 L15.0703448,15.8296703 Z M26,13.4285714 L23.8758621,13.4285714 L23.8758621,20 L22.0110345,20 L22.0110345,13.4285714 L19.9255172,13.4285714 L19.9255172,12 L26,12 L26,13.4285714 Z" id="Combined-Shape" fill="#212121"></path>
    </g>
</svg>