<svg xmlns="http://www.w3.org/2000/svg" viewBox="0 0 100 100"><g id="Outline"><path d="M61.93,51v-5.6c0-9.43-1.87-22.34-10.77-30.3L50,14,48.8,15c-8.87,8-10.71,20.88-10.71,30.32V51l-9.37,7V68.8H71.27V58ZM38.09,65.31H32.2v-5.6l5.89-4.39Zm20.38,0H51.78V51.83H48.3V65.3H41.55V45.36c0-8.27,1.5-19.4,8.45-26.59,6.94,7.18,8.45,18.3,8.45,26.59Zm9.35,0H61.93v-10l5.86,4.39Z"/><path d="M50,33.2a7.34,7.34,0,1,0,7.37,7.34A7.34,7.34,0,0,0,50,33.2Zm0,11.19a3.86,3.86,0,1,1,3.86-3.85A3.86,3.86,0,0,1,50,44.39Z"/><rect x="38.07" y="72.14" width="3.49" height="9.46"/><rect x="48.33" y="72.14" width="3.49" height="13.86"/><rect x="58.49" y="72.14" width="3.49" height="9.46"/><rect x="67.79" y="72.14" width="3.49" height="5"/><rect x="28.72" y="72.14" width="3.49" height="5"/></g></svg>