<?xml version="1.0" encoding="UTF-8"?>
<svg width="32px" height="32px" viewBox="0 0 32 32" version="1.1" xmlns="http://www.w3.org/2000/svg" xmlns:xlink="http://www.w3.org/1999/xlink">
    <!-- Generator: Sketch 53.2 (72643) - https://sketchapp.com -->
    <title>profitability-outline-fill</title>
    <desc>Created with Sketch.</desc>
    <g id="profitability-outline" stroke="none" stroke-width="1" fill="none" fill-rule="evenodd">
        <path d="M31.96,24.0355556 C32.1559759,25.0048848 31.6025045,25.9691805 30.6666667,26.2888889 L18.12,30.5155556 L17.9555556,30.5155556 C17.9555556,30.5155556 15.7688889,30.5688889 13.5466667,30.6133333 C12.4444444,30.6355556 11.3377778,30.6666667 10.5111111,30.6666667 L9.72888889,30.6666667 C9.10222222,30.6666667 8.68,30.6488889 8.39555556,30.4355556 C7.28888889,30.0533333 3.27555556,28.84 0.795555556,28.1022222 L2.30926389e-14,27.8622222 L2.30926389e-14,15.5555556 L9.87111111,18.2044444 L11.2711111,19.2933333 L20.3333333,20.3422222 C21.2516435,20.4390819 21.9585604,21.1971697 21.9911111,22.12 C30.8222222,21.2088889 30.8222222,21.2177778 31.2666667,21.6044444 L31.3422222,21.6755556 L31.3777778,21.7688889 C31.6281546,22.5088534 31.8227728,23.2665271 31.96,24.0355556 Z M2.22222222,18.4577778 L2.23111111,26.2133333 C6.78666667,27.5466667 8.52,28.08 9.34222222,28.4355556 C10.1911111,28.4533333 14.76,28.3555556 17.7466667,28.2844444 L29.7466667,24.2488889 C29.6933333,23.9955556 29.6533333,23.7866667 29.6177778,23.6044444 C28,23.7466667 24.5866667,24.1111111 21.9422222,24.3688889 C21.7715726,25.4072218 20.8788832,26.1723841 19.8266667,26.1822222 L9.80444444,26.1822222 L9.80444444,23.96 L19.7733333,23.96 L19.7733333,22.5333333 L10.4088889,21.4444444 L8.88888889,20.2355556 L2.22222222,18.4577778 Z M15.9998851,11.9999998 C13.7947008,11.9999366 12.0055334,10.2151917 12.0000128,8.01001426 C11.9944922,5.80483686 13.7747012,4.01115606 15.9798575,4.0000518 C18.1850139,3.98894753 19.9831966,5.76460901 19.9998844,7.96973017 C20.0079431,9.03060504 19.594225,10.0512273 18.8497499,10.8070561 C18.1052747,11.5628849 17.0910307,11.9920019 16.0301554,11.9999998 L15.9998851,11.9999998 Z M15.9998851,6.05405481 C15.4788037,6.04760145 14.9775809,6.25371177 14.6117772,6.62486552 C13.8543479,7.38854739 13.8543479,8.62010213 14.6117772,9.383784 C14.9834436,9.74183649 15.4794819,9.94180192 15.9955608,9.94162175 C17.0709814,9.93210735 17.9357294,9.05381752 17.9285334,7.97837882 C17.9262448,7.46342724 17.7194835,6.97047648 17.3537358,6.60797269 C16.9879881,6.24546889 16.493215,6.04310728 15.9782635,6.04540616 L15.9998851,6.05405481 Z M4,15 L4,1 L29,1 L29,15 L4,15 Z M6,3 L6,13 L27,13 L27,3 L6,3 Z" id="Combined-Shape" fill="#2D2D2D" fill-rule="nonzero"></path>
    </g>
</svg>