<svg xmlns="http://www.w3.org/2000/svg" viewBox="0 0 100 100"><g id="Outline"><path d="M79.29,68.28H73.7a1.49,1.49,0,1,1,0-3h5.59a1.49,1.49,0,0,1,0,3Zm-53,0H20.72a1.49,1.49,0,1,1,0-3H26.3a1.49,1.49,0,1,1,0,3Zm55.41-3.73H18.29A4.2,4.2,0,0,1,14,60.26V41.61a4.2,4.2,0,0,1,4.29-4.29H53.05a11.76,11.76,0,0,1,20,0h8.63A4.19,4.19,0,0,1,86,41.61V60.26A4.2,4.2,0,0,1,81.71,64.55ZM18.29,40.3A1.31,1.31,0,0,0,17,41.61V60.26a1.31,1.31,0,0,0,1.31,1.31H81.71A1.31,1.31,0,0,0,83,60.26V41.61a1.31,1.31,0,0,0-1.31-1.31H74.35a11.74,11.74,0,1,1-23,3.17,13.16,13.16,0,0,1,.39-3.17ZM39.74,58H22a1.49,1.49,0,1,1,0-3H39.74a1.49,1.49,0,0,1,0,3ZM63.06,34.7a8.77,8.77,0,1,0,8.77,8.77A8.68,8.68,0,0,0,63.06,34.7ZM39.74,52.42H22a1.49,1.49,0,1,1,0-3H39.74a1.49,1.49,0,0,1,0,3Zm23.32-2.8a6.15,6.15,0,1,1,6.16-6.15A6.16,6.16,0,0,1,63.06,49.62Zm0-9.32a3.17,3.17,0,1,0,3.17,3.17A3.06,3.06,0,0,0,63.06,40.3ZM39.74,46.83H22a1.49,1.49,0,0,1,0-3H39.74a1.49,1.49,0,0,1,0,3Zm39.18-.94A1.49,1.49,0,1,1,80.4,44.4,1.34,1.34,0,0,1,78.92,45.89Z"/></g></svg>