<?xml version="1.0" encoding="UTF-8"?>
<svg width="32px" height="32px" viewBox="0 0 32 32" version="1.1" xmlns="http://www.w3.org/2000/svg" xmlns:xlink="http://www.w3.org/1999/xlink">
    <!-- Generator: Sketch 53.2 (72643) - https://sketchapp.com -->
    <title>purpose-outline-fill</title>
    <desc>Created with Sketch.</desc>
    <g id="purpose-outline" stroke="none" stroke-width="1" fill="none" fill-rule="evenodd">
        <path d="M16.3365988,16.3188856 L18.7092816,25.8854358 L19.45409,25.1361675 L20.8812676,23.7134498 L22.2950655,25.1361675 L26.3090026,29.1501046 L29.1410583,26.3091291 L25.1271211,22.295192 L23.7088633,20.8724743 L25.1271211,19.4497566 L25.8763894,18.7004883 L16.3365988,16.3188856 Z M13.5848219,13.5581888 L29.8011279,17.6033455 L26.5453789,20.8724743 L31.9731139,26.3135891 L26.3000827,32 L20.8812676,26.5588852 L17.598759,29.828014 L13.5848219,13.5581888 Z M14.280571,24.7080142 L14.7756233,26.6793033 C14.3120636,26.7308805 13.8460814,26.7576782 13.3796651,26.7595821 C5.99777356,26.7595128 0.0106306946,20.7809182 1.41379543e-05,13.3990343 C-0.0106024187,6.01715039 5.959319,0.0213593146 13.3411798,5.69153634e-05 C20.7230406,-0.0212454838 26.7274674,5.9399903 26.7594556,13.3218125 C26.7576705,13.8000982 26.7308743,14.2779633 26.6791768,14.7534501 L24.7212675,14.2628578 C24.7658668,13.9551226 24.7658668,13.6384676 24.7658668,13.3218125 C24.7658315,8.69804188 21.9781292,4.53041576 17.7045868,2.76517068 C13.4310443,0.999925598 8.51481011,1.98533549 5.2517125,5.26122454 C1.98861488,8.5371136 1.02244656,13.4571655 2.80439772,17.723769 C4.58634888,21.9903724 8.76484956,24.7617482 13.388585,24.7436937 C13.6784804,24.7436937 13.9817557,24.7080142 14.280571,24.7080142 Z M13.196808,20.3372827 L13.6874003,22.357631 L13.3662853,22.357631 C8.39420773,22.3576091 4.3621788,18.3295407 4.35727056,13.3574655 C4.35236233,8.38539033 8.37643072,4.34936927 13.3484986,4.33953087 C18.3205664,4.32969248 22.3605757,8.34975689 22.3753442,13.3218125 C22.3753442,13.4422307 22.3753442,13.5581888 22.3753442,13.678607 L20.3728356,13.1790948 C20.2962735,9.3415341 17.1517082,6.27697079 13.3134489,6.29930838 C9.47518952,6.32164598 6.36650581,9.42260144 6.33461446,13.2607933 C6.3027231,17.0989851 9.35944976,20.2511687 13.196808,20.3372827 Z" id="Combined-Shape" fill="#2D2D2D" fill-rule="nonzero"></path>
    </g>
</svg>