<svg xmlns="http://www.w3.org/2000/svg" viewBox="0 0 100 100"><g id="Outline"><path d="M81.48,29.77H86V14H70.24v4.52H81.48Z"/><path d="M14,29.77h4.52V18.52H29.76V14H14Z"/><path d="M14,86H29.76V81.48H18.52V70.24H14Z"/><path d="M70.24,86H86V70.24H81.48V81.48H70.24Z"/><path d="M43.85,56.15h4.52V51.63H43.85Z"/><path d="M33.47,56.15H38V51.63H33.47Z"/><path d="M43.85,66.53h4.52V62H43.85Z"/><path d="M33.47,66.53H38V62H33.47Z"/><path d="M38.66,61.34h4.51V56.83H38.66Z"/><path d="M33.47,45.77h14.9V30.87H33.47Zm10.38-4.52H38V35.39h5.87Z"/><path d="M54.23,45.77h14.9V30.87H54.23Zm10.38-4.52H58.75V35.39h5.86Z"/><path d="M54.23,66.53h14.9V51.63H54.23ZM64.61,62H58.75V56.15h5.86Z"/></g></svg>