<?xml version="1.0" encoding="UTF-8"?>
<svg width="32px" height="32px" viewBox="0 0 32 32" version="1.1" xmlns="http://www.w3.org/2000/svg" xmlns:xlink="http://www.w3.org/1999/xlink">
    <!-- Generator: Sketch 53.2 (72643) - https://sketchapp.com -->
    <title>radio-outline-fill</title>
    <desc>Created with Sketch.</desc>
    <g id="radio-outline" stroke="none" stroke-width="1" fill="none" fill-rule="evenodd">
        <path d="M16.0081421,7.07545662 C11.0767632,7.07545662 7.07909071,11.0710106 7.07909071,15.9997763 C7.07909071,20.9285419 11.0767632,24.9240959 16.0081421,24.9240959 C20.939521,24.9240959 24.9371934,20.9285419 24.9371934,15.9997763 C24.9298469,11.0740553 20.9364747,7.08279933 16.0081421,7.07545662 Z M16.0081421,22.5819065 C12.3710046,22.5819065 9.42252202,19.6349864 9.42252202,15.9997763 C9.42252202,12.3645662 12.3710046,9.4176461 16.0081421,9.4176461 C19.6452796,9.4176461 22.5937621,12.3645662 22.5937621,15.9997763 C22.5913094,19.6339705 19.6442632,22.5794551 16.0081421,22.5819065 Z M16.0081421,0 C9.71943222,0.00334731804 4.01522898,3.68649214 1.42703323,9.41487061 C-1.16116251,15.1432491 -0.153843067,21.8555808 4.00194751,26.5729618 L5.41601043,27.9862754 C11.4522233,33.3379082 20.5373805,33.3379082 26.5735933,27.9862754 L28.0143367,26.5729618 C32.1701272,21.8555808 33.1774467,15.1432491 30.5892509,9.41487061 C28.0010552,3.68649214 22.2968519,0.00334731804 16.0081421,0 Z M16.0081421,29.9995805 C8.27216422,29.9995805 2.00091508,23.7316547 2.00091508,15.9997763 C2.00091508,8.2678979 8.27216422,1.99997204 16.0081421,1.99997204 C23.7441199,1.99997204 30.0153691,8.2678979 30.0153691,15.9997763 C30.0080149,23.728608 23.7410717,29.9922302 16.0081421,29.9995805 Z" id="Shape" fill="#2D2D2D" fill-rule="nonzero"></path>
    </g>
</svg>