<?xml version="1.0" encoding="UTF-8"?>
<svg width="32px" height="32px" viewBox="0 0 32 32" version="1.1" xmlns="http://www.w3.org/2000/svg" xmlns:xlink="http://www.w3.org/1999/xlink">
    <!-- Generator: Sketch 50.2 (55047) - http://www.bohemiancoding.com/sketch -->
    <title>refresh-outline</title>
    <desc>Created with Sketch.</desc>
    <defs></defs>
    <g id="refresh" stroke="none" stroke-width="1" fill="none" fill-rule="evenodd">
        <path d="M7.652,9.48666667 L7.652,16.1746667 C7.652,22.3346667 12.6653333,27.348 18.8253333,27.348 C24.9866667,27.348 30,22.3346667 30,16.1746667 C30,10.0133333 24.9866667,5 18.8253333,5 L18.8253333,3 C26.0893333,3 32,8.91066667 32,16.1746667 C32,23.4373333 26.0893333,29.348 18.8253333,29.348 C11.5626667,29.348 5.652,23.4373333 5.652,16.1746667 L5.652,9.48666667 L5.652,9.48653333 L1.70666667,13.4318667 C1.316,13.8225333 0.682666667,13.8225333 0.292,13.4318667 C-0.0973333333,13.0412 -0.0973333333,12.4092 0.292,12.0185333 L6.652,5.65853333 L13.012,12.0185333 C13.4013333,12.4092 13.4013333,13.0412 13.012,13.4318667 C12.816,13.6278667 12.56,13.7252 12.304,13.7252 C12.048,13.7252 11.792,13.6278667 11.5973333,13.4318667 L7.652,9.48653333 L7.652,9.48666667 Z M5.652,8.41066667 L7.652,8.41066667 L7.652,8.41053333 L5.652,8.41053333 L5.652,8.41066667 Z" id="Combined-Shape" fill="#212121"></path>
    </g>
</svg>