<svg xmlns="http://www.w3.org/2000/svg" viewBox="0 0 100 100"><g id="Outline"><path d="M75.13,26.69,70,23h0V14H30l0,9c0,.06,0,.12,0,.18l-5.1,3.46A2.09,2.09,0,0,0,24,28.4V83.91A2.08,2.08,0,0,0,26.06,86H73.94A2.08,2.08,0,0,0,76,83.91V28.4A2.09,2.09,0,0,0,75.13,26.69ZM65.58,22h-3.7V18.49h3.7ZM42.71,22V18.49h5.07V22Zm9.51-3.53h5.21V22H52.22Zm-14,0V22H34.45V18.49Zm1.28,52.1c0-.45,1.08-1.4,3.17-2.12C45,70,48.57,71,53.28,71a27.36,27.36,0,0,0,5-.45.14.14,0,0,1,0,.06c0,.79-3.23,3.07-9.4,3.07S39.54,71.38,39.54,70.59Zm7.68-11.07c-6.17,0-9.4-2.27-9.4-3.06s3.23-3.07,9.4-3.07,9.4,2.28,9.4,3.07S53.39,59.52,47.22,59.52ZM58.47,61c2.77.73,4.21,1.91,4.21,2.43,0,.79-3.24,3.07-9.4,3.07-5.36,0-8.5-1.72-9.23-2.68a31.55,31.55,0,0,0,3.17.16C52.41,64,56.18,62.76,58.47,61ZM51.11,81c-6.17,0-9.4-2.28-9.4-3.07a1.09,1.09,0,0,1,.41-.64,24.56,24.56,0,0,0,6.82.88,21.22,21.22,0,0,0,9.52-1.91c1.35.63,2,1.31,2,1.67C60.51,78.68,57.28,81,51.11,81Zm20.77.85H63.09A5.45,5.45,0,0,0,65,77.89a6,6,0,0,0-2.93-4.77,4.81,4.81,0,0,0,.76-2.53,4.57,4.57,0,0,0-.23-1.41c3-1.46,4.56-3.6,4.56-5.74,0-2.47-2.08-4.95-6.1-6.36a4.32,4.32,0,0,0,.05-.62c0-3.75-4.77-7.54-13.87-7.54s-13.87,3.79-13.87,7.54c0,2.47,2.09,4.95,6.11,6.36a4.29,4.29,0,0,0,.18,2c-3,1.45-4.57,3.6-4.57,5.73A6,6,0,0,0,38,75.36a4.94,4.94,0,0,0-.75,2.53,5.47,5.47,0,0,0,1.88,3.92h-11V29.52L33,26.21h34.3l4.56,3.27Z"/></g></svg>