<?xml version="1.0" encoding="UTF-8"?>
<svg width="32px" height="32px" viewBox="0 0 32 32" version="1.1" xmlns="http://www.w3.org/2000/svg" xmlns:xlink="http://www.w3.org/1999/xlink">
    <!-- Generator: Sketch 50.2 (55047) - http://www.bohemiancoding.com/sketch -->
    <title>save-outline</title>
    <desc>Created with Sketch.</desc>
    <defs></defs>
    <g id="save" stroke="none" stroke-width="1" fill="none" fill-rule="evenodd">
        <path d="M22,2 L22,10.007983 C22,11.1081436 21.1073772,12 20.0049107,12 L5.99508929,12 C4.8932319,12 4,11.0998238 4,10.007983 L4,2 L2,2 L2,30 L4,30 L4,17.9940603 C4,16.8927712 4.89702623,16 6.00494659,16 L25.9950534,16 C27.1023548,16 28,16.8945138 28,17.9940603 L28,30 L30,30 L30,8.82842712 L23.1715729,2 L22,2 Z M2,0 L23.1715729,0 C23.7020059,8.44799294e-16 24.2107137,0.210713681 24.5857864,0.585786438 L31.4142136,7.41421356 C31.7892863,7.78928632 32,8.29799415 32,8.82842712 L32,30 C32,31.1045695 31.1045695,32 30,32 L2,32 C0.8954305,32 1.3527075e-16,31.1045695 0,30 L0,2 C-1.3527075e-16,0.8954305 0.8954305,2.02906125e-16 2,0 Z M6,30.0059397 C6,30.0015435 12.6650178,29.9995636 25.9950534,30 C25.9978196,30 25.9994684,25.9980201 26,17.9940603 C26,17.9984565 19.3349822,18.0004364 6.00494659,18 C6.00218044,18 6.00053158,22.0019799 6,30.0059397 Z M6,2 L6,10 L20,10 L20,2 L6,2 Z M16,4 L18,4 L18,8 L16,8 L16,4 Z" id="icons/ol/save_32" fill="#212121" fill-rule="nonzero"></path>
    </g>
</svg>