<svg xmlns="http://www.w3.org/2000/svg" viewBox="0 0 100 100"><g id="Outline"><polygon points="79.75 56.6 79.7 56.62 79.75 56.6 79.38 56.7 79.38 56.71 79.75 56.6"/><path d="M46.74,48.13a20.7,20.7,0,0,1,13.61.45l.19.07,1.79-4.76-.19-.07a25.25,25.25,0,0,0-17.25-.43l-.18.08,1.85,4.73Z"/><path d="M84.84,56.52a4.19,4.19,0,0,0-.11-1.11l-.92-3.16,0-.12C79.93,41.57,67.53,34.19,53.61,34.19a68.33,68.33,0,0,0-14.72,1.68,15.07,15.07,0,0,0-9.11-3,14,14,0,0,0-7.4,2,4,4,0,0,0-1.11,5.61l3.08,4.38a23.8,23.8,0,0,0-3.26,4.78l-3.33,1A3.91,3.91,0,0,0,15,54.44v9.21a3.9,3.9,0,0,0,2.76,3.76l3.35,1c1.34,2.45,3.15,3.31,5.25,4.3a26.42,26.42,0,0,1,3.11,1.65l3,8.81A3.88,3.88,0,0,0,36.17,86H45.3A3.9,3.9,0,0,0,49,83.22l1.09-3.61a1.86,1.86,0,0,1,.71.49c.23.21.41.37.59.37h0a39.72,39.72,0,0,0,9.48-.61l1,3.1a3.9,3.9,0,0,0,3.78,3h8.93A3.9,3.9,0,0,0,78.38,83l5.09-16.29A20.14,20.14,0,0,0,85,59.05,21.21,21.21,0,0,0,84.84,56.52ZM23.71,53.16a19.09,19.09,0,0,1,4.38-6.11l2-1.72-.46-2-3.36-4.83a10,10,0,0,1,3-.44,9.84,9.84,0,0,1,6.83,2.62l1.25,1.18,1.62-.57c3.55-1.24,11-1.91,15-1.91,11.82,0,22.68,6.21,25.82,14.75l.68,2.2.07.28,0,.13.07.49a14.37,14.37,0,0,1,.16,2.16,15.38,15.38,0,0,1-1.21,5.93L74.34,81.57H66.5L64.39,74l-1.6.78a34.91,34.91,0,0,1-10.95,1.08l-5.63-.32h-.15l-2,6.09h-7l-3-9-.41-1.07L32.76,71a24.89,24.89,0,0,0-3.58-1.86c-2-.87-3.39-1.5-4.31-3.59l-.52-1.19-4.71-1.46V55.8l3.55-1.45Z"/><ellipse cx="34.28" cy="52.73" rx="3.88" ry="3.91"/><path d="M53.52,14a8.34,8.34,0,1,0,8.26,8.33A8.3,8.3,0,0,0,53.52,14Zm0,12.24a3.91,3.91,0,1,1,3.87-3.91A3.9,3.9,0,0,1,53.52,26.24Z"/></g></svg>