<svg xmlns="http://www.w3.org/2000/svg" viewBox="0 0 100 100"><g id="Outline"><path d="M38.36,65.15v4.42H75.48a2.21,2.21,0,0,0,2.21-2.21V32.57a2.2,2.2,0,0,0-2.21-2.2H24.58a2.2,2.2,0,0,0-2.21,2.2V53.11h4.42V34.78H73.27V65.15Z"/><path d="M83.79,21.77H16.27A2.21,2.21,0,0,0,14.06,24V51.27h4.42V26.19h63.1V73.75H40.32v4.42H83.79A2.21,2.21,0,0,0,86,76V24A2.21,2.21,0,0,0,83.79,21.77Z"/><path d="M26,57.37a24.1,24.1,0,0,0-12-3.22v4.42A19.62,19.62,0,0,1,33.61,78.18H38A24.13,24.13,0,0,0,26,57.37Z"/><path d="M14,62.24v4.42A11.58,11.58,0,0,1,25.57,78.23H30a15.87,15.87,0,0,0-2.15-8A16.05,16.05,0,0,0,14,62.24Z"/><path d="M14,70.38l.05,7.8,7.8,0A7.85,7.85,0,0,0,14,70.38Z"/></g></svg>