<svg xmlns="http://www.w3.org/2000/svg" viewBox="0 0 100 100"><g id="Outline"><path d="M32.14,84h0Z"/><path d="M32,83.92h0Z"/><path d="M20.88,76.88h0l.1.06h0Z"/><path d="M46.25,15a6,6,0,0,0-4.64-.88,6.25,6.25,0,0,0-3.86,2.59L21.68,42.17a6.35,6.35,0,0,0-.81,4.51l3.81,17.14-7,11.05,3.18,2L28.7,64.49,24.63,45.71a2.41,2.41,0,0,1,.23-1.53l16.2-25.35a2.07,2.07,0,0,1,1.38-1,1.88,1.88,0,0,1,1.57.44,2.26,2.26,0,0,1,.46,3.09L32.1,40.93c-1.17,1.86-1.15,5-.81,6.57l4,17.78,3.69-.84-3.83-17.7a1.93,1.93,0,0,1,1.59-2.53,1.7,1.7,0,0,1,1.53.22,2,2,0,0,1,1,1.37L43.39,65a1.72,1.72,0,0,1-.23,1.53L36.68,76.8,32.14,84h0l3.18,2L46.39,68.78a5.82,5.82,0,0,0,.81-4.52L42.9,45A5.91,5.91,0,0,0,37,40.28L47.65,23.37A6.2,6.2,0,0,0,46.25,15Z"/><path d="M31.91,83.85l.1.06-.1-.06Z"/><path d="M32.13,84l-.1-.07Z"/><path d="M28.7,64.49,20.88,76.88l.1.06C22.27,74.79,24.6,71,28.7,64.49Z"/><path d="M36.68,76.8l-4.77,7,.1.06h0l.1.07h0Z"/><path d="M67.86,84l.07,0-.07,0Z"/><path d="M67.94,83.94l.15-.09h0Z"/><path d="M79,76.94l.1-.06h0l-.1.06Z"/><path d="M56.84,66.55A1.72,1.72,0,0,1,56.61,65L60.78,45.8a2,2,0,0,1,1-1.37,1.7,1.7,0,0,1,1.53-.22,1.93,1.93,0,0,1,1.59,2.53l-3.83,17.7,3.69.84,4-17.78c.34-1.52.36-4.71-.81-6.57L55.53,21.36A2.26,2.26,0,0,1,56,18.27a1.88,1.88,0,0,1,1.57-.44,2.07,2.07,0,0,1,1.38,1l16.2,25.35a2.41,2.41,0,0,1,.23,1.53L71.3,64.49l7.82,12.39,3.18-2-7-11.05,3.81-17.14a6.35,6.35,0,0,0-.81-4.51L62.25,16.74a6.25,6.25,0,0,0-3.86-2.59,6,6,0,0,0-4.64.88,6.2,6.2,0,0,0-1.4,8.34L63,40.28A5.91,5.91,0,0,0,57.1,45l-4.3,19.3a5.82,5.82,0,0,0,.81,4.52L64.68,86l3.18-2L63.32,76.8Z"/><path d="M67.94,83.94h0Z"/><path d="M79,76.94l.1-.06L71.3,64.49C75.4,71,77.73,74.79,79,76.94Z"/><polygon points="63.32 76.8 67.86 83.99 67.93 83.94 67.94 83.94 68.09 83.85 63.32 76.8"/><path d="M68.09,83.85h0l.2-.13Z"/><path d="M68.37,83.67l-.08,0Z"/></g></svg>