<?xml version="1.0" encoding="UTF-8"?>
<svg width="32px" height="32px" viewBox="0 0 32 32" version="1.1" xmlns="http://www.w3.org/2000/svg" xmlns:xlink="http://www.w3.org/1999/xlink">
    <!-- Generator: Sketch 53.2 (72643) - https://sketchapp.com -->
    <title>service-outline-fill</title>
    <desc>Created with Sketch.</desc>
    <g id="service-outline" stroke="none" stroke-width="1" fill="none" fill-rule="evenodd">
        <path d="M7.17508176,32 C6.16460541,31.9996817 5.16549949,31.7876797 4.24267289,31.3777673 C3.94278311,31.2432261 3.72853453,30.9704097 3.66969542,30.6481586 C3.61085631,30.3259075 3.71495514,29.9954538 3.948093,29.7644069 L6.7421386,26.9688044 L4.78273601,25.0087715 L2.10473704,27.7110391 C1.8642544,27.9476127 1.52038176,28.0478341 1.18975406,27.9777102 C0.859524611,27.9084296 0.588161804,27.6751349 0.471157664,27.3599221 C-0.537485633,24.7068153 0.102834924,21.7115571 2.10920037,19.6975712 C3.94569891,17.8599995 6.63624894,17.154497 9.14341101,17.8530957 L17.8469077,9.14628282 C17.149583,6.64020066 17.8528866,3.95415361 19.6902636,2.10616458 C21.6953979,0.103562984 24.6958932,-0.537187754 27.3493407,0.470581553 C27.6651294,0.590828163 27.8984975,0.861852785 27.9696446,1.19097823 C28.0407916,1.52010367 27.9400784,1.86273915 27.7019439,2.10172006 L25.0239449,4.80398767 L26.9833475,6.75957607 L29.7773931,3.96397356 C30.0082839,3.73186049 30.3395867,3.62860672 30.6621695,3.68822432 C30.9847523,3.74784191 31.2567837,3.96259985 31.3886558,4.26175634 C32.5899203,7.00059879 31.9881695,10.1922971 29.8711231,12.3107804 C27.9343876,14.2333669 25.0736551,14.9025303 22.4798459,14.0396983 L14.0218325,22.4842846 C14.8826421,25.078626 14.2121874,27.9344984 12.2855965,29.8799644 C10.9336768,31.2362795 9.09416572,31.9993786 7.17508176,32 L7.17508176,32 Z M6.55021534,29.9732993 C8.14582108,30.1677942 9.74254704,29.6203111 10.879647,28.4888299 C12.4059715,26.9529448 12.8343068,24.644043 11.9597733,22.6665099 C11.7902879,22.2903186 11.8700418,21.8491084 12.1606232,21.5553801 L21.5336196,12.1774448 C21.8238677,11.8834428 22.2670877,11.8001354 22.6449892,11.9685524 C24.6250994,12.8457096 26.9433333,12.4161871 28.4741003,10.8885343 C29.6031386,9.74483901 30.1484325,8.15183418 29.9559264,6.55957271 L27.6528473,8.85738908 C27.2595228,9.23157755 26.6402223,9.23157755 26.2468978,8.85738908 L22.8815458,5.49288813 C22.4929134,5.10297412 22.4929134,4.47388958 22.8815458,4.08397558 L24.9748483,1.99949612 C23.5196473,1.94094051 22.1063868,2.49225539 21.0783598,3.51952165 C19.6277944,4.97852389 19.1655609,7.14620674 19.8955769,9.06628148 C20.0343068,9.43284194 19.9453319,9.8463082 19.667947,10.124077 L10.098564,19.6931266 C9.82301236,19.9688319 9.41050723,20.0575993 9.04521772,19.9197971 C7.11679876,19.18404 4.93401556,19.6511773 3.47944318,21.1109282 C2.45062362,22.1452353 1.89938805,23.5585633 1.9574471,25.013216 L4.08199295,22.8887359 C4.47531743,22.5145474 5.09461793,22.5145474 5.48794241,22.8887359 L8.83544113,26.2665704 C9.22355536,26.6549637 9.22355536,27.2826451 8.83544113,27.6710384 L6.55021534,29.9732993 Z" id="Shape" fill="#2D2D2D" fill-rule="nonzero"></path>
    </g>
</svg>