<svg xmlns="http://www.w3.org/2000/svg" viewBox="0 0 100 100"><g id="Outline"><path d="M77,52.47l-.07-15.39H59.49V29H40.69l-.13,19.74H38.29L33.61,36.69H32V31.22H21.18v5.47H18.34V48.74H14.06L15,50.82c.07.17.79,2.12,1.63,4.36,2.5,6.77,4.79,12.9,5.23,13.74,1,1.89,1.59,2.08,3.77,2.08H75.24c2.87,0,3.71-.63,4.51-2.06.09-.16.19-.34.32-.54.92-1.34,2.86-6.64,4.64-11.65.25-.72.42-1.2.49-1.36l.86-2.92ZM22.56,48.8V41h7.78l3,7.77ZM44,37.68V33.26H56.11v4.42Zm0,7.45V40.71H56.11v4.42Zm0,7.46V48.17H56.11v4.42Zm16.54-7.46V40.71H72.65v4.42Zm0,7.46V48.17H72.65v4.42ZM38.05,57.51h41.3l-3.61,8.66H26.19L21.6,53.57H35.68Z"/><path d="M77,52.47l-.07-15.39H59.49V29H40.69l-.13,19.74H38.29L33.61,36.69H32V31.22H21.18v5.47H18.34V48.74H14.06L15,50.82c.07.17.79,2.12,1.63,4.36,2.5,6.77,4.79,12.9,5.23,13.74,1,1.89,1.59,2.08,3.77,2.08H75.24c2.87,0,3.71-.63,4.51-2.06.09-.16.19-.34.32-.54.92-1.34,2.86-6.64,4.64-11.65.25-.72.42-1.2.49-1.36l.86-2.92ZM22.56,48.8V41h7.78l3,7.77ZM44,37.68V33.26H56.11v4.42Zm0,7.45V40.71H56.11v4.42Zm0,7.46V48.17H56.11v4.42Zm16.54-7.46V40.71H72.65v4.42Zm0,7.46V48.17H72.65v4.42ZM38.05,57.51h41.3l-3.61,8.66H26.19L21.6,53.57H35.68Z"/></g></svg>