<?xml version="1.0" encoding="UTF-8"?>
<svg width="32px" height="32px" viewBox="0 0 32 32" version="1.1" xmlns="http://www.w3.org/2000/svg" xmlns:xlink="http://www.w3.org/1999/xlink">
    <!-- Generator: Sketch 53.2 (72643) - https://sketchapp.com -->
    <title>shopping-bag-outline-fill</title>
    <desc>Created with Sketch.</desc>
    <g id="shopping-bag-outline" stroke="none" stroke-width="1" fill="none" fill-rule="evenodd">
        <path d="M29.1741715,7.60681157 L29.1741715,5.83469473 L21.9217833,5.83469473 C21.9217833,2.61228181 19.3095015,0 16.0870886,0 C12.8646757,0 10.2523939,2.61228181 10.2523939,5.83469473 L4.74554076,5.83469473 C4.28223521,5.83351432 3.83756536,6.01703931 3.5099578,6.34464686 C3.18235024,6.67225442 2.99882526,7.11692427 3.00000566,7.58022982 L3,32 L27.4153455,32 C28.3734064,31.9857337 29.1466143,31.2125258 29.1608806,30.2544649 L29.1608806,7.61567216 L29.1741715,7.60681157 Z M16.0870886,1.78097743 C18.3214323,1.7834047 20.1334895,3.5915011 20.1408059,5.82583414 L12.0333713,5.82583414 C12.043108,3.59251059 13.8537491,1.78582719 16.0870886,1.78097743 Z M4.78984368,30.2234529 L4.74554076,7.62896303 L27.3976244,7.62896303 L27.4286364,30.2234529 L4.78984368,30.2234529 Z" id="Shape" fill="#2D2D2D" fill-rule="nonzero"></path>
    </g>
</svg>