<svg xmlns="http://www.w3.org/2000/svg" viewBox="0 0 100 100"><g id="Outline"><g id="Shape"><path d="M69.92,81.37H30.09A8.4,8.4,0,0,1,22,75.21L14.22,46.86A4.79,4.79,0,0,1,14,45.37,5.37,5.37,0,0,1,19.36,40H32.81L45.55,21A5.28,5.28,0,0,1,50,18.63a5.34,5.34,0,0,1,4.45,2.29L67.23,40H80.64A5.37,5.37,0,0,1,86,45.37v.26l-.16,1.18-7.78,28.4A8.51,8.51,0,0,1,69.92,81.37ZM19.36,44.61a.77.77,0,0,0-.76.76v.11l0,.11L26.42,74a3.82,3.82,0,0,0,3.67,2.78H69.92A3.88,3.88,0,0,0,73.62,74l7.73-28.2.05-.48a.77.77,0,0,0-.76-.68Zm19-4.6H61.67l-11-16.52a.78.78,0,0,0-.63-.27.74.74,0,0,0-.62.28Z"/></g><rect x="37.03" y="51.81" width="4.5" height="17.77"/><rect x="47.75" y="51.81" width="4.5" height="17.77"/><rect x="58.47" y="51.81" width="4.5" height="17.77"/></g></svg>