<?xml version="1.0" encoding="UTF-8"?>
<svg width="32px" height="32px" viewBox="0 0 32 32" version="1.1" xmlns="http://www.w3.org/2000/svg" xmlns:xlink="http://www.w3.org/1999/xlink">
    <!-- Generator: Sketch 53.2 (72643) - https://sketchapp.com -->
    <title>shopping-cart-outline-fill</title>
    <desc>Created with Sketch.</desc>
    <g id="shopping-cart-outline" stroke="none" stroke-width="1" fill="none" fill-rule="evenodd">
        <path d="M15,30 C13.3431458,30 12,28.6568542 12,27 C12,25.3431458 13.3431458,24 15,24 C16.6568542,24 18,25.3431458 18,27 C17.9974931,28.6558147 16.6558147,29.9974931 15,30 Z M15,25.5614568 C14.4177528,25.5596142 13.8918122,25.9089334 13.667718,26.4463316 C13.4436238,26.9837299 13.5655732,27.6032182 13.9766332,28.0155832 C14.3876932,28.4279481 15.0067918,28.5518604 15.5448977,28.3294706 C16.0830036,28.1070808 16.433988,27.5822501 16.4339909,27 C16.4290228,26.2100957 15.7899043,25.5709772 15,25.5660091 L15,25.5614568 Z M25,30 C23.3431458,30 22,28.6568542 22,27 C22,25.3431458 23.3431458,24 25,24 C26.6568542,24 28,25.3431458 28,27 C27.9974931,28.6558147 26.6558147,29.9974931 25,30 Z M25,25.5614568 C24.4181636,25.5614568 23.8936185,25.9119466 23.6709593,26.4494933 C23.4483002,26.9870401 23.5713758,27.6057832 23.9827963,28.0172037 C24.3942168,28.4286242 25.0129599,28.5516998 25.5505067,28.3290407 C26.0880534,28.1063815 26.4385432,27.5818364 26.4385432,27 C26.4335523,26.2083303 25.7916815,25.5684908 25,25.5660091 L25,25.5614568 Z M31.04,8.14594595 C31.1906409,8.3241311 31.2483452,8.56296313 31.1956757,8.79027027 L28.4972973,19.1686486 L11.2,19.1686486 C12.0648649,21.4735135 13.7124324,21.4735135 13.7945946,21.4735135 L26.9059459,21.4735135 C27.1844203,21.4522336 27.4513455,21.5887484 27.5970918,21.8269896 C27.7428381,22.0652307 27.7428381,22.3650396 27.5970918,22.6032807 C27.4513455,22.8415218 27.1844203,22.9780367 26.9059459,22.9567568 L13.7297297,22.9567568 C12.5275676,22.9567568 10.2789189,22.0832432 9.50054054,18.6972973 C8.47567568,14.2345946 6.74594595,7.04324324 6.74594595,6.96972973 L6.74594595,6.92216216 C6.7027027,6.67567568 6.25297297,4.48324324 3.94378378,4.48324324 L8.8817842e-15,4.48324324 L8.8817842e-15,3 L3.94378378,3 C6.81513514,3 7.9827027,5.36972973 8.20756757,6.64540541 C8.23351351,6.74918919 8.3372973,7.19027027 8.4972973,7.86054054 L30.4562162,7.86054054 C30.6847302,7.85917133 30.9007298,7.96477112 31.04,8.14594595 Z M27.3297297,17.6594595 L29.4962162,9.34378378 L8.84756757,9.34378378 C9.39675676,11.6486486 10.1881081,15.0216216 10.8021622,17.6594595 L27.3297297,17.6594595 Z" id="Combined-Shape" fill="#2D2D2D" fill-rule="nonzero"></path>
    </g>
</svg>