<svg xmlns="http://www.w3.org/2000/svg" viewBox="0 0 100 100"><g id="Outline"><path d="M28.25,59.63v2.43a2.14,2.14,0,0,1-4.28,0V59.63a2.14,2.14,0,0,1,4.28,0Zm6.28-2.14a2.14,2.14,0,0,0-2.14,2.14v2.43a2.14,2.14,0,0,0,4.28,0V59.63A2.14,2.14,0,0,0,34.53,57.49Zm8.42,0a2.14,2.14,0,0,0-2.14,2.14v2.43a2.14,2.14,0,0,0,4.28,0V59.63A2.14,2.14,0,0,0,43,57.49Zm8.42,0a2.14,2.14,0,0,0-2.14,2.14v2.43a2.14,2.14,0,0,0,4.28,0V59.63A2.14,2.14,0,0,0,51.37,57.49ZM26.11,73A2.14,2.14,0,0,0,24,75.1v2.42a2.14,2.14,0,1,0,4.28,0V75.1A2.14,2.14,0,0,0,26.11,73Zm8.42,0a2.14,2.14,0,0,0-2.14,2.14v2.42a2.14,2.14,0,1,0,4.28,0V75.1A2.14,2.14,0,0,0,34.53,73ZM43,73a2.14,2.14,0,0,0-2.14,2.14v2.42a2.14,2.14,0,1,0,4.28,0V75.1A2.14,2.14,0,0,0,43,73Zm8.42,0a2.14,2.14,0,0,0-2.14,2.14v2.42a2.14,2.14,0,1,0,4.28,0V75.1A2.14,2.14,0,0,0,51.37,73ZM26.11,66.33A2.14,2.14,0,0,0,24,68.48v.2a2.14,2.14,0,1,0,4.28,0v-.2A2.14,2.14,0,0,0,26.11,66.33Zm8.42,0a2.14,2.14,0,0,0-2.14,2.15v.2a2.14,2.14,0,1,0,4.28,0v-.2A2.14,2.14,0,0,0,34.53,66.33Zm8.42,0a2.14,2.14,0,0,0-2.14,2.15v.2a2.14,2.14,0,1,0,4.28,0v-.2A2.14,2.14,0,0,0,43,66.33Zm8.42,0a2.14,2.14,0,0,0-2.14,2.15v.2a2.14,2.14,0,1,0,4.28,0v-.2A2.14,2.14,0,0,0,51.37,66.33ZM17.75,54.6V52.46A21,21,0,0,1,36.6,31.57V30.36A17.7,17.7,0,0,1,54.28,12.68H66.22A17.71,17.71,0,0,1,83.91,30.36V84.68H79.62V30.36A13.42,13.42,0,0,0,66.22,17H54.28a13.42,13.42,0,0,0-13.4,13.4v1.21A21,21,0,0,1,59.74,52.46V54.6Zm21-18.85A16.73,16.73,0,0,0,22.17,50.31H55.31A16.73,16.73,0,0,0,38.74,35.75Z"/></g></svg>