<svg xmlns="http://www.w3.org/2000/svg" viewBox="0 0 100 100"><g id="Outline"><path d="M85.59,42.15a17.91,17.91,0,0,0-17.73-15H21.78A7.79,7.79,0,0,0,14,34.88V59.16c0,5.65,9.61,7.73,13.57,8.35A6.89,6.89,0,0,0,41,67.7h22.7A6.88,6.88,0,0,0,77,67.7h4.17A4.83,4.83,0,0,0,86,62.87V47.13A30.79,30.79,0,0,0,85.59,42.15Zm-3.2.52a27.77,27.77,0,0,1,.37,4.46v5.25L65.5,43.75V30.34h2.36A14.68,14.68,0,0,1,82.39,42.67Zm-48.95.46V30.34H46.23V43.13Zm16-12.79H62.26V43.13H49.47Zm-27.69,0H30.2V43.13h-13V34.88A4.55,4.55,0,0,1,21.78,30.34ZM34.3,69.66A3.67,3.67,0,1,1,38,66,3.68,3.68,0,0,1,34.3,69.66Zm36,0A3.67,3.67,0,1,1,74,66,3.68,3.68,0,0,1,70.34,69.66Zm10.84-5.21H77.06a6.89,6.89,0,0,0-13.44,0H41a6.89,6.89,0,0,0-13.38-.22c-4.78-.82-10.4-2.8-10.4-5.07V46.37H63.5L82.76,56v6.87A1.58,1.58,0,0,1,81.18,64.45Z"/></g></svg>