<?xml version="1.0" encoding="UTF-8"?>
<svg width="32px" height="32px" viewBox="0 0 32 32" version="1.1" xmlns="http://www.w3.org/2000/svg" xmlns:xlink="http://www.w3.org/1999/xlink">
    <!-- Generator: Sketch 50.2 (55047) - http://www.bohemiancoding.com/sketch -->
    <title>spark-line-outline</title>
    <desc>Created with Sketch.</desc>
    <defs></defs>
    <g id="spark-line" stroke="none" stroke-width="1" fill="none" fill-rule="evenodd">
        <path d="M20.852107,29.9995893 C20.1787905,29.9995893 19.585472,29.5575888 19.3868103,28.892548 L14.5909303,12.8880489 L11.1656827,24.3882226 C10.9883538,24.9866233 10.4776999,25.4218239 9.86438195,25.4898239 C9.26039706,25.552384 8.66041208,25.2504637 8.35775299,24.701023 L4.34985328,17.3964543 L1.89124814,22.3142201 C1.63925445,22.8133407 1.03660286,23.014621 0.545948472,22.7575807 C0.053960784,22.5032604 -0.142034311,21.8871796 0.109959383,21.385339 L2.96322131,15.6801322 C3.22054821,15.1633316 3.7338687,14.8369312 4.30052118,14.8246912 C4.89917287,14.8750112 5.39382716,15.1225315 5.67115355,15.6284521 L9.56972266,22.7303806 L13.1203005,10.8072464 C13.3176289,10.1435656 13.9069475,9.69748505 14.5882637,9.69748505 L14.5882637,9.69748505 C15.26958,9.69748505 15.8588986,10.1408456 16.0575603,10.8072464 L20.7067773,26.3194249 L24.2040231,3.32859743 C24.3133537,2.61051657 24.8840061,2.06923592 25.5919884,2.00667585 C26.2919709,1.93731576 26.950621,2.3833963 27.1786153,3.06883712 L31.9478293,17.5963745 C32.1238249,18.1322151 31.839832,18.7102158 31.3171784,18.887016 C30.7958582,19.0787763 30.2265391,18.7795759 30.0505435,18.2450953 L25.887981,5.5630801 L22.372069,28.6749478 C22.2614051,29.3998286 21.6827529,29.9438293 20.9627709,29.9955093 C20.9267718,29.9982293 20.8894394,29.9995893 20.852107,29.9995893" id="Fill-1" fill="#212121"></path>
    </g>
</svg>