<svg xmlns="http://www.w3.org/2000/svg" viewBox="0 0 100 100"><g id="Outline"><path d="M56.75,45l-4.11,6.29A8.52,8.52,0,0,0,50,50.82a8.63,8.63,0,1,0,6.44,2.91l4.11-6.29ZM54.08,59.44A4.08,4.08,0,1,1,50,55.36,4.08,4.08,0,0,1,54.08,59.44Z"/><path d="M50,23.25A36,36,0,0,0,17.46,74.67l1,2.08,14.3-7.06.13-.07-.93-2a19.68,19.68,0,0,1-1.84-8.36,19.89,19.89,0,1,1,38,8.33l-.93,2,14.31,7,.14.07,1-2.08A35.64,35.64,0,0,0,86,59.25,36,36,0,0,0,50,23.25ZM73,67.42a24.41,24.41,0,0,0-1.14-19l6.18-3.35a31.41,31.41,0,0,1,1.3,25.46ZM52.27,34.94V27.88A31.31,31.31,0,0,1,75.73,41.19L69.5,44.56A24.45,24.45,0,0,0,52.27,34.94ZM30.5,44.56l-6.23-3.37A31.31,31.31,0,0,1,47.73,27.88v7.06A24.45,24.45,0,0,0,30.5,44.56Zm-9.85,26a31.43,31.43,0,0,1,1.28-25.52l6.18,3.35a24.39,24.39,0,0,0-1.12,19Z"/></g></svg>