<svg xmlns="http://www.w3.org/2000/svg" viewBox="0 0 100 100"><g id="Outline"><path id="Page-1" d="M72.75,22.1l2.47,2.2-6.9,7.1-1.79-1.58ZM79,28.62l1.85,2.74-8.44,5.17-1.35-2Zm4.41,7.85,1.11,3.13L75,42.51l-.82-2.25Zm2.33,8.7.3,3.3-9.89.47-.23-2.38Zm.09,9-.53,3.27-9.7-2,.37-2.36Zm-2.15,8.75-1.33,3-8.9-4.34,1-2.2Zm-4.25,7.94-2,2.61-7.54-6.41,1.46-1.9ZM73.3,77.5l-2.63,2L65,71.45,66.84,70Zm-7.55,4.92-3,1.32-3.53-9.25,2.18-1Zm-8.53,2.89L54,85.83,52.82,76l2.36-.39ZM47,14.14,50.32,14l0,9.91-2.39.1Zm9,.37,3.24.7-2.49,9.58-2.35-.49Zm8.63,2.6,3,1.48-4.8,8.66L60.66,26.2ZM48.24,86l-3.3-.31,1.35-9.81,2.38.21Zm-8.87-1.57-3.12-1.12L40,74.15l2.26.79Zm-8.21-3.72-2.74-1.85,5.9-8,2,1.33Zm-7-5.63-2.2-2.48,7.68-6.24,1.6,1.78Zm-5.41-7.21-1.51-2.94,9-4.14,1.11,2.12Zm-3.45-8.32-.74-3.22,9.74-1.78.55,2.33ZM14,50.64l.09-3.31L24,48l-.06,2.39Zm1-9,.91-3.18,9.4,3.12-.65,2.31Zm3.17-8.43,1.67-2.86,8.33,5.36-1.2,2.07Zm5.16-7.38,2.33-2.36,6.73,7.26-1.67,1.71ZM30.13,20,33,18.29,37.69,27l-2,1.25Zm8.07-4,3.17-.94,2.42,9.59-2.29.7Z"/></g></svg>