<?xml version="1.0" encoding="UTF-8"?>
<svg width="32px" height="32px" viewBox="0 0 32 32" version="1.1" xmlns="http://www.w3.org/2000/svg" xmlns:xlink="http://www.w3.org/1999/xlink">
    <!-- Generator: Sketch 53.2 (72643) - https://sketchapp.com -->
    <title>Stewardship-outline-fill</title>
    <desc>Created with Sketch.</desc>
    <g id="Stewardship-outline" stroke="none" stroke-width="1" fill="none" fill-rule="evenodd">
        <path d="M30.4931507,25.9550685 C30.6593681,26.8105954 30.1720037,27.6583481 29.3490411,27.9452055 L18.3331507,31.6449315 L18.1884932,31.6449315 C18.1841096,31.6449315 16.2509589,31.6931507 14.3134247,31.7326027 L11.6438356,31.7808219 L10.96,31.7808219 C10.5569974,31.8352122 10.147005,31.7648404 9.78520548,31.5791781 C8.80328767,31.2416438 5.29643836,30.1720548 3.10465753,29.5276712 L2.40767123,29.3172603 L2.40767123,18.5073973 L11.0783562,20.8306849 L12.3145205,21.7906849 L20.2750685,22.7024658 C21.0815535,22.7832977 21.7037,23.4485447 21.730411,24.2586301 C29.5024658,23.469589 29.5068493,23.4783562 29.8838356,23.820274 L29.949589,23.8816438 L29.980274,23.9649315 C30.2014659,24.6143409 30.3729198,25.2796405 30.4931507,25.9550685 Z M4.3539726,21.0410959 L4.3539726,27.8531507 C8.36054795,29.0454795 9.8860274,29.5057534 10.6093151,29.8213699 C11.3632877,29.8345205 15.3610959,29.7512329 17.9912329,29.6854795 L28.5424658,26.1435616 C28.4986301,25.92 28.4591781,25.7358904 28.4284932,25.5780822 C27.0038356,25.7008219 24.009863,26.0076712 21.6865753,26.2443836 C21.5390757,27.1583582 20.7537155,27.8325825 19.8279452,27.84 L11.0126027,27.84 L11.0126027,25.8805479 L19.779726,25.8805479 L19.779726,24.6268493 L11.5517808,23.6712329 L10.2016438,22.610411 L4.3539726,21.0410959 Z M16,8 C13.79181,7.99771053 12.0022895,6.20818998 12,4 C12,1.790861 13.790861,-3.55271368e-15 16,-3.55271368e-15 C18.209139,-3.55271368e-15 20,1.790861 20,4 C20,6.209139 18.209139,8 16,8 Z M13.7279335,4 C13.7279335,4.60258949 13.9673113,5.18049849 14.3934064,5.6065936 C14.8195015,6.03268872 15.3974105,6.27206646 16,6.27206646 C17.2548277,6.27206646 18.2720665,5.25482766 18.2720665,4 C18.2720665,2.74517234 17.2548277,1.72793354 16,1.72793354 C14.7451723,1.72793354 13.7279335,2.74517234 13.7279335,4 Z M9.00738912,9.52438517 C8.21075961,9.52536563 7.44636855,9.20984579 6.88237356,8.64723654 C6.31837857,8.08462728 6.00097926,7.32101472 6,6.52438521 C6.00000502,4.86849397 7.34165228,3.52575153 8.99754297,3.52439536 C10.6534337,3.52303919 11.9972785,4.86358222 11.9999959,6.51947123 C12.0027132,8.17536024 10.6632753,9.52030662 9.00738912,9.52438517 Z M7.52955663,6.52438521 L7.54433495,6.52438521 C7.54429443,7.33483292 8.19698193,7.99411323 9.00738912,8.0022177 C9.82357347,8.0022177 10.4852216,7.34056956 10.4852216,6.52438521 C10.4852216,5.70820086 9.82357347,5.04655272 9.00738912,5.04655272 C8.19120477,5.04655272 7.52955663,5.70820086 7.52955663,6.52438521 Z M24,9.52438356 C22.3439897,9.5223479 21.0020357,8.18039388 21,6.52438356 C21,4.86752931 22.3431458,3.52438356 24,3.52438356 C25.6568542,3.52438356 27,4.86752931 27,6.52438356 C27,8.18123781 25.6568542,9.52438356 24,9.52438356 Z M24,5.06132937 C23.1838156,5.06132937 22.5221675,5.72297753 22.5221675,6.53916189 C22.5221675,7.35534625 23.1838156,8.0169944 24,8.0169944 C24.8161844,8.0169944 25.4778325,7.35534625 25.4778325,6.53916189 C25.4778325,5.72297753 24.8161844,5.06132937 24,5.06132937 Z M22.5829457,11.4504142 C23.9418022,11.424695 25.2878865,11.7166873 26.5139535,12.3031274 L27,12.5461506 L27,18.1484762 L5,18.1484762 L5,12.5504142 L5.48604651,12.3031274 C6.71277502,11.7186216 8.05839726,11.4267296 9.41705426,11.4504142 C9.83193952,11.4504752 10.2463811,11.477535 10.6577519,11.5314219 L10.6577519,11.3097165 L11.1437984,11.0624297 C12.6467193,10.3471324 14.2929903,9.98404868 15.9573643,10.0008018 C17.6528897,9.98015793 19.3295201,10.3584221 20.851938,11.1050653 L21.3337209,11.3523522 L21.3337209,11.5356855 C21.7478616,11.4804215 22.1651368,11.4519386 22.5829457,11.4504142 Z M6.77364341,16.3748328 L10.6577519,16.3748328 L10.6577519,13.3050653 C9.35319941,13.0965316 8.01709978,13.2211951 6.77364341,13.6674685 L6.77364341,16.3748328 Z M12.444186,16.3748328 L19.555814,16.3748328 L19.555814,12.4395615 C17.2724152,11.5420263 14.736089,11.5298617 12.444186,12.4054529 L12.444186,16.3748328 Z M21.3337209,16.3748328 L25.2263566,16.3748328 L25.2263566,13.671732 C23.9812523,13.2198165 22.6413123,13.0936009 21.3337209,13.3050653 L21.3337209,16.3748328 Z" id="Combined-Shape" fill="#2D2D2D" fill-rule="nonzero"></path>
    </g>
</svg>