<?xml version="1.0" encoding="UTF-8"?>
<svg width="32px" height="32px" viewBox="0 0 32 32" version="1.1" xmlns="http://www.w3.org/2000/svg" xmlns:xlink="http://www.w3.org/1999/xlink">
    <!-- Generator: Sketch 55.2 (78181) - https://sketchapp.com -->
    <title>Tag-outline</title>
    <desc>Created with Sketch.</desc>
    <g id="Tag-outline" stroke="none" stroke-width="1" fill="none" fill-rule="evenodd">
        <path d="M18.6827519,0 L32,0 L31.9991668,13.3236748 C31.9991336,13.8542777 31.7883136,14.363139 31.4130779,14.7383319 L14.7355272,31.413978 C13.9540753,32.1953407 12.6870915,32.1953407 11.9056396,31.413978 L0.586088925,20.09572 C-0.195362975,19.3143574 -0.195362975,18.0475182 0.586088925,17.2661556 L17.2678498,0.586299691 C17.6431061,0.211086334 18.1520595,0 18.6827519,0 Z M29.9998749,2 L18.6827519,2 L2.00000001,18.68045 L13.3197724,29.9999209 L29.998945,13.3240377 L29.9998749,2 Z M21.1731221,5.17277922 C22.7352192,3.61068205 25.2678791,3.61068205 26.8299763,5.17277922 C28.3920734,6.7348764 28.3920734,9.26753632 26.8299763,10.8296334 C25.2678791,12.3917306 22.7352192,12.3917306 21.1731221,10.8296334 C19.6110248,9.26753632 19.6110248,6.7348764 21.1731221,5.17277922 Z M25.4157628,6.58699281 C24.6347141,5.8059442 23.3683842,5.8059442 22.5873356,6.5869928 C21.806287,7.36804139 21.806287,8.6343713 22.5873357,9.41541993 C23.3683842,10.1964685 24.6347141,10.1964685 25.4157627,9.4154199 C26.1968113,8.63437135 26.1968113,7.36804134 25.4157628,6.58699281 Z" id="Combined-Shape" fill="#000000" fill-rule="nonzero"></path>
    </g>
</svg>