<?xml version="1.0" encoding="UTF-8"?>
<svg width="32px" height="32px" viewBox="0 0 32 32" version="1.1" xmlns="http://www.w3.org/2000/svg" xmlns:xlink="http://www.w3.org/1999/xlink">
    <!-- Generator: Sketch 53.2 (72643) - https://sketchapp.com -->
    <title>talent-outline-fill</title>
    <desc>Created with Sketch.</desc>
    <g id="talent-outline" stroke="none" stroke-width="1" fill="none" fill-rule="evenodd">
        <path d="M14.5484763,16.5812608 C11.2271723,16.5812608 8.53337508,13.7126581 8.53337508,10.1941377 C8.53337508,6.67561725 11.2271723,3.8070146 14.5484763,3.8070146 C17.8697803,3.8070146 20.5590952,6.66665287 20.5590952,10.1941377 C20.5590952,13.7216225 17.8652981,16.5812608 14.5484763,16.5812608 Z M14.5484763,5.77469673 L14.5484763,5.77917892 C12.2535941,5.77917892 10.3755558,7.75582543 10.3755558,10.1941377 C10.3755558,12.6324499 12.2446298,14.6135786 14.5395119,14.6135786 C16.834394,14.6135786 18.6989857,12.6324499 18.6989857,10.1941377 C18.6989857,7.75582543 16.8433584,5.77917892 14.5484763,5.77469673 Z M23.8535061,24.0620386 L30.11961,30.6867179 L28.7301306,32 L22.3295609,25.2318906 C20.0935584,26.7154072 17.469412,27.5059254 14.7860324,27.5043618 C8.14201551,27.5204625 2.4366614,22.7839972 1.2300255,16.2504492 C0.023389608,9.71690117 3.66059881,3.25502231 9.8720891,0.896928121 C16.0835794,-1.46116607 23.0927152,0.958996064 26.5259008,6.64726963 C29.9590865,12.3355432 28.8343483,19.6649452 23.8535061,24.0620386 Z M14.7860324,1.65108042 L14.7860324,1.63763385 C10.3956666,1.67808963 6.37882041,4.11587864 4.3161232,7.99173062 C2.25342599,11.8675826 2.47506892,16.5610614 4.89383547,20.2252826 C7.96598939,19.0665334 11.2247686,18.4816243 14.5081365,18.4996388 C17.9517513,18.4766518 21.3672568,19.1204837 24.5661746,20.3956059 C27.0575606,16.7423566 27.3359229,12.0143688 25.2904364,8.09400923 C23.2449499,4.17364962 19.207694,1.69737851 14.7860324,1.65108042 Z M14.7860324,25.6083947 L14.7860324,25.5949482 C17.8299742,25.597995 20.7568229,24.422115 22.9525856,22.3139839 C17.6242073,20.4623244 11.8348977,20.4135027 6.47604912,22.1750359 C8.68365599,24.3724248 11.6712221,25.6067698 14.7860324,25.6083947 Z" id="Combined-Shape" fill="#2D2D2D" fill-rule="nonzero"></path>
    </g>
</svg>