<svg xmlns="http://www.w3.org/2000/svg" viewBox="0 0 100 100"><g id="Outline"><path d="M76.91,49.48l-2,3.13H73V50a4.51,4.51,0,0,0-4.5-4.5H63.2A4.51,4.51,0,0,0,58.7,50v2.62H56.26V50a4.5,4.5,0,0,0-4.5-4.5H46.44a4.5,4.5,0,0,0-4.5,4.5v2.62H40.52l-7-15.93H32V30.22H21.13v6.47H18.28V48.74H14s6.6,19.34,7,20.18C22,70.81,22.63,71,24.8,71H75.19c2.87,0,3.71-.63,4.51-2.06.09-.16,6.3-19.46,6.3-19.46ZM63.2,50h5.33v2.61H63.2ZM46.44,50h5.32v2.62H46.44ZM22.51,48.8V41h8.08L34,48.8Zm15.2,8.71h41l-3,9H24.75L20.33,53.3H35.86Z"/></g></svg>