<?xml version="1.0" encoding="UTF-8"?>
<svg width="32px" height="32px" viewBox="0 0 32 32" version="1.1" xmlns="http://www.w3.org/2000/svg" xmlns:xlink="http://www.w3.org/1999/xlink">
    <!-- Generator: Sketch 50.2 (55047) - http://www.bohemiancoding.com/sketch -->
    <title>target-outline</title>
    <desc>Created with Sketch.</desc>
    <defs></defs>
    <g id="target" stroke="none" stroke-width="1" fill="none" fill-rule="evenodd">
        <path d="M1.29333333,29.2933333 L4.01333333,26.572 C1.52266667,23.752 0,20.0586667 0,16 C0,7.164 7.164,0 16,0 C24.836,0 32,7.164 32,16 C32,20.0586667 30.4773333,23.752 27.9866667,26.5733333 L30.708,29.2933333 L29.2933333,30.7066667 L26.5733333,27.9866667 C23.752,30.4773333 20.0586667,32 16,32 C11.9413333,32 8.248,30.4773333 5.42666667,27.9866667 L2.708,30.7066667 L1.29333333,29.2933333 Z M2,16 C2,23.72 8.28,30 16,30 C23.72,30 30,23.72 30,16 C30,8.28 23.72,2 16,2 C8.28,2 2,8.28 2,16 Z M16,26 C10.48625,26 6,21.51375 6,16 C6,10.48625 10.48625,6 16,6 C21.51375,6 26,10.48625 26,16 C26,21.51375 21.51375,26 16,26 Z M16,8 C11.5889231,8 8,11.5889231 8,16 C8,20.4110769 11.5889231,24 16,24 C20.4110769,24 24,20.4110769 24,16 C24,11.5889231 20.4110769,8 16,8 Z M16,21 C13.2425,21 11,18.7575 11,16 C11,13.2425 13.2425,11 16,11 C18.7575,11 21,13.2425 21,16 C21,18.7575 18.7575,21 16,21 Z M16,13 C14.3452,13 13,14.3464 13,16 C13,17.6548 14.3452,19 16,19 C17.6536,19 19,17.6548 19,16 C19,14.3464 17.6536,13 16,13 Z" id="Combined-Shape" fill="#212121"></path>
    </g>
</svg>