<svg xmlns="http://www.w3.org/2000/svg" viewBox="0 0 100 100"><g id="Outline"><path d="M71.71,14.24l-.35-.35-3.27,3.28.35.35a17,17,0,0,1,0,23.94l-.35.34,3.27,3.28.35-.35a21.62,21.62,0,0,0,0-30.49Z"/><path d="M61.28,35l3.26,3.28.35-.35a11.91,11.91,0,0,0,0-16.81l-.35-.35L61.28,24l.34.35a7.25,7.25,0,0,1,0,10.25Z"/><path d="M31.54,41.46a17,17,0,0,1,0-23.94l.35-.35-3.27-3.28-.35.35a21.65,21.65,0,0,0,0,30.49l.35.35,3.27-3.28Z"/><path d="M35.09,37.89l.35.35L38.7,35l-.34-.35a7.25,7.25,0,0,1,0-10.25L38.7,24l-3.26-3.28-.35.35a11.91,11.91,0,0,0,0,16.81Z"/><path d="M53,35.58a6.78,6.78,0,1,0-6,0L32.5,81.35l-1.29,4.54,4.53,0L50.31,71.24,64.92,85.89h4.61l-1.45-4.6ZM55.9,59.07l-5.59,5.61-5.83-5.85L50,41.28ZM47.83,29.49A2.16,2.16,0,1,1,50,31.66,2.17,2.17,0,0,1,47.83,29.49ZM47,68l-8,8L42.9,63.8Zm14.38,7.88L53.58,68l3.94-4Z"/></g></svg>