<?xml version="1.0" encoding="UTF-8"?>
<svg width="32px" height="32px" viewBox="0 0 32 32" version="1.1" xmlns="http://www.w3.org/2000/svg" xmlns:xlink="http://www.w3.org/1999/xlink">
    <!-- Generator: Sketch 50.2 (55047) - http://www.bohemiancoding.com/sketch -->
    <title>thumb-down-outline</title>
    <desc>Created with Sketch.</desc>
    <defs></defs>
    <g id="thumb-down" stroke="none" stroke-width="1" fill="none" fill-rule="evenodd">
        <path d="M0,12 L2,12 L2,32 L0,32 L0,12 Z M20,12 L30,12 C31.1045695,12 32,12.8954305 32,14 L32,30 C32,31.1045695 31.1045695,32 30,32 L8,32 L8,12 L14,6 L14,3 C14,1.34314575 15.3431458,0 17,0 C18.6568542,0 20,1.34314575 20,3 L20,12 Z M10,30 L30,30 L30,14 L18,14 L18,3 C18,2.44771525 17.5522847,2 17,2 C16.4477153,2 16,2.44771525 16,3 L16,6.82842712 L10,12.8284271 L10,30 Z" id="icons/ol/thumb-down" fill="#212121" transform="translate(16.000000, 16.000000) scale(1, -1) translate(-16.000000, -16.000000) "></path>
    </g>
</svg>