<?xml version="1.0" encoding="UTF-8"?>
<svg width="32px" height="32px" viewBox="0 0 32 32" version="1.1" xmlns="http://www.w3.org/2000/svg" xmlns:xlink="http://www.w3.org/1999/xlink">
    <!-- Generator: Sketch 53.2 (72643) - https://sketchapp.com -->
    <title>ticket-outline-fill</title>
    <desc>Created with Sketch.</desc>
    <g id="ticket-outline" stroke="none" stroke-width="1" fill="none" fill-rule="evenodd">
        <path d="M32,0 L32,2 L28.7377778,2 L28.7377778,31 C28.7377778,31.5522847 28.2900625,32 27.7377778,32 L4.26222222,32 C3.70993747,32 3.26222222,31.5522847 3.26222222,31 L3.26222222,2 L0,2 L0,0 L32,0 Z M26.7377778,30 L26.7377778,2.09777778 L5.26222222,2.09777778 L5.26222222,30 L26.7377778,30 Z M7.59671233,5.03671233 L18.1654795,5.03671233 L18.1654795,7.00931507 L7.59671233,7.00931507 L7.59671233,5.03671233 Z M20.5720548,5.03671233 L23.7808219,5.03671233 L23.7808219,7.00931507 L20.5720548,7.00931507 L20.5720548,5.03671233 Z M7.59671233,8.96438356 L18.1654795,8.96438356 L18.1654795,10.9369863 L7.59671233,10.9369863 L7.59671233,8.96438356 Z M20.5720548,8.96438356 L23.7808219,8.96438356 L23.7808219,10.9369863 L20.5720548,10.9369863 L20.5720548,8.96438356 Z M7.59671233,12.8876712 L18.1654795,12.8876712 L18.1654795,14.860274 L7.59671233,14.860274 L7.59671233,12.8876712 Z M20.5720548,12.8876712 L23.7808219,12.8876712 L23.7808219,14.860274 L20.5720548,14.860274 L20.5720548,12.8876712 Z M7.59671233,16.8109589 L18.1654795,16.8109589 L18.1654795,18.7835616 L7.59671233,18.7835616 L7.59671233,16.8109589 Z M20.5720548,16.8109589 L23.7808219,16.8109589 L23.7808219,18.7835616 L20.5720548,18.7835616 L20.5720548,16.8109589 Z M7.59671233,20.7342466 L18.1654795,20.7342466 L18.1654795,22.7068493 L7.59671233,22.7068493 L7.59671233,20.7342466 Z M20.5720548,20.7342466 L23.7808219,20.7342466 L23.7808219,22.7068493 L20.5720548,22.7068493 L20.5720548,20.7342466 Z" id="Combined-Shape" fill="#2D2D2D" fill-rule="nonzero"></path>
    </g>
</svg>