<svg xmlns="http://www.w3.org/2000/svg" viewBox="0 0 100 100"><g id="Outline"><path d="M74.39,59.8c-.63-3.22-4.77-3.47-6.07-3.47h-.39c-.28-1.33-2.81-3-5.32-3a4.92,4.92,0,0,0-2.16.47,6.56,6.56,0,0,0-5-2.59,8.48,8.48,0,0,0-2.27.39L53,39.25c-.08-1.45-.28-5.17-3.1-5.24a21.69,21.69,0,0,0-3.73.14c-3.2.9-2.84,5.34-2.84,5.34s.21,17.59-.24,17.59H42.6c-2.82,0-3.43,1.38-3.79,5.44v4a13.18,13.18,0,0,0,2.87,8.57,13.08,13.08,0,0,1,2.68,7.43,3.19,3.19,0,0,0,3.11,3.17l21.05.3a3.28,3.28,0,0,0,2.11-.77A3,3,0,0,0,71.7,83c.11-3.2,2.88-15.16,3-16.63C75,61.58,74.84,62.11,74.39,59.8Zm-2.8,6.32c0,.5-.53,2.89-.92,4.81a102.11,102.11,0,0,0-2,11.93v0l-.09,0-20.94-.3a.22.22,0,0,1-.13-.06v0a16.11,16.11,0,0,0-3.35-9.35,10.12,10.12,0,0,1-2.21-6.56v-4a13,13,0,0,1,.38-2.49h.85a3.12,3.12,0,0,0,2.21-.92c1.08-1.09,1.34-1.35,1.12-19.79,0-.08-.15-2.13.23-2.55s2.53-.64,3,.06A5.32,5.32,0,0,1,50,39.4l.11,12.29a3.09,3.09,0,0,0,3.08,3.06,3.11,3.11,0,0,0,.43,0,4.8,4.8,0,0,0,.72-.17,3.75,3.75,0,0,1,1.12-.2c.34,0,1.37,0,2.71,1.54a3.09,3.09,0,0,0,2.32,1,3,3,0,0,0,1.34-.31,2,2,0,0,1,.82-.16,4,4,0,0,1,2.42.89A3.1,3.1,0,0,0,68,59.42h.37c1.37,0,2.92.38,3,1,.07.36.14.66.19.92C71.79,62.43,71.81,62.52,71.59,66.12Z"/><path d="M39,54.47c-.45-.24-.9-.5-1.34-.79a19.69,19.69,0,1,1,27.24-5.79c-.3.46-.62.89-1,1.32l2.39,2.56a22.72,22.72,0,0,0,1.47-2,23.17,23.17,0,1,0-32,6.81,20.84,20.84,0,0,0,2.09,1.2Z"/><path d="M41.49,47.14a12.1,12.1,0,1,1,17.13-3.6l2.43,2.61c.12-.17.24-.33.35-.5a15.58,15.58,0,1,0-21.54,4.58c.15.1.31.19.47.28Z"/></g></svg>