<svg xmlns="http://www.w3.org/2000/svg" viewBox="0 0 100 100"><g id="Outline"><path d="M38.11,46.67a6.58,6.58,0,1,0,6.58,6.58A6.59,6.59,0,0,0,38.11,46.67Zm0,9.17a2.59,2.59,0,1,1,2.59-2.59A2.59,2.59,0,0,1,38.11,55.84Z"/><path d="M61.17,46.67a6.58,6.58,0,1,0,6.59,6.58A6.59,6.59,0,0,0,61.17,46.67Zm0,9.17a2.59,2.59,0,1,1,2.59-2.59A2.59,2.59,0,0,1,61.17,55.84Z"/><path d="M63.42,67.14h9.1a2,2,0,0,0,2-2V16a2,2,0,0,0-2-2H27.34a2,2,0,0,0-2,2V65.14a2,2,0,0,0,2,2h9.24L23.37,86H76.63ZM51.41,18H70.52V38.55H51.41ZM29.33,18H47.42V38.55H29.33Zm0,45.16V42.54H70.52V63.15Zm30.91,6.4H39.76l1.7-2.41H58.63l-.06,0ZM37,73.55H63l1.58,2.25H35.39ZM31,82l1.55-2.22H67.41L69,82Z"/></g></svg>