<?xml version="1.0" encoding="UTF-8"?>
<svg width="32px" height="32px" viewBox="0 0 32 32" version="1.1" xmlns="http://www.w3.org/2000/svg" xmlns:xlink="http://www.w3.org/1999/xlink">
    <!-- Generator: Sketch 53.2 (72643) - https://sketchapp.com -->
    <title>Transform-outline-fill</title>
    <desc>Created with Sketch.</desc>
    <g id="Transform-outline" stroke="none" stroke-width="1" fill="none" fill-rule="evenodd">
        <path d="M24.3370825,22.2377029 L25.9325069,23.0954102 C23.0655154,27.5237568 17.6254155,29.5362846 12.5666532,28.0400165 C7.50789092,26.5437484 4.03781293,21.8957904 4.04097244,16.6203867 L4.04097244,15.798232 L1.54339988,18.2958046 C1.19119389,18.6492378 0.619160292,18.6502326 0.265727094,18.2980266 C-0.0877061043,17.9458206 -0.0887009454,17.373787 0.263505054,17.0203538 L4.94756461,12.3362943 L9.6671768,17.0692387 C9.8409864,17.2367656 9.9391775,17.4677839 9.9391775,17.7091861 C9.9391775,17.9505884 9.8409864,18.1816067 9.6671768,18.3491335 C9.49800516,18.5193424 9.26719493,18.6139105 9.02722938,18.6113342 C8.78726383,18.6139105 8.5564536,18.5193424 8.38728197,18.3491335 L5.8497127,15.798232 L5.8497127,16.6203867 C5.84951453,21.0662875 8.75738197,24.9891499 13.0112531,26.2816723 C17.2651242,27.5741947 21.863857,25.9321838 24.3370825,22.2377029 Z M7.66289704,10.2920178 L6.06747258,9.43431052 C8.93446415,5.00596393 14.374564,2.99343615 19.4333263,4.48970424 C24.4920886,5.98597234 27.9621666,10.6339303 27.9590071,15.909334 L27.9590071,16.7314887 L30.4565796,14.2339161 C30.684417,14.0052849 31.0169206,13.9155708 31.3288397,13.9985681 C31.6407588,14.0815654 31.8847054,14.324665 31.9687871,14.6362935 C32.0528689,14.947922 31.9643118,15.2807357 31.7364745,15.5093669 L27.0524149,20.1934264 L22.3328027,15.460482 C22.1589931,15.2929551 22.060802,15.0619368 22.060802,14.8205346 C22.060802,14.5791324 22.1589931,14.3481141 22.3328027,14.1805872 C22.5019744,14.0103783 22.7327846,13.9158102 22.9727501,13.9183865 C23.2127157,13.9158102 23.4435259,14.0103783 23.6126976,14.1805872 L26.1502668,16.7314887 L26.1502668,15.909334 C26.150465,11.4634333 23.2425976,7.54057083 18.9887264,6.24804845 C14.7348553,4.95552607 10.1361225,6.5975369 7.66289704,10.2920178 Z" id="Combined-Shape" fill="#2D2D2D" fill-rule="nonzero"></path>
    </g>
</svg>