<svg xmlns="http://www.w3.org/2000/svg" viewBox="0 0 100 100"><g id="Outline"><path d="M74.25,34.15h-16V20.41H14V72.9H26.59a9,9,0,0,0,8.63,6.69,9,9,0,0,0,8.67-6.69h17.2a8.94,8.94,0,0,0,10.63,6.46,9,9,0,0,0,6.67-6.46H86V45.35ZM31,69.46A4.41,4.41,0,0,1,34,66.37a4.47,4.47,0,0,1,5.49,3.1,4.43,4.43,0,0,1-3.07,5.46l-.26.07v0A4.46,4.46,0,0,1,31,69.46ZM53.73,24.89V68.37H43.89a8.94,8.94,0,0,0-17.3,0H18.5V24.89ZM65.46,69.46a4.41,4.41,0,0,1,3.07-3.09,4.48,4.48,0,0,1,3.39.42A4.43,4.43,0,0,1,74,69.48,4.42,4.42,0,0,1,71,74.93L70.7,75v0a4.46,4.46,0,0,1-5.24-5.56ZM58.22,38.65H72.43l9.09,8.63,0,21.14H78.4a8.94,8.94,0,0,0-17.26,0H58.22Z"/><path d="M77.41,55.16H62.29V42.72h8.54L77.37,49Zm-11.16-4h7.17v-.54l-4.18-4h-3Z"/></g></svg>