<svg xmlns="http://www.w3.org/2000/svg" viewBox="0 0 100 100"><defs><style>.cls-1{fill-rule:evenodd;}</style></defs><g id="Outline"><path class="cls-1" d="M34.09,31.53,25.17,54.37H42.71ZM78.51,54.24h-.12a2.26,2.26,0,0,1-1.44,1,14,14,0,0,1-1.87.44c-1.66.29-3.38.55-5.15.78a28.21,28.21,0,0,0-4.84,1,9.47,9.47,0,0,0-3.58,2A4.69,4.69,0,0,0,60.1,63.1a5.7,5.7,0,0,0,.6,2.66,6.25,6.25,0,0,0,1.59,2A6.68,6.68,0,0,0,64.6,69a8.41,8.41,0,0,0,2.68.44,13.4,13.4,0,0,0,4.3-.69,10.46,10.46,0,0,0,3.59-2,9.87,9.87,0,0,0,2.44-3.19A9.38,9.38,0,0,0,78.49,60l0-.67Zm-41.86-27L54.13,71.84H49.57L44.14,58H23.86L18.49,71.84H14L31.91,27.28ZM70.59,38.7a22.56,22.56,0,0,1,4.24.41,10.32,10.32,0,0,1,3.81,1.53,8.39,8.39,0,0,1,2.74,3.15,10.66,10.66,0,0,1,1.05,4.57v17.8a2.07,2.07,0,0,0,2.31,2.37,3,3,0,0,0,1-.14l.29-.11v3.31c-.46.09-.86.15-1.22.19a12.25,12.25,0,0,1-1.34.06,5.94,5.94,0,0,1-2.4-.4,3.3,3.3,0,0,1-1.41-1.16A4.3,4.3,0,0,1,79,68.5a13.83,13.83,0,0,1-.15-1.66v-.61H78.7A27.51,27.51,0,0,1,76.55,69a10.68,10.68,0,0,1-2.44,2,11.09,11.09,0,0,1-3.06,1.25,16.7,16.7,0,0,1-4.08.44,15.89,15.89,0,0,1-4.22-.54,9.4,9.4,0,0,1-3.43-1.68A8.06,8.06,0,0,1,57,67.57a9.81,9.81,0,0,1-.84-4.22,8.32,8.32,0,0,1,1.5-5.27,9.47,9.47,0,0,1,4-2.9,22.4,22.4,0,0,1,5.56-1.4c2-.27,4.15-.53,6.27-.78.83-.09,1.56-.19,2.18-.32A3.81,3.81,0,0,0,77.2,52a3,3,0,0,0,1-1.28,5.5,5.5,0,0,0,.34-2.12,7.28,7.28,0,0,0-.65-3.28,5.23,5.23,0,0,0-1.81-2,7.36,7.36,0,0,0-2.69-1A18.79,18.79,0,0,0,70.09,42,10,10,0,0,0,64,43.79,6.71,6.71,0,0,0,61.5,49l0,.55H57.54a13.16,13.16,0,0,1,1.19-4.87,9.38,9.38,0,0,1,2.71-3.37,11.51,11.51,0,0,1,4-1.93A19.4,19.4,0,0,1,70.59,38.7Z"/></g></svg>