<svg xmlns="http://www.w3.org/2000/svg" viewBox="0 0 100 100"><g id="Outline"><path d="M85.82,52.45v0a2.46,2.46,0,0,0,0-.53,37.92,37.92,0,0,0-1.28-5.69c-2.22-7.14-9.8-23.79-32.33-24.93V16.89a2.21,2.21,0,0,0-4.41,0v4.39C19.41,22.58,14.38,50.89,14.18,52.1c-.23,1.4-.58,3.52,1.39,4.15a2.23,2.23,0,0,0,2.62-1c1.14-1,9.18-3.48,18-.74.9.53,1.85.29,3.28-.07a40.84,40.84,0,0,1,8.33-1.31V75.18c0,2.64-.64,4-1.18,4.75a2.18,2.18,0,0,1-1.7,1,1.65,1.65,0,0,1-1.64-1.8,2.21,2.21,0,1,0-4.41,0,6.07,6.07,0,0,0,6.05,6.21,6.57,6.57,0,0,0,5.21-2.7,12.07,12.07,0,0,0,2.08-7.43v-22a46.19,46.19,0,0,1,8.24,1.46,5.07,5.07,0,0,0,1.8.34,1.3,1.3,0,0,0,.92-.12c8.95-2.79,17.61-.14,18.68.75a2.24,2.24,0,0,0,2.62,1C86.4,56,86.05,53.85,85.82,52.45ZM73.21,35A34,34,0,0,1,81,50.15a23.93,23.93,0,0,0-8.5-1.44,32.85,32.85,0,0,0-9.33,1.38A54.35,54.35,0,0,0,55,25.94C62.44,26.88,68.58,29.9,73.21,35ZM58.69,49.65a42,42,0,0,0-19.21.23c.35-5.61,2.05-12.76,10.67-23.26A51.64,51.64,0,0,1,58.69,49.65ZM45.09,25.91c-8.07,10.54-9.67,18.18-10,23.75A32.47,32.47,0,0,0,19.16,50,37.22,37.22,0,0,1,28,34.18,28.31,28.31,0,0,1,45.09,25.91Z"/></g></svg>