<?xml version="1.0" encoding="UTF-8"?>
<svg width="32px" height="32px" viewBox="0 0 32 32" version="1.1" xmlns="http://www.w3.org/2000/svg" xmlns:xlink="http://www.w3.org/1999/xlink">
    <!-- Generator: Sketch 50.2 (55047) - http://www.bohemiancoding.com/sketch -->
    <title>up-chevron-circle-outline</title>
    <desc>Created with Sketch.</desc>
    <defs></defs>
    <g id="up-chevron-circle" stroke="none" stroke-width="1" fill="none" fill-rule="evenodd">
        <path d="M31.7506667,13.2706667 C31.904,14.1586667 32,15.068 32,16 C32,16.932 31.904,17.8413333 31.7506667,18.7293333 C31.6266667,19.4493333 31.4666667,20.1573333 31.2506667,20.84 C29.5853333,26.0893333 25.284,30.1493333 19.904,31.5 C18.652,31.8146667 17.3493333,32 16,32 C14.6506667,32 13.348,31.8146667 12.096,31.5 C6.01733333,29.9733333 1.32933333,24.9813333 0.250666667,18.736 C0.0973333333,17.8453333 0,16.9346667 0,16 C0,15.0653333 0.0973333333,14.1546667 0.250666667,13.264 C1.328,7.02 6.016,2.028 12.0946667,0.5 C13.3453333,0.185333333 14.6466667,0.00133333333 15.9946667,0 L16,0 L16.0053333,0 C17.3533333,0.00133333333 18.6546667,0.185333333 19.9053333,0.5 C25.2853333,1.852 29.5866667,5.912 31.2506667,11.16 C31.4666667,11.8426667 31.6266667,12.5506667 31.7506667,13.2706667 Z M16,30 C23.72,30 30,23.72 30,16 C30,8.28 23.72,2 16,2 C8.28,2 2,8.28 2,16 C2,23.72 8.28,30 16,30 Z M16.0002667,17.0312 L20.8896,12.1405333 L22.3029333,13.5552 L16.0002667,19.8592 L9.6976,13.5552 L11.1109333,12.1405333 L16.0002667,17.0312 Z" id="Combined-Shape" fill="#212121" transform="translate(16.000000, 16.000000) rotate(-180.000000) translate(-16.000000, -16.000000) "></path>
    </g>
</svg>