<?xml version="1.0" encoding="UTF-8"?>
<svg width="32px" height="32px" viewBox="0 0 32 32" version="1.1" xmlns="http://www.w3.org/2000/svg" xmlns:xlink="http://www.w3.org/1999/xlink">
    <!-- Generator: Sketch 50.2 (55047) - http://www.bohemiancoding.com/sketch -->
    <title>venn-ab-vertical-outline</title>
    <desc>Created with Sketch.</desc>
    <defs></defs>
    <g id="venn-ab-vertical" stroke="none" stroke-width="1" fill="none" fill-rule="evenodd">
        <path d="M16,22 C9.92486775,22 5,17.0751322 5,11 C5,4.92486775 9.92486775,0 16,0 C22.0751322,0 27,4.92486775 27,11 C27,17.0751322 22.0751322,22 16,22 Z M16,20 C20.9705627,20 25,15.9705627 25,11 C25,6.02943725 20.9705627,2 16,2 C11.0294373,2 7,6.02943725 7,11 C7,15.9705627 11.0294373,20 16,20 Z M16,32 C9.92486775,32 5,27.0751322 5,21 C5,14.9248678 9.92486775,10 16,10 C22.0751322,10 27,14.9248678 27,21 C27,27.0751322 22.0751322,32 16,32 Z M16,30 C20.9705627,30 25,25.9705627 25,21 C25,16.0294373 20.9705627,12 16,12 C11.0294373,12 7,16.0294373 7,21 C7,25.9705627 11.0294373,30 16,30 Z" id="Combined-Shape" fill="#212121" fill-rule="nonzero"></path>
    </g>
</svg>