<?xml version="1.0" encoding="UTF-8"?>
<svg width="32px" height="32px" viewBox="0 0 32 32" version="1.1" xmlns="http://www.w3.org/2000/svg" xmlns:xlink="http://www.w3.org/1999/xlink">
    <!-- Generator: Sketch 50.2 (55047) - http://www.bohemiancoding.com/sketch -->
    <title>venn-ab-horizontal-outline</title>
    <desc>Created with Sketch.</desc>
    <defs></defs>
    <g id="venn-ab-horizontal" stroke="none" stroke-width="1" fill="none" fill-rule="evenodd">
        <path d="M21,27 C14.9248678,27 10,22.0751322 10,16 C10,9.92486775 14.9248678,5 21,5 C27.0751322,5 32,9.92486775 32,16 C32,22.0751322 27.0751322,27 21,27 Z M21,25 C25.9705627,25 30,20.9705627 30,16 C30,11.0294373 25.9705627,7 21,7 C16.0294373,7 12,11.0294373 12,16 C12,20.9705627 16.0294373,25 21,25 Z M11,27 C4.92486775,27 0,22.0751322 0,16 C0,9.92486775 4.92486775,5 11,5 C17.0751322,5 22,9.92486775 22,16 C22,22.0751322 17.0751322,27 11,27 Z M11,25 C15.9705627,25 20,20.9705627 20,16 C20,11.0294373 15.9705627,7 11,7 C6.02943725,7 2,11.0294373 2,16 C2,20.9705627 6.02943725,25 11,25 Z" id="Combined-Shape" fill="#212121" fill-rule="nonzero"></path>
    </g>
</svg>