<?xml version="1.0" encoding="UTF-8"?>
<svg width="32px" height="32px" viewBox="0 0 32 32" version="1.1" xmlns="http://www.w3.org/2000/svg" xmlns:xlink="http://www.w3.org/1999/xlink">
    <!-- Generator: Sketch 50.2 (55047) - http://www.bohemiancoding.com/sketch -->
    <title>venn-abc-reversed-outline</title>
    <desc>Created with Sketch.</desc>
    <defs></defs>
    <g id="venn-abc-reversed" stroke="none" stroke-width="1" fill="none" fill-rule="evenodd">
        <path d="M16,22 C9.92486775,22 5,17.0751322 5,11 C5,4.92486775 9.92486775,0 16,0 C22.0751322,0 27,4.92486775 27,11 C27,17.0751322 22.0751322,22 16,22 Z M16,20 C20.9705627,20 25,15.9705627 25,11 C25,6.02943725 20.9705627,2 16,2 C11.0294373,2 7,6.02943725 7,11 C7,15.9705627 11.0294373,20 16,20 Z M11,32 C4.92486775,32 0,27.0751322 0,21 C0,14.9248678 4.92486775,10 11,10 C17.0751322,10 22,14.9248678 22,21 C22,27.0751322 17.0751322,32 11,32 Z M11,30 C15.9705627,30 20,25.9705627 20,21 C20,16.0294373 15.9705627,12 11,12 C6.02943725,12 2,16.0294373 2,21 C2,25.9705627 6.02943725,30 11,30 Z M21,32 C14.9248678,32 10,27.0751322 10,21 C10,14.9248678 14.9248678,10 21,10 C27.0751322,10 32,14.9248678 32,21 C32,27.0751322 27.0751322,32 21,32 Z M21,30 C25.9705627,30 30,25.9705627 30,21 C30,16.0294373 25.9705627,12 21,12 C16.0294373,12 12,16.0294373 12,21 C12,25.9705627 16.0294373,30 21,30 Z" id="Combined-Shape" fill="#212121" fill-rule="nonzero" transform="translate(16.000000, 16.000000) scale(1, -1) translate(-16.000000, -16.000000) "></path>
    </g>
</svg>