<svg xmlns="http://www.w3.org/2000/svg" viewBox="0 0 100 100"><g id="Outline"><path d="M84.8,24.65H53.55a1.2,1.2,0,0,0-1.2,1.2V49.38a1.21,1.21,0,0,0,1.2,1.21H84.8A1.21,1.21,0,0,0,86,49.38V25.85A1.2,1.2,0,0,0,84.8,24.65Zm-1.21,2.41V48.18H54.76V27.06Z"/><path d="M81,28.63H57.4a1.21,1.21,0,0,0-1.21,1.2v16.1a1.21,1.21,0,0,0,1.21,1.21H81a1.2,1.2,0,0,0,1.2-1.21V29.83A1.2,1.2,0,0,0,81,28.63Zm-8.3,16.1H65.41V43.45a10.6,10.6,0,0,1,7.24,0Zm7.1,0h-5v-2.6l-.58-.28a12.35,12.35,0,0,0-10.2,0l-.58.28v2.6H58.6V31H79.75Z"/><path d="M68.8,40.13A4.09,4.09,0,1,0,64.71,36,4.09,4.09,0,0,0,68.8,40.13Zm-2-4.09a2,2,0,1,1,2,2A2,2,0,0,1,66.77,36Z"/><path d="M69.87,65.41h-2V50.48H64.25V65.41H21.4V33.25h31V29.67H19.62a1.79,1.79,0,0,0-1.79,1.79V65.41h-2A1.79,1.79,0,0,0,14,67.2v6.36a1.79,1.79,0,0,0,1.79,1.79H69.87a1.79,1.79,0,0,0,1.78-1.79V67.2A1.79,1.79,0,0,0,69.87,65.41Zm-1.79,6.36H17.58V69h50.5Z"/><path d="M23.54,37.37V61.29a1.79,1.79,0,0,0,1.79,1.79h35a1.79,1.79,0,0,0,1.79-1.79V50.48H58.54v9H51.05V55.64l-.85-.42a18.49,18.49,0,0,0-15.17,0l-.86.42V59.5h-7V39.16H52.35V35.58h-27A1.79,1.79,0,0,0,23.54,37.37ZM37.23,57.6A15.67,15.67,0,0,1,48,57.6v1.9H37.23Z"/><path d="M42.27,40.51a6.08,6.08,0,1,0,6.08,6.08A6.09,6.09,0,0,0,42.27,40.51Zm0,9.1a3,3,0,1,1,3-3A3,3,0,0,1,42.27,49.61Z"/></g></svg>