<?xml version="1.0" encoding="UTF-8"?>
<svg width="32px" height="32px" viewBox="0 0 32 32" version="1.1" xmlns="http://www.w3.org/2000/svg" xmlns:xlink="http://www.w3.org/1999/xlink">
    <!-- Generator: Sketch 50.2 (55047) - http://www.bohemiancoding.com/sketch -->
    <title>view-outline</title>
    <desc>Created with Sketch.</desc>
    <defs></defs>
    <g id="view" stroke="none" stroke-width="1" fill="none" fill-rule="evenodd">
        <path d="M23.5426667,7.96706048 L32,15.9995251 L23.5426667,24.0319898 C19.3773333,27.9893367 12.6226667,27.9893367 8.45733333,24.0319898 L0,15.9995251 L8.45733333,7.96706048 C12.6226667,4.01097984 19.3773333,4.01097984 23.5426667,7.96706048 Z M29.095806,15.9995251 L22.1653482,9.41723076 C18.771898,6.19425641 13.228102,6.19425641 9.83465181,9.41723076 L2.90419396,15.9995251 L9.83488355,22.5820396 C13.2282718,25.8059868 18.7717282,25.8059868 22.1653482,22.5818195 L29.095806,15.9995251 Z M16,11 C18.7614286,11 21,13.2385714 21,16 C21,18.7614286 18.7614286,21 16,21 C13.2385714,21 11,18.7614286 11,16 C11,13.2385714 13.2385714,11 16,11 Z M16,19 C17.6545,19 19,17.6545 19,16 C19,14.3455 17.6545,13 16,13 C14.3455,13 13,14.3455 13,16 C13,17.6545 14.3455,19 16,19 Z" id="Combined-Shape" fill="#212121"></path>
    </g>
</svg>