<?xml version="1.0" encoding="UTF-8"?>
<svg width="32px" height="32px" viewBox="0 0 32 32" version="1.1" xmlns="http://www.w3.org/2000/svg" xmlns:xlink="http://www.w3.org/1999/xlink">
    <!-- Generator: Sketch 53.2 (72643) - https://sketchapp.com -->
    <title>visitor-outline-fill</title>
    <desc>Created with Sketch.</desc>
    <g id="visitor-outline" stroke="none" stroke-width="1" fill="none" fill-rule="evenodd">
        <path d="M15.6666588,17.5555546 C13.7029809,17.5555546 12.1111055,15.9636791 12.1111055,14.0000012 C12.1111055,12.0363234 13.7029809,10.4444479 15.6666588,10.4444479 C17.6303367,10.4444479 19.2222121,12.0363234 19.2222121,14.0000012 C19.2222121,15.9636791 17.6303367,17.5555546 15.6666588,17.5555546 Z M14.5555484,12.8666686 L14.5555484,12.8800019 C14.1103524,13.3284288 13.9786327,14.0006489 14.2216676,14.5839328 C14.4647026,15.1672166 15.0347681,15.5470262 15.6666588,15.5466669 C16.5276225,15.5345427 17.2198733,14.8343805 17.2222134,13.9733346 C17.2279583,13.5598656 17.0678971,13.1613132 16.7777692,12.8666686 C16.4809367,12.577122 16.0812938,12.4172649 15.6666588,12.4222244 C15.2522957,12.4187167 14.8531853,12.5783609 14.5555484,12.8666686 Z M4.99999938,9.93475532e-06 L27.0000006,9.93475532e-06 C27.2648074,-0.00117225027 27.519174,0.103194152 27.7068391,0.290025206 C27.8945042,0.47685626 28.0000026,0.73075543 28,0.995564872 L28,31.0044351 C28.0000026,31.2692446 27.8945042,31.5231437 27.7068391,31.7099748 C27.519174,31.8968058 27.2648074,32.0011723 27.0000006,31.9999901 L4.99999938,31.9999901 C4.73519258,32.0011723 4.480826,31.8968058 4.29316088,31.7099748 C4.10549576,31.5231437 3.99999736,31.2692446 4,31.0044351 L4,0.995564872 C3.99999736,0.73075543 4.10549576,0.47685626 4.29316088,0.290025206 C4.480826,0.103194152 4.73519258,-0.00117225027 4.99999938,9.93475532e-06 Z M25.9999988,29.9999913 L25.9999988,2.00000869 L5.99999876,2.00000869 L5.99999876,29.9999913 L25.9999988,29.9999913 Z M13,4 L18.6399965,4 L18.6399965,5.99110987 L13,5.99110987 L13,4 Z M8.03999998,22.8400007 L8.02666665,22.7911119 C8.00903975,22.7168422 8.00009101,22.640778 8,22.5644453 L8,8.99556487 C7.99999736,8.73075543 8.10549576,8.47685626 8.29316088,8.29002521 C8.480826,8.10319415 8.73519258,7.99882775 8.99999938,8.00000993 L22.5822132,8.00000993 C23.1327666,8.0000045 23.5797656,8.44501692 23.5822125,8.99556487 L23.5822125,22.5866675 C23.5865618,22.6384282 23.5865618,22.6904624 23.5822125,22.742223 C23.5843855,22.7539752 23.5843855,22.7660263 23.5822125,22.7777785 C23.5669634,22.8583058 23.5400111,22.9361678 23.5022126,23.0088895 C23.5008536,23.0207024 23.5008536,23.0326321 23.5022126,23.044445 C23.4627838,23.09633 23.4197121,23.1453426 23.3733238,23.1911116 L23.3377683,23.2311116 C23.2826686,23.2896945 23.2198734,23.3405287 23.1511017,23.3822226 L23.1066573,23.4088893 C23.0483901,23.4408683 22.9874125,23.4676389 22.9244352,23.4888892 L22.8755463,23.4844448 C22.7961168,23.5076156 22.7138411,23.519583 22.631102,23.5200003 L9.00888826,23.5200003 C8.92795306,23.5189647 8.84741258,23.5085242 8.76888841,23.4888892 L8.70222179,23.4888892 C8.62656237,23.4674132 8.55352211,23.4376009 8.48444414,23.4000004 L8.4266664,23.3688893 C8.3613926,23.3275952 8.30035578,23.2799567 8.24444429,23.2266671 C8.19513667,23.1727987 8.1505295,23.1148094 8.11111104,23.0533339 C8.11111104,23.0177784 8.11111104,23.0177784 8.11111104,23.0177784 C8.08284446,22.9604478 8.0590694,22.9010102 8.03999998,22.8400007 Z M11.2444424,21.5688904 L20.1288814,21.5688904 C18.8151098,20.5755976 17.2200756,20.0247273 15.5733286,19.995558 C13.990615,19.9967167 12.4585503,20.5535452 11.2444424,21.5688904 Z M21.6311026,10.013342 L9.99999876,9.99111981 L9.99999876,20.0488913 C11.564886,18.7467074 13.5375152,18.03568 15.5733286,18.0400037 C17.7822087,18.0688367 19.9166855,18.8424476 21.6311026,20.2355579 L21.6311026,10.013342 Z M8,25 L18,25 L18,27 L8,27 L8,25 Z" id="Combined-Shape" fill="#2D2D2D" fill-rule="nonzero"></path>
    </g>
</svg>