<?xml version="1.0" encoding="UTF-8"?>
<svg width="32px" height="32px" viewBox="0 0 32 32" version="1.1" xmlns="http://www.w3.org/2000/svg" xmlns:xlink="http://www.w3.org/1999/xlink">
    <!-- Generator: Sketch 50.2 (55047) - http://www.bohemiancoding.com/sketch -->
    <title>volume-on-outline</title>
    <desc>Created with Sketch.</desc>
    <defs></defs>
    <g id="volume-on" stroke="none" stroke-width="1" fill="none" fill-rule="evenodd">
        <path d="M26.0599179,8.93761535 C28.5853146,11.4630121 29.5762768,15.1408506 28.6690965,18.5805016 C28.2224797,20.2721319 27.3380833,21.8073309 26.1001507,23.0452634 L24.6853626,21.6304753 C26.697003,19.618835 27.4786629,16.6866972 26.7301458,13.9265398 C26.3594846,12.5711595 25.643528,11.3347085 24.6531763,10.3443569 L26.0599179,8.93761535 Z M4,11.0263749 C4,9.92764141 4.89579427,9.03694194 6.00081251,9.03694194 L9.14160015,9.03694194 L20.4333112,1.17974328 C20.6014432,1.06275067 20.8016926,1 21.0069063,1 C21.5594155,1 22.0073126,1.44534973 22.0073126,1.99471647 L22.0073126,30.005198 C22.0073126,30.2092446 21.944203,30.4083551 21.8265412,30.5755309 C21.5097533,31.0256281 20.885983,31.1351573 20.4333112,30.8201712 L9.14160015,22.9629725 L6.00081251,22.9629725 C4.89579427,22.9629725 4,22.0722731 4,20.9735396 L4,11.0263749 Z M20.0065001,3.90493924 L9.77216633,11 L6.00081251,11 L6.00081251,21 L9.77216633,21 L20.0065001,28.0949752 L20.0065001,3.90493924 Z" id="ic_ol_volume_down_32" fill="#212121"></path>
    </g>
</svg>