<?xml version="1.0" encoding="UTF-8"?>
<svg width="32px" height="32px" viewBox="0 0 32 32" version="1.1" xmlns="http://www.w3.org/2000/svg" xmlns:xlink="http://www.w3.org/1999/xlink">
    <!-- Generator: Sketch 50.2 (55047) - http://www.bohemiancoding.com/sketch -->
    <title>volume-up-outline</title>
    <desc>Created with Sketch.</desc>
    <defs></defs>
    <g id="volume-up" stroke="none" stroke-width="1" fill="none" fill-rule="evenodd">
        <path d="M26.999183,3.94949714 C31.2933893,8.24370347 32.9832485,14.4914052 31.4341587,20.3417758 C30.6735589,23.2105692 29.1645324,25.8373627 27.0684875,27.9334076 L25.6535925,26.5185126 C29.4236598,22.7484453 30.8820452,17.2434602 29.4845225,12.0758701 C28.7999916,9.53444044 27.4530284,7.21682559 25.5924415,5.35623866 L26.999183,3.94949714 Z M22.0613191,8.93734808 C24.5869066,11.4629357 25.5780452,15.1409506 24.6709606,18.5806972 C24.2243908,20.2723746 23.340019,21.8075982 22.1020864,23.0455307 L20.6871914,21.6306357 C22.6988318,19.6189953 23.4804104,16.6867763 22.7317608,13.9264863 C22.3610344,12.5710408 21.645004,11.3345161 20.6545775,10.3440896 L22.0613191,8.93734808 Z M0,11.0263749 C0,9.92764141 0.895861963,9.03694194 2.0009637,9.03694194 L5.14198867,9.03694194 L16.4345529,1.17974328 C16.6026977,1.06275067 16.8029622,1 17.0081914,1 C17.5607423,1 18.0086733,1.44534973 18.0086733,1.99471647 L18.0086733,30.005198 C18.0086733,30.2092446 17.9455589,30.4083551 17.8278882,30.5755309 C17.5110764,31.0256281 16.887259,31.1351573 16.4345529,30.8201712 L5.14198867,22.9629725 L2.0009637,22.9629725 C0.895861963,22.9629725 0,22.0722731 0,20.9735396 L0,11.0263749 Z M16.0077096,3.90493924 L5.7726025,11.0263749 L2.0009637,11 L2.0009637,21 L5.7726025,21 L16.0077096,28.0949752 L16.0077096,3.90493924 Z" id="ic_ol_volume_up_32" fill="#212121"></path>
    </g>
</svg>