<?xml version="1.0" encoding="UTF-8"?>
<svg width="32px" height="32px" viewBox="0 0 32 32" version="1.1" xmlns="http://www.w3.org/2000/svg" xmlns:xlink="http://www.w3.org/1999/xlink">
    <!-- Generator: Sketch 53.2 (72643) - https://sketchapp.com -->
    <title>wait-outline-fill</title>
    <desc>Created with Sketch.</desc>
    <g id="wait-outline" stroke="none" stroke-width="1" fill="none" fill-rule="evenodd">
        <path d="M23,2 L9,2 L9,9.89150472 C9,10.2362948 9.1776197,10.5567647 9.47000106,10.739503 L16,14.8207524 L22.5299989,10.739503 C22.8223803,10.5567647 23,10.2362948 23,9.89150472 L23,2 Z M25,2 L25,9.89150472 C25,10.9258748 24.4671409,11.8872846 23.5899968,12.4354996 L17.8867962,16 L23.5899968,19.5645004 C24.4671409,20.1127154 25,21.0741252 25,22.1084953 L25,30 L28,30 L28,32 L4,32 L4,30 L7,30 L7,22.1084953 C7,21.0741252 7.53285909,20.1127154 8.41000318,19.5645004 L14.1132038,16 L8.41000318,12.4354996 C7.53285909,11.8872846 7,10.9258748 7,9.89150472 L7,2 L4,2 L4,0 L28,0 L28,2 L25,2 Z M16,17.1792476 L9.47000106,21.260497 C9.1776197,21.4432353 9,21.7637052 9,22.1084953 L9,30 L23,30 L23,22.1084953 C23,21.7637052 22.8223803,21.4432353 22.5299989,21.260497 L16,17.1792476 Z" id="Icon/Wait/Outline" fill="#2D2D2D"></path>
    </g>
</svg>