<svg xmlns="http://www.w3.org/2000/svg" viewBox="0 0 100 100"><g id="Outline"><path d="M79.83,49.22V44.37H69.38A24.81,24.81,0,0,0,72.9,32.51l-.13-6.74-1.22,0-3.92.08,1.46-9.93c.1-.65-.08-1-.73-1.06L62.66,14c-1.42-.21-2.8,1-3.08,2.91L56.87,35.41c-.28,1.9.7,3.46,2.11,3.68l5.71.85c.65.09.9-.16,1-.81l1.58-10.8,3.12-.06.08,4.29a21.53,21.53,0,0,1-4.13,11.81H51.85v4.85H70.68V72.84H24.17c-2.31,0-4,1.45-4,3.19v8.91c0,.79.34,1.06,1.14,1.06H78c.79,0,1.14-.27,1.14-1.06V76c0-1.74-1.69-3.19-4-3.19H73.43V49.22ZM63.21,37.32l-3.88-.58s-.23-.33-.13-1l2.71-18.49c.09-.66.36-.9.41-.9l3.87.58Zm2.43,44.51a2.63,2.63,0,1,1,2.63-2.63A2.63,2.63,0,0,1,65.64,81.83Zm-4.22.87H53.86a5.46,5.46,0,0,0,0-7h7.56a5.46,5.46,0,0,0,0,7ZM33.64,76.57A2.63,2.63,0,1,1,31,79.2,2.63,2.63,0,0,1,33.64,76.57Zm4.22-.87h7.55a5.49,5.49,0,0,0,0,7H37.86a5.49,5.49,0,0,0,0-7Zm14.41,3.5a2.63,2.63,0,1,1-2.63-2.63A2.63,2.63,0,0,1,52.27,79.2ZM23,76s.35-.33,1.15-.33h5.24a5.49,5.49,0,0,0,0,7H23Zm53.23,0V82.7H69.86a5.46,5.46,0,0,0,0-7h5.25C75.91,75.7,76.25,76,76.25,76Z"/></g></svg>