<?xml version="1.0" encoding="UTF-8"?>
<svg width="32px" height="32px" viewBox="0 0 32 32" version="1.1" xmlns="http://www.w3.org/2000/svg" xmlns:xlink="http://www.w3.org/1999/xlink">
    <!-- Generator: Sketch 53.2 (72643) - https://sketchapp.com -->
    <title>wealth-outline-fill</title>
    <desc>Created with Sketch.</desc>
    <g id="wealth-outline" stroke="none" stroke-width="1" fill="none" fill-rule="evenodd">
        <path d="M32,3 L32,18.6355556 L29.4044444,18.6355556 L29.4044444,25.0044444 C29.4044444,26.6977778 27.1822222,28.0311111 24.3244444,28.0311111 C21.4666667,28.0311111 19.2444444,26.7022222 19.2444444,25.0044444 L19.2444444,22.9644444 L0,22.9644444 L0,7.32888889 L4.04888889,7.32888889 L4.04888889,3 L32,3 Z M1.63111111,8.96 L1.63111111,21.3333333 L19.2444444,21.3333333 L19.2444444,16.8533333 C19.2444444,15.16 21.4755556,13.8266667 24.3244444,13.8266667 C24.9949275,13.8251308 25.6632504,13.902704 26.3155556,14.0577778 L26.3155556,8.96 L1.63111111,8.96 Z M28.0844444,16.8533333 C28.0844444,16.0488889 26.4755556,15.1466667 24.3244444,15.1466667 C22.1733333,15.1466667 20.5644444,16.0311111 20.5644444,16.8533333 C20.5644444,17.6755556 22.1733333,18.5644444 24.3244444,18.5644444 C26.4755556,18.5644444 28.0844444,17.6622222 28.0844444,16.8533333 Z M24.3244444,26.7111111 C26.4755556,26.7111111 28.0844444,25.8088889 28.0844444,25.0044444 L28.0844444,24.3022222 C26.9481924,24.9757151 25.6448463,25.3146468 24.3244444,25.28 C23.0040426,25.3146468 21.7006965,24.9757151 20.5644444,24.3022222 L20.5644444,25.0044444 C20.5644444,25.8222222 22.1733333,26.7111111 24.3244444,26.7111111 Z M24.3244444,23.96 C26.4755556,23.96 28.0844444,23.0577778 28.0844444,22.2488889 L28.0844444,21.6666667 C26.9490418,22.3421961 25.6450966,22.6812836 24.3244444,22.6444444 C23.0037923,22.6812836 21.6998471,22.3421961 20.5644444,21.6666667 L20.5644444,22.2488889 C20.5644444,23.0711111 22.1733333,23.96 24.3244444,23.96 Z M24.3244444,21.3244444 C26.4755556,21.3244444 28.0844444,20.4222222 28.0844444,19.6177778 L28.0844444,18.9066667 C26.9490418,19.5821961 25.6450966,19.9212836 24.3244444,19.8844444 C23.0037923,19.9212836 21.6998471,19.5821961 20.5644444,18.9066667 L20.5644444,19.6177778 C20.5644444,20.4355556 22.1733333,21.3244444 24.3244444,21.3244444 Z M30.3688889,17.0044444 L30.3688889,4.62666667 L5.68444444,4.62666667 L5.68444444,7.32888889 L27.9511111,7.32888889 L27.9511111,14.7155556 C28.8533333,15.2577778 29.4044444,16.0133333 29.4044444,16.8533333 L29.4044444,17.0044444 L30.3688889,17.0044444 Z M13.9733333,10.0844444 C16.1111111,10.0844444 17.7777778,12.3066667 17.7777778,15.1466667 C17.7777778,17.9866667 16.1066667,20.2088889 13.9733333,20.2088889 C11.84,20.2088889 10.1644444,17.9866667 10.1644444,15.1466667 C10.1644444,12.3066667 11.84,10.0844444 13.9733333,10.0844444 Z M13.9733333,18.7244444 C15.2355556,18.7244444 16.2977778,17.1066667 16.2977778,15.1688889 C16.2977778,13.2311111 15.2311111,11.5911111 13.9733333,11.5911111 C12.7155556,11.5911111 11.6488889,13.2533333 11.6488889,15.1688889 C11.6488889,17.0844444 12.7155556,18.7244444 13.9733333,18.7244444 Z" id="Combined-Shape" fill="#2D2D2D" fill-rule="nonzero"></path>
    </g>
</svg>