<svg xmlns="http://www.w3.org/2000/svg" viewBox="0 0 100 100"><g id="Outline"><path d="M83.72,17.14H16.28A2.28,2.28,0,0,0,14,19.42V71.34a2.28,2.28,0,0,0,2.28,2.28H47.73V78.3H36.11v4.56H63.89V78.3H52.29V73.62H83.72A2.28,2.28,0,0,0,86,71.34V19.42A2.28,2.28,0,0,0,83.72,17.14ZM81.44,69.06H18.56V21.7H81.44Z"/><path d="M63.87,46.15H61.36a11.36,11.36,0,1,1-22.72,0H36.13A13.88,13.88,0,0,0,48.75,60v3.68H43.31v2.51H56.69V63.64H51.26V60A13.87,13.87,0,0,0,63.87,46.15Z"/><path d="M50,54.64a7.81,7.81,0,0,0,7.8-7.8V33.76a7.8,7.8,0,0,0-15.59,0V46.84A7.81,7.81,0,0,0,50,54.64Zm0-2.51a5.29,5.29,0,0,1-5.28-5.29V37.13H55.29v9.71A5.29,5.29,0,0,1,50,52.13Zm0-23.66a5.3,5.3,0,0,1,5.29,5.29v.87H44.72v-.87A5.3,5.3,0,0,1,50,28.47Z"/></g></svg>