<svg xmlns="http://www.w3.org/2000/svg" viewBox="0 0 100 100"><g id="Outline"><path d="M78.12,37.82c0-2.47-1-6.61-7.56-6.62H61.37C59.51,30.51,58,29.48,58,27.92c0-.82,0-1.51,0-2.12h4.42a4.74,4.74,0,0,0,4.73-4.74V18.73A4.73,4.73,0,0,0,62.41,14h-25a4.73,4.73,0,0,0-4.73,4.73v2.33A4.74,4.74,0,0,0,37.4,25.8h4A19.66,19.66,0,0,1,41.47,28a3,3,0,0,1-1,2.33,5.07,5.07,0,0,1-1.34.9H28.55c-4.17,0-6.67,2.5-6.67,6.65q0,8.31,0,16.62V67.64q0,8.08,0,16.17V86l56.24,0V83.78Q78.13,60.8,78.12,37.82ZM41,21.31H37.4a.25.25,0,0,1-.24-.25V18.73a.24.24,0,0,1,.24-.24h25a.24.24,0,0,1,.24.24v2.33a.25.25,0,0,1-.24.25H41ZM53.5,25.8c0,.67,0,1.4,0,2.22a6.67,6.67,0,0,0,.83,3.18H45.28A7.69,7.69,0,0,0,46,28c0-.8,0-1.51-.1-2.17ZM26.26,81.62q0-7,0-14V54.47q0-8.31,0-16.62c0-1.61.51-2.19,2-2.26H70.84c2.89.07,2.9,1.12,2.9,2.23q0,21.89,0,43.77Z"/></g></svg>