<svg xmlns="http://www.w3.org/2000/svg" viewBox="0 0 100 100"><g id="Outline"><path d="M49.9,54.33a21,21,0,0,0-13.61,5,1.89,1.89,0,0,0-.11,2.77l1,1a1.84,1.84,0,0,0,2.51.11A15.88,15.88,0,0,1,49.9,59.46,15.72,15.72,0,0,1,60.14,63.2a1.83,1.83,0,0,0,2.5-.11l1-1a1.89,1.89,0,0,0-.11-2.77A21,21,0,0,0,49.9,54.33Z"/><path d="M73.72,45.2A37.8,37.8,0,0,0,26,45.28a1.89,1.89,0,0,0-.7,1.33A1.87,1.87,0,0,0,25.74,48l.93,1a1.8,1.8,0,0,0,1.37.61,1.91,1.91,0,0,0,1.21-.43,32.71,32.71,0,0,1,41.22-.06A1.86,1.86,0,0,0,73,49l.93-1a1.91,1.91,0,0,0,.46-1.39A1.94,1.94,0,0,0,73.72,45.2Z"/><path d="M85.23,31.64a55.49,55.49,0,0,0-70.66-.3,1.82,1.82,0,0,0-.67,1.28,1.94,1.94,0,0,0,.45,1.4l.9,1a1.87,1.87,0,0,0,2.61.21,50.39,50.39,0,0,1,64.05.27,1.88,1.88,0,0,0,1.21.44,1.81,1.81,0,0,0,1.39-.63l.91-1a1.89,1.89,0,0,0,.47-1.4A1.85,1.85,0,0,0,85.23,31.64Z"/><ellipse cx="49.97" cy="75.45" rx="6.32" ry="6.34"/></g></svg>