<svg xmlns="http://www.w3.org/2000/svg" viewBox="0 0 100 100"><g id="Outline"><path d="M58.85,40.88a8.92,8.92,0,0,0-3.08-5.34L54.32,17l-.21-3.21H45.9L45.69,17,44.23,35.54a9,9,0,0,0-3.07,5.34L20,55l4.11,7.1L44.64,52,39.15,86v.29H60.89L55.37,52l17.68,8.72,2.89,1.43L80,55ZM43.38,48.51l-17.84,8.8-.65-1.13,16.54-11A9.16,9.16,0,0,0,43.38,48.51Zm8.24,2.76,5.24,31.08H43.29l5.1-31.08A8.36,8.36,0,0,0,51.62,51.27Zm1-4.25a5.36,5.36,0,0,1-1.21.51l.07.24h0l-.16-.21-.53.11-.17,0a4.79,4.79,0,0,1-1.31,0l-.16,0-.54-.11-.06.24,0-.27a5.3,5.3,0,0,1-3.86-5.1,3.87,3.87,0,0,1,0-.48v-.14a2.7,2.7,0,0,1,.07-.41v-.07c0-.15.07-.29.11-.43l0-.14a2.47,2.47,0,0,1,.1-.29c0-.06.05-.12.07-.17s.09-.19.13-.28l.15-.26.12-.2c.05-.07.1-.14.14-.21l.1-.13a5.89,5.89,0,0,1,.69-.74,5.46,5.46,0,0,1,1.18-.8A5.22,5.22,0,0,1,50,37.13a5.16,5.16,0,0,1,2.34.55,5.29,5.29,0,0,1,1.18.79l0,.05a6.19,6.19,0,0,1,.65.7l.1.13c0,.07.09.14.14.21l.12.2a2.29,2.29,0,0,1,.14.27,1.71,1.71,0,0,1,.14.27l.07.17.12.34,0,.09c0,.14.08.28.11.43l0,.12c0,.12,0,.24.06.37V42a3.87,3.87,0,0,1,0,.48A5.34,5.34,0,0,1,52.66,47Zm-4.6-13.36,1.29-16.22h1.3L52,33.66a8.71,8.71,0,0,0-3.89,0ZM75.12,56.18l-.65,1.13-17.84-8.8a9,9,0,0,0,1.94-3.38Z"/></g></svg>