<svg xmlns="http://www.w3.org/2000/svg" viewBox="0 0 100 100"><defs><style>.cls-1{fill-rule:evenodd;}</style></defs><g id="Outline"><path class="cls-1" d="M39.5,18.48h-21v21h21ZM41.75,14A2.25,2.25,0,0,1,44,16.23V41.74A2.25,2.25,0,0,1,41.75,44H16.26A2.25,2.25,0,0,1,14,41.74V16.23A2.25,2.25,0,0,1,16.26,14Z"/><path id="Outline-v2" d="M27.63,52v26l-5.95-6A2.06,2.06,0,1,0,18.76,75L29.7,86,40.64,75a2.06,2.06,0,1,0-2.92-2.92l-5.95,6V52"/><path class="cls-1" d="M60.51,81.48h21v-21h-21ZM58.26,86A2.25,2.25,0,0,1,56,83.73V58.22A2.25,2.25,0,0,1,58.26,56h25.5A2.25,2.25,0,0,1,86,58.22V83.73A2.25,2.25,0,0,1,83.76,86Z"/><path id="Outline-v2-2" data-name="Outline-v2" d="M72.38,47.93v-26l6,6a2.06,2.06,0,0,0,2.92-2.92L70.32,14l-10.94,11a2.06,2.06,0,0,0,2.92,2.92l6-6v26"/></g></svg>