<svg xmlns="http://www.w3.org/2000/svg" viewBox="0 0 100 100"><g id="Outline"><path d="M81.5,23H14V77H86V27.5A4.51,4.51,0,0,0,81.5,23Zm0,49.5h-63v-45h63ZM25.82,42.32l4.1,6.42,4.27-6.42h2.44l-5.43,8L37,58.75H34.31L29.89,52l-4.55,6.79H22.88L28.6,50.3l-5.4-8Zm19.7,0c2,0,3.4.42,4.12,1.25a4.18,4.18,0,0,1,1.1,2.78,4,4,0,0,1-.63,2.26A3.75,3.75,0,0,1,48.3,50v0a3.77,3.77,0,0,1,2.33,1.38,4.14,4.14,0,0,1,.8,2.57A4.47,4.47,0,0,1,50,57.4a4.88,4.88,0,0,1-3.49,1.35h-8V42.32Zm-.35,7.07a4.38,4.38,0,0,0,2.52-.61,2.3,2.3,0,0,0,.87-2,2.5,2.5,0,0,0-.73-1.94,4,4,0,0,0-2.63-.66H40.69v5.23Zm1.09,7.52a3,3,0,0,0,2.16-.79A2.83,2.83,0,0,0,49.25,54c0-1.82-1.22-2.74-3.66-2.74h-4.9v5.69ZM60.84,42.32A5.22,5.22,0,0,1,64.4,43.5a4,4,0,0,1,1.34,3.13q0,3.34-2.86,4.16v0A2.59,2.59,0,0,1,64.74,52a7.08,7.08,0,0,1,.65,3.13,10,10,0,0,0,.27,2.25,3.66,3.66,0,0,0,.65,1.36H63.87a1.66,1.66,0,0,1-.26-.54c0-.18-.08-.42-.13-.73l-.09-1.79a6.68,6.68,0,0,0-.62-2.76,2.22,2.22,0,0,0-2.16-1.2H55.2v7H53V42.32Zm-1,7.57q3.68,0,3.68-2.92a2.8,2.8,0,0,0-.73-2.07,2.86,2.86,0,0,0-2.1-.74H55.2v5.73Zm9.85-7.57V56.91h8.69v1.84H67.53V42.32Z"/></g></svg>