<?xml version="1.0" encoding="UTF-8"?>
<svg width="32px" height="32px" viewBox="0 0 32 32" version="1.1" xmlns="http://www.w3.org/2000/svg" xmlns:xlink="http://www.w3.org/1999/xlink">
    <!-- Generator: Sketch 50.2 (55047) - http://www.bohemiancoding.com/sketch -->
    <title>xls-outline</title>
    <desc>Created with Sketch.</desc>
    <defs></defs>
    <g id="xls" stroke="none" stroke-width="1" fill="none" fill-rule="evenodd">
        <path d="M30,4 C31.104,4 32,4.896 32,6 L32,28 L0,28 L0,4 L30,4 Z M2,26 L30,26 L30,6 L2,6 L2,26 Z M9.48160351,14.7343124 L10.7995607,12.1121495 L12.9412411,12.1121495 L10.6512905,15.9679573 L13.1169687,19.8878505 L10.8654585,19.8878505 L9.50356947,17.212283 L8.1416804,19.8878505 L6,19.8878505 L8.35035695,15.9679573 L6.06040637,12.1121495 L8.1856123,12.1121495 L9.48160351,14.7343124 Z M15.5936299,18.4993324 L19.02581,18.4993324 L19.02581,19.8878505 L13.7375069,19.8878505 L13.7375069,12.1121495 L15.5936299,12.1121495 L15.5936299,18.4993324 Z M24.143877,17.8264352 C24.143877,17.5487303 24.0505226,17.3360043 23.8638111,17.188251 C23.6770996,17.0404977 23.3384612,16.8829559 22.8478858,16.7156208 C21.8557519,16.4023126 21.1189847,16.0685376 20.6375618,15.7142857 C20.1561389,15.3600338 19.9154311,14.8500256 19.9154311,14.1842457 C19.9154311,13.532707 20.1954942,13.0057875 20.7556288,12.6034713 C21.3157634,12.2011551 22.0278192,12 22.8918177,12 C23.8034093,12 24.5374309,12.2073856 25.0939044,12.6221629 C25.650378,13.0369402 25.9194583,13.6217141 25.9011532,14.376502 L25.8901702,14.4085447 L24.0889621,14.4085447 C24.0889621,14.0418317 23.9864554,13.7757018 23.7814388,13.6101469 C23.5764222,13.444592 23.2670714,13.3618158 22.8533773,13.3618158 C22.5165643,13.3618158 22.251145,13.4419218 22.0571115,13.6021362 C21.8630779,13.7623506 21.7660626,13.9599454 21.7660626,14.1949266 C21.7660626,14.4227871 21.8658236,14.6052508 22.0653487,14.7423231 C22.2648738,14.8793954 22.637376,15.0511783 23.1828666,15.2576769 C24.1091022,15.5247009 24.8101752,15.8504654 25.2861065,16.23498 C25.7620379,16.6194946 26,17.1464141 26,17.8157543 C26,18.4993359 25.7254283,19.034266 25.1762768,19.4205607 C24.6271252,19.8068555 23.8985951,20 22.9906645,20 C22.0863949,20 21.32034,19.7926144 20.6924767,19.3778371 C20.0646134,18.9630598 19.7598388,18.3106409 19.7781439,17.4205607 L19.7891269,17.388518 L21.5958265,17.388518 C21.5958265,17.8406787 21.7102313,18.1619928 21.9390445,18.35247 C22.1678576,18.5429471 22.5183941,18.6381842 22.9906645,18.6381842 C23.3787316,18.6381842 23.6679471,18.5634186 23.8583196,18.4138852 C24.0486921,18.2643517 24.143877,18.068537 24.143877,17.8264352 Z" id="Combined-Shape" fill="#212121"></path>
    </g>
</svg>