<svg
    role="presentation"
    aria-hidden="true"
    style="position: absolute; width: 0; height: 0; overflow: hidden;"
    version="1.1"
    xmlns="http://www.w3.org/2000/svg"
>
    <defs>

        <!-- Settings -->
        <symbol id="icon-settings-dots" viewBox="0 0 4 20">
            <path fill-rule="evenodd" d="M3.4286 1.7143C3.4286.7673 2.6613 0 1.7143 0S0 .7672 0 1.7143c0 .947.7672 1.7143 1.7143 1.7143.947 0 1.7143-.7673 1.7143-1.7143Zm0 16.5715c0-.947-.7673-1.7143-1.7143-1.7143S0 17.3388 0 18.2858c0 .9471.7672 1.7143 1.7143 1.7143.947 0 1.7143-.7672 1.7143-1.7143Zm-1.7143-10c.947 0 1.7143.7671 1.7143 1.7142 0 .947-.7673 1.7143-1.7143 1.7143S0 10.947 0 10s.7672-1.7143 1.7143-1.7143Z" clip-rule="evenodd"/>
        </symbol>

        <!-- Exclamation Triangle -->
        <symbol id="icon-exclamation-triangle" width="22" height="20" viewBox="0 0 22 20">
            <path d="M21.3071 17.3226c.4817.8283-.1207 1.8649-1.0854 1.8649H1.7315c-.9647 0-1.5672-1.0366-1.0855-1.8649l9.2451-15.888c.483-.8295 1.6879-.8295 2.1709 0l9.2451 15.888Zm-10.3305-.7601c.7242 0 1.3125-.5868 1.3125-1.3125 0-.7243-.5883-1.3125-1.3125-1.3125-.7243 0-1.3125.5882-1.3125 1.3125 0 .7257.5882 1.3125 1.3125 1.3125Zm-1.3125-5.25h2.6249v-5.25H9.664v5.25Z"/>
        </symbol>

        <!-- Exclamation Circle -->
        <symbol id="icon-exclamation-circle" viewBox="0 0 22 22">
            <path fill-rule="evenodd" d="M10.9766 21.5c-5.7987 0-10.5-4.7014-10.5-10.5S5.1779.5 10.9766.5c5.7986 0 10.5 4.7014 10.5 10.5s-4.7014 10.5-10.5 10.5Zm0-4.5938c.7245 0 1.3125-.5871 1.3125-1.3125 0-.7245-.588-1.3125-1.3125-1.3125s-1.3125.588-1.3125 1.3125c0 .7254.588 1.3125 1.3125 1.3125Zm-1.3125-5.25V5.0937h2.625v6.5625h-2.625Z" clip-rule="evenodd"/>
        </symbol>

        <!-- Cross Fill -->
        <symbol id="icon-cross-fill" viewBox="0 0 14 14">
            <path d="M7 5.4653 12.2153.25 13.75 1.7847 8.5347 7l5.215 5.2149-1.5348 1.5348L7 8.5347l-5.215 5.215-1.5347-1.5348L5.4653 7 .25 1.7847 1.7847.25 7 5.4653Z"/>
        </symbol>

        <!-- Chevron Up -->
        <symbol id="icon-chevron-up" viewBox="0 0 24 24">
            <path fill-rule="nonzero" d="m12 4.5 11.3408 11.3408c.879.878.879 2.303 0 3.1819-.879.878-2.303.878-3.182 0L12 10.8629l-8.1588 8.1598c-.44.439-1.015.659-1.591.659-.576 0-1.152-.22-1.591-.659-.879-.879-.879-2.304 0-3.182L12 4.5Z"/>
        </symbol>

        <!-- Chevron Right -->
        <symbol id="icon-chevron-right" viewBox="0 0 24 24">
            <path fill-rule="nonzero" d="M8.341 23.3408 19.6816 12 8.3409.6592c-.878-.879-2.303-.879-3.182 0-.8779.879-.8779 2.303 0 3.182L13.319 12l-8.16 8.1588c-.4389.44-.6589 1.015-.6589 1.591 0 .576.22 1.152.659 1.591.879.879 2.304.879 3.182 0"/>
        </symbol>

        <!-- Chevron Left -->
        <symbol id="icon-chevron-left" viewBox="0 0 24 24">
            <path fill-rule="nonzero" d="M15.8408.6592 4.5 12l11.3408 11.3408c.878.879 2.303.879 3.1819 0 .878-.879.878-2.303 0-3.182L10.8629 12l8.1598-8.1588c.439-.44.659-1.015.659-1.591 0-.576-.22-1.152-.659-1.591-.879-.879-2.304-.879-3.182 0"/>
        </symbol>

        <!-- Chevron Down -->
        <symbol id="icon-chevron-down" viewBox="0 0 24 24">
            <path fill-rule="nonzero" d="M12 19.6817 23.3408 8.3409c.879-.878.879-2.303 0-3.182-.879-.8779-2.303-.8779-3.182 0L12 13.319l-8.1588-8.16A2.2452 2.2452 0 0 0 2.2502 4.5c-.576 0-1.152.22-1.591.659-.879.879-.879 2.304 0 3.182L12 19.6816Z"/>
        </symbol>

        <!-- Checkmark Circle -->
        <symbol id="icon-checkmark-circle" viewBox="0 0 21 21">
            <path fill-rule="evenodd" d="M21 10.5C21 4.7005 16.2986 0 10.5 0 4.7005 0 0 4.7005 0 10.5 0 16.2986 4.7005 21 10.5 21 16.2986 21 21 16.2986 21 10.5Zm-4.7066-2.6338-7.0945 7.1199-3.9567-3.9559L7.098 9.1743 9.1954 11.27l5.2387-5.257 1.8593 1.8532Z" clip-rule="evenodd"/>
        </symbol>

    </defs>
</svg>
