<svg xmlns="http://www.w3.org/2000/svg" width="100" height="77" viewBox="0 0 100 77" fill="none">
  <mask id="mask0_1911_106" style="mask-type:alpha" maskUnits="userSpaceOnUse" x="0" y="0" width="100" height="77">
    <path d="M0 0.00341797H99.827V76.9787H0V0.00341797Z" fill="white"/>
  </mask>
  <g mask="url(#mask0_1911_106)">
    <path fill-rule="evenodd" clip-rule="evenodd" d="M94.7431 33.4089H98.4153V26.1537H94.7431V33.4089ZM85.116 33.4089H93.3313V26.1537H85.116V33.4089ZM62.9737 4.06042H79.6566V1.42416H62.9737V4.06042ZM81.0687 10.0954H83.7039V5.48116H81.0687V10.0954ZM81.0687 24.7326H83.7039V11.5162H81.0687V24.7326ZM81.0687 33.4089H83.7039V26.1537H81.0687V33.4089ZM73.816 33.4089H79.6566V26.1537H73.816V33.4089ZM62.9737 33.4089H72.4046V26.1537H62.9737V33.4089ZM62.9737 11.5165L62.9754 19.6742L73.816 19.6739V24.7326H79.6566V11.5165H62.9737ZM62.9737 10.0954H79.6566V5.48116H62.9737V10.0954ZM62.9737 24.7326H72.4046V21.095H62.9737V24.7326ZM85.116 24.7326H93.3313V11.5162H85.116V24.7326ZM99.827 24.7326V34.8296H61.5619V0.00341797H81.0687V4.06042H85.116V10.0954H94.7431V24.7326H99.827ZM43.5416 39.3637H61.5619V34.8296H43.5416V39.3637ZM9.07011 68.6269C10.2726 68.7659 11.4391 68.8088 12.1406 68.8088C18.3406 68.8088 22.2751 64.8156 22.2751 58.8801C22.2751 53.7458 19.3263 50.0377 15.3313 50.0377C13.6014 50.0377 12.4427 50.3951 9.07011 52.4146V49.9431H7.20142L0 52.1446V53.9195H2.98185V74.615L0.299288 75.2865V76.9998H12.0708L12.0705 75.2865L9.07011 74.615V68.6269ZM9.07011 54.1108C10.1338 53.9808 10.6612 53.9195 11.1633 53.9195C14.1808 53.9195 15.8153 55.9377 15.8153 59.7329C15.8153 64.2161 13.8174 66.5547 10.09 66.5547C9.77865 66.5547 9.56263 66.5547 9.07011 66.5314V54.1108ZM50.148 59.7329C52.9402 56.1909 53.926 54.7626 53.926 53.0231C53.926 51.2915 52.5601 49.8976 50.7352 49.8976C49.6117 49.8976 48.5996 50.4316 48.1057 50.9867V58.2018L43.531 64.336V50.351H39.1815L31.952 62.4139V50.351H29.4523L22.8893 51.9612V53.6499L26.469 54.0155V68.8088H31.0964L38.031 57.3401V68.8088H43.0982L50.148 59.7329ZM65.5146 51.9086C62.4007 52.4146 60.8089 54.7297 60.8089 58.8031C60.8089 62.902 62.9295 65.6429 66.1808 65.6429C67.6936 65.6429 69.068 65.1368 71.9573 63.7107V67.0264C68.4893 68.6269 66.448 69.1222 63.6541 69.1222C60.6288 69.1222 58.5011 68.3135 56.763 66.5314C54.9815 64.7382 54.0907 62.3695 54.0907 59.7329C54.0907 53.8665 58.406 49.8976 64.7096 49.8976C68.8957 49.8976 71.7751 51.8223 71.7751 54.6494C71.7751 56.4695 70.4356 57.7223 68.4466 57.7223C67.4263 57.7223 66.5872 57.4529 65.5146 56.8262V51.9086Z" fill="#111111"/>
  </g>
</svg>
