<svg xmlns="http://www.w3.org/2000/svg" width="42" height="16" viewBox="0 0 42 16">
    <title>PwC logo</title>
    <path fill-rule="evenodd" d="M29.621 0c-.6574 0-1.2553.3046-1.5343.649v4.258l-2.6715 3.6308V.2838h-2.5517l-4.2254 7.1178V.2838h-1.4552l-3.8275.9526v.9943l2.0942.2233v8.7392h2.7106l4.0459-6.7725v6.7725h2.9701L29.2826 5.8c1.6347-2.0888 2.2122-2.9402 2.2122-3.9553C31.4948.8316 30.6979 0 29.621 0Zm9.01 9.2874c-1.8932 0-3.129-1.6224-3.129-4.0347 0-2.4133.9363-3.7718 2.7506-4.0764l-.0196 2.9203c.6175.3652 1.1159.527 1.7138.527 1.1763 0 1.9537-.7502 1.9537-1.825 0-1.663-1.6747-2.7982-4.1269-2.7982-3.6869 0-6.1986 2.332-6.1986 5.799 0 1.5619.518 2.961 1.5538 4.0149 1.0174 1.035 2.2532 1.5212 4.0274 1.5212 1.6348 0 2.8101-.2838 4.8438-1.2374v-1.947c-1.6747.8316-2.4921 1.1363-3.369 1.1363ZM5.3032 9.814c.279.0208.4175.0208.598.0208 2.173 0 3.3484-1.3793 3.3484-4.0347 0-2.2307-.9568-3.4284-2.7116-3.4284-.2817 0-.5634.0371-1.1142.1097l-.1011.0133-.0195 7.3193Zm0-8.3334C7.2764.284 7.9533.0815 8.9502.0815c2.3331 0 4.0469 2.19 4.0469 5.2116 0 3.5077-2.2922 5.8605-5.9206 5.8605-.398 0-1.0964-.0199-1.7938-.1012l.0205 3.5276 1.7537.4059V16H.1804v-1.0141l1.5743-.4059V2.3717H0V1.3179L4.2069.0199h1.0963v1.4607Z" clip-rule="evenodd"/>
</svg>
