<svg xmlns="http://www.w3.org/2000/svg" width="917" height="656" fill="none"><path fill="#fff" fill-rule="evenodd" d="M613.482 355.243A310.904 310.904 0 0 0 617 308.5C617 138.12 478.88 0 308.5 0S0 138.12 0 308.5c0 15.89 1.201 31.5 3.518 46.743h609.964Z" clip-rule="evenodd"/><path fill="#DEDEDE" d="M428.071 242.837H177.259a6.454 6.454 0 0 1-4.564-1.9 6.493 6.493 0 0 1-1.893-4.58V81.168a4.759 4.759 0 0 1 1.387-3.355 4.727 4.727 0 0 1 3.343-1.392h254.184a4.812 4.812 0 0 1 3.402 1.416 4.847 4.847 0 0 1 1.411 3.413v155.107a6.498 6.498 0 0 1-1.894 4.58 6.452 6.452 0 0 1-4.564 1.9Z"/><path fill="#9AA4BE" d="m469.754 202.102 3.091.886-.827 2.884-3.091-.886.827-2.884Zm-1.274-9.403c.243-.846.586-1.58 1.031-2.201a5.305 5.305 0 0 1 1.617-1.459 5.18 5.18 0 0 1 2.077-.628c.772-.078 1.58.004 2.426.246a5.983 5.983 0 0 1 1.869.886 4.538 4.538 0 0 1 1.333 1.356c.352.517.574 1.105.668 1.764.094.659.035 1.358-.177 2.097-.154.538-.35.989-.588 1.354a3.561 3.561 0 0 1-.752.883 4.491 4.491 0 0 1-.865.576l-.923.434c-.363.162-.7.324-1.013.484-.312.16-.602.36-.87.599a3.61 3.61 0 0 0-.723.866c-.203.358-.383.814-.542 1.368l-2.492-.715a13.71 13.71 0 0 1 .582-1.68c.214-.455.448-.837.703-1.147.256-.31.528-.564.819-.764.31-.211.656-.403 1.039-.576.307-.145.595-.278.864-.401.283-.119.541-.261.772-.428.25-.178.461-.392.633-.642a2.85 2.85 0 0 0 .446-.946c.132-.461.16-.878.084-1.249a2.4 2.4 0 0 0-.346-.973 2.37 2.37 0 0 0-.612-.65 2.18 2.18 0 0 0-.653-.337c-.953-.274-1.751-.161-2.393.337-.623.487-1.084 1.254-1.384 2.3l-2.63-.754ZM146.611 198.248l3.146-.669.623 2.935-3.145.668-.624-2.934Zm-5.539-7.705c-.183-.861-.224-1.67-.123-2.427a5.303 5.303 0 0 1 .742-2.047 5.177 5.177 0 0 1 1.54-1.53c.644-.431 1.397-.739 2.258-.922a6.003 6.003 0 0 1 2.065-.095c.669.07 1.274.261 1.814.571a4.13 4.13 0 0 1 1.418 1.245c.392.538.668 1.183.828 1.934.117.547.155 1.038.117 1.472-.027.414-.11.792-.25 1.132a4.494 4.494 0 0 1-.493.915l-.611.817c-.245.313-.467.614-.667.902a4.156 4.156 0 0 0-.488.938c-.128.322-.205.69-.231 1.104-.011.412.043.899.163 1.462l-2.535.539a13.794 13.794 0 0 1-.276-1.757 5.418 5.418 0 0 1 .083-1.343c.08-.393.201-.746.364-1.058.175-.332.39-.664.647-.997.204-.272.395-.525.574-.76.195-.237.355-.484.481-.74.138-.274.224-.563.258-.864.05-.305.033-.653-.05-1.045-.1-.469-.271-.85-.513-1.142a2.42 2.42 0 0 0-.762-.697 2.384 2.384 0 0 0-.846-.286 2.165 2.165 0 0 0-.734.009c-.97.206-1.622.68-1.955 1.421-.321.723-.368 1.616-.142 2.68l-2.676.569Z"/><path fill="#fff" d="M418.922 233.662h-233.75c-3.426 0-6.214-2.62-6.214-5.84V92.682c0-2.388 2.066-4.33 4.605-4.33h236.892c2.581 0 4.681 1.974 4.681 4.401v135.069c0 3.22-2.787 5.84-6.214 5.84Z"/><path fill="#CCC" d="M434.439 80.799H170.711v-3.3a6.524 6.524 0 0 1 1.902-4.594 6.475 6.475 0 0 1 4.58-1.905h250.765a6.475 6.475 0 0 1 4.58 1.905 6.518 6.518 0 0 1 1.901 4.595v3.299Z"/><path fill="#fff" d="M182.49 77.592c.926 0 1.676-.753 1.676-1.682 0-.93-.75-1.682-1.676-1.682a1.68 1.68 0 0 0-1.677 1.682 1.68 1.68 0 0 0 1.677 1.682ZM188.853 77.592c.926 0 1.676-.753 1.676-1.682 0-.93-.75-1.682-1.676-1.682-.926 0-1.676.753-1.676 1.682 0 .929.75 1.682 1.676 1.682ZM195.216 77.592c.926 0 1.676-.753 1.676-1.682 0-.93-.75-1.682-1.676-1.682-.926 0-1.676.753-1.676 1.682 0 .929.75 1.682 1.676 1.682Z"/><path fill="#F8F8F8" d="M201.536 207h202.928c1.999 0 3.915-.81 5.329-2.251a7.768 7.768 0 0 0 2.207-5.436v-89.626a7.764 7.764 0 0 0-2.207-5.435 7.462 7.462 0 0 0-5.329-2.252H201.536c-1.999 0-3.915.81-5.329 2.252a7.764 7.764 0 0 0-2.207 5.435v89.626c0 2.039.794 3.994 2.207 5.436a7.465 7.465 0 0 0 5.329 2.251Z"/><path fill="#D2D7E2" d="M250.136 137.888h-.288l-17.376 23.328h17.664v-23.328Zm0 34.56H221.72v-12.48l29.184-39.168h12.192v40.416h8.928v11.232h-8.928V188h-12.96v-15.552Zm39.34-18.336c0 1.92.064 4.256.192 7.008a40.275 40.275 0 0 0 1.152 7.872c.704 2.496 1.792 4.64 3.264 6.432 1.472 1.792 3.584 2.688 6.336 2.688 2.816 0 4.96-.896 6.432-2.688 1.536-1.792 2.624-3.936 3.264-6.432a36.065 36.065 0 0 0 1.248-7.872c.128-2.752.192-5.088.192-7.008 0-1.152-.032-2.528-.096-4.128 0-1.664-.128-3.36-.384-5.088a33.973 33.973 0 0 0-.96-5.088c-.384-1.728-.992-3.264-1.824-4.608a10.297 10.297 0 0 0-3.168-3.264c-1.28-.832-2.848-1.248-4.704-1.248-1.856 0-3.424.416-4.704 1.248-1.216.832-2.24 1.92-3.072 3.264-.768 1.344-1.376 2.88-1.824 4.608a33.973 33.973 0 0 0-.96 5.088 70.674 70.674 0 0 0-.384 5.088v4.128Zm-13.632 0c0-6.528.64-12 1.92-16.416 1.344-4.48 3.136-8.064 5.376-10.752 2.24-2.688 4.832-4.608 7.776-5.76 3.008-1.152 6.176-1.728 9.504-1.728 3.392 0 6.56.576 9.504 1.728 3.008 1.152 5.632 3.072 7.872 5.76 2.304 2.688 4.096 6.272 5.376 10.752 1.344 4.416 2.016 9.888 2.016 16.416 0 6.72-.672 12.352-2.016 16.896-1.28 4.48-3.072 8.064-5.376 10.752-2.24 2.688-4.864 4.608-7.872 5.76-2.944 1.152-6.112 1.728-9.504 1.728-3.328 0-6.496-.576-9.504-1.728-2.944-1.152-5.536-3.072-7.776-5.76-2.24-2.688-4.032-6.272-5.376-10.752-1.28-4.544-1.92-10.176-1.92-16.896Zm81.58-16.224h-.288l-17.376 23.328h17.664v-23.328Zm0 34.56h-28.416v-12.48l29.184-39.168h12.192v40.416h8.928v11.232h-8.928V188h-12.96v-15.552Z"/><path fill="#FFB8B8" d="M421.813 273.141a3.923 3.923 0 0 1 5.996-.685l12.428-6.436-.772 7.251-11.684 5a3.952 3.952 0 0 1-2.61 1.05 3.952 3.952 0 0 1-2.645-.955 3.982 3.982 0 0 1-.713-5.225Z"/><path fill="#ADB9DF" d="M432.507 275.845a1.769 1.769 0 0 1-.596-.869l-.989-3.204a1.783 1.783 0 0 1 .621-1.933l10.074-7.635 10.909-20.309a5.692 5.692 0 0 1 1.673-1.455 5.654 5.654 0 0 1 6.289.45 5.696 5.696 0 0 1 1.992 6.002 5.708 5.708 0 0 1-.991 1.987l-6.207 13.144a18.175 18.175 0 0 1-9.183 8.914l-11.805 5.138a1.762 1.762 0 0 1-1.787-.23Z"/><path fill="#E1BC9C" d="M461.764 233.42c5.309 0 9.613-4.319 9.613-9.646 0-5.327-4.304-9.646-9.613-9.646-5.309 0-9.613 4.319-9.613 9.646 0 5.327 4.304 9.646 9.613 9.646ZM457.864 350.309h-4.798l-2.282-18.572 7.082.001-.002 18.571Z"/><path fill="#888" d="M449.638 348.933h9.254v5.846h-15.08a5.856 5.856 0 0 1 1.706-4.134 5.807 5.807 0 0 1 4.12-1.712Z"/><path fill="#E1BC9C" d="m473.519 350.31-4.798-.001-2.283-18.572 7.083.001-.002 18.572Z"/><path fill="#888" d="M465.294 348.935h9.253v5.846h-15.08a5.857 5.857 0 0 1 3.597-5.401 5.808 5.808 0 0 1 2.23-.445ZM473.869 345.597h-5.623a1.763 1.763 0 0 1-1.7-1.308l-8.094-30.123a.192.192 0 0 0-.082-.113.194.194 0 0 0-.259.042.193.193 0 0 0-.043.134l1.635 28.568c.015.253-.025.506-.117.742a1.756 1.756 0 0 1-1.046 1.023c-.238.085-.49.119-.742.098l-6.32-.529a1.768 1.768 0 0 1-1.603-1.557l-5.757-59.987 2.227 1.341 20.872-3.556 8.398 63.224a1.77 1.77 0 0 1-1.018 1.843 1.76 1.76 0 0 1-.728.158Z"/><path fill="#ADB9DF" d="M451.099 288.919a12.85 12.85 0 0 1-6.533-1.845 1.756 1.756 0 0 1-.836-1.802c.734-4.511 4.573-27.651 8.066-40.266 1.422-5.138 4.568-7.906 9.349-8.225 6.993-.46 13.209 5.03 13.856 12.253 1.142 12.743-3.496 30.849-5.543 38.042a1.775 1.775 0 0 1-1.148 1.193 1.758 1.758 0 0 1-1.626-.287l-4.173-3.257a1.376 1.376 0 0 0-1.768.074c-3.517 3.147-6.858 4.121-9.644 4.12Z"/><path fill="#000" d="m464.899 255.269 3.522 14.924-5.088 12.567 3.523-12.175-1.957-15.316Z" opacity=".2"/><path fill="#888" d="M467.248 231.706a6.46 6.46 0 0 0 2.5-.454c.35-.136.713-.247 1.063-.382 3.084-1.196 5.117-4.492 5.19-7.81.073-3.317-1.639-6.538-4.182-8.66-2.542-2.122-5.835-3.212-9.132-3.464-3.552-.271-7.552.633-9.537 3.601-.528.79-.898 1.748-.585 2.702.094.288.262.546.486.749.886.791 1.77.196 2.674.144 1.242-.073 2.357.936 2.758 2.118.401 1.182.224 2.483-.1 3.688a9.236 9.236 0 0 0-.462 2.242 2.25 2.25 0 0 0 .93 1.986c.776.47 1.796.198 2.572-.272.777-.47 1.448-1.123 2.286-1.469.839-.346 1.966-.269 2.454.498.155.279.26.583.31.899.438 2 .337 1.883.775 3.884Z"/><path fill="#E6E6E6" d="m452.349 336.837-60.193-21.035a4.141 4.141 0 0 1-2.357-2.11 4.157 4.157 0 0 1-.183-3.163l15.642-45.069a3.031 3.031 0 0 1 1.54-1.732 3.01 3.01 0 0 1 2.309-.135l62.228 21.746a3.08 3.08 0 0 1 1.756 1.572c.355.736.404 1.584.137 2.357l-15.625 45.02a4.139 4.139 0 0 1-2.102 2.364 4.116 4.116 0 0 1-3.152.185Z"/><path fill="#fff" d="m397.293 313.211 52.634 18.393a3.989 3.989 0 0 0 3.058-.177 4.011 4.011 0 0 0 2.037-2.294l12.631-36.393a4.03 4.03 0 0 0-.176-3.069 4.006 4.006 0 0 0-2.287-2.044l-52.634-18.394a3.993 3.993 0 0 0-3.058.177 4.011 4.011 0 0 0-2.038 2.295l-12.63 36.393a4.017 4.017 0 0 0 2.463 5.113Z"/><path fill="#415385" d="m410.511 287.642-2.607-.911a.57.57 0 0 1-.348-.722l.908-2.615a.566.566 0 0 1 .719-.349l2.607.911a.565.565 0 0 1 .347.721l-.908 2.616a.566.566 0 0 1-.718.349Z"/><path fill="#3F3D56" d="m408.158 294.419-2.607-.911a.564.564 0 0 1-.347-.721l.907-2.616a.566.566 0 0 1 .719-.349l2.607.911a.569.569 0 0 1 .348.722l-.908 2.615a.566.566 0 0 1-.719.349Z"/><path fill="#CCC" d="m405.806 301.197-2.606-.911a.565.565 0 0 1-.348-.721l.908-2.616a.565.565 0 0 1 .719-.348l2.607.911a.564.564 0 0 1 .347.721l-.908 2.616a.564.564 0 0 1-.719.348ZM428.027 292.297l-12.56-4.389a.578.578 0 0 1-.324-.289.564.564 0 0 1-.025-.433.593.593 0 0 1 .112-.191.546.546 0 0 1 .39-.188.54.54 0 0 1 .218.031l12.56 4.389a.564.564 0 0 1 .061 1.046.57.57 0 0 1-.432.024ZM425.674 299.074l-12.56-4.389a.569.569 0 0 1-.06-1.046.563.563 0 0 1 .432-.024l12.559 4.389c.07.024.135.062.191.111a.57.57 0 0 1-.344.99.577.577 0 0 1-.218-.031ZM423.321 305.852l-12.56-4.389a.565.565 0 0 1-.347-.721.566.566 0 0 1 .719-.349l12.559 4.389a.562.562 0 0 1 .348.721.564.564 0 0 1-.719.349Z"/><path fill="#E1BC9C" d="M459.168 289.285a3.96 3.96 0 0 1 1.16-3.133 3.926 3.926 0 0 1 3.137-1.119l5.821-12.761 3.852 6.185-6.118 11.17a3.972 3.972 0 0 1-1.409 2.441 3.945 3.945 0 0 1-5.251-.228 3.985 3.985 0 0 1-1.192-2.555Z"/><path fill="#ADB9DF" d="M469.246 284.791c-.358 0-.708-.109-1.003-.314l-2.749-1.909a1.776 1.776 0 0 1-.7-1.906l3.231-12.245-3.905-22.736a5.706 5.706 0 0 1 1.64-4.038 5.672 5.672 0 0 1 4.006-1.69 5.656 5.656 0 0 1 4.022 1.651 5.715 5.715 0 0 1 1.679 4.022l3.2 14.186a18.27 18.27 0 0 1-1.744 12.701l-6.129 11.353a1.76 1.76 0 0 1-1.548.925Z"/><path fill="#97827F" d="M301.988 350.113h4.799l2.282-18.571h-7.081v18.571Z"/><path fill="#888" d="M300.764 348.541h9.45a6.023 6.023 0 0 1 5.563 3.73c.303.733.459 1.519.459 2.313v.196l-15.472.001v-6.24Z"/><path fill="#97827F" d="M282.811 350.113h4.798l2.283-18.571h-7.082l.001 18.571Z"/><path fill="#888" d="M281.586 348.541h9.45a6.023 6.023 0 0 1 5.564 3.73c.302.733.458 1.519.458 2.313v.196l-15.472.001v-6.24Z"/><path fill="#97827F" d="M302.947 221.542c5.309 0 9.612-4.319 9.612-9.646 0-5.327-4.303-9.646-9.612-9.646s-9.613 4.319-9.613 9.646c0 5.327 4.304 9.646 9.613 9.646Z"/><path fill="#888" d="M309.41 346.106h-8.904a1.76 1.76 0 0 1-1.633-1.106 1.775 1.775 0 0 1-.128-.683l.518-42.427a.584.584 0 0 0-.962-.461.591.591 0 0 0-.208.382l-5.182 42.741a1.76 1.76 0 0 1-1.749 1.554h-8.989a1.75 1.75 0 0 1-1.293-.567 1.763 1.763 0 0 1-.463-1.338l5.936-76.219.161-.018 28.426-3.08-3.77 79.539a1.764 1.764 0 0 1-1.76 1.683Z"/><path fill="#BBC4DF" d="M286.699 272.66a1.756 1.756 0 0 1-1.223-.5 1.77 1.77 0 0 1-.532-1.212c-.155-4.819-.421-21.495 2.67-33.737a16.071 16.071 0 0 1 5.401-8.509 15.987 15.987 0 0 1 9.39-3.603 16.077 16.077 0 0 1 9.582 2.537 16.162 16.162 0 0 1 6.292 7.683c5.196 13.237 10.105 29.552 3.985 32.111-8.022 3.353-29.167 4.848-35.457 5.226a1.3 1.3 0 0 1-.108.004Z"/><path fill="#97827F" d="M323.438 202.147c.151.156.314.299.488.429l-1.01 19.451-4.197 2.156 2.415 6.781 7.8-3.092a3.132 3.132 0 0 0 1.518-1.278 3.15 3.15 0 0 0 .449-1.935l-2.043-22.063a4.133 4.133 0 0 0 .148-6.492 4.098 4.098 0 0 0-6.315 1.417 4.133 4.133 0 0 0 .747 4.626Z"/><path fill="#BBC4DF" d="m322.997 222.749 2.953 8.42a1.77 1.77 0 0 1-1.327 2.321l-8.706 1.692a4.872 4.872 0 0 1-3.731-.222 4.904 4.904 0 0 1-2.486-2.801 4.925 4.925 0 0 1 .212-3.745 4.9 4.9 0 0 1 2.785-2.501l7.817-4.141a1.763 1.763 0 0 1 1.464-.082 1.763 1.763 0 0 1 1.019 1.059Z"/><path fill="#97827F" d="M281.801 202.147a4.06 4.06 0 0 1-.488.429l1.009 19.451 4.197 2.156-2.415 6.781-7.8-3.092a3.145 3.145 0 0 1-1.967-3.213l2.044-22.063a4.127 4.127 0 0 1 2.119-7.413 4.1 4.1 0 0 1 4.047 2.338 4.133 4.133 0 0 1-.746 4.626Z"/><path fill="#BBC4DF" d="M283.262 221.69a1.75 1.75 0 0 1 1.464.083l7.817 4.14a4.898 4.898 0 0 1 2.785 2.502 4.922 4.922 0 0 1 .212 3.744 4.904 4.904 0 0 1-2.486 2.801 4.872 4.872 0 0 1-3.731.222l-8.706-1.691a1.765 1.765 0 0 1-1.327-2.322l2.953-8.42a1.772 1.772 0 0 1 1.019-1.059Z"/><path fill="#888" d="M306.68 213.54a6.352 6.352 0 0 1 .886-3.506 6.317 6.317 0 0 1 2.653-2.45c2.922-1.514 4.757-4.743 3.953-7.691-1.03-3.773-6.148-6.221-10.296-4.923a19.04 19.04 0 0 0-3.233 1.508l-2.709 1.458a27.9 27.9 0 0 0-3.34 1.978 11.121 11.121 0 0 0-3.626 4.604 11.152 11.152 0 0 0-.785 5.815c.533 3.837 3.037 7.355 6.464 9.764a10.923 10.923 0 0 0 4.43 1.976c1.643.272 3.472-.037 4.673-1.062 1.877-1.603 1.684-4.285 1.076-6.526a4.79 4.79 0 0 1-.146-.945Z"/><path fill="#E6E6E6" d="m199.311 248.522-.789.325.054.132.788-.325-.053-.132ZM169.469 293.496l-.789.324.054.132.788-.324-.053-.132Z"/><ellipse cx="442.591" cy="295.143" fill="#9AA4BE" rx="8.135" ry="8.353"/><ellipse cx="451.088" cy="311.533" fill="#8C8C8C" rx="5.284" ry="5.498"/><ellipse cx="433.477" cy="312.71" fill="#CCC" rx="5.284" ry="5.498"/><path fill="#E6E6E6" d="m217.985 283.356-61.36 25.26a4.289 4.289 0 0 1-3.285-.013 4.304 4.304 0 0 1-2.317-2.339l-18.783-45.942a3.17 3.17 0 0 1 .009-2.416 3.158 3.158 0 0 1 1.707-1.703l63.434-26.113a3.193 3.193 0 0 1 2.449.01 3.208 3.208 0 0 1 1.727 1.742l18.762 45.892a4.328 4.328 0 0 1-.013 3.297 4.306 4.306 0 0 1-2.33 2.325Z"/><path fill="#fff" d="m158.848 303.043 53.655-22.088a4.173 4.173 0 0 0 2.261-2.254 4.193 4.193 0 0 0 .011-3.198l-15.168-37.098a4.165 4.165 0 0 0-3.838-2.592 4.155 4.155 0 0 0-1.595.312l-53.654 22.088a4.182 4.182 0 0 0-2.272 5.451l15.167 37.099a4.172 4.172 0 0 0 2.246 2.269 4.166 4.166 0 0 0 3.187.011Z"/><ellipse cx="173.794" cy="263.815" fill="#9AA4BE" rx="12.133" ry="12.371"/><ellipse cx="195.517" cy="273.83" fill="#9AA4BE" rx="6.066" ry="6.284"/><ellipse cx="172.034" cy="285.219" fill="#9AA4BE" rx="4.892" ry="5.105"/><path fill="#E6E6E6" d="m145.934 270.495-.788.324.053.132.789-.324-.054-.132ZM150.949 282.765l-.789.325.054.132.789-.325-.054-.132ZM165.418 283.589l-.788.325.054.132.788-.325-.054-.132ZM163.069 284.712l-1.615.665-.054-.132 1.615-.665.054.132Zm-3.231 1.33-1.615.665-.054-.132 1.615-.665.054.132Zm-3.23 1.33-1.615.665-.054-.132 1.615-.665.054.132ZM153.323 288.569l-.789.325.054.131.789-.324-.054-.132ZM167.119 294.618l-1.615.665-.054-.132 1.615-.665.054.132Zm-3.231 1.33-1.615.665-.054-.132 1.615-.665.054.132Zm-3.23 1.33-1.615.665-.054-.132 1.615-.665.054.132ZM157.373 298.475l-.789.325.054.132.789-.325-.054-.132Z"/><path fill="#3F3D56" d="M165.447 284.655a.996.996 0 0 0 .994-.999.996.996 0 0 0-.994-.998.996.996 0 0 0-.995.998c0 .552.445.999.995.999Z"/><path fill="#FFB5B1" d="M143.032 282.524a3.956 3.956 0 0 0 2.082-2.625 3.967 3.967 0 0 0-.669-3.287l2.955-28.985h-6.385l-2.348 28.302a3.992 3.992 0 0 0 1.559 6.892 3.96 3.96 0 0 0 2.806-.297Z"/><path fill="#F9BFA1" d="M148.896 231.629c4.989 0 9.033-4.058 9.033-9.064s-4.044-9.064-9.033-9.064-9.033 4.058-9.033 9.064 4.044 9.064 9.033 9.064Z"/><path fill="#FFB5B1" d="M150.596 264.507a1.648 1.648 0 0 1-1.592-1.217c-.724-2.639-2.607-7.1-5.597-13.26a11.023 11.023 0 0 1-.278-8.98 10.99 10.99 0 0 1 2.588-3.789 10.927 10.927 0 0 1 3.906-2.395 10.913 10.913 0 0 1 8.502.516 10.946 10.946 0 0 1 3.433 2.674 10.984 10.984 0 0 1 2.124 3.803c2.318 7.291 2.206 15.1 2.05 18.118a1.666 1.666 0 0 1-1.3 1.537l-13.481 2.955a1.7 1.7 0 0 1-.355.038Z"/><path fill="#9AA4BE" d="M163.651 350.58h4.508l2.146-17.452h-6.655l.001 17.452Z"/><path fill="#888" d="m176.855 354.781-14.171.001v-5.494h8.696a5.457 5.457 0 0 1 3.871 1.609 5.492 5.492 0 0 1 1.604 3.884Z"/><path fill="#9AA4BE" d="m118.565 344.717 3.951 2.179 10.259-14.255-5.831-3.217-8.379 15.293Z"/><path fill="#888" d="m128.12 354.781-12.418-6.85 2.637-4.815 7.621 4.204a5.497 5.497 0 0 1 2.62 3.282 5.513 5.513 0 0 1-.46 4.179ZM163.44 340.893a1.661 1.661 0 0 1-1.64-1.447l-5.638-43.603a.921.921 0 0 0-1.304-.716.92.92 0 0 0-.413.389L130.944 338.3a1.658 1.658 0 0 1-2.039.751l-5.122-1.958a1.662 1.662 0 0 1-.944-2.178l16.28-40.13c.041-.102.069-.208.083-.318 2.205-17.125 7.815-25.833 9.482-28.094a1.295 1.295 0 0 0 .182-1.171l-.229-.69a1.67 1.67 0 0 1 .319-1.615c6.006-6.865 16.475-3.119 16.58-3.081l.052.02.033.045c11.739 16.154 7.399 68.622 6.409 78.976a1.648 1.648 0 0 1-.488 1.026c-.278.274-.644.44-1.032.469l-6.941.536a1.854 1.854 0 0 1-.129.005Z"/><path fill="#F9BFA1" d="M184.013 233.096a3.74 3.74 0 0 0-.088.605l-15.799 9.146-3.841-2.219-4.093 5.378 6.418 4.59a2.935 2.935 0 0 0 3.53-.086l16.291-12.897a3.84 3.84 0 0 0 2.296.121 3.86 3.86 0 0 0 1.956-1.21 3.878 3.878 0 0 0 .489-4.377 3.853 3.853 0 0 0-5.992-1.038 3.876 3.876 0 0 0-1.167 1.987Z"/><path fill="#FFA19C" d="m167.598 243.279-5.106 6.641a1.655 1.655 0 0 1-2.503.137l-5.78-6.023a4.621 4.621 0 0 1-.803-6.464 4.587 4.587 0 0 1 6.44-.823l7.25 4.068c.207.117.387.277.528.469a1.677 1.677 0 0 1 .276 1.355 1.67 1.67 0 0 1-.302.64Z"/><path fill="#FFB5B1" d="m147.807 254.817-8.226-1.49a1.648 1.648 0 0 1-1.131-.79 1.672 1.672 0 0 1-.143-1.376l2.667-7.922a4.61 4.61 0 0 1 1.914-2.955 4.582 4.582 0 0 1 3.435-.736 4.597 4.597 0 0 1 2.95 1.912 4.63 4.63 0 0 1 .743 3.445l-.261 8.331a1.656 1.656 0 0 1-.613 1.238 1.654 1.654 0 0 1-1.335.343Z"/><path fill="#888" d="M150.325 220.481c2.321 1.594 5.37 3.233 7.741 1.535a4.323 4.323 0 0 0 1.536-2.259 4.346 4.346 0 0 0-.12-2.732c-1.135-3.258-4.255-4.692-7.238-5.792-3.878-1.429-8.101-2.566-12.104-1.543-4.004 1.024-7.542 4.913-6.819 8.995.581 3.282 3.667 6.014 3.229 9.318-.441 3.326-4.169 5.077-7.459 5.671-3.291.595-6.974.786-9.339 3.158-3.017 3.025-2.263 8.434.576 11.628 2.838 3.195 7.122 4.643 11.274 5.627 5.5 1.305 11.448 1.99 16.672-.174 5.223-2.165 9.288-7.992 7.775-13.456-.639-2.308-2.145-4.258-3.6-6.157s-2.929-3.885-3.484-6.215c-.462-1.941-.12-4.195 1.163-5.652a1.645 1.645 0 0 0 .219-1.914l-.022-.038Z"/><path fill="#DEDEDE" d="M522.312 355H94.688a.834.834 0 0 1-.487-.147.444.444 0 0 1-.201-.353c0-.132.072-.259.201-.353a.834.834 0 0 1 .487-.147h427.624c.183 0 .358.053.487.147a.444.444 0 0 1 .201.353.444.444 0 0 1-.201.353.836.836 0 0 1-.487.147Z"/></svg>
