<svg xmlns="http://www.w3.org/2000/svg" width="617" height="355" fill="none"><path fill="#fff" fill-rule="evenodd" d="M613.482 355A310.478 310.478 0 0 0 617 308.289C617 138.026 478.88 0 308.5 0S0 138.026 0 308.289c0 15.88 1.201 31.478 3.518 46.711h609.964Z" clip-rule="evenodd"/><path fill="#DEDEDE" d="M433.36 283.837H182.548a6.452 6.452 0 0 1-4.564-1.9 6.498 6.498 0 0 1-1.894-4.58V122.168a4.76 4.76 0 0 1 1.387-3.355 4.728 4.728 0 0 1 3.344-1.392h254.184a4.808 4.808 0 0 1 3.401 1.416 4.842 4.842 0 0 1 1.411 3.413v155.107a6.502 6.502 0 0 1-1.893 4.58 6.454 6.454 0 0 1-4.564 1.9Z"/><path fill="#fff" d="M424.211 274.662h-233.75c-3.427 0-6.214-2.62-6.214-5.84v-135.14c0-2.388 2.065-4.33 4.604-4.33h236.893c2.581 0 4.681 1.974 4.681 4.401v135.069c0 3.22-2.788 5.84-6.214 5.84Z"/><path fill="#CCC" d="M439.728 121.799H176V118.5a6.52 6.52 0 0 1 1.901-4.595 6.475 6.475 0 0 1 4.58-1.905h250.766a6.475 6.475 0 0 1 4.58 1.905 6.518 6.518 0 0 1 1.901 4.595v3.299Z"/><path fill="#fff" d="M187.778 118.592a1.68 1.68 0 0 0 1.677-1.682 1.68 1.68 0 0 0-1.677-1.682 1.68 1.68 0 0 0-1.676 1.682 1.68 1.68 0 0 0 1.676 1.682ZM194.142 118.592a1.68 1.68 0 0 0 1.676-1.682 1.68 1.68 0 0 0-1.676-1.682 1.68 1.68 0 0 0-1.677 1.682 1.68 1.68 0 0 0 1.677 1.682ZM200.505 118.592a1.68 1.68 0 0 0 1.676-1.682 1.68 1.68 0 0 0-1.676-1.682 1.68 1.68 0 0 0-1.677 1.682 1.68 1.68 0 0 0 1.677 1.682Z"/><path fill="#F8F8F8" d="M206.825 248h202.927c1.999 0 3.916-.81 5.329-2.251a7.765 7.765 0 0 0 2.208-5.436v-89.626a7.76 7.76 0 0 0-2.208-5.435 7.46 7.46 0 0 0-5.329-2.252H206.825a7.46 7.46 0 0 0-5.329 2.252 7.764 7.764 0 0 0-2.207 5.435v89.626c0 2.039.794 3.994 2.207 5.436a7.463 7.463 0 0 0 5.329 2.251Z"/><path fill="#D2D7E2" d="M273.473 173.032h-27.744l-2.688 15.264.192.192c1.856-1.856 3.84-3.168 5.952-3.936 2.112-.832 4.512-1.248 7.2-1.248 3.328 0 6.272.608 8.832 1.824 2.56 1.216 4.704 2.848 6.432 4.896 1.792 2.048 3.136 4.48 4.032 7.296.96 2.752 1.44 5.696 1.44 8.832 0 3.456-.672 6.688-2.016 9.696-1.344 2.944-3.168 5.504-5.472 7.68-2.24 2.176-4.864 3.872-7.872 5.088-3.008 1.152-6.208 1.696-9.6 1.632-3.264 0-6.4-.416-9.408-1.248-2.944-.896-5.568-2.24-7.872-4.032-2.304-1.792-4.16-4-5.568-6.624-1.344-2.688-2.048-5.792-2.112-9.312h13.632c.32 3.072 1.472 5.536 3.456 7.392 1.984 1.792 4.512 2.688 7.584 2.688 1.792 0 3.392-.352 4.8-1.056 1.472-.768 2.688-1.728 3.648-2.88a12.466 12.466 0 0 0 2.304-4.128c.576-1.6.864-3.232.864-4.896 0-1.728-.256-3.36-.768-4.896s-1.28-2.88-2.304-4.032a10.815 10.815 0 0 0-3.648-2.688c-1.408-.64-3.04-.96-4.896-.96-2.432 0-4.416.448-5.952 1.344-1.536.832-2.976 2.176-4.32 4.032h-12.288l6.624-37.152h37.536v11.232Zm21.292 22.08c0 1.92.064 4.256.192 7.008a40.275 40.275 0 0 0 1.152 7.872c.704 2.496 1.792 4.64 3.264 6.432 1.472 1.792 3.584 2.688 6.336 2.688 2.816 0 4.96-.896 6.432-2.688 1.536-1.792 2.624-3.936 3.264-6.432a36.065 36.065 0 0 0 1.248-7.872c.128-2.752.192-5.088.192-7.008 0-1.152-.032-2.528-.096-4.128 0-1.664-.128-3.36-.384-5.088a33.973 33.973 0 0 0-.96-5.088c-.384-1.728-.992-3.264-1.824-4.608a10.297 10.297 0 0 0-3.168-3.264c-1.28-.832-2.848-1.248-4.704-1.248-1.856 0-3.424.416-4.704 1.248-1.216.832-2.24 1.92-3.072 3.264-.768 1.344-1.376 2.88-1.824 4.608a33.973 33.973 0 0 0-.96 5.088 70.674 70.674 0 0 0-.384 5.088v4.128Zm-13.632 0c0-6.528.64-12 1.92-16.416 1.344-4.48 3.136-8.064 5.376-10.752 2.24-2.688 4.832-4.608 7.776-5.76 3.008-1.152 6.176-1.728 9.504-1.728 3.392 0 6.56.576 9.504 1.728 3.008 1.152 5.632 3.072 7.872 5.76 2.304 2.688 4.096 6.272 5.376 10.752 1.344 4.416 2.016 9.888 2.016 16.416 0 6.72-.672 12.352-2.016 16.896-1.28 4.48-3.072 8.064-5.376 10.752-2.24 2.688-4.864 4.608-7.872 5.76-2.944 1.152-6.112 1.728-9.504 1.728-3.328 0-6.496-.576-9.504-1.728-2.944-1.152-5.536-3.072-7.776-5.76-2.24-2.688-4.032-6.272-5.376-10.752-1.28-4.544-1.92-10.176-1.92-16.896Zm67.275 0c0 1.92.064 4.256.192 7.008a40.275 40.275 0 0 0 1.152 7.872c.704 2.496 1.792 4.64 3.264 6.432 1.472 1.792 3.584 2.688 6.336 2.688 2.816 0 4.96-.896 6.432-2.688 1.536-1.792 2.624-3.936 3.264-6.432a36.065 36.065 0 0 0 1.248-7.872c.128-2.752.192-5.088.192-7.008 0-1.152-.032-2.528-.096-4.128 0-1.664-.128-3.36-.384-5.088a33.973 33.973 0 0 0-.96-5.088c-.384-1.728-.992-3.264-1.824-4.608a10.297 10.297 0 0 0-3.168-3.264c-1.28-.832-2.848-1.248-4.704-1.248-1.856 0-3.424.416-4.704 1.248-1.216.832-2.24 1.92-3.072 3.264-.768 1.344-1.376 2.88-1.824 4.608a33.973 33.973 0 0 0-.96 5.088 70.674 70.674 0 0 0-.384 5.088v4.128Zm-13.632 0c0-6.528.64-12 1.92-16.416 1.344-4.48 3.136-8.064 5.376-10.752 2.24-2.688 4.832-4.608 7.776-5.76 3.008-1.152 6.176-1.728 9.504-1.728 3.392 0 6.56.576 9.504 1.728 3.008 1.152 5.632 3.072 7.872 5.76 2.304 2.688 4.096 6.272 5.376 10.752 1.344 4.416 2.016 9.888 2.016 16.416 0 6.72-.672 12.352-2.016 16.896-1.28 4.48-3.072 8.064-5.376 10.752-2.24 2.688-4.864 4.608-7.872 5.76-2.944 1.152-6.112 1.728-9.504 1.728-3.328 0-6.496-.576-9.504-1.728-2.944-1.152-5.536-3.072-7.776-5.76-2.24-2.688-4.032-6.272-5.376-10.752-1.28-4.544-1.92-10.176-1.92-16.896Z"/></svg>
