<svg xmlns="http://www.w3.org/2000/svg" width="60" height="59" fill="none"><g clip-path="url(#a)"><path fill="#fff" stroke="#8C8C8C" stroke-width=".681" d="M54.204.336H6.477C3.277.336.682 2.887.682 6.035v46.932c0 3.147 2.594 5.699 5.795 5.699h47.727c3.201 0 5.796-2.552 5.796-5.7V6.036c0-3.148-2.595-5.7-5.796-5.7Z"/><path fill="#F3F3F3" stroke="#8C8C8C" stroke-width=".681" d="M44.66 15.087c2.447 0 4.431-1.951 4.431-4.358 0-2.407-1.984-4.358-4.432-4.358-2.447 0-4.431 1.951-4.431 4.358 0 2.407 1.984 4.358 4.431 4.358Z"/><path fill="#F3F3F3" fill-rule="evenodd" d="M19.343 22.797h22.786V58.33H19.343V22.797ZM22.28 25.7h4.412v4.351H22.28V25.7Zm11.025 0h-4.411v4.351h4.411V25.7Zm2.203 0h4.411v4.351h-4.411V25.7Zm4.411 5.8h-4.411v4.35h4.411V31.5Zm-4.411 5.799h4.411v4.351h-4.411V37.3Zm-2.203-5.8h-4.411v4.352h4.411v-4.352Zm-11.025 0h4.412v4.352H22.28v-4.352Zm4.412 5.8H22.28v4.351h4.412V37.3Zm2.202 0h4.411v4.351h-4.411V37.3Zm5.748 12.236h-7.214v8.675h7.214v-8.675ZM1.022 35.535h14.7v23.13H6.478c-3.014 0-5.455-2.4-5.455-5.363V35.535Zm2.203 2.166h4.411v4.338H3.225V37.7Zm10.288 0H9.102v4.338h4.411V37.7ZM9.102 43.48h4.411v4.338H9.102V43.48Zm-1.473 0H3.225v4.338h4.411V43.48H7.63ZM45.068 35.535h14.7v17.767c0 2.964-2.44 5.364-5.454 5.364h-9.246v-23.13Zm2.203 2.166h4.411v4.338h-4.411V37.7Zm10.288 0h-4.411v4.338h4.411V37.7Zm-4.411 5.779h4.411v4.338h-4.411V43.48Zm-1.473 0h-4.411v4.338h4.411V43.48Z" clip-rule="evenodd"/><path fill="#8C8C8C" stroke="#8C8C8C" stroke-width=".681" d="M35.508 31.505h.001v4.34-4.34Zm4.412 4.34v-4.34 4.34ZM26.693 35.845v-4.34 4.34Zm-4.411 0h-.001v-4.34 4.34ZM39.927 41.644v-4.34 4.34Zm-4.411 0v-4.34 4.34ZM35.508 25.704h.001v4.34-4.34Zm4.412 4.34v-4.34 4.34ZM19.343 22.802V57.99 22.802Zm22.786 0V57.99 22.8ZM27.429 49.546v8.443-8.443Zm7.213 0v8.443-8.443ZM26.693 41.644v-4.34 4.34Zm-4.411 0h-.001v-4.34 4.34ZM22.281 25.704v4.34-4.34Zm4.411 4.34v-4.34h.001v4.34ZM28.895 25.704v4.34-4.34Zm4.412 4.34v-4.34 4.34ZM33.307 41.644v-4.34 4.34Zm-4.411 0v-4.34 4.34ZM33.307 35.845v-4.34 4.34Zm-4.411 0v-4.34 4.34ZM7.636 47.818v-4.327 4.327Zm-4.411 0v-4.327 4.327ZM13.52 47.82v-4.327 4.327Zm-4.411 0v-4.327 4.327ZM13.52 42.033v-4.327 4.327Zm-4.411 0v-4.327 4.327ZM15.722 35.87v-.33 22.45-22.12ZM7.636 42.033v-4.327 4.327Zm-4.411 0v-4.327 4.327ZM57.566 42.033v-4.327 4.327Zm-4.411 0v-4.327 4.327ZM51.69 42.033h-.002v-4.327h.001v4.327Zm-4.412 0v-4.327 4.327ZM51.682 47.82v-4.327 4.327Zm-4.411 0v-4.327 4.327ZM57.566 47.818v-4.327 4.327Zm-4.411 0v-4.327 4.327ZM45.068 35.54v22.45-22.45Z"/><path stroke="#8C8C8C" stroke-width=".681" d="M54.204.336H6.477C3.277.336.682 2.887.682 6.035v46.932c0 3.147 2.594 5.699 5.795 5.699h47.727c3.201 0 5.796-2.552 5.796-5.7V6.036c0-3.148-2.595-5.7-5.796-5.7Z"/></g><defs><clipPath id="a"><path fill="#fff" d="M0 0h60v59H0z"/></clipPath></defs></svg>
