<svg xmlns="http://www.w3.org/2000/svg" width="617" height="355" fill="none"><path fill="#F3F3F3" fill-rule="evenodd" d="M613.482 355A310.478 310.478 0 0 0 617 308.289C617 138.026 478.88 0 308.5 0S0 138.026 0 308.289c0 15.88 1.201 31.478 3.518 46.711h609.964Z" clip-rule="evenodd"/><g clip-path="url(#a)"><path fill="#E6E6E6" d="M363.371 354.472H242.532V200.435c0-20.046 16.309-36.355 36.356-36.355h48.127c20.047 0 36.356 16.309 36.356 36.355v154.037Z"/><path fill="#fff" d="M322.076 198.739h-37.725a5.499 5.499 0 0 1-5.492-5.493v-10.091a5.499 5.499 0 0 1 5.492-5.493h37.725a5.499 5.499 0 0 1 5.493 5.493v10.091a5.499 5.499 0 0 1-5.493 5.493Z"/><path fill="#E6E6E6" d="M304.122 242.532v-75.408h-.468v75.408h.468Z"/><path fill="#fff" d="M349.208 325.901h-9.611a5.037 5.037 0 0 1-5.031-5.03v-29.282a5.037 5.037 0 0 1 5.031-5.031h9.611a5.037 5.037 0 0 1 5.03 5.031v29.282a5.036 5.036 0 0 1-5.03 5.03ZM286.446 346.509h-26.472a5.035 5.035 0 0 1-5.03-5.03v-51.764a5.035 5.035 0 0 1 5.03-5.03h26.472a5.035 5.035 0 0 1 5.03 5.03v51.764a5.035 5.035 0 0 1-5.03 5.03Z"/><path fill="#CCC" d="M292.124 288.666h-37.803a3.174 3.174 0 0 1-3.065-2.228 3.178 3.178 0 0 1 1.174-3.603l19.105-13.844a3.212 3.212 0 0 1 3.807.02l18.699 13.845a3.175 3.175 0 0 1 1.142 3.598 3.175 3.175 0 0 1-3.059 2.212ZM353.145 289.134h-17.461a3.173 3.173 0 0 1-3.064-2.228 3.173 3.173 0 0 1 1.174-3.602l8.824-6.395a3.21 3.21 0 0 1 3.807.021l8.637 6.394a3.175 3.175 0 0 1 1.142 3.598 3.175 3.175 0 0 1-3.059 2.212Z"/><path fill="#fff" d="M345.357 261.735h-10.808a4.437 4.437 0 0 1-4.432-4.432v-30.479a4.437 4.437 0 0 1 4.432-4.432h10.808a4.437 4.437 0 0 1 4.431 4.432v30.479a4.437 4.437 0 0 1-4.431 4.432ZM308.355 261.735h-10.807a4.437 4.437 0 0 1-4.432-4.432v-30.479a4.437 4.437 0 0 1 4.432-4.432h10.807a4.437 4.437 0 0 1 4.432 4.432v30.479a4.437 4.437 0 0 1-4.432 4.432ZM270.886 261.735h-10.808a4.437 4.437 0 0 1-4.432-4.432v-30.479a4.437 4.437 0 0 1 4.432-4.432h10.808a4.437 4.437 0 0 1 4.432 4.432v30.479a4.438 4.438 0 0 1-4.432 4.432Z"/><path fill="#CCC" d="M348.618 225.904h-91.334c-1.636 0-2.637-1.158-2.904-2.306-.267-1.148.121-2.63 1.589-3.352l46.157-22.681a2.999 2.999 0 0 1 2.653.011l45.177 22.682c1.28.643 1.894 1.959 1.564 3.353-.331 1.393-1.469 2.293-2.902 2.293Z"/><path fill="#888" d="M363.137 354.238H247.233v-11.763c0-9.268 13.719-16.808 30.583-16.808h85.321v28.571Z"/><path fill="#888" d="M318.173 309.04h-6.089v22.481h6.089V309.04ZM363.137 309.04h-6.089v22.481h6.089V309.04Z"/><path fill="#888" d="M358.921 310.913h-41.684v.468h41.684v-.468Z"/><path fill="#E6E6E6" d="M354.238 242.063H253.07v.468h101.168v-.468Z"/><path fill="#888" d="M358.921 318.407h-41.684v.469h41.684v-.469ZM358.921 322.154h-41.684v.469h41.684v-.469Z"/><path fill="#CCC" d="M326.605 179.661h-47.308a1.643 1.643 0 0 1-1.586-1.153c-.227-.7.012-1.432.608-1.864l23.908-17.326a1.662 1.662 0 0 1 1.97.011l23.4 17.325c.589.435.821 1.166.592 1.862a1.645 1.645 0 0 1-1.584 1.145Z"/><path fill="#E6E6E6" d="M265.248 316.065h-8.431v.937h8.431v-.937ZM226.217 354.472H105.378V200.435c0-20.046 16.309-36.355 36.355-36.355h48.128c20.047 0 36.356 16.309 36.356 36.355v154.037Z"/><path fill="#fff" d="M184.922 198.739h-37.725a5.499 5.499 0 0 1-5.492-5.493v-10.091a5.499 5.499 0 0 1 5.492-5.493h37.725a5.499 5.499 0 0 1 5.493 5.493v10.091a5.499 5.499 0 0 1-5.493 5.493Z"/><path fill="#E6E6E6" d="M166.968 242.532v-75.408h-.468v75.408h.468Z"/><path fill="#fff" d="M212.053 325.901h-9.61a5.037 5.037 0 0 1-5.031-5.03v-29.282a5.037 5.037 0 0 1 5.031-5.031h9.61a5.037 5.037 0 0 1 5.031 5.031v29.282a5.037 5.037 0 0 1-5.031 5.03ZM149.292 346.509H122.82a5.035 5.035 0 0 1-5.03-5.03v-51.764a5.035 5.035 0 0 1 5.03-5.03h26.472a5.035 5.035 0 0 1 5.03 5.03v51.764a5.035 5.035 0 0 1-5.03 5.03Z"/><path fill="#CCC" d="M154.97 288.666h-37.803a3.172 3.172 0 0 1-3.064-2.228 3.175 3.175 0 0 1 1.174-3.603l19.104-13.844a3.212 3.212 0 0 1 3.807.02l18.699 13.845a3.175 3.175 0 0 1 1.143 3.598 3.177 3.177 0 0 1-3.06 2.212ZM215.991 289.134H198.53a3.173 3.173 0 0 1-3.064-2.228 3.173 3.173 0 0 1 1.174-3.602l8.824-6.395a3.21 3.21 0 0 1 3.807.021l8.637 6.394a3.175 3.175 0 0 1 1.142 3.598 3.175 3.175 0 0 1-3.059 2.212Z"/><path fill="#fff" d="M208.203 261.735h-10.808a4.437 4.437 0 0 1-4.432-4.432v-30.479a4.437 4.437 0 0 1 4.432-4.432h10.808a4.437 4.437 0 0 1 4.431 4.432v30.479a4.437 4.437 0 0 1-4.431 4.432ZM171.201 261.735h-10.807a4.437 4.437 0 0 1-4.432-4.432v-30.479a4.437 4.437 0 0 1 4.432-4.432h10.807a4.437 4.437 0 0 1 4.432 4.432v30.479a4.437 4.437 0 0 1-4.432 4.432ZM133.732 261.735h-10.808a4.437 4.437 0 0 1-4.432-4.432v-30.479a4.437 4.437 0 0 1 4.432-4.432h10.808a4.437 4.437 0 0 1 4.431 4.432v30.479a4.437 4.437 0 0 1-4.431 4.432Z"/><path fill="#CCC" d="M211.464 225.904H120.13c-1.636 0-2.637-1.158-2.904-2.306-.267-1.148.121-2.63 1.589-3.352l46.157-22.681a2.999 2.999 0 0 1 2.653.011l45.177 22.682c1.28.643 1.894 1.959 1.564 3.353-.331 1.393-1.469 2.293-2.902 2.293Z"/><path fill="#888" d="M225.983 354.238h-63.464v-11.763c0-9.268 7.512-16.808 16.746-16.808h46.718v28.571Z"/><path fill="#888" d="M181.019 309.04h-6.088v22.481h6.088V309.04ZM225.983 309.04h-6.089v22.481h6.089V309.04Z"/><path fill="#888" d="M221.767 310.913h-41.684v.468h41.684v-.468Z"/><path fill="#E6E6E6" d="M217.084 242.063H115.916v.468h101.168v-.468Z"/><path fill="#888" d="M221.767 318.407h-41.684v.469h41.684v-.469ZM221.767 322.154h-41.684v.469h41.684v-.469Z"/><path fill="#CCC" d="M189.451 179.661h-47.308a1.642 1.642 0 0 1-1.586-1.153c-.227-.7.012-1.432.608-1.864l23.908-17.326a1.662 1.662 0 0 1 1.97.011l23.4 17.325c.589.435.821 1.166.592 1.862a1.645 1.645 0 0 1-1.584 1.145Z"/><path fill="#E6E6E6" d="M128.094 316.065h-8.431v.937h8.431v-.937ZM496.101 354.472h-120.84V200.435c0-20.046 16.31-36.355 36.356-36.355h48.128c20.047 0 36.356 16.309 36.356 36.355v154.037Z"/><path fill="#fff" d="M454.806 198.739h-37.725a5.499 5.499 0 0 1-5.492-5.493v-10.091a5.499 5.499 0 0 1 5.492-5.493h37.725a5.499 5.499 0 0 1 5.493 5.493v10.091a5.499 5.499 0 0 1-5.493 5.493Z"/><path fill="#E6E6E6" d="M436.852 242.532v-75.408h-.468v75.408h.468Z"/><path fill="#fff" d="M481.937 325.901h-9.611a5.036 5.036 0 0 1-5.03-5.03v-29.282a5.036 5.036 0 0 1 5.03-5.031h9.611a5.036 5.036 0 0 1 5.03 5.031v29.282a5.036 5.036 0 0 1-5.03 5.03ZM419.176 346.509h-26.472a5.036 5.036 0 0 1-5.031-5.03v-51.764a5.036 5.036 0 0 1 5.031-5.03h26.472a5.035 5.035 0 0 1 5.03 5.03v51.764a5.035 5.035 0 0 1-5.03 5.03Z"/><path fill="#CCC" d="M424.854 288.666h-37.803a3.174 3.174 0 0 1-3.065-2.228 3.175 3.175 0 0 1 1.174-3.603l19.104-13.844a3.214 3.214 0 0 1 3.808.02l18.699 13.845a3.176 3.176 0 0 1 1.142 3.598 3.175 3.175 0 0 1-3.059 2.212ZM485.875 289.134h-17.461a3.173 3.173 0 0 1-3.064-2.228 3.173 3.173 0 0 1 1.174-3.602l8.824-6.395a3.21 3.21 0 0 1 3.807.021l8.637 6.394a3.176 3.176 0 0 1 1.142 3.598 3.175 3.175 0 0 1-3.059 2.212Z"/><path fill="#fff" d="M478.086 261.735h-10.807a4.437 4.437 0 0 1-4.432-4.432v-30.479a4.437 4.437 0 0 1 4.432-4.432h10.807a4.437 4.437 0 0 1 4.432 4.432v30.479a4.437 4.437 0 0 1-4.432 4.432ZM441.085 261.735h-10.808a4.437 4.437 0 0 1-4.432-4.432v-30.479a4.437 4.437 0 0 1 4.432-4.432h10.808a4.437 4.437 0 0 1 4.432 4.432v30.479a4.437 4.437 0 0 1-4.432 4.432ZM403.615 261.735h-10.807a4.437 4.437 0 0 1-4.432-4.432v-30.479a4.437 4.437 0 0 1 4.432-4.432h10.807a4.437 4.437 0 0 1 4.432 4.432v30.479a4.437 4.437 0 0 1-4.432 4.432Z"/><path fill="#CCC" d="M481.348 225.904h-91.334c-1.636 0-2.637-1.158-2.904-2.306-.267-1.148.121-2.63 1.589-3.352l46.157-22.681a2.996 2.996 0 0 1 2.652.011l45.178 22.682c1.28.643 1.894 1.959 1.564 3.353-.331 1.393-1.47 2.293-2.902 2.293Z"/><path fill="#888" d="M495.866 354.238h-63.464v-11.763c0-9.268 7.513-16.808 16.746-16.808h46.718v28.571Z"/><path fill="#888" d="M450.903 309.04h-6.089v22.481h6.089V309.04ZM495.867 309.04h-6.089v22.481h6.089V309.04Z"/><path fill="#888" d="M491.651 310.913h-41.685v.468h41.685v-.468Z"/><path fill="#E6E6E6" d="M486.968 242.063H385.8v.468h101.168v-.468Z"/><path fill="#888" d="M491.651 318.407h-41.685v.469h41.685v-.469ZM491.651 322.154h-41.685v.469h41.685v-.469Z"/><path fill="#CCC" d="M459.335 179.661h-47.308a1.642 1.642 0 0 1-1.586-1.153c-.227-.7.012-1.432.608-1.864l23.907-17.326a1.664 1.664 0 0 1 1.971.011l23.4 17.325c.589.435.821 1.166.591 1.862a1.643 1.643 0 0 1-1.583 1.145Z"/><path fill="#E6E6E6" d="M397.977 316.065h-8.43v.937h8.43v-.937Z"/><path fill="#888" d="M125.602 352.829c.039.326.05.63.028.929h-16.42a7.762 7.762 0 0 1-.387-.929c-2.008-5.768 1.294-15.369-2.892-29.604-3.108-10.563-8.91-18.826-11.614-22.675-3.324-4.734-7.09-9.103-11.454-16.082a123.886 123.886 0 0 1-2.925-4.933c-.338-.598-4.225-7.527-3.871-7.743.165-.1 1.194 1.3 1.542 1.77 3.075 4.159 4.862 5.978 7.422 8.97 1.554 1.814 3.39 4.054 5.968 7.51 6.608 8.855 9.91 13.279 11.06 16.592.305.884 1.925 5.674 4.978 11.613 1.559 3.031 2.339 4.546 2.765 4.425 1.206-.349-.42-12.897-5.53-25.44-.874-2.135-1.527-3.501-2.766-6.084-2.013-4.214-13.223-27.635-21.463-41.655a128.534 128.534 0 0 0-2.937-4.783l-.514-.775c-1.15-1.714-2.168-3.069-3.014-3.943-.448-.464-1.587-1.781-3.871-4.424-.907-1.051-1.571-1.831-2.02-2.4a4.332 4.332 0 0 1-.176-.238c-.542-.708-.697-1.051-.57-1.233.183-.26.885-.111 1.654.16a23.16 23.16 0 0 1 2.218.946c2.588 1.244 5.115 3.473 7.455 6.122a52.807 52.807 0 0 1 2.51 3.075c2.6 3.429 4.867 7.162 6.581 10.231 2.102 3.783 3.363 6.565 3.363 6.565 5.868 12.957 12.377 27.779 12.72 27.652.376-.139-6.841-18.588-8.943-28.609-.702-3.357-.83-5.768.094-6.233a.863.863 0 0 1 .454-.083s.857-.111 1.758.083c1.123.243 2.4 3.368 3.645 7.754 3.235 11.304 6.31 30.959 6.31 30.959 3.075 19.66 7.743 35.571 8.849 35.394.614-.099-.266-5.038.553-13.273.575-5.773 1.228-5.596 3.318-16.038 3.318-16.563 4.977-24.842 4.977-24.887-.016-.348-.06-1.05.045-1.78.11-.791.392-1.621 1.062-2.091 1.017-.719 2.654-.409 3.318 0 .531.332.802.94.863 1.814.365 5.497-7.533 21.436-10.265 42.982-1.36 10.735-2.107 16.592 0 24.334 2.085 7.676 5.719 12.565 6.122 16.055Z"/><path fill="#BBC4DF" d="M147.962 214.276c-4.537-.825-10.172 2.212-10.508 5.531-.276 2.732 3.082 5.226 2.765 5.53-.296.284-2.376-2.714-4.977-2.765-3.93-.078-8.647 6.578-7.19 10.508 1.17 3.154 6.183 4.186 6.084 4.424-.094.224-3.913-2.224-7.743-1.659-5.483.808-10.734 7.756-9.401 12.167 1.488 4.928 11.124 6.454 11.06 6.636-.067.192-9.698-4.738-13.273-1.659-2.397 2.065-2.053 6.88-.553 9.955 3.132 6.417 12.903 8.691 17.698 5.53 3.728-2.458 1.214-6.069 4.977-13.826 4.621-9.525 12.659-12.83 12.72-19.909.005-.644.023-2.717-1.106-3.319-1.804-.96-5.285 2.497-5.531 2.213-.265-.308 4.395-3.675 7.19-9.402.879-1.802 2.879-5.9 1.106-8.296-.903-1.219-2.41-1.494-3.318-1.659ZM122.522 203.768c-4.537-.825-10.172 2.212-10.508 5.531-.276 2.732 3.082 5.226 2.765 5.53-.296.284-2.376-2.713-4.977-2.765-3.93-.078-8.647 6.578-7.19 10.508 1.17 3.154 6.183 4.186 6.084 4.424-.094.224-3.913-2.224-7.743-1.659-5.483.808-10.734 7.756-9.401 12.167 1.488 4.928 11.124 6.455 11.06 6.636-.067.193-9.698-4.738-13.273-1.659-2.397 2.066-2.053 6.88-.553 9.955 3.132 6.417 12.903 8.691 17.698 5.53 3.728-2.458 1.214-6.069 4.977-13.826 4.622-9.525 12.659-12.829 12.72-19.909.005-.644.023-2.717-1.106-3.318-1.804-.961-5.285 2.496-5.531 2.212-.265-.308 4.395-3.674 7.19-9.402.879-1.801 2.879-5.9 1.106-8.295-.903-1.22-2.41-1.494-3.318-1.66Z"/><path fill="#BBC4DF" d="M91.716 191.488c4.3 1.665 7.521 7.198 6.074 10.204-1.19 2.474-5.357 2.848-5.246 3.272.104.397 3.444-1.073 5.689.241 3.392 1.986 3.94 10.125.645 12.716-2.645 2.079-7.46.342-7.499.597-.037.24 4.499.146 7.47 2.627 4.254 3.553 5.104 12.22 1.665 15.286-3.843 3.426-12.858-.304-12.898-.116-.043.2 10.745 1.023 12.186 5.516.966 3.013-1.842 6.94-4.727 8.779-6.022 3.837-15.542.675-17.98-4.525-1.897-4.042 2.133-5.81 2.974-14.39 1.032-10.537-4.097-17.552-.452-23.622.331-.551 1.398-2.329 2.676-2.252 2.04.123 3.203 4.889 3.561 4.774.387-.123-1.83-5.428-1.222-11.772.19-1.995.625-6.535 3.388-7.652 1.407-.569 2.836-.016 3.697.317Z"/><path fill="#BBC4DF" d="M42.88 194.497c-2.712 3.73-2.42 10.124.425 11.866 2.342 1.434 6.046-.51 6.183-.093.128.39-3.476.964-4.65 3.286-1.775 3.507 2.177 10.644 6.35 11.035 3.35.314 6.453-3.756 6.625-3.563.161.182-3.7 2.561-4.853 6.257-1.65 5.292 2.334 13.036 6.886 13.748 5.086.796 10.64-7.225 10.777-7.088.143.144-8.476 6.684-7.252 11.24.822 3.056 5.31 4.834 8.73 4.816 7.141-.039 13.428-7.857 12.659-13.548-.598-4.426-4.943-3.727-10.3-10.481-6.578-8.296-6.07-16.971-12.423-20.096-.578-.284-2.438-1.2-3.47-.443-1.648 1.209-.042 5.845-.405 5.943-.392.106-1.405-5.553-5.353-10.556-1.242-1.573-4.068-5.153-6.996-4.594-1.49.285-2.391 1.524-2.934 2.271Z"/><path fill="#BBC4DF" d="M46.75 235.422c-2.71 3.73-2.418 10.125.427 11.866 2.342 1.434 6.046-.51 6.182-.093.128.39-3.475.965-4.65 3.286-1.775 3.507 2.177 10.644 6.35 11.035 3.35.314 6.454-3.755 6.625-3.563.162.182-3.7 2.562-4.853 6.257-1.65 5.292 2.334 13.036 6.886 13.749 5.087.796 10.64-7.225 10.777-7.089.144.144-8.476 6.684-7.251 11.24.821 3.056 5.309 4.835 8.73 4.816 7.14-.039 13.427-7.857 12.658-13.548-.598-4.425-4.942-3.726-10.3-10.481-6.578-8.295-6.07-16.971-12.423-20.096-.578-.284-2.438-1.199-3.47-.442-1.647 1.208-.042 5.845-.405 5.942-.392.106-1.404-5.553-5.353-10.555-1.242-1.574-4.068-5.153-6.995-4.595-1.49.285-2.392 1.524-2.934 2.271Z"/><path fill="#888" d="M255.014 352.989c.038.326.049.631.027.929h-16.419a7.541 7.541 0 0 1-.388-.929c-2.007-5.768 1.295-15.369-2.892-29.604-3.108-10.563-8.909-18.826-11.614-22.675-3.324-4.734-7.09-9.103-11.453-16.082a123.993 123.993 0 0 1-2.926-4.933c-.337-.598-4.225-7.527-3.871-7.743.166-.099 1.194 1.3 1.543 1.77 3.075 4.159 4.861 5.978 7.422 8.97 1.554 1.814 3.39 4.054 5.967 7.51 6.609 8.855 9.91 13.279 11.061 16.592.304.885 1.924 5.674 4.977 11.614 1.56 3.03 2.339 4.546 2.765 4.424 1.206-.349-.42-12.897-5.53-25.44-.874-2.135-1.526-3.501-2.765-6.083-2.013-4.215-13.223-27.636-21.464-41.655a128.242 128.242 0 0 0-2.936-4.784l-.515-.774c-1.15-1.715-2.168-3.07-3.014-3.944-.448-.464-1.587-1.78-3.871-4.424-.907-1.051-1.571-1.831-2.019-2.4a4.665 4.665 0 0 1-.177-.238c-.542-.708-.697-1.051-.569-1.233.182-.26.885-.111 1.653.16a23.48 23.48 0 0 1 2.218.946c2.588 1.244 5.116 3.473 7.455 6.122a53.1 53.1 0 0 1 2.511 3.075c2.599 3.429 4.867 7.162 6.581 10.231 2.101 3.783 3.362 6.565 3.362 6.565 5.868 12.957 12.377 27.779 12.72 27.652.376-.139-6.841-18.588-8.942-28.609-.703-3.357-.83-5.768.094-6.233.033-.016.066-.033.105-.044a.861.861 0 0 1 .348-.039s.857-.11 1.759.083c1.123.244 2.4 3.368 3.644 7.754 3.236 11.304 6.311 30.959 6.311 30.959 3.074 19.661 7.742 35.572 8.848 35.395.614-.1-.265-5.039.553-13.273.575-5.774 1.228-5.597 3.319-16.039 3.318-16.563 4.977-24.842 4.977-24.886-.017-.349-.061-1.051.044-1.781.111-.791.393-1.621 1.062-2.091 1.018-.719 2.655-.409 3.318 0 .531.332.802.941.863 1.814.365 5.498-7.532 21.436-10.264 42.983-1.361 10.734-2.108 16.591 0 24.333 2.084 7.677 5.718 12.565 6.122 16.055Z"/><path fill="#BBC4DF" d="M277.373 214.436c-4.537-.825-10.172 2.212-10.508 5.531-.276 2.732 3.082 5.226 2.766 5.53-.296.284-2.377-2.713-4.978-2.765-3.93-.078-8.647 6.578-7.189 10.508 1.17 3.154 6.182 4.186 6.083 4.424-.093.224-3.913-2.224-7.742-1.659-5.484.808-10.734 7.756-9.402 12.167 1.488 4.928 11.125 6.455 11.061 6.636-.068.193-9.699-4.738-13.273-1.659-2.398 2.066-2.054 6.88-.553 9.955 3.132 6.417 12.902 8.691 17.697 5.53 3.728-2.458 1.214-6.069 4.977-13.826 4.622-9.525 12.659-12.829 12.72-19.909.006-.644.024-2.717-1.106-3.318-1.804-.961-5.285 2.496-5.53 2.212-.266-.308 4.394-3.674 7.189-9.402.879-1.801 2.879-5.9 1.106-8.296-.902-1.219-2.41-1.493-3.318-1.659ZM251.933 203.929c-4.537-.826-10.172 2.211-10.508 5.53-.276 2.732 3.082 5.226 2.766 5.53-.296.284-2.377-2.713-4.978-2.765-3.93-.078-8.647 6.578-7.189 10.508 1.17 3.154 6.182 4.186 6.083 4.424-.093.225-3.913-2.224-7.742-1.659-5.484.809-10.734 7.756-9.402 12.167 1.488 4.929 11.125 6.455 11.061 6.636-.068.193-9.699-4.738-13.273-1.659-2.398 2.066-2.054 6.881-.553 9.955 3.132 6.417 12.902 8.692 17.697 5.531 3.728-2.458 1.214-6.07 4.977-13.827 4.622-9.525 12.659-12.829 12.72-19.909.006-.644.024-2.717-1.106-3.318-1.804-.961-5.285 2.496-5.53 2.212-.266-.308 4.394-3.674 7.189-9.402.879-1.801 2.879-5.9 1.106-8.295-.902-1.22-2.41-1.494-3.318-1.659Z"/><path fill="#BBC4DF" d="M221.128 191.649c4.3 1.665 7.52 7.197 6.074 10.203-1.191 2.474-5.358 2.848-5.246 3.273.103.396 3.443-1.074 5.688.24 3.393 1.986 3.94 10.125.645 12.716-2.645 2.079-7.459.342-7.498.597-.038.24 4.498.146 7.469 2.628 4.254 3.552 5.105 12.219 1.665 15.285-3.843 3.426-12.858-.304-12.898-.115-.043.199 10.746 1.023 12.186 5.515.966 3.014-1.841 6.94-4.726 8.779-6.022 3.838-15.542.675-17.981-4.524-1.896-4.043 2.134-5.811 2.974-14.391 1.033-10.537-4.097-17.552-.452-23.621.332-.552 1.399-2.33 2.676-2.253 2.04.123 3.204 4.889 3.562 4.775.387-.124-1.83-5.429-1.223-11.773.191-1.995.626-6.535 3.389-7.652 1.406-.569 2.835-.016 3.696.318Z"/><path fill="#BBC4DF" d="M172.291 194.657c-2.712 3.73-2.419 10.124.426 11.866 2.342 1.434 6.046-.51 6.182-.093.128.39-3.475.965-4.65 3.286-1.775 3.507 2.177 10.644 6.35 11.035 3.35.314 6.454-3.755 6.625-3.563.162.182-3.701 2.562-4.853 6.257-1.649 5.292 2.334 13.036 6.886 13.748 5.087.797 10.641-7.225 10.777-7.088.144.144-8.476 6.684-7.251 11.24.821 3.056 5.309 4.834 8.73 4.816 7.14-.039 13.427-7.857 12.658-13.548-.598-4.426-4.942-3.726-10.299-10.481-6.579-8.295-6.071-16.971-12.424-20.096-.578-.284-2.438-1.199-3.469-.442-1.648 1.208-.043 5.844-.406 5.942-.392.106-1.404-5.553-5.353-10.555-1.242-1.574-4.068-5.153-6.995-4.595-1.491.285-2.392 1.524-2.934 2.271Z"/><path fill="#BBC4DF" d="M176.162 235.582c-2.711 3.73-2.419 10.125.426 11.867 2.342 1.433 6.046-.511 6.183-.094.127.39-3.476.965-4.651 3.286-1.774 3.508 2.178 10.644 6.351 11.035 3.35.314 6.453-3.755 6.625-3.562.161.181-3.701 2.561-4.853 6.257-1.65 5.291 2.333 13.035 6.886 13.748 5.086.796 10.64-7.225 10.776-7.089.144.145-8.475 6.684-7.251 11.241.822 3.056 5.309 4.834 8.73 4.815 7.141-.039 13.427-7.857 12.658-13.548-.597-4.425-4.942-3.726-10.299-10.481-6.579-8.295-6.071-16.971-12.423-20.096-.578-.284-2.438-1.199-3.47-.442-1.648 1.209-.043 5.845-.405 5.942-.392.106-1.405-5.553-5.354-10.555-1.242-1.574-4.068-5.153-6.995-4.594-1.49.284-2.392 1.524-2.934 2.27Z"/><path fill="#888" d="M491.637 352.989a4.875 4.875 0 0 0-.027.929h16.42c.149-.298.276-.608.387-.929 2.007-5.768-1.294-15.369 2.892-29.604 3.108-10.563 8.91-18.826 11.614-22.675 3.324-4.734 7.09-9.103 11.453-16.082.946-1.51 1.919-3.147 2.926-4.933.337-.598 4.225-7.527 3.871-7.743-.166-.099-1.194 1.3-1.543 1.77-3.075 4.159-4.861 5.978-7.422 8.97-1.554 1.814-3.39 4.054-5.967 7.51-6.609 8.855-9.91 13.279-11.061 16.592-.304.885-1.924 5.674-4.977 11.614-1.56 3.03-2.339 4.546-2.765 4.424-1.206-.349.42-12.897 5.53-25.44.874-2.135 1.527-3.501 2.765-6.083 2.013-4.215 13.224-27.636 21.464-41.655a126.858 126.858 0 0 1 2.937-4.784c.177-.266.348-.526.514-.774 1.15-1.715 2.168-3.07 3.014-3.944.448-.464 1.587-1.78 3.871-4.424.907-1.051 1.571-1.831 2.019-2.4.066-.083.127-.166.177-.238.542-.708.697-1.051.569-1.233-.182-.26-.884-.111-1.653.16a23.48 23.48 0 0 0-2.218.946c-2.588 1.244-5.115 3.473-7.455 6.122a53.1 53.1 0 0 0-2.511 3.075c-2.599 3.429-4.866 7.162-6.581 10.231-2.101 3.783-3.362 6.565-3.362 6.565-5.868 12.957-12.377 27.779-12.72 27.652-.376-.139 6.841-18.588 8.942-28.609.703-3.357.83-5.768-.094-6.233-.033-.016-.066-.033-.105-.044a.86.86 0 0 0-.348-.039s-.857-.11-1.759.083c-1.122.244-2.4 3.368-3.644 7.754-3.236 11.304-6.31 30.959-6.31 30.959-3.075 19.661-7.743 35.572-8.849 35.395-.614-.1.265-5.039-.553-13.273-.575-5.774-1.228-5.597-3.318-16.039-3.319-16.563-4.978-24.842-4.978-24.886.017-.349.061-1.051-.044-1.781-.111-.791-.393-1.621-1.062-2.091-1.017-.719-2.654-.409-3.318 0-.531.332-.802.941-.863 1.814-.365 5.498 7.533 21.436 10.265 42.983 1.36 10.734 2.107 16.591 0 24.333-2.085 7.677-5.719 12.565-6.123 16.055Z"/><path fill="#BBC4DF" d="M469.278 214.436c4.537-.825 10.172 2.212 10.508 5.531.276 2.732-3.082 5.226-2.765 5.53.296.284 2.376-2.713 4.977-2.765 3.93-.078 8.647 6.578 7.19 10.508-1.17 3.154-6.183 4.186-6.084 4.424.094.224 3.913-2.224 7.743-1.659 5.483.808 10.734 7.756 9.401 12.167-1.488 4.928-11.124 6.455-11.06 6.636.067.193 9.698-4.738 13.273-1.659 2.397 2.066 2.053 6.88.553 9.955-3.132 6.417-12.903 8.691-17.698 5.53-3.728-2.458-1.214-6.069-4.977-13.826-4.621-9.525-12.659-12.829-12.72-19.909-.005-.644-.023-2.717 1.106-3.318 1.804-.961 5.285 2.496 5.531 2.212.265-.308-4.395-3.674-7.19-9.402-.879-1.801-2.879-5.9-1.106-8.296.903-1.219 2.41-1.493 3.318-1.659ZM494.718 203.929c4.537-.826 10.172 2.211 10.508 5.53.276 2.732-3.082 5.226-2.765 5.53.295.284 2.376-2.713 4.977-2.765 3.93-.078 8.647 6.578 7.19 10.508-1.17 3.154-6.183 4.186-6.084 4.424.094.225 3.913-2.224 7.743-1.659 5.483.809 10.734 7.756 9.401 12.167-1.488 4.929-11.124 6.455-11.06 6.636.067.193 9.698-4.738 13.273-1.659 2.397 2.066 2.053 6.881.553 9.955-3.132 6.417-12.903 8.692-17.698 5.531-3.728-2.458-1.214-6.07-4.977-13.827-4.622-9.525-12.659-12.829-12.72-19.909-.006-.644-.023-2.717 1.106-3.318 1.804-.961 5.285 2.496 5.53 2.212.266-.308-4.394-3.674-7.189-9.402-.879-1.801-2.879-5.9-1.106-8.295.903-1.22 2.41-1.494 3.318-1.659Z"/><path fill="#BBC4DF" d="M525.523 191.649c-4.3 1.665-7.52 7.197-6.073 10.203 1.19 2.474 5.357 2.848 5.246 3.273-.104.396-3.444-1.074-5.689.24-3.393 1.986-3.94 10.125-.645 12.716 2.645 2.079 7.459.342 7.498.597.038.24-4.498.146-7.469 2.628-4.254 3.552-5.104 12.219-1.665 15.285 3.843 3.426 12.858-.304 12.898-.115.043.199-10.745 1.023-12.186 5.515-.966 3.014 1.841 6.94 4.727 8.779 6.021 3.838 15.542.675 17.98-4.524 1.897-4.043-2.134-5.811-2.974-14.391-1.032-10.537 4.097-17.552.452-23.621-.331-.552-1.399-2.33-2.676-2.253-2.04.123-3.204 4.889-3.561 4.775-.387-.124 1.829-5.429 1.222-11.773-.191-1.995-.625-6.535-3.388-7.652-1.407-.569-2.836-.016-3.697.318Z"/><path fill="#BBC4DF" d="M574.361 194.657c2.711 3.73 2.419 10.124-.426 11.866-2.342 1.434-6.046-.51-6.183-.093-.128.39 3.476.965 4.65 3.286 1.775 3.507-2.177 10.644-6.35 11.035-3.35.314-6.453-3.755-6.625-3.563-.161.182 3.701 2.562 4.853 6.257 1.65 5.292-2.334 13.036-6.886 13.748-5.086.797-10.64-7.225-10.777-7.088-.143.144 8.476 6.684 7.252 11.24-.822 3.056-5.309 4.834-8.73 4.816-7.141-.039-13.427-7.857-12.659-13.548.598-4.426 4.943-3.726 10.3-10.481 6.579-8.295 6.07-16.971 12.423-20.096.578-.284 2.438-1.199 3.47-.442 1.648 1.208.042 5.844.405 5.942.392.106 1.405-5.553 5.354-10.555 1.242-1.574 4.067-5.153 6.995-4.595 1.49.285 2.391 1.524 2.934 2.271Z"/><path fill="#BBC4DF" d="M570.489 235.582c2.712 3.73 2.419 10.125-.426 11.867-2.342 1.433-6.046-.511-6.182-.094-.128.39 3.475.965 4.65 3.286 1.775 3.508-2.177 10.644-6.35 11.035-3.35.314-6.454-3.755-6.625-3.562-.162.181 3.7 2.561 4.852 6.257 1.65 5.291-2.333 13.035-6.885 13.748-5.087.796-10.641-7.225-10.777-7.089-.144.145 8.476 6.684 7.251 11.241-.821 3.056-5.309 4.834-8.73 4.815-7.141-.039-13.427-7.857-12.658-13.548.598-4.425 4.942-3.726 10.299-10.481 6.579-8.295 6.071-16.971 12.424-20.096.577-.284 2.437-1.199 3.469-.442 1.648 1.209.043 5.845.405 5.942.393.106 1.405-5.553 5.354-10.555 1.242-1.574 4.068-5.153 6.995-4.594 1.491.284 2.392 1.524 2.934 2.27Z"/><path fill="#E6E6E6" d="M509.622 354.4a.46.46 0 0 1-.464.464H81.548v-.929h427.61c.26 0 .464.21.464.465Z"/></g><defs><clipPath id="a"><path fill="#fff" d="M41 159h535.24v195.864H41z"/></clipPath></defs></svg>
