<svg xmlns="http://www.w3.org/2000/svg" width="617" height="355" fill="none"><path fill="#F3F3F3" fill-rule="evenodd" d="M613.482 355A310.478 310.478 0 0 0 617 308.289C617 138.026 478.88 0 308.5 0S0 138.026 0 308.289c0 15.88 1.201 31.478 3.518 46.711h609.964Z" clip-rule="evenodd"/><g clip-path="url(#a)"><path fill="#F2F2F2" d="M54.382 353.421c-.703-5.119-1.426-10.303-.933-15.477.438-4.595 1.84-9.083 4.694-12.762a21.22 21.22 0 0 1 5.447-4.936c.545-.343 1.046.519.504.861a20.18 20.18 0 0 0-7.984 9.633c-1.738 4.42-2.017 9.24-1.715 13.936.181 2.84.565 5.66.952 8.479a.515.515 0 0 1-.349.614.505.505 0 0 1-.614-.349l-.002.001Z"/><path fill="#DFDFE0" d="M60.412 96.666a2456.32 2456.32 0 0 1 188.134 3.925c1.103.065 1.099-1.65 0-1.716A2456.44 2456.44 0 0 0 60.412 94.95c-1.102.02-1.106 1.735 0 1.716ZM231.102 85.91l10.71-.797c1.094-.081 1.103-1.797 0-1.715l-10.71.797c-1.094.081-1.103 1.797 0 1.715ZM231.102 96.202l10.71-.797c1.094-.082 1.103-1.798 0-1.716l-10.71.798c-1.094.08-1.103 1.797 0 1.715ZM230.297 91.502l15.226 1.383c1.099.1 1.093-1.616 0-1.715l-15.226-1.383c-1.099-.1-1.093 1.616 0 1.715ZM66.75 83.604a3.794 3.794 0 0 0-3.506 2.29 3.416 3.416 0 0 0 .786 4.057 4.062 4.062 0 0 0 3.847.782 3.432 3.432 0 0 0 2.3-3.227 3.836 3.836 0 0 0-2.389-3.698.861.861 0 0 0-1.055.598.882.882 0 0 0 .6 1.055c.149.058-.137-.073.002.003.058.031.116.06.173.093.047.028.093.06.14.09.16.104-.078-.077.024.017.089.082.177.161.258.25.03.035.15.13.057.063-.071-.05-.028-.038 0 .002.02.031.042.061.063.092.067.101.127.206.182.315l.037.075c.024.047.059.06.002 0-.054-.055-.02-.051 0 .002l.039.106c.04.116.074.234.1.353.014.056.024.111.034.167.039.197-.005-.123.004.023.008.123.017.244.015.366a3.252 3.252 0 0 1-.008.168l-.007.084c-.008.135-.009-.05.01-.062-.04.114-.065.233-.077.353-.016.053-.034.105-.051.158-.06.184.056-.1-.008.026-.052.108-.11.213-.175.314-.028.042-.133.138-.047.072.093-.073-.05.052-.08.084a2.36 2.36 0 0 1-.206.193c-.006-.003.143-.1.063-.048-.102.065-.198.135-.306.191-.012.007-.15.07-.15.073-.005-.024.177-.065.052-.024l-.078.027c-.114.039-.23.07-.349.093-.027.005-.055.008-.082.015-.088.023.085-.013.09-.01a.748.748 0 0 0-.195.017 3.182 3.182 0 0 1-.365 0l-.085-.006c-.065-.004-.113-.051-.026 0 .067.04.062.01.002 0l-.084-.015a3.344 3.344 0 0 1-.356-.087c-.063-.02-.125-.042-.187-.064a.506.506 0 0 1-.08-.03c0-.007.161.077.076.031-.107-.058-.218-.106-.322-.17-.056-.033-.11-.07-.164-.106a.524.524 0 0 1-.068-.048c.002-.007.133.114.064.049-.087-.083-.18-.158-.263-.246l-.055-.062-.018-.02c-.047-.057-.047-.057-.003 0 .046.014.044.064 0-.001l-.047-.069a1.8 1.8 0 0 1-.177-.316c.004-.004.074.206.02.048l-.03-.09c-.02-.059-.038-.119-.053-.18-.014-.06-.022-.122-.037-.182-.025-.1.015.08.01.075-.014-.014-.008-.101-.01-.122-.006-.135.01-.265.012-.4.002-.103-.009.081-.011.076 0-.031.006-.062.016-.091.016-.07.03-.141.05-.21.021-.08.046-.16.074-.237.011-.03.024-.058.034-.088.036-.108-.072.13-.012.033.081-.134.142-.278.229-.41.02-.031.145-.206.079-.118-.066.088.067-.078.093-.106.105-.117.229-.214.338-.326.064-.066-.045.033-.052.038.034-.024.067-.05.101-.073.06-.041.12-.08.183-.117.07-.04.15-.071.218-.115.08-.052-.061.023-.064.024a.643.643 0 0 1 .115-.044c.066-.023.355-.148.416-.109-.003-.002-.22.018-.044.006l.124-.008a2.66 2.66 0 0 1 .25.003.863.863 0 0 0 .858-.858.877.877 0 0 0-.857-.857ZM78.757 83.604a3.794 3.794 0 0 0-3.506 2.29 3.415 3.415 0 0 0 .786 4.057 4.062 4.062 0 0 0 3.847.782 3.432 3.432 0 0 0 2.3-3.227 3.835 3.835 0 0 0-2.389-3.698.861.861 0 0 0-1.055.598.882.882 0 0 0 .6 1.055c.149.058-.137-.073.002.003.058.031.116.06.172.093.048.028.094.06.14.09.16.104-.077-.077.025.017.089.082.177.161.257.25.03.035.15.13.057.063-.07-.05-.027-.038 0 .002l.064.092c.067.101.127.206.182.315l.037.075c.024.047.059.06.002 0-.054-.055-.02-.051 0 .002.012.036.026.07.039.106.04.116.074.234.1.353.013.056.023.111.034.167.039.197-.005-.123.004.023.008.123.017.244.014.366a3.252 3.252 0 0 1-.007.168l-.007.084c-.009.135-.009-.05.01-.062-.04.114-.065.233-.078.353-.015.053-.033.105-.05.158-.06.184.056-.1-.008.026-.052.108-.11.213-.175.314-.028.042-.133.138-.047.072.093-.073-.05.052-.08.084a2.32 2.32 0 0 1-.206.193c-.006-.003.143-.1.063-.048-.102.065-.199.135-.306.191-.013.007-.15.07-.15.073-.005-.024.177-.065.052-.024l-.078.027c-.114.039-.23.07-.349.093-.027.005-.055.008-.082.015-.089.023.085-.013.09-.01a.748.748 0 0 0-.195.017 3.182 3.182 0 0 1-.365 0l-.085-.006c-.065-.004-.113-.051-.026 0 .067.04.061.01.002 0l-.084-.015a3.336 3.336 0 0 1-.356-.087c-.064-.02-.125-.042-.188-.064a.506.506 0 0 1-.078-.03c0-.007.16.077.075.031-.107-.058-.218-.106-.322-.17-.056-.033-.11-.07-.164-.106a.524.524 0 0 1-.068-.048c.002-.007.133.114.064.049-.087-.083-.18-.158-.263-.246l-.055-.062-.018-.02c-.047-.057-.048-.057-.003 0 .046.014.043.064 0-.001l-.047-.069c-.07-.1-.129-.205-.177-.316.004-.004.074.206.02.048l-.03-.09c-.02-.059-.038-.119-.053-.18-.015-.06-.022-.122-.037-.182-.025-.1.014.08.01.075-.014-.014-.008-.101-.01-.122-.006-.135.01-.265.012-.4.001-.103-.009.081-.011.076 0-.031.006-.062.016-.091.016-.07.03-.141.05-.21.02-.08.046-.16.074-.237.01-.03.024-.058.034-.088.036-.108-.072.13-.013.033.082-.134.143-.278.23-.41.02-.031.145-.206.079-.118-.066.088.067-.078.093-.106.105-.117.229-.214.338-.326.064-.066-.046.033-.052.038l.1-.073c.06-.041.121-.08.184-.117.07-.04.15-.071.218-.115.08-.052-.061.023-.064.024a.646.646 0 0 1 .115-.044c.066-.023.355-.148.416-.109-.003-.002-.22.018-.045.006l.124-.008c.084-.004.168-.002.251.003a.863.863 0 0 0 .858-.858.877.877 0 0 0-.858-.857ZM90.764 83.604a3.794 3.794 0 0 0-3.506 2.29 3.416 3.416 0 0 0 .786 4.057 4.062 4.062 0 0 0 3.847.782 3.432 3.432 0 0 0 2.3-3.227 3.836 3.836 0 0 0-2.389-3.698.861.861 0 0 0-1.055.598.882.882 0 0 0 .6 1.055c.149.058-.137-.073.002.003.058.031.116.06.172.093.048.028.094.06.14.09.161.104-.077-.077.025.017.089.082.177.161.257.25.03.035.15.13.058.063-.072-.05-.028-.038 0 .002.02.031.042.061.063.092.067.101.127.206.182.315l.037.075c.024.047.059.06.002 0-.054-.055-.02-.051 0 .002l.039.106c.04.116.074.234.1.353.013.056.023.111.034.167.039.197-.005-.123.004.023.008.123.017.244.015.366a3.252 3.252 0 0 1-.008.168l-.007.084c-.009.135-.009-.05.01-.062-.04.114-.065.233-.078.353-.015.053-.033.105-.05.158-.06.184.056-.1-.008.026-.052.108-.11.213-.175.314-.028.042-.133.138-.047.072.093-.073-.05.052-.08.084a2.36 2.36 0 0 1-.206.193c-.006-.003.143-.1.063-.048-.102.065-.199.135-.306.191-.012.007-.15.07-.15.073-.005-.024.177-.065.052-.024l-.078.027c-.114.039-.23.07-.349.093-.027.005-.055.008-.082.015-.088.023.085-.013.09-.01a.748.748 0 0 0-.195.017 3.182 3.182 0 0 1-.365 0l-.085-.006c-.065-.004-.113-.051-.026 0 .067.04.061.01.002 0l-.084-.015a3.344 3.344 0 0 1-.356-.087c-.063-.02-.125-.042-.188-.064a.506.506 0 0 1-.078-.03c0-.007.16.077.075.031-.107-.058-.218-.106-.322-.17-.056-.033-.11-.07-.164-.106a.524.524 0 0 1-.068-.048c.002-.007.133.114.064.049-.087-.083-.18-.158-.263-.246l-.055-.062-.018-.02c-.047-.057-.048-.057-.003 0 .046.014.044.064 0-.001l-.047-.069c-.07-.1-.129-.205-.177-.316.004-.004.074.206.02.048l-.03-.09c-.02-.059-.038-.119-.053-.18-.015-.06-.022-.122-.037-.182-.025-.1.015.08.01.075-.014-.014-.008-.101-.01-.122-.006-.135.01-.265.012-.4.002-.103-.009.081-.011.076 0-.031.006-.062.016-.091.016-.07.03-.141.05-.21.02-.08.046-.16.074-.237.01-.03.024-.058.034-.088.036-.108-.072.13-.013.033.082-.134.143-.278.23-.41.02-.031.145-.206.079-.118-.066.088.067-.078.093-.106.105-.117.229-.214.338-.326.064-.066-.045.033-.052.038.034-.024.067-.05.101-.073.06-.041.12-.08.183-.117.07-.04.15-.071.218-.115.08-.052-.061.023-.064.024a.646.646 0 0 1 .115-.044c.066-.023.355-.148.416-.109-.003-.002-.22.018-.044.006l.123-.008a2.66 2.66 0 0 1 .251.003.863.863 0 0 0 .858-.858.877.877 0 0 0-.858-.857Z"/><path fill="#DFDFE0" d="M264.22 273.548H53.868a10.044 10.044 0 0 1-10.033-10.033V76.033A10.044 10.044 0 0 1 53.868 66H264.22a10.045 10.045 0 0 1 10.033 10.033v187.482a10.044 10.044 0 0 1-10.033 10.033ZM53.868 67.144a8.9 8.9 0 0 0-8.89 8.889v187.482a8.9 8.9 0 0 0 8.89 8.889H264.22a8.897 8.897 0 0 0 8.89-8.889V76.033a8.9 8.9 0 0 0-8.89-8.89H53.868Z"/><path fill="#DFDFE0" d="m53.52 193.562 73.973-.225 73.596-.223 41.516-.127a.857.857 0 0 0 0-1.715l-73.974.225-73.596.224-41.516.126a.86.86 0 0 0-.587 1.454c.154.16.365.254.587.261Z"/><path fill="#DFDFE0" d="m90.838 192.172.457-27.008c.019-1.105-1.696-1.105-1.715 0l-.457 27.008c-.02 1.104 1.696 1.104 1.715 0ZM126.193 192.464l1.114-33.948.319-9.699c.036-1.104-1.679-1.103-1.715 0l-1.115 33.948-.319 9.699c-.036 1.104 1.679 1.103 1.716 0ZM161.452 132.725c-.672 12.024-1.916 47.49-2.589 59.514-.061 1.103 1.654 1.099 1.715 0 .673-12.024 1.917-47.49 2.589-59.514.062-1.103-1.654-1.1-1.715 0ZM196.541 180.174l-.21 11.557c-.02 1.104 1.695 1.104 1.716 0 .248-13.65.885-13.205.955-17.057.02-1.105-1.695-1.105-1.716 0 0 0-.496-8.15-.745 5.5ZM230.911 149.813l.194 32.424.056 9.284a.857.857 0 0 0 1.715 0l-.194-32.423-.056-9.285a.857.857 0 0 0-1.715 0Z"/><path fill="#DFDFE0" d="M53.657 192.598c-1.42-3.902 1.781-7.655 5.07-9.341 3.94-2.02 8.472-2.478 12.454-4.425 5.936-2.904 10.26-8.114 14.107-13.33 3.96-5.369 7.583-11.13 12.615-15.591a25.283 25.283 0 0 1 9.187-5.317c4.29-1.338 8.839-1.43 13.271-.891 9.159 1.115 17.649 4.898 26.486 7.302 8.332 2.267 17.512 3.542 25.69.017 4.155-1.791 7.552-4.795 11.202-7.394a37.322 37.322 0 0 1 11.668-5.629c8.209-2.282 17.175-1.673 24.817 2.186a33.296 33.296 0 0 1 15.706 16.577c3.624 8.655 3.152 18.328 1.968 27.438-.305 2.355-.67 4.702-1.038 7.048-.169 1.08 1.483 1.545 1.654.456 1.474-9.394 2.944-19.086 1.11-28.54a34.57 34.57 0 0 0-12.768-20.798 35.474 35.474 0 0 0-23.392-7.382 38.328 38.328 0 0 0-12.849 2.857c-4.242 1.755-7.835 4.356-11.483 7.092-3.752 2.814-7.619 5.141-12.277 6.059-4.517.89-9.217.556-13.715-.284-9.281-1.734-17.932-5.709-27.134-7.746-8.526-1.887-17.726-2.075-25.361 2.741-5.872 3.705-10.022 9.457-14.005 15.011-3.947 5.505-7.945 11.392-13.717 15.153-3.522 2.294-7.48 3.141-11.419 4.431-3.95 1.293-7.74 3.475-9.351 7.522a7.315 7.315 0 0 0-.15 5.234c.375 1.029 2.033.584 1.654-.456Z"/><path fill="#DFDFE0" d="m90.27 161.429-.003.002.005-.002h-.003Z"/><path fill="#DFDFE0" d="M93.243 159.851a3.407 3.407 0 0 0-4.13-1.528 2.995 2.995 0 0 0-1.709 1.591c-.033.078-.052.16-.079.239-.037.06-.082.115-.115.178a3.406 3.406 0 0 0 5.312 4.069 3.667 3.667 0 0 0 .72-4.549Zm-2.148 1.457c.004.083.007.043 0 0Zm-.219-.497c-.008-.009-.007-.008 0 0Zm-.962.387c-.014-.023-.013-.019 0 0Zm.228.194c.033.014.054.018 0 0Zm.102.048.022-.01a.043.043 0 0 1-.016-.003h.001l.018.002.003-.002-.01-.002c.009 0 .01.001.01.002.102-.046.033-.024-.026-.006l-.004-.001a.404.404 0 0 0-.117-.037l-.012-.006c-.033-.024-.199-.153-.045-.017-.033-.03-.066-.059-.098-.091a.448.448 0 0 1-.05-.062 2.286 2.286 0 0 1-.059-.105l-.003-.019-.006-.031a.658.658 0 0 1 .004-.031.372.372 0 0 0 .022-.096l.006-.008c.025-.035.046-.075.07-.11-.124.188.049-.021.062-.048.002-.004-.002-.002-.001-.005l.01-.005c.038-.022.074-.048.113-.069.047-.026.23-.078.04-.024.044-.012.085-.028.129-.039l.106-.017.063-.002.043.003c-.032.004.108.034.15.04l.017.014c.035.026.078.049.115.073-.166-.108.002.008.034.04.019.019.036.039.054.059a.435.435 0 0 1 .044.061l.085.149.008.012v.005c.014.08.036.158.065.233a.231.231 0 0 1 .004.02c.002.043.006.087.006.131v.008a.949.949 0 0 0-.857-.006Z"/><path fill="#DFDFE0" d="M90.274 161.428c.003.001 0 .001 0 .001v-.001ZM90.275 161.429l-.004.001c.005 0 .004-.001.004-.001ZM90.272 161.427l.002.001-.002-.001ZM126.862 145.42l-.003.001.005-.001h-.002Z"/><path fill="#DFDFE0" d="M129.835 143.842a3.405 3.405 0 0 0-4.129-1.529 3.008 3.008 0 0 0-1.71 1.592c-.032.078-.052.159-.078.239-.038.06-.082.114-.115.177a3.408 3.408 0 0 0 3.171 4.932 3.41 3.41 0 0 0 2.141-.862 3.672 3.672 0 0 0 .72-4.549Zm-2.148 1.457c.005.083.007.043 0 0Zm-.218-.497c-.009-.01-.008-.009 0 0Zm-.963.387c-.014-.023-.013-.02 0 0Zm.228.193c.033.015.055.019 0 0Zm.102.049.023-.01a.041.041 0 0 1-.016-.003l.001-.001.017.003.004-.002-.011-.002c.009-.001.01.001.011.002.102-.047.033-.024-.026-.006l-.004-.001a.407.407 0 0 0-.118-.038l-.011-.005c-.033-.024-.199-.154-.045-.018a1.393 1.393 0 0 1-.098-.09.431.431 0 0 1-.051-.062l-.058-.105-.003-.019-.007-.032.004-.03a.352.352 0 0 0 .022-.096l.007-.009c.024-.034.046-.074.069-.11-.124.189.049-.021.062-.047.002-.005-.002-.002-.001-.005l.01-.005c.038-.022.075-.048.114-.069.047-.026.23-.078.04-.024.043-.012.084-.028.128-.039.008-.002.072-.011.107-.018l.062-.001.043.002c-.031.005.109.035.15.041l.017.014c.036.026.078.048.115.072-.165-.107.003.009.034.041a.992.992 0 0 1 .099.119l.084.15.008.012v.005c.015.08.037.158.066.233l.003.02c.003.043.006.086.006.13v.009a.938.938 0 0 0-.857-.006ZM126.867 145.42h-.003.003ZM126.865 145.418l.002.001-.002-.001Z"/><path fill="#DFDFE0" d="M126.867 145.419c.002.001-.001.001-.001.001l.001-.001ZM162.314 153.423l.002.001-.002-.001ZM165.284 127.833a3.407 3.407 0 0 0-4.13-1.528 2.995 2.995 0 0 0-1.709 1.591c-.032.078-.052.16-.078.239-.038.06-.082.115-.115.177a3.408 3.408 0 0 0 3.171 4.932 3.404 3.404 0 0 0 2.141-.862 3.67 3.67 0 0 0 .72-4.549Zm-2.148 1.457c.005.083.007.043 0 0Zm-.218-.497c-.009-.009-.008-.008 0 0Zm-.963.387c-.014-.023-.013-.02 0 0Zm.228.194c.033.014.055.018 0 0Zm.102.048.023-.01a.041.041 0 0 1-.016-.003h.001l.017.002.004-.002-.011-.002c.009 0 .01.001.011.002.102-.046.033-.024-.026-.006l-.004-.001a.405.405 0 0 0-.118-.037l-.011-.006c-.033-.024-.199-.153-.045-.017-.034-.03-.067-.059-.098-.091a.431.431 0 0 1-.051-.062 2.604 2.604 0 0 1-.058-.105l-.003-.019-.007-.032.004-.03a.352.352 0 0 0 .022-.096l.007-.008c.024-.035.046-.075.069-.111-.124.189.049-.02.062-.047.002-.004-.002-.002-.001-.005l.01-.005c.038-.022.075-.048.114-.069.047-.026.23-.078.04-.024.043-.012.084-.028.128-.039l.107-.017.062-.002c.015 0 .029.002.043.003-.031.004.109.034.15.04l.017.014c.036.026.078.049.115.073-.165-.108.003.008.034.04a.992.992 0 0 1 .099.119l.084.15.008.012v.005c.015.08.037.158.066.233l.003.02c.003.043.006.087.006.131v.008a.938.938 0 0 0-.857-.006ZM162.311 153.424l-.003.002.005-.002h-.002ZM162.316 153.424l-.004.001c.005 0 .004-.001.004-.001Z"/><path fill="#DFDFE0" d="M162.316 153.424c.002.001-.001.001-.001.001l.001-.001ZM201.305 171.859a3.413 3.413 0 0 0-4.13-1.529 3.002 3.002 0 0 0-1.709 1.591c-.033.078-.052.16-.079.24-.037.06-.082.114-.115.177a3.406 3.406 0 0 0 5.312 4.07 3.666 3.666 0 0 0 .721-4.549Zm-2.148 1.456c.004.083.007.043 0 0Zm-.219-.496c-.008-.01-.007-.009 0 0Zm-.962.387c-.014-.023-.013-.02 0 0Zm.228.193c.033.015.054.019 0 0Zm.102.049.022-.011a.023.023 0 0 1-.016-.003h.001l.018.002.003-.001-.01-.003c.009 0 .009.001.01.003.102-.047.033-.025-.026-.006l-.004-.001a.382.382 0 0 0-.117-.038l-.012-.006c-.033-.023-.199-.153-.045-.017-.033-.03-.066-.059-.098-.091a.492.492 0 0 1-.05-.061l-.059-.105-.003-.019-.006-.032.004-.031a.394.394 0 0 0 .022-.096l.006-.008c.025-.034.046-.074.07-.11-.124.189.049-.021.061-.048.003-.004-.001-.002 0-.005l.009-.004c.039-.023.075-.048.114-.07.047-.026.231-.078.04-.023.043-.013.085-.028.129-.04l.106-.017.063-.002.043.003c-.032.004.108.034.15.041l.017.014c.035.025.078.048.115.072-.166-.107.002.009.034.04.019.019.036.039.054.059.016.019.031.04.044.061.027.05.056.1.085.149l.008.013v.005c.014.079.036.157.065.233a.063.063 0 0 1 .003.019c.003.044.007.087.007.131l-.001.009a.935.935 0 0 0-.856-.006ZM198.331 135.7l-.002.002.005-.002h-.003ZM198.337 135.7l-.004.001c.005 0 .004-.001.004-.001Z"/><path fill="#DFDFE0" d="M198.336 135.699c.003.001 0 .001 0 .001v-.001ZM198.334 135.698l.002.001-.002-.001ZM235.039 145.557a3.406 3.406 0 0 0-4.13-1.528 2.999 2.999 0 0 0-1.709 1.591c-.033.078-.052.16-.079.239-.037.06-.082.115-.115.178a3.403 3.403 0 0 0 3.172 4.931 3.399 3.399 0 0 0 2.14-.862 3.673 3.673 0 0 0 .721-4.549Zm-2.148 1.457c.004.083.007.043 0 0Zm-.219-.497c-.008-.009-.007-.008 0 0Zm-.962.387c-.014-.023-.013-.019 0 0Zm.228.194c.033.014.054.018 0 0Zm.102.048.022-.01c-.005.001-.011-.001-.016-.003h.001l.018.002.003-.002-.01-.002c.009 0 .009.001.01.002.102-.046.033-.024-.026-.006h-.004a.38.38 0 0 0-.118-.038l-.011-.006c-.033-.024-.199-.153-.045-.017-.033-.03-.066-.059-.098-.091a.424.424 0 0 1-.05-.062 1.776 1.776 0 0 1-.059-.105l-.003-.019-.006-.031.004-.031a.392.392 0 0 0 .021-.096l.007-.008c.025-.035.046-.075.07-.11-.124.188.048-.021.061-.048.003-.004-.001-.002 0-.005l.009-.004c.039-.023.075-.048.114-.07.047-.026.23-.078.04-.024.043-.012.085-.028.129-.039l.106-.017.063-.002.043.003c-.032.004.108.034.15.041l.017.013c.035.026.078.049.115.073-.166-.107.002.008.034.04.019.019.036.039.054.059a.451.451 0 0 1 .044.061l.085.149.008.012-.001.005c.015.08.037.158.066.233.001.007.003.013.003.02.003.043.007.087.007.131l-.001.008a.946.946 0 0 0-.856-.006Z"/><path fill="#DFDFE0" d="m232.065 147.135-.003.002.006-.002h-.003ZM232.068 147.133l.002.001-.002-.001ZM232.07 147.134c.003.001-.001.001-.001.001l.001-.001Z"/><path fill="#DFDFE0" d="m232.07 147.135-.003.001c.004 0 .003-.001.003-.001Z"/><path fill="#3F3D56" d="m222.821 173.338-26.585 1.477a.583.583 0 0 1-.616-.521.589.589 0 0 1 .489-.642l27.172-4.422-.46 4.108Z"/><path fill="#E1BC9C" d="m256.606 232.524 10.018-16.854 7.405 3.497s-12.759 15.936-13.166 16.394a3.921 3.921 0 1 1-4.257-3.037Z"/><path fill="#BBC4DF" d="m260.773 193.373 16.231 8.468a8.988 8.988 0 0 1 3.329 9.955 8.98 8.98 0 0 1-1.808 3.24l-11.189 12.836-4.875-6.606 3.757-7.856-7.275-1.918 1.83-18.119Z"/><path fill="#E1BC9C" d="m214.52 173.613-1.828 19.521-8.189.014s4.698-19.866 4.869-20.455a3.925 3.925 0 0 1-.272-4.437 3.924 3.924 0 0 1 6.116-.767 3.928 3.928 0 0 1 .832 4.368 3.926 3.926 0 0 1-1.528 1.756Z"/><path fill="#BBC4DF" d="m230.82 213.534-18.847-3.456c-7.937-.955-11.194-6.177-9.762-11.271l4.609-16.392 7.235 3.879-.028 8.708 10.127-1.385 6.666 19.917Z"/><path fill="#E1BC9C" d="M223.105 348.443h-5.182l-2.466-19.989h7.649l-.001 19.989Z"/><path fill="#888" d="m223.288 353.85-15.937-.001v-.201a6.204 6.204 0 0 1 6.203-6.203l2.912-2.209 5.431 2.209h1.391v6.405Z"/><path fill="#E1BC9C" d="M259.775 348.443h5.182l2.466-19.989h-7.649l.001 19.989Z"/><path fill="#888" d="m259.592 353.85 15.937-.001v-.201a6.204 6.204 0 0 0-6.203-6.203l-2.911-2.209-5.432 2.209h-1.391v6.405ZM215.229 313.764c.077-1.14.686-7.448.686-7.448l1.457-13.378 2.569-35.461 2.29-9.321 11.336 4.416 9.198-4.41 10.932 3.495 8.513 3.192s.015 1.367.08 3.018c.088 2.161.241 4.81.605 5.499.609 1.217.456 7.751.456 7.751s.605 13.294 1.366 14.751c.762 1.458.915 4.494.685 5.102-.229.609.762 16.574.762 16.574s2.544 28.252.948 32.512c-1.596 4.26-7.628 1.47-7.628 1.47s.292-1.137-1.458-1.673c-1.749-.536-7.077-40.596-7.077-40.596s-.991-8.214-1.902-10.568c-.911-2.354-1.749-8.968-1.749-8.968s-5.627-10.947-5.699-13.382c0 0-.737-2.277-1.433.23-.696 2.507-2.747 8.513-2.747 8.513l-2.001 7.375-2.354 11.02-1.523 9.278s-2.282 12.314-2.646 12.846c-.364.532 0 11.782 0 11.782s-1.764 9.58-4.256 11.253c-2.493 1.673-9.097.026-9.097.026s-.389-23.757-.313-24.898Z"/><path fill="#BBC4DF" d="m223.703 218.163-1.448 18.764-2.176 2.252a2.096 2.096 0 0 0 .11 3.023l-1.199 2.056-.425 6.478a3.522 3.522 0 0 0 3.259 4.339l37.525 1.763a3.515 3.515 0 0 0 2.759-1.135 3.525 3.525 0 0 0 .897-2.845l-3.191-24.022v-1.796l-1.429-3.469.735-11.621 1.707-18.444-9.927-2.564-5.382-3.703-9.351.149-5.674 4.66-7.565 1.184-5.722 1.138-.728 1.584 1.457-.317 5.284 20.607.484 1.919Z"/><path fill="#E1BC9C" d="M240.633 184.724c6.084 0 11.016-4.932 11.016-11.015 0-6.084-4.932-11.016-11.016-11.016-6.083 0-11.015 4.932-11.015 11.016 0 6.083 4.932 11.015 11.015 11.015Z"/><path fill="#888" d="m237.978 184.013 7.958-.406c1.02-.052 2.133-.142 2.875-.843.399-.434.706-.944.902-1.499a482.244 482.244 0 0 0 2.188-5.135c.992-2.375 1.966-4.883 1.713-7.444a4.739 4.739 0 0 0-1.377-3.106 2.63 2.63 0 0 0-3.196-.323 5.405 5.405 0 0 0-2.683-3.896 8.286 8.286 0 0 0-4.724-1.001 11.4 11.4 0 0 0-6.493 2.559c-.518.478-1.072.917-1.656 1.313a2.604 2.604 0 0 1-2.022.374 1.468 1.468 0 0 1-1.074-1.595 2.817 2.817 0 0 0-.72 3.716 2.595 2.595 0 0 1-2.539-.3 3.1 3.1 0 0 0-1.258 4.415 3.096 3.096 0 0 0 2.071 1.417 3.095 3.095 0 0 0 2.442-.579c.483.677.303 1.596.24 2.425-.062.829.16 1.859.959 2.088 1.08.31 1.955-1.145 3.079-1.129a1.692 1.692 0 0 1 1.34.864 4.99 4.99 0 0 1 .537 1.566l1.438 6.474"/><path fill="#DFDFE0" d="M548.296 283.06c0-1.706-.573-3.09-1.276-3.093H355.284c-.707.003-1.276 1.387-1.279 3.093v70.217a.637.637 0 0 1-.576.635c-.515.049-1.029.095-1.544.138-.013 0-.025.003-.038.003-.28.025-.56.045-.84.067h-.003a51.326 51.326 0 0 1-.428-.806.647.647 0 0 1-.072-.296v-73.971c0-.471.019-.945.051-1.413.045-.642.125-1.282.238-1.916.538-2.956 1.754-4.958 3.135-4.964h194.444c.202.001.401.043.586.124.271.12.517.292.722.506.279.29.518.617.71.971a12.792 12.792 0 0 1 1.34 5.069l.003.057c.044.516.067 1.041.063 1.566l.045 6.82.029 4.067.086 12.762.031 4.531.14 46.527a.636.636 0 0 1-.636.636h-2.559a.636.636 0 0 1-.636-.636V283.06Z"/><path fill="#CCC" d="M496.195 238.842h-20.66a1.102 1.102 0 0 0-1.1 1.104v32.636h22.864v-32.636a1.116 1.116 0 0 0-.323-.781 1.107 1.107 0 0 0-.781-.323Zm-10.26 18.544a2.452 2.452 0 0 1-2.44-2.44v-3.764a2.437 2.437 0 0 1 2.44-2.44 2.439 2.439 0 0 1 2.439 2.44v3.764a2.452 2.452 0 0 1-2.439 2.44Z"/><path fill="#3F3D56" d="M474.364 271.539v3.148a.616.616 0 0 0 .615.616h21.775a.62.62 0 0 0 .615-.616v-3.148h-23.005Z"/><path fill="#DFDFE0" d="M530.406 187.909h-88.313a2.866 2.866 0 0 0-2.862 2.862v59.594a2.866 2.866 0 0 0 2.862 2.863h88.313a2.866 2.866 0 0 0 2.862-2.863v-59.594a2.863 2.863 0 0 0-.84-2.022 2.862 2.862 0 0 0-2.022-.84Z"/><path fill="#fff" d="M529.669 189.977h-86.838a1.53 1.53 0 0 0-1.531 1.533v58.117a1.535 1.535 0 0 0 1.531 1.531h86.838a1.534 1.534 0 0 0 1.53-1.531V191.51a1.534 1.534 0 0 0-1.53-1.533Z"/><path fill="#CCC" d="M512.754 276.399H461.09a.944.944 0 0 1-.738-.352.962.962 0 0 1-.192-.795l.802-3.807a.956.956 0 0 1 .93-.755h50.061a.956.956 0 0 1 .929.755l.802 3.807a.955.955 0 0 1-.192.795.954.954 0 0 1-.738.352Z"/><path fill="#DFDFE0" d="M463.571 271.376h-1.033a.278.278 0 0 0-.279.279v.397c0 .154.124.279.279.279h1.033a.28.28 0 0 0 .279-.279v-.397a.28.28 0 0 0-.279-.279ZM466.753 271.376h-1.033a.28.28 0 0 0-.279.279v.397a.28.28 0 0 0 .279.279h1.033a.28.28 0 0 0 .279-.279v-.397a.28.28 0 0 0-.279-.279ZM469.936 271.376h-1.033a.278.278 0 0 0-.279.279v.397c0 .154.124.279.279.279h1.033a.28.28 0 0 0 .279-.279v-.397a.28.28 0 0 0-.279-.279ZM473.118 271.376h-1.033a.28.28 0 0 0-.279.279v.397a.28.28 0 0 0 .279.279h1.033a.28.28 0 0 0 .279-.279v-.397a.28.28 0 0 0-.279-.279ZM476.3 271.376h-1.033a.28.28 0 0 0-.279.279v.397a.28.28 0 0 0 .279.279h1.033a.278.278 0 0 0 .279-.279v-.397a.278.278 0 0 0-.279-.279ZM479.483 271.376h-1.033a.28.28 0 0 0-.279.279v.397a.28.28 0 0 0 .279.279h1.033a.28.28 0 0 0 .279-.279v-.397a.28.28 0 0 0-.279-.279ZM482.665 271.376h-1.033a.28.28 0 0 0-.279.279v.397a.28.28 0 0 0 .279.279h1.033a.28.28 0 0 0 .279-.279v-.397a.28.28 0 0 0-.279-.279ZM485.847 271.376h-1.032a.28.28 0 0 0-.28.279v.397a.28.28 0 0 0 .28.279h1.032a.28.28 0 0 0 .28-.279v-.397a.28.28 0 0 0-.28-.279ZM489.03 271.376h-1.033a.28.28 0 0 0-.279.279v.397a.28.28 0 0 0 .279.279h1.033a.28.28 0 0 0 .279-.279v-.397a.28.28 0 0 0-.279-.279ZM492.212 271.376h-1.033a.28.28 0 0 0-.279.279v.397a.28.28 0 0 0 .279.279h1.033a.28.28 0 0 0 .279-.279v-.397a.28.28 0 0 0-.279-.279ZM495.395 271.376h-1.033a.278.278 0 0 0-.279.279v.397c0 .154.124.279.279.279h1.033a.28.28 0 0 0 .279-.279v-.397a.28.28 0 0 0-.279-.279ZM498.577 271.376h-1.033a.28.28 0 0 0-.279.279v.397a.28.28 0 0 0 .279.279h1.033a.28.28 0 0 0 .279-.279v-.397a.28.28 0 0 0-.279-.279ZM501.76 271.376h-1.033a.278.278 0 0 0-.279.279v.397c0 .154.124.279.279.279h1.033a.28.28 0 0 0 .279-.279v-.397a.28.28 0 0 0-.279-.279ZM504.942 271.376h-1.033a.28.28 0 0 0-.279.279v.397a.28.28 0 0 0 .279.279h1.033a.28.28 0 0 0 .279-.279v-.397a.28.28 0 0 0-.279-.279ZM508.124 271.376h-1.033a.28.28 0 0 0-.279.279v.397a.28.28 0 0 0 .279.279h1.033a.28.28 0 0 0 .279-.279v-.397a.28.28 0 0 0-.279-.279ZM511.307 271.376h-1.033a.28.28 0 0 0-.279.279v.397a.28.28 0 0 0 .279.279h1.033a.28.28 0 0 0 .279-.279v-.397a.28.28 0 0 0-.279-.279ZM463.533 272.967H462.5a.28.28 0 0 0-.279.279v.396c0 .155.125.279.279.279h1.033a.278.278 0 0 0 .279-.279v-.396a.28.28 0 0 0-.279-.279ZM466.716 272.967h-1.033a.28.28 0 0 0-.279.279v.396c0 .155.125.279.279.279h1.033a.278.278 0 0 0 .279-.279v-.396a.28.28 0 0 0-.279-.279ZM469.898 272.967h-1.033a.28.28 0 0 0-.279.279v.396c0 .155.125.279.279.279h1.033a.278.278 0 0 0 .279-.279v-.396a.28.28 0 0 0-.279-.279ZM473.08 272.967h-1.033a.28.28 0 0 0-.279.279v.396c0 .155.125.279.279.279h1.033c.155 0 .28-.124.28-.279v-.396a.28.28 0 0 0-.28-.279ZM476.263 272.967h-1.033a.28.28 0 0 0-.279.279v.396c0 .155.125.279.279.279h1.033a.278.278 0 0 0 .279-.279v-.396a.28.28 0 0 0-.279-.279ZM479.445 272.967h-1.033a.28.28 0 0 0-.279.279v.396c0 .155.125.279.279.279h1.033a.278.278 0 0 0 .279-.279v-.396a.28.28 0 0 0-.279-.279ZM482.627 272.967h-1.032a.28.28 0 0 0-.28.279v.396c0 .155.125.279.28.279h1.032c.155 0 .28-.124.28-.279v-.396a.28.28 0 0 0-.28-.279ZM485.81 272.967h-1.033a.28.28 0 0 0-.279.279v.396c0 .155.125.279.279.279h1.033a.278.278 0 0 0 .279-.279v-.396a.28.28 0 0 0-.279-.279ZM488.992 272.967h-1.032a.28.28 0 0 0-.28.279v.396c0 .155.125.279.28.279h1.032c.155 0 .28-.124.28-.279v-.396a.28.28 0 0 0-.28-.279ZM492.175 272.967h-1.033a.28.28 0 0 0-.279.279v.396c0 .155.125.279.279.279h1.033a.278.278 0 0 0 .279-.279v-.396a.28.28 0 0 0-.279-.279ZM495.357 272.967h-1.033a.28.28 0 0 0-.279.279v.396c0 .155.125.279.279.279h1.033a.278.278 0 0 0 .279-.279v-.396a.28.28 0 0 0-.279-.279ZM498.539 272.967h-1.033a.28.28 0 0 0-.279.279v.396c0 .155.125.279.279.279h1.033c.155 0 .28-.124.28-.279v-.396a.28.28 0 0 0-.28-.279ZM501.722 272.967h-1.033a.28.28 0 0 0-.279.279v.396c0 .155.125.279.279.279h1.033a.278.278 0 0 0 .279-.279v-.396a.28.28 0 0 0-.279-.279ZM504.904 272.967h-1.033a.28.28 0 0 0-.279.279v.396c0 .155.125.279.279.279h1.033a.278.278 0 0 0 .279-.279v-.396a.28.28 0 0 0-.279-.279ZM508.086 272.967h-1.032a.28.28 0 0 0-.28.279v.396c0 .155.125.279.28.279h1.032c.155 0 .28-.124.28-.279v-.396a.28.28 0 0 0-.28-.279ZM511.269 272.967h-1.033a.28.28 0 0 0-.279.279v.396c0 .155.125.279.279.279h1.033a.278.278 0 0 0 .279-.279v-.396a.28.28 0 0 0-.279-.279ZM489.947 274.876h-12.171a.28.28 0 0 0-.279.28v.396a.28.28 0 0 0 .279.279h12.171a.28.28 0 0 0 .279-.279v-.396a.28.28 0 0 0-.279-.28Z"/><path fill="#CACACA" d="M525.303 197.984H444.05a.324.324 0 0 1-.316-.323.322.322 0 0 1 .316-.324h81.253a.321.321 0 0 1 .224.098.323.323 0 0 1-.224.549Z"/><path fill="#CCC" d="M449.581 195.688c1.046 0 1.893-.867 1.893-1.936s-.847-1.936-1.893-1.936-1.894.867-1.894 1.936.848 1.936 1.894 1.936ZM456.122 195.688c1.046 0 1.894-.867 1.894-1.936s-.848-1.936-1.894-1.936c-1.046 0-1.893.867-1.893 1.936s.847 1.936 1.893 1.936ZM462.664 195.688c1.046 0 1.894-.867 1.894-1.936s-.848-1.936-1.894-1.936c-1.046 0-1.894.867-1.894 1.936s.848 1.936 1.894 1.936ZM521.365 192.296h-4.647a.358.358 0 0 0-.245.105.356.356 0 0 0 0 .493.355.355 0 0 0 .245.106h4.647a.35.35 0 0 0 .345-.352.352.352 0 0 0-.345-.352ZM521.365 193.617h-4.647a.35.35 0 0 0-.345.352.35.35 0 0 0 .345.351h4.647a.35.35 0 0 0 .244-.598.35.35 0 0 0-.244-.105ZM521.365 194.936h-4.647a.35.35 0 0 0-.345.351c0 .093.036.181.1.247a.354.354 0 0 0 .245.105h4.647a.35.35 0 0 0 .345-.352.35.35 0 0 0-.345-.351Z"/><path fill="#9AA4BE" d="M491.237 215.588h-10.153a1.381 1.381 0 0 0 0 2.762h10.153a1.38 1.38 0 1 0 0-2.762Z"/><path fill="#DFDFE0" d="M497.796 221.111h-23.271a1.381 1.381 0 0 0 0 2.762h23.271a1.381 1.381 0 0 0 0-2.762ZM497.796 226.635h-23.271a1.38 1.38 0 1 0 0 2.761h23.271a1.381 1.381 0 0 0 0-2.761Z"/><path fill="#E1BC9C" d="m341.016 312.683-4.681-2.239 6.43-19.564 6.908 3.304-8.657 18.499ZM372.395 309.529a123.9 123.9 0 0 1-4.136 2.475v.01l-.02.004-.007.003-.53.131-.759-2.008-.351-.925-.495-1.31-.908-2.396-4.779-12.618 7.43-1.832.278 1.138h.004l.137.564 2.596 10.527.53 2.152.017.066.319 1.285.276 1.114.305 1.245.093.375Z"/><path fill="#888" d="M416.716 265.219c-.471.756-.953 1.509-1.437 2.255a130.478 130.478 0 0 1-2.775 4.105c0 .003-.003.003-.007.007a9.67 9.67 0 0 1-1.822 1.33c-.027.021-.058.035-.086.052a6.734 6.734 0 0 1-1.533.615l-.581.145a38.171 38.171 0 0 1-5.683.897c-.097.01-.193.017-.289.024-4.92.361-9.709-.22-14.708-1.172-2.468-.468-4.989-1.028-7.598-1.609-.853-.193-1.709-.382-2.575-.571-.065-.014-.134-.031-.203-.045a303.08 303.08 0 0 0-3.785-.804 177.158 177.158 0 0 0-5.037-.963l.124 2.451a18.458 18.458 0 0 0 1.162 5.512c.743 2.172 1.33 3.891.089 7.47l-.598 1.733a5.915 5.915 0 0 1-.608 5.236l-.121.183 4.989 12.621.323.818h-2.554l-3.143.003h-5.325l-7.684-15.416-.368-.736v-.037l.794-29.626c.01-.261.031-.526.065-.787a9.012 9.012 0 0 1 3.428-6.065 8.67 8.67 0 0 1 6.46-1.767l2.63.34 5.374.695 3.785.491.076.011 11.163 1.444.801-3.266.148-.055 4.7-1.723 16.255-5.958.041-.014 1.069-.392.127.207c.038.062.076.123.11.185a31.859 31.859 0 0 1 2.569 5.962 93.604 93.604 0 0 1 2.781 10.716l.01.038a9.62 9.62 0 0 1-.553 5.46Z"/><path fill="#888" d="M417.402 254.301a9.128 9.128 0 0 0-.186-.66 46.986 46.986 0 0 0-1.905-4.82 77.384 77.384 0 0 0-2.943-5.776 129.608 129.608 0 0 0-2.86-4.868l-.1-.165-16.083 2.152-5.989.801-.357 2.984-.086.739c-.004 0-.004 0 0 .004l-.241 2.014v.004l-.32 2.661-.027-.003-8.888-1.152-9.158-1.186-4.92-.636a8.67 8.67 0 0 0-6.46 1.767 9.017 9.017 0 0 0-3.428 6.064 8.521 8.521 0 0 0-.062.733l-4.641 10.998a70.967 70.967 0 0 0-5.247 20.642l-3.403 10.881.484.045 7.213.67 1.905.179 4.194-6.123c.478-.698.932-1.416 1.355-2.152a32.806 32.806 0 0 0 1.853-3.727l9.073-21.591c.701.121 1.396.235 2.084.344 3.18.516 6.233.936 9.158 1.262 9.513 1.062 17.751 1.145 25.084.244a68.474 68.474 0 0 0 8.537-1.585 8.765 8.765 0 0 0 6.137-5.735 8.955 8.955 0 0 0 .227-5.009ZM342.511 309.488l-5.064-2.427-.794-.382-1.269 3.115-8.856 1.949a2.104 2.104 0 0 0-1.644 1.873 2.101 2.101 0 0 0 1.3 2.126l8.653 3.531 2.747-2.472-.673 3.317 3.259 1.331 3.572-11.37-1.231-.591Z"/><path fill="#2F2E41" d="m373.633 304.691.324.818h-.324v-.818Z"/><path fill="#888" d="m371.87 305.684-5.306 1.838-.833.288 1.29 3.106-4.922 7.616a2.107 2.107 0 0 0 .15 2.488 2.104 2.104 0 0 0 2.419.596l8.634-3.58.212-3.69 1.856 2.832 3.252-1.348-5.461-10.592-1.291.446Z"/><path fill="#E1BC9C" d="M339.663 191.929a3.783 3.783 0 0 0 2.52 1.955 3.78 3.78 0 0 0 3.116-.677l11.158 7.407.022-6.96-10.6-5.967a3.789 3.789 0 0 0-6.216 4.242Z"/><path fill="#BBC4DF" d="m347.999 195.146 5.206-5.923 21.197 12.584 28.1-2.573a9.498 9.498 0 0 1 7.588 2.747 9.487 9.487 0 0 1 2.216 3.49 9.517 9.517 0 0 1 .524 4.101 9.51 9.51 0 0 1-10.337 8.585l-31.647-2.929-22.847-20.082Z"/><path fill="#BBC4DF" d="m413.217 195.237-.048-.061a20.534 20.534 0 0 0-19.87 10.295l-2.385 4.201c-7.713 9.43-2.108 15.933-1.773 16.9l-2.677 12.345.6 4.132.3 1.227 30.562 15.97c1.74-8.36.058-15.485-6.281-20.927l6.133-19.084a26.886 26.886 0 0 0-4.561-24.998Z"/><path fill="#9AA4BE" d="M388.916 287.952h-9.803a2.244 2.244 0 0 1-2.216-1.926 49.87 49.87 0 0 1 0-13.424 2.237 2.237 0 0 1 2.178-1.925c3.085-1.383 6.406-1.382 9.875 0a2.213 2.213 0 0 1 1.684.812 2.259 2.259 0 0 1 .468 1.888 30.116 30.116 0 0 0 0 11.874 2.267 2.267 0 0 1-.468 1.888 2.217 2.217 0 0 1-1.718.813Z"/><path fill="#fff" d="M387.89 275.795h-8.252a.499.499 0 0 1-.198-.038.501.501 0 0 1-.282-.279.52.52 0 0 1 .113-.565.501.501 0 0 1 .169-.111.499.499 0 0 1 .198-.038h8.252a.499.499 0 0 1 .198.038.503.503 0 0 1 .322.477.52.52 0 0 1-.322.478.499.499 0 0 1-.198.038ZM387.89 279.921h-8.252a.52.52 0 0 1-.48-.715.509.509 0 0 1 .282-.279.517.517 0 0 1 .198-.038h8.252a.517.517 0 1 1 0 1.032ZM387.889 284.046h-8.251a.507.507 0 0 1-.368-.149.519.519 0 0 1 .368-.882h8.251a.5.5 0 0 1 .199.038.503.503 0 0 1 .322.477.503.503 0 0 1-.322.478.5.5 0 0 1-.199.038Z"/><path fill="#9AA4BE" d="M341.46 195.327h-9.803a2.244 2.244 0 0 1-2.216-1.926 49.87 49.87 0 0 1 0-13.424 2.242 2.242 0 0 1 2.178-1.925c3.085-1.383 6.407-1.382 9.875 0a2.213 2.213 0 0 1 1.685.812 2.27 2.27 0 0 1 .467 1.888 30.154 30.154 0 0 0 0 11.874 2.267 2.267 0 0 1-.467 1.888 2.217 2.217 0 0 1-1.719.813Z"/><path fill="#fff" d="M340.434 183.171h-8.252a.52.52 0 0 1-.48-.715.509.509 0 0 1 .282-.279.517.517 0 0 1 .198-.038h8.252a.517.517 0 1 1 0 1.032ZM340.434 187.296h-8.252a.517.517 0 0 1-.367-.882.501.501 0 0 1 .169-.111.499.499 0 0 1 .198-.038h8.252a.499.499 0 0 1 .198.038.501.501 0 0 1 .282.279.519.519 0 0 1-.113.565.517.517 0 0 1-.367.149ZM340.434 191.422h-8.252a.51.51 0 0 1-.48-.318.5.5 0 0 1 0-.397.513.513 0 0 1 .48-.317h8.252a.525.525 0 0 1 .368.149.523.523 0 0 1 0 .733.53.53 0 0 1-.368.15Z"/><path fill="#9AA4BE" d="M169.361 220.484h-9.803a2.24 2.24 0 0 1-2.216-1.925 49.87 49.87 0 0 1 0-13.424 2.237 2.237 0 0 1 2.178-1.925c3.085-1.383 6.406-1.383 9.875 0a2.213 2.213 0 0 1 1.685.812 2.27 2.27 0 0 1 .467 1.888 30.116 30.116 0 0 0 0 11.874 2.267 2.267 0 0 1-.467 1.888 2.216 2.216 0 0 1-1.719.812Z"/><path fill="#fff" d="M168.335 208.328h-8.252a.517.517 0 1 1 0-1.032h8.252a.515.515 0 0 1 .52.516.505.505 0 0 1-.153.366.515.515 0 0 1-.367.15ZM168.335 212.453h-8.252a.499.499 0 0 1-.198-.038.501.501 0 0 1-.282-.279.519.519 0 0 1 .113-.565.501.501 0 0 1 .169-.111.499.499 0 0 1 .198-.038h8.252a.507.507 0 0 1 .367.149.503.503 0 0 1 .153.367.503.503 0 0 1-.321.477.507.507 0 0 1-.199.038ZM168.335 216.579h-8.251a.518.518 0 0 1-.521-.516.503.503 0 0 1 .322-.478.538.538 0 0 1 .199-.038h8.251a.53.53 0 0 1 .481.318.518.518 0 0 1-.481.714Z"/><path fill="#E1BC9C" d="M391.789 275.42a3.775 3.775 0 0 0 1.801-2.631 3.76 3.76 0 0 0-.86-3.071l6.732-11.578-6.949.392-5.327 10.934a3.788 3.788 0 0 0 4.603 5.954Z"/><path fill="#BBC4DF" d="m394.505 266.908-6.221-4.846 11.304-21.906-4.235-27.898a9.49 9.49 0 0 1 2.291-7.738 9.51 9.51 0 0 1 7.416-3.185 9.515 9.515 0 0 1 9.183 9.81l-1.046 31.765-18.692 23.998Z"/><path fill="#E1BC9C" d="M93.822 260.922a3.788 3.788 0 0 0 1.09-3.024 3.798 3.798 0 0 0-1.619-2.778l6.05-30.052-6.68 2.145-4.844 29.068a3.82 3.82 0 0 0 6.003 4.641Z"/><path fill="#BBC4DF" d="m102.755 197.341-4.145-3.13s-3.657-.259-4.305 6.336c-.647 6.595-1.977 19.448-1.977 19.448l-6.344 29.38 8.781 1.928 6.795-31.707 4.076-9.416-2.881-12.839Z"/><path fill="#E1BC9C" d="m95.921 245.316 23.36-.389 1.947-15.963H95.921v16.352ZM116.945 343.546h5.393l2.566-20.801-7.96.001.001 20.8ZM83.16 344.047l5.393-.039 2.42-20.818-7.014 1.609-.799 19.248Z"/><path fill="#E1BC9C" d="m100.027 215.217-1.222 3.177.244 3.177 23.915 8.283-1.186-13.904-2.689-3.177-19.062 2.444ZM110.287 186.627a8.541 8.541 0 0 0 8.541-8.542 8.541 8.541 0 0 0-8.541-8.541 8.541 8.541 0 1 0 0 17.083Z"/><path fill="#888" d="m115.608 340.886 8.525-.509v3.653l8.105 5.597a2.282 2.282 0 0 1-1.297 4.159h-10.149l-1.749-3.612-.683 3.612h-3.827l1.075-12.9ZM81.315 341.399l8.522-.569.025 3.652 8.144 5.541a2.283 2.283 0 0 1-1.267 4.168l-10.15.071-1.774-3.6-.658 3.617-3.826.027.984-12.907ZM81.482 328.097l3.927-31.388 4.672-33.094c-3.421-6.354 4.283-26.085 4.283-26.085l1.087.052 24.615 4.644-.006-.024c5.035 13.731 6.703 20.515 6.427 35.137l-.992 52.565h.311a1.946 1.946 0 0 1 0 3.893h-9.733a1.946 1.946 0 1 1 0-3.893h.25l-8.934-62.589-7.574 26.28-8.566 34.261c3.115-.778 2.631 1.026 2.631 2.048a1.946 1.946 0 0 1-1.947 1.946H82.2a1.943 1.943 0 0 1-1.706-2.881c.218-.397.567-.705.988-.872Z"/><path fill="#BBC4DF" d="m92.447 238.552.779-7.787a1.549 1.549 0 0 1 1.404-1.166c.324-3.709 1.69-19.712 1.77-20.41l.004-.029.62-13.26a1.96 1.96 0 0 1 1.831-1.865l3.279-.214a.177.177 0 0 0 .119-.053.177.177 0 0 0 .049-.121c0-.362.071-.72.209-1.055a2.769 2.769 0 0 1 1.493-1.492c.334-.139.693-.21 1.055-.21h9.706a2.579 2.579 0 0 1 2.56 2.26.172.172 0 0 0 .175.154h.001a4.61 4.61 0 0 1 4.639 3.825c1.327 7.721 3.987 25.245 2.672 34.987-.458 3.391.529.705.702 3.543a2.097 2.097 0 0 1-.52 1.514c.373.136.677.412.846.771a1.5 1.5 0 0 1 .06 1.143l.171-.042a1.562 1.562 0 0 1-1.284 1.16c-.202.03-.409.019-.607-.031l-25.395 3.441c-.834-.21-6.548-4.229-6.338-5.063Z"/><path fill="#E1BC9C" d="M160.306 206.892a3.8 3.8 0 0 1-5.352 2.305l-9.817 8.96-1.304-6.895 9.529-7.429a3.82 3.82 0 0 1 6.764.351c.39.85.454 1.814.18 2.708Z"/><path fill="#BBC4DF" d="M126.135 200.044s-3.423-7.736-7.747-6.199c-4.323 1.538-2.091 9.044-2.091 9.044l16.244 24.478s23.43-15.03 20.581-15.136c-2.849-.106-3.701-5.288-3.701-5.288l-12.383 6.187-.419-2.203-.672.672-1.733-1.364-8.079-10.191Z"/><path fill="#E1BC9C" d="M406.172 191.545c6.586 0 11.925-5.339 11.925-11.925s-5.339-11.925-11.925-11.925-11.925 5.339-11.925 11.925 5.339 11.925 11.925 11.925Z"/><path fill="#888" d="M444.443 197.168a10.341 10.341 0 0 1-5.685 4.002c-.92.274-1.871.436-2.83.481a10.687 10.687 0 0 0-.841-3.144 8.813 8.813 0 0 1-.437 3.137 10.514 10.514 0 0 1-4.137-1.109 9.114 9.114 0 0 1-4.878-6.543c-.505-3.262.974-6.464 1.509-9.721.537-3.257-.471-7.382-3.659-8.238-2.428-.652-2.156-.37-4.175 1.128 2.1 3.105-5.655 14.481-8.828 13.489-1.794-.561-2.943-2.208-3.313-2.208-2.495 4.297 2.202 11.537-2.531 13.04l.39-.39c2.857-3.514-3.115-10.953-.258-14.467.797-.983 1.646-2.148 1.41-3.392-.223-1.182-2.099-1.807-2.648-.836.988-2.263-.471-5.285-2.887-5.866-2.146-.518-2.107.12-4.26.397a10.729 10.729 0 0 0-.782-2.7 8.792 8.792 0 0 1-.321 2.752 3.456 3.456 0 0 1-2.09-.756c-1.756-1.415-1.4-4.387.167-6.008 1.569-1.621 3.902-2.205 6.126-2.583.647-4.502 13.07-4.972 14.717-.473.701-3.36 4.907-5.103 8.176-4.061 3.27 1.042 5.538 4.096 6.732 7.313 1.195 3.215 1.528 6.676 2.264 10.026.736 3.35 1.979 6.761 4.539 9.044 2.561 2.281 6.732 3.036 9.43.917a7.56 7.56 0 0 1-.9 6.769Z"/><path fill="#F2F2F2" d="M535.802 270.516c-.703-5.119-1.426-10.303-.933-15.477.438-4.595 1.839-9.082 4.694-12.762a21.204 21.204 0 0 1 5.447-4.936c.545-.343 1.045.52.503.861a20.192 20.192 0 0 0-7.983 9.633c-1.738 4.421-2.017 9.24-1.715 13.936.181 2.84.565 5.66.952 8.479a.514.514 0 0 1-.349.614.501.501 0 0 1-.614-.349l-.002.001Z"/><path fill="#CACACA" d="m575.559 354.731-533.878.176a.682.682 0 0 1 0-1.362l533.878-.175c.18 0 .353.072.48.2a.676.676 0 0 1 0 .961c-.127.128-.3.2-.48.2Z"/><path fill="#888" d="M100.234 172.856c-1.31.628-2.776-.318-3.907-1.255l.404.35c-1.999 1.944-2.933 4.742-3.39 7.497-.457 2.751-.508 5.565-1.084 8.297-.576 2.729-1.77 5.471-4.002 7.142-2.99 2.239-7.113 2.095-10.782 1.409l-.143-.028a22.396 22.396 0 0 0 1.18-8.88 20.363 20.363 0 0 1-4.89 8.014 46.662 46.662 0 0 1-7.1-2.587c-1.483-.683-3.08-1.616-3.493-3.198-.413-1.569.546-3.214 1.828-4.205 1.282-.991 2.855-1.508 4.315-2.214 1.458-.702 2.9-1.704 3.484-3.216 1.347-3.479-2.489-7.47-.994-10.89.737-1.681 2.543-2.596 4.24-3.301a62.193 62.193 0 0 1 7.962-2.686c2.38-.628 4.865-1.116 7.29-.704 2.425.412 4.8 1.886 5.673 4.189 1.457.492 3.002 1.047 3.937 2.273.934 1.223.859 3.328-.528 3.993Z"/><path fill="#888" d="M111.89 168.824c-3.748-2.958-6.778-2.453-9.115-.615-.393-.437-2.065.766-2.632.593l-2.048 3.844c-1.053 1.86-1.486 3.758-1.316 4.827-1.938 5.436 2.659 9.107 8.095 11.045 2.169.779 4.536.813 6.727.098l.067-.927.411.76s4.97 10.232 6.145 10.692c-.713-1.848-2.592-10.634-3.117-12.465-.719-2.492-.228-6.45.195-8.877.263-1.497.277-3.026.041-4.527l-.011-.066 1.163 2.348 2.609-1.641c-.997-2.904-1.017-6.378-7.214-5.089Z"/></g><defs><clipPath id="a"><path fill="#fff" d="M41 66h535.24v288.907H41z"/></clipPath></defs></svg>
