<svg xmlns="http://www.w3.org/2000/svg" width="390" height="225" fill="none"><path fill="#F3F3F3" fill-rule="evenodd" d="M387.776 224.849A196.463 196.463 0 0 0 390 195.303c0-107.695-87.304-195-195-195-107.695 0-195 87.305-195 195 0 10.044.76 19.911 2.224 29.546h385.552Z" clip-rule="evenodd"/><path fill="#DEDEDE" d="M330.149 224.696H59.851a.538.538 0 0 1-.307-.093c-.082-.06-.127-.14-.127-.223 0-.084.045-.164.127-.224a.538.538 0 0 1 .307-.093H330.15a.536.536 0 0 1 .307.093.28.28 0 0 1 .127.224c0 .083-.045.163-.127.223a.536.536 0 0 1-.307.093ZM285.646 148.153H103.981a4.673 4.673 0 0 1-3.306-1.376 4.707 4.707 0 0 1-1.371-3.317V31.055a3.45 3.45 0 0 1 1.004-2.43 3.427 3.427 0 0 1 2.422-1.008h184.108c.924 0 1.81.37 2.463 1.025a3.507 3.507 0 0 1 1.023 2.473V143.46a4.71 4.71 0 0 1-1.372 3.317 4.673 4.673 0 0 1-3.306 1.376Z"/><path fill="#fff" d="M279.02 141.508H109.712c-2.481 0-4.501-1.898-4.501-4.23V39.395c0-1.73 1.497-3.137 3.336-3.137H280.13c1.87 0 3.391 1.43 3.391 3.189v97.831c0 2.332-2.02 4.23-4.501 4.23Z"/><path fill="#CCC" d="M290.259 30.788H99.239v-2.39a4.724 4.724 0 0 1 1.376-3.328 4.692 4.692 0 0 1 3.318-1.38h181.631a4.69 4.69 0 0 1 3.318 1.38 4.724 4.724 0 0 1 1.377 3.328v2.39Z"/><path fill="#fff" d="M107.769 28.465c.671 0 1.215-.546 1.215-1.219s-.544-1.218-1.215-1.218c-.67 0-1.214.545-1.214 1.218 0 .673.544 1.219 1.214 1.219ZM112.378 28.465c.671 0 1.215-.546 1.215-1.219s-.544-1.218-1.215-1.218c-.67 0-1.214.545-1.214 1.218 0 .673.544 1.219 1.214 1.219ZM116.987 28.465c.671 0 1.214-.546 1.214-1.219s-.543-1.218-1.214-1.218c-.67 0-1.214.545-1.214 1.218 0 .673.544 1.219 1.214 1.219Z"/><path fill="#888" d="M262.422 108.955v-8.345a11.183 11.183 0 1 1 22.364 0v8.345a1.5 1.5 0 0 1-1.502 1.502h-19.36a1.5 1.5 0 0 1-1.502-1.502Z"/><path fill="#F9BFA1" d="m290.139 217.557-3.944 1.092-6.087-14.694 5.821-1.611 4.21 15.213Z"/><path fill="#888" d="m283.066 218.302 7.606-2.105 1.326 4.789-12.396 3.431a4.97 4.97 0 0 1 3.464-6.115Z"/><path fill="#F9BFA1" d="M249.019 220.591h-4.092l-1.947-15.785h6.04l-.001 15.785Z"/><path fill="#888" d="M242.003 219.422h7.893v4.969h-12.862a4.978 4.978 0 0 1 1.456-3.514 4.974 4.974 0 0 1 3.513-1.455Z"/><path fill="#F9BFA1" d="M242.135 134.019a3.353 3.353 0 0 0 3.934 1.122c.456-.18.867-.459 1.204-.816l10.878 4.893-.989-6.119-10.179-3.708a3.375 3.375 0 0 0-4.848 4.628Z"/><path fill="#9AA4BE" d="M266.688 169.172c-3.418 0-6.957-.509-9.931-2.023a12.815 12.815 0 0 1-6.579-7.866c-1.549-4.907.405-9.727 2.294-14.389 1.171-2.889 2.277-5.617 2.564-8.306l.1-.955c.447-4.289.833-7.992 2.97-9.382 1.108-.72 2.597-.761 4.553-.125l18.374 5.968-.675 34.88-.112.037c-.096.032-6.573 2.161-13.558 2.161Z"/><path fill="#FFB5B1" d="M262.338 115.267s9.013-2.671 16.023-1.669c0 0-4.006 22.031-2.671 29.375 1.335 7.343-23.199 2.837-18.192-4.173l1.669-8.345s-3.338-3.338-.334-7.344l3.505-7.844Z"/><path fill="#9AA4BE" d="m257.905 168.511-11.108-2.083 5.81-27.784c.26-.833 4.336-21.803 7.065-22.826a46.643 46.643 0 0 1 6.064-1.684l.395-.079-2.227 3.341-8.868 21.248 2.869 29.867Z"/><path fill="#9AA4BE" d="m252.117 216.934-14.351-2.392 8.054-32.888 11.984-44.976.119.799c.009.059 1.129 5.935 17.742 3.328l.146-.023.04.142 20.079 70.946-16.353 2.726-14.915-51.762-12.545 54.1Z"/><path fill="#9AA4BE" d="m272.01 174.096.008-.252c.01-.281.998-28.164.668-39.378-.331-11.253 3.312-20.997 3.349-21.094l.03-.078.08-.024c4.713-1.346 8.802 2.673 8.843 2.713l.057.058-1.342 11.074 5.747 40.271-17.44 6.71Z"/><path fill="#F9BFA1" d="M271.306 110.263a8.2 8.2 0 1 0 0-16.398 8.2 8.2 0 0 0 0 16.398Z"/><path fill="#888" d="M259.776 101.277a8.858 8.858 0 0 1 8.846-8.845h1.669a8.856 8.856 0 0 1 8.846 8.845v.167h-3.527l-1.203-3.368-.241 3.368h-1.823l-.607-1.7-.121 1.7h-11.839v-.167Z"/><path fill="#888" d="M270.499 111.396a1.49 1.49 0 0 1-.285-.769 1.47 1.47 0 0 1 .168-.802c1.768-3.365 4.245-9.581.958-13.414l-.237-.276h9.543v14.327l-8.669 1.53a1.493 1.493 0 0 1-1.478-.596Z"/><path fill="#D2D7E2" d="M195.97 97.862v9.185h-9.364v-9.185h9.364ZM177.004 78.18c.04-2.148.397-4.116 1.073-5.905.716-1.79 1.69-3.34 2.923-4.652a13.185 13.185 0 0 1 4.533-3.042c1.789-.756 3.777-1.134 5.964-1.134 2.823 0 5.169.398 7.038 1.193 1.909.756 3.44 1.71 4.593 2.863s1.968 2.406 2.445 3.758c.517 1.312.775 2.545.775 3.698 0 1.908-.258 3.479-.775 4.712-.477 1.232-1.093 2.286-1.849 3.16a12.025 12.025 0 0 1-2.445 2.267 40.64 40.64 0 0 0-2.505 1.849 11.813 11.813 0 0 0-2.147 2.088c-.597.795-.975 1.789-1.134 2.982v2.266h-8.052V91.6c.12-1.71.438-3.141.955-4.294.556-1.153 1.193-2.127 1.908-2.923a14.315 14.315 0 0 1 2.267-2.147 35.898 35.898 0 0 0 2.207-1.79 7.464 7.464 0 0 0 1.61-1.967c.437-.716.636-1.61.596-2.684 0-1.83-.457-3.181-1.371-4.056-.875-.875-2.108-1.312-3.698-1.312-1.074 0-2.008.218-2.804.656a5.484 5.484 0 0 0-1.908 1.67c-.477.676-.835 1.491-1.074 2.445a11.816 11.816 0 0 0-.358 2.983h-8.767Z"/><path fill="#DEDEDE" d="M154.593 98.098c7.183 20.447 29.543 31.216 49.941 24.051a38.866 38.866 0 0 0 15.63-10.209l55.779 44.331c3.417 2.71 8.407 1.937 10.833-1.685 2.266-3.384 1.402-7.961-1.939-10.303l-58.606-40.941c4.844-9.298 5.985-20.513 2.234-31.192-7.182-20.447-29.543-31.216-49.941-24.051-20.398 7.165-31.113 29.552-23.931 49.999Zm5.072-1.781c-6.196-17.64 3.044-36.963 20.651-43.147 17.607-6.185 36.898 3.105 43.097 20.755 6.196 17.64-3.044 36.963-20.651 43.147-17.598 6.181-36.898-3.106-43.097-20.755Z"/><path fill="#F9BFA1" d="M273.938 146.707a3.356 3.356 0 0 0 4.148-3.048l11.493-3.19-4.672-4.074-10.198 3.654a3.377 3.377 0 0 0-2.754 5.312 3.377 3.377 0 0 0 1.983 1.346Z"/><path fill="#9AA4BE" d="m278.716 145.018-.7-6.644 9.601-5.298-6.259-7.577 1.021-8.512 2.544-1.09.079.102c1.199 1.542 11.718 15.115 11.718 16.792 0 1.724-2.012 6.784-4.766 8.161-2.655 1.328-12.628 3.909-13.051 4.018l-.187.048Z"/></svg>
