<svg xmlns="http://www.w3.org/2000/svg" width="620" height="623" viewBox="0 0 620 623" >
  <path d="M497.427 437.736H465.99L454.847 426.991C495.194 380.194 517.368 320.45 517.324 258.662C517.324 207.504 502.154 157.494 473.732 114.957C445.31 72.4205 404.912 39.2671 357.648 19.6896C310.384 0.112074 258.375 -5.0103 208.2 4.97024C158.024 14.9508 111.935 39.5859 75.7605 75.7605C39.5859 111.935 14.9508 158.024 4.97024 208.2C-5.0103 258.375 0.112074 310.384 19.6896 357.648C39.2671 404.912 72.4205 445.31 114.957 473.732C157.494 502.154 207.504 517.324 258.662 517.324C322.731 517.324 381.626 493.846 426.991 454.847L437.736 465.99V497.427L636.707 696L696 636.707L497.427 437.736ZM258.662 437.736C159.575 437.736 79.5884 357.75 79.5884 258.662C79.5884 159.575 159.575 79.5884 258.662 79.5884C357.75 79.5884 437.736 159.575 437.736 258.662C437.736 357.75 357.75 437.736 258.662 437.736Z" fill="#E8E8E8"/>
</svg>
