<svg xmlns="http://www.w3.org/2000/svg" width="1050" height="814" fill="#fffff"><mask id="a" width="1050" height="814" x="0" y="0" maskUnits="userSpaceOnUse" style="mask-type:alpha"><path fill="#fff" d="M0 0h1050v814H0z"/></mask><g filter="url(#b)" mask="url(#a)"><path fill="#fff" d="M0 0h1050v814H0z"/><path fill="#8C8C8C" d="M38.874 145.93c-.075-.719-.336-1.237-.784-1.554-.439-.327-1.003-.49-1.694-.49-.28 0-.555.028-.826.084-.27.056-.513.149-.728.28a1.537 1.537 0 0 0-.504.532c-.121.215-.182.485-.182.812 0 .308.089.56.266.756.187.187.43.341.728.462a6.86 6.86 0 0 0 1.036.308c.383.075.77.159 1.162.252.401.093.793.205 1.176.336.383.121.723.289 1.022.504.308.215.55.485.728.812.187.327.28.737.28 1.232 0 .532-.121.989-.364 1.372a2.971 2.971 0 0 1-.91.924 3.978 3.978 0 0 1-1.26.504 5.937 5.937 0 0 1-2.968-.042 4.094 4.094 0 0 1-1.316-.63 3.198 3.198 0 0 1-.896-1.092c-.215-.448-.322-.975-.322-1.582h1.26c0 .42.08.784.238 1.092.168.299.383.546.644.742.27.196.583.341.938.434.355.093.719.14 1.092.14.299 0 .597-.028.896-.084a2.77 2.77 0 0 0 .826-.28c.243-.14.439-.327.588-.56.15-.233.224-.532.224-.896 0-.345-.093-.625-.28-.84a1.868 1.868 0 0 0-.728-.518 4.863 4.863 0 0 0-1.022-.336c-.383-.084-.775-.168-1.176-.252a23.22 23.22 0 0 1-1.162-.308 4.742 4.742 0 0 1-1.036-.462 2.397 2.397 0 0 1-.728-.742c-.177-.308-.266-.691-.266-1.148 0-.504.103-.938.308-1.302.205-.373.476-.677.812-.91.345-.243.733-.42 1.162-.532a5.032 5.032 0 0 1 1.344-.182c.513 0 .99.061 1.428.182.439.121.821.313 1.148.574.336.261.597.593.784.994.196.392.303.863.322 1.414h-1.26ZM47 148.688a2.33 2.33 0 0 0-.196-.798 1.821 1.821 0 0 0-.434-.644 1.825 1.825 0 0 0-.644-.434 1.915 1.915 0 0 0-.812-.168c-.308 0-.588.056-.84.168a1.857 1.857 0 0 0-.63.434 2.094 2.094 0 0 0-.42.658 2.413 2.413 0 0 0-.182.784H47Zm1.148 2.016c-.159.812-.509 1.423-1.05 1.834-.541.411-1.222.616-2.044.616-.579 0-1.083-.093-1.512-.28a2.986 2.986 0 0 1-1.064-.784 3.414 3.414 0 0 1-.658-1.204 6.007 6.007 0 0 1-.238-1.526c0-.551.084-1.055.252-1.512.168-.457.401-.854.7-1.19a3.309 3.309 0 0 1 1.078-.784c.42-.187.877-.28 1.372-.28.644 0 1.176.135 1.596.406.43.261.77.597 1.022 1.008.262.411.439.859.532 1.344.103.485.145.947.126 1.386h-5.418c-.01.317.028.621.112.91.084.28.22.532.406.756.187.215.425.387.714.518.29.131.63.196 1.022.196.504 0 .915-.117 1.232-.35.327-.233.541-.588.644-1.064h1.176Zm7.758 2.268c-.206.121-.49.182-.854.182-.308 0-.556-.084-.742-.252-.178-.177-.266-.462-.266-.854-.327.392-.71.677-1.148.854-.43.168-.896.252-1.4.252-.327 0-.64-.037-.938-.112a2.167 2.167 0 0 1-.756-.35 1.761 1.761 0 0 1-.518-.616c-.122-.261-.182-.574-.182-.938 0-.411.07-.747.21-1.008.14-.261.322-.471.546-.63.233-.168.494-.294.784-.378.298-.084.602-.154.91-.21.326-.065.634-.112.924-.14.298-.037.56-.084.784-.14.224-.065.401-.154.532-.266.13-.121.196-.294.196-.518 0-.261-.052-.471-.154-.63a.943.943 0 0 0-.378-.364 1.472 1.472 0 0 0-.518-.168 3.771 3.771 0 0 0-.56-.042c-.504 0-.924.098-1.26.294-.336.187-.518.546-.546 1.078h-1.19c.018-.448.112-.826.28-1.134.168-.308.392-.555.672-.742.28-.196.597-.336.952-.42a5.157 5.157 0 0 1 1.162-.126c.326 0 .648.023.966.07.326.047.62.145.882.294.261.14.471.341.63.602.158.261.238.602.238 1.022v3.724c0 .28.014.485.042.616.037.131.149.196.336.196.102 0 .224-.023.364-.07v.924Zm-1.932-3.71c-.15.112-.346.196-.588.252-.243.047-.5.089-.77.126-.262.028-.528.065-.798.112-.271.037-.514.103-.728.196a1.353 1.353 0 0 0-.532.406c-.131.168-.196.401-.196.7 0 .196.037.364.112.504.084.131.186.238.308.322.13.084.28.145.448.182.168.037.345.056.532.056.392 0 .728-.051 1.008-.154.28-.112.508-.247.686-.406.177-.168.308-.345.392-.532.084-.196.126-.378.126-.546v-1.218Zm7.953-1.176c-.093-.457-.29-.812-.588-1.064s-.7-.378-1.204-.378c-.43 0-.788.079-1.078.238a1.99 1.99 0 0 0-.7.63c-.168.261-.29.565-.364.91a4.825 4.825 0 0 0-.112 1.05c0 .336.038.663.112.98.084.317.21.602.378.854a1.9 1.9 0 0 0 .658.588c.27.149.593.224.966.224.588 0 1.046-.154 1.372-.462.336-.308.541-.742.616-1.302h1.218c-.13.896-.467 1.587-1.008 2.072-.532.485-1.26.728-2.184.728-.55 0-1.04-.089-1.47-.266a2.905 2.905 0 0 1-1.064-.756 3.432 3.432 0 0 1-.644-1.162 5.097 5.097 0 0 1-.21-1.498c0-.541.07-1.045.21-1.512.14-.476.35-.887.63-1.232.29-.355.649-.63 1.078-.826.43-.205.929-.308 1.498-.308a4.1 4.1 0 0 1 1.148.154c.364.093.681.243.952.448.28.205.509.467.686.784.178.308.29.677.336 1.106h-1.232Zm2.606-5.082h1.19v3.822h.028c.093-.224.224-.411.392-.56.168-.159.354-.285.56-.378.214-.103.434-.177.658-.224.233-.047.457-.07.672-.07.476 0 .872.065 1.19.196.317.131.574.313.77.546.196.233.331.513.406.84.084.317.126.672.126 1.064V153h-1.19v-4.9c0-.448-.13-.803-.392-1.064s-.62-.392-1.078-.392c-.364 0-.682.056-.952.168-.262.112-.48.271-.658.476a2.129 2.129 0 0 0-.406.728 3.013 3.013 0 0 0-.126.896V153h-1.19v-9.996Zm11.745 0h1.19V153h-1.19v-9.996Zm8.06 5.684a2.332 2.332 0 0 0-.196-.798 1.822 1.822 0 0 0-.434-.644 1.825 1.825 0 0 0-.644-.434 1.915 1.915 0 0 0-.812-.168c-.308 0-.588.056-.84.168a1.856 1.856 0 0 0-.63.434 2.094 2.094 0 0 0-.42.658 2.41 2.41 0 0 0-.182.784h4.158Zm1.148 2.016c-.159.812-.509 1.423-1.05 1.834-.541.411-1.223.616-2.044.616-.579 0-1.083-.093-1.512-.28a2.985 2.985 0 0 1-1.064-.784 3.412 3.412 0 0 1-.658-1.204 6.007 6.007 0 0 1-.238-1.526c0-.551.084-1.055.252-1.512.168-.457.401-.854.7-1.19a3.308 3.308 0 0 1 1.078-.784c.42-.187.877-.28 1.372-.28.644 0 1.176.135 1.596.406.43.261.77.597 1.022 1.008.261.411.439.859.532 1.344.103.485.145.947.126 1.386H80.18c-.01.317.028.621.112.91.084.28.22.532.406.756.187.215.425.387.714.518.29.131.63.196 1.022.196.504 0 .915-.117 1.232-.35.327-.233.541-.588.644-1.064h1.176Zm7.59 1.68c0 1.185-.271 2.072-.813 2.66-.54.588-1.39.882-2.547.882a5 5 0 0 1-1.036-.112 3.26 3.26 0 0 1-.953-.364 2.24 2.24 0 0 1-.7-.658c-.186-.271-.289-.602-.308-.994h1.19c.01.215.075.397.197.546.13.149.284.271.462.364.186.093.387.159.602.196.214.047.42.07.615.07.392 0 .724-.07.995-.21.27-.131.494-.317.671-.56.178-.233.304-.518.379-.854.084-.336.126-.705.126-1.106v-.476h-.029a2.029 2.029 0 0 1-.938.994c-.41.205-.849.308-1.316.308-.54 0-1.012-.098-1.413-.294a2.995 2.995 0 0 1-1.009-.784 3.553 3.553 0 0 1-.616-1.162 5.026 5.026 0 0 1-.196-1.414c0-.429.057-.868.169-1.316.111-.457.298-.868.56-1.232a2.974 2.974 0 0 1 1.035-.91c.43-.243.957-.364 1.582-.364.458 0 .878.103 1.26.308.383.196.682.495.897.896h.014v-1.036h1.12v6.622Zm-3.332-.35c.391 0 .723-.079.993-.238.28-.168.505-.383.672-.644.168-.271.29-.574.364-.91.085-.336.127-.672.127-1.008 0-.317-.038-.63-.113-.938a2.452 2.452 0 0 0-.364-.826 1.767 1.767 0 0 0-.63-.602c-.26-.149-.578-.224-.952-.224-.382 0-.709.075-.98.224-.27.14-.494.331-.672.574a2.662 2.662 0 0 0-.377.84 4.33 4.33 0 0 0-.112.994c0 .327.032.653.097.98.066.327.178.625.337.896.158.261.368.476.63.644.26.159.588.238.98.238Zm6.387-7.574h-1.19v-1.456h1.19v1.456Zm-1.19 1.302h1.19V153h-1.19v-7.238Zm3.761 4.956c.01.261.07.485.182.672.112.177.257.322.434.434.187.103.392.177.616.224.233.047.471.07.714.07.187 0 .383-.014.588-.042.205-.028.392-.079.56-.154.177-.075.322-.182.434-.322a.906.906 0 0 0 .168-.56c0-.308-.117-.541-.35-.7a2.83 2.83 0 0 0-.882-.378 10.676 10.676 0 0 0-1.134-.266 6.878 6.878 0 0 1-1.148-.336 2.448 2.448 0 0 1-.868-.616c-.233-.261-.35-.625-.35-1.092 0-.364.08-.677.238-.938.168-.261.378-.471.63-.63a2.77 2.77 0 0 1 .868-.364 3.87 3.87 0 0 1 .966-.126c.411 0 .789.037 1.134.112.345.065.649.187.91.364.271.168.485.401.644.7.159.289.252.653.28 1.092h-1.19a1.16 1.16 0 0 0-.574-.952 1.651 1.651 0 0 0-.532-.196 2.343 2.343 0 0 0-.574-.07c-.177 0-.359.014-.546.042-.177.028-.34.079-.49.154a.91.91 0 0 0-.364.28.677.677 0 0 0-.14.448c0 .205.07.378.21.518.15.131.336.243.56.336.224.084.476.159.756.224.28.056.56.117.84.182.299.065.588.145.868.238a2.6 2.6 0 0 1 .756.378c.224.149.401.341.532.574.14.233.21.523.21.868 0 .439-.093.803-.28 1.092a2.046 2.046 0 0 1-.714.7 2.81 2.81 0 0 1-.994.364 5.398 5.398 0 0 1-1.092.112c-.401 0-.784-.042-1.148-.126a2.892 2.892 0 0 1-.966-.406 2.186 2.186 0 0 1-.672-.756c-.168-.317-.261-.7-.28-1.148h1.19Zm6.342-7.714h1.19V153h-1.19v-9.996Zm9.446 9.968c-.206.121-.49.182-.854.182-.308 0-.556-.084-.742-.252-.178-.177-.266-.462-.266-.854-.327.392-.71.677-1.148.854-.43.168-.896.252-1.4.252-.327 0-.64-.037-.938-.112a2.157 2.157 0 0 1-.756-.35 1.752 1.752 0 0 1-.518-.616c-.122-.261-.182-.574-.182-.938 0-.411.07-.747.21-1.008.14-.261.322-.471.546-.63.233-.168.494-.294.784-.378a9.85 9.85 0 0 1 .91-.21 9.33 9.33 0 0 1 .924-.14c.298-.037.56-.084.784-.14.224-.065.401-.154.532-.266.13-.121.196-.294.196-.518 0-.261-.052-.471-.154-.63a.951.951 0 0 0-.378-.364 1.476 1.476 0 0 0-.518-.168 3.78 3.78 0 0 0-.56-.042c-.504 0-.924.098-1.26.294-.336.187-.518.546-.546 1.078h-1.19c.018-.448.112-.826.28-1.134.168-.308.392-.555.672-.742.28-.196.597-.336.952-.42a5.155 5.155 0 0 1 1.162-.126c.326 0 .648.023.966.07.326.047.62.145.882.294.261.14.471.341.63.602.158.261.238.602.238 1.022v3.724c0 .28.014.485.042.616.037.131.149.196.336.196.102 0 .224-.023.364-.07v.924Zm-1.932-3.71c-.15.112-.346.196-.588.252-.243.047-.5.089-.77.126-.262.028-.528.065-.798.112a2.759 2.759 0 0 0-.728.196 1.35 1.35 0 0 0-.532.406c-.131.168-.196.401-.196.7 0 .196.037.364.112.504.084.131.186.238.308.322.13.084.28.145.448.182.168.037.345.056.532.056.392 0 .728-.051 1.008-.154.28-.112.508-.247.686-.406.177-.168.308-.345.392-.532.084-.196.126-.378.126-.546v-1.218Zm4.691-3.5h1.442v1.05h-1.442v4.494c0 .14.01.252.028.336a.384.384 0 0 0 .14.196.638.638 0 0 0 .266.098c.122.009.276.014.462.014h.546V153h-.91c-.308 0-.574-.019-.798-.056a1.278 1.278 0 0 1-.532-.238 1.026 1.026 0 0 1-.294-.476c-.065-.205-.098-.476-.098-.812v-4.606h-1.232v-1.05h1.232v-2.17h1.19v2.17Zm4.024-1.302h-1.19v-1.456h1.19v1.456Zm-1.19 1.302h1.19V153h-1.19v-7.238Zm3.902 3.626c0 .439.056.831.168 1.176.121.336.284.621.49.854.205.224.443.397.714.518a2.2 2.2 0 0 0 1.75 0c.28-.121.522-.294.728-.518.205-.233.364-.518.476-.854.121-.345.182-.737.182-1.176a3.42 3.42 0 0 0-.182-1.162 2.434 2.434 0 0 0-.476-.868 2.046 2.046 0 0 0-.728-.532 2.2 2.2 0 0 0-1.75 0 2.069 2.069 0 0 0-.714.532 2.585 2.585 0 0 0-.49.868 3.671 3.671 0 0 0-.168 1.162Zm-1.26 0c0-.532.074-1.027.224-1.484.149-.467.373-.868.672-1.204a3.12 3.12 0 0 1 1.106-.812c.438-.196.942-.294 1.512-.294.578 0 1.082.098 1.512.294.438.196.807.467 1.106.812.298.336.522.737.672 1.204.149.457.224.952.224 1.484s-.075 1.027-.224 1.484c-.15.457-.374.859-.672 1.204a3.217 3.217 0 0 1-1.106.798c-.43.187-.934.28-1.512.28-.57 0-1.074-.093-1.512-.28a3.199 3.199 0 0 1-1.106-.798 3.45 3.45 0 0 1-.672-1.204 4.734 4.734 0 0 1-.224-1.484Zm8.431-3.626h1.12v1.148h.028c.494-.877 1.278-1.316 2.352-1.316.476 0 .872.065 1.19.196.317.131.574.313.77.546.196.233.331.513.406.84.084.317.126.672.126 1.064V153h-1.19v-4.9c0-.448-.131-.803-.392-1.064-.262-.261-.621-.392-1.078-.392-.364 0-.682.056-.952.168a1.78 1.78 0 0 0-.658.476 2.11 2.11 0 0 0-.406.728 3.013 3.013 0 0 0-.126.896V153h-1.19v-7.238Z" opacity=".2"/><path fill="#111" d="M25.404 30.148h6.048c1.224 0 2.178.3 2.862.9.696.6 1.044 1.422 1.044 2.466 0 .78-.18 1.464-.54 2.052-.348.588-.912.99-1.692 1.206v.036c.372.072.672.192.9.36.24.168.426.372.558.612.144.228.246.486.306.774.072.288.126.588.162.9.024.312.042.63.054.954.012.324.042.642.09.954.048.312.114.612.198.9.096.276.234.522.414.738H33.9a1.133 1.133 0 0 1-.252-.54 6.75 6.75 0 0 1-.072-.756l-.036-.918a6.274 6.274 0 0 0-.108-.954 8.794 8.794 0 0 0-.18-.882 1.995 1.995 0 0 0-.342-.738 1.576 1.576 0 0 0-.612-.504c-.252-.132-.588-.198-1.008-.198h-4.176V43h-1.71V30.148Zm5.274 5.922c.396 0 .774-.03 1.134-.09.36-.06.672-.174.936-.342.276-.18.492-.414.648-.702.168-.3.252-.684.252-1.152 0-.648-.18-1.176-.54-1.584-.36-.408-.942-.612-1.746-.612h-4.248v4.482h3.564Zm13.258 1.386a2.997 2.997 0 0 0-.252-1.026 2.347 2.347 0 0 0-.558-.828 2.347 2.347 0 0 0-.828-.558 2.462 2.462 0 0 0-1.044-.216 2.63 2.63 0 0 0-1.08.216 2.386 2.386 0 0 0-.81.558c-.228.24-.408.522-.54.846-.132.312-.21.648-.234 1.008h5.346Zm1.476 2.592c-.204 1.044-.654 1.83-1.35 2.358-.696.528-1.572.792-2.628.792-.744 0-1.392-.12-1.944-.36a3.833 3.833 0 0 1-1.368-1.008 4.39 4.39 0 0 1-.846-1.548 7.72 7.72 0 0 1-.306-1.962 5.6 5.6 0 0 1 .324-1.944 4.73 4.73 0 0 1 .9-1.53 4.247 4.247 0 0 1 1.386-1.008c.54-.24 1.128-.36 1.764-.36.828 0 1.512.174 2.052.522.552.336.99.768 1.314 1.296.336.528.564 1.104.684 1.728a7.14 7.14 0 0 1 .162 1.782H38.59c-.012.408.036.798.144 1.17.108.36.282.684.522.972.24.276.546.498.918.666.372.168.81.252 1.314.252.648 0 1.176-.15 1.584-.45.42-.3.696-.756.828-1.368h1.512ZM52.56 43v-9.306h1.53V43h-1.53Zm0-10.98v-1.872h1.53v1.872h-1.53Zm-4.788 3.024h-1.566v-1.35h1.566v-1.386c0-.756.216-1.326.648-1.71.444-.396 1.086-.594 1.926-.594.144 0 .306.012.486.036.192.024.36.06.504.108v1.332a1.623 1.623 0 0 0-.432-.09 2.856 2.856 0 0 0-.432-.036c-.372 0-.66.072-.864.216-.204.144-.306.42-.306.828v1.296h1.8v1.35h-1.8V43h-1.53v-7.956Zm8.687-1.35h1.44v1.476h.036c.636-1.128 1.644-1.692 3.024-1.692.612 0 1.122.084 1.53.252.408.168.738.402.99.702.252.3.426.66.522 1.08.108.408.162.864.162 1.368V43h-1.53v-6.3c0-.576-.168-1.032-.504-1.368-.336-.336-.798-.504-1.386-.504-.468 0-.876.072-1.224.216a2.294 2.294 0 0 0-.846.612 2.739 2.739 0 0 0-.522.936 3.873 3.873 0 0 0-.162 1.152V43h-1.53v-9.306Zm16.464 3.762a2.997 2.997 0 0 0-.252-1.026 2.347 2.347 0 0 0-.558-.828 2.347 2.347 0 0 0-.828-.558 2.462 2.462 0 0 0-1.044-.216 2.63 2.63 0 0 0-1.08.216 2.386 2.386 0 0 0-.81.558c-.228.24-.408.522-.54.846-.132.312-.21.648-.234 1.008h5.346Zm1.476 2.592c-.204 1.044-.654 1.83-1.35 2.358-.696.528-1.572.792-2.628.792-.744 0-1.392-.12-1.944-.36a3.833 3.833 0 0 1-1.368-1.008 4.39 4.39 0 0 1-.846-1.548 7.72 7.72 0 0 1-.306-1.962 5.6 5.6 0 0 1 .324-1.944 4.73 4.73 0 0 1 .9-1.53 4.247 4.247 0 0 1 1.386-1.008c.54-.24 1.128-.36 1.764-.36.828 0 1.512.174 2.052.522.552.336.99.768 1.314 1.296.336.528.564 1.104.684 1.728a7.14 7.14 0 0 1 .162 1.782h-6.966c-.012.408.036.798.144 1.17.108.36.282.684.522.972.24.276.546.498.918.666.372.168.81.252 1.314.252.648 0 1.176-.15 1.584-.45.42-.3.696-.756.828-1.368h1.512Zm8.863-6.354h1.854v1.35h-1.854v5.778c0 .18.012.324.036.432a.49.49 0 0 0 .18.252c.084.06.198.102.342.126.156.012.354.018.594.018h.702V43h-1.17c-.396 0-.738-.024-1.026-.072a1.632 1.632 0 0 1-.684-.306 1.303 1.303 0 0 1-.378-.612c-.084-.264-.126-.612-.126-1.044v-5.922h-1.584v-1.35h1.584v-2.79h1.53v2.79Zm3.554-3.546h1.53v4.914h.036a1.95 1.95 0 0 1 .504-.72c.216-.204.456-.366.72-.486a3.71 3.71 0 0 1 .846-.288c.3-.06.588-.09.864-.09.612 0 1.122.084 1.53.252.408.168.738.402.99.702.252.3.426.66.522 1.08.108.408.162.864.162 1.368V43h-1.53v-6.3c0-.576-.168-1.032-.504-1.368-.336-.336-.798-.504-1.386-.504-.468 0-.876.072-1.224.216a2.294 2.294 0 0 0-.846.612 2.739 2.739 0 0 0-.522.936 3.873 3.873 0 0 0-.162 1.152V43h-1.53V30.148Zm16.464 7.308a2.997 2.997 0 0 0-.252-1.026 2.347 2.347 0 0 0-.558-.828 2.347 2.347 0 0 0-.828-.558 2.462 2.462 0 0 0-1.044-.216 2.63 2.63 0 0 0-1.08.216 2.386 2.386 0 0 0-.81.558c-.228.24-.408.522-.54.846-.132.312-.21.648-.234 1.008h5.346Zm1.476 2.592c-.204 1.044-.654 1.83-1.35 2.358-.696.528-1.572.792-2.628.792-.744 0-1.392-.12-1.944-.36a3.833 3.833 0 0 1-1.368-1.008 4.39 4.39 0 0 1-.846-1.548 7.72 7.72 0 0 1-.306-1.962 5.6 5.6 0 0 1 .324-1.944 4.73 4.73 0 0 1 .9-1.53 4.247 4.247 0 0 1 1.386-1.008c.54-.24 1.128-.36 1.764-.36.828 0 1.512.174 2.052.522.552.336.99.768 1.314 1.296.336.528.564 1.104.684 1.728a7.14 7.14 0 0 1 .162 1.782h-6.966c-.012.408.036.798.144 1.17.108.36.282.684.522.972.24.276.546.498.918.666.372.168.81.252 1.314.252.648 0 1.176-.15 1.584-.45.42-.3.696-.756.828-1.368h1.512ZM116.914 43v-9.306h1.53V43h-1.53Zm0-10.98v-1.872h1.53v1.872h-1.53Zm-4.788 3.024h-1.566v-1.35h1.566v-1.386c0-.756.216-1.326.648-1.71.444-.396 1.086-.594 1.926-.594.144 0 .306.012.486.036.192.024.36.06.504.108v1.332a1.623 1.623 0 0 0-.432-.09 2.856 2.856 0 0 0-.432-.036c-.372 0-.66.072-.864.216-.204.144-.306.42-.306.828v1.296h1.8v1.35h-1.8V43h-1.53v-7.956Zm8.776-4.896h1.53V43h-1.53V30.148Zm6.024 3.546h1.854v1.35h-1.854v5.778c0 .18.012.324.036.432a.49.49 0 0 0 .18.252c.084.06.198.102.342.126.156.012.354.018.594.018h.702V43h-1.17c-.396 0-.738-.024-1.026-.072a1.632 1.632 0 0 1-.684-.306 1.303 1.303 0 0 1-.378-.612c-.084-.264-.126-.612-.126-1.044v-5.922h-1.584v-1.35h1.584v-2.79h1.53v2.79Zm10.016 3.762a2.997 2.997 0 0 0-.252-1.026 2.347 2.347 0 0 0-.558-.828 2.347 2.347 0 0 0-.828-.558 2.462 2.462 0 0 0-1.044-.216 2.63 2.63 0 0 0-1.08.216 2.386 2.386 0 0 0-.81.558c-.228.24-.408.522-.54.846-.132.312-.21.648-.234 1.008h5.346Zm1.476 2.592c-.204 1.044-.654 1.83-1.35 2.358-.696.528-1.572.792-2.628.792-.744 0-1.392-.12-1.944-.36a3.833 3.833 0 0 1-1.368-1.008 4.39 4.39 0 0 1-.846-1.548 7.72 7.72 0 0 1-.306-1.962 5.6 5.6 0 0 1 .324-1.944 4.73 4.73 0 0 1 .9-1.53 4.247 4.247 0 0 1 1.386-1.008c.54-.24 1.128-.36 1.764-.36.828 0 1.512.174 2.052.522.552.336.99.768 1.314 1.296.336.528.564 1.104.684 1.728a7.14 7.14 0 0 1 .162 1.782h-6.966c-.012.408.036.798.144 1.17.108.36.282.684.522.972.24.276.546.498.918.666.372.168.81.252 1.314.252.648 0 1.176-.15 1.584-.45.42-.3.696-.756.828-1.368h1.512Zm1.676-6.354h1.44v1.962h.036c.372-.756.828-1.314 1.368-1.674.54-.36 1.224-.528 2.052-.504v1.62c-.612 0-1.134.084-1.566.252-.432.168-.78.414-1.044.738s-.456.72-.576 1.188c-.12.456-.18.984-.18 1.584V43h-1.53v-9.306Zm7.668-1.674h-1.53v-1.872h1.53v1.872Zm-1.53 1.674h1.53V43h-1.53v-9.306Zm3.9 0h1.44v1.476h.036c.636-1.128 1.644-1.692 3.024-1.692.612 0 1.122.084 1.53.252.408.168.738.402.99.702.252.3.426.66.522 1.08.108.408.162.864.162 1.368V43h-1.53v-6.3c0-.576-.168-1.032-.504-1.368-.336-.336-.798-.504-1.386-.504-.468 0-.876.072-1.224.216a2.294 2.294 0 0 0-.846.612 2.739 2.739 0 0 0-.522.936 3.873 3.873 0 0 0-.162 1.152V43h-1.53v-9.306Zm18.03 8.514c0 1.524-.348 2.664-1.044 3.42-.696.756-1.788 1.134-3.276 1.134-.432 0-.876-.048-1.332-.144a4.179 4.179 0 0 1-1.224-.468 2.885 2.885 0 0 1-.9-.846c-.24-.348-.372-.774-.396-1.278h1.53c.012.276.096.51.252.702.168.192.366.348.594.468.24.12.498.204.774.252.276.06.54.09.792.09.504 0 .93-.09 1.278-.27.348-.168.636-.408.864-.72.228-.3.39-.666.486-1.098.108-.432.162-.906.162-1.422v-.612h-.036a2.607 2.607 0 0 1-1.206 1.278 3.732 3.732 0 0 1-1.692.396c-.696 0-1.302-.126-1.818-.378a3.855 3.855 0 0 1-1.296-1.008 4.571 4.571 0 0 1-.792-1.494 6.46 6.46 0 0 1-.252-1.818c0-.552.072-1.116.216-1.692a4.538 4.538 0 0 1 .72-1.584c.336-.48.78-.87 1.332-1.17.552-.312 1.23-.468 2.034-.468.588 0 1.128.132 1.62.396a2.67 2.67 0 0 1 1.152 1.152h.018v-1.332h1.44v8.514Zm-4.284-.45c.504 0 .93-.102 1.278-.306.36-.216.648-.492.864-.828.216-.348.372-.738.468-1.17.108-.432.162-.864.162-1.296a5.1 5.1 0 0 0-.144-1.206 3.15 3.15 0 0 0-.468-1.062 2.277 2.277 0 0 0-.81-.774c-.336-.192-.744-.288-1.224-.288-.492 0-.912.096-1.26.288-.348.18-.636.426-.864.738a3.414 3.414 0 0 0-.486 1.08 5.563 5.563 0 0 0-.144 1.278c0 .42.042.84.126 1.26.084.42.228.804.432 1.152.204.336.474.612.81.828.336.204.756.306 1.26.306Zm12.232-6.714h-1.566v-1.35h1.566v-1.386c0-.756.216-1.326.648-1.71.444-.396 1.086-.594 1.926-.594.144 0 .306.012.486.036.192.024.36.06.504.108v1.332a1.623 1.623 0 0 0-.432-.09 2.856 2.856 0 0 0-.432-.036c-.372 0-.66.072-.864.216-.204.144-.306.42-.306.828v1.296h1.8v1.35h-1.8V43h-1.53v-7.956ZM188.51 43h-1.44v-1.476h-.036c-.324.576-.738 1.002-1.242 1.278-.504.264-1.098.396-1.782.396-.612 0-1.122-.078-1.53-.234a2.515 2.515 0 0 1-.99-.702 2.7 2.7 0 0 1-.54-1.062 6.223 6.223 0 0 1-.144-1.386v-6.12h1.53v6.3c0 .576.168 1.032.504 1.368.336.336.798.504 1.386.504.468 0 .87-.072 1.206-.216.348-.144.636-.348.864-.612.228-.264.396-.57.504-.918.12-.36.18-.75.18-1.17v-5.256h1.53V43Zm2.244-9.306h1.44v1.962h.036c.372-.756.828-1.314 1.368-1.674.54-.36 1.224-.528 2.052-.504v1.62c-.612 0-1.134.084-1.566.252-.432.168-.78.414-1.044.738s-.456.72-.576 1.188c-.12.456-.18.984-.18 1.584V43h-1.53v-9.306Zm8.172 0h1.854v1.35h-1.854v5.778c0 .18.012.324.036.432a.49.49 0 0 0 .18.252c.084.06.198.102.342.126.156.012.354.018.594.018h.702V43h-1.17c-.396 0-.738-.024-1.026-.072a1.632 1.632 0 0 1-.684-.306 1.303 1.303 0 0 1-.378-.612c-.084-.264-.126-.612-.126-1.044v-5.922h-1.584v-1.35h1.584v-2.79h1.53v2.79Zm3.554-3.546h1.53v4.914h.036a1.95 1.95 0 0 1 .504-.72c.216-.204.456-.366.72-.486a3.71 3.71 0 0 1 .846-.288c.3-.06.588-.09.864-.09.612 0 1.122.084 1.53.252.408.168.738.402.99.702.252.3.426.66.522 1.08.108.408.162.864.162 1.368V43h-1.53v-6.3c0-.576-.168-1.032-.504-1.368-.336-.336-.798-.504-1.386-.504-.468 0-.876.072-1.224.216a2.294 2.294 0 0 0-.846.612 2.739 2.739 0 0 0-.522.936 3.873 3.873 0 0 0-.162 1.152V43h-1.53V30.148Zm16.464 7.308a2.997 2.997 0 0 0-.252-1.026 2.347 2.347 0 0 0-.558-.828 2.347 2.347 0 0 0-.828-.558 2.462 2.462 0 0 0-1.044-.216 2.63 2.63 0 0 0-1.08.216 2.386 2.386 0 0 0-.81.558c-.228.24-.408.522-.54.846-.132.312-.21.648-.234 1.008h5.346Zm1.476 2.592c-.204 1.044-.654 1.83-1.35 2.358-.696.528-1.572.792-2.628.792-.744 0-1.392-.12-1.944-.36a3.833 3.833 0 0 1-1.368-1.008 4.39 4.39 0 0 1-.846-1.548 7.72 7.72 0 0 1-.306-1.962 5.6 5.6 0 0 1 .324-1.944 4.73 4.73 0 0 1 .9-1.53 4.247 4.247 0 0 1 1.386-1.008c.54-.24 1.128-.36 1.764-.36.828 0 1.512.174 2.052.522.552.336.99.768 1.314 1.296.336.528.564 1.104.684 1.728a7.14 7.14 0 0 1 .162 1.782h-6.966c-.012.408.036.798.144 1.17.108.36.282.684.522.972.24.276.546.498.918.666.372.168.81.252 1.314.252.648 0 1.176-.15 1.584-.45.42-.3.696-.756.828-1.368h1.512Zm1.676-6.354h1.44v1.962h.036c.372-.756.828-1.314 1.368-1.674.54-.36 1.224-.528 2.052-.504v1.62c-.612 0-1.134.084-1.566.252-.432.168-.78.414-1.044.738s-.456.72-.576 1.188c-.12.456-.18.984-.18 1.584V43h-1.53v-9.306Zm4.738 7.308h1.998v1.818c0 .684-.156 1.272-.468 1.764-.312.492-.816.84-1.512 1.044v-.9a1.22 1.22 0 0 0 .504-.324c.144-.132.258-.282.342-.45.084-.156.138-.318.162-.486.036-.168.048-.324.036-.468h-1.062v-1.998ZM245.727 43h-1.62l-1.89-7.398h-.036L240.309 43h-1.656l-2.988-9.306h1.692l2.106 7.614h.036l1.872-7.614h1.674l1.944 7.614h.036l2.088-7.614h1.584L245.727 43Zm6.045-10.98h-1.53v-1.872h1.53v1.872Zm-1.53 1.674h1.53V43h-1.53v-9.306Zm3.99-3.546h1.53V43h-1.53V30.148Zm3.99 0h1.53V43h-1.53V30.148Zm16.938 12.06c0 1.524-.348 2.664-1.044 3.42-.696.756-1.788 1.134-3.276 1.134-.432 0-.876-.048-1.332-.144a4.179 4.179 0 0 1-1.224-.468 2.885 2.885 0 0 1-.9-.846c-.24-.348-.372-.774-.396-1.278h1.53c.012.276.096.51.252.702.168.192.366.348.594.468.24.12.498.204.774.252.276.06.54.09.792.09.504 0 .93-.09 1.278-.27.348-.168.636-.408.864-.72.228-.3.39-.666.486-1.098.108-.432.162-.906.162-1.422v-.612h-.036a2.607 2.607 0 0 1-1.206 1.278 3.732 3.732 0 0 1-1.692.396c-.696 0-1.302-.126-1.818-.378a3.855 3.855 0 0 1-1.296-1.008 4.571 4.571 0 0 1-.792-1.494 6.46 6.46 0 0 1-.252-1.818c0-.552.072-1.116.216-1.692a4.538 4.538 0 0 1 .72-1.584c.336-.48.78-.87 1.332-1.17.552-.312 1.23-.468 2.034-.468.588 0 1.128.132 1.62.396a2.67 2.67 0 0 1 1.152 1.152h.018v-1.332h1.44v8.514Zm-4.284-.45c.504 0 .93-.102 1.278-.306.36-.216.648-.492.864-.828.216-.348.372-.738.468-1.17.108-.432.162-.864.162-1.296a5.1 5.1 0 0 0-.144-1.206 3.15 3.15 0 0 0-.468-1.062 2.277 2.277 0 0 0-.81-.774c-.336-.192-.744-.288-1.224-.288-.492 0-.912.096-1.26.288-.348.18-.636.426-.864.738a3.414 3.414 0 0 0-.486 1.08 5.563 5.563 0 0 0-.144 1.278c0 .42.042.84.126 1.26.084.42.228.804.432 1.152.204.336.474.612.81.828.336.204.756.306 1.26.306Zm8.212-9.738h-1.53v-1.872h1.53v1.872Zm-1.53 1.674h1.53V43h-1.53v-9.306ZM285.653 43h-1.638l-3.456-9.306h1.71l2.61 7.758h.036l2.538-7.758h1.602L285.653 43Zm11.268-5.544a2.997 2.997 0 0 0-.252-1.026 2.347 2.347 0 0 0-.558-.828 2.347 2.347 0 0 0-.828-.558 2.462 2.462 0 0 0-1.044-.216 2.63 2.63 0 0 0-1.08.216 2.386 2.386 0 0 0-.81.558c-.228.24-.408.522-.54.846-.132.312-.21.648-.234 1.008h5.346Zm1.476 2.592c-.204 1.044-.654 1.83-1.35 2.358-.696.528-1.572.792-2.628.792-.744 0-1.392-.12-1.944-.36a3.833 3.833 0 0 1-1.368-1.008 4.39 4.39 0 0 1-.846-1.548 7.72 7.72 0 0 1-.306-1.962 5.6 5.6 0 0 1 .324-1.944 4.73 4.73 0 0 1 .9-1.53 4.247 4.247 0 0 1 1.386-1.008c.54-.24 1.128-.36 1.764-.36.828 0 1.512.174 2.052.522.552.336.99.768 1.314 1.296.336.528.564 1.104.684 1.728a7.14 7.14 0 0 1 .162 1.782h-6.966c-.012.408.036.798.144 1.17.108.36.282.684.522.972.24.276.546.498.918.666.372.168.81.252 1.314.252.648 0 1.176-.15 1.584-.45.42-.3.696-.756.828-1.368h1.512Zm6.739-6.354h1.44v1.368h.036c.696-1.056 1.698-1.584 3.006-1.584.576 0 1.098.12 1.566.36.468.24.798.648.99 1.224.312-.504.72-.894 1.224-1.17a3.53 3.53 0 0 1 1.692-.414c.468 0 .888.054 1.26.162.384.096.708.252.972.468.276.216.486.498.63.846.156.336.234.744.234 1.224V43h-1.53v-6.102c0-.288-.024-.558-.072-.81a1.579 1.579 0 0 0-.27-.648 1.31 1.31 0 0 0-.558-.45c-.228-.108-.528-.162-.9-.162-.756 0-1.35.216-1.782.648-.432.432-.648 1.008-.648 1.728V43h-1.53v-6.102c0-.3-.03-.576-.09-.828a1.579 1.579 0 0 0-.27-.648 1.206 1.206 0 0 0-.54-.432c-.216-.108-.498-.162-.846-.162-.444 0-.828.09-1.152.27-.312.18-.57.396-.774.648a2.85 2.85 0 0 0-.432.792 2.274 2.274 0 0 0-.126.666V43h-1.53v-9.306Zm16.462 4.662c0 .564.072 1.068.216 1.512.156.432.366.798.63 1.098.264.288.57.51.918.666.36.156.738.234 1.134.234.396 0 .768-.078 1.116-.234.36-.156.672-.378.936-.666.264-.3.468-.666.612-1.098.156-.444.234-.948.234-1.512 0-.564-.078-1.062-.234-1.494a3.123 3.123 0 0 0-.612-1.116 2.623 2.623 0 0 0-.936-.684 2.697 2.697 0 0 0-1.116-.234c-.396 0-.774.078-1.134.234a2.668 2.668 0 0 0-.918.684c-.264.3-.474.672-.63 1.116-.144.432-.216.93-.216 1.494Zm-1.62 0c0-.684.096-1.32.288-1.908.192-.6.48-1.116.864-1.548a4.018 4.018 0 0 1 1.422-1.044c.564-.252 1.212-.378 1.944-.378.744 0 1.392.126 1.944.378.564.252 1.038.6 1.422 1.044.384.432.672.948.864 1.548.192.588.288 1.224.288 1.908 0 .684-.096 1.32-.288 1.908a4.449 4.449 0 0 1-.864 1.548 4.125 4.125 0 0 1-1.422 1.026c-.552.24-1.2.36-1.944.36-.732 0-1.38-.12-1.944-.36a4.125 4.125 0 0 1-1.422-1.026 4.449 4.449 0 0 1-.864-1.548 6.113 6.113 0 0 1-.288-1.908Zm10.786-4.662h1.44v1.962h.036c.372-.756.828-1.314 1.368-1.674.54-.36 1.224-.528 2.052-.504v1.62c-.612 0-1.134.084-1.566.252-.432.168-.78.414-1.044.738s-.456.72-.576 1.188c-.12.456-.18.984-.18 1.584V43h-1.53v-9.306Zm12.194 3.762a2.997 2.997 0 0 0-.252-1.026 2.347 2.347 0 0 0-.558-.828 2.347 2.347 0 0 0-.828-.558 2.462 2.462 0 0 0-1.044-.216 2.63 2.63 0 0 0-1.08.216 2.386 2.386 0 0 0-.81.558c-.228.24-.408.522-.54.846-.132.312-.21.648-.234 1.008h5.346Zm1.476 2.592c-.204 1.044-.654 1.83-1.35 2.358-.696.528-1.572.792-2.628.792-.744 0-1.392-.12-1.944-.36a3.833 3.833 0 0 1-1.368-1.008 4.39 4.39 0 0 1-.846-1.548 7.72 7.72 0 0 1-.306-1.962 5.6 5.6 0 0 1 .324-1.944 4.73 4.73 0 0 1 .9-1.53 4.247 4.247 0 0 1 1.386-1.008c.54-.24 1.128-.36 1.764-.36.828 0 1.512.174 2.052.522.552.336.99.768 1.314 1.296.336.528.564 1.104.684 1.728a7.14 7.14 0 0 1 .162 1.782h-6.966c-.012.408.036.798.144 1.17.108.36.282.684.522.972.24.276.546.498.918.666.372.168.81.252 1.314.252.648 0 1.176-.15 1.584-.45.42-.3.696-.756.828-1.368h1.512Zm7.855-1.62c0 .432.054.858.162 1.278.12.408.294.774.522 1.098.24.324.54.582.9.774.372.192.804.288 1.296.288.516 0 .954-.102 1.314-.306.36-.204.654-.468.882-.792.228-.336.39-.714.486-1.134a5.256 5.256 0 0 0 0-2.592 3.176 3.176 0 0 0-.522-1.134 2.457 2.457 0 0 0-.9-.774c-.372-.204-.822-.306-1.35-.306-.516 0-.954.102-1.314.306-.36.204-.648.474-.864.81-.216.336-.372.72-.468 1.152a6.122 6.122 0 0 0-.144 1.332Zm7.2 4.572h-1.53v-1.26h-.036a2.252 2.252 0 0 1-1.188 1.116 4.536 4.536 0 0 1-1.782.342c-.72 0-1.35-.132-1.89-.396a3.987 3.987 0 0 1-1.332-1.062 4.722 4.722 0 0 1-.792-1.548 6.361 6.361 0 0 1-.27-1.872c0-.66.084-1.284.252-1.872.18-.588.444-1.098.792-1.53.36-.444.804-.792 1.332-1.044.54-.264 1.164-.396 1.872-.396.24 0 .498.024.774.072.276.048.552.132.828.252.276.108.534.258.774.45.252.18.462.408.63.684h.036v-4.788h1.53V43Zm8.816-5.544a2.997 2.997 0 0 0-.252-1.026 2.347 2.347 0 0 0-.558-.828 2.347 2.347 0 0 0-.828-.558 2.462 2.462 0 0 0-1.044-.216 2.63 2.63 0 0 0-1.08.216 2.386 2.386 0 0 0-.81.558c-.228.24-.408.522-.54.846-.132.312-.21.648-.234 1.008h5.346Zm1.476 2.592c-.204 1.044-.654 1.83-1.35 2.358-.696.528-1.572.792-2.628.792-.744 0-1.392-.12-1.944-.36a3.833 3.833 0 0 1-1.368-1.008 4.39 4.39 0 0 1-.846-1.548 7.72 7.72 0 0 1-.306-1.962 5.6 5.6 0 0 1 .324-1.944 4.73 4.73 0 0 1 .9-1.53 4.247 4.247 0 0 1 1.386-1.008c.54-.24 1.128-.36 1.764-.36.828 0 1.512.174 2.052.522.552.336.99.768 1.314 1.296.336.528.564 1.104.684 1.728a7.14 7.14 0 0 1 .162 1.782h-6.966c-.012.408.036.798.144 1.17.108.36.282.684.522.972.24.276.546.498.918.666.372.168.81.252 1.314.252.648 0 1.176-.15 1.584-.45.42-.3.696-.756.828-1.368h1.512Zm3.854-6.354h1.854v1.35h-1.854v5.778c0 .18.012.324.036.432a.49.49 0 0 0 .18.252c.084.06.198.102.342.126.156.012.354.018.594.018h.702V43h-1.17c-.396 0-.738-.024-1.026-.072a1.632 1.632 0 0 1-.684-.306 1.303 1.303 0 0 1-.378-.612c-.084-.264-.126-.612-.126-1.044v-5.922h-1.584v-1.35h1.584v-2.79h1.53v2.79Zm11.798 9.27c-.264.156-.63.234-1.098.234-.396 0-.714-.108-.954-.324-.228-.228-.342-.594-.342-1.098-.42.504-.912.87-1.476 1.098a4.897 4.897 0 0 1-1.8.324c-.42 0-.822-.048-1.206-.144a2.788 2.788 0 0 1-.972-.45 2.262 2.262 0 0 1-.666-.792c-.156-.336-.234-.738-.234-1.206 0-.528.09-.96.27-1.296a2.31 2.31 0 0 1 .702-.81 3.27 3.27 0 0 1 1.008-.486 12.73 12.73 0 0 1 1.17-.27c.42-.084.816-.144 1.188-.18.384-.048.72-.108 1.008-.18.288-.084.516-.198.684-.342.168-.156.252-.378.252-.666 0-.336-.066-.606-.198-.81a1.215 1.215 0 0 0-.486-.468 1.892 1.892 0 0 0-.666-.216 4.847 4.847 0 0 0-.72-.054c-.648 0-1.188.126-1.62.378-.432.24-.666.702-.702 1.386h-1.53c.024-.576.144-1.062.36-1.458a2.65 2.65 0 0 1 .864-.954 3.53 3.53 0 0 1 1.224-.54 6.63 6.63 0 0 1 1.494-.162c.42 0 .834.03 1.242.09.42.06.798.186 1.134.378.336.18.606.438.81.774.204.336.306.774.306 1.314v4.788c0 .36.018.624.054.792.048.168.192.252.432.252.132 0 .288-.03.468-.09v1.188Zm-2.484-4.77c-.192.144-.444.252-.756.324-.312.06-.642.114-.99.162-.336.036-.678.084-1.026.144a3.56 3.56 0 0 0-.936.252 1.74 1.74 0 0 0-.684.522c-.168.216-.252.516-.252.9 0 .252.048.468.144.648.108.168.24.306.396.414.168.108.36.186.576.234.216.048.444.072.684.072.504 0 .936-.066 1.296-.198.36-.144.654-.318.882-.522.228-.216.396-.444.504-.684.108-.252.162-.486.162-.702v-1.566Zm5.528-6.174h-1.53v-1.872h1.53v1.872Zm-1.53 1.674h1.53V43h-1.53v-9.306Zm3.99-3.546h1.53V43h-1.53V30.148Zm10.363 7.308a2.997 2.997 0 0 0-.252-1.026 2.347 2.347 0 0 0-.558-.828 2.347 2.347 0 0 0-.828-.558 2.462 2.462 0 0 0-1.044-.216 2.63 2.63 0 0 0-1.08.216 2.386 2.386 0 0 0-.81.558c-.228.24-.408.522-.54.846-.132.312-.21.648-.234 1.008h5.346Zm1.476 2.592c-.204 1.044-.654 1.83-1.35 2.358-.696.528-1.572.792-2.628.792-.744 0-1.392-.12-1.944-.36a3.833 3.833 0 0 1-1.368-1.008 4.39 4.39 0 0 1-.846-1.548 7.72 7.72 0 0 1-.306-1.962 5.6 5.6 0 0 1 .324-1.944 4.73 4.73 0 0 1 .9-1.53 4.247 4.247 0 0 1 1.386-1.008c.54-.24 1.128-.36 1.764-.36.828 0 1.512.174 2.052.522.552.336.99.768 1.314 1.296.336.528.564 1.104.684 1.728a7.14 7.14 0 0 1 .162 1.782h-6.966c-.012.408.036.798.144 1.17.108.36.282.684.522.972.24.276.546.498.918.666.372.168.81.252 1.314.252.648 0 1.176-.15 1.584-.45.42-.3.696-.756.828-1.368h1.512Zm2.846-1.62c0 .432.054.858.162 1.278.12.408.294.774.522 1.098.24.324.54.582.9.774.372.192.804.288 1.296.288.516 0 .954-.102 1.314-.306.36-.204.654-.468.882-.792.228-.336.39-.714.486-1.134a5.256 5.256 0 0 0 0-2.592 3.176 3.176 0 0 0-.522-1.134 2.457 2.457 0 0 0-.9-.774c-.372-.204-.822-.306-1.35-.306-.516 0-.954.102-1.314.306-.36.204-.648.474-.864.81-.216.336-.372.72-.468 1.152a6.122 6.122 0 0 0-.144 1.332Zm7.2 4.572h-1.53v-1.26h-.036a2.252 2.252 0 0 1-1.188 1.116 4.536 4.536 0 0 1-1.782.342c-.72 0-1.35-.132-1.89-.396a3.987 3.987 0 0 1-1.332-1.062 4.722 4.722 0 0 1-.792-1.548 6.361 6.361 0 0 1-.27-1.872c0-.66.084-1.284.252-1.872.18-.588.444-1.098.792-1.53.36-.444.804-.792 1.332-1.044.54-.264 1.164-.396 1.872-.396.24 0 .498.024.774.072.276.048.552.132.828.252.276.108.534.258.774.45.252.18.462.408.63.684h.036v-4.788h1.53V43Zm7.309-9.306h1.44v1.962h.036c.372-.756.828-1.314 1.368-1.674.54-.36 1.224-.528 2.052-.504v1.62c-.612 0-1.134.084-1.566.252-.432.168-.78.414-1.044.738s-.456.72-.576 1.188c-.12.456-.18.984-.18 1.584V43h-1.53v-9.306Zm12.194 3.762a2.997 2.997 0 0 0-.252-1.026 2.347 2.347 0 0 0-.558-.828 2.347 2.347 0 0 0-.828-.558 2.462 2.462 0 0 0-1.044-.216 2.63 2.63 0 0 0-1.08.216 2.386 2.386 0 0 0-.81.558c-.228.24-.408.522-.54.846-.132.312-.21.648-.234 1.008h5.346Zm1.476 2.592c-.204 1.044-.654 1.83-1.35 2.358-.696.528-1.572.792-2.628.792-.744 0-1.392-.12-1.944-.36a3.833 3.833 0 0 1-1.368-1.008 4.39 4.39 0 0 1-.846-1.548 7.72 7.72 0 0 1-.306-1.962 5.6 5.6 0 0 1 .324-1.944 4.73 4.73 0 0 1 .9-1.53 4.247 4.247 0 0 1 1.386-1.008c.54-.24 1.128-.36 1.764-.36.828 0 1.512.174 2.052.522.552.336.99.768 1.314 1.296.336.528.564 1.104.684 1.728a7.14 7.14 0 0 1 .162 1.782h-6.966c-.012.408.036.798.144 1.17.108.36.282.684.522.972.24.276.546.498.918.666.372.168.81.252 1.314.252.648 0 1.176-.15 1.584-.45.42-.3.696-.756.828-1.368h1.512Zm2.666.018c.012.336.09.624.234.864.144.228.33.414.558.558.24.132.504.228.792.288.3.06.606.09.918.09.24 0 .492-.018.756-.054.264-.036.504-.102.72-.198.228-.096.414-.234.558-.414.144-.192.216-.432.216-.72 0-.396-.15-.696-.45-.9-.3-.204-.678-.366-1.134-.486-.444-.132-.93-.246-1.458-.342a8.838 8.838 0 0 1-1.476-.432 3.146 3.146 0 0 1-1.116-.792c-.3-.336-.45-.804-.45-1.404 0-.468.102-.87.306-1.206.216-.336.486-.606.81-.81a3.55 3.55 0 0 1 1.116-.468c.42-.108.834-.162 1.242-.162.528 0 1.014.048 1.458.144.444.084.834.24 1.17.468.348.216.624.516.828.9.204.372.324.84.36 1.404h-1.53c-.024-.3-.102-.546-.234-.738a1.5 1.5 0 0 0-.504-.486 2.12 2.12 0 0 0-.684-.252c-.24-.06-.486-.09-.738-.09a4.73 4.73 0 0 0-.702.054 2.149 2.149 0 0 0-.63.198 1.17 1.17 0 0 0-.468.36c-.12.144-.18.336-.18.576 0 .264.09.486.27.666.192.168.432.312.72.432.288.108.612.204.972.288.36.072.72.15 1.08.234.384.084.756.186 1.116.306.372.12.696.282.972.486.288.192.516.438.684.738.18.3.27.672.27 1.116 0 .564-.12 1.032-.36 1.404a2.638 2.638 0 0 1-.918.9 3.612 3.612 0 0 1-1.278.468 6.97 6.97 0 0 1-1.404.144 6.546 6.546 0 0 1-1.476-.162 3.728 3.728 0 0 1-1.242-.522 2.811 2.811 0 0 1-.864-.972c-.216-.408-.336-.9-.36-1.476h1.53ZM452.235 43h-1.44v-1.476h-.036c-.324.576-.738 1.002-1.242 1.278-.504.264-1.098.396-1.782.396-.612 0-1.122-.078-1.53-.234a2.515 2.515 0 0 1-.99-.702 2.7 2.7 0 0 1-.54-1.062 6.223 6.223 0 0 1-.144-1.386v-6.12h1.53v6.3c0 .576.168 1.032.504 1.368.336.336.798.504 1.386.504.468 0 .87-.072 1.206-.216.348-.144.636-.348.864-.612.228-.264.396-.57.504-.918.12-.36.18-.75.18-1.17v-5.256h1.53V43Zm2.388-12.852h1.53V43h-1.53V30.148Zm6.024 3.546h1.854v1.35h-1.854v5.778c0 .18.012.324.036.432a.49.49 0 0 0 .18.252c.084.06.198.102.342.126.156.012.354.018.594.018h.702V43h-1.17c-.396 0-.738-.024-1.026-.072a1.632 1.632 0 0 1-.684-.306 1.303 1.303 0 0 1-.378-.612c-.084-.264-.126-.612-.126-1.044v-5.922h-1.584v-1.35h1.584v-2.79h1.53v2.79Zm4.49 6.372c.012.336.09.624.234.864.144.228.33.414.558.558.24.132.504.228.792.288.3.06.606.09.918.09.24 0 .492-.018.756-.054.264-.036.504-.102.72-.198.228-.096.414-.234.558-.414.144-.192.216-.432.216-.72 0-.396-.15-.696-.45-.9-.3-.204-.678-.366-1.134-.486-.444-.132-.93-.246-1.458-.342a8.838 8.838 0 0 1-1.476-.432 3.146 3.146 0 0 1-1.116-.792c-.3-.336-.45-.804-.45-1.404 0-.468.102-.87.306-1.206.216-.336.486-.606.81-.81a3.55 3.55 0 0 1 1.116-.468c.42-.108.834-.162 1.242-.162.528 0 1.014.048 1.458.144.444.084.834.24 1.17.468.348.216.624.516.828.9.204.372.324.84.36 1.404h-1.53c-.024-.3-.102-.546-.234-.738a1.5 1.5 0 0 0-.504-.486 2.12 2.12 0 0 0-.684-.252c-.24-.06-.486-.09-.738-.09a4.73 4.73 0 0 0-.702.054 2.149 2.149 0 0 0-.63.198 1.17 1.17 0 0 0-.468.36c-.12.144-.18.336-.18.576 0 .264.09.486.27.666.192.168.432.312.72.432.288.108.612.204.972.288.36.072.72.15 1.08.234.384.084.756.186 1.116.306.372.12.696.282.972.486.288.192.516.438.684.738.18.3.27.672.27 1.116 0 .564-.12 1.032-.36 1.404a2.638 2.638 0 0 1-.918.9 3.612 3.612 0 0 1-1.278.468 6.97 6.97 0 0 1-1.404.144 6.546 6.546 0 0 1-1.476-.162 3.728 3.728 0 0 1-1.242-.522 2.811 2.811 0 0 1-.864-.972c-.216-.408-.336-.9-.36-1.476h1.53Zm10.404-4.374h-1.998v-1.998h1.998v1.998Zm-1.998 5.31h1.998V43h-1.998v-1.998Z" opacity=".2"/><rect width="752" height="39" x="24.5" y="128.5" stroke="#F3F3F3" opacity=".2" rx="3.5"/><g opacity=".2"><path fill="#8C8C8C" d="M794.092 143.004h4.704c.952 0 1.694.233 2.226.7.541.467.812 1.106.812 1.918 0 .607-.14 1.139-.42 1.596-.271.457-.709.77-1.316.938v.028c.289.056.523.149.7.28.187.131.331.289.434.476.112.177.191.378.238.602.056.224.098.457.126.7.019.243.033.49.042.742.009.252.033.499.07.742.037.243.089.476.154.7.075.215.182.406.322.574H800.7a.884.884 0 0 1-.196-.42 5.158 5.158 0 0 1-.056-.588l-.028-.714a4.801 4.801 0 0 0-.084-.742 6.748 6.748 0 0 0-.14-.686 1.56 1.56 0 0 0-.266-.574 1.22 1.22 0 0 0-.476-.392c-.196-.103-.457-.154-.784-.154h-3.248V153h-1.33v-9.996Zm4.102 4.606c.308 0 .602-.023.882-.07a1.93 1.93 0 0 0 .728-.266c.215-.14.383-.322.504-.546.131-.233.196-.532.196-.896 0-.504-.14-.915-.42-1.232-.28-.317-.733-.476-1.358-.476h-3.304v3.486h2.772Zm10.312 1.078a2.339 2.339 0 0 0-.196-.798 1.822 1.822 0 0 0-.434-.644 1.822 1.822 0 0 0-.644-.434 1.915 1.915 0 0 0-.812-.168c-.308 0-.588.056-.84.168a1.85 1.85 0 0 0-.63.434 2.104 2.104 0 0 0-.42.658 2.41 2.41 0 0 0-.182.784h4.158Zm1.148 2.016c-.159.812-.509 1.423-1.05 1.834-.541.411-1.223.616-2.044.616-.579 0-1.083-.093-1.512-.28a2.982 2.982 0 0 1-1.064-.784 3.412 3.412 0 0 1-.658-1.204 6.02 6.02 0 0 1-.238-1.526c0-.551.084-1.055.252-1.512.168-.457.401-.854.7-1.19a3.305 3.305 0 0 1 1.078-.784c.42-.187.877-.28 1.372-.28.644 0 1.176.135 1.596.406.429.261.77.597 1.022 1.008.261.411.439.859.532 1.344.103.485.145.947.126 1.386h-5.418c-.009.317.028.621.112.91.084.28.219.532.406.756.187.215.425.387.714.518s.63.196 1.022.196c.504 0 .915-.117 1.232-.35.327-.233.541-.588.644-1.064h1.176Zm1.416-7.7h1.19V153h-1.19v-9.996Zm8.059 5.684a2.339 2.339 0 0 0-.196-.798 1.822 1.822 0 0 0-.434-.644 1.822 1.822 0 0 0-.644-.434 1.915 1.915 0 0 0-.812-.168c-.308 0-.588.056-.84.168a1.85 1.85 0 0 0-.63.434 2.104 2.104 0 0 0-.42.658 2.41 2.41 0 0 0-.182.784h4.158Zm1.148 2.016c-.159.812-.509 1.423-1.05 1.834-.541.411-1.223.616-2.044.616-.579 0-1.083-.093-1.512-.28a2.982 2.982 0 0 1-1.064-.784 3.412 3.412 0 0 1-.658-1.204 6.02 6.02 0 0 1-.238-1.526c0-.551.084-1.055.252-1.512.168-.457.401-.854.7-1.19a3.305 3.305 0 0 1 1.078-.784c.42-.187.877-.28 1.372-.28.644 0 1.176.135 1.596.406.429.261.77.597 1.022 1.008.261.411.439.859.532 1.344.103.485.145.947.126 1.386h-5.418c-.009.317.028.621.112.91.084.28.219.532.406.756.187.215.425.387.714.518s.63.196 1.022.196c.504 0 .915-.117 1.232-.35.327-.233.541-.588.644-1.064h1.176Zm4.608 2.296h-1.274l-2.688-7.238h1.33l2.03 6.034h.028l1.974-6.034h1.246L824.885 153Zm10.15-.028c-.206.121-.49.182-.854.182-.308 0-.556-.084-.742-.252-.178-.177-.266-.462-.266-.854-.327.392-.71.677-1.148.854-.43.168-.896.252-1.4.252-.327 0-.64-.037-.938-.112a2.157 2.157 0 0 1-.756-.35 1.752 1.752 0 0 1-.518-.616c-.122-.261-.182-.574-.182-.938 0-.411.07-.747.21-1.008.14-.261.322-.471.546-.63.233-.168.494-.294.784-.378a9.85 9.85 0 0 1 .91-.21 9.33 9.33 0 0 1 .924-.14c.298-.037.56-.084.784-.14.224-.065.401-.154.532-.266.13-.121.196-.294.196-.518 0-.261-.052-.471-.154-.63a.951.951 0 0 0-.378-.364 1.476 1.476 0 0 0-.518-.168 3.78 3.78 0 0 0-.56-.042c-.504 0-.924.098-1.26.294-.336.187-.518.546-.546 1.078h-1.19c.018-.448.112-.826.28-1.134.168-.308.392-.555.672-.742.28-.196.597-.336.952-.42a5.155 5.155 0 0 1 1.162-.126c.326 0 .648.023.966.07.326.047.62.145.882.294.261.14.471.341.63.602.158.261.238.602.238 1.022v3.724c0 .28.014.485.042.616.037.131.149.196.336.196.102 0 .224-.023.364-.07v.924Zm-1.932-3.71c-.15.112-.346.196-.588.252-.243.047-.5.089-.77.126-.262.028-.528.065-.798.112a2.759 2.759 0 0 0-.728.196 1.35 1.35 0 0 0-.532.406c-.131.168-.196.401-.196.7 0 .196.037.364.112.504.084.131.186.238.308.322.13.084.28.145.448.182.168.037.345.056.532.056.392 0 .728-.051 1.008-.154.28-.112.508-.247.686-.406.177-.168.308-.345.392-.532.084-.196.126-.378.126-.546v-1.218Zm3.039-3.5h1.12v1.148h.028c.495-.877 1.279-1.316 2.352-1.316.476 0 .873.065 1.19.196.317.131.574.313.77.546.196.233.331.513.406.84.084.317.126.672.126 1.064V153h-1.19v-4.9c0-.448-.131-.803-.392-1.064s-.621-.392-1.078-.392a2.48 2.48 0 0 0-.952.168 1.788 1.788 0 0 0-.658.476 2.127 2.127 0 0 0-.406.728 3.013 3.013 0 0 0-.126.896V153h-1.19v-7.238Zm12.693 2.324c-.093-.457-.289-.812-.588-1.064-.298-.252-.7-.378-1.204-.378-.429 0-.788.079-1.078.238a1.998 1.998 0 0 0-.7.63 2.743 2.743 0 0 0-.364.91 4.869 4.869 0 0 0-.112 1.05c0 .336.038.663.112.98.084.317.21.602.378.854.168.243.388.439.658.588.271.149.593.224.966.224.588 0 1.046-.154 1.372-.462.336-.308.542-.742.616-1.302h1.218c-.13.896-.466 1.587-1.008 2.072-.532.485-1.26.728-2.184.728-.55 0-1.04-.089-1.47-.266a2.911 2.911 0 0 1-1.064-.756 3.444 3.444 0 0 1-.644-1.162 5.097 5.097 0 0 1-.21-1.498c0-.541.07-1.045.21-1.512.14-.476.35-.887.63-1.232.29-.355.649-.63 1.078-.826.43-.205.929-.308 1.498-.308.411 0 .794.051 1.148.154.364.093.682.243.952.448.28.205.509.467.686.784.178.308.29.677.336 1.106h-1.232Zm7.632.602a2.339 2.339 0 0 0-.196-.798 1.822 1.822 0 0 0-.434-.644 1.822 1.822 0 0 0-.644-.434 1.915 1.915 0 0 0-.812-.168c-.308 0-.588.056-.84.168a1.85 1.85 0 0 0-.63.434 2.104 2.104 0 0 0-.42.658 2.41 2.41 0 0 0-.182.784h4.158Zm1.148 2.016c-.159.812-.509 1.423-1.05 1.834-.541.411-1.223.616-2.044.616-.579 0-1.083-.093-1.512-.28a2.982 2.982 0 0 1-1.064-.784 3.412 3.412 0 0 1-.658-1.204 6.02 6.02 0 0 1-.238-1.526c0-.551.084-1.055.252-1.512.168-.457.401-.854.7-1.19a3.305 3.305 0 0 1 1.078-.784c.42-.187.877-.28 1.372-.28.644 0 1.176.135 1.596.406.429.261.77.597 1.022 1.008.261.411.439.859.532 1.344.103.485.145.947.126 1.386h-5.418c-.009.317.028.621.112.91.084.28.219.532.406.756.187.215.425.387.714.518s.63.196 1.022.196c.504 0 .915-.117 1.232-.35.327-.233.541-.588.644-1.064h1.176ZM1014 154l-2.67-2.667h2v-6.666h-2L1014 142l2.67 2.667h-2v6.666h2m-13.34 1.334v-1.334h6.67v1.334m-6.67-4v-1.334h4.67v1.334m-4.67-4v-1.334h2.67v1.334h-2.67Z"/><rect width="240" height="39" x="785.5" y="128.5" stroke="#F3F3F3" rx="3.5"/><path fill="#8C8C8C" d="M977.364 144.608 972 149.972l-5.364-5.364a.36.36 0 0 0-.264-.108.36.36 0 0 0-.264.108.36.36 0 0 0-.108.264.36.36 0 0 0 .108.264l5.892 5.892 5.892-5.892a.36.36 0 0 0 .108-.264.36.36 0 0 0-.108-.264.36.36 0 0 0-.264-.108.36.36 0 0 0-.264.108Z"/><path stroke="#F3F3F3" d="M990.5 134v28"/></g><g opacity=".2"><rect width="166" height="40" x="24" y="64" fill="#415385" rx="20"/><path fill="#fff" d="M43.535 78.576h8.224v1.728h-6.224v2.992h5.76v1.632h-5.76v3.344h6.336V90h-8.336V78.576ZM60.22 90h-1.792v-1.152h-.032c-.224.416-.56.752-1.008 1.008a2.716 2.716 0 0 1-1.344.368c-1.088 0-1.878-.267-2.368-.8-.48-.544-.72-1.36-.72-2.448v-5.248h1.824V86.8c0 .725.139 1.237.416 1.536.277.299.666.448 1.168.448.384 0 .704-.059.96-.176a1.74 1.74 0 0 0 .624-.464c.16-.203.272-.443.336-.72.075-.277.112-.576.112-.896v-4.8h1.824V90Zm1.523-8.272h1.712v1.6h.032c.054-.224.155-.443.304-.656.16-.213.347-.405.56-.576a2.84 2.84 0 0 1 .736-.432c.267-.107.539-.16.816-.16.214 0 .358.005.432.016l.256.032v1.76a4.59 4.59 0 0 0-.4-.048 2.336 2.336 0 0 0-.384-.032c-.309 0-.602.064-.88.192a1.904 1.904 0 0 0-.704.544 2.573 2.573 0 0 0-.48.88 3.841 3.841 0 0 0-.176 1.216V90h-1.824v-8.272Zm8.736 8.496c-.661 0-1.253-.107-1.776-.32a3.969 3.969 0 0 1-1.312-.912 4.029 4.029 0 0 1-.816-1.376 5.44 5.44 0 0 1-.272-1.76c0-.63.09-1.21.272-1.744.192-.533.464-.992.816-1.376.363-.384.8-.683 1.312-.896.523-.224 1.115-.336 1.776-.336s1.248.112 1.76.336c.523.213.96.512 1.312.896.363.384.635.843.816 1.376.192.533.288 1.115.288 1.744 0 .64-.096 1.227-.288 1.76a3.76 3.76 0 0 1-2.128 2.288c-.512.213-1.099.32-1.76.32Zm0-1.44c.405 0 .757-.085 1.056-.256.299-.17.544-.395.736-.672.192-.277.33-.587.416-.928a3.998 3.998 0 0 0 0-2.128 2.63 2.63 0 0 0-.416-.928 2.226 2.226 0 0 0-.736-.672c-.299-.17-.65-.256-1.056-.256-.405 0-.757.085-1.056.256-.299.17-.544.395-.736.672a2.86 2.86 0 0 0-.432.928 4.47 4.47 0 0 0 0 2.128c.096.341.24.65.432.928.192.277.438.501.736.672.299.17.65.256 1.056.256Zm5.34-7.056h1.729v1.12h.031c.257-.48.614-.821 1.073-1.024.458-.213.954-.32 1.487-.32.651 0 1.216.117 1.697.352.49.224.895.539 1.215.944.32.395.56.859.72 1.392.16.533.24 1.104.24 1.712 0 .555-.074 1.093-.224 1.616a4.088 4.088 0 0 1-.656 1.392 3.317 3.317 0 0 1-1.104.96c-.448.235-.976.352-1.584.352-.266 0-.533-.027-.8-.08a3.176 3.176 0 0 1-.768-.224 3.408 3.408 0 0 1-.688-.4 2.468 2.468 0 0 1-.511-.592h-.033v4.128H75.82V81.728Zm6.369 4.144c0-.373-.048-.736-.144-1.088a2.86 2.86 0 0 0-.433-.928 2.118 2.118 0 0 0-.72-.656 1.908 1.908 0 0 0-.992-.256c-.768 0-1.349.267-1.744.8-.384.533-.576 1.243-.576 2.128 0 .416.049.805.145 1.168.106.352.26.656.464.912.202.256.442.459.72.608.287.15.618.224.991.224.416 0 .768-.085 1.056-.256.288-.17.523-.39.704-.656.193-.277.326-.587.4-.928.086-.352.129-.71.129-1.072Zm8.645-.736a2.778 2.778 0 0 0-.192-.832 1.949 1.949 0 0 0-.416-.688 1.806 1.806 0 0 0-.64-.48 1.771 1.771 0 0 0-.832-.192c-.32 0-.614.059-.88.176-.256.107-.48.261-.672.464-.182.192-.33.421-.448.688a2.547 2.547 0 0 0-.176.864h4.256Zm-4.256 1.2c0 .32.042.63.128.928.096.299.234.56.416.784.181.224.41.405.688.544.277.128.608.192.992.192.533 0 .96-.112 1.28-.336.33-.235.576-.581.736-1.04h1.728a3.439 3.439 0 0 1-.496 1.2 3.57 3.57 0 0 1-.848.896 3.61 3.61 0 0 1-1.12.528 4.225 4.225 0 0 1-1.28.192c-.65 0-1.227-.107-1.728-.32a3.651 3.651 0 0 1-1.28-.896 3.966 3.966 0 0 1-.784-1.376 5.753 5.753 0 0 1-.256-1.76c0-.587.09-1.141.272-1.664.192-.533.458-.997.8-1.392a3.864 3.864 0 0 1 1.264-.96c.49-.235 1.045-.352 1.664-.352.65 0 1.232.139 1.744.416a3.74 3.74 0 0 1 1.296 1.072c.341.448.586.965.736 1.552a4.58 4.58 0 0 1 .128 1.792h-6.08Zm13.994 1.824c0 .224.027.384.08.48.064.096.182.144.352.144h.192c.075 0 .16-.01.256-.032v1.264a2.196 2.196 0 0 1-.256.064 2.507 2.507 0 0 1-.304.08 3.285 3.285 0 0 1-.592.064c-.373 0-.682-.075-.928-.224-.245-.15-.405-.41-.48-.784-.362.352-.81.608-1.344.768-.522.16-1.029.24-1.52.24-.373 0-.73-.053-1.072-.16a2.879 2.879 0 0 1-.912-.432 2.38 2.38 0 0 1-.624-.752 2.437 2.437 0 0 1-.224-1.072c0-.512.091-.928.272-1.248.192-.32.438-.57.736-.752.31-.181.651-.31 1.024-.384.384-.085.768-.15 1.152-.192.331-.064.646-.107.944-.128.299-.032.56-.08.784-.144a1.2 1.2 0 0 0 .544-.288c.139-.139.208-.341.208-.608 0-.235-.058-.427-.176-.576a.99.99 0 0 0-.416-.336 1.472 1.472 0 0 0-.544-.16 3.7 3.7 0 0 0-.576-.048c-.512 0-.933.107-1.264.32-.33.213-.517.544-.56.992H93.5c.032-.533.16-.976.384-1.328.224-.352.507-.635.848-.848a3.59 3.59 0 0 1 1.184-.448 7.004 7.004 0 0 1 1.344-.128c.406 0 .806.043 1.2.128.395.085.747.224 1.056.416.32.192.576.443.768.752.192.299.288.667.288 1.104v4.256Zm-1.824-2.304c-.277.181-.618.293-1.024.336-.405.032-.81.085-1.216.16-.192.032-.378.08-.56.144a1.447 1.447 0 0 0-.48.24c-.138.096-.25.23-.336.4-.074.16-.112.357-.112.592 0 .203.059.373.176.512.118.139.256.25.416.336.171.075.352.128.544.16.203.032.384.048.544.048.203 0 .422-.027.656-.08.235-.053.454-.144.656-.272.214-.128.39-.288.528-.48.139-.203.208-.448.208-.736v-1.36Zm3.387-4.128h1.728v1.216l.032.032a2.99 2.99 0 0 1 1.088-1.072c.448-.267.944-.4 1.488-.4.907 0 1.621.235 2.144.704.523.47.784 1.173.784 2.112V90h-1.824v-5.2c-.021-.65-.16-1.12-.416-1.408-.256-.299-.656-.448-1.2-.448-.309 0-.587.059-.832.176a1.686 1.686 0 0 0-.624.464 2.08 2.08 0 0 0-.4.688c-.096.267-.144.55-.144.848V90h-1.824v-8.272Zm12.969-3.152h2v6.656c0 .384.016.773.048 1.168.042.395.149.752.32 1.072.181.31.448.565.8.768.362.203.869.304 1.52.304.65 0 1.152-.101 1.504-.304.362-.203.629-.459.8-.768.181-.32.288-.677.32-1.072.042-.395.064-.784.064-1.168v-6.656h2v7.312c0 .736-.112 1.376-.336 1.92a3.725 3.725 0 0 1-.96 1.376 3.96 3.96 0 0 1-1.472.816 6.375 6.375 0 0 1-1.92.272c-.704 0-1.344-.09-1.92-.272a4.11 4.11 0 0 1-1.488-.816 3.808 3.808 0 0 1-.944-1.376c-.224-.544-.336-1.184-.336-1.92v-7.312Zm11.018 3.152h1.728v1.216l.032.032c.278-.459.64-.816 1.088-1.072.448-.267.944-.4 1.488-.4.907 0 1.622.235 2.144.704.523.47.784 1.173.784 2.112V90h-1.824v-5.2c-.021-.65-.16-1.12-.416-1.408-.256-.299-.656-.448-1.2-.448-.309 0-.586.059-.832.176a1.686 1.686 0 0 0-.624.464c-.17.192-.304.421-.4.688-.096.267-.144.55-.144.848V90h-1.824v-8.272Zm8.836-3.152h1.824v1.728h-1.824v-1.728Zm0 3.152h1.824V90h-1.824v-8.272Zm7.203 8.496c-.661 0-1.253-.107-1.776-.32a3.972 3.972 0 0 1-1.312-.912 4.029 4.029 0 0 1-.816-1.376 5.448 5.448 0 0 1-.272-1.76c0-.63.091-1.21.272-1.744.192-.533.464-.992.816-1.376.363-.384.8-.683 1.312-.896.523-.224 1.115-.336 1.776-.336.662 0 1.248.112 1.76.336.523.213.96.512 1.312.896.363.384.635.843.816 1.376.192.533.288 1.115.288 1.744 0 .64-.096 1.227-.288 1.76a3.758 3.758 0 0 1-2.128 2.288c-.512.213-1.098.32-1.76.32Zm0-1.44c.406 0 .758-.085 1.056-.256.299-.17.544-.395.736-.672.192-.277.331-.587.416-.928a3.998 3.998 0 0 0 0-2.128 2.624 2.624 0 0 0-.416-.928 2.223 2.223 0 0 0-.736-.672c-.298-.17-.65-.256-1.056-.256-.405 0-.757.085-1.056.256-.298.17-.544.395-.736.672a2.86 2.86 0 0 0-.432.928 4.485 4.485 0 0 0 0 2.128c.096.341.24.65.432.928.192.277.438.501.736.672.299.17.651.256 1.056.256Zm5.293-7.056h1.728v1.216l.032.032a2.99 2.99 0 0 1 1.088-1.072c.448-.267.944-.4 1.488-.4.906 0 1.621.235 2.144.704.522.47.784 1.173.784 2.112V90h-1.824v-5.2c-.022-.65-.16-1.12-.416-1.408-.256-.299-.656-.448-1.2-.448-.31 0-.587.059-.832.176a1.67 1.67 0 0 0-.624.464 2.08 2.08 0 0 0-.4.688c-.096.267-.144.55-.144.848V90h-1.824v-8.272ZM168.012 83.112l5.1-5.1.516.516-5.112 5.1 5.1 5.1-.516.504-5.088-5.088-5.124 5.124-.516-.516 5.124-5.124-5.112-5.112.516-.516 5.112 5.112Z"/><rect width="127" height="40" x="198" y="64" fill="#415385" rx="20"/><path fill="#fff" d="M217.339 78.576h5.04c.811 0 1.472.117 1.984.352s.907.528 1.184.88c.278.352.464.736.56 1.152.107.416.16.8.16 1.152 0 .352-.053.736-.16 1.152a2.896 2.896 0 0 1-.56 1.136c-.277.352-.672.645-1.184.88-.512.224-1.173.336-1.984.336h-3.04V90h-2V78.576Zm2 5.408h2.928c.224 0 .454-.032.688-.096.235-.064.448-.165.64-.304.203-.15.363-.341.48-.576.128-.245.192-.55.192-.912 0-.373-.053-.683-.16-.928a1.406 1.406 0 0 0-.432-.576 1.481 1.481 0 0 0-.624-.304 3.383 3.383 0 0 0-.752-.08h-2.96v3.776Zm14.944 4.176c0 .224.027.384.08.48.064.096.182.144.352.144h.192c.075 0 .16-.01.256-.032v1.264a2.196 2.196 0 0 1-.256.064 2.507 2.507 0 0 1-.304.08 3.285 3.285 0 0 1-.592.064c-.373 0-.682-.075-.928-.224-.245-.15-.405-.41-.48-.784-.362.352-.81.608-1.344.768-.522.16-1.029.24-1.52.24-.373 0-.73-.053-1.072-.16a2.887 2.887 0 0 1-.912-.432 2.38 2.38 0 0 1-.624-.752 2.442 2.442 0 0 1-.224-1.072c0-.512.091-.928.272-1.248.192-.32.438-.57.736-.752.31-.181.651-.31 1.024-.384.384-.085.768-.15 1.152-.192.331-.064.646-.107.944-.128.299-.032.56-.08.784-.144.235-.064.416-.16.544-.288.139-.139.208-.341.208-.608 0-.235-.058-.427-.176-.576a.983.983 0 0 0-.416-.336 1.47 1.47 0 0 0-.544-.16 3.686 3.686 0 0 0-.576-.048c-.512 0-.933.107-1.264.32-.33.213-.517.544-.56.992h-1.824c.032-.533.16-.976.384-1.328.224-.352.507-.635.848-.848a3.593 3.593 0 0 1 1.184-.448 7.015 7.015 0 0 1 1.344-.128c.406 0 .806.043 1.2.128.395.085.747.224 1.056.416.32.192.576.443.768.752.192.299.288.667.288 1.104v4.256Zm-1.824-2.304c-.277.181-.618.293-1.024.336-.405.032-.81.085-1.216.16-.192.032-.378.08-.56.144a1.455 1.455 0 0 0-.48.24 1.05 1.05 0 0 0-.336.4c-.074.16-.112.357-.112.592 0 .203.059.373.176.512.118.139.256.25.416.336.171.075.352.128.544.16.203.032.384.048.544.048.203 0 .422-.027.656-.08.235-.053.454-.144.656-.272.214-.128.39-.288.528-.48a1.27 1.27 0 0 0 .208-.736v-1.36Zm8.971-1.36c-.075-.512-.283-.896-.624-1.152-.331-.267-.752-.4-1.264-.4-.235 0-.485.043-.752.128a1.677 1.677 0 0 0-.736.448c-.224.213-.411.517-.56.912-.149.384-.224.89-.224 1.52 0 .341.037.683.112 1.024.085.341.213.645.384.912.181.267.411.485.688.656.277.16.613.24 1.008.24.533 0 .971-.165 1.312-.496.352-.33.571-.795.656-1.392h1.824c-.171 1.077-.581 1.904-1.232 2.48-.64.565-1.493.848-2.56.848-.651 0-1.227-.107-1.728-.32a3.807 3.807 0 0 1-1.248-.896 3.989 3.989 0 0 1-.784-1.36 5.424 5.424 0 0 1-.256-1.696c0-.619.085-1.2.256-1.744a3.924 3.924 0 0 1 .768-1.408c.341-.405.763-.72 1.264-.944.512-.235 1.109-.352 1.792-.352.48 0 .933.064 1.36.192.437.117.821.299 1.152.544.341.245.619.555.832.928.213.373.341.816.384 1.328h-1.824Zm2.955-5.92h1.824v6.496l3.296-3.344h2.24l-3.168 3.04L252.049 90h-2.224l-2.528-4.016-1.088 1.056V90h-1.824V78.576Zm15.073 9.584c0 .224.027.384.08.48.064.096.182.144.352.144h.192c.075 0 .16-.01.256-.032v1.264a2.196 2.196 0 0 1-.256.064 2.507 2.507 0 0 1-.304.08 3.285 3.285 0 0 1-.592.064c-.373 0-.682-.075-.928-.224-.245-.15-.405-.41-.48-.784-.362.352-.81.608-1.344.768-.522.16-1.029.24-1.52.24-.373 0-.73-.053-1.072-.16a2.887 2.887 0 0 1-.912-.432 2.38 2.38 0 0 1-.624-.752 2.442 2.442 0 0 1-.224-1.072c0-.512.091-.928.272-1.248.192-.32.438-.57.736-.752.31-.181.651-.31 1.024-.384.384-.085.768-.15 1.152-.192.331-.064.646-.107.944-.128.299-.032.56-.08.784-.144.235-.064.416-.16.544-.288.139-.139.208-.341.208-.608 0-.235-.058-.427-.176-.576a.983.983 0 0 0-.416-.336 1.47 1.47 0 0 0-.544-.16 3.686 3.686 0 0 0-.576-.048c-.512 0-.933.107-1.264.32-.33.213-.517.544-.56.992h-1.824c.032-.533.16-.976.384-1.328.224-.352.507-.635.848-.848a3.593 3.593 0 0 1 1.184-.448 7.015 7.015 0 0 1 1.344-.128c.406 0 .806.043 1.2.128.395.085.747.224 1.056.416.32.192.576.443.768.752.192.299.288.667.288 1.104v4.256Zm-1.824-2.304c-.277.181-.618.293-1.024.336-.405.032-.81.085-1.216.16-.192.032-.378.08-.56.144a1.455 1.455 0 0 0-.48.24 1.05 1.05 0 0 0-.336.4c-.074.16-.112.357-.112.592 0 .203.059.373.176.512.118.139.256.25.416.336.171.075.352.128.544.16.203.032.384.048.544.048.203 0 .422-.027.656-.08.235-.053.454-.144.656-.272.214-.128.39-.288.528-.48a1.27 1.27 0 0 0 .208-.736v-1.36Zm11.035 3.712c0 1.248-.352 2.176-1.056 2.784-.693.619-1.696.928-3.008.928-.416 0-.837-.043-1.264-.128-.416-.085-.8-.23-1.152-.432a2.816 2.816 0 0 1-.864-.8c-.235-.33-.373-.736-.416-1.216h1.824c.053.256.144.464.272.624.128.16.277.283.448.368.181.096.379.155.592.176.213.032.437.048.672.048.736 0 1.275-.181 1.616-.544.341-.363.512-.885.512-1.568v-1.264h-.032a2.757 2.757 0 0 1-1.056 1.072 2.769 2.769 0 0 1-1.424.384c-.661 0-1.227-.112-1.696-.336a3.42 3.42 0 0 1-1.152-.944 4.088 4.088 0 0 1-.656-1.392 6.517 6.517 0 0 1-.208-1.68c0-.555.085-1.083.256-1.584.171-.501.416-.939.736-1.312.32-.384.709-.688 1.168-.912a3.63 3.63 0 0 1 1.584-.336 3.11 3.11 0 0 1 1.44.336c.437.213.773.555 1.008 1.024h.032v-1.136h1.824v7.84Zm-4.048-1.008c.405 0 .747-.08 1.024-.24.288-.17.517-.39.688-.656.181-.277.309-.587.384-.928.085-.352.128-.704.128-1.056 0-.352-.043-.693-.128-1.024a2.654 2.654 0 0 0-.4-.88 1.814 1.814 0 0 0-.688-.608c-.277-.15-.613-.224-1.008-.224-.405 0-.747.085-1.024.256a2.03 2.03 0 0 0-.672.672 2.772 2.772 0 0 0-.368.928 4.758 4.758 0 0 0-.112 1.024c0 .341.043.677.128 1.008.085.32.213.608.384.864a2.2 2.2 0 0 0 .672.624c.277.16.608.24.992.24Zm5.532-9.984h1.824v1.728h-1.824v-1.728Zm0 3.152h1.824V90h-1.824v-8.272Zm3.412 0h1.728v1.216l.032.032a2.99 2.99 0 0 1 1.088-1.072c.448-.267.944-.4 1.488-.4.906 0 1.621.235 2.144.704.522.47.784 1.173.784 2.112V90h-1.824v-5.2c-.022-.65-.16-1.12-.416-1.408-.256-.299-.656-.448-1.2-.448-.31 0-.587.059-.832.176a1.67 1.67 0 0 0-.624.464 2.08 2.08 0 0 0-.4.688c-.096.267-.144.55-.144.848V90h-1.824v-8.272ZM290 89.568c0 1.248-.352 2.176-1.056 2.784-.693.619-1.696.928-3.008.928-.416 0-.837-.043-1.264-.128-.416-.085-.8-.23-1.152-.432a2.816 2.816 0 0 1-.864-.8c-.234-.33-.373-.736-.416-1.216h1.824c.054.256.144.464.272.624.128.16.278.283.448.368.182.096.379.155.592.176.214.032.438.048.672.048.736 0 1.275-.181 1.616-.544.342-.363.512-.885.512-1.568v-1.264h-.032a2.757 2.757 0 0 1-1.056 1.072 2.769 2.769 0 0 1-1.424.384c-.661 0-1.226-.112-1.696-.336a3.44 3.44 0 0 1-1.152-.944 4.106 4.106 0 0 1-.656-1.392 6.56 6.56 0 0 1-.208-1.68c0-.555.086-1.083.256-1.584.171-.501.416-.939.736-1.312.32-.384.71-.688 1.168-.912.47-.224.998-.336 1.584-.336a3.11 3.11 0 0 1 1.44.336c.438.213.774.555 1.008 1.024h.032v-1.136H290v7.84Zm-4.048-1.008c.406 0 .747-.08 1.024-.24.288-.17.518-.39.688-.656.182-.277.31-.587.384-.928.086-.352.128-.704.128-1.056 0-.352-.042-.693-.128-1.024a2.634 2.634 0 0 0-.4-.88c-.17-.256-.4-.459-.688-.608-.277-.15-.613-.224-1.008-.224-.405 0-.746.085-1.024.256a2.03 2.03 0 0 0-.672.672c-.17.267-.293.576-.368.928a4.822 4.822 0 0 0-.112 1.024c0 .341.043.677.128 1.008.086.32.214.608.384.864.182.256.406.464.672.624.278.16.608.24.992.24ZM303.012 83.112l5.1-5.1.516.516-5.112 5.1 5.1 5.1-.516.504-5.088-5.088-5.124 5.124-.516-.516 5.124-5.124-5.112-5.112.516-.516 5.112 5.112Z"/><rect width="89" height="40" x="333" y="64" fill="#415385" rx="20"/><path fill="#fff" d="M353.659 86.192c0 .437.075.81.224 1.12.15.31.358.565.624.768.267.192.571.336.912.432.352.085.731.128 1.136.128.438 0 .811-.048 1.12-.144.31-.107.56-.24.752-.4.192-.16.331-.341.416-.544.086-.213.128-.427.128-.64 0-.437-.101-.757-.304-.96a1.593 1.593 0 0 0-.64-.448c-.405-.15-.88-.288-1.424-.416-.533-.139-1.194-.315-1.984-.528-.49-.128-.901-.293-1.232-.496a3.082 3.082 0 0 1-.768-.704 2.586 2.586 0 0 1-.416-.816 3.523 3.523 0 0 1-.112-.88c0-.576.118-1.072.352-1.488.246-.427.566-.779.96-1.056.395-.277.843-.48 1.344-.608a5.68 5.68 0 0 1 1.52-.208c.598 0 1.158.08 1.68.24.534.15.998.379 1.392.688.406.31.726.693.96 1.152.235.448.352.97.352 1.568h-2c-.053-.736-.304-1.253-.752-1.552-.448-.31-1.018-.464-1.712-.464-.234 0-.474.027-.72.08a2.027 2.027 0 0 0-.672.24 1.48 1.48 0 0 0-.512.448c-.128.192-.192.432-.192.72 0 .405.123.725.368.96.256.224.587.395.992.512.043.01.208.059.496.144a71.497 71.497 0 0 1 2.048.544c.352.085.603.15.752.192.374.117.699.277.976.48.278.203.507.437.688.704.192.256.331.533.416.832.096.299.144.597.144.896 0 .64-.133 1.19-.4 1.648a3.271 3.271 0 0 1-1.024 1.104 4.356 4.356 0 0 1-1.456.624 6.705 6.705 0 0 1-1.664.208c-.65 0-1.264-.08-1.84-.24a4.31 4.31 0 0 1-1.504-.736 3.628 3.628 0 0 1-1.024-1.264c-.256-.523-.389-1.136-.4-1.84h2Zm8.407-7.616h1.824v4.24h.032c.224-.373.555-.683.992-.928a2.946 2.946 0 0 1 1.488-.384c.907 0 1.622.235 2.144.704.523.47.784 1.173.784 2.112V90h-1.824v-5.2c-.021-.65-.16-1.12-.416-1.408-.256-.299-.656-.448-1.2-.448-.309 0-.586.059-.832.176a1.686 1.686 0 0 0-.624.464c-.17.192-.304.421-.4.688-.096.267-.144.55-.144.848V90h-1.824V78.576Zm12.58 11.648c-.662 0-1.254-.107-1.776-.32a3.962 3.962 0 0 1-1.312-.912 4.029 4.029 0 0 1-.816-1.376 5.42 5.42 0 0 1-.272-1.76c0-.63.09-1.21.272-1.744.192-.533.464-.992.816-1.376.362-.384.8-.683 1.312-.896.522-.224 1.114-.336 1.776-.336.661 0 1.248.112 1.76.336.522.213.96.512 1.312.896.362.384.634.843.816 1.376.192.533.288 1.115.288 1.744 0 .64-.096 1.227-.288 1.76a3.767 3.767 0 0 1-2.128 2.288c-.512.213-1.099.32-1.76.32Zm0-1.44c.405 0 .757-.085 1.056-.256.298-.17.544-.395.736-.672.192-.277.33-.587.416-.928a3.998 3.998 0 0 0 0-2.128 2.642 2.642 0 0 0-.416-.928 2.233 2.233 0 0 0-.736-.672c-.299-.17-.651-.256-1.056-.256-.406 0-.758.085-1.056.256-.299.17-.544.395-.736.672a2.86 2.86 0 0 0-.432.928 4.5 4.5 0 0 0 0 2.128c.096.341.24.65.432.928.192.277.437.501.736.672.298.17.65.256 1.056.256Zm10.972-3.648a2.76 2.76 0 0 0-.192-.832 1.955 1.955 0 0 0-.416-.688 1.81 1.81 0 0 0-.64-.48 1.772 1.772 0 0 0-.832-.192c-.32 0-.613.059-.88.176-.256.107-.48.261-.672.464a2.396 2.396 0 0 0-.448.688 2.545 2.545 0 0 0-.176.864h4.256Zm-4.256 1.2c0 .32.043.63.128.928.096.299.235.56.416.784.181.224.411.405.688.544.277.128.608.192.992.192.533 0 .96-.112 1.28-.336.331-.235.576-.581.736-1.04h1.728a3.433 3.433 0 0 1-.496 1.2c-.235.352-.517.65-.848.896-.331.235-.704.41-1.12.528a4.224 4.224 0 0 1-1.28.192c-.651 0-1.227-.107-1.728-.32a3.654 3.654 0 0 1-1.28-.896 3.964 3.964 0 0 1-.784-1.376 5.74 5.74 0 0 1-.256-1.76c0-.587.091-1.141.272-1.664a4.37 4.37 0 0 1 .8-1.392 3.86 3.86 0 0 1 1.264-.96c.491-.235 1.045-.352 1.664-.352.651 0 1.232.139 1.744.416.523.267.955.624 1.296 1.072.341.448.587.965.736 1.552.16.576.203 1.173.128 1.792h-6.08ZM400.012 83.112l5.1-5.1.516.516-5.112 5.1 5.1 5.1-.516.504-5.088-5.088-5.124 5.124-.516-.516 5.124-5.124-5.112-5.112.516-.516 5.112 5.112Z"/></g><g fill="#111" opacity=".2"><path d="M600.164 39.152h1.96c.317 0 .625-.051.924-.154.299-.103.565-.27.798-.504.233-.243.42-.555.56-.938.14-.383.21-.85.21-1.4 0-.504-.051-.957-.154-1.358a2.643 2.643 0 0 0-.476-1.05 2.085 2.085 0 0 0-.896-.658c-.364-.159-.817-.238-1.358-.238h-1.568v6.3Zm-2.198-8.148h4.312c.644 0 1.241.103 1.792.308.56.205 1.041.513 1.442.924.411.41.728.924.952 1.54.233.616.35 1.34.35 2.17 0 .728-.093 1.4-.28 2.016a4.378 4.378 0 0 1-.854 1.596 3.958 3.958 0 0 1-1.414 1.064c-.56.252-1.223.378-1.988.378h-4.312v-9.996Zm12.211 1.638h-1.988v-1.638h1.988v1.638Zm-1.988 1.12h1.988V41h-1.988v-7.238Zm5.093 4.886c0 .215.042.401.126.56.094.15.21.275.35.378.14.093.299.163.476.21a2.358 2.358 0 0 0 1.008.028c.159-.037.299-.089.42-.154a1.04 1.04 0 0 0 .322-.28.768.768 0 0 0 .126-.448c0-.299-.2-.523-.602-.672-.392-.15-.942-.299-1.652-.448-.289-.065-.574-.14-.854-.224a3.31 3.31 0 0 1-.728-.35 1.814 1.814 0 0 1-.518-.546 1.592 1.592 0 0 1-.196-.812c0-.467.089-.85.266-1.148.187-.299.43-.532.728-.7a2.957 2.957 0 0 1 1.008-.364 5.842 5.842 0 0 1 2.282 0c.374.075.705.2.994.378.29.177.528.415.714.714.196.29.313.658.35 1.106h-1.89c-.028-.383-.172-.64-.434-.77a1.927 1.927 0 0 0-.924-.21c-.112 0-.233.01-.364.028-.13.01-.252.037-.364.084a.728.728 0 0 0-.266.21.512.512 0 0 0-.112.35c0 .177.066.322.196.434.131.112.299.205.504.28.215.065.458.126.728.182.271.056.546.117.826.182.29.065.57.145.84.238.28.093.528.22.742.378.215.15.388.34.518.574.131.224.196.504.196.84 0 .476-.098.877-.294 1.204a2.248 2.248 0 0 1-.742.77 2.97 2.97 0 0 1-1.064.406 6.002 6.002 0 0 1-2.436 0 3.34 3.34 0 0 1-1.078-.42 2.533 2.533 0 0 1-.77-.77c-.196-.327-.303-.733-.322-1.218h1.89Zm10.908-2.338c-.131-.83-.621-1.246-1.47-1.246-.317 0-.583.075-.798.224-.215.14-.392.327-.532.56a2.428 2.428 0 0 0-.28.756 3.932 3.932 0 0 0 0 1.61c.056.27.145.518.266.742.131.215.303.392.518.532.215.14.476.21.784.21.476 0 .84-.13 1.092-.392.261-.27.425-.63.49-1.078h1.918c-.131.961-.504 1.694-1.12 2.198-.616.504-1.405.756-2.366.756a4.11 4.11 0 0 1-1.498-.266 3.4 3.4 0 0 1-1.148-.77 3.49 3.49 0 0 1-.742-1.162 4.116 4.116 0 0 1-.266-1.498c0-.56.079-1.078.238-1.554.168-.485.411-.9.728-1.246.317-.355.705-.63 1.162-.826.457-.196.98-.294 1.568-.294.429 0 .84.056 1.232.168.401.112.756.285 1.064.518.317.224.574.509.77.854.196.336.308.737.336 1.204h-1.946Zm3.167-5.306h1.988V41h-1.988v-9.996Zm3.469 4.984c.028-.467.145-.854.35-1.162.206-.308.467-.555.784-.742a3.303 3.303 0 0 1 1.064-.392 5.87 5.87 0 0 1 1.204-.126c.364 0 .733.028 1.106.084.374.047.714.145 1.022.294.308.15.56.36.756.63.196.261.294.611.294 1.05v3.766c0 .327.019.64.056.938.038.299.103.523.196.672h-2.016a4.728 4.728 0 0 1-.098-.336 5.633 5.633 0 0 1-.042-.364c-.317.327-.69.555-1.12.686-.429.13-.868.196-1.316.196-.345 0-.667-.042-.966-.126a2.218 2.218 0 0 1-.784-.392 1.895 1.895 0 0 1-.532-.672 2.353 2.353 0 0 1-.182-.966c0-.41.07-.747.21-1.008a1.9 1.9 0 0 1 .56-.644c.234-.159.495-.275.784-.35.299-.084.598-.15.896-.196.299-.047.593-.084.882-.112.29-.028.546-.07.77-.126.224-.056.402-.135.532-.238.131-.112.192-.27.182-.476 0-.215-.037-.383-.112-.504a.652.652 0 0 0-.28-.294.912.912 0 0 0-.406-.14 2.656 2.656 0 0 0-.49-.042c-.392 0-.7.084-.924.252-.224.168-.354.448-.392.84h-1.988Zm4.592 1.47a.966.966 0 0 1-.322.182 5.652 5.652 0 0 1-.854.168 8.522 8.522 0 0 0-.476.07 3.974 3.974 0 0 0-.448.112c-.14.047-.266.112-.378.196a.877.877 0 0 0-.252.294.972.972 0 0 0-.098.462.94.94 0 0 0 .098.448c.066.121.154.22.266.294.112.065.243.112.392.14.15.028.304.042.462.042.392 0 .696-.065.91-.196.215-.13.374-.285.476-.462.103-.187.164-.373.182-.56a3.18 3.18 0 0 0 .042-.448v-.742Zm5.575-4.816h-1.988v-1.638h1.988v1.638Zm-1.988 1.12h1.988V41h-1.988v-7.238Zm3.61 0h1.876v.98h.028c.261-.373.574-.663.938-.868a2.599 2.599 0 0 1 1.274-.308c.457 0 .872.089 1.246.266.382.177.672.49.868.938.214-.317.504-.597.868-.84.373-.243.812-.364 1.316-.364.382 0 .737.047 1.064.14.326.093.606.243.84.448.233.205.415.476.546.812.13.327.196.723.196 1.19V41h-1.988v-4.102c0-.243-.01-.471-.028-.686a1.462 1.462 0 0 0-.154-.56.921.921 0 0 0-.378-.378c-.159-.093-.378-.14-.658-.14s-.509.056-.686.168a1.164 1.164 0 0 0-.406.42 1.794 1.794 0 0 0-.196.588 5.083 5.083 0 0 0-.042.658V41h-1.988v-4.06c0-.215-.005-.425-.014-.63a1.724 1.724 0 0 0-.126-.588.814.814 0 0 0-.35-.42c-.159-.112-.397-.168-.714-.168-.094 0-.22.023-.378.07a1.16 1.16 0 0 0-.448.238c-.14.112-.262.28-.364.504-.103.215-.154.5-.154.854V41h-1.988v-7.238Zm17.503 2.842c-.093-.504-.261-.887-.504-1.148-.233-.261-.592-.392-1.078-.392-.317 0-.583.056-.798.168a1.532 1.532 0 0 0-.504.392c-.121.159-.21.327-.266.504a2.682 2.682 0 0 0-.084.476h3.234Zm-3.234 1.26c.028.644.192 1.11.49 1.4.299.29.728.434 1.288.434.402 0 .747-.098 1.036-.294.29-.205.467-.42.532-.644h1.75c-.28.868-.709 1.489-1.288 1.862-.578.373-1.278.56-2.1.56a4.235 4.235 0 0 1-1.54-.266 3.287 3.287 0 0 1-1.162-.784 3.6 3.6 0 0 1-.742-1.204 4.518 4.518 0 0 1-.252-1.54c0-.541.089-1.045.266-1.512.178-.467.43-.868.756-1.204a3.53 3.53 0 0 1 1.162-.812 3.804 3.804 0 0 1 1.512-.294c.616 0 1.153.121 1.61.364.458.233.831.55 1.12.952.299.401.514.859.644 1.372a5.08 5.08 0 0 1 .14 1.61h-5.222Zm6.401-4.102h1.89v1.344h.028c.094-.224.22-.43.378-.616.159-.196.341-.36.546-.49a2.55 2.55 0 0 1 .658-.322c.234-.075.476-.112.728-.112.131 0 .276.023.434.07v1.848a2.707 2.707 0 0 0-.336-.042 2.654 2.654 0 0 0-.378-.028c-.364 0-.672.06-.924.182-.252.121-.457.29-.616.504a2.008 2.008 0 0 0-.322.728 4.02 4.02 0 0 0-.098.91V41h-1.988v-7.238Zm7.738 2.282h-2.198v-2.156h2.198v2.156Zm-2.198 2.8h2.198V41h-2.198v-2.156Zm16.011-1.456c0 1.279-.341 2.24-1.022 2.884-.682.635-1.652.952-2.912.952-1.288 0-2.296-.303-3.024-.91-.719-.616-1.078-1.591-1.078-2.926v-6.384h1.33v6.384c0 .896.238 1.577.714 2.044.476.457 1.162.686 2.058.686.849 0 1.493-.229 1.932-.686.448-.467.672-1.148.672-2.044v-6.384h1.33v6.384Zm2.655 1.33c.01.261.07.485.182.672.112.177.257.322.434.434.187.103.392.177.616.224.234.047.472.07.714.07.187 0 .383-.014.588-.042.206-.028.392-.08.56-.154.178-.075.322-.182.434-.322a.907.907 0 0 0 .168-.56c0-.308-.116-.541-.35-.7a2.845 2.845 0 0 0-.882-.378 10.676 10.676 0 0 0-1.134-.266 6.902 6.902 0 0 1-1.148-.336 2.456 2.456 0 0 1-.868-.616c-.233-.261-.35-.625-.35-1.092 0-.364.08-.677.238-.938a2.03 2.03 0 0 1 .63-.63c.262-.168.551-.29.868-.364.327-.084.649-.126.966-.126.411 0 .789.037 1.134.112.346.065.649.187.91.364.271.168.486.401.644.7.159.29.252.653.28 1.092h-1.19a1.15 1.15 0 0 0-.182-.574 1.157 1.157 0 0 0-.392-.378 1.643 1.643 0 0 0-.532-.196 2.352 2.352 0 0 0-.574-.07c-.177 0-.359.014-.546.042a1.68 1.68 0 0 0-.49.154.917.917 0 0 0-.364.28.68.68 0 0 0-.14.448c0 .205.07.378.21.518.15.13.336.243.56.336.224.084.476.159.756.224.28.056.56.117.84.182.299.065.588.145.868.238.29.093.542.22.756.378.224.15.402.34.532.574.14.233.21.523.21.868 0 .439-.093.803-.28 1.092-.177.29-.415.523-.714.7-.289.177-.62.299-.994.364a5.42 5.42 0 0 1-1.092.112c-.401 0-.784-.042-1.148-.126a2.899 2.899 0 0 1-.966-.406 2.186 2.186 0 0 1-.672-.756c-.168-.317-.261-.7-.28-1.148h1.19Zm11.298-2.03a2.316 2.316 0 0 0-.196-.798 1.812 1.812 0 0 0-.434-.644 1.822 1.822 0 0 0-.644-.434 1.912 1.912 0 0 0-.812-.168c-.308 0-.588.056-.84.168a1.87 1.87 0 0 0-.63.434 2.1 2.1 0 0 0-.42.658 2.435 2.435 0 0 0-.182.784h4.158Zm1.148 2.016c-.158.812-.508 1.423-1.05 1.834-.541.41-1.222.616-2.044.616-.578 0-1.082-.093-1.512-.28a2.988 2.988 0 0 1-1.064-.784 3.43 3.43 0 0 1-.658-1.204 6.02 6.02 0 0 1-.238-1.526c0-.55.084-1.055.252-1.512.168-.457.402-.854.7-1.19a3.31 3.31 0 0 1 1.078-.784c.42-.187.878-.28 1.372-.28.644 0 1.176.135 1.596.406.43.261.77.597 1.022 1.008.262.41.439.859.532 1.344.103.485.145.947.126 1.386h-5.418c-.009.317.028.62.112.91.084.28.22.532.406.756.187.215.425.387.714.518.29.13.63.196 1.022.196.504 0 .915-.117 1.232-.35.327-.233.542-.588.644-1.064h1.176Zm1.304-4.942h1.12v1.526h.028c.289-.588.644-1.022 1.064-1.302.42-.28.952-.41 1.596-.392v1.26c-.476 0-.882.065-1.218.196-.336.13-.607.322-.812.574a2.36 2.36 0 0 0-.448.924c-.094.355-.14.765-.14 1.232V41h-1.19v-7.238Zm5.432 4.956c.009.261.07.485.182.672.112.177.256.322.434.434.186.103.392.177.616.224.233.047.471.07.714.07.186 0 .382-.014.588-.042.205-.028.392-.08.56-.154.177-.075.322-.182.434-.322a.907.907 0 0 0 .168-.56c0-.308-.117-.541-.35-.7a2.866 2.866 0 0 0-.882-.378 10.793 10.793 0 0 0-1.134-.266 6.846 6.846 0 0 1-1.148-.336 2.438 2.438 0 0 1-.868-.616c-.234-.261-.35-.625-.35-1.092 0-.364.079-.677.238-.938a2.03 2.03 0 0 1 .63-.63c.261-.168.55-.29.868-.364a3.86 3.86 0 0 1 .966-.126c.41 0 .788.037 1.134.112.345.065.648.187.91.364.27.168.485.401.644.7.158.29.252.653.28 1.092h-1.19a1.17 1.17 0 0 0-.574-.952 1.651 1.651 0 0 0-.532-.196 2.358 2.358 0 0 0-.574-.07c-.178 0-.36.014-.546.042a1.66 1.66 0 0 0-.49.154.903.903 0 0 0-.364.28.674.674 0 0 0-.14.448c0 .205.07.378.21.518.149.13.336.243.56.336.224.084.476.159.756.224.28.056.56.117.84.182.298.065.588.145.868.238.289.093.541.22.756.378.224.15.401.34.532.574.14.233.21.523.21.868 0 .439-.094.803-.28 1.092-.178.29-.416.523-.714.7-.29.177-.621.299-.994.364a5.42 5.42 0 0 1-1.092.112c-.402 0-.784-.042-1.148-.126a2.899 2.899 0 0 1-.966-.406 2.186 2.186 0 0 1-.672-.756c-.168-.317-.262-.7-.28-1.148h1.19Zm16.58 2.254c-.205.121-.49.182-.854.182-.308 0-.555-.084-.742-.252-.177-.177-.266-.462-.266-.854a2.89 2.89 0 0 1-1.148.854 3.807 3.807 0 0 1-1.4.252c-.326 0-.639-.037-.938-.112a2.174 2.174 0 0 1-.756-.35 1.77 1.77 0 0 1-.518-.616 2.218 2.218 0 0 1-.182-.938c0-.41.07-.747.21-1.008.14-.261.322-.471.546-.63.234-.168.495-.294.784-.378.299-.084.602-.154.91-.21a9.33 9.33 0 0 1 .924-.14c.299-.037.56-.084.784-.14.224-.065.402-.154.532-.266.131-.121.196-.294.196-.518 0-.261-.051-.471-.154-.63a.94.94 0 0 0-.378-.364 1.47 1.47 0 0 0-.518-.168 3.76 3.76 0 0 0-.56-.042c-.504 0-.924.098-1.26.294-.336.187-.518.546-.546 1.078h-1.19c.019-.448.112-.826.28-1.134.168-.308.392-.555.672-.742.28-.196.598-.336.952-.42a5.161 5.161 0 0 1 1.162-.126c.327 0 .649.023.966.07.327.047.621.145.882.294.262.14.472.34.63.602.159.261.238.602.238 1.022v3.724c0 .28.014.485.042.616.038.13.15.196.336.196.103 0 .224-.023.364-.07v.924Zm-1.932-3.71a1.55 1.55 0 0 1-.588.252 14.53 14.53 0 0 1-.77.126c-.261.028-.527.065-.798.112a2.78 2.78 0 0 0-.728.196 1.358 1.358 0 0 0-.532.406c-.13.168-.196.401-.196.7 0 .196.038.364.112.504.084.13.187.238.308.322.131.084.28.145.448.182.168.037.346.056.532.056.392 0 .728-.051 1.008-.154.28-.112.509-.247.686-.406a1.69 1.69 0 0 0 .392-.532c.084-.196.126-.378.126-.546v-1.218Zm3.908.182c0 .336.042.667.126.994.093.317.229.602.406.854.187.252.42.453.7.602.289.15.625.224 1.008.224.401 0 .742-.08 1.022-.238.28-.159.509-.364.686-.616a2.59 2.59 0 0 0 .378-.882 4.088 4.088 0 0 0 0-2.016 2.465 2.465 0 0 0-.406-.882 1.91 1.91 0 0 0-.7-.602c-.289-.159-.639-.238-1.05-.238-.401 0-.742.08-1.022.238-.28.159-.504.369-.672.63-.168.261-.289.56-.364.896a4.74 4.74 0 0 0-.112 1.036Zm5.6 3.556h-1.19v-.98h-.028c-.196.401-.504.69-.924.868-.42.177-.882.266-1.386.266-.56 0-1.05-.103-1.47-.308a3.097 3.097 0 0 1-1.036-.826 3.667 3.667 0 0 1-.616-1.204 4.948 4.948 0 0 1-.21-1.456c0-.513.065-.999.196-1.456.14-.457.345-.854.616-1.19a2.95 2.95 0 0 1 1.036-.812c.42-.205.905-.308 1.456-.308.187 0 .387.019.602.056.215.037.429.103.644.196.215.084.415.2.602.35.196.14.359.317.49.532h.028v-3.724h1.19V41Zm5.093 0h-1.274l-2.688-7.238h1.33l2.03 6.034h.028l1.974-6.034h1.246L735.922 41Zm4.998-8.54h-1.19v-1.456h1.19v1.456Zm-1.19 1.302h1.19V41h-1.19v-7.238Zm3.761 4.956c.01.261.07.485.182.672.112.177.257.322.434.434.187.103.392.177.616.224.234.047.472.07.714.07.187 0 .383-.014.588-.042.206-.028.392-.08.56-.154.178-.075.322-.182.434-.322a.907.907 0 0 0 .168-.56c0-.308-.116-.541-.35-.7a2.845 2.845 0 0 0-.882-.378 10.676 10.676 0 0 0-1.134-.266 6.902 6.902 0 0 1-1.148-.336 2.456 2.456 0 0 1-.868-.616c-.233-.261-.35-.625-.35-1.092 0-.364.08-.677.238-.938a2.03 2.03 0 0 1 .63-.63c.262-.168.551-.29.868-.364.327-.084.649-.126.966-.126.411 0 .789.037 1.134.112.346.065.649.187.91.364.271.168.486.401.644.7.159.29.252.653.28 1.092h-1.19a1.15 1.15 0 0 0-.182-.574 1.157 1.157 0 0 0-.392-.378 1.643 1.643 0 0 0-.532-.196 2.352 2.352 0 0 0-.574-.07c-.177 0-.359.014-.546.042a1.68 1.68 0 0 0-.49.154.917.917 0 0 0-.364.28.68.68 0 0 0-.14.448c0 .205.07.378.21.518.15.13.336.243.56.336.224.084.476.159.756.224.28.056.56.117.84.182.299.065.588.145.868.238.29.093.542.22.756.378.224.15.402.34.532.574.14.233.21.523.21.868 0 .439-.093.803-.28 1.092-.177.29-.415.523-.714.7-.289.177-.62.299-.994.364a5.42 5.42 0 0 1-1.092.112c-.401 0-.784-.042-1.148-.126a2.899 2.899 0 0 1-.966-.406 2.186 2.186 0 0 1-.672-.756c-.168-.317-.261-.7-.28-1.148h1.19Zm11.298-2.03a2.316 2.316 0 0 0-.196-.798 1.812 1.812 0 0 0-.434-.644 1.822 1.822 0 0 0-.644-.434 1.912 1.912 0 0 0-.812-.168c-.308 0-.588.056-.84.168a1.87 1.87 0 0 0-.63.434 2.1 2.1 0 0 0-.42.658 2.435 2.435 0 0 0-.182.784h4.158Zm1.148 2.016c-.158.812-.508 1.423-1.05 1.834-.541.41-1.222.616-2.044.616-.578 0-1.082-.093-1.512-.28a2.988 2.988 0 0 1-1.064-.784 3.43 3.43 0 0 1-.658-1.204 6.02 6.02 0 0 1-.238-1.526c0-.55.084-1.055.252-1.512.168-.457.402-.854.7-1.19a3.31 3.31 0 0 1 1.078-.784c.42-.187.878-.28 1.372-.28.644 0 1.176.135 1.596.406.43.261.77.597 1.022 1.008.262.41.439.859.532 1.344.103.485.145.947.126 1.386h-5.418c-.009.317.028.62.112.91.084.28.22.532.406.756.187.215.425.387.714.518.29.13.63.196 1.022.196.504 0 .915-.117 1.232-.35.327-.233.542-.588.644-1.064h1.176Zm2.214-1.26c0 .336.042.667.126.994.093.317.228.602.406.854.186.252.42.453.7.602.289.15.625.224 1.008.224.401 0 .742-.08 1.022-.238.28-.159.508-.364.686-.616a2.59 2.59 0 0 0 .378-.882 4.088 4.088 0 0 0 0-2.016 2.482 2.482 0 0 0-.406-.882 1.919 1.919 0 0 0-.7-.602c-.29-.159-.64-.238-1.05-.238-.402 0-.742.08-1.022.238-.28.159-.504.369-.672.63-.168.261-.29.56-.364.896a4.74 4.74 0 0 0-.112 1.036Zm5.6 3.556h-1.19v-.98h-.028c-.196.401-.504.69-.924.868-.42.177-.882.266-1.386.266-.56 0-1.05-.103-1.47-.308a3.097 3.097 0 0 1-1.036-.826 3.667 3.667 0 0 1-.616-1.204 4.948 4.948 0 0 1-.21-1.456c0-.513.065-.999.196-1.456.14-.457.345-.854.616-1.19a2.95 2.95 0 0 1 1.036-.812c.42-.205.905-.308 1.456-.308.186 0 .387.019.602.056.214.037.429.103.644.196.214.084.415.2.602.35.196.14.359.317.49.532h.028v-3.724h1.19V41Zm7.379-7.238h1.442v1.05h-1.442v4.494c0 .14.009.252.028.336.028.084.075.15.14.196.065.047.154.08.266.098.121.01.275.014.462.014h.546V41h-.91a4.93 4.93 0 0 1-.798-.056 1.268 1.268 0 0 1-.532-.238 1.008 1.008 0 0 1-.294-.476c-.065-.205-.098-.476-.098-.812v-4.606h-1.232v-1.05h1.232v-2.17h1.19v2.17Zm3.632 3.626c0 .439.056.83.168 1.176.121.336.285.62.49.854.205.224.443.397.714.518a2.196 2.196 0 0 0 1.75 0c.28-.121.523-.294.728-.518a2.45 2.45 0 0 0 .476-.854c.121-.345.182-.737.182-1.176a3.42 3.42 0 0 0-.182-1.162 2.434 2.434 0 0 0-.476-.868 2.037 2.037 0 0 0-.728-.532 2.196 2.196 0 0 0-1.75 0 2.069 2.069 0 0 0-.714.532 2.603 2.603 0 0 0-.49.868 3.673 3.673 0 0 0-.168 1.162Zm-1.26 0c0-.532.075-1.027.224-1.484a3.29 3.29 0 0 1 .672-1.204 3.126 3.126 0 0 1 1.106-.812c.439-.196.943-.294 1.512-.294.579 0 1.083.098 1.512.294.439.196.807.467 1.106.812.299.336.523.737.672 1.204.149.457.224.952.224 1.484s-.075 1.027-.224 1.484a3.45 3.45 0 0 1-.672 1.204 3.208 3.208 0 0 1-1.106.798c-.429.187-.933.28-1.512.28-.569 0-1.073-.093-1.512-.28a3.208 3.208 0 0 1-1.106-.798 3.45 3.45 0 0 1-.672-1.204 4.764 4.764 0 0 1-.224-1.484ZM789.092 41h-1.274l-2.688-7.238h1.33l2.03 6.034h.028l1.974-6.034h1.246L789.092 41Zm8.764-4.312a2.339 2.339 0 0 0-.196-.798 1.838 1.838 0 0 0-.434-.644 1.831 1.831 0 0 0-.644-.434 1.918 1.918 0 0 0-.812-.168c-.308 0-.588.056-.84.168a1.85 1.85 0 0 0-.63.434 2.066 2.066 0 0 0-.42.658 2.383 2.383 0 0 0-.182.784h4.158Zm1.148 2.016c-.159.812-.509 1.423-1.05 1.834-.542.41-1.223.616-2.044.616-.579 0-1.083-.093-1.512-.28a2.979 2.979 0 0 1-1.064-.784 3.4 3.4 0 0 1-.658-1.204 5.976 5.976 0 0 1-.238-1.526c0-.55.084-1.055.252-1.512.168-.457.401-.854.7-1.19a3.3 3.3 0 0 1 1.078-.784c.42-.187.877-.28 1.372-.28.644 0 1.176.135 1.596.406.429.261.77.597 1.022 1.008.261.41.438.859.532 1.344.102.485.144.947.126 1.386h-5.418c-.01.317.028.62.112.91.084.28.219.532.406.756.186.215.424.387.714.518.289.13.63.196 1.022.196.504 0 .914-.117 1.232-.35.326-.233.541-.588.644-1.064h1.176Zm1.303-4.942h1.12v1.526h.028c.289-.588.644-1.022 1.064-1.302.42-.28.952-.41 1.596-.392v1.26c-.476 0-.882.065-1.218.196-.336.13-.607.322-.812.574-.205.252-.355.56-.448.924a4.88 4.88 0 0 0-.14 1.232V41h-1.19v-7.238Zm5.964-1.302h-1.19v-1.456h1.19v1.456Zm-1.19 1.302h1.19V41h-1.19v-7.238Zm3.524 1.05h-1.218v-1.05h1.218v-1.078c0-.588.168-1.031.504-1.33.345-.308.844-.462 1.498-.462a2.882 2.882 0 0 1 .77.112v1.036a1.268 1.268 0 0 0-.336-.07 2.23 2.23 0 0 0-.336-.028c-.29 0-.514.056-.672.168-.159.112-.238.327-.238.644v1.008h1.4v1.05h-1.4V41h-1.19v-6.188Zm6.494 7.154c-.14.355-.28.653-.42.896-.13.243-.28.439-.448.588-.158.159-.34.27-.546.336a1.919 1.919 0 0 1-.686.112c-.14 0-.28-.01-.42-.028a1.988 1.988 0 0 1-.406-.098V42.68c.103.047.22.084.35.112.14.037.257.056.35.056a.96.96 0 0 0 .602-.182 1.01 1.01 0 0 0 .378-.49l.49-1.218-2.87-7.196h1.344l2.114 5.922h.028l2.03-5.922h1.26l-3.15 8.204Zm14.467-.994c-.206.121-.49.182-.854.182-.308 0-.556-.084-.742-.252-.178-.177-.266-.462-.266-.854-.327.392-.71.677-1.148.854-.43.168-.896.252-1.4.252-.327 0-.64-.037-.938-.112a2.157 2.157 0 0 1-.756-.35 1.749 1.749 0 0 1-.518-.616c-.122-.261-.182-.574-.182-.938 0-.41.07-.747.21-1.008.14-.261.322-.471.546-.63.233-.168.494-.294.784-.378a9.85 9.85 0 0 1 .91-.21c.326-.065.634-.112.924-.14.298-.037.56-.084.784-.14.224-.065.401-.154.532-.266.13-.121.196-.294.196-.518 0-.261-.052-.471-.154-.63a.953.953 0 0 0-.378-.364 1.476 1.476 0 0 0-.518-.168 3.78 3.78 0 0 0-.56-.042c-.504 0-.924.098-1.26.294-.336.187-.518.546-.546 1.078h-1.19c.018-.448.112-.826.28-1.134.168-.308.392-.555.672-.742.28-.196.597-.336.952-.42a5.155 5.155 0 0 1 1.162-.126c.326 0 .648.023.966.07.326.047.62.145.882.294.261.14.471.34.63.602.158.261.238.602.238 1.022v3.724c0 .28.014.485.042.616.037.13.149.196.336.196.102 0 .224-.023.364-.07v.924Zm-1.932-3.71c-.15.112-.346.196-.588.252-.243.047-.5.089-.77.126-.262.028-.528.065-.798.112a2.759 2.759 0 0 0-.728.196 1.35 1.35 0 0 0-.532.406c-.131.168-.196.401-.196.7 0 .196.037.364.112.504.084.13.186.238.308.322.13.084.28.145.448.182.168.037.345.056.532.056.392 0 .728-.051 1.008-.154.28-.112.508-.247.686-.406.177-.168.308-.345.392-.532.084-.196.126-.378.126-.546v-1.218Zm3.039-3.5h1.12v1.148h.028c.495-.877 1.279-1.316 2.352-1.316.476 0 .873.065 1.19.196.318.13.574.313.77.546.196.233.332.513.406.84.084.317.126.672.126 1.064V41h-1.19v-4.9c0-.448-.13-.803-.392-1.064-.261-.261-.62-.392-1.078-.392a2.48 2.48 0 0 0-.952.168c-.261.112-.48.27-.658.476a2.147 2.147 0 0 0-.406.728c-.084.27-.126.57-.126.896V41h-1.19v-7.238Zm8.648 3.682c0 .336.042.667.126.994.093.317.228.602.406.854.186.252.42.453.7.602.289.15.625.224 1.008.224.401 0 .742-.08 1.022-.238.28-.159.508-.364.686-.616a2.59 2.59 0 0 0 .378-.882 4.088 4.088 0 0 0 0-2.016 2.482 2.482 0 0 0-.406-.882 1.919 1.919 0 0 0-.7-.602c-.29-.159-.64-.238-1.05-.238-.402 0-.742.08-1.022.238-.28.159-.504.369-.672.63-.168.261-.29.56-.364.896a4.74 4.74 0 0 0-.112 1.036Zm5.6 3.556h-1.19v-.98h-.028c-.196.401-.504.69-.924.868-.42.177-.882.266-1.386.266-.56 0-1.05-.103-1.47-.308a3.097 3.097 0 0 1-1.036-.826 3.667 3.667 0 0 1-.616-1.204 4.948 4.948 0 0 1-.21-1.456c0-.513.065-.999.196-1.456.14-.457.345-.854.616-1.19a2.95 2.95 0 0 1 1.036-.812c.42-.205.905-.308 1.456-.308.186 0 .387.019.602.056.214.037.429.103.644.196.214.084.415.2.602.35.196.14.359.317.49.532h.028v-3.724h1.19V41Zm10.641-4.914c-.093-.457-.289-.812-.588-1.064s-.7-.378-1.204-.378c-.429 0-.789.08-1.078.238a1.984 1.984 0 0 0-.7.63 2.743 2.743 0 0 0-.364.91 4.807 4.807 0 0 0-.112 1.05c0 .336.037.663.112.98.084.317.21.602.378.854.168.243.387.439.658.588.271.15.593.224.966.224.588 0 1.045-.154 1.372-.462.336-.308.541-.742.616-1.302h1.218c-.131.896-.467 1.587-1.008 2.072-.532.485-1.26.728-2.184.728-.551 0-1.041-.089-1.47-.266a2.91 2.91 0 0 1-1.064-.756 3.424 3.424 0 0 1-.644-1.162 5.097 5.097 0 0 1-.21-1.498c0-.541.07-1.045.21-1.512.14-.476.35-.887.63-1.232.289-.355.649-.63 1.078-.826.429-.205.929-.308 1.498-.308.411 0 .793.051 1.148.154.364.093.681.243.952.448.28.205.509.467.686.784.177.308.289.677.336 1.106h-1.232Zm2.563-2.324h1.12v1.526h.028c.29-.588.644-1.022 1.064-1.302.42-.28.952-.41 1.596-.392v1.26c-.476 0-.882.065-1.218.196-.336.13-.606.322-.812.574-.205.252-.354.56-.448.924a4.88 4.88 0 0 0-.14 1.232V41h-1.19v-7.238Zm5.327 3.626c0 .439.056.83.168 1.176.121.336.284.62.49.854.205.224.443.397.714.518a2.196 2.196 0 0 0 1.75 0c.28-.121.522-.294.728-.518a2.45 2.45 0 0 0 .476-.854c.121-.345.182-.737.182-1.176a3.42 3.42 0 0 0-.182-1.162 2.434 2.434 0 0 0-.476-.868 2.046 2.046 0 0 0-.728-.532 2.196 2.196 0 0 0-1.75 0 2.069 2.069 0 0 0-.714.532 2.585 2.585 0 0 0-.49.868 3.673 3.673 0 0 0-.168 1.162Zm-1.26 0c0-.532.074-1.027.224-1.484a3.29 3.29 0 0 1 .672-1.204 3.117 3.117 0 0 1 1.106-.812c.438-.196.942-.294 1.512-.294.578 0 1.082.098 1.512.294.438.196.807.467 1.106.812.298.336.522.737.672 1.204.149.457.224.952.224 1.484s-.075 1.027-.224 1.484c-.15.457-.374.859-.672 1.204a3.217 3.217 0 0 1-1.106.798c-.43.187-.934.28-1.512.28-.57 0-1.074-.093-1.512-.28a3.199 3.199 0 0 1-1.106-.798 3.45 3.45 0 0 1-.672-1.204 4.735 4.735 0 0 1-.224-1.484Zm9.159 1.33c.009.261.07.485.182.672.112.177.256.322.434.434.186.103.392.177.616.224.233.047.471.07.714.07.186 0 .382-.014.588-.042.205-.028.392-.08.56-.154.177-.075.322-.182.434-.322a.907.907 0 0 0 .168-.56c0-.308-.117-.541-.35-.7a2.866 2.866 0 0 0-.882-.378 10.793 10.793 0 0 0-1.134-.266 6.846 6.846 0 0 1-1.148-.336 2.438 2.438 0 0 1-.868-.616c-.234-.261-.35-.625-.35-1.092 0-.364.079-.677.238-.938a2.03 2.03 0 0 1 .63-.63c.261-.168.55-.29.868-.364a3.86 3.86 0 0 1 .966-.126c.41 0 .788.037 1.134.112.345.065.648.187.91.364.27.168.485.401.644.7.158.29.252.653.28 1.092h-1.19a1.17 1.17 0 0 0-.574-.952 1.651 1.651 0 0 0-.532-.196 2.358 2.358 0 0 0-.574-.07c-.178 0-.36.014-.546.042a1.66 1.66 0 0 0-.49.154.903.903 0 0 0-.364.28.674.674 0 0 0-.14.448c0 .205.07.378.21.518.149.13.336.243.56.336.224.084.476.159.756.224.28.056.56.117.84.182.298.065.588.145.868.238.289.093.541.22.756.378.224.15.401.34.532.574.14.233.21.523.21.868 0 .439-.094.803-.28 1.092-.178.29-.416.523-.714.7-.29.177-.621.299-.994.364a5.42 5.42 0 0 1-1.092.112c-.402 0-.784-.042-1.148-.126a2.899 2.899 0 0 1-.966-.406 2.186 2.186 0 0 1-.672-.756c-.168-.317-.262-.7-.28-1.148h1.19Zm7 0c.009.261.07.485.182.672.112.177.256.322.434.434.186.103.392.177.616.224.233.047.471.07.714.07.186 0 .382-.014.588-.042.205-.028.392-.08.56-.154.177-.075.322-.182.434-.322a.907.907 0 0 0 .168-.56c0-.308-.117-.541-.35-.7a2.866 2.866 0 0 0-.882-.378 10.793 10.793 0 0 0-1.134-.266 6.846 6.846 0 0 1-1.148-.336 2.438 2.438 0 0 1-.868-.616c-.234-.261-.35-.625-.35-1.092 0-.364.079-.677.238-.938a2.03 2.03 0 0 1 .63-.63c.261-.168.55-.29.868-.364a3.86 3.86 0 0 1 .966-.126c.41 0 .788.037 1.134.112.345.065.648.187.91.364.27.168.485.401.644.7.158.29.252.653.28 1.092h-1.19a1.17 1.17 0 0 0-.574-.952 1.651 1.651 0 0 0-.532-.196 2.358 2.358 0 0 0-.574-.07c-.178 0-.36.014-.546.042a1.66 1.66 0 0 0-.49.154.903.903 0 0 0-.364.28.674.674 0 0 0-.14.448c0 .205.07.378.21.518.149.13.336.243.56.336.224.084.476.159.756.224.28.056.56.117.84.182.298.065.588.145.868.238.289.093.541.22.756.378.224.15.401.34.532.574.14.233.21.523.21.868 0 .439-.094.803-.28 1.092-.178.29-.416.523-.714.7-.29.177-.621.299-.994.364a5.42 5.42 0 0 1-1.092.112c-.402 0-.784-.042-1.148-.126a2.899 2.899 0 0 1-.966-.406 2.186 2.186 0 0 1-.672-.756c-.168-.317-.262-.7-.28-1.148h1.19Zm6.076-2.17h4.046v1.12h-4.046v-1.12Zm5.595-2.786h1.12v1.526h.028c.289-.588.644-1.022 1.064-1.302.42-.28.952-.41 1.596-.392v1.26c-.476 0-.882.065-1.218.196-.336.13-.607.322-.812.574-.205.252-.355.56-.448.924a4.88 4.88 0 0 0-.14 1.232V41h-1.19v-7.238Zm9.484 2.926a2.339 2.339 0 0 0-.196-.798 1.825 1.825 0 0 0-.434-.644 1.822 1.822 0 0 0-.644-.434 1.915 1.915 0 0 0-.812-.168c-.308 0-.588.056-.84.168a1.85 1.85 0 0 0-.63.434 2.1 2.1 0 0 0-.42.658 2.409 2.409 0 0 0-.182.784h4.158Zm1.148 2.016c-.159.812-.509 1.423-1.05 1.834-.541.41-1.223.616-2.044.616-.579 0-1.083-.093-1.512-.28a2.979 2.979 0 0 1-1.064-.784 3.415 3.415 0 0 1-.658-1.204 6.02 6.02 0 0 1-.238-1.526c0-.55.084-1.055.252-1.512.168-.457.401-.854.7-1.19a3.3 3.3 0 0 1 1.078-.784c.42-.187.877-.28 1.372-.28.644 0 1.176.135 1.596.406.429.261.77.597 1.022 1.008.261.41.439.859.532 1.344.103.485.145.947.126 1.386h-5.418c-.009.317.028.62.112.91.084.28.219.532.406.756.187.215.425.387.714.518.289.13.63.196 1.022.196.504 0 .915-.117 1.232-.35.327-.233.541-.588.644-1.064h1.176Zm1.836-3.892h-1.218v-1.05h1.218v-1.078c0-.588.168-1.031.504-1.33.345-.308.844-.462 1.498-.462a2.882 2.882 0 0 1 .77.112v1.036a1.268 1.268 0 0 0-.336-.07 2.23 2.23 0 0 0-.336-.028c-.29 0-.514.056-.672.168-.159.112-.238.327-.238.644v1.008h1.4v1.05h-1.4V41h-1.19v-6.188Zm8.678 1.876a2.339 2.339 0 0 0-.196-.798 1.825 1.825 0 0 0-.434-.644 1.822 1.822 0 0 0-.644-.434 1.915 1.915 0 0 0-.812-.168c-.308 0-.588.056-.84.168a1.85 1.85 0 0 0-.63.434 2.1 2.1 0 0 0-.42.658 2.409 2.409 0 0 0-.182.784h4.158Zm1.148 2.016c-.159.812-.509 1.423-1.05 1.834-.541.41-1.223.616-2.044.616-.579 0-1.083-.093-1.512-.28a2.979 2.979 0 0 1-1.064-.784 3.415 3.415 0 0 1-.658-1.204 6.02 6.02 0 0 1-.238-1.526c0-.55.084-1.055.252-1.512.168-.457.401-.854.7-1.19a3.3 3.3 0 0 1 1.078-.784c.42-.187.877-.28 1.372-.28.644 0 1.176.135 1.596.406.429.261.77.597 1.022 1.008.261.41.439.859.532 1.344.103.485.145.947.126 1.386h-5.418c-.009.317.028.62.112.91.084.28.219.532.406.756.187.215.425.387.714.518.289.13.63.196 1.022.196.504 0 .915-.117 1.232-.35.327-.233.541-.588.644-1.064h1.176Zm1.304-4.942h1.12v1.526h.028c.289-.588.644-1.022 1.064-1.302.42-.28.952-.41 1.596-.392v1.26c-.476 0-.882.065-1.218.196-.336.13-.607.322-.812.574a2.36 2.36 0 0 0-.448.924c-.094.355-.14.765-.14 1.232V41h-1.19v-7.238Zm9.484 2.926a2.339 2.339 0 0 0-.196-.798 1.838 1.838 0 0 0-.434-.644 1.831 1.831 0 0 0-.644-.434 1.918 1.918 0 0 0-.812-.168c-.308 0-.588.056-.84.168a1.85 1.85 0 0 0-.63.434 2.066 2.066 0 0 0-.42.658 2.383 2.383 0 0 0-.182.784h4.158Zm1.148 2.016c-.159.812-.509 1.423-1.05 1.834-.542.41-1.223.616-2.044.616-.579 0-1.083-.093-1.512-.28a2.979 2.979 0 0 1-1.064-.784 3.4 3.4 0 0 1-.658-1.204 5.976 5.976 0 0 1-.238-1.526c0-.55.084-1.055.252-1.512.168-.457.401-.854.7-1.19a3.3 3.3 0 0 1 1.078-.784c.42-.187.877-.28 1.372-.28.644 0 1.176.135 1.596.406.429.261.77.597 1.022 1.008.261.41.438.859.532 1.344.102.485.144.947.126 1.386h-5.418c-.01.317.028.62.112.91.084.28.219.532.406.756.186.215.424.387.714.518.289.13.63.196 1.022.196.504 0 .914-.117 1.232-.35.326-.233.541-.588.644-1.064h1.176Zm1.345-4.942h1.12v1.148h.028c.495-.877 1.279-1.316 2.352-1.316.476 0 .873.065 1.19.196.318.13.574.313.77.546.196.233.332.513.406.84.084.317.126.672.126 1.064V41h-1.19v-4.9c0-.448-.13-.803-.392-1.064-.261-.261-.62-.392-1.078-.392a2.48 2.48 0 0 0-.952.168c-.261.112-.48.27-.658.476a2.147 2.147 0 0 0-.406.728c-.084.27-.126.57-.126.896V41h-1.19v-7.238Zm12.693 2.324c-.093-.457-.289-.812-.588-1.064-.298-.252-.7-.378-1.204-.378-.429 0-.788.08-1.078.238a1.992 1.992 0 0 0-.7.63 2.743 2.743 0 0 0-.364.91 4.869 4.869 0 0 0-.112 1.05c0 .336.038.663.112.98.084.317.21.602.378.854.168.243.388.439.658.588.271.15.593.224.966.224.588 0 1.046-.154 1.372-.462.336-.308.542-.742.616-1.302h1.218c-.13.896-.466 1.587-1.008 2.072-.532.485-1.26.728-2.184.728-.55 0-1.04-.089-1.47-.266a2.918 2.918 0 0 1-1.064-.756 3.44 3.44 0 0 1-.644-1.162 5.097 5.097 0 0 1-.21-1.498c0-.541.07-1.045.21-1.512.14-.476.35-.887.63-1.232a2.96 2.96 0 0 1 1.078-.826c.43-.205.929-.308 1.498-.308.411 0 .794.051 1.148.154.364.093.682.243.952.448.28.205.509.467.686.784.178.308.29.677.336 1.106h-1.232Zm7.632.602a2.339 2.339 0 0 0-.196-.798 1.825 1.825 0 0 0-.434-.644 1.822 1.822 0 0 0-.644-.434 1.915 1.915 0 0 0-.812-.168c-.308 0-.588.056-.84.168a1.85 1.85 0 0 0-.63.434 2.1 2.1 0 0 0-.42.658 2.409 2.409 0 0 0-.182.784h4.158Zm1.148 2.016c-.159.812-.509 1.423-1.05 1.834-.541.41-1.223.616-2.044.616-.579 0-1.083-.093-1.512-.28a2.979 2.979 0 0 1-1.064-.784 3.415 3.415 0 0 1-.658-1.204 6.02 6.02 0 0 1-.238-1.526c0-.55.084-1.055.252-1.512.168-.457.401-.854.7-1.19a3.3 3.3 0 0 1 1.078-.784c.42-.187.877-.28 1.372-.28.644 0 1.176.135 1.596.406.429.261.77.597 1.022 1.008.261.41.439.859.532 1.344.103.485.145.947.126 1.386h-5.418c-.009.317.028.62.112.91.084.28.219.532.406.756.187.215.425.387.714.518.289.13.63.196 1.022.196.504 0 .915-.117 1.232-.35.327-.233.541-.588.644-1.064h1.176Zm6.502-6.244h-1.19v-1.456h1.19v1.456Zm-1.19 1.302h1.19V41h-1.19v-7.238Zm3.034 0h1.12v1.148h.028c.494-.877 1.278-1.316 2.352-1.316.476 0 .872.065 1.19.196.317.13.574.313.77.546.196.233.331.513.406.84.084.317.126.672.126 1.064V41h-1.19v-4.9c0-.448-.131-.803-.392-1.064-.262-.261-.621-.392-1.078-.392-.364 0-.682.056-.952.168-.262.112-.481.27-.658.476a2.114 2.114 0 0 0-.406.728c-.084.27-.126.57-.126.896V41h-1.19v-7.238Zm8.269 1.05h-1.218v-1.05h1.218v-1.078c0-.588.168-1.031.504-1.33.345-.308.844-.462 1.498-.462a2.882 2.882 0 0 1 .77.112v1.036a1.268 1.268 0 0 0-.336-.07 2.23 2.23 0 0 0-.336-.028c-.29 0-.514.056-.672.168-.159.112-.238.327-.238.644v1.008h1.4v1.05h-1.4V41h-1.19v-6.188Zm4.52 2.576c0 .439.056.83.168 1.176.122.336.285.62.49.854.206.224.444.397.714.518a2.196 2.196 0 0 0 1.75 0c.28-.121.523-.294.728-.518.206-.233.364-.518.476-.854.122-.345.182-.737.182-1.176 0-.439-.06-.826-.182-1.162a2.419 2.419 0 0 0-.476-.868 2.037 2.037 0 0 0-.728-.532 2.196 2.196 0 0 0-1.75 0c-.27.121-.508.299-.714.532a2.62 2.62 0 0 0-.49.868 3.673 3.673 0 0 0-.168 1.162Zm-1.26 0c0-.532.075-1.027.224-1.484a3.32 3.32 0 0 1 .672-1.204 3.135 3.135 0 0 1 1.106-.812c.439-.196.943-.294 1.512-.294.579 0 1.083.098 1.512.294.439.196.808.467 1.106.812.299.336.523.737.672 1.204.15.457.224.952.224 1.484s-.074 1.027-.224 1.484a3.45 3.45 0 0 1-.672 1.204 3.199 3.199 0 0 1-1.106.798c-.429.187-.933.28-1.512.28-.569 0-1.073-.093-1.512-.28a3.217 3.217 0 0 1-1.106-.798 3.481 3.481 0 0 1-.672-1.204 4.764 4.764 0 0 1-.224-1.484Zm8.389-3.626h1.12v1.526h.028c.29-.588.644-1.022 1.064-1.302.42-.28.952-.41 1.596-.392v1.26c-.476 0-.882.065-1.218.196-.336.13-.606.322-.812.574-.205.252-.354.56-.448.924a4.88 4.88 0 0 0-.14 1.232V41h-1.19v-7.238Zm4.705 0h1.12v1.064h.028c.541-.821 1.32-1.232 2.338-1.232.448 0 .854.093 1.218.28.364.187.62.504.77.952.242-.392.56-.695.952-.91.401-.215.84-.322 1.316-.322.364 0 .69.042.98.126.298.075.55.196.756.364.214.168.378.387.49.658.121.261.182.579.182.952V41h-1.19v-4.746c0-.224-.019-.434-.056-.63a1.246 1.246 0 0 0-.21-.504 1.025 1.025 0 0 0-.434-.35c-.178-.084-.411-.126-.7-.126-.588 0-1.05.168-1.386.504-.336.336-.504.784-.504 1.344V41h-1.19v-4.746c0-.233-.024-.448-.07-.644a1.246 1.246 0 0 0-.21-.504.942.942 0 0 0-.42-.336c-.168-.084-.388-.126-.658-.126-.346 0-.644.07-.896.21-.243.14-.444.308-.602.504-.15.196-.262.401-.336.616a1.747 1.747 0 0 0-.098.518V41h-1.19v-7.238Zm18.347 7.21c-.205.121-.49.182-.854.182-.308 0-.555-.084-.742-.252-.177-.177-.266-.462-.266-.854a2.898 2.898 0 0 1-1.148.854 3.807 3.807 0 0 1-1.4.252c-.327 0-.639-.037-.938-.112a2.174 2.174 0 0 1-.756-.35 1.76 1.76 0 0 1-.518-.616 2.218 2.218 0 0 1-.182-.938c0-.41.07-.747.21-1.008.14-.261.322-.471.546-.63.233-.168.495-.294.784-.378.299-.084.602-.154.91-.21a9.33 9.33 0 0 1 .924-.14c.299-.037.56-.084.784-.14.224-.065.401-.154.532-.266.131-.121.196-.294.196-.518 0-.261-.051-.471-.154-.63a.94.94 0 0 0-.378-.364 1.47 1.47 0 0 0-.518-.168 3.77 3.77 0 0 0-.56-.042c-.504 0-.924.098-1.26.294-.336.187-.518.546-.546 1.078h-1.19c.019-.448.112-.826.28-1.134.168-.308.392-.555.672-.742.28-.196.597-.336.952-.42a5.155 5.155 0 0 1 1.162-.126c.327 0 .649.023.966.07.327.047.621.145.882.294.261.14.471.34.63.602.159.261.238.602.238 1.022v3.724c0 .28.014.485.042.616.037.13.149.196.336.196.103 0 .224-.023.364-.07v.924Zm-1.932-3.71a1.55 1.55 0 0 1-.588.252 14.7 14.7 0 0 1-.77.126c-.261.028-.527.065-.798.112a2.77 2.77 0 0 0-.728.196 1.35 1.35 0 0 0-.532.406c-.131.168-.196.401-.196.7 0 .196.037.364.112.504.084.13.187.238.308.322.131.084.28.145.448.182.168.037.345.056.532.056.392 0 .728-.051 1.008-.154.28-.112.509-.247.686-.406.177-.168.308-.345.392-.532.084-.196.126-.378.126-.546v-1.218Zm4.696-3.5h1.44v1.05h-1.44v4.494c0 .14 0 .252.02.336.03.084.08.15.14.196.07.047.16.08.27.098.12.01.27.014.46.014h.55V41h-.91c-.31 0-.58-.019-.8-.056a1.232 1.232 0 0 1-.53-.238c-.13-.112-.23-.27-.3-.476a2.885 2.885 0 0 1-.094-.812v-4.606h-1.232v-1.05h1.232v-2.17h1.194v2.17Zm4.02-1.302h-1.19v-1.456h1.19v1.456Zm-1.19 1.302h1.19V41h-1.19v-7.238Zm3.9 3.626c0 .439.06.83.17 1.176.12.336.28.62.49.854a2.096 2.096 0 0 0 1.6.7c.3 0 .59-.06.86-.182.28-.121.53-.294.73-.518.21-.233.37-.518.48-.854.12-.345.18-.737.18-1.176 0-.439-.06-.826-.18-1.162a2.338 2.338 0 0 0-.48-.868c-.2-.233-.45-.41-.73-.532a2.086 2.086 0 0 0-.86-.182c-.31 0-.61.06-.89.182-.27.121-.51.299-.71.532-.21.233-.37.523-.49.868-.11.336-.17.723-.17 1.162Zm-1.26 0c0-.532.08-1.027.23-1.484.14-.467.37-.868.67-1.204.3-.345.66-.616 1.1-.812.44-.196.95-.294 1.52-.294.57 0 1.08.098 1.51.294.44.196.8.467 1.1.812.3.336.53.737.68 1.204.14.457.22.952.22 1.484s-.08 1.027-.22 1.484c-.15.457-.38.859-.68 1.204-.3.336-.66.602-1.1.798-.43.187-.94.28-1.51.28-.57 0-1.08-.093-1.52-.28-.44-.196-.8-.462-1.1-.798-.3-.345-.53-.747-.67-1.204a4.735 4.735 0 0 1-.23-1.484Zm8.43-3.626h1.12v1.148h.03c.49-.877 1.28-1.316 2.35-1.316.48 0 .87.065 1.19.196.32.13.58.313.77.546.2.233.33.513.41.84.08.317.12.672.12 1.064V41h-1.19v-4.9c0-.448-.13-.803-.39-1.064s-.62-.392-1.08-.392c-.36 0-.68.056-.95.168-.26.112-.48.27-.66.476-.17.205-.31.448-.4.728-.09.27-.13.57-.13.896V41h-1.19v-7.238Zm8.05 5.684h1.55V41h-1.55v-1.554ZM588.84 42.563c.147.254.193.52.14.8-.053.28-.193.514-.42.7-.213.187-.467.28-.76.28h-17.6c-.293 0-.553-.093-.78-.28a1.205 1.205 0 0 1-.4-.7 1.128 1.128 0 0 1 .14-.8l8.8-15.14a1.13 1.13 0 0 1 .62-.52c.28-.093.553-.093.82 0 .28.094.493.267.64.52l8.8 15.14Zm-9.84-.74c.347 0 .64-.12.88-.36.253-.24.38-.533.38-.88 0-.346-.127-.64-.38-.88a1.165 1.165 0 0 0-.88-.38c-.347 0-.64.127-.88.38-.24.24-.36.534-.36.88 0 .347.12.64.36.88s.533.36.88.36Zm-1.24-5h2.5v-5h-2.5v5Z"/></g></g><defs><filter id="b" width="1070" height="834" x="-10" y="-10" color-interpolation-filters="sRGB" filterUnits="userSpaceOnUse"><feFlood flood-opacity="0" result="BackgroundImageFix"/><feBlend in="SourceGraphic" in2="BackgroundImageFix" result="shape"/><feGaussianBlur result="effect1_foregroundBlur_2552_1421" stdDeviation="5"/></filter></defs></svg>
