<svg xmlns="http://www.w3.org/2000/svg" width="16" height="16" fill="none"><path fill="#111" d="M8.736 9.472 6.56 7.296l-.72 2.896 2.896-.72Zm-1.472-2.88 2.176 2.16.72-2.88-2.896.72ZM8 0c1.077 0 2.112.208 3.104.624.96.416 1.808.992 2.544 1.728a8.145 8.145 0 0 1 1.728 2.544C15.792 5.888 16 6.923 16 8a7.948 7.948 0 0 1-.624 3.104 8.145 8.145 0 0 1-1.728 2.544 8.145 8.145 0 0 1-2.544 1.728A7.948 7.948 0 0 1 8 16a7.948 7.948 0 0 1-3.104-.624 8.145 8.145 0 0 1-2.544-1.728 8.145 8.145 0 0 1-1.728-2.544A7.948 7.948 0 0 1 0 8c0-1.077.208-2.112.624-3.104a8.145 8.145 0 0 1 1.728-2.544A8.145 8.145 0 0 1 4.896.624 7.948 7.948 0 0 1 8 0Zm.496 14.944a6.74 6.74 0 0 0 3.168-.992 6.71 6.71 0 0 0 2.288-2.288 6.74 6.74 0 0 0 .992-3.168h-1.44a.533.533 0 0 1-.368-.128.533.533 0 0 1-.128-.368c0-.15.043-.267.128-.352a.498.498 0 0 1 .368-.144h1.44a6.642 6.642 0 0 0-.992-3.152 6.9 6.9 0 0 0-2.288-2.288 6.804 6.804 0 0 0-3.168-1.008v1.44c0 .15-.048.272-.144.368A.476.476 0 0 1 8 2.992a.533.533 0 0 1-.368-.128.533.533 0 0 1-.128-.368v-1.44a6.74 6.74 0 0 0-3.168.992 6.71 6.71 0 0 0-2.288 2.288 6.74 6.74 0 0 0-.992 3.168h1.44c.15 0 .272.048.368.144A.447.447 0 0 1 3.008 8c0 .15-.048.272-.144.368a.533.533 0 0 1-.368.128h-1.44a6.74 6.74 0 0 0 .992 3.168 6.71 6.71 0 0 0 2.288 2.288 6.74 6.74 0 0 0 3.168.992v-1.44c0-.15.043-.272.128-.368A.498.498 0 0 1 8 12.992c.15 0 .267.048.352.144a.498.498 0 0 1 .144.368v1.44Zm1.04-4.656L5.28 11.36a.528.528 0 0 1-.384-.048.497.497 0 0 1-.224-.32.312.312 0 0 1 0-.24l1.056-4.256c.053-.181.144-.336.272-.464a.899.899 0 0 1 .464-.272l4.256-1.072a.485.485 0 0 1 .384.064.442.442 0 0 1 .224.304.312.312 0 0 1 0 .24l-1.056 4.272a1.072 1.072 0 0 1-.272.464.95.95 0 0 1-.464.256Z"/></svg>
