<svg xmlns="http://www.w3.org/2000/svg" width="259" height="231" fill="none"><g clip-path="url(#a)"><path fill="#F3F3F3" d="M1.535 214.267c2.953 6.754 9.513 10.886 16.23 14.246.938.469 1.874.925 2.81 1.367.005.002.012.007.018.008l.132.064.578.273-.091.056-.285.174.294-.167.09-.05c3.39-1.918 6.83-3.951 9.216-7.02 2.475-3.187 3.555-7.814 1.525-11.301a7.112 7.112 0 0 0-.944-1.268 7.685 7.685 0 0 0-.468-.466 7.618 7.618 0 0 0-10.865.455 7.616 7.616 0 0 0-1.805 3.557c-1.011-4.156 1.998-8.149 5-11.197s6.43-6.388 6.523-10.667a8.24 8.24 0 0 0-2.776-6.154l-.16-.146a11.118 11.118 0 0 0-7.588-2.863c-5.204.145-9.83 3.522-13.087 7.584-5.242 6.537-7.704 15.837-4.347 23.515Z"/><path fill="#fff" d="M9.968 203.807a18.9 18.9 0 0 0-1.59 5.249 16.412 16.412 0 0 0 .074 4.88 21.027 21.027 0 0 0 3.986 9.127 30.261 30.261 0 0 0 5.327 5.45c.938.469 1.874.925 2.81 1.367.005.002.012.007.018.008l.132.064c.193.091.386.183.578.272l-.091.057-.285.174.294-.167.09-.05a16.733 16.733 0 0 1 3.418-14.985 16.88 16.88 0 0 1 6.38-4.605 7.967 7.967 0 0 0-.47-.465c-.947.406-1.857.896-2.719 1.462a17.145 17.145 0 0 0-6.704 8.426 17.527 17.527 0 0 0-.63 9.785 30.55 30.55 0 0 1-.491-.347 30.738 30.738 0 0 1-7.94-7.913 19.57 19.57 0 0 1-3.245-8.908c-.325-3.485.631-6.878 2.261-9.938a40.95 40.95 0 0 1 6.646-8.95 46.533 46.533 0 0 1 8.79-7.175.334.334 0 0 0 .11-.448.286.286 0 0 0-.16-.146.25.25 0 0 0-.212.037 47.052 47.052 0 0 0-9.976 8.398 37.872 37.872 0 0 0-6.4 9.341Z"/><path fill="#62719A" d="M115.076 156.834a10.927 10.927 0 0 1-10.719-13.061 10.93 10.93 0 0 1 21.648 2.132 10.941 10.941 0 0 1-10.929 10.929Zm0-21.011a10.088 10.088 0 0 0-9.315 6.224 10.082 10.082 0 1 0 19.397 3.858 10.088 10.088 0 0 0-2.957-7.125 10.088 10.088 0 0 0-7.125-2.957Z"/><path fill="#62719A" d="M114.035 149.913c-.236 0-.467-.076-.656-.218l-.011-.009-2.469-1.889a1.087 1.087 0 0 1-.42-.727 1.097 1.097 0 0 1 .538-1.093 1.106 1.106 0 0 1 .833-.11c.139.037.269.101.384.189l1.599 1.226 3.779-4.93a1.11 1.11 0 0 1 .727-.42 1.099 1.099 0 0 1 .81.217l-.023.033.024-.033a1.1 1.1 0 0 1 .203 1.538l-4.444 5.796a1.097 1.097 0 0 1-.873.428l-.001.002Z"/><path fill="#A0616A" d="M76.395 91.129c5.745 0 10.403-4.658 10.403-10.403S82.14 70.323 76.394 70.323c-5.746 0-10.403 4.658-10.403 10.403S70.649 91.13 76.395 91.13ZM72.639 142.282a4.655 4.655 0 0 1-3.73-1.859 4.654 4.654 0 0 1-.733-4.157l-15.354-18.159a3.619 3.619 0 0 1-.252-4.314l.028-.034 13.82-13.627a3.996 3.996 0 0 1 6.799 2.928 3.993 3.993 0 0 1-1.242 2.812l-10.01 9.516 10.959 17.588c.207.01.414.036.618.076a4.656 4.656 0 0 1 3.726 5.023 4.663 4.663 0 0 1-4.63 4.207ZM93.528 225.508h5.193l2.47-20.029h-7.664l.001 20.029Z"/><path fill="#111" d="m92.204 223.813 10.226-.001a6.527 6.527 0 0 1 4.608 1.909 6.509 6.509 0 0 1 1.909 4.608v.212H92.204v-6.728Z"/><path fill="#A0616A" d="m41.916 218.328 4.462 2.657 12.37-15.945-6.586-3.921-10.246 17.209Z"/><path fill="#111" d="m41.645 216.194 8.787 5.232a6.505 6.505 0 0 1 2.983 3.997 6.522 6.522 0 0 1-.717 4.936l-.109.182-14.386-8.565 3.442-5.782ZM99.946 218.434h-5.815a1.905 1.905 0 0 1-1.895-1.705l-5.862-55.103a.634.634 0 0 0-1.21-.194l-10.576 23.417-18.722 30.529a1.911 1.911 0 0 1-2.393.748l-7.48-3.291a1.907 1.907 0 0 1-.868-2.722l17.211-28.819 5.279-24.282c-1.66-10.53 5.457-26.185 5.529-26.342l.035-.077 21.4-8.56.099.12c12.716 15.523 10.647 53.574 7.168 94.534a1.92 1.92 0 0 1-1.9 1.747Z"/><path fill="#62719A" d="m72.39 133.159-.092-.192c-.044-.092-4.403-9.286-7.763-19.112a14.496 14.496 0 0 1 1.005-11.616 14.657 14.657 0 0 1 9.344-7.185 14.67 14.67 0 0 1 17.027 8.786c2.666 6.665 3.612 12.882 2.813 18.477l-.016.112-.102.049-22.216 10.681Z"/><path fill="#A0616A" d="M108.994 148.075a4.794 4.794 0 0 1-5.559 1.443 4.779 4.779 0 0 1-1.591-1.068 4.801 4.801 0 0 1-1.379-3.493c.007-.236.033-.471.076-.703l-20.484-38.152a3.826 3.826 0 0 1-.483-2.904 3.825 3.825 0 0 1 1.72-2.391 3.842 3.842 0 0 1 2.907-.466 3.846 3.846 0 0 1 2.38 1.733l20.012 38.42a4.775 4.775 0 0 1 3.225 3.149 4.774 4.774 0 0 1-.824 4.432Z"/><path fill="#111" d="M89.008 74.85H72.489v-7.2c3.626-1.441 7.174-2.666 9.318 0a7.201 7.201 0 0 1 7.2 7.2Z"/><path fill="#111" d="M71.575 66.379c-9.875 0-12.64 12.378-12.64 19.36 0 3.895 1.762 5.288 4.53 5.76l.977-5.213 2.289 5.437c.777.004 1.594-.011 2.44-.027l.777-1.598 1.73 1.57c6.933.01 12.536 1.02 12.536-5.928 0-6.983-2.424-19.361-12.64-19.361Z"/><path fill="#CCC" d="M161.16 67.345a3.388 3.388 0 1 0 0-6.777 3.388 3.388 0 0 0 0 6.777Z"/><path fill="#62719A" d="M248.071 105.161a10.932 10.932 0 0 1-10.097-6.747A10.928 10.928 0 1 1 259 94.232a10.94 10.94 0 0 1-10.929 10.929Zm0-21.011a10.081 10.081 0 1 0 10.082 10.082 10.093 10.093 0 0 0-10.082-10.082Z"/><path fill="#62719A" d="M247.03 98.24c-.236 0-.466-.077-.656-.218l-.011-.01-2.469-1.888a1.096 1.096 0 1 1 1.335-1.741l1.599 1.226 3.779-4.93a1.098 1.098 0 0 1 1.538-.203l-.023.033.024-.033a1.1 1.1 0 0 1 .202 1.538l-4.444 5.796a1.096 1.096 0 0 1-.873.428l-.001.001Z"/><path fill="#111" d="M246.717 64.38h-74.545a.426.426 0 0 1-.424-.424.425.425 0 0 1 .424-.423h74.545a.422.422 0 0 1 .424.423.422.422 0 0 1-.424.424ZM246.717 72.427h-74.545a.426.426 0 0 1-.424-.423.425.425 0 0 1 .424-.424h74.545a.422.422 0 0 1 .424.424.422.422 0 0 1-.424.423ZM246.717 80.475h-74.545a.426.426 0 0 1-.424-.424.426.426 0 0 1 .424-.423h74.545a.422.422 0 0 1 .299.723.422.422 0 0 1-.299.124ZM229.775 88.522h-57.603a.426.426 0 0 1-.424-.423.426.426 0 0 1 .424-.424h57.603a.422.422 0 0 1 .299.723.422.422 0 0 1-.299.124ZM229.351 96.57h-57.179a.426.426 0 0 1-.424-.424.425.425 0 0 1 .424-.423h57.179a.425.425 0 0 1 .3.723.425.425 0 0 1-.3.124Z"/><path fill="#CCC" d="M161.16 6.777a3.388 3.388 0 1 0 0-6.777 3.388 3.388 0 0 0 0 6.777Z"/><path fill="#62719A" d="M248.071 44.593a10.933 10.933 0 0 1-10.097-6.747A10.928 10.928 0 1 1 259 33.664a10.94 10.94 0 0 1-10.929 10.93Zm0-21.01a10.081 10.081 0 1 0 10.082 10.081 10.093 10.093 0 0 0-10.082-10.082Z"/><path fill="#62719A" d="M247.03 37.672c-.236 0-.466-.077-.656-.218l-.011-.01-2.469-1.888a1.096 1.096 0 1 1 1.335-1.741l1.599 1.226 3.779-4.93a1.1 1.1 0 0 1 1.538-.203l-.023.033.024-.033a1.1 1.1 0 0 1 .202 1.538l-4.444 5.796a1.095 1.095 0 0 1-.873.428l-.001.002Z"/><path fill="#111" d="M246.717 3.812h-74.545a.426.426 0 0 1-.424-.424.425.425 0 0 1 .424-.423h74.545a.422.422 0 0 1 .299.723.422.422 0 0 1-.299.124ZM246.717 11.86h-74.545a.426.426 0 0 1-.424-.424.425.425 0 0 1 .424-.424h74.545a.422.422 0 0 1 .299.723.422.422 0 0 1-.299.124ZM246.717 19.907h-74.545a.426.426 0 0 1-.424-.424.425.425 0 0 1 .424-.423h74.545a.422.422 0 0 1 .424.423.422.422 0 0 1-.424.424ZM229.775 27.954h-57.603a.426.426 0 0 1-.424-.423.425.425 0 0 1 .424-.424h57.603a.422.422 0 0 1 .423.424.42.42 0 0 1-.423.423ZM229.351 36.002h-57.179a.426.426 0 0 1-.424-.424.426.426 0 0 1 .424-.423h57.179a.425.425 0 0 1 .3.723.424.424 0 0 1-.3.124Z"/><path fill="#CCC" d="M161.16 127.489a3.388 3.388 0 1 0 0-6.776 3.388 3.388 0 0 0 0 6.776Z"/><path fill="#E6E6E6" d="M248.071 165.305a10.932 10.932 0 0 1-10.097-6.747 10.926 10.926 0 0 1 7.965-14.901 10.926 10.926 0 0 1 11.219 4.647 10.932 10.932 0 0 1 1.842 6.072 10.937 10.937 0 0 1-3.205 7.724 10.937 10.937 0 0 1-7.724 3.205Zm0-21.011a10.088 10.088 0 0 0-9.314 6.224 10.082 10.082 0 1 0 19.396 3.858 10.092 10.092 0 0 0-10.082-10.082Z"/><path fill="#E6E6E6" d="M247.03 158.384a1.09 1.09 0 0 1-.655-.218l-.012-.009-2.469-1.889a1.098 1.098 0 1 1 1.335-1.741l1.599 1.226 3.779-4.93a1.102 1.102 0 0 1 1.154-.392c.139.037.269.102.384.189l-.023.033.024-.033a1.102 1.102 0 0 1 .203 1.538l-4.445 5.796a1.089 1.089 0 0 1-.873.428l-.001.002Z"/><path fill="#111" d="M246.717 124.524h-74.545a.424.424 0 1 1 0-.847h74.545a.424.424 0 0 1 0 .847ZM246.717 132.572h-74.545a.428.428 0 0 1-.3-.124.424.424 0 0 1 .3-.724h74.545a.42.42 0 0 1 .299.125.42.42 0 0 1 0 .599.424.424 0 0 1-.299.124ZM246.717 140.619h-74.545a.424.424 0 1 1 0-.847h74.545a.424.424 0 0 1 0 .847ZM229.775 148.667h-57.603a.425.425 0 0 1 0-.848h57.603a.42.42 0 0 1 .299.125.42.42 0 0 1 0 .598.42.42 0 0 1-.299.125ZM229.351 156.714h-57.179a.425.425 0 0 1 0-.847h57.179a.426.426 0 0 1 .424.423.425.425 0 0 1-.424.424ZM163.603 230.836H2.23a.422.422 0 0 1-.424-.424.426.426 0 0 1 .424-.424h161.373a.424.424 0 0 1 0 .848Z"/></g><defs><clipPath id="a"><path fill="#fff" d="M0 0h259v230.835H0z"/></clipPath></defs></svg>
