<svg xmlns="http://www.w3.org/2000/svg" width="260" height="219" fill="none"><path fill="#62719A" d="M257.438 132.662h-12.02a1.703 1.703 0 0 1-1.661-1.314 1.658 1.658 0 0 1-.001-.745 32.703 32.703 0 0 0-.158-15.119 1.684 1.684 0 0 1 .915-1.939c5.02-2.35 9.631-2.288 13.702.182a1.708 1.708 0 0 1 .81 1.191c.863 5.39.896 10.881.098 16.281a1.695 1.695 0 0 1-1.685 1.463Z"/><path fill="#fff" d="M257.255 124.788h-9.19a.864.864 0 0 1 0-1.725h9.19a.863.863 0 0 1 0 1.725ZM257.255 121.764h-9.19a.862.862 0 0 1 0-1.724h9.19a.866.866 0 0 1 .86.862c0 .229-.09.448-.252.609a.857.857 0 0 1-.608.253Z"/><path fill="#F3F3F3" d="M90.814 129.568c6.68 0 12.094-5.415 12.094-12.094 0-6.679-5.415-12.094-12.094-12.094-6.679 0-12.093 5.415-12.093 12.094 0 6.679 5.414 12.094 12.093 12.094Z"/><path fill="#FFB8B8" d="m241.433 109.314-3.52-34.075-.929-14.024 9.853-1.782s1.476 9.641 2.767 15.3c1.273 5.582-1.697 33.833-1.776 34.578a4.792 4.792 0 0 1 1.283 5.283 4.796 4.796 0 0 1-4.476 3.085 4.799 4.799 0 0 1-4.48-3.08 4.797 4.797 0 0 1 1.278-5.285Z"/><path fill="#FFB6B6" d="M201.168 213.94h-5.013l-2.384-19.335 7.398.001-.001 19.334Z"/><path fill="#111" d="M202.447 218.799h-16.163v-.205a6.294 6.294 0 0 1 6.291-6.291l2.952-2.24 5.509 2.241h1.411v6.495Z"/><path fill="#FFB6B6" d="M245.347 213.94h-5.013l-2.385-19.335 7.399.001-.001 19.334Z"/><path fill="#111" d="M246.625 218.799h-16.163v-.205a6.29 6.29 0 0 1 6.291-6.291h.001l2.952-2.24 5.508 2.241h1.411v6.495ZM237.723 110.46l4.216 40.053s5.612 40.104 4.558 45.638c-1.054 5.533.264 6.324.264 6.324l-9.618-.685s.264-3.426-1.317-5.007c-1.581-1.581-.791-6.324-.791-6.324l-18.656-65.242-11.331 34.255s-1.844 37.681-2.108 38.208c-.263.527-1.054 7.642-1.054 7.642h-9.75s1.318-4.216-.527-5.534c-1.844-1.317-3.425-.263-1.844-2.635 1.581-2.371 2.108-5.27 1.581-6.587-.527-1.318-.527-6.588-.527-6.588s.79-71.146 5.27-73.518c4.48-2.371 41.634 0 41.634 0Z"/><path fill="#FFB8B8" d="M217.756 29.364c5.727 0 10.37-4.643 10.37-10.37 0-5.727-4.643-10.37-10.37-10.37-5.727 0-10.369 4.643-10.369 10.37 0 5.727 4.642 10.37 10.369 10.37Z"/><path fill="#111" d="M248.498 64.87 238.3 68.527l-3.106 1.113-2.268-28.959 7.781 4.127a.18.18 0 0 1 .035.034 21.08 21.08 0 0 1 3.349 4.97c4.267 8.674 4.407 15.058 4.407 15.058Z"/><path fill="#FFB8B8" d="M178.241 106.868s10.365-32.206 10.546-32.593c1.358-10.31 5.263-14.857 5.848-14.364l10.079 3.492s-2.998 9.493-5.028 15.132c-1.939 5.388-15.222 30.264-15.595 30.914a4.792 4.792 0 0 1-3.473 6.688 4.789 4.789 0 0 1-4.974-2.195 4.787 4.787 0 0 1 .273-5.429 4.788 4.788 0 0 1 2.324-1.645Z"/><path fill="#111" d="M209.555 42.546s-8.726-4.276-12.11 4.123c-2.217 5.664-3.266 8.135-4.746 14.035 0 0 8.895 1.334 11.747 6.36l5.109-24.518Z"/><path fill="#111" d="M241.307 114.826c-20.083 4.147-46.696-2.983-46.696-2.983l7.099-30.775-2.524-32.205c-.308-3.939 1.935-7.63 5.425-8.939l4.819-1.804 3.982-5.703 11.377.374 4.548 5.986 3.589 1.904 7.781 4.127.034.017v.017L238.3 68.527l-1.473 14.281S241.3 98.87 240.382 101c-.918 2.127-.12 1.1.103 2.237.222 1.137.904 1.208 1.006 3.448.107 2.237-.184 8.141-.184 8.141ZM229.005 15.301c-.819-.808.415-2.948.182-4.076-.268-1.292-1.692-1.33-2.032-2.605-.365-1.372-1.827-2.12-3.179-2.554a20.552 20.552 0 0 0-10.712-.49c-1.572.383-3.12.86-4.635 1.427-1.046.368-.037-.634-1.083-.266-.397.089-.746.32-.981.651-.188.356.065.924.461.852l-3.831 1.69 2.149 2.25c-1.019-.29-2.104.925-1.703 1.904a2.157 2.157 0 0 0 1.647 1.14c1.15.224.278 1.319 1.449 1.297 1.172-.021 9.342-2.423 9.912-1.399.406.73.361 1.695.94 2.296.741.769 2.035.488 2.978-.012.943-.501 1.899-1.189 2.96-1.069 1.108.125 1.946 2.172 2.218 3.253.273 1.08.101 2.218-.073 3.32-.228 1.445-2.511 2.891-2.739 4.337 2.534.701 5.252-1.528 6.254-5.405-.1-2.45 1.564-4.818-.182-6.54ZM67.798 149.977c-30.526.002-57.086-22.771-61.01-53.83l.75-.095c3.875 30.676 30.112 53.167 60.261 53.169 2.561 0 5.12-.161 7.662-.483 33.252-4.201 56.887-34.671 52.686-67.923l.75-.095c4.253 33.666-19.676 64.515-53.341 68.768a61.9 61.9 0 0 1-7.758.489Z"/><path fill="#62719A" d="M69.438 162.618h-12.02a1.694 1.694 0 0 1-1.662-2.059 32.698 32.698 0 0 0-.196-15.269 1.69 1.69 0 0 1 .737-1.841c4.158-2.576 8.686-2.496 13.843.246a1.713 1.713 0 0 1 .895 1.238 53.498 53.498 0 0 1 .088 16.222 1.698 1.698 0 0 1-1.686 1.463Z"/><path fill="#CCC" d="M14.639 98.37H2.619a1.702 1.702 0 0 1-1.661-1.313 1.666 1.666 0 0 1 0-.745 32.687 32.687 0 0 0-.21-15.32 1.704 1.704 0 0 1 .66-1.79c6.181-4.446 11.048-4.317 14.467.383.154.215.257.462.3.722a53.491 53.491 0 0 1 .15 16.6 1.697 1.697 0 0 1-1.686 1.464Z"/><path fill="#fff" d="M63.822 151.337h-4.135a.858.858 0 0 1-.86-.862.863.863 0 0 1 .86-.862h4.135a.861.861 0 0 1 0 1.724ZM68.877 154.744h-9.19a.863.863 0 0 1 0-1.724h9.19a.858.858 0 0 1 .86.862.863.863 0 0 1-.86.862ZM10.912 86.334H6.778a.862.862 0 0 1 0-1.724h4.134a.862.862 0 0 1 0 1.724ZM10.912 89.358H6.778a.862.862 0 0 1 0-1.725h4.134a.862.862 0 0 1 0 1.725ZM10.912 92.381H6.778a.862.862 0 0 1 0-1.724h4.134a.862.862 0 0 1 0 1.724Z"/><path fill="#E6E6E6" d="M176.406 112.571h-38.422a3.892 3.892 0 0 1-3.884-3.884V85.023a3.892 3.892 0 0 1 3.884-3.884h38.422a3.888 3.888 0 0 1 3.884 3.884v23.664a3.887 3.887 0 0 1-3.884 3.884Z"/><path fill="#fff" d="M161.14 109.522h-20.455a3.641 3.641 0 0 1-3.637-3.637v-18.06a3.64 3.64 0 0 1 3.637-3.638h33.02a3.64 3.64 0 0 1 3.638 3.637v5.496a16.22 16.22 0 0 1-16.203 16.202Z"/><path fill="#62719A" d="M170.411 94.077h-26.432a.863.863 0 1 1 0-1.724h26.432a.863.863 0 0 1 0 1.724ZM148.114 97.483h-4.135a.861.861 0 0 1 0-1.724h4.135a.861.861 0 0 1 0 1.724ZM155.437 100.889h-11.458a.865.865 0 0 1-.61-.252.865.865 0 0 1 0-1.22.863.863 0 0 1 .61-.252h11.458a.86.86 0 0 1 .609 1.472.863.863 0 0 1-.609.252Z"/><path fill="#111" d="M132.76 88.795a8.128 8.128 0 1 0-.001-16.255 8.128 8.128 0 0 0 .001 16.255ZM98.198 21.863a21.204 21.204 0 0 1 8.989-13.506 21.195 21.195 0 0 1 32.604 21.7l-.741-.146a20.44 20.44 0 1 0-40.11-7.902l-.742-.146Z"/><path fill="#62719A" d="m106.247 35.235-12.009.498a1.7 1.7 0 0 1-1.714-1.244 1.666 1.666 0 0 1-.031-.745 32.702 32.702 0 0 0-.785-15.099 1.69 1.69 0 0 1 .835-1.975c4.919-2.556 9.528-2.685 13.698-.386a1.715 1.715 0 0 1 .858 1.157 53.481 53.481 0 0 1 .772 16.263 1.697 1.697 0 0 1-1.624 1.531Z"/><path fill="#fff" d="m105.739 27.375-9.182.38a.862.862 0 1 1-.072-1.722l9.183-.38a.86.86 0 0 1 .845 1.158.874.874 0 0 1-.447.485.865.865 0 0 1-.327.08ZM105.614 24.355l-9.182.38a.862.862 0 0 1-.072-1.723l9.183-.38a.861.861 0 1 1 .071 1.723Z"/><path fill="#E6E6E6" d="M184.84 31.432h-38.422a3.888 3.888 0 0 1-3.884-3.884V3.884A3.888 3.888 0 0 1 146.418 0h38.422a3.89 3.89 0 0 1 3.883 3.884v23.664a3.887 3.887 0 0 1-3.883 3.884Z"/><path fill="#fff" d="M169.574 28.384h-20.455a3.641 3.641 0 0 1-3.638-3.637V6.684a3.641 3.641 0 0 1 3.638-3.637h33.02a3.643 3.643 0 0 1 3.637 3.637v5.497a16.219 16.219 0 0 1-16.202 16.202Z"/><path fill="#62719A" d="M178.845 12.938h-26.432a.863.863 0 1 1 0-1.724h26.432a.861.861 0 0 1 0 1.724ZM156.547 16.344h-4.134a.862.862 0 0 1 0-1.724h4.134a.863.863 0 0 1 0 1.724ZM163.87 19.75h-11.457a.863.863 0 1 1 0-1.724h11.457a.863.863 0 0 1 0 1.724Z"/><path fill="#111" d="M147.1 35.529a8.128 8.128 0 1 0-11.193 2.611A8.127 8.127 0 0 0 147.1 35.53ZM37.973 104.577a35.537 35.537 0 0 1 66.476-25.147l-.707.268a34.781 34.781 0 0 0-65.062 24.611l-.707.268Z"/><path fill="#62719A" d="M69.06 69.378H57.04a1.702 1.702 0 0 1-1.661-1.314 1.665 1.665 0 0 1 0-.745 32.696 32.696 0 0 0-.188-15.234 1.687 1.687 0 0 1 .777-1.866c4.354-2.534 9.004-2.457 13.82.23a1.703 1.703 0 0 1 .866 1.223 53.5 53.5 0 0 1 .091 16.243 1.697 1.697 0 0 1-1.685 1.463Z"/><path fill="#fff" d="M63.444 57.72h-4.135a.862.862 0 0 1 0-1.725h4.135a.862.862 0 0 1 0 1.724ZM68.5 61.126h-9.191a.862.862 0 0 1 0-1.724h9.19a.862.862 0 0 1 0 1.724Z"/><path fill="#111" d="M44.683 107.441a8.128 8.128 0 1 0-13.806-8.581 8.128 8.128 0 0 0 13.806 8.581Z"/><path fill="#FF6584" d="M110.253 92.053H98.234a1.702 1.702 0 0 1-1.661-1.313 1.665 1.665 0 0 1 0-.746 32.699 32.699 0 0 0-.182-15.207 1.697 1.697 0 0 1 .803-1.882c5.838-3.342 10.462-3.25 14.134.282.257.252.427.58.483.936.893 5.45.936 11.004.128 16.467a1.693 1.693 0 0 1-1.686 1.463Z"/><path fill="#fff" d="M105.393 80.773h-4.134a.864.864 0 0 1-.609-1.471.864.864 0 0 1 .609-.253h4.134a.864.864 0 0 1 .609 1.47.864.864 0 0 1-.609.254ZM110.449 84.18h-9.19a.863.863 0 1 1 0-1.725h9.19a.86.86 0 0 1 0 1.724Z"/></svg>
