<svg xmlns="http://www.w3.org/2000/svg" width="259" height="226" fill="none"><g clip-path="url(#a)"><path fill="#F3F3F3" d="M121.209 221.906a.455.455 0 0 0 .437-.277.453.453 0 0 0-.11-.505l-.031-.123.013-.029a1.209 1.209 0 0 1 1.79-.534c.198.133.353.321.444.542.366.88.831 1.762.946 2.693a3.6 3.6 0 0 1-.063 1.233 14.365 14.365 0 0 0 1.307-5.969 13.79 13.79 0 0 0-.284-2.802 14.546 14.546 0 0 0-2.882-6.161 3.864 3.864 0 0 1-1.609-1.669 2.95 2.95 0 0 1-.269-.807c.152-.401.232-.826.237-1.255.109-.166.304-.248.423-.41.593-.804 1.41-.664 1.837.429.911.46.919 1.222.36 1.956-.355.466-.404 1.097-.716 1.597l.098.122a14.731 14.731 0 0 1 1.527 2.419 6.072 6.072 0 0 1 .363-2.825c.347-.838.999-1.544 1.572-2.269a1.25 1.25 0 0 1 2.224.613l.003.032a4.286 4.286 0 0 0-.25.153.61.61 0 0 0 .247 1.114l.012.002c-.03.307-.084.611-.16.91.736 2.846-.853 3.883-3.122 3.929-.05.026-.099.052-.149.076.431 1.221.701 2.493.804 3.783.058.761.055 1.526-.01 2.287l.004-.027a3.74 3.74 0 0 1 1.277-2.161c.984-.808 2.373-1.105 3.434-1.754a.699.699 0 0 1 1.016.294.702.702 0 0 1 .059.389l-.004.028a4.34 4.34 0 0 0-.711.375.615.615 0 0 0-.079.956c.09.084.204.139.326.158l.012.002.026.004a6.097 6.097 0 0 1-1.121 1.755c-.461 2.485-2.437 2.721-4.551 1.997h-.002a14.93 14.93 0 0 1-1.002 2.928h-3.583c-.013-.04-.024-.081-.036-.121.332.021.665.001.991-.059l-.797-.981-.017-.019-.406-.5a5.985 5.985 0 0 1 .175-1.519ZM31.944 221.906a.453.453 0 0 1-.327-.782l.031-.123-.012-.029a1.208 1.208 0 0 0-1.12-.74 1.213 1.213 0 0 0-1.115.748c-.365.88-.83 1.762-.945 2.693-.05.412-.03.829.063 1.233a14.372 14.372 0 0 1-1.308-5.969 13.884 13.884 0 0 1 .284-2.802 14.543 14.543 0 0 1 2.883-6.161 3.868 3.868 0 0 0 1.609-1.669c.128-.255.218-.526.268-.807a3.635 3.635 0 0 1-.236-1.255c-.11-.166-.304-.248-.424-.41-.593-.804-1.41-.664-1.836.429-.911.46-.92 1.222-.36 1.956.355.466.404 1.097.716 1.597l-.098.122a14.659 14.659 0 0 0-1.527 2.419 6.083 6.083 0 0 0-.363-2.825c-.348-.838-1-1.544-1.573-2.269a1.25 1.25 0 0 0-2.223.613l-.004.032c.085.048.169.099.25.153a.606.606 0 0 1 .258.641.608.608 0 0 1-.504.473l-.013.002c.03.307.084.611.16.91-.735 2.846.854 3.883 3.122 3.929.05.026.1.052.15.076a14.942 14.942 0 0 0-.805 3.783c-.058.761-.054 1.526.01 2.287l-.003-.027a3.743 3.743 0 0 0-1.278-2.161c-.983-.808-2.372-1.105-3.433-1.754a.704.704 0 0 0-1.016.294.7.7 0 0 0-.06.389l.005.028a4.322 4.322 0 0 1 .71.375.616.616 0 0 1 .258.642.612.612 0 0 1-.504.472l-.012.002-.026.004c.27.645.65 1.239 1.12 1.755.461 2.485 2.438 2.721 4.552 1.997h.001a14.946 14.946 0 0 0 1.003 2.928h3.583l.036-.121a4.066 4.066 0 0 1-.992-.059l.798-.981a.18.18 0 0 0 .016-.019l.406-.5a5.967 5.967 0 0 0-.175-1.519Z"/><path fill="#E6E6E6" d="M86.09 29.401c.725-1.46 1.884-2.671 2.593-4.138.708-1.468.846-3.431-.335-4.555-1.002-.953-2.572-.966-3.771-1.657-3.054-1.76-3.05-7.35-6.542-7.832-1.698-.235-3.234 1.038-4.26 2.411-1.027 1.373-1.845 2.975-3.268 3.93-1.61 1.081-3.694 1.128-5.483 1.88-3.43 1.44-5.228 5.142-6.732 8.544-.968 2.192-1.96 4.557-1.51 6.91-.977.609-.541 2.244.434 2.854.975.61 2.2.597 3.32.862 2.353.556 4.28 2.43 5.193 4.668.712 1.745.858 3.661.995 5.541l.715 9.785c.106 1.451.246 2.994 1.129 4.15.883 1.156 2.796 1.64 3.789.577.949-1.016.521-2.626.502-4.016-.02-1.39 1.238-3.122 2.423-2.394l.418-.949a14.96 14.96 0 0 0 9.867-12.863c.303-4.616-1.534-9.565.524-13.708ZM88.857 58.67a1.883 1.883 0 0 0-1.081-3.243l.004.157a3.24 3.24 0 0 1-1.68.442 5.087 5.087 0 0 0-1.729.273 1.458 1.458 0 0 0-.959 1.341 1.415 1.415 0 0 0 .763 1.063c.409.201.847.334 1.298.394 1.162.219 2.523.384 3.384-.427ZM111.525 29.478c.487-.33.901-.759 1.215-1.257a1.46 1.46 0 0 0-.095-1.647 1.956 1.956 0 0 0-1.323-.478 10.298 10.298 0 0 0-3.901.46l3.877 3.434.227-.512ZM105.063 32.456c.522.576.356 1.47.208 2.234s-.167 1.718.49 2.135c.57.361 1.369.066 1.785-.464a4.113 4.113 0 0 0 .661-1.888c.204-.98.297-1.98.275-2.981a4.598 4.598 0 0 0-1.012-2.767 3.261 3.261 0 0 0-3.693-.863l.6-.03a5.864 5.864 0 0 0-.977 1.874 1.99 1.99 0 0 0 .494 1.96c.356.31.852.44 1.169.79ZM134.521 22.787l.106-.329a2.252 2.252 0 0 0-1.012 2.646 2.47 2.47 0 0 0 .768-1.035c.159-.408.206-.85.138-1.282ZM128.718 27.492a4.186 4.186 0 0 0 2.09-3.128 2.309 2.309 0 0 0-.136-1.194 1.231 1.231 0 0 0-.899-.743l-.243.383c-.349-.3-.934.009-1.081.445-.095.453-.055.923.113 1.354.168.433.161.915-.021 1.343a4.863 4.863 0 0 1-.658.691.69.69 0 0 0-.126.866c.229.262.657.152.961-.017ZM126.244 25.355c.208-.375.306-.8.283-1.228l-.532-.167c-.34.138-.641.356-.878.635a.689.689 0 0 0 .103 1.063.695.695 0 0 0 .847-.058.685.685 0 0 0 .177-.245ZM152.232 22.664l.144.122c.042-.009.082-.025.126-.03l-.27-.092ZM151.38 27.33l1.464-1.185c.259-.183.48-.415.651-.684.116-.253.166-.533.146-.811a1.665 1.665 0 0 0-.264-.782 4.388 4.388 0 0 0-1.001-1.082 1.813 1.813 0 0 0-1.382 1.967c.088.56.44 1.16.153 1.648-.112.19-.304.32-.433.499-.129.18-.171.465.006.596.197.147.469-.012.66-.166ZM152.447 29.747a1.266 1.266 0 0 0 .981-.385 8.666 8.666 0 0 0 1.694-1.862l-3.295 1.044.342.4c-.304.199-.079.735.278.803ZM155.526 32.008a.841.841 0 0 0 .869.531 1.26 1.26 0 0 0 .896-.574 1.668 1.668 0 0 0-1.312-2.605l.303.463c.077.791-.998 1.428-.756 2.185ZM176.858 40.67a1.713 1.713 0 0 0 2.055-.005 1.833 1.833 0 0 0 .11-2.687l-.561.314a1.43 1.43 0 0 0-1.945.386 1.557 1.557 0 0 0 .341 1.992ZM183.381 41.408a1.661 1.661 0 0 0 1.14-1.157l-1.091-.144a2.41 2.41 0 0 0-1.03-.45.828.828 0 0 0-.898.53.896.896 0 0 0 .305.819 1.662 1.662 0 0 0 1.574.402ZM178.877 43.589a.943.943 0 0 0 .629.788 1.017 1.017 0 0 0 1.131-.176.621.621 0 0 0-.227-.99l-.818-.148c-.316-.164-.72.17-.715.526ZM131.422 49.34l-.633-.578c.169.234.384.431.633.578ZM126.587 45.936c.39 1.81 2.339 3.284 4.109 2.74l.093.086c-.563-.772-.659-1.912-.527-2.905a10.227 10.227 0 0 1 5.9-7.86 2.439 2.439 0 0 0 1.107-.722c.252-.368.158-1-.277-1.105a1.033 1.033 0 0 0-.674.156l-3.289 1.619c-1.661.817-3.355 1.658-4.66 2.972-1.304 1.313-2.171 3.21-1.782 5.019ZM73.502 108.168a40.394 40.394 0 0 0-9.97-5.21c-2.182-.776-4.527-1.368-6.8-.927a8.099 8.099 0 0 0-5.727 4.571 8.478 8.478 0 0 0 .277 7.349c1.048 1.964 2.864 3.529 3.47 5.672.41 1.444.216 2.982.02 4.471l-1.208 9.124c-.367 2.77-.724 5.652.153 8.304s3.379 4.99 6.158 4.708l.55-.041c-1.838-1.25-2.353-3.838-1.806-5.993.547-2.155 1.937-3.982 3.293-5.744l12.076-15.68c1.629-2.115 3.352-4.729 2.483-7.253-.494-1.435-1.735-2.467-2.969-3.351ZM46.07 94.954c-.408-.138-.839.17-1.078.527a7.23 7.23 0 0 1-.68 1.093c-.628.647-1.77.518-2.447-.077-.676-.594-.97-1.514-1.1-2.405-.158-1.069-.09-2.261.616-3.08.726-.842 1.92-1.068 3.018-1.243 1.135-.181 2.406-.332 3.336.343.585.426.927 1.112 1.469 1.591.542.48 1.507.66 1.916.063a1.47 1.47 0 0 0-.02-1.362 3.334 3.334 0 0 1-.405-1.349c.027-.657.555-1.179 1.095-1.554.54-.376 1.149-.7 1.503-1.254.435-.681.39-1.559.66-2.321.653-1.845 2.987-2.666 3.667-4.502.164-.386.182-.818.052-1.217-.285-.73-1.054-.587-1.1-1.481-.046-.855.667-1.693 1.392-2.05.998-.492 2.163-.452 3.276-.482 1.113-.03 2.313-.178 3.13-.935a2.697 2.697 0 0 0-.287-4.013c-.609-.42-1.378-.566-1.97-1.01-.739-.552-1.088-1.471-1.662-2.191a8.43 8.43 0 0 0-1.628-1.441l-1.479-1.098c-.891-.661-1.819-1.34-2.903-1.575-1.085-.236-2.377.098-2.92 1.066a3.293 3.293 0 0 0-.343 1.386c-.049 1.133-.002 2.27.142 3.395l.268 2.718c.08.813-.005 1.883-.794 2.094-1.75.468-1.16-2.118-1.547-2.91-.594-1.214-3.322-1.796-4.489-2.302-.728-.315-1.497-.664-1.937-1.325-.547-.822-.435-1.942-.006-2.832.43-.89 1.13-1.614 1.765-2.371.647-.771 1.237-1.59 1.826-2.406l2.05-2.843c.877-1.215 1.798-2.698 1.3-4.111a1.106 1.106 0 0 0-2.024.244c-.218.763.364 1.737-.193 2.302a1.044 1.044 0 0 1-1.34-.025 3.042 3.042 0 0 1-.8-1.21c-.675-1.5-1.332-3.008-2.024-4.499-.22-.471-.448-1.278-1.111-1.199-.576.07-.887.908-.867 1.396.03.709.421 1.342.72 1.985.3.643.51 1.416.18 2.044-.416.797-1.47.975-2.368.95a11.108 11.108 0 0 1-4.849-1.28l-.117 2.495-3.576-1.496-.694-.29c-1.006-.422-2.012-.843-3.047-1.185a42.223 42.223 0 0 0-1.78-.53l-1.085-.306a5.7 5.7 0 0 0-2.229-.317c-.795.1-1.504.526-2.24.846-1.64.712-3.761-.005-5.519-.017a7.38 7.38 0 0 0-12.398.343 14.763 14.763 0 0 0-.824 1.657l-.716 1.603c-.35.785-.707 1.61-.638 2.466.068.856.724 1.73 1.583 1.723-2.025.916-2.446 4.124-.727 5.532.476.39 1.06.645 1.489 1.087a2.333 2.333 0 0 1-1.754 3.957 5.683 5.683 0 0 0 6.756-2.117C8.3 66.5 8.62 65.062 9.62 64.132c1.324-1.231 3.51-1.136 5.038-.167 1.527.968 2.494 2.617 3.158 4.299.871 2.203 1.428 4.722 3.284 6.196.897.713 2.033 1.114 2.826 1.941 1.13 1.178 1.325 2.956 1.3 4.588-.026 1.631-.202 3.324.392 4.844.595 1.52 2.299 2.77 3.826 2.197a6.087 6.087 0 0 0 2.548 7.108l-.835-5.18c1.388.39 2.287 1.737 2.806 3.081.52 1.345.794 2.799 1.547 4.028 1.185 1.935 3.332 2.77 5.515 2.762 2.36-.008 3.255-1.133 4.81-2.789.312-.283.549-.639.69-1.036a.871.871 0 0 0-.455-1.049ZM52.749 94.868l-3.956-.621 2.074 1.246a7.501 7.501 0 0 0 1.862.898 2.53 2.53 0 0 0 2.004-.211l-.169-.323c-.266-.672-1.1-.876-1.815-.989ZM51.853 102.198l.01-.023a.777.777 0 0 0-.787-.365c-.304.055-.614.06-.92.015a1.309 1.309 0 0 1-.79-.898c-.131-.395-.17-.817-.32-1.204a1.767 1.767 0 0 0-1.427-1.165 1.234 1.234 0 0 0-1.328 1.114c.026.332.132.654.308.936l.427.821c.12.245.258.481.412.706a2.749 2.749 0 0 0 2.192 1.137 2.752 2.752 0 0 0 2.223-1.074ZM44.153 32.03c1.004.593 2.26 1 2.738 2.064l.275.089-.9 1.12c-.371.46-.761.974-.753 1.565.012.815.796 1.43 1.588 1.622a3.48 3.48 0 0 0 4.022-2.371c.095-.343.133-.7.216-1.046a8.512 8.512 0 0 1 1.078-2.316l7.998-13.455c.332-.56.674-1.227.425-1.827a1.435 1.435 0 0 0-1.418-.76 4.208 4.208 0 0 0-1.612.542 2.748 2.748 0 0 0-2.15-1.378 8.115 8.115 0 0 0-2.636.23 16.239 16.239 0 0 0-5.533 1.9c-.938.474-1.97 1.06-2.242 2.075-.335 1.248.744 2.52 1.986 2.88 1.241.358 2.566.057 3.823-.245a2.893 2.893 0 0 1-4.836 2.73c-.9-.878-1.342-2.4-2.579-2.627-1.233-.225-2.212 1.09-2.485 2.313a6.572 6.572 0 0 0 2.995 6.896Z"/><path fill="#E6E6E6" d="M59.615 53.613a23.645 23.645 0 0 0-2.326-4.773 14.264 14.264 0 0 0-2.644-3.186 10.215 10.215 0 0 0-3.198-1.873c-1.137-.411-2.402-.614-3.552-.24-1.149.375-2.127 1.444-2.103 2.653.025 1.336 1.195 2.381 2.413 2.93 1.22.55 2.575.788 3.724 1.47A5.581 5.581 0 0 1 54.61 55.1l.29.48a5.786 5.786 0 0 0-1.806.983 1.963 1.963 0 0 0-.687 1.846c.201.81 1.028 1.274 1.775 1.644l4.142 2.051c-.703-2.096 1.599-4.047 1.726-6.254a5.781 5.781 0 0 0-.435-2.237ZM24.9 47.954c.837.65 2.124.346 2.892-.386.767-.732 1.14-1.774 1.489-2.775-.127.991-.115 1.995.036 2.983a3.617 3.617 0 0 0 1.572 2.444c.379.208.787.357 1.21.44 1.97.449 4.027.302 5.912-.421l.017-.645c-.947.108-1.664-.93-1.727-1.882-.062-.95.283-1.883.313-2.836.03-.953-.428-2.066-1.366-2.235a1.813 1.813 0 0 1-2.306 2.488c-1.086-.442-1.48-1.764-2.32-2.582a3.518 3.518 0 0 0-3.86-.544 4.787 4.787 0 0 0-2.483 3.157c-.254.978-.179 2.173.62 2.794ZM50.747 41.166l.04-.063c-.235-.675-.96-1.071-1.667-1.172a10.827 10.827 0 0 0-2.137.07 3.1 3.1 0 0 1-2.05-.45c-.487-.365-.764-.937-1.154-1.404-.39-.467-1.02-.851-1.585-.628-.612.242-.775 1.1-.478 1.687.35.564.878.995 1.5 1.225a11.574 11.574 0 0 0 7.531.735ZM42.702 43.19a.94.94 0 0 0 1.047 1.56l.207.203c.274-.492.388-1.15.036-1.591a.975.975 0 0 0-1.29-.172ZM40.285 44.954a.87.87 0 0 0-.543-.821.835.835 0 0 0-.968.716 1.664 1.664 0 0 0 .436 1.252 1.146 1.146 0 0 0 .796.5c.324.01.654-.328.523-.624l-.495-.01c.153-.316.238-.661.25-1.013ZM30.62 39.893l.544.441c.314.272.654.513 1.014.72.63.35 1.371.44 2.067.253a2.128 2.128 0 0 0 1.455-1.435c.217-.818-.137-1.667-.484-2.44a1.48 1.48 0 0 0-.38-.58.508.508 0 0 0-.642-.025.634.634 0 0 0-.104.61c.075.204.109.42.1.636-.034.213-.258.415-.455.327l-.032.727c-.942-.478-1.44-1.747-2.49-1.872a1.294 1.294 0 0 0-1.292 1.9c.182.29.42.54.698.738ZM28.374 36.756a1.436 1.436 0 0 0 .612-1.367.884.884 0 0 0-1.198-.64 1.42 1.42 0 0 0-.534.82l-.745 2.101.418-.303a4.221 4.221 0 0 0 1.447-.611ZM33.212 32.456a.821.821 0 0 0-.254-1.233l-.521-.05a.784.784 0 1 0 .775 1.283ZM38.015 33.262c.487.233 1.103.455 1.527.12a.963.963 0 0 0 .295-.918 2.334 2.334 0 0 0-.43-.907 8.715 8.715 0 0 0-2.424-2.34l-.236.305c-.329.854-.647 1.852-.188 2.644.31.534.899.83 1.456 1.096ZM41.644 34.022l.91.412a.853.853 0 0 0-.91-.412ZM39.189 36.888l-.43.142c-.367.601-.208 1.37-.038 2.053.108.432.34.964.785.944.433-.019.624-.544.707-.969.13-.462.144-.948.041-1.416a1.004 1.004 0 0 0-1.065-.754ZM32.325 34.864l.318.128a.343.343 0 1 0-.318-.128ZM48.38 59.216a.968.968 0 0 0-.885 1.305c.313.673 1.39.676 1.869.109a1.465 1.465 0 0 0-.378-2.123l-.605.71ZM63.894 75.17a.968.968 0 0 0-.679 1.212l.894.062.909-.456a.968.968 0 0 0-1.124-.818ZM60.26 76.276a1.848 1.848 0 0 0-.775 1.617 1.478 1.478 0 0 0 1.157 1.307 1.236 1.236 0 0 0 1.396-.947c.152-.925-.842-1.602-1.2-2.469l-.578.492ZM94.99 70.167c.095.695-.531 1.303-.554 2.003-.028.831.877 1.478 1.704 1.396a2.696 2.696 0 0 0 1.936-1.422l.018-.078-1.21-1.366c-.494-.56-1.019-1.197-1-1.943.01-.368.155-.725.147-1.093a2.646 2.646 0 0 0-.175-.773c-.11-.325-.258-.692-.583-.802-.408-.138-.819.223-1.013.607a2.4 2.4 0 0 0 .07 2.26c.236.4.598.752.66 1.211ZM91.19 72.61a.694.694 0 0 0 .579.037c.359-.06.704-.186 1.018-.37a1.03 1.03 0 0 0 .499-.91 1.19 1.19 0 0 0-.97-.9 1.042 1.042 0 0 0-.97.148c-.3.282-.264.76-.205 1.167l-.064.106c-.056.252-.092.565.112.722ZM154.625 102.284l-.262-.65c-.119.294-.075.595.262.65Z"/><path fill="#E6E6E6" d="M206.951 56.69c-1.118-1.214-1.803-1.914-2.51-3.418a5.535 5.535 0 0 0-4.19-3.147c-2.321-.383-4.692.223-7.041.102-3.762-.195-7.155-2.213-10.758-3.313a45.006 45.006 0 0 0-6.147-1.268l-3.59-.568c-3.921-.62-7.868-1.242-11.838-1.16-1.144.024-2.739-.32-2.647-1.461.114-1.418 2.664-1.232 3.154-2.566.304-.826-.423-1.693-1.219-2.066-.797-.374-1.716-.486-2.439-.987-.723-.501-1.119-1.663-.454-2.24l-5.525 2.832c-1.531.785-3.241 1.806-3.512 3.505a4.062 4.062 0 0 0-2.28 1.584c-1.036.006-1.85 1-2.021 2.022-.171 1.022.14 2.056.447 3.045-.376-.72-.775-1.467-1.437-1.937s-1.67-.559-2.235.025c-.579.598-.444 1.603-.034 2.328.41.725 1.039 1.31 1.426 2.049 1.208 2.304-.981 5.549-3.57 5.292l.521-7.14c.11-.731.049-1.479-.18-2.183-.282-.681-1.005-1.24-1.725-1.08-1.294.29-1.184 2.185-.645 3.397.538 1.212 1.075 2.897-.024 3.64-.71.479-1.672.183-2.438-.2-.766-.383-1.586-.854-2.423-.675-.838.178-1.364 1.459-.624 1.89l-3.682-.64a2.608 2.608 0 0 1-1.173 1.773 2.623 2.623 0 0 1-2.103.317l-.361-1.497-.539-.15c.564.157-.318 2.534-1.109 4.35-1.063-.125-2.616-.15-2.793-.454-.849-1.458-.748-4.932-2.222-5.753a26.25 26.25 0 0 0-2.275-1.124 5.342 5.342 0 0 0-1.284-.422c-.905-.142-1.818.139-2.692.416-1.032.328-2.089.668-2.943 1.333a9.22 9.22 0 0 0-1.855 2.206l-5.063 7.493a8.02 8.02 0 0 0-1.173 2.198 2.872 2.872 0 0 0 .267 2.379 1.841 1.841 0 0 0 2.156.737c.489-.212.979-.692 1.464-.47.367.168.459.65.42 1.052-.093.393-.1.802-.021 1.199.221.625 1.07.843 1.675.572a2.59 2.59 0 0 0 1.231-1.498c.583-1.497.524-3.153.669-4.752.145-1.6.583-3.31 1.844-4.306.378-.297.932-.512 1.321-.229a.947.947 0 0 1 .232 1.072c-.162.358-.374.69-.629.989a5.414 5.414 0 0 0-.892 4.23l.258.16c.983-.255 2.299.201 3.605.64a4.69 4.69 0 0 0-2.384 1.64c-1.51 2.117-2.602 4.12-5.587 4.095-.708-.005-1.411-.145-2.119-.147a2.771 2.771 0 0 0-1.965.654c-.537.526-.703 1.326-1.162 1.921-.604.782-1.613 1.1-2.535 1.455-.674.26-1.385.61-1.694 1.262a3.127 3.127 0 0 0-.13 1.672c.104.988.287 2.111 1.126 2.645a2.666 2.666 0 0 0 2.051.173c.872-.212 1.725-.611 2.62-.552 1.405.094 2.563 1.443 2.577 2.852.007.713-.201 1.53.272 2.065.444.501 1.325.412 1.785-.075a2.061 2.061 0 0 0 .388-1.888 6.075 6.075 0 0 0-.89-1.792 2.091 2.091 0 0 1 2.406 1.112c.313.694.212 1.495.311 2.249.1.754.559 1.592 1.318 1.635a1.063 1.063 0 0 0 1.07-.84 7.688 7.688 0 0 0-.062-1.144 1.468 1.468 0 0 1 1.481-1.366 2.093 2.093 0 0 0 .512 2.61c.578.448 1.342.548 2.062.673.72.125 1.488.323 1.953.887.774.939-.173 1.362-.321 2.158-.181.976.635 2.419.948 3.353l4.321 6.043c.321.49.7.94 1.129 1.34 1.421 1.22 3.765 1.1 5.128-.186a4.393 4.393 0 0 0 .746-5.17c-.842-1.534-2.511-2.483-3.336-4.027a8.802 8.802 0 0 0 4.831 1.987 24.356 24.356 0 0 1 8.776 3.68 12.234 12.234 0 0 0 3.017 7.511 10.816 10.816 0 0 1 3.139-6.232c1.109-1.082 2.625-1.954 4.147-1.663 1.522.29 2.677 2.232 1.756 3.478l2.314.172 1.038 2.581a.891.891 0 0 1 .872-.605c.722.109 1.228.781 1.915 1.029 1.295.467 2.679-.828 2.847-2.195.167-1.366-.483-2.685-1.114-3.909a7.296 7.296 0 0 0 7.497-11.07 18.567 18.567 0 0 1 5.219-3.842c1.806-.892 3.781-1.505 5.359-2.756 1.579-1.252 2.685-3.425 1.926-5.29-.536-1.319-1.881-2.213-2.284-3.578-.582-1.976 1.188-4.02 3.188-4.513 1.999-.493 4.088.113 6.058.715-.303-2.027 2.047-3.927 3.966-3.207l2.411-.976c-.932 2.054-2.951 3.36-4.435 5.058-1.485 1.698-2.369 4.464-.818 6.101l6.668-6.043 6.974-6.322-.333-.978c2.2-.835 4.569-1.526 6.672-2.564ZM91.508 83.801a.765.765 0 0 0 .005.88.674.674 0 0 0 .858.012c.239-.204.425-.462.544-.753a1.225 1.225 0 0 0 1.245.652c.498-.075.97-.272 1.373-.573.32-.187.603-.433.834-.723a1.189 1.189 0 0 0 .21-1.049 1.805 1.805 0 0 0-.542-.7l-1.764-1.63-.2-.06a1.122 1.122 0 0 0-1.621-.016c-.365.408-.367 1.019-.311 1.564.056.546.142 1.127-.1 1.618-.14.282-.375.505-.53.778Z"/><path fill="#E6E6E6" d="M125.63 102.358a12.262 12.262 0 0 1-9.319-9.367c-.216-1.08-.315-2.26-1.033-3.094-.695-.808-1.831-1.1-2.898-1.1-1.066 0-2.117.246-3.181.312-1.86.116-3.831-.375-5.162-1.681-.63-.618-1.107-1.404-1.843-1.891-.989-.656-2.3-.655-3.426-.284-1.255.414-2.26 1.546-3.632 1.39-1.427-.162-3.081-.666-3.641 1.213-.161.54-.106 1.134-.31 1.66-.315.812-1.15 1.27-1.81 1.836-1.33 1.142-2.037 2.876-2.275 4.612-.238 1.737-.054 3.5.13 5.243.1.94.231 1.952.877 2.642.9.963 2.41.925 3.724.817l4.577-.378c.823-.068 1.76-.097 2.345.485.351.348.5.853.808 1.239a1.903 1.903 0 0 0 2.321.468 3.853 3.853 0 0 0 2.907 5.709l.118.074c-.977 1.673-1.991 3.551-1.586 5.445.348 1.624 1.693 2.927 1.913 4.573.202 1.51-.587 3.055-.238 4.539.353 1.502 1.87 2.549 3.409 2.661 1.54.112 3.052-.571 4.244-1.551 1.192-.98 2.114-2.242 3.022-3.489.561-.771 1.136-1.572 1.329-2.505.205-.993-.033-2.094.45-2.985.557-1.029 1.879-1.414 2.546-2.374.864-1.244.355-2.937.546-4.439.473-3.718 5.196-6.034 5.088-9.78ZM124.948 115.048c-.129.581-.672.963-1.19 1.255-.518.292-1.088.587-1.351 1.12-.271.546-.147 1.196-.006 1.788a44.598 44.598 0 0 0 1.039 3.655 37.14 37.14 0 0 0 2.02-4.52 5.94 5.94 0 0 0 .443-1.812 2.234 2.234 0 0 0-.609-1.713l-.346.227ZM156.731 108.584l-1.946-2.248c-.444-.512-.95-1.06-1.623-1.145l-.277.177 1.688 4.019c.2.612.55 1.164 1.02 1.604.503.395 1.32.471 1.74-.012a1.29 1.29 0 0 0 .153-1.281 3.79 3.79 0 0 0-.755-1.114ZM163.02 110.018a1.867 1.867 0 0 0 1.103-1.028c.201-.478.334-.982.395-1.498l.332-2.012-.145-.038a.645.645 0 0 0-.819.228 3.187 3.187 0 0 0-.367.857 1.035 1.035 0 0 1-.593.682c-.521.157-1.014-.395-1.558-.373a.975.975 0 0 0-.851.873c-.032.445.094.887.356 1.248.464.72 1.324 1.298 2.147 1.061ZM166.608 111.29l1.496-3.939a3.845 3.845 0 0 0-1.496 3.939ZM174.241 108.115l-.303.012a1.96 1.96 0 0 0-.016 1.728 3.882 3.882 0 0 0 1.128 1.371 7.924 7.924 0 0 0 2.489 1.39c1.33.388 2.705.6 4.09.63l2.376.156c.377.024.865-.023.969-.386.087-.3-.168-.582-.407-.784a14.928 14.928 0 0 0-7.34-3.331c-1.027-.156-2.116-.22-2.986-.786ZM182.692 118.569l-1.708-1.657c-.554-.537-1.383-1.106-2.018-.668-.365.253-.477.744-.787 1.062a1.512 1.512 0 0 1-1.408.335 4.472 4.472 0 0 1-1.36-.644l-1.413-.877-1.462-.908-1.101 1.07c.048-.527-.653-.869-1.139-.66a1.757 1.757 0 0 0-.877 1.252 6.875 6.875 0 0 1-.42 1.524c-.559 1.069-1.915 1.386-3.109 1.565-1.193.179-2.545.431-3.183 1.455-.532.853-.373 1.948-.195 2.937l.672 3.743c.032.453.214.883.517 1.221.591.522 1.506.205 2.227-.113a15.055 15.055 0 0 1 4.786-1.387 6.909 6.909 0 0 1 4.743 1.214c.855.651 1.507 1.553 2.413 2.131a4.776 4.776 0 0 0 4.187.366 6.24 6.24 0 0 0 3.185-2.84 7.463 7.463 0 0 0-.161-7.385 14.624 14.624 0 0 0-2.389-2.736ZM181.013 133.816a1.013 1.013 0 0 0-.064 1.193c.248.355.627.599 1.053.677a4.86 4.86 0 0 0 1.28.059l.013-.319a3.277 3.277 0 0 0-.749-1.511c-.413-.392-1.142-.513-1.533-.099ZM195.676 134.157l-.204-.074-1.458 2.197c-.261.394-.534.867-.374 1.312.188.527.886.681 1.428.542a2.252 2.252 0 0 0 1.63-1.789 2.213 2.213 0 0 0-1.022-2.188ZM199.38 131.833l-1.341-1.066-.054 1.484-.05.001c.309.271.601.562.874.869.314.267.841.389 1.109.077a.703.703 0 0 0 .029-.775 2.07 2.07 0 0 0-.567-.59ZM175.147 85.44c-.563-.017-1.186-.052-1.622.305a2.194 2.194 0 0 0-.374.436l-.154.215c-.23.302-.431.624-.599.964a1.27 1.27 0 0 0-.082 1.051.613.613 0 0 0 .654.356.613.613 0 0 0 .246-.098c.24-.223.184-.627.366-.9a.843.843 0 0 1 .677-.324c.26.007.519.036.774.088a3.728 3.728 0 0 0 4.237-3.694 3.728 3.728 0 0 0-.586-2.01l-.045-.138a1.665 1.665 0 0 0-1.691 1.303c-.125.655.141 1.417-.256 1.954-.335.452-.982.51-1.545.492ZM180.185 78.488l-.085-.008a4.35 4.35 0 0 0-1.428.532.663.663 0 0 0-.325.33.48.48 0 0 0 .114.442c.109.115.237.211.378.284.21.14.443.245.688.308a.765.765 0 0 0 .702-.181c.087-.12.147-.257.176-.403a1.03 1.03 0 0 0-.011-.438 4.373 4.373 0 0 0-.209-.866ZM171.51 85.607c.135-.215.23-.453.283-.701l.157-.58-.561-.34c-.268.139-.515.315-.734.523a1.086 1.086 0 0 0-.337.811.665.665 0 0 0 .55.626.74.74 0 0 0 .642-.339ZM110.389 33.434c-.221.138-.159.472-.069.718l.31.845.145-.547c.127-.212.183-.46.16-.705-.05-.24-.337-.441-.546-.311Z"/><path fill="#fff" d="M250.469 84.197h-93.84a8.543 8.543 0 0 1-8.531-8.531V8.53A8.54 8.54 0 0 1 156.629 0h93.84A8.539 8.539 0 0 1 259 8.53v67.136a8.54 8.54 0 0 1-8.531 8.53Z"/><path fill="#111" d="M250.469 84.197h-93.84a8.543 8.543 0 0 1-8.531-8.531V8.53A8.54 8.54 0 0 1 156.629 0h93.84A8.539 8.539 0 0 1 259 8.53v67.136a8.54 8.54 0 0 1-8.531 8.53ZM156.629.742a7.797 7.797 0 0 0-7.789 7.789v67.135a7.798 7.798 0 0 0 7.789 7.789h93.84a7.798 7.798 0 0 0 7.789-7.79V8.532a7.798 7.798 0 0 0-7.789-7.79h-93.84Z"/><path fill="#CCC" d="M182.16 10.222h-14.836a1.482 1.482 0 0 1-1.049-2.533 1.482 1.482 0 0 1 1.049-.434h14.836a1.482 1.482 0 0 1 1.049 2.532 1.482 1.482 0 0 1-1.049.435ZM214.429 43.604h-47.105a1.482 1.482 0 0 1-1.049-2.533 1.482 1.482 0 0 1 1.049-.434h47.105a1.486 1.486 0 0 1 1.484 1.483 1.484 1.484 0 0 1-1.484 1.484Z"/><path fill="#62719A" d="M175.668 34.237c5.494 0 9.947-4.453 9.947-9.947 0-5.494-4.453-9.947-9.947-9.947-5.494 0-9.947 4.453-9.947 9.947 0 5.494 4.453 9.947 9.947 9.947Z"/><path fill="#111" d="M168.066 71.937h-2.226v.742h2.226v-.742ZM233.409 72.678h-4.668v-.741h4.668v.742Zm-9.335 0h-4.667v-.741h4.667v.742Zm-9.335 0h-4.667v-.741h4.667v.742Zm-9.334 0h-4.668v-.741h4.668v.742Zm-9.335 0h-4.667v-.741h4.667v.742Zm-9.335 0h-4.667v-.741h4.667v.742Zm-9.334 0h-4.668v-.741h4.668v.742ZM240.301 71.937h-2.225v.742h2.225v-.742Z"/><path fill="#62719A" d="M203.613 58.811h-1.854v12.611h1.854V58.811ZM222.53 58.811h-1.855v12.611h1.855V58.811ZM231.802 65.858h-1.854v5.564h1.854v-5.564ZM212.886 53.247h-1.855v18.175h1.855V53.247ZM33.366 84.033a2.225 2.225 0 1 0 0-4.451 2.225 2.225 0 0 0 0 4.45ZM39.3 73.277a2.226 2.226 0 1 0 0-4.451 2.226 2.226 0 0 0 0 4.45ZM104.58 64.746a2.225 2.225 0 1 0 .001-4.451 2.225 2.225 0 0 0-.001 4.45Z"/><path fill="#FFB6B6" d="M53.497 221.606h3.356l1.597-12.948-4.954.001v12.947Z"/><path fill="#111" d="m53.379 225.108 10.322-.001v-.13a4.017 4.017 0 0 0-4.018-4.018l-1.886-1.43-3.518 1.43h-.9v4.149Z"/><path fill="#FFB6B6" d="M78.719 221.606h3.356l1.597-12.948-4.954.001v12.947Z"/><path fill="#111" d="m78.6 225.108 10.323-.001v-.13a4.017 4.017 0 0 0-4.018-4.018l-1.886-1.43-3.518 1.43h-.9v4.149Z"/><path fill="#FFB6B6" d="m53.366 116.282 5.957-.853c2.015 3.369 2.73 12.336 2.73 12.336l5.83 13.857a2.655 2.655 0 0 1-.339 4.591 2.663 2.663 0 0 1-2.651-.199 2.66 2.66 0 0 1-1.151-2.397l-9.572-16.129-.804-11.206Z"/><path fill="#111" d="M56.595 99.744a6.343 6.343 0 0 0-5.346 5.64 6.35 6.35 0 0 0 .33 2.747l1.264 3.583s-1.592 10.789 1.032 13.834l8.053-.729s-1.472-5.443-.342-8.076c.692-1.613.654-7.184-.028-11.715-.521-3.46-1.505-5.82-4.963-5.284ZM84.366 132.251s6.207 6.054 4.882 7.452c-1.326 1.398-4.358 3.356-1.544 3.675 2.814.319 3.982 1.011 1.544 1.592-2.439.582-2.062 2.075-2.062 2.075s3.67 17.475.889 28.973c0 0-1.548 31.406-2.52 33.852-.971 2.446-1.342.962-.971 2.446.37 1.483 1.112-1.113.37 1.483a34.302 34.302 0 0 0-.959 4.132l-7.256-1.113s-1.168-3.682 0-4.648c1.168-.967 2.216-.371.95-2.524-1.265-2.152-1.636.815-1.265-2.152.37-2.967-1.178-19.016 1.266-27.497l-4.516-23.799-7.168 24.642s-3.802 30.096-5.038 31.157c-1.235 1.06-3.09-.794-1.235 1.06 1.854 1.855 1.822 1.536 1.854 1.855.346 3.402-10.273-.319-10.273-.319a19.06 19.06 0 0 0 0-2.596c-.112-.794 1.224-1.048 0-1.848-1.225-.801.597-.007.597-.007s2.739-22.203 4.822-28.931l2.411-32.765s.153.654 0-.935c-.153-1.588-1.266-.475-.153-1.588s1.855-1.68 1.113-2.509-2.788-2.507-1.58-3.523c1.209-1.015 3.587-7.64 3.587-7.64l23.182.186"/><path fill="#111" d="m75.65 95.467-4.18-4.707-6.605.734-4.228 5.918a9.028 9.028 0 0 0-6.873 10.341c1.641 9.448 7.218 18.613 5.376 23.275-2.795 7.077-2.965 9.963 3.726 8.971 6.69-.992 29.106-3.279 24.76-7.625s-5.3-11.608-5.3-11.608l-.174-16.615a7.388 7.388 0 0 0-3.621-7.763 7.384 7.384 0 0 0-2.881-.921Z"/><path fill="#FFB6B6" d="m74.508 113.686 5.957-.853c2.015 3.369 2.73 12.335 2.73 12.335l5.83 13.857a2.658 2.658 0 1 1-4.141 1.996l-9.573-16.129-.803-11.206Z"/><path fill="#111" d="M77.737 97.148a6.35 6.35 0 0 0-5.016 8.387l1.264 3.583s-1.592 10.789 1.032 13.834l8.053-.729s-1.472-5.443-.342-8.077c.692-1.613.654-7.183-.028-11.715-.521-3.46-1.505-5.819-4.963-5.283Z"/><path fill="#FFB6B6" d="M66.351 90.355a7.983 7.983 0 1 0 0-15.966 7.983 7.983 0 0 0 0 15.966Z"/><path fill="#111" d="M64.883 90.186c2.224-.557 2.3-1.192 4.523-1.749.707-.177 1.528-.457 1.738-1.156a1.682 1.682 0 0 0-.4-1.447c-.35-.383-.679-.787-.983-1.208a2.424 2.424 0 0 1 1.674-3.632c.687-.117 1.397.065 2.089-.023.949-.121 2.345-3.643 1.737-4.382-.593-.719-1.565-1.148-1.892-2.02-.213-.57-.097-1.209-.192-1.81-.14-.893-1.946 1.578-1.706.707.59-2.136-9.386-2.472-10.424.268-.388 1.024-1.439 1.187-2.247 1.926-.53.485-1.796 2.036-1.98 2.871a6.058 6.058 0 0 0 .086 2.546c.828 3.904 2.197 7.364 5.842 8.99"/><path fill="#CACACA" d="m1.93 225.614 144.552.114a.452.452 0 0 0 .313-.129.423.423 0 0 0 .096-.144.425.425 0 0 0 0-.338.442.442 0 0 0-.409-.273L1.929 224.73a.438.438 0 0 0-.41.611.44.44 0 0 0 .41.273Z"/></g><defs><clipPath id="a"><path fill="#fff" d="M0 0h259v225.728H0z"/></clipPath></defs></svg>
