<svg width="624" height="358" viewBox="0 0 624 358" fill="none" xmlns="http://www.w3.org/2000/svg">
    <path fill-rule="evenodd" clip-rule="evenodd" d="M620.482 355C622.799 339.767 624 324.169 624 308.289C624 138.026 485.88 0 315.5 0C145.12 0 7 138.026 7 308.289C7 324.169 8.20136 339.767 10.5182 355H620.482Z"/>
    <g clip-path="url(#clip0_236_3267)">
        <path d="M419.915 82.0696C419.915 82.0696 408.134 83.3977 407.372 101.642C406.737 116.847 405.443 125.319 411.631 128.491C413.841 129.624 416.44 129.722 418.804 128.949L444.05 120.648C444.05 120.648 444.428 93.2842 435.686 86.6322C426.945 79.9801 419.915 82.0696 419.915 82.0696Z" fill="#888888"/>
        <path d="M433.831 124.003L421.054 128.205V109.812H432.646L433.831 124.003Z" fill="#E1BC9C"/>
        <path d="M394.772 228.409C394.079 232.622 391.269 235.645 388.498 235.158C385.722 234.672 384.038 230.859 384.731 226.646C384.983 224.957 385.653 223.36 386.678 221.992L389.843 204.177L398.459 205.98L394.423 223.348C394.955 224.991 395.076 226.726 394.772 228.409Z" fill="#E1BC9C"/>
        <path d="M424.025 346.869H412.061L405.117 282.925H423.619L424.025 346.869Z" fill="#E1BC9C"/>
        <path d="M400.405 357.145C399.146 357.145 398.024 357.116 397.182 357.036C394.005 356.744 390.971 354.397 389.448 353.029C388.767 352.416 388.544 351.432 388.899 350.585C389.156 349.978 389.666 349.526 390.301 349.342L398.699 346.944L412.301 337.767L412.456 338.042C412.513 338.145 413.847 340.549 414.293 342.175C414.465 342.793 414.419 343.309 414.162 343.709C413.984 343.984 413.732 344.144 413.532 344.236C413.778 344.494 414.551 345.015 416.927 345.392C420.402 345.942 421.123 342.347 421.157 342.198L421.18 342.078L421.283 342.009C422.932 340.944 423.951 340.463 424.3 340.566C424.518 340.629 424.884 340.744 425.869 350.533C425.966 350.842 426.659 353.092 426.189 355.25C425.68 357.597 415.438 356.79 413.389 356.601C413.332 356.607 405.666 357.151 400.411 357.151H400.405V357.145Z" fill="#888888"/>
        <path d="M451.063 346.869H439.092L432.154 282.925H450.651L451.063 346.869Z" fill="#E1BC9C"/>
        <path d="M427.443 357.145C426.183 357.145 425.061 357.116 424.22 357.036C421.042 356.744 418.008 354.397 416.486 353.029C415.804 352.416 415.581 351.432 415.936 350.585C416.194 349.978 416.703 349.526 417.339 349.342L425.737 346.944L439.338 337.767L439.493 338.042C439.55 338.145 440.884 340.549 441.331 342.175C441.502 342.793 441.457 343.309 441.199 343.709C441.022 343.984 440.77 344.144 440.569 344.236C440.815 344.494 441.588 345.015 443.964 345.392C447.439 345.942 448.16 342.347 448.195 342.198L448.217 342.078L448.32 342.009C449.975 340.944 450.988 340.463 451.337 340.566C451.555 340.629 451.921 340.744 452.906 350.533C453.003 350.842 453.696 353.092 453.227 355.25C452.717 357.597 442.476 356.79 440.426 356.601C440.369 356.607 432.704 357.151 427.448 357.151H427.443V357.145Z" fill="#888888"/>
        <path d="M454.503 189.813H396.358L417.259 121.026H440.444L454.503 189.813Z" fill="#BBC4DF"/>
        <path d="M420.917 121.032C420.917 121.032 406.473 120.654 404.956 124.455C403.439 128.256 385.573 218.711 385.573 218.711H397.354L420.917 121.037V121.032Z" fill="#BBC4DF"/>
        <path d="M422.634 114.901C429.665 114.901 435.366 109.2 435.366 102.169C435.366 95.1374 429.665 89.4373 422.634 89.4373C415.602 89.4373 409.902 95.1374 409.902 102.169C409.902 109.2 415.602 114.901 422.634 114.901Z" fill="#E1BC9C"/>
        <path d="M419.153 86.821C419.153 86.821 412.146 115.273 419.938 128.571L408.964 126.241C408.964 126.241 404.71 95.1046 413.263 89.4429L419.153 86.821Z" fill="#888888"/>
        <path d="M442.418 189.813H404.258L383.38 275.506C382.997 279.124 385.292 282.501 388.807 283.446C400.262 286.514 427.752 290.859 469.353 278.752C473.355 277.59 475.627 273.365 474.374 269.386L442.418 189.813Z" fill="#888888"/>
        <path d="M426.99 121.026L438.858 120.505C443.998 120.894 448.647 123.688 451.4 128.044C459.787 141.303 475.478 169.245 461.47 173.074C443.002 178.118 434.055 150.038 434.055 150.038L426.99 121.026Z" fill="#BBC4DF"/>
        <path d="M422.92 129.35C420.482 125.846 420.396 121.719 422.72 120.133C425.05 118.547 428.914 120.11 431.353 123.614C432.349 124.999 432.978 126.613 433.196 128.308L443.334 143.295L435.898 148.006L426.693 132.733C425.164 131.926 423.871 130.764 422.92 129.35Z" fill="#E1BC9C"/>
        <path d="M428.92 141.469L437.295 133.763L453.856 149.18L438.457 159.708L428.92 141.469Z" fill="#DFDFE0"/>
        <path d="M18.5535 103.491H281.464C291.711 103.491 300.018 111.798 300.018 122.045C300.018 132.292 291.711 140.598 281.464 140.598H18.5535C8.30635 140.598 -0.00012207 132.292 -0.00012207 122.045C-0.00012207 111.798 8.30635 103.491 18.5535 103.491Z" fill="#9AA4BE"/>
        <path d="M116.388 357.277C116.388 357.655 116.692 357.958 117.069 357.958H534.563C534.94 357.958 535.244 357.655 535.244 357.277C535.244 356.899 534.94 356.595 534.563 356.595H117.069C116.692 356.595 116.388 356.899 116.388 357.277Z" fill="#DEDEDE"/>
        <path d="M243.08 84.7832H297.665C298.97 84.7832 300.023 85.8365 300.023 87.136C300.023 88.4355 298.97 89.4889 297.665 89.4889H243.08C241.775 89.4889 240.722 88.4355 240.722 87.136C240.722 85.8365 241.775 84.7832 243.08 84.7832Z" fill="#DFDFE0"/>
        <path d="M2.35856 31H56.9431C58.2484 31 59.3017 32.0533 59.3017 33.3528C59.3017 34.6523 58.2484 35.7057 56.9431 35.7057H2.35856C1.05334 35.7114 0 34.6581 0 33.3528C0 32.0533 1.05334 31 2.35856 31Z" fill="#DFDFE0"/>
        <path d="M2.35844 51.5571H162.574C163.88 51.5571 164.933 52.6105 164.933 53.9157C164.933 55.2152 163.88 56.2685 162.574 56.2685H2.35844C1.05321 56.2685 -0.00012207 55.2152 -0.00012207 53.9157C-0.00012207 52.6162 1.05321 51.5571 2.35844 51.5571Z" fill="#DFDFE0"/>
        <path d="M133.825 180.345C133.825 192.687 143.832 202.694 156.174 202.694C159.913 202.694 163.433 201.778 166.524 200.158L188.181 234.506C189.509 236.607 192.343 237.133 194.335 235.645C196.195 234.254 196.596 231.632 195.239 229.743L171.419 196.683C175.787 192.601 178.523 186.791 178.523 180.345C178.523 168.002 168.517 157.996 156.174 157.996C143.832 157.996 133.825 168.002 133.825 180.345ZM136.894 180.345C136.894 169.697 145.526 161.058 156.18 161.058C166.834 161.058 175.466 169.691 175.466 180.345C175.466 190.993 166.834 199.631 156.18 199.631C145.532 199.631 136.894 190.998 136.894 180.345Z" fill="#484662"/>
    </g>
    <defs>
        <clipPath id="clip0_236_3267">
        <rect width="535.244" height="326.958" fill="white" transform="translate(0 31)"/>
        </clipPath>
    </defs>
</svg>
