<svg role="presentation" aria-hidden="true" version="1.1" xmlns="http://www.w3.org/2000/svg">
    <defs>

      <!--Legislation Icon -->
        <symbol id="icon-legislation" width="13" height="16" viewBox="0 0 13 16">
            <path d="M8.4 0L12.448 4.512V16H0V0H8.4ZM7.6 0.927999H0.944V15.072H11.52V5.104H7.6V0.927999ZM10 10.992V12H3.008V10.992H10ZM10 8V8.992H3.008V8H10ZM8.528 1.328V4.4H11.056L8.528 1.328Z"/>
        </symbol>

        <!--navigator Icon -->
        <symbol id="icon-navigator" width="16" height="16" viewBox="0 0 13 16">
            <path fill="#111" d="M8.736 9.472 6.56 7.296l-.72 2.896 2.896-.72Zm-1.472-2.88 2.176 2.16.72-2.88-2.896.72ZM8 0c1.077 0 2.112.208 3.104.624.96.416 1.808.992 2.544 1.728a8.145 8.145 0 0 1 1.728 2.544C15.792 5.888 16 6.923 16 8a7.948 7.948 0 0 1-.624 3.104 8.145 8.145 0 0 1-1.728 2.544 8.145 8.145 0 0 1-2.544 1.728A7.948 7.948 0 0 1 8 16a7.948 7.948 0 0 1-3.104-.624 8.145 8.145 0 0 1-2.544-1.728 8.145 8.145 0 0 1-1.728-2.544A7.948 7.948 0 0 1 0 8c0-1.077.208-2.112.624-3.104a8.145 8.145 0 0 1 1.728-2.544A8.145 8.145 0 0 1 4.896.624 7.948 7.948 0 0 1 8 0Zm.496 14.944a6.74 6.74 0 0 0 3.168-.992 6.71 6.71 0 0 0 2.288-2.288 6.74 6.74 0 0 0 .992-3.168h-1.44a.533.533 0 0 1-.368-.128.533.533 0 0 1-.128-.368c0-.15.043-.267.128-.352a.498.498 0 0 1 .368-.144h1.44a6.642 6.642 0 0 0-.992-3.152 6.9 6.9 0 0 0-2.288-2.288 6.804 6.804 0 0 0-3.168-1.008v1.44c0 .15-.048.272-.144.368A.476.476 0 0 1 8 2.992a.533.533 0 0 1-.368-.128.533.533 0 0 1-.128-.368v-1.44a6.74 6.74 0 0 0-3.168.992 6.71 6.71 0 0 0-2.288 2.288 6.74 6.74 0 0 0-.992 3.168h1.44c.15 0 .272.048.368.144A.447.447 0 0 1 3.008 8c0 .15-.048.272-.144.368a.533.533 0 0 1-.368.128h-1.44a6.74 6.74 0 0 0 .992 3.168 6.71 6.71 0 0 0 2.288 2.288 6.74 6.74 0 0 0 3.168.992v-1.44c0-.15.043-.272.128-.368A.498.498 0 0 1 8 12.992c.15 0 .267.048.352.144a.498.498 0 0 1 .144.368v1.44Zm1.04-4.656L5.28 11.36a.528.528 0 0 1-.384-.048.497.497 0 0 1-.224-.32.312.312 0 0 1 0-.24l1.056-4.256c.053-.181.144-.336.272-.464a.899.899 0 0 1 .464-.272l4.256-1.072a.485.485 0 0 1 .384.064.442.442 0 0 1 .224.304.312.312 0 0 1 0 .24l-1.056 4.272a1.072 1.072 0 0 1-.272.464.95.95 0 0 1-.464.256Z"/>
        </symbol>

        <!-- Settings -->
        <symbol id="icon-settings-dots" viewBox="0 0 4 20">
            <path fill-rule="evenodd" d="M3.4286 1.7143C3.4286.7673 2.6613 0 1.7143 0S0 .7672 0 1.7143c0 .947.7672 1.7143 1.7143 1.7143.947 0 1.7143-.7673 1.7143-1.7143Zm0 16.5715c0-.947-.7673-1.7143-1.7143-1.7143S0 17.3388 0 18.2858c0 .9471.7672 1.7143 1.7143 1.7143.947 0 1.7143-.7672 1.7143-1.7143Zm-1.7143-10c.947 0 1.7143.7671 1.7143 1.7142 0 .947-.7673 1.7143-1.7143 1.7143S0 10.947 0 10s.7672-1.7143 1.7143-1.7143Z" clip-rule="evenodd"/>
        </symbol>

        <!-- Exclamation Triangle -->
        <symbol id="icon-exclamation-triangle" width="22" height="20" viewBox="0 0 22 20">
            <path d="M21.3071 17.3226c.4817.8283-.1207 1.8649-1.0854 1.8649H1.7315c-.9647 0-1.5672-1.0366-1.0855-1.8649l9.2451-15.888c.483-.8295 1.6879-.8295 2.1709 0l9.2451 15.888Zm-10.3305-.7601c.7242 0 1.3125-.5868 1.3125-1.3125 0-.7243-.5883-1.3125-1.3125-1.3125-.7243 0-1.3125.5882-1.3125 1.3125 0 .7257.5882 1.3125 1.3125 1.3125Zm-1.3125-5.25h2.6249v-5.25H9.664v5.25Z"/>
        </symbol>

        <!-- Exclamation Circle -->
        <symbol id="icon-exclamation-circle" viewBox="0 0 22 22">
            <path fill-rule="evenodd" d="M10.9766 21.5c-5.7987 0-10.5-4.7014-10.5-10.5S5.1779.5 10.9766.5c5.7986 0 10.5 4.7014 10.5 10.5s-4.7014 10.5-10.5 10.5Zm0-4.5938c.7245 0 1.3125-.5871 1.3125-1.3125 0-.7245-.588-1.3125-1.3125-1.3125s-1.3125.588-1.3125 1.3125c0 .7254.588 1.3125 1.3125 1.3125Zm-1.3125-5.25V5.0937h2.625v6.5625h-2.625Z" clip-rule="evenodd"/>
        </symbol>

        <!-- Cross Fill -->
        <symbol id="icon-cross-fill" viewBox="0 0 14 14">
            <path d="M7 5.4653 12.2153.25 13.75 1.7847 8.5347 7l5.215 5.2149-1.5348 1.5348L7 8.5347l-5.215 5.215-1.5347-1.5348L5.4653 7 .25 1.7847 1.7847.25 7 5.4653Z"/>
        </symbol>

        <!-- Chevron Up -->
        <symbol id="icon-chevron-up" viewBox="0 0 24 24">
            <path fill-rule="nonzero" d="m12 4.5 11.3408 11.3408c.879.878.879 2.303 0 3.1819-.879.878-2.303.878-3.182 0L12 10.8629l-8.1588 8.1598c-.44.439-1.015.659-1.591.659-.576 0-1.152-.22-1.591-.659-.879-.879-.879-2.304 0-3.182L12 4.5Z"/>
        </symbol>

        <!-- Chevron Right -->
        <symbol id="icon-chevron-right" viewBox="0 0 100 100">
            <path d="M9.707 18.707l6-6c0.391-0.391 0.391-1.024 0-1.414l-6-6c-0.391-0.391-1.024-0.391-1.414 0s-0.391 1.024 0 1.414l5.293 5.293-5.293 5.293c-0.391 0.391-0.391 1.024 0 1.414s1.024 0.391 1.414 0z"/>
        </symbol>

        <!-- Chevron Left -->
        <symbol id="icon-chevron-left" viewBox="0 0 24 24">
            <path fill-rule="nonzero" d="M15.8408.6592 4.5 12l11.3408 11.3408c.878.879 2.303.879 3.1819 0 .878-.879.878-2.303 0-3.182L10.8629 12l8.1598-8.1588c.439-.44.659-1.015.659-1.591 0-.576-.22-1.152-.659-1.591-.879-.879-2.304-.879-3.182 0"/>
        </symbol>

        <!-- Chevron Down -->
        <symbol id="icon-chevron-down" viewBox="0 0 12 7">
            <path d="M0.846141 1.007C0.717953 1.13519 0.717953 1.34301 0.846141 1.4712L5.99995 6.625L11.1542 1.4712C11.2181 1.40688 11.25 1.32288 11.25 1.23888C11.25 1.15488 11.2181 1.07088 11.1542 1.007C11.026 0.878815 10.8182 0.878815 10.69 1.007L5.99995 5.69705L1.31033 1.007C1.18214 0.878815 0.97433 0.878815 0.846141 1.007"/>
        </symbol>

        <!-- Checkmark Circle -->
        <symbol id="icon-checkmark-circle" viewBox="0 0 21 21">
            <path fill-rule="evenodd" d="M21 10.5C21 4.7005 16.2986 0 10.5 0 4.7005 0 0 4.7005 0 10.5 0 16.2986 4.7005 21 10.5 21 16.2986 21 21 16.2986 21 10.5Zm-4.7066-2.6338-7.0945 7.1199-3.9567-3.9559L7.098 9.1743 9.1954 11.27l5.2387-5.257 1.8593 1.8532Z" clip-rule="evenodd"/>
        </symbol>



        <!-- Logout Search -->
        <symbol id="icon-logout-search" viewBox="0 0 620 623">
            <path fill-rule="evenodd" d="M497.427 437.736H465.99L454.847 426.991C495.194 380.194 517.368 320.45 517.324 258.662C517.324 207.504 502.154 157.494 473.732 114.957C445.31 72.4205 404.912 39.2671 357.648 19.6896C310.384 0.112074 258.375 -5.0103 208.2 4.97024C158.024 14.9508 111.935 39.5859 75.7605 75.7605C39.5859 111.935 14.9508 158.024 4.97024 208.2C-5.0103 258.375 0.112074 310.384 19.6896 357.648C39.2671 404.912 72.4205 445.31 114.957 473.732C157.494 502.154 207.504 517.324 258.662 517.324C322.731 517.324 381.626 493.846 426.991 454.847L437.736 465.99V497.427L636.707 696L696 636.707L497.427 437.736ZM258.662 437.736C159.575 437.736 79.5884 357.75 79.5884 258.662C79.5884 159.575 159.575 79.5884 258.662 79.5884C357.75 79.5884 437.736 159.575 437.736 258.662C437.736 357.75 357.75 437.736 258.662 437.736Z"/>
        </symbol>
    </defs>
</svg>
