<svg xmlns="http://www.w3.org/2000/svg" width="69" height="76" fill="none" viewBox="0 0 69 76">
  <path fill="#D9D9D9" fill-opacity=".03" stroke="#64FFDA" stroke-width="2" d="M33.529 1.683a2 2 0 0 1 1.942 0L66.68 19.017a2 2 0 0 1 1.029 1.748v34.47a2 2 0 0 1-1.029 1.748L35.471 74.317a2 2 0 0 1-1.942 0L2.32 56.983a2 2 0 0 1-1.029-1.748v-34.47a2 2 0 0 1 1.029-1.748L33.529 1.683Z"/>
  <path fill="#64FFDA" d="M32.928 23.314c-1.094 0-2.205.12-3.333.359-1.116.228-2.29.655-3.52 1.282a12.4 12.4 0 0 0-3.23 2.375c-.934.957-1.704 2.233-2.307 3.828-.604 1.584-.906 3.378-.906 5.383 0 2.006.302 3.806.906 5.4.603 1.585 1.372 2.85 2.307 3.795a12.82 12.82 0 0 0 3.23 2.341c1.23.615 2.404 1.037 3.52 1.265 1.128.24 2.239.359 3.333.359 1.72 0 3.264-.166 4.631-.496 1.367-.319 2.917-.82 4.649-1.504-.513-1.401-.77-3.173-.77-5.315v-2.53c0-.83 1.897-1.378 5.691-1.64a.905.905 0 0 0 0-.803c-2.985.091-5.314.137-6.99.137-1.4 0-3.383-.046-5.947-.137-.08.262-.08.53 0 .803 2.632.262 3.948.81 3.948 1.64v6.94c-.98 1.116-2.717 1.674-5.212 1.674-1.333 0-2.547-.245-3.64-.735-1.094-.49-2-1.133-2.718-1.93a11.295 11.295 0 0 1-1.777-2.803 14.956 14.956 0 0 1-1.043-3.196 17.495 17.495 0 0 1-.307-3.264c0-1.402.17-2.77.513-4.102.353-1.344.883-2.62 1.589-3.828.718-1.22 1.709-2.205 2.974-2.957 1.276-.752 2.745-1.128 4.409-1.128 1.116 0 2.153.177 3.11.53.957.353 1.743.77 2.359 1.248.626.478 1.23 1.122 1.811 1.93.581.798 1.02 1.493 1.316 2.086a52.38 52.38 0 0 1 1.094 2.221c.353-.045.564-.17.632-.376-.843-3.383-2.12-5.702-3.828-6.955-1.698-1.265-3.862-1.897-6.494-1.897Zm9.28 9.998c-.49-1.094-.94-1.994-1.35-2.7-.41-.718-.963-1.516-1.658-2.393a7.3 7.3 0 0 0-2.444-2.068c-.946-.49-2-.786-3.162-.889-1.333.08-2.506.484-3.52 1.214a7.31 7.31 0 0 0-2.359 2.768 15.554 15.554 0 0 0-1.247 3.538 17.123 17.123 0 0 0-.41 3.76c0 1.777.239 3.474.717 5.092a10.328 10.328 0 0 0 2.513 4.29c1.207 1.23 2.688 1.846 4.443 1.846 1.63 0 2.865-.416 3.709-1.248v-6.665c0-.387-1.27-.712-3.812-.974-.307-.798-.284-1.533.069-2.205 3.406.16 8.117.194 14.133.103a3.03 3.03 0 0 1 .034 2.102c-2.54.262-3.81.587-3.81.974v2.53c0 2.073.324 3.987.973 5.741-1.606.604-2.802 1.02-3.589 1.248-.774.24-1.902.467-3.383.684-1.481.227-3.19.341-5.127.341-1.174 0-2.347-.125-3.52-.376-1.174-.239-2.405-.683-3.692-1.333a13.254 13.254 0 0 1-3.401-2.478c-.98-.99-1.789-2.318-2.427-3.982-.638-1.674-.957-3.571-.957-5.69 0-2.12.313-4.01.94-5.674.627-1.675 1.424-3.014 2.393-4.016a12.977 12.977 0 0 1 3.35-2.496c1.275-.672 2.494-1.128 3.656-1.367a16.808 16.808 0 0 1 3.521-.376c1.891 0 3.988.24 6.29.718 2.312.479 3.782.752 4.408.82-.364 1.47-.507 2.763-.427 3.88.08 1.105.399 2.46.957 4.067-.33.672-.934 1.077-1.811 1.214Z"/>
</svg>