<svg aria-hidden="true" style="position: absolute; width: 0; height: 0; overflow: hidden;" version="1.1" xmlns="http://www.w3.org/2000/svg" xmlns:xlink="http://www.w3.org/1999/xlink">
	<defs>
		<symbol id="icon-logo" idth="69" height="76" fill="none" viewBox="0 0 69 76">
			<path fill="#D9D9D9" fill-opacity=".03" stroke="#64FFDA" stroke-width="2" d="M33.529 1.683a2 2 0 0 1 1.942 0L66.68 19.017a2 2 0 0 1 1.029 1.748v34.47a2 2 0 0 1-1.029 1.748L35.471 74.317a2 2 0 0 1-1.942 0L2.32 56.983a2 2 0 0 1-1.029-1.748v-34.47a2 2 0 0 1 1.029-1.748L33.529 1.683Z"/>
  		<path fill="#64FFDA" d="M32.928 23.314c-1.094 0-2.205.12-3.333.359-1.116.228-2.29.655-3.52 1.282a12.4 12.4 0 0 0-3.23 2.375c-.934.957-1.704 2.233-2.307 3.828-.604 1.584-.906 3.378-.906 5.383 0 2.006.302 3.806.906 5.4.603 1.585 1.372 2.85 2.307 3.795a12.82 12.82 0 0 0 3.23 2.341c1.23.615 2.404 1.037 3.52 1.265 1.128.24 2.239.359 3.333.359 1.72 0 3.264-.166 4.631-.496 1.367-.319 2.917-.82 4.649-1.504-.513-1.401-.77-3.173-.77-5.315v-2.53c0-.83 1.897-1.378 5.691-1.64a.905.905 0 0 0 0-.803c-2.985.091-5.314.137-6.99.137-1.4 0-3.383-.046-5.947-.137-.08.262-.08.53 0 .803 2.632.262 3.948.81 3.948 1.64v6.94c-.98 1.116-2.717 1.674-5.212 1.674-1.333 0-2.547-.245-3.64-.735-1.094-.49-2-1.133-2.718-1.93a11.295 11.295 0 0 1-1.777-2.803 14.956 14.956 0 0 1-1.043-3.196 17.495 17.495 0 0 1-.307-3.264c0-1.402.17-2.77.513-4.102.353-1.344.883-2.62 1.589-3.828.718-1.22 1.709-2.205 2.974-2.957 1.276-.752 2.745-1.128 4.409-1.128 1.116 0 2.153.177 3.11.53.957.353 1.743.77 2.359 1.248.626.478 1.23 1.122 1.811 1.93.581.798 1.02 1.493 1.316 2.086a52.38 52.38 0 0 1 1.094 2.221c.353-.045.564-.17.632-.376-.843-3.383-2.12-5.702-3.828-6.955-1.698-1.265-3.862-1.897-6.494-1.897Zm9.28 9.998c-.49-1.094-.94-1.994-1.35-2.7-.41-.718-.963-1.516-1.658-2.393a7.3 7.3 0 0 0-2.444-2.068c-.946-.49-2-.786-3.162-.889-1.333.08-2.506.484-3.52 1.214a7.31 7.31 0 0 0-2.359 2.768 15.554 15.554 0 0 0-1.247 3.538 17.123 17.123 0 0 0-.41 3.76c0 1.777.239 3.474.717 5.092a10.328 10.328 0 0 0 2.513 4.29c1.207 1.23 2.688 1.846 4.443 1.846 1.63 0 2.865-.416 3.709-1.248v-6.665c0-.387-1.27-.712-3.812-.974-.307-.798-.284-1.533.069-2.205 3.406.16 8.117.194 14.133.103a3.03 3.03 0 0 1 .034 2.102c-2.54.262-3.81.587-3.81.974v2.53c0 2.073.324 3.987.973 5.741-1.606.604-2.802 1.02-3.589 1.248-.774.24-1.902.467-3.383.684-1.481.227-3.19.341-5.127.341-1.174 0-2.347-.125-3.52-.376-1.174-.239-2.405-.683-3.692-1.333a13.254 13.254 0 0 1-3.401-2.478c-.98-.99-1.789-2.318-2.427-3.982-.638-1.674-.957-3.571-.957-5.69 0-2.12.313-4.01.94-5.674.627-1.675 1.424-3.014 2.393-4.016a12.977 12.977 0 0 1 3.35-2.496c1.275-.672 2.494-1.128 3.656-1.367a16.808 16.808 0 0 1 3.521-.376c1.891 0 3.988.24 6.29.718 2.312.479 3.782.752 4.408.82-.364 1.47-.507 2.763-.427 3.88.08 1.105.399 2.46.957 4.067-.33.672-.934 1.077-1.811 1.214Z"/>
		</symbol>
		<symbol id="icon-bg-logo" idth="69" height="76" fill="none" viewBox="0 0 69 76">
			<path fill="#0A192F" stroke="#0A192F" stroke-width="2" d="M35.471 1.683 66.68 19.017a2 2 0 0 1 1.029 1.748v34.47a2 2 0 0 1-1.029 1.748L35.471 74.317a2 2 0 0 1-1.942 0L2.32 56.983a2 2 0 0 1-1.029-1.748v-34.47a2 2 0 0 1 1.029-1.748L33.529 1.683a2 2 0 0 1 1.942 0Z"/>
  		<path fill="#A1A7AA" d="M34.67 23.314c-1.093 0-2.204.12-3.332.359-1.116.228-2.29.655-3.52 1.282a12.399 12.399 0 0 0-3.23 2.375c-.934.957-1.703 2.233-2.307 3.828-.604 1.584-.906 3.378-.906 5.383 0 2.006.302 3.806.906 5.4.604 1.585 1.373 2.85 2.307 3.795.934.934 2.01 1.715 3.23 2.341 1.23.615 2.404 1.037 3.52 1.265 1.128.24 2.24.359 3.333.359 1.72 0 3.264-.166 4.631-.496 1.367-.319 2.917-.82 4.649-1.504-.513-1.401-.77-3.173-.77-5.315v-2.53c0-.83 1.898-1.378 5.692-1.64a.905.905 0 0 0 0-.803c-2.985.091-5.315.137-6.99.137-1.402 0-3.384-.046-5.948-.137-.08.262-.08.53 0 .803 2.632.262 3.948.81 3.948 1.64v6.94c-.98 1.116-2.717 1.674-5.212 1.674-1.333 0-2.547-.245-3.64-.735-1.094-.49-2-1.133-2.717-1.93a11.296 11.296 0 0 1-1.778-2.803 14.95 14.95 0 0 1-1.042-3.196 17.495 17.495 0 0 1-.308-3.264c0-1.402.17-2.77.513-4.102.353-1.344.883-2.62 1.59-3.828.717-1.22 1.708-2.205 2.973-2.957 1.276-.752 2.745-1.128 4.409-1.128 1.116 0 2.153.177 3.11.53.957.353 1.743.77 2.359 1.248.626.478 1.23 1.122 1.811 1.93.581.798 1.02 1.493 1.316 2.086.308.58.672 1.321 1.094 2.221.353-.045.564-.17.632-.376-.843-3.383-2.119-5.702-3.828-6.955-1.698-1.265-3.862-1.897-6.494-1.897Zm9.28 9.998c-.49-1.094-.94-1.994-1.35-2.7-.41-.718-.962-1.516-1.657-2.393a7.299 7.299 0 0 0-2.444-2.068c-.946-.49-2-.786-3.162-.889-1.333.08-2.506.484-3.52 1.214a7.31 7.31 0 0 0-2.358 2.768 15.555 15.555 0 0 0-1.248 3.538 17.13 17.13 0 0 0-.41 3.76c0 1.777.239 3.474.718 5.092a10.328 10.328 0 0 0 2.512 4.29c1.207 1.23 2.689 1.846 4.443 1.846 1.63 0 2.866-.416 3.709-1.248v-6.665c0-.387-1.27-.712-3.811-.974-.308-.798-.285-1.533.068-2.205 3.407.16 8.118.194 14.133.103a3.03 3.03 0 0 1 .034 2.102c-2.54.262-3.81.587-3.81.974v2.53c0 2.073.324 3.987.974 5.741-1.607.604-2.803 1.02-3.59 1.248-.774.24-1.902.467-3.383.684-1.481.227-3.19.341-5.127.341-1.174 0-2.347-.125-3.52-.376-1.174-.239-2.405-.683-3.692-1.333a13.25 13.25 0 0 1-3.4-2.478c-.98-.99-1.79-2.318-2.428-3.982-.638-1.674-.957-3.571-.957-5.69 0-2.12.314-4.01.94-5.674.627-1.675 1.424-3.014 2.393-4.016a12.98 12.98 0 0 1 3.35-2.496c1.276-.672 2.495-1.128 3.657-1.367a16.808 16.808 0 0 1 3.52-.376c1.892 0 3.988.24 6.29.718 2.312.479 3.782.752 4.408.82-.364 1.47-.507 2.763-.427 3.88.08 1.105.399 2.46.957 4.067-.33.672-.934 1.077-1.811 1.214Z"/>
		</symbol>

		<symbol id="icon-instagram" viewBox="0 0 448 512">
			<path d="M224.1 141c-63.6 0-114.9 51.3-114.9 114.9s51.3 114.9 114.9 114.9S339 319.5 339 255.9 287.7 141 224.1 141zm0 189.6c-41.1 0-74.7-33.5-74.7-74.7s33.5-74.7 74.7-74.7 74.7 33.5 74.7 74.7-33.6 74.7-74.7 74.7zm146.4-194.3c0 14.9-12 26.8-26.8 26.8-14.9 0-26.8-12-26.8-26.8s12-26.8 26.8-26.8 26.8 12 26.8 26.8zm76.1 27.2c-1.7-35.9-9.9-67.7-36.2-93.9-26.2-26.2-58-34.4-93.9-36.2-37-2.1-147.9-2.1-184.9 0-35.8 1.7-67.6 9.9-93.9 36.1s-34.4 58-36.2 93.9c-2.1 37-2.1 147.9 0 184.9 1.7 35.9 9.9 67.7 36.2 93.9s58 34.4 93.9 36.2c37 2.1 147.9 2.1 184.9 0 35.9-1.7 67.7-9.9 93.9-36.2 26.2-26.2 34.4-58 36.2-93.9 2.1-37 2.1-147.8 0-184.8zM398.8 388c-7.8 19.6-22.9 34.7-42.6 42.6-29.5 11.7-99.5 9-132.1 9s-102.7 2.6-132.1-9c-19.6-7.8-34.7-22.9-42.6-42.6-11.7-29.5-9-99.5-9-132.1s-2.6-102.7 9-132.1c7.8-19.6 22.9-34.7 42.6-42.6 29.5-11.7 99.5-9 132.1-9s102.7-2.6 132.1 9c19.6 7.8 34.7 22.9 42.6 42.6 11.7 29.5 9 99.5 9 132.1s2.7 102.7-9 132.1z"/>
		</symbol>

		<symbol id="icon-chevron-right" viewBox="0 0 256 512">
			<path d="M17.525 36.465l-7.071 7.07c-4.686 4.686-4.686 12.284 0 16.971L205.947 256 10.454 451.494c-4.686 4.686-4.686 12.284 0 16.971l7.071 7.07c4.686 4.686 12.284 4.686 16.97 0l211.051-211.05c4.686-4.686 4.686-12.284 0-16.971L34.495 36.465c-4.686-4.687-12.284-4.687-16.97 0z"></path>
		</symbol>

		<symbol id="icon-chevron-left" viewBox="0 0 256 512">
			<path d="M238.475 475.535l7.071-7.07c4.686-4.686 4.686-12.284 0-16.971L50.053 256 245.546 60.506c4.686-4.686 4.686-12.284 0-16.971l-7.071-7.07c-4.686-4.686-12.284-4.686-16.97 0L10.454 247.515c-4.686 4.686-4.686 12.284 0 16.971l211.051 211.05c4.686 4.686 12.284 4.686 16.97-.001z"></path>
		</symbol>

		<symbol id="icon-chevron-down" viewBox="0 0 448 512">
			<path d="M443.5 162.6l-7.1-7.1c-4.7-4.7-12.3-4.7-17 0L224 351 28.5 155.5c-4.7-4.7-12.3-4.7-17 0l-7.1 7.1c-4.7 4.7-4.7 12.3 0 17l211 211.1c4.7 4.7 12.3 4.7 17 0l211-211.1c4.8-4.7 4.8-12.3.1-17z"/>
		</symbol>

		<symbol id="icon-github" viewBox="0 0 24 24">
			<path d="M8.713 18.042c-1.268 0.38-2.060 0.335-2.583 0.17-0.231-0.073-0.431-0.176-0.614-0.302-0.411-0.284-0.727-0.675-1.119-1.172-0.356-0.451-0.85-1.107-1.551-1.476-0.185-0.098-0.386-0.177-0.604-0.232-0.536-0.134-1.079 0.192-1.213 0.728s0.192 1.079 0.728 1.213c0.074 0.023 0.155 0.060 0.155 0.060 0.252 0.133 0.487 0.404 0.914 0.946 0.366 0.464 0.856 1.098 1.553 1.579 0.332 0.229 0.711 0.426 1.149 0.564 1.015 0.321 2.236 0.296 3.76-0.162 0.529-0.159 0.829-0.716 0.67-1.245s-0.716-0.829-1.245-0.67zM17 22v-3.792c0.052-0.684-0.056-1.343-0.292-1.942 0.777-0.171 1.563-0.427 2.297-0.823 2.083-1.124 3.496-3.242 3.496-6.923 0-1.503-0.516-2.887-1.379-3.981 0.355-1.345 0.226-2.726-0.293-3.933-0.122-0.283-0.359-0.482-0.634-0.564-0.357-0.106-1.732-0.309-4.373 1.362-2.273-0.541-4.557-0.509-6.646-0.002-2.639-1.669-4.013-1.466-4.37-1.36-0.296 0.088-0.521 0.3-0.635 0.565-0.554 1.292-0.624 2.672-0.292 3.932-0.93 1.178-1.387 2.601-1.379 4.017 0 3.622 1.389 5.723 3.441 6.859 0.752 0.416 1.56 0.685 2.357 0.867-0.185 0.468-0.286 0.961-0.304 1.456-0.005 0.141-0.003 0.283 0.005 0.424l0.001 3.838c0 0.552 0.448 1 1 1s1-0.448 1-1v-3.87c0-0.021-0.001-0.045-0.002-0.069-0.006-0.084-0.007-0.168-0.004-0.252 0.020-0.568 0.241-1.126 0.665-1.564 0.145-0.149 0.246-0.347 0.274-0.572 0.068-0.548-0.321-1.048-0.869-1.116-0.34-0.042-0.677-0.094-1.006-0.159-0.79-0.156-1.518-0.385-2.147-0.733-1.305-0.723-2.391-2.071-2.41-5.042 0.013-1.241 0.419-2.319 1.224-3.165 0.257-0.273 0.35-0.671 0.212-1.040-0.28-0.748-0.341-1.58-0.14-2.392 0.491 0.107 1.354 0.416 2.647 1.282 0.235 0.157 0.533 0.214 0.825 0.133 1.997-0.557 4.242-0.602 6.47 0.002 0.271 0.073 0.569 0.033 0.818-0.135 1.293-0.866 2.156-1.175 2.647-1.282 0.189 0.766 0.157 1.595-0.141 2.392-0.129 0.352-0.058 0.755 0.213 1.040 0.758 0.795 1.224 1.872 1.224 3.060 0 3.075-1.114 4.445-2.445 5.163-0.623 0.336-1.343 0.555-2.123 0.7-0.322 0.060-0.651 0.106-0.983 0.143-0.21 0.023-0.418 0.114-0.584 0.275-0.397 0.384-0.408 1.017-0.024 1.414 0.067 0.070 0.13 0.143 0.188 0.22 0.34 0.449 0.521 1.015 0.474 1.617 0 0.024-0.001 0.051-0.003 0.078v3.872c0 0.552 0.448 1 1 1s1-0.448 1-1z"></path>
		</symbol>

		<symbol id="icon-codepen" viewBox="0 0 24 24">
			<path d="M5.256 12l-2.256 1.579v-3.159zM21 13.579l-2.256-1.579 2.256-1.579zM17 13.221l3.212 2.249-7.212 4.687v-4.137zM8.744 12l3.256-2.279 3.256 2.279-3.256 2.279zM3.788 15.469l3.212-2.248 4 2.8v4.137zM12.557 1.169c-0.159-0.107-0.351-0.169-0.557-0.169s-0.398 0.062-0.557 0.169l-9.969 6.48c-0.112 0.070-0.213 0.163-0.293 0.278-0.125 0.178-0.184 0.383-0.181 0.585v6.976c-0.002 0.184 0.046 0.37 0.148 0.536 0.041 0.068 0.091 0.131 0.149 0.188 0.047 0.047 0.1 0.089 0.158 0.127l0.019 0.012 9.969 6.48c0.159 0.107 0.351 0.169 0.557 0.169s0.398-0.062 0.557-0.169l9.969-6.48c0.112-0.069 0.213-0.162 0.293-0.277 0.125-0.178 0.183-0.383 0.181-0.586v-6.976c0.002-0.184-0.046-0.37-0.148-0.536-0.041-0.067-0.091-0.131-0.149-0.188-0.047-0.047-0.1-0.089-0.158-0.127l-0.019-0.012zM13 7.979v-4.136l7.212 4.688-3.212 2.248zM11 3.843v4.137l-4 2.8-3.212-2.249z"></path>
		</symbol>

		<symbol id="icon-twitter" viewBox="0 0 24 24">
			<path d="M20.833 5.262c-0.186 0.242-0.391 0.475-0.616 0.696-0.233 0.232-0.347 0.567-0.278 0.908 0.037 0.182 0.060 0.404 0.061 0.634 0 5.256-2.429 8.971-5.81 10.898-2.647 1.509-5.938 1.955-9.222 1.12 1.245-0.361 2.46-0.921 3.593-1.69 0.147-0.099 0.273-0.243 0.352-0.421 0.224-0.505-0.003-1.096-0.508-1.32-2.774-1.233-4.13-2.931-4.769-4.593-0.417-1.084-0.546-2.198-0.52-3.227 0.021-0.811 0.138-1.56 0.278-2.182 0.394 0.343 0.803 0.706 1.235 1.038 2.051 1.577 4.624 2.479 7.395 2.407 0.543-0.015 0.976-0.457 0.976-1v-1.011c-0.002-0.179 0.009-0.357 0.034-0.533 0.113-0.806 0.504-1.569 1.162-2.141 0.725-0.631 1.636-0.908 2.526-0.846s1.753 0.463 2.384 1.188c0.252 0.286 0.649 0.416 1.033 0.304 0.231-0.067 0.463-0.143 0.695-0.228zM22.424 2.183c-0.74 0.522-1.523 0.926-2.287 1.205-0.931-0.836-2.091-1.302-3.276-1.385-1.398-0.097-2.836 0.339-3.977 1.332-1.036 0.901-1.652 2.108-1.83 3.372-0.037 0.265-0.055 0.532-0.054 0.8-1.922-0.142-3.693-0.85-5.15-1.97-0.775-0.596-1.462-1.309-2.034-2.116-0.32-0.45-0.944-0.557-1.394-0.237-0.154 0.109-0.267 0.253-0.335 0.409 0 0-0.132 0.299-0.285 0.76-0.112 0.337-0.241 0.775-0.357 1.29-0.163 0.722-0.302 1.602-0.326 2.571-0.031 1.227 0.12 2.612 0.652 3.996 0.683 1.775 1.966 3.478 4.147 4.823-1.569 0.726-3.245 1.039-4.873 0.967-0.552-0.024-1.019 0.403-1.043 0.955-0.017 0.389 0.19 0.736 0.513 0.918 4.905 2.725 10.426 2.678 14.666 0.261 4.040-2.301 6.819-6.7 6.819-12.634-0.001-0.167-0.008-0.33-0.023-0.489 1.006-1.115 1.676-2.429 1.996-3.781 0.127-0.537-0.206-1.076-0.743-1.203-0.29-0.069-0.58-0.003-0.807 0.156z"></path>
		</symbol>

		<symbol id="icon-linkedin" viewBox="0 0 24 24">
			<path d="M16 7c-1.933 0-3.684 0.785-4.95 2.050s-2.050 3.017-2.050 4.95v7c0 0.552 0.448 1 1 1h4c0.552 0 1-0.448 1-1v-7c0-0.276 0.111-0.525 0.293-0.707s0.431-0.293 0.707-0.293 0.525 0.111 0.707 0.293 0.293 0.431 0.293 0.707v7c0 0.552 0.448 1 1 1h4c0.552 0 1-0.448 1-1v-7c0-1.933-0.785-3.684-2.050-4.95s-3.017-2.050-4.95-2.050zM16 9c1.381 0 2.63 0.559 3.536 1.464s1.464 2.155 1.464 3.536v6h-2v-6c0-0.828-0.337-1.58-0.879-2.121s-1.293-0.879-2.121-0.879-1.58 0.337-2.121 0.879-0.879 1.293-0.879 2.121v6h-2v-6c0-1.381 0.559-2.63 1.464-3.536s2.155-1.464 3.536-1.464zM2 8c-0.552 0-1 0.448-1 1v12c0 0.552 0.448 1 1 1h4c0.552 0 1-0.448 1-1v-12c0-0.552-0.448-1-1-1zM3 10h2v10h-2zM7 4c0-0.828-0.337-1.58-0.879-2.121s-1.293-0.879-2.121-0.879-1.58 0.337-2.121 0.879-0.879 1.293-0.879 2.121 0.337 1.58 0.879 2.121 1.293 0.879 2.121 0.879 1.58-0.337 2.121-0.879 0.879-1.293 0.879-2.121zM5 4c0 0.276-0.111 0.525-0.293 0.707s-0.431 0.293-0.707 0.293-0.525-0.111-0.707-0.293-0.293-0.431-0.293-0.707 0.111-0.525 0.293-0.707 0.431-0.293 0.707-0.293 0.525 0.111 0.707 0.293 0.293 0.431 0.293 0.707z"></path>
		</symbol>
	</defs>
</svg>