<svg width="92" height="84" viewBox="0 0 92 84" fill="none" xmlns="http://www.w3.org/2000/svg">
	<path fill-rule="evenodd" clip-rule="evenodd" d="M39.9662 21.0286C39.7073 19.9731 39.2991 19.0472 38.7415 18.2506C38.184 17.4342 37.487 16.7472 36.6506 16.1896C35.8342 15.6121 34.8783 15.184 33.7831 14.9052C32.7078 14.6065 31.5229 14.4571 30.2285 14.4571C27.4407 14.4571 25.061 15.1242 23.0896 16.4584C21.1381 17.7926 19.6446 19.7143 18.6091 22.2234C17.5935 24.7324 17.0857 27.7593 17.0857 31.3039C17.0857 34.8883 17.5736 37.955 18.5493 40.5039C19.5251 43.0528 20.9788 45.0043 22.9104 46.3584C24.842 47.7125 27.2415 48.3896 30.1091 48.3896C32.3031 48.3896 34.1749 48.1123 35.7245 47.5578V62.4077C33.8979 62.7004 31.9862 62.8467 29.9896 62.8467C24.0355 62.8467 18.8082 61.5822 14.3078 59.0532C9.80735 56.5242 6.29264 52.9199 3.76363 48.2402C1.25454 43.5606 0 37.9948 0 31.5428C0 26.4848 0.766666 22.0043 2.3 18.1013C3.85324 14.1983 6.00389 10.9026 8.75194 8.21428C11.5 5.50606 14.6762 3.46493 18.2805 2.09091C21.8848 0.696969 25.748 0 29.8701 0C33.4943 0 36.8597 0.517749 39.9662 1.55325C43.0926 2.56883 45.8506 4.02251 48.2402 5.91428C50.6497 7.78614 52.5913 10.0065 54.0649 12.5753C55.5385 15.1441 56.4346 17.9619 56.7532 21.0286H39.9662Z" fill="#64FFDA"/>
	<path fill-rule="evenodd" clip-rule="evenodd" d="M35.605 40.3999H30.2285V28.5713H57.3506V28.6625L76.7269 57.1212H77.1541V28.5714H91.9999V83.1142H79.6106L59.8519 54.4579H59.5315V83.1142H44.6857V37.1144H35.605V40.3999Z" fill="#64FFDA"/>
</svg>
