<?xml version="1.0" encoding="UTF-8"?>
<svg width="32px" height="32px" viewBox="0 0 32 32" version="1.1" xmlns="http://www.w3.org/2000/svg" xmlns:xlink="http://www.w3.org/1999/xlink">
    <!-- Generator: Sketch 50.2 (55047) - http://www.bohemiancoding.com/sketch -->
    <title>add-user-fill</title>
    <desc>Created with Sketch.</desc>
    <defs></defs>
    <g id="add-user" stroke="none" stroke-width="1" fill="none" fill-rule="evenodd">
        <path d="M16,0 C24.836,0 32,7.164 32,16 C32,24.836 24.836,32 16,32 C7.164,32 0,24.836 0,16 C0,7.164 7.164,0 16,0 Z M17.9999246,16.0006155 C19.6568799,16.0006155 20.9999246,14.6575708 20.9999246,13.0006155 C20.9999246,11.3430447 19.6568799,10 17.9999246,10 C16.3429693,10 14.9999246,11.3430447 14.9999246,13.0006155 C14.9999246,14.6575708 16.3429693,16.0006155 17.9999246,16.0006155 Z M18.000188,18 C14.5955585,18 11.6562573,19.4039334 10.2889389,21.4334342 C9.58227997,22.4826021 10.253606,24 11.4175932,24 L24.582116,24 C25.7461033,24 26.4180959,22.4826021 25.7107703,21.4334342 C24.343452,19.4039334 21.4048174,18 18.000188,18 Z M9,6 L9,9 L6,9 L6,11 L9,11 L9,14 L11,14 L11,11 L14,11 L14,9 L11,9 L11,6 L9,6 Z" id="ic_add_user" fill="#212121"></path>
    </g>
</svg>