<?xml version="1.0" encoding="UTF-8"?>
<svg width="32px" height="32px" viewBox="0 0 32 32" version="1.1" xmlns="http://www.w3.org/2000/svg" xmlns:xlink="http://www.w3.org/1999/xlink">
    <!-- Generator: Sketch 50.2 (55047) - http://www.bohemiancoding.com/sketch -->
    <title>airplane-fill</title>
    <desc>Created with Sketch.</desc>
    <defs></defs>
    <g id="airplane" stroke="none" stroke-width="1" fill="none" fill-rule="evenodd">
        <path d="M24.907716,29.7124037 C24.3514569,30.0083509 18.3404926,17.0557155 18.3404926,17.0557155 L9.33150756,26.1100783 C9.33150756,26.1100783 7.79317579,32.7520604 7.52903597,31.929443 C7.42639883,31.6097975 6.26623585,27.2223079 5.94894623,26.0210893 C4.75374779,25.7022015 0.388246888,24.5361948 0.0702034094,24.4330407 C-0.74829126,24.1675704 5.86040325,22.6214902 5.86040325,22.6214902 L14.8693883,13.5671275 C14.8693883,13.5671275 1.98166756,7.52588629 2.27613154,6.96682532 C2.39435762,6.74236462 5.85091575,6.97578331 9.94609458,7.33559082 C11.3888846,7.46235614 12.9109435,7.60480952 14.3942101,7.74845449 C16.5004768,7.95243308 18.5285204,8.15881447 20.1402834,8.32608945 L25.8782044,2.5592669 C25.8782044,2.5592669 27.6881454,0.740209345 30.6360428,0.0648400231 C33.5839402,-0.610529298 31.1020146,4.17127404 29.2920736,5.99033159 L23.555056,11.7562462 C24.1713276,17.7541228 25.321516,29.4922492 24.907716,29.7124037 Z" id="Combined-Shape" fill="#212121" style="mix-blend-mode: darken;"></path>
    </g>
</svg>