<svg id="Fill" xmlns="http://www.w3.org/2000/svg" viewBox="0 0 100 100"><path d="M81.22,59.86h0L52.46,44.27V41.43a9.18,9.18,0,0,0,5.93-8.64,9.27,9.27,0,1,0-18.53,0v1.5h6.68v-1.5a2.59,2.59,0,1,1,2.58,2.58,3.35,3.35,0,0,0-3.34,3.34V44.3c-6.7,3.67-26,14.23-28.59,15.5-4.68,2.29-5.65,6.12-5,8.94a7.72,7.72,0,0,0,7.66,5.83H78.43A7.4,7.4,0,0,0,85.78,69C86.69,65.46,84.9,61.87,81.22,59.86Zm-2.79,8H19.85c-.73,0-1.09-.39-1.15-.65s.39-.94,1.42-1.44c2.71-1.32,20.83-11.23,29-15.73l3.12,1.7L78,65.73c1,.56,1.38,1.23,1.28,1.65S78.93,67.89,78.43,67.89Z"/></svg>