<svg id="Fill" xmlns="http://www.w3.org/2000/svg" viewBox="0 0 100 100"><path d="M40.92,36.48a3.5,3.5,0,1,1-3.5-3.5A3.5,3.5,0,0,1,40.92,36.48ZM50.68,67a3.5,3.5,0,1,0,3.5,3.5A3.5,3.5,0,0,0,50.68,67ZM84.13,44a12,12,0,0,1-4.8,6,19.85,19.85,0,0,1-5.65,2.17A16.78,16.78,0,0,0,70,53.45a5.12,5.12,0,0,0-2.34,2.69,5,5,0,0,0-.15,3.53,15.65,15.65,0,0,0,1.84,3.42A19.29,19.29,0,0,1,72,68.43a11.75,11.75,0,0,1-.63,7.6,13.27,13.27,0,0,1-5.27,6.22,23.8,23.8,0,0,1-9.3,3.32A38.14,38.14,0,0,1,51,86c-1.2,0-2.41,0-3.61-.16a33.33,33.33,0,0,1-8.69-1.91A37.59,37.59,0,0,1,26.49,76.3a36.34,36.34,0,0,1-8.31-11.62A35.22,35.22,0,0,1,15,51.06c-.14-4.64,2.29-22.16,17.57-31.68A35.64,35.64,0,0,1,42.2,15.3,37.69,37.69,0,0,1,52,14c.66,0,1.33,0,2,.05a38.18,38.18,0,0,1,11.64,2.49,32.5,32.5,0,0,1,7.69,4.36A37,37,0,0,1,80,27.3a22.72,22.72,0,0,1,4.54,8.61A13,13,0,0,1,84.13,44ZM39.35,56.63a7,7,0,1,0-7,7A7,7,0,0,0,39.35,56.63Zm5.07-20.15a7,7,0,1,0-7,7A7,7,0,0,0,44.42,36.48Zm13.26,34a7,7,0,1,0-7,7A7,7,0,0,0,57.68,70.5Zm8.24-40.56a7,7,0,1,0-7,7A7,7,0,0,0,65.92,29.94ZM32.35,53.13a3.5,3.5,0,1,0,3.5,3.5A3.5,3.5,0,0,0,32.35,53.13ZM58.92,26.44a3.5,3.5,0,1,0,3.5,3.5A3.5,3.5,0,0,0,58.92,26.44Z"/></svg>