<?xml version="1.0" encoding="UTF-8"?>
<svg width="32px" height="32px" viewBox="0 0 32 32" version="1.1" xmlns="http://www.w3.org/2000/svg" xmlns:xlink="http://www.w3.org/1999/xlink">
    <!-- Generator: Sketch 50.2 (55047) - http://www.bohemiancoding.com/sketch -->
    <title>audience-fill</title>
    <desc>Created with Sketch.</desc>
    <defs></defs>
    <g id="audience" stroke="none" stroke-width="1" fill="none" fill-rule="evenodd">
        <path d="M18.00045,28 L0.00045,28 L0.00045,19.942714 C2.48103624,18.735134 5.59358136,18 8.99946564,18 C12.4053499,18 15.517895,18.735134 18.00045,19.942714 L18.00045,21.5106012 C19.9298652,20.5713041 22.3513323,20 24.9994291,20 C27.647526,20 30.0689931,20.5713041 32.00045,21.5106012 L32.00045,28 L18.00045,28 Z M14.00045,9 C14.00045,11.7604536 11.7622788,14 8.99956395,14 C6.23862119,14 4.00045,11.7604536 4.00045,9 C4.00045,6.23954642 6.23862119,4 8.99956395,4 C11.7622788,4 14.00045,6.23954642 14.00045,9 Z M29.00045,14 C29.00045,16.2098299 27.2102799,18 25.00045,18 C22.7906201,18 21.00045,16.2098299 21.00045,14 C21.00045,11.7901701 22.7906201,10 25.00045,10 C27.2102799,10 29.00045,11.7901701 29.00045,14 Z" id="Audience" fill="#212121"></path>
    </g>
</svg>