<?xml version="1.0" encoding="UTF-8"?>
<svg width="32px" height="32px" viewBox="0 0 32 32" version="1.1" xmlns="http://www.w3.org/2000/svg" xmlns:xlink="http://www.w3.org/1999/xlink">
    <!-- Generator: Sketch 50.2 (55047) - http://www.bohemiancoding.com/sketch -->
    <title>avatar-fill</title>
    <desc>Created with Sketch.</desc>
    <defs></defs>
    <g id="avatar" stroke="none" stroke-width="1" fill="none" fill-rule="evenodd">
        <path d="M27.1861422,27.4398612 C27.2070273,27.4598515 27.2278583,27.4798979 27.248635,27.5 C24.3693933,30.2857591 20.4470466,32 16.1243175,32 C16.1035887,32 16.0828692,31.9999606 16.0621589,31.9998818 C16.0414471,31.9999606 16.0207281,32 16,32 C7.163444,32 0,24.836556 0,16 C0,7.163444 7.163444,0 16,0 C24.836556,0 32,7.163444 32,16 C32,20.4828061 30.1564466,24.5350273 27.1861422,27.4398612 Z M8.18426632,25.1060095 C10.5240553,23.7659965 13.2347324,23 16.1243175,23 C18.9521233,23 21.6085893,23.7335926 23.9137878,25.0208501 C26.4187722,22.8215299 28,19.5954227 28,16 C28,9.372583 22.627417,4 16,4 C9.372583,4 4,9.372583 4,16 C4,19.6421124 5.62256176,22.9052553 8.18426632,25.1060095 Z M16,19 C13.2385763,19 11,16.7614237 11,14 C11,11.2385763 13.2385763,9 16,9 C18.7614237,9 21,11.2385763 21,14 C21,16.7614237 18.7614237,19 16,19 Z" id="icons/fill/Avatar_32" fill="#212121" fill-rule="nonzero"></path>
    </g>
</svg>