<svg id="Fill" xmlns="http://www.w3.org/2000/svg" viewBox="0 0 100 100"><g id="Fill-2" data-name="Fill"><path d="M15.93,52.1a1.89,1.89,0,0,0-1.47.72A1.87,1.87,0,0,0,14,54.41L16.75,69a3,3,0,0,0,3,2.48h0l48.06-.24A3.7,3.7,0,0,0,70.58,70c4.18-4.83,14.65-14.41,14.74-14.49a1.93,1.93,0,0,0,.34-2.56A2,2,0,0,0,84,52.1Zm43.85-7.41c-8.71-8.53-9-10.64-13.5-10.64H36.71L32.84,28.5H21.18l1,5.55H18.33V49.36H64.38C63.53,48.61,61.77,46.64,59.78,44.69ZM31.12,31.07l2,3L25.39,34l-.65-2.92Zm-9,14.49V38.65h21.6c4.83,0,5,1.65,6.48,3.27H27.1L27,45.56Z"/></g></svg>