<svg id="Fill" xmlns="http://www.w3.org/2000/svg" viewBox="0 0 100 100"><g id="Fill-2" data-name="Fill"><path d="M15,71l30.82,14c.54.23,1.28-.26,1.28-.63v-35a1.55,1.55,0,0,0-.91-1.41L15.48,34.15C14,33.47,14,34.09,14,34.89V69.57A1.57,1.57,0,0,0,15,71Z"/><path d="M85.1,71l-30.87,14c-.54.23-1.28-.26-1.28-.63v-35a1.55,1.55,0,0,1,.91-1.41L84.52,34.15c1.46-.68,1.46-.06,1.48.74V69.57A1.58,1.58,0,0,1,85.1,71Z"/><path d="M48.83,42.85,19.27,29.76a1,1,0,0,1-.14-1.42h0l30-13.09a1.56,1.56,0,0,1,1.66,0l29.2,13c1.34.9.82,1.23.16,1.66l-29.71,13A1.54,1.54,0,0,1,48.83,42.85Z"/></g></svg>