<svg id="Fill" xmlns="http://www.w3.org/2000/svg" viewBox="0 0 100 100"><g id="Fill-2" data-name="Fill"><path d="M40.16,67.58,21.69,59.16V70.84A1.21,1.21,0,0,0,22.41,72L47.47,83V55.61Z"/><path d="M52,56.58V83l24.92-11a1.22,1.22,0,0,0,.71-1.11l-.32-11.56L58.74,67.71Z"/><polygon points="37.58 17 14 29.31 24.02 40.12 48.89 29.26 37.58 17"/><polygon points="75.55 40.37 86 29.11 62.42 17 50.94 29.27 75.55 40.37"/><polygon points="47.45 49.42 24.27 41.1 15.17 52.88 38.98 63.73 47.45 49.82 47.65 49.5 47.45 49.42"/><polygon points="74.94 41.04 75.07 40.89 51.97 49.37 51.25 49.63 51.97 50.8 59.92 63.86 84.08 52.86 74.94 41.04"/><polygon points="49.65 47.01 68.02 40.28 49.89 32.1 31.05 40.34 49.65 47.01"/></g></svg>