<?xml version="1.0" encoding="UTF-8"?>
<svg width="32px" height="32px" viewBox="0 0 32 32" version="1.1" xmlns="http://www.w3.org/2000/svg" xmlns:xlink="http://www.w3.org/1999/xlink">
    <!-- Generator: Sketch 50.2 (55047) - http://www.bohemiancoding.com/sketch -->
    <title>brightness-fill</title>
    <desc>Created with Sketch.</desc>
    <defs></defs>
    <g id="brightness" stroke="none" stroke-width="1" fill="none" fill-rule="evenodd">
        <path d="M16,23 C12.1340068,23 9,19.8659932 9,16 C9,12.1340068 12.1340068,9 16,9 C19.8659932,9 23,12.1340068 23,16 C23,19.8659932 19.8659932,23 16,23 Z M14,6 L14,1 C14,0.44771525 14.4477153,0 15,0 L17,0 C17.5522847,0 18,0.44771525 18,1 L18,6 C18,6.55228475 17.5522847,7 17,7 L15,7 C14.4477153,7 14,6.55228475 14,6 Z M14,31 L14,26 C14,25.4477153 14.4477153,25 15,25 L17,25 C17.5522847,25 18,25.4477153 18,26 L18,31 C18,31.5522847 17.5522847,32 17,32 L15,32 C14.4477153,32 14,31.5522847 14,31 Z M1,14 L6,14 C6.55228475,14 7,14.4477153 7,15 L7,17 C7,17.5522847 6.55228475,18 6,18 L1,18 C0.44771525,18 6.76353751e-17,17.5522847 0,17 L0,15 C-6.76353751e-17,14.4477153 0.44771525,14 1,14 Z M26,14 L31,14 C31.5522847,14 32,14.4477153 32,15 L32,17 C32,17.5522847 31.5522847,18 31,18 L26,18 C25.4477153,18 25,17.5522847 25,17 L25,15 C25,14.4477153 25.4477153,14 26,14 Z M3.97918472,25.1923882 L7.51471863,21.6568542 C7.90524292,21.26633 8.5384079,21.26633 8.92893219,21.6568542 L10.3431458,23.0710678 C10.73367,23.4615921 10.73367,24.0947571 10.3431458,24.4852814 L6.80761184,28.0208153 C6.41708755,28.4113396 5.78392257,28.4113396 5.39339828,28.0208153 L3.97918472,26.6066017 C3.58866043,26.2160774 3.58866043,25.5829124 3.97918472,25.1923882 Z M21.6568542,7.51471863 L25.1923882,3.97918472 C25.5829124,3.58866043 26.2160774,3.58866043 26.6066017,3.97918472 L28.0208153,5.39339828 C28.4113396,5.78392257 28.4113396,6.41708755 28.0208153,6.80761184 L24.4852814,10.3431458 C24.0947571,10.73367 23.4615921,10.73367 23.0710678,10.3431458 L21.6568542,8.92893219 C21.26633,8.5384079 21.26633,7.90524292 21.6568542,7.51471863 Z M25.1923882,28.0208153 L21.6568542,24.4852814 C21.26633,24.0947571 21.26633,23.4615921 21.6568542,23.0710678 L23.0710678,21.6568542 C23.4615921,21.26633 24.0947571,21.26633 24.4852814,21.6568542 L28.0208153,25.1923882 C28.4113396,25.5829124 28.4113396,26.2160774 28.0208153,26.6066017 L26.6066017,28.0208153 C26.2160774,28.4113396 25.5829124,28.4113396 25.1923882,28.0208153 Z M7.51471863,10.3431458 L3.97918472,6.80761184 C3.58866043,6.41708755 3.58866043,5.78392257 3.97918472,5.39339828 L5.39339828,3.97918472 C5.78392257,3.58866043 6.41708755,3.58866043 6.80761184,3.97918472 L10.3431458,7.51471863 C10.73367,7.90524292 10.73367,8.5384079 10.3431458,8.92893219 L8.92893219,10.3431458 C8.5384079,10.73367 7.90524292,10.73367 7.51471863,10.3431458 Z" id="ic_fill_brightness_32" fill="#212121" fill-rule="nonzero"></path>
    </g>
</svg>