<?xml version="1.0" encoding="UTF-8"?>
<svg width="32px" height="32px" viewBox="0 0 32 32" version="1.1" xmlns="http://www.w3.org/2000/svg" xmlns:xlink="http://www.w3.org/1999/xlink">
    <!-- Generator: Sketch 50.2 (55047) - http://www.bohemiancoding.com/sketch -->
    <title>bubble-plot-fill</title>
    <desc>Created with Sketch.</desc>
    <defs></defs>
    <g id="bubble-plot" stroke="none" stroke-width="1" fill="none" fill-rule="evenodd">
        <path d="M30.0006,-0.0006 C31.1046,-0.0006 32.0006,0.8954 32.0006,1.9994 L32.0006,29.9994 C32.0006,31.1054 31.1046,31.9994 30.0006,31.9994 L2.0006,31.9994 C0.8946,31.9994 0.0006,31.1054 0.0006,29.9994 L0.0006,1.9994 C0.0006,0.8954 0.8946,-0.0006 2.0006,-0.0006 L30.0006,-0.0006 Z M24.1439758,25.9973274 C26.3516047,25.9173209 28.0773146,24.0631697 27.9973281,21.8549897 C27.9173415,19.6468096 26.0636531,17.922669 23.8560242,18.0026755 C21.6483953,18.0806819 19.9226854,19.9368332 20.0026719,22.1430131 C20.0826585,24.3511932 21.9363469,26.0773339 24.1439758,25.9973274 Z M11.21601,21.9960101 C14.52801,21.8760101 17.11601,19.0940101 16.99601,15.7820101 C16.87601,12.4720101 14.09601,9.88401005 10.78401,10.0040101 C7.47201003,10.1220101 4.88401003,12.9040101 5.00401003,16.2160101 C5.12401003,19.5280101 7.90601003,22.1140101 11.21601,21.9960101 Z M21.8918788,5.00200502 C20.2358788,5.06200502 18.9438788,6.45200502 19.0018788,8.10800502 C19.0618788,9.76400502 20.4538788,11.058005 22.1078788,10.998005 C23.7638788,10.938005 25.0578788,9.54800502 24.9978788,7.89200502 C24.9378788,6.23600502 23.5478788,4.94200502 21.8918788,5.00200502 Z" id="Combined-Shape" fill="#212121"></path>
    </g>
</svg>