<?xml version="1.0" encoding="UTF-8"?>
<svg width="32px" height="32px" viewBox="0 0 32 32" version="1.1" xmlns="http://www.w3.org/2000/svg" xmlns:xlink="http://www.w3.org/1999/xlink">
    <!-- Generator: Sketch 50.2 (55047) - http://www.bohemiancoding.com/sketch -->
    <title>building-fill</title>
    <desc>Created with Sketch.</desc>
    <defs></defs>
    <g id="building" stroke="none" stroke-width="1" fill="none" fill-rule="evenodd">
        <path d="M28,28 L32,28 L32,32 L0,32 L0,28 L4,28 L4,2 C4,0.896 4.896,0 6,0 L20,0 C21.104,0 22,0.896 22,2 L22,6 L26,6 C27.104,6 28,6.896 28,8 L28,28 Z M8,24 L12,24 L12,20 L8,20 L8,24 Z M8,16 L12,16 L12,12 L8,12 L8,16 Z M8,8 L12,8 L12,4 L8,4 L8,8 Z M14,26 L18,26 L18,20 L14,20 L14,26 Z M14,16 L18,16 L18,12 L14,12 L14,16 Z M14,8 L18,8 L18,4 L14,4 L14,8 Z M20,24 L24,24 L24,20 L20,20 L20,24 Z M20,16 L24,16 L24,12 L20,12 L20,16 Z" id="Shape" fill="#212121"></path>
    </g>
</svg>
