<svg id="Fill" xmlns="http://www.w3.org/2000/svg" viewBox="0 0 100 100"><path d="M80.39,29.33V23.4c0-6.46-15.82-9.4-30.52-9.4s-30.52,2.94-30.52,9.4v5.93H16.19v18.6h3.16v19.7a9.62,9.62,0,0,0,2.88,6.88v4.4A7.09,7.09,0,0,0,29.31,86h.81a7.1,7.1,0,0,0,7.09-7.09V77.29H62.53v1.62A7.1,7.1,0,0,0,69.62,86h.81a7.09,7.09,0,0,0,7.08-7.09v-4.4a9.62,9.62,0,0,0,2.88-6.88V47.93h3.42V29.33ZM39.57,21.22H59.23v4.9H39.57ZM31.45,72.93a5.25,5.25,0,1,1,5.25-5.24A5.25,5.25,0,0,1,31.45,72.93ZM30.4,57a2.68,2.68,0,0,1-2.67-2.67V35.47A2.68,2.68,0,0,1,30.4,32.8H69.34A2.68,2.68,0,0,1,72,35.47V54.3A2.68,2.68,0,0,1,69.34,57Zm37.89,16a5.25,5.25,0,1,1,5.24-5.24A5.25,5.25,0,0,1,68.29,72.93Z"/></svg>