<svg id="Fill" xmlns="http://www.w3.org/2000/svg" viewBox="0 0 100 100"><rect x="29.31" y="27.16" width="40.94" height="10.01"/><path d="M14,14V75.52a4.51,4.51,0,0,0,3,4.24A97,97,0,0,0,50.36,86a91.42,91.42,0,0,0,32.73-6.26A4.51,4.51,0,0,0,86,75.52V14ZM27.5,72.08a3,3,0,1,1,3-3A3,3,0,0,1,27.5,72.08ZM27.5,58a3,3,0,1,1,3-3A3,3,0,0,1,27.5,58Zm15,14.07a3,3,0,1,1,3-3A3,3,0,0,1,42.5,72.08ZM42.5,58a3,3,0,1,1,3-3A3,3,0,0,1,42.5,58ZM24.81,41.68v-19H74.75v19ZM57.5,72.08a3,3,0,1,1,3-3A3,3,0,0,1,57.5,72.08ZM57.5,58a3,3,0,1,1,3-3A3,3,0,0,1,57.5,58Zm15,14.07a3,3,0,1,1,3-3A3,3,0,0,1,72.5,72.08ZM72.5,58a3,3,0,1,1,3-3A3,3,0,0,1,72.5,58Z"/></svg>