<?xml version="1.0" encoding="UTF-8"?>
<svg width="32px" height="32px" viewBox="0 0 32 32" version="1.1" xmlns="http://www.w3.org/2000/svg" xmlns:xlink="http://www.w3.org/1999/xlink">
    <!-- Generator: Sketch 53.2 (72643) - https://sketchapp.com -->
    <title>calendar-accepted-fill-fill</title>
    <desc>Created with Sketch.</desc>
    <g id="calendar-accepted-fill" stroke="none" stroke-width="1" fill="none" fill-rule="evenodd">
        <path d="M2,30 L2,12 L30,12 L30,30 C30,31.104 29.104,32 28,32 L4,32 C2.896,32 2,31.104 2,30 Z M22,0 L26,0 L26,4 L30,4 L30,8 L2,8 L2,4 L6,4 L6,0 L10,0 L10,4 L22,4 L22,0 Z M9.56585966,21.322938 L8,22.8887977 L13.1062782,28 L23.5354945,17.5658597 L21.9696348,16 L13.1062782,24.8633566 L9.56585966,21.322938 Z" id="Icon/Calender-Accept/Fill" fill="#2D2D2D"></path>
    </g>
</svg>