<?xml version="1.0" encoding="UTF-8"?>
<svg width="32px" height="32px" viewBox="0 0 32 32" version="1.1" xmlns="http://www.w3.org/2000/svg" xmlns:xlink="http://www.w3.org/1999/xlink">
    <!-- Generator: Sketch 53.2 (72643) - https://sketchapp.com -->
    <title>call-fill-fill</title>
    <desc>Created with Sketch.</desc>
    <g id="call-fill" stroke="none" stroke-width="1" fill="none" fill-rule="evenodd">
        <path d="M30.7632225,24.514015 L22.8529096,19.9682629 C21.8841765,19.4118294 20.6629101,19.5738903 19.8726626,20.3637389 L18.3181373,21.9189816 C17.9064758,22.3324104 17.2494868,22.3688202 16.7947025,22.003409 C15.5429453,20.9931929 14.3464506,19.9162957 13.2104114,18.7773914 C12.0720325,17.640828 10.995632,16.4437811 9.98588178,15.1914463 C9.62063917,14.7364521 9.65703214,14.0791599 10.0702703,13.6673085 L11.6247956,12.1120659 C12.4142799,11.3214537 12.5762661,10.0996237 12.0200891,9.13044359 L7.47643382,1.23869814 C7.09232807,0.57227687 6.42032945,0.122427156 5.65805912,0.0214406694 C4.89578878,-0.0795458175 4.12991995,0.179813494 3.58567912,0.723246293 L1.24500819,3.06499734 C-0.389464106,4.70022387 -0.416113111,7.69073327 1.17394418,11.507743 C2.69737895,15.1558979 5.54438097,19.1728674 9.16864563,22.8165787 C12.7929103,26.46029 16.825793,29.3130494 20.4767067,30.8149694 C22.0407011,31.5282147 23.7291307,31.9282507 25.4467461,31.9925102 C26.7236619,32.0644671 27.9752055,31.6155632 28.9155582,30.7483161 L31.2562291,28.4021215 C31.8098089,27.8643278 32.0780225,27.0971792 31.9801938,26.3314271 C31.8812985,25.568421 31.4309011,24.8958022 30.7632225,24.514015 Z" id="Icon/Call/Fill" fill="#212121" fill-rule="nonzero"></path>
    </g>
</svg>