<svg id="Fill" xmlns="http://www.w3.org/2000/svg" viewBox="0 0 100 100"><path d="M50,77.74c-3.59,0-7.46-2.91-7.46-6.49H39.2c0,4.84,4.49,8.86,9.13,9.65v.79H45.65V85h8.68V81.69H51.66V80.9c4.63-.8,9.12-4.81,9.12-9.65H57.46C57.46,74.83,53.59,77.74,50,77.74Z"/><path d="M79.1,46.15l2.35,2.34a15.43,15.43,0,0,0,0-21.88L79.1,29a12.13,12.13,0,0,1,0,17.2Z"/><path d="M74.82,42.94l2.35,2.34a10.82,10.82,0,0,0,0-15.37l-2.35,2.34a7.52,7.52,0,0,1,0,10.69Z"/><path d="M57.28,43.48h2.94l9,6.66a1.69,1.69,0,0,0,1,.32,1.66,1.66,0,0,0,1.66-1.65V26.4A1.66,1.66,0,0,0,71,24.92a1.68,1.68,0,0,0-1.74.15l-9,6.66H57.28a1.65,1.65,0,0,0-1.66,1.65v8.44A1.66,1.66,0,0,0,57.28,43.48Z"/><path d="M37,46V44l4.89,1.73a1.69,1.69,0,0,0,1.67,0,1.68,1.68,0,0,0,.83-1.44V30.89a1.66,1.66,0,0,0-.83-1.43,1.71,1.71,0,0,0-1.67,0L37,31.18v-2a1.66,1.66,0,0,0-1.66-1.66H15.66A1.66,1.66,0,0,0,14,29.17V46a1.65,1.65,0,0,0,1.66,1.65H35.32A1.65,1.65,0,0,0,37,46Z"/><polygon points="51.66 15 48.33 15 48.33 47.32 18.13 66.97 19.95 69.74 49.99 50.19 80.03 69.74 81.86 66.97 51.66 47.32 51.66 15"/><path d="M44.09,70A5.91,5.91,0,0,0,55.9,70V64.34H44.09Z"/><path d="M55.9,60.79a5.91,5.91,0,1,0-11.81,0V61H55.9Z"/></svg>