<?xml version="1.0" encoding="UTF-8"?>
<svg width="32px" height="32px" viewBox="0 0 32 32" version="1.1" xmlns="http://www.w3.org/2000/svg" xmlns:xlink="http://www.w3.org/1999/xlink">
    <!-- Generator: Sketch 53.2 (72643) - https://sketchapp.com -->
    <title>capital-fill-fill</title>
    <desc>Created with Sketch.</desc>
    <g id="capital-fill" stroke="none" stroke-width="1" fill="none" fill-rule="evenodd">
        <path d="M26,12 L30,12 L30,26 L26,26 L26,12 Z M18,12 L22,12 L22,26 L18,26 L18,12 Z M32,7.6744186 L32,10 L0,10 L0,7.59136213 L15.8900973,0 L32,7.6744186 Z M10,12 L14,12 L14,26 L10,26 L10,12 Z M2,12 L6,12 L6,26 L2,26 L2,12 Z M30.5911372,28 L30.5911372,28.0349854 L32,28.0349854 L32,32 L0,32 L0,28.0349854 L1.42263014,28.0349854 L1.42263014,28 L30.5911372,28 Z" id="Combined-Shape" fill="#2D2D2D" fill-rule="nonzero"></path>
    </g>
</svg>