<svg id="Fill" xmlns="http://www.w3.org/2000/svg" viewBox="0 0 100 100"><path d="M64.94,43.47H35.06a7.26,7.26,0,0,0-4.76,6.81V86H69.7V50.28A7.26,7.26,0,0,0,64.94,43.47Zm.35,37.3H34.71V62.48a11.1,11.1,0,0,0,3.88.73,8.61,8.61,0,0,0,3.66-1.36,2.82,2.82,0,0,1,2.19-1c.87.05,1.13.53,1.61.82a8,8,0,0,0,4.1,1.49,8.11,8.11,0,0,0,4.1-1.48c.51-.31.76-.83,1.68-.82,1.24,0,1.33.5,2.07.94a7.25,7.25,0,0,0,3.73,1.38,6.38,6.38,0,0,0,3.56-.94Z"/><path d="M64.1,35.31l-2.47,0V35a8.71,8.71,0,0,0-5.36-8.06,2.35,2.35,0,0,1-1.43-1.65l-.15-.74a2.47,2.47,0,0,1,.35-1.7,5.86,5.86,0,1,0-10.9-3,5.76,5.76,0,0,0,.8,2.95,2.54,2.54,0,0,1,.37,1.73l-.15.74a2.35,2.35,0,0,1-1.43,1.65A8.71,8.71,0,0,0,38.37,35v.35l-2.49,0V39H64.1Z"/></svg>