<?xml version="1.0" encoding="UTF-8"?>
<svg width="32px" height="32px" viewBox="0 0 32 32" version="1.1" xmlns="http://www.w3.org/2000/svg" xmlns:xlink="http://www.w3.org/1999/xlink">
    <!-- Generator: Sketch 50.2 (55047) - http://www.bohemiancoding.com/sketch -->
    <title>center-map-fill</title>
    <desc>Created with Sketch.</desc>
    <defs></defs>
    <g id="center-map" stroke="none" stroke-width="1" fill="none" fill-rule="evenodd">
        <path d="M18.0170475,8.216069 C20.8434962,8.94840369 23.052605,11.1575125 23.7849397,13.9819438 L18.0170475,13.9819438 L18.0170475,8.216069 Z M27.9225299,13.9829525 C27.0691481,8.92520301 23.0745952,4.93266757 18.0168457,4.07928582 L18.0168457,0 C25.3139658,0.91188783 31.0879104,6.68583245 31.9997983,13.9829525 L27.9225299,13.9829525 Z M1.77635684e-15,13.9829525 C0.91188783,6.68583245 6.68583245,0.913905281 13.9829525,0 L13.9829525,4.07928582 C8.92520301,4.93266757 4.93266757,8.92520301 4.07726837,13.9829525 L1.77635684e-15,13.9829525 Z M23.784738,18.0178544 C23.0524033,20.8443032 20.8432945,23.053412 18.0168457,23.7857467 L18.0168457,18.0178544 L23.784738,18.0178544 Z M8.21586725,13.9829525 C8.94820195,11.1565038 11.1573107,8.94941242 13.9817421,8.21707772 L13.9817421,13.9829525 L8.21586725,13.9829525 Z M13.9821456,23.7851415 C11.1556968,23.0528068 8.94658799,20.843698 8.21627074,18.0172492 L13.9821456,18.0172492 L13.9821456,23.7851415 Z M18.0170475,27.9235386 C23.074797,27.0701569 27.0693499,23.075604 27.9227316,18.0178544 L32,18.0178544 C31.0881122,25.3149745 25.3141675,31.0889192 18.0170475,32.000807 L18.0170475,27.9235386 Z M4.07747012,18.0178544 C4.93085187,23.075604 8.9233873,27.0681394 13.9811368,27.9235386 L13.9811368,32.000807 C6.6860342,31.0889192 0.912089575,25.3149745 0.000201745095,18.0178544 L4.07747012,18.0178544 Z" id="Combined-Shape" fill="#212121"></path>
    </g>
</svg>