<?xml version="1.0" encoding="UTF-8"?>
<svg width="32px" height="32px" viewBox="0 0 32 32" version="1.1" xmlns="http://www.w3.org/2000/svg" xmlns:xlink="http://www.w3.org/1999/xlink">
    <!-- Generator: Sketch 53.2 (72643) - https://sketchapp.com -->
    <title>Change-fill-fill</title>
    <desc>Created with Sketch.</desc>
    <g id="Change-fill" stroke="none" stroke-width="1" fill="none" fill-rule="evenodd">
        <path d="M9.6,11.1111111 L14.3111111,15.8222222 C14.6666667,16.1777778 14.6666667,16.7555556 14.3111111,17.1111111 C13.9555556,17.4666667 13.3777778,17.4666667 13.0222222,17.1111111 L6.13333333,10.2222222 L13.0222222,3.33333333 C13.3777778,2.97777778 13.9555556,2.97777778 14.3111111,3.33333333 C14.6666667,3.68888889 14.6666667,4.26666667 14.3111111,4.62222222 L9.6,9.33333333 L32,9.37777778 L32,7.10542736e-15 L2.66666667,7.10542736e-15 C1.2,7.10542736e-15 7.10542736e-15,1.2 7.10542736e-15,2.66666667 L7.10542736e-15,20.8888889 L22.4,20.8444444 L17.6888889,16.1333333 C17.3333333,15.7777778 17.3333333,15.2444444 17.6888889,14.8888889 C18.0444444,14.5333333 18.6222222,14.5333333 18.9777778,14.8888889 L25.8666667,21.7777778 L18.9777778,28.6666667 C18.6222222,29.0222222 18.0444444,29.0222222 17.6888889,28.6666667 C17.3333333,28.3111111 17.3333333,27.7333333 17.6888889,27.3777778 L22.4,22.6666667 L7.10542736e-15,22.7111111 L7.10542736e-15,29.3333333 C7.10542736e-15,30.8 1.2,32 2.66666667,32 L29.3333333,32 C30.8,32 32,30.8 32,29.3333333 L32,11.1555556 L9.6,11.1111111 Z" id="Path" fill="#2D2D2D" fill-rule="nonzero"></path>
    </g>
</svg>