<svg id="Fill" xmlns="http://www.w3.org/2000/svg" viewBox="0 0 100 100"><rect x="29.82" y="66.86" width="39.41" height="0.02"/><rect x="31.83" y="54.97" width="28.13" height="4.18"/><rect x="29.82" y="61.25" width="39.41" height="0.07"/><rect x="38.78" y="68.95" width="28.13" height="4.18"/><rect x="29.82" y="75.23" width="39.41" height="0.02"/><rect x="38.78" y="27.01" width="28.13" height="4.18"/><rect x="29.82" y="38.9" width="39.41" height="0.12"/><rect x="29.82" y="52.88" width="39.41" height="0.07"/><path d="M74.52,14.05H25a3.22,3.22,0,0,0-3.22,3.21V82.83A3.22,3.22,0,0,0,25,86.05H74.52a3.22,3.22,0,0,0,3.22-3.22V17.26A3.22,3.22,0,0,0,74.52,14.05ZM69.23,66.88v8.35H29.82V66.86H69.23Zm0-13.93v8.36H29.82V52.88H69.23Zm0-13.93v8.37H29.82V38.9H69.23Zm0-5.73H29.82V24.92H69.23Z"/><rect x="29.82" y="47.27" width="39.41" height="0.12"/><rect x="38.78" y="40.99" width="28.13" height="4.18"/></svg>