<svg id="Fill" xmlns="http://www.w3.org/2000/svg" viewBox="0 0 100 100"><path d="M55.8,64.63,61.08,62,58.52,50.41l-5.88-.13a18.17,18.17,0,0,0-2.9-3.13l.38-5.88L38.79,37.69l-3.12,5a17,17,0,0,0-2.11.33,18.72,18.72,0,0,0-2.06.58l-4.94-3.23-8.77,8,2.81,5.17a18.74,18.74,0,0,0-1.31,4.05L14,60.11l2.56,11.63,5.89.17A18.17,18.17,0,0,0,25.35,75L25,80.92,36.32,84.5l3.1-5a18.53,18.53,0,0,0,2.11-.32,17.84,17.84,0,0,0,2-.59l4.93,3.25,8.85-8-2.87-5.13A18.49,18.49,0,0,0,55.8,64.63Zm-16.66,3.7a7.29,7.29,0,0,1-1.61.18,7.47,7.47,0,1,1,1.61-.18Z"/><path d="M82.29,31.09c-.05-.46-.12-.87-.2-1.27a12.37,12.37,0,0,0-.35-1.23L84.16,25,77.85,18.1,74,20.17a14.56,14.56,0,0,0-2.45-.79L69.7,15.5l-9.19,2-.12,4.32a13.94,13.94,0,0,0-1.89,1.73l-4.35-.27L51.3,32.23,55,34.42c0,.46.12.87.2,1.27a11.65,11.65,0,0,0,.35,1.23l-2.43,3.59,6.31,6.88,3.84-2a13.67,13.67,0,0,0,2.45.78L67.69,50l9.14-2,.1-4.31A13.42,13.42,0,0,0,78.82,42l4.35.29L86,33.35ZM69.92,38.45a5.49,5.49,0,0,1-1.27.14,5.86,5.86,0,0,1-3.15-.92,5.83,5.83,0,0,1,1.9-10.61,5.88,5.88,0,0,1,7,4.45h0A5.84,5.84,0,0,1,69.92,38.45Z"/></svg>