<?xml version="1.0" encoding="UTF-8"?>
<svg width="32px" height="32px" viewBox="0 0 32 32" version="1.1" xmlns="http://www.w3.org/2000/svg" xmlns:xlink="http://www.w3.org/1999/xlink">
    <!-- Generator: Sketch 53.2 (72643) - https://sketchapp.com -->
    <title>community-fill-fill</title>
    <desc>Created with Sketch.</desc>
    <g id="community-fill" stroke="none" stroke-width="1" fill="none" fill-rule="evenodd">
        <path d="M15.9956771,9.99999818 C13.2385831,9.9953172 11.0046828,7.76141692 11.0000018,5.0043229 C10.9982823,2.98126846 12.2158447,1.15654047 14.0845747,0.381556516 C15.9533048,-0.393427442 18.1048931,0.0340748109 19.5354092,1.46459084 C20.9659252,2.89510687 21.3934274,5.04669518 20.6184435,6.91542526 C19.8434595,8.78415533 18.0187315,10.0017177 15.9956771,9.99999818 Z M5,12.9022222 C2.79179074,12.8999792 1.00224298,11.1104315 1,8.90222222 C1,6.69308322 2.790861,4.90222222 5,4.90222222 C7.209139,4.90222222 9,6.69308322 9,8.90222222 C9,11.1113612 7.209139,12.9022222 5,12.9022222 Z M26.9999434,12.9020941 C24.7924249,12.9020952 23.0022478,11.1137392 23.0000021,8.9062219 C22.9983559,7.28802738 23.9718659,5.82825526 25.4664105,5.20785804 C26.9609551,4.58746082 28.6820681,4.9286737 29.8268872,6.07232815 C30.9717063,7.2159826 31.3146707,8.93674748 30.695795,10.4319227 C30.0769193,11.927098 28.6181387,12.9020933 26.9999434,12.9020941 Z M6,17.0012051 L6,32 L0,32 L0,18.5607543 L0.531228552,18.2759671 C2.17656463,17.4102128 3.98202155,16.9739227 5.80645161,17.0012051 L6,17.0012051 Z M24,32 L24,31.9955939 L8,31.9955939 L8,17.5260374 L8,15.8164795 L8.60069849,15.5300845 C10.8882426,14.4970996 13.3956147,13.974067 15.9301513,14.0011759 C18.5111252,13.971164 21.0633691,14.5160362 23.3806752,15.5917696 L23.9720605,15.8781646 L23.9720605,17.5304435 L24,17.5304435 L24,32 Z M31.4684066,18.2793846 L32,18.5729462 L32,32 L26,32 L26,17.0012628 L26.1895604,17.0012628 C28.0157681,16.9732763 29.8229218,17.410827 31.4684066,18.2793846 Z" id="Combined-Shape" fill="#2D2D2D" fill-rule="nonzero"></path>
    </g>
</svg>