<?xml version="1.0" encoding="UTF-8"?>
<svg width="32px" height="32px" viewBox="0 0 32 32" version="1.1" xmlns="http://www.w3.org/2000/svg" xmlns:xlink="http://www.w3.org/1999/xlink">
    <!-- Generator: Sketch 50.2 (55047) - http://www.bohemiancoding.com/sketch -->
    <title>compass-fill</title>
    <desc>Created with Sketch.</desc>
    <defs></defs>
    <g id="compass" stroke="none" stroke-width="1" fill="none" fill-rule="evenodd">
        <path d="M11.4421838,12.9469 C11.439638,12.9564466 11.43716,12.966022 11.4347503,12.9756257 L9.29041642,21.5217568 C9.25032818,21.6815264 9.25032818,21.8487249 9.29041642,22.0084945 C9.42482532,22.5441742 9.96803941,22.8694684 10.5037191,22.7350595 L19.0498503,20.5907256 C19.0594539,20.588316 19.0690293,20.585838 19.0785759,20.5832921 L11.4421831,12.9468994 Z M12.8591546,11.5299292 L20.4955474,19.1663219 C20.4980926,19.1567747 20.5005706,19.1471993 20.5029802,19.1375957 L22.6473141,10.5914645 C22.6874023,10.4316949 22.6874023,10.2644964 22.6473141,10.1047268 C22.5129052,9.56904716 21.9696911,9.24375293 21.4340115,9.37816182 L12.8878803,11.5224957 C12.8782766,11.5249053 12.8687012,11.5273834 12.8591546,11.5299292 Z M31.9396439,15.0292457 L28,15.0292457 L28,17.0331452 L31.9357561,17.0331452 C31.4210004,25.0424931 24.9666417,31.499697 16.9688653,32 L16.9688653,28.0194972 L14.9688653,28.0194972 L14.9688653,32 C6.960708,31.4990476 0.499977604,25.0257206 1.03736464e-14,17.0019497 L3.96886526,17.0019497 L3.96886526,14.9980503 L3.6429193e-16,14.9980503 C0.520630409,6.6428378 7.5046316,-0.031195444 15.9688653,-0.031195444 C24.4436304,-0.031195444 31.4344774,6.65945632 31.9396439,15.0292457 Z M14.9688653,-4.26325641e-14 L14.9688653,4.1060318 L16.9688653,4.1060318 L16.9688653,-4.26325641e-14 L14.9688653,-4.26325641e-14 Z" id="Combined-Shape" fill="#212121" fill-rule="nonzero"></path>
    </g>
</svg>