<svg id="Fill" xmlns="http://www.w3.org/2000/svg" viewBox="0 0 100 100"><path d="M60.13,63.31A23.09,23.09,0,0,1,50,82.33,24,24,0,0,1,37.23,86a22.89,22.89,0,1,1,22.9-23ZM34.77,14V36.51h1.64A27,27,0,0,1,63.5,63.43a.71.71,0,0,0,0,.29,4,4,0,0,1,0,.69v.44h6.36L85.9,46l.1-.12V14ZM80.42,46.22l-12.2,13v-13ZM48.3,68.62l3.87-.87L52.35,59l-3.86-1a14.4,14.4,0,0,0-1-1.85l1.2-3.78L41,47.74l-2.87,2.85a12.74,12.74,0,0,0-2.14,0l-2.74-3-7.79,4.28,1,3.78c-.19.33-.44.59-.63.92s-.31.59-.49.91l-3.89.87-.18,8.79,3.93,1.06a17.36,17.36,0,0,0,1,1.85l-1.14,3.84,7.59,4.53,2.86-2.84a10.93,10.93,0,0,0,2.14,0l2.74,3,7.77-4.25-1-3.87c.18-.33.44-.59.63-.92S48.11,69,48.3,68.62Zm-6.91-2.87a5.36,5.36,0,0,1-7.3,1.78,4.43,4.43,0,0,1-.87-.68,5.26,5.26,0,0,1-1.49-2.55,5.45,5.45,0,0,1,.55-4,5.72,5.72,0,0,1,3.33-2.4,5.08,5.08,0,0,1,4,.61A5.3,5.3,0,0,1,41.39,65.75Z"/></svg>