<svg id="Fill" xmlns="http://www.w3.org/2000/svg" viewBox="0 0 100 100"><g id="Fill-2" data-name="Fill"><path d="M52,52.55V60a5.34,5.34,0,0,0,2.73-1.19,3.32,3.32,0,0,0,1.2-2.62A2.85,2.85,0,0,0,55,53.88,8.27,8.27,0,0,0,52,52.55Z"/><path d="M45.76,43a2.49,2.49,0,0,0,.84,2,5.9,5.9,0,0,0,2.19,1V39.8a3.56,3.56,0,0,0-2,.87A3,3,0,0,0,45.76,43Z"/><path d="M49.9,14A36,36,0,1,0,86,49.9,36,36,0,0,0,49.9,14ZM60.31,60.09a8.82,8.82,0,0,1-3.43,3.18A11.91,11.91,0,0,1,52,64.61V68H48.79V64.6a10.3,10.3,0,0,1-6.33-2.67,10.9,10.9,0,0,1-3-7.1h5.6V55a5,5,0,0,0,1.14,3.35,5.18,5.18,0,0,0,2.56,1.59V51.65c-1.55-.42-2.59-.73-3.11-.92a15.56,15.56,0,0,1-2.25-1.09,6.45,6.45,0,0,1-2.33-2.28,7,7,0,0,1-.94-3.77,7.64,7.64,0,0,1,2.46-5.82,10.39,10.39,0,0,1,6.17-2.56V32H52v3.2a10.5,10.5,0,0,1,6,2.53,8.2,8.2,0,0,1,2.5,5.82H54.9a4.28,4.28,0,0,0-1-2.72,2.94,2.94,0,0,0-1.92-1v7c3.32.76,5.74,1.82,7.22,3.18a7.93,7.93,0,0,1,2.31,6.17A7.55,7.55,0,0,1,60.31,60.09Z"/></g></svg>