<svg id="Fill" xmlns="http://www.w3.org/2000/svg" viewBox="0 0 100 100"><path d="M83.08,73.4,53.73,82.64h-.36l-9.66.22c-2.42,0-4.84.09-6.66.11l-1.71,0a5.09,5.09,0,0,1-2.94-.5C30,81.65,21.18,79,15.74,77.37L14,76.85v-27l21.64,5.8,3.07,2.39,18.94,2.31c1.51.16,3.25.79,3.31,2.47l-.07,3.64a2.65,2.65,0,0,1-2.56,2.11h-21v4.15h21A6.85,6.85,0,0,0,65,67l.07-3.15c16-1.61,18.43-1.54,19.31-.75l.16.15.08.21a36.47,36.47,0,0,1,1.27,5A4.31,4.31,0,0,1,83.08,73.4ZM25.29,31.5h53v13a4.49,4.49,0,0,1-4.5,4.5h-44a4.49,4.49,0,0,1-4.5-4.5Zm42.19,9.42a2.36,2.36,0,1,0,2.36-2.35A2.36,2.36,0,0,0,67.48,40.92Zm-7.86,0A2.36,2.36,0,1,0,62,38.57,2.36,2.36,0,0,0,59.62,40.92ZM25.29,17v8.07h53V17.14Z"/></svg>