<svg id="Fill" xmlns="http://www.w3.org/2000/svg" viewBox="0 0 100 100"><path d="M49.86,56.36c-8.18,0-15.89-1.4-21.72-3.94A23.83,23.83,0,0,1,22.42,49l-.92-.77v9.46c0,2.85,2.87,5.73,7.88,7.91C34.82,68,42.1,69.3,49.86,69.3s15-1.3,20.49-3.68c5-2.18,7.87-5.06,7.87-7.91V48.25l-.91.77a24,24,0,0,1-5.72,3.4C65.76,55,58,56.36,49.86,56.36Z"/><path d="M78.22,34.55V33.39l-.91.77a24,24,0,0,1-5.72,3.4C65.76,40.1,58,41.5,49.86,41.5S34,40.1,28.14,37.56a23.83,23.83,0,0,1-5.72-3.4l-.92-.77v7.78c0,2.85,2.87,5.74,7.88,7.92,5.44,2.37,12.72,3.68,20.48,3.68s15-1.31,20.49-3.68c5-2.18,7.87-5.07,7.87-7.92Z"/><path d="M29.5,34.36C35,36.79,42.24,38.13,50,38.13s15-1.34,20.5-3.77c5.08-2.26,8-5.29,8-8.3s-2.92-6-8-8.29C65,15.34,57.76,14,50,14s-15,1.34-20.5,3.77c-5.08,2.26-8,5.29-8,8.29S24.42,32.1,29.5,34.36Z"/><path d="M76.6,65.23a22.84,22.84,0,0,1-5.5,3.27C65.38,71,57.8,72.36,49.74,72.36S34.1,71,28.39,68.5a22.92,22.92,0,0,1-5.51-3.27L21.5,63.81V74.13c0,3.24,2,5.76,7.39,8.11,5.56,2.43,13,3.76,20.85,3.76S65,84.67,70.6,82.24s7.78-4.87,7.78-8.11V63.81Z"/></svg>