<svg id="Fill" xmlns="http://www.w3.org/2000/svg" viewBox="0 0 100 100"><path d="M25.93,60.68A4.09,4.09,0,0,0,30,64.78H70.1a4.1,4.1,0,0,0,4.1-4.1V48.84H25.93Zm40.57-5.4a2.15,2.15,0,1,1-2.15,2.14A2.14,2.14,0,0,1,66.5,55.28Zm-7.16,0a2.15,2.15,0,1,1-2.14,2.14A2.14,2.14,0,0,1,59.34,55.28Z"/><polygon points="25.93 35.64 25.93 42.99 74.2 42.99 74.2 35.76 25.93 35.64"/><path d="M50,14A36,36,0,1,0,86,50,36,36,0,0,0,50,14ZM21,50A28.95,28.95,0,0,1,66.84,26.44l-40.4,40.4A28.93,28.93,0,0,1,21,50ZM50,79a28.93,28.93,0,0,1-16.84-5.44l40.4-40.4A28.95,28.95,0,0,1,50,79Z"/></svg>