<?xml version="1.0" encoding="UTF-8"?>
<svg width="32px" height="32px" viewBox="0 0 32 32" version="1.1" xmlns="http://www.w3.org/2000/svg" xmlns:xlink="http://www.w3.org/1999/xlink">
    <!-- Generator: Sketch 50.2 (55047) - http://www.bohemiancoding.com/sketch -->
    <title>delete-fill</title>
    <desc>Created with Sketch.</desc>
    <defs></defs>
    <g id="delete" stroke="none" stroke-width="1" fill="none" fill-rule="evenodd">
        <path d="M4,10.0620713 L28,10.0620713 L27.6498909,27.75169 C27.6258778,28.932332 27.1316091,29.9949097 26.3471825,30.7613265 C25.5647571,31.5277432 24.4921739,32 23.3115319,32 L8.85367043,32 C8.55951048,32 8.2713538,31.9719848 7.99120147,31.9139532 C7.43489898,31.8018923 6.91461607,31.5837737 6.4563669,31.2776072 C6.22824286,31.1255245 6.01412643,30.9534309 5.8180198,30.7613265 C5.03559435,29.9949097 4.5413256,28.932332 4.51731254,27.75169 L4,10.0620713 Z M23,2.00108809 L28.9989119,2.00108809 C30.1055136,2.00108809 31,2.89757556 31,4.00217618 C31,5.10677681 30.1055136,6.00326427 28.9989119,6.00326427 L3.00108809,6.00326427 C1.89448638,6.00326427 1,5.10677681 1,4.00217618 C1,2.89757556 1.89448638,2.00108809 3.00108809,2.00108809 L9,2.00108809 C9,0.896487465 9.89448638,0 11.0010881,0 L20.9989119,0 C22.1035125,0 23,0.896487465 23,2.00108809 Z" id="Combined-Shape" fill="#212121"></path>
    </g>
</svg>