<svg id="Fill" xmlns="http://www.w3.org/2000/svg" viewBox="0 0 100 100"><path d="M54,83.48A5.45,5.45,0,1,1,59.48,78,5.46,5.46,0,0,1,54,83.48Z"/><path id="Outline-v2" d="M38.84,52.83c-5.25,0-9.52-11.2-9.52-16.46V31.25h4.4V28.32H26.39v8c0,6.37,4.82,18.51,11,19.24"/><path id="Page-1" d="M37.36,58.69c-.79,0-1.13-.26-1.13-1v-7c0-1.73,1.68-3.17,4-3.17H66.31c2.3,0,4,1.44,4,3.17v7c0,.79-.35,1-1.14,1Z"/><polyline points="52.67 74.77 52.67 56.46 55.39 56.46 55.39 74.77"/><path d="M62.71,80.55A5.45,5.45,0,1,1,68.16,86,5.46,5.46,0,0,1,62.71,80.55Z"/><rect x="59.14" y="64.13" width="2.72" height="15.98" transform="translate(154.37 64.93) rotate(125.61)"/><path d="M39.82,86a5.45,5.45,0,1,1,5.45-5.45A5.46,5.46,0,0,1,39.82,86Z"/><rect x="46.11" y="64.13" width="2.72" height="15.98" transform="translate(78.47 -8.47) rotate(54.39)"/><path id="Page-1-2" data-name="Page-1" d="M30.58,16.49c-.13-.78.07-1.16.85-1.29L38.28,14c1.71-.29,3.41,1.12,3.79,3.39l3.73,22c.38,2.26-.76,4.16-2.46,4.45l-6.86,1.16c-.78.13-1.09-.16-1.23-.94Z"/></svg>