<?xml version="1.0" encoding="UTF-8"?>
<svg width="32px" height="32px" viewBox="0 0 32 32" version="1.1" xmlns="http://www.w3.org/2000/svg" xmlns:xlink="http://www.w3.org/1999/xlink">
    <!-- Generator: Sketch 53.2 (72643) - https://sketchapp.com -->
    <title>digital-transformation-fill-fill</title>
    <desc>Created with Sketch.</desc>
    <g id="digital-transformation-fill" stroke="none" stroke-width="1" fill="none" fill-rule="evenodd">
        <path d="M30,2 L30,26 L2,26 L2,2 L30,2 Z M5,23 L27,23 L27,5 L5,5 L5,23 Z M0,27 L32,27 L32,30 L0,30 L0,27 Z M9.4553179,15.6734631 C9.1967102,15.614286 9.01001236,15.3889031 9,15.1238 L9,12.5231554 C9.00121858,12.2554881 9.18348246,12.0225954 9.44301201,11.9570845 L10.000879,11.8176178 C10.4526497,11.7016531 10.8368388,11.404982 11.0632874,10.9972252 L11.1043071,10.9274918 C11.3438053,10.5246173 11.4061538,10.0406743 11.2765895,9.59025183 L11.1330208,9.04879271 C11.0704909,8.77298725 11.2136555,8.49183265 11.4734837,8.38017272 L13.7213595,7.07985043 C13.9534671,6.94393681 14.2484537,6.98462462 14.4351011,7.17829754 L14.8452974,7.61310563 C15.1693369,7.94482392 15.6121845,8.1337722 16.0758863,8.1381569 C16.5395882,8.1337722 16.9824357,7.94482392 17.3064752,7.61310563 L17.7166715,7.17829754 C17.9033189,6.98462462 18.1983056,6.94393681 18.4304131,7.07985043 L20.6823909,8.38017272 C20.9124857,8.51689826 21.0218906,8.79125208 20.9490185,9.04879271 L20.7234105,9.57384398 C20.5958186,10.0244145 20.6580651,10.5075662 20.8956929,10.9110839 L20.9367126,10.9808173 C21.1631612,11.3885741 21.5473503,11.6852452 21.999121,11.8012099 L22.556988,11.9406767 C22.8165175,12.0061876 22.9987814,12.2390803 23,12.5067476 L23,15.0827804 C22.9987814,15.3504477 22.8165175,15.5833404 22.556988,15.6488513 L21.999121,15.788318 C21.5479975,15.9056051 21.1642769,16.2019145 20.9367126,16.6087107 L20.8956929,16.678444 C20.6580651,17.0819617 20.5958186,17.5651135 20.7234105,18.015684 L20.8792851,18.5653471 C20.9521573,18.8228877 20.8427524,19.0972415 20.6126575,19.233967 L18.3606798,20.5342893 C18.1285722,20.670203 17.8335855,20.6295151 17.6469382,20.4358422 L17.2367419,20.0010341 C16.9133408,19.6688925 16.4697318,19.481098 16.0061529,19.4800848 C15.5425741,19.481098 15.0989651,19.6688925 14.775564,20.0010341 L14.3653677,20.4358422 C14.1787204,20.6295151 13.8837337,20.670203 13.6516261,20.5342893 L11.3914445,19.242171 C11.158631,19.1076827 11.0470582,18.8321315 11.1207149,18.573551 L11.2765895,18.0238879 C11.4051326,17.5801776 11.3473679,17.1032486 11.116613,16.7030558 L11.0755933,16.6333224 C10.848029,16.2265263 10.4643084,15.9302169 10.0131849,15.8129298 L9.4553179,15.6734631 Z M16.0430706,12.0514297 C15.5767356,12.0503401 15.1291271,12.2348277 14.798993,12.5641923 C14.4688589,12.8935568 14.2833272,13.3407336 14.2833285,13.8070699 C14.2833311,14.7761486 15.0685261,15.5619518 16.0376045,15.5627048 C17.006683,15.5634577 17.7930981,14.7788757 17.7946067,13.8097981 C17.7961153,12.8407206 17.0121467,12.0536939 16.0430706,12.0514297 Z" id="Combined-Shape" fill="#2D2D2D" fill-rule="nonzero"></path>
    </g>
</svg>