<svg id="Fill" xmlns="http://www.w3.org/2000/svg" viewBox="0 0 100 100"><path d="M81.65,17.64H17.56V72.51H81.65Zm-57,47.76V24.75H74.54V65.4Z"/><rect x="14" y="75.25" width="72" height="7.12"/><path id="Fill-v2" d="M34.56,49.65l1.36.34a4.17,4.17,0,0,1,2.59,2l.1.17A4.14,4.14,0,0,1,39,55.38l-.38,1.34a1.43,1.43,0,0,0,.66,1.63l5.48,3.17a1.42,1.42,0,0,0,1.74-.24l1-1.06a4.2,4.2,0,0,1,3-1.27h0a4.2,4.2,0,0,1,3,1.27l1,1.06a1.42,1.42,0,0,0,1.74.24l5.49-3.17a1.44,1.44,0,0,0,.65-1.63l-.38-1.34a4.18,4.18,0,0,1,.42-3.26l.1-.17a4.17,4.17,0,0,1,2.59-2l1.36-.34a1.43,1.43,0,0,0,1.08-1.38V41.93a1.43,1.43,0,0,0-1.08-1.38l-1.36-.34a4.14,4.14,0,0,1-2.59-2l-.1-.17a4.18,4.18,0,0,1-.42-3.26l.38-1.34a1.44,1.44,0,0,0-.65-1.63l-5.49-3.17a1.42,1.42,0,0,0-1.74.24l-1,1.06a4.25,4.25,0,0,1-3,1.28h0a4.25,4.25,0,0,1-3-1.28l-1-1.06a1.42,1.42,0,0,0-1.74-.24l-5.48,3.17a1.43,1.43,0,0,0-.66,1.63L39,34.82a4.14,4.14,0,0,1-.42,3.26l-.1.17a4.14,4.14,0,0,1-2.59,2l-1.36.34a1.43,1.43,0,0,0-1.08,1.38v6.34A1.43,1.43,0,0,0,34.56,49.65Zm16.06-8.83a4.28,4.28,0,1,1-4.29,4.28A4.28,4.28,0,0,1,50.62,40.82Z"/></svg>