<svg id="Fill" xmlns="http://www.w3.org/2000/svg" viewBox="0 0 100 100"><path d="M74,19.55v-1a6.24,6.24,0,0,0-.35-2.23,6.55,6.55,0,0,0-1-1.69,6.07,6.07,0,0,0-3.83-.33c-4,1.12-5.34,7.5-6.85,16.4C60,43,59.1,51.31,58.36,58.61A45.8,45.8,0,0,0,58,65.73c0,6,.43,8.69,2.81,11.76a16.71,16.71,0,0,0,2.88,2.82c0,1.85-.1,3.76-.15,5.69H74Z"/><path d="M44.47,67.42a4.59,4.59,0,0,1,1.82-3.72c4.15-3.2,6.7-9.14,6.36-15.65l-2-34H46.42V45.9H41.75V14H37V45.92H32.23V14.07H28l-2,34c-.39,6.49,2.19,12.43,6.35,15.63a4.59,4.59,0,0,1,1.81,3.72L33.84,86h11Z"/></svg>