<svg id="Fill" xmlns="http://www.w3.org/2000/svg" viewBox="0 0 100 100"><path d="M85.91,64.54a35.61,35.61,0,0,0-1.27-4.93l-.08-.21-.16-.15c-.88-.79-3.36-.86-19.31.74L65,63.12a6.84,6.84,0,0,1-6.69,5.68h-21V64.67h21a2.64,2.64,0,0,0,2.56-2.09L61,59c-.06-1.67-1.8-2.3-3.31-2.45l-18.94-2.3-3.07-2.38L14,46.07V72.89l1.74.52C21.18,75,30,77.66,32.4,78.5a5.09,5.09,0,0,0,2.94.5l1.71,0c1.82,0,4.24-.06,6.66-.11l9.66-.22h.36l29.35-9.18A4.29,4.29,0,0,0,85.91,64.54Z"/><polygon id="Fill-2" points="51.55 21 51.55 32.13 40.3 32.13 40.3 36.59 51.55 36.59 51.55 47.72 56.05 47.72 56.05 36.59 67.3 36.59 67.3 32.13 56.05 32.13 56.05 21 51.55 21"/></svg>