<?xml version="1.0" encoding="UTF-8"?>
<svg width="32px" height="32px" viewBox="0 0 32 32" version="1.1" xmlns="http://www.w3.org/2000/svg" xmlns:xlink="http://www.w3.org/1999/xlink">
    <!-- Generator: Sketch 50.2 (55047) - http://www.bohemiancoding.com/sketch -->
    <title>doc-fill</title>
    <desc>Created with Sketch.</desc>
    <defs></defs>
    <g id="doc" stroke="none" stroke-width="1" fill="none" fill-rule="evenodd">
        <path d="M32,6 L32,28 L0,28 L0,4 L30,4 C31.1053333,4 32,4.89466667 32,6 Z M3.00053333,20.8594131 L6.48287782,20.8594131 C7.60228621,20.8594131 8.53874222,20.4878102 9.29227394,19.7445933 C10.0458057,19.0013764 10.4225659,18.0445547 10.4225659,16.8740993 L10.4225659,15.1251007 C10.4225659,13.9590957 10.0458057,13.0033865 9.29227394,12.2579445 C8.53874222,11.5125024 7.60228621,11.1397869 6.48287782,11.1397869 L3.00053333,11.1397869 L3.00053333,20.8594131 Z M5.20884935,12.8754344 L6.48287782,12.8754344 C6.98378041,12.8754344 7.39647439,13.0846001 7.72097216,13.5029378 C8.04546992,13.9212754 8.20771637,14.4575407 8.20771637,15.1117495 L8.20771637,16.8740993 C8.20771637,17.537209 8.04546992,18.0779246 7.72097216,18.4962622 C7.39647439,18.9145999 6.98378041,19.1237656 6.48287782,19.1237656 L5.20884935,19.1237656 L5.20884935,12.8754344 Z M19.9823529,16.8740993 L19.9823529,15.1251007 C19.9823529,13.9323933 19.6077705,12.9466444 18.8585944,12.1678243 C18.1094184,11.3890042 17.1381175,10.9996 15.9446626,10.9996 C14.7424964,10.9996 13.7679288,11.3890042 13.0209306,12.1678243 C12.2739324,12.9466444 11.9004389,13.9323933 11.9004389,15.1251007 L11.9004389,16.8740993 C11.9004389,18.0712571 12.2750213,19.0581186 13.0241974,19.8347135 C13.7733734,20.6113084 14.7512077,20.9996 15.9577296,20.9996 C17.1555401,20.9996 18.1257521,20.6113084 18.8683946,19.8347135 C19.6110372,19.0581186 19.9823529,18.0712571 19.9823529,16.8740993 Z M17.7805703,15.1117495 L17.7805703,16.8740993 C17.7805703,17.5772626 17.6215906,18.1513557 17.3036263,18.5963957 C16.9856621,19.0414358 16.5370343,19.2639525 15.9577296,19.2639525 C15.3610022,19.2639525 14.9025743,19.0414358 14.5824322,18.5963957 C14.2622901,18.1513557 14.1022215,17.5772626 14.1022215,16.8740993 L14.1022215,15.1117495 C14.1022215,14.4130366 14.2601123,13.8422813 14.5758987,13.3994665 C14.8916851,12.9566516 15.3479352,12.7352475 15.9446626,12.7352475 C16.528323,12.7352475 16.9802175,12.9577642 17.3003596,13.4028043 C17.6205017,13.8478443 17.7805703,14.417487 17.7805703,15.1117495 Z M28.9671937,17.5817095 L26.817679,17.5817095 C26.817679,18.186964 26.705522,18.6186463 26.4812048,18.8767696 C26.2568875,19.1348928 25.8921053,19.2639525 25.386847,19.2639525 C24.8423877,19.2639525 24.4242492,19.0592371 24.132419,18.6498003 C23.8405888,18.2403634 23.6946758,17.6951975 23.6946758,17.0142862 L23.6946758,14.9715626 C23.6946758,14.2951017 23.8275219,13.7532736 24.0932181,13.3460619 C24.3589142,12.9388503 24.7400301,12.7352475 25.236577,12.7352475 C25.8028147,12.7352475 26.2100641,12.8643072 26.4583376,13.1224304 C26.7066111,13.3805537 26.8307459,13.8077857 26.8307459,14.4041394 L28.9802606,14.4041394 L28.9998611,14.364086 C29.0172838,13.2692874 28.6960576,12.4348499 28.0361729,11.8607482 C27.3762882,11.2866465 26.4430989,10.9996 25.236577,10.9996 C24.1084572,10.9996 23.2014016,11.3678651 22.5153828,12.1044064 C21.8293641,12.8409477 21.4863598,13.8011072 21.4863598,14.9849138 L21.4863598,17.0142862 C21.4863598,18.2025432 21.8424309,19.1638153 22.5545837,19.8981314 C23.2667365,20.6324475 24.2108148,20.9996 25.386847,20.9996 C26.5411008,20.9996 27.4329118,20.7136661 28.0623068,20.1417896 C28.6917018,19.5699131 28.9976833,18.7299126 28.9802606,17.6217629 L28.9671937,17.5817095 Z" id="Combined-Shape" fill="#212121"></path>
    </g>
</svg>