<?xml version="1.0" encoding="UTF-8"?>
<svg width="32px" height="32px" viewBox="0 0 32 32" version="1.1" xmlns="http://www.w3.org/2000/svg" xmlns:xlink="http://www.w3.org/1999/xlink">
    <!-- Generator: Sketch 50.2 (55047) - http://www.bohemiancoding.com/sketch -->
    <title>door-opened-fill</title>
    <desc>Created with Sketch.</desc>
    <defs></defs>
    <g id="door-opened" stroke="none" stroke-width="1" fill="none" fill-rule="evenodd">
        <path d="M8.32866237,29 L5,29 C4.44771525,29 4,28.5522847 4,28 C4,27.4477153 4.44771525,27 5,27 L6,27 L6,2 C6,0.8954305 6.8954305,2.02906125e-16 8,0 L24,0 C25.1045695,-2.02906125e-16 26,0.8954305 26,2 L26,27 L27,27 C27.5522847,27 28,27.4477153 28,28 C28,28.5522847 27.5522847,29 27,29 L21,29 L21,31.000829 C21,31.5531138 20.5522847,32.000829 20,32.000829 C19.9151091,32.000829 19.8305637,31.9900195 19.7484036,31.9686613 L8.32866237,29 Z M9.81757931,2 L19.5031929,4.51785966 C20.3846642,4.74700582 21,5.54275541 21,6.45352414 L21,27 L24,27 L24,2 L9.81757931,2 Z M16,15 C15.4477153,15 15,15.4477153 15,16 L15,20 C15,20.5522847 15.4477153,21 16,21 C16.5522847,21 17,20.5522847 17,20 L17,16 C17,15.4477153 16.5522847,15 16,15 Z" id="ic_fill_door_opened_32" fill="#212121" fill-rule="nonzero"></path>
    </g>
</svg>