<?xml version="1.0" encoding="UTF-8"?>
<svg width="32px" height="32px" viewBox="0 0 32 32" version="1.1" xmlns="http://www.w3.org/2000/svg" xmlns:xlink="http://www.w3.org/1999/xlink">
    <!-- Generator: Sketch 50.2 (55047) - http://www.bohemiancoding.com/sketch -->
    <title>download-fill</title>
    <desc>Created with Sketch.</desc>
    <defs></defs>
    <g id="download" stroke="none" stroke-width="1" fill="none" fill-rule="evenodd">
        <path d="M18.0002667,8.00013333 L32.0002667,8.00013333 L32.0002667,30.6668 C32.0002667,31.4028 31.4029333,32.0001333 30.6669333,32.0001333 L1.3336,32.0001333 C0.5976,32.0001333 0.000266666667,31.4028 0.000266666667,30.6668 L0.000266666667,8.00013333 L14.0002667,8.00013333 L14.0002667,19.1721333 L10.4762667,15.6481333 C9.69493333,14.8668 8.4296,14.8668 7.64826667,15.6481333 C6.86693333,16.4294667 6.86693333,17.6948 7.64826667,18.4761333 L14.5869333,25.4148 L16.0002667,26.8281333 L17.4162667,25.4121333 L24.3509333,18.4761333 C25.1322667,17.6948 25.1322667,16.4281333 24.3509333,15.6481333 C23.5696,14.8668 22.3042667,14.8668 21.5229333,15.6481333 L18.0002667,19.1721333 L18.0002667,8.00013333 Z M18.0002667,8 L14.0002667,8 L14.0002667,0 L18.0002667,0 L18.0002667,8 Z" id="Combined-Shape" fill="#212121"></path>
    </g>
</svg>