<?xml version="1.0" encoding="UTF-8"?>
<svg width="32px" height="32px" viewBox="0 0 32 32" version="1.1" xmlns="http://www.w3.org/2000/svg" xmlns:xlink="http://www.w3.org/1999/xlink">
    <!-- Generator: Sketch 50.2 (55047) - http://www.bohemiancoding.com/sketch -->
    <title>duplicate-fill</title>
    <desc>Created with Sketch.</desc>
    <defs></defs>
    <g id="duplicate" stroke="none" stroke-width="1" fill="none" fill-rule="evenodd">
        <path d="M30,8 L24,8 L24,2 C24,0.896 23.104,0 22,0 L0,0 L0,22 C0,23.104 0.896,24 2,24 L8,24 L8,20 L4,20 L4,4 L20,4 L20,8 L8,8 L8,20 L12,20 L12,17 L15,20 L17,22 L15,24 L12,27 L12,24 L8,24 L8,30 C8,31.104 8.896,32 10,32 L30,32 C31.104,32 32,31.104 32,30 L32,10 C32,8.896 31.104,8 30,8" id="Page-1" fill="#212121"></path>
    </g>
</svg>