<svg id="Fill" xmlns="http://www.w3.org/2000/svg" viewBox="0 0 100 100"><path d="M85.36,58.94c-1.9-2.49-5.71-4-10-4s-8.05,1.54-10,4a3.06,3.06,0,0,0-.32,3.25,3.11,3.11,0,0,0,2.8,1.74H82.88a3.12,3.12,0,0,0,2.8-1.74A3.09,3.09,0,0,0,85.36,58.94Z"/><path d="M70.2,48.16A5.2,5.2,0,1,0,75.4,43,5.21,5.21,0,0,0,70.2,48.16Z"/><path d="M24.6,54.91c-4.25,0-8.06,1.54-10,4a3.11,3.11,0,0,0,2.48,5h15a3.11,3.11,0,0,0,2.47-5C32.65,56.45,28.84,54.91,24.6,54.91Z"/><path d="M24.6,53.36a5.2,5.2,0,1,0-5.2-5.2A5.21,5.21,0,0,0,24.6,53.36Z"/><path d="M57.05,37.23a3.11,3.11,0,0,0,2.48-5c-1.9-2.49-5.72-4-10-4s-8.06,1.54-10,4a3.11,3.11,0,0,0,2.48,5Z"/><path d="M49.57,26.66a5.2,5.2,0,1,0-5.2-5.19A5.2,5.2,0,0,0,49.57,26.66Z"/><path d="M50.43,74.71c-4.24,0-8.06,1.55-10,4a3.11,3.11,0,0,0,2.48,5h15a3.11,3.11,0,0,0,2.48-5C58.49,76.26,54.67,74.71,50.43,74.71Z"/><path d="M45.23,68a5.2,5.2,0,1,0,5.2-5.2A5.21,5.21,0,0,0,45.23,68Z"/><path d="M25.52,39.69a1.54,1.54,0,0,0,.74.19,1.49,1.49,0,0,0,1.31-.77,25.8,25.8,0,0,1,6.73-7.79,1.51,1.51,0,1,0-1.85-2.38,28.61,28.61,0,0,0-7.5,8.7A1.51,1.51,0,0,0,25.52,39.69Z"/><path d="M65.71,31.32a25.77,25.77,0,0,1,6.72,7.79,1.52,1.52,0,0,0,1.32.77,1.5,1.5,0,0,0,1.31-2.24,28.64,28.64,0,0,0-7.51-8.7,1.5,1.5,0,1,0-1.84,2.38Z"/><path d="M34.3,75.44a25.92,25.92,0,0,1-6.73-7.79A1.5,1.5,0,1,0,25,69.12a28.61,28.61,0,0,0,7.5,8.7,1.53,1.53,0,0,0,.92.32,1.51,1.51,0,0,0,.93-2.7Z"/><path d="M74.48,67.07a1.5,1.5,0,0,0-2,.58,25.89,25.89,0,0,1-6.72,7.79,1.5,1.5,0,0,0-.27,2.11,1.48,1.48,0,0,0,1.19.59,1.51,1.51,0,0,0,.92-.32,28.64,28.64,0,0,0,7.51-8.7A1.5,1.5,0,0,0,74.48,67.07Z"/></svg>