<?xml version="1.0" encoding="UTF-8"?>
<svg width="32px" height="32px" viewBox="0 0 32 32" version="1.1" xmlns="http://www.w3.org/2000/svg" xmlns:xlink="http://www.w3.org/1999/xlink">
    <!-- Generator: Sketch 53.2 (72643) - https://sketchapp.com -->
    <title>Entrepreneur-fill-fill</title>
    <desc>Created with Sketch.</desc>
    <g id="Entrepreneur-fill" stroke="none" stroke-width="1" fill="none" fill-rule="evenodd">
        <path d="M28,16 L32,16 L32,30 C32,31.1045695 31.1045695,32 30,32 L2,32 C0.8954305,32 7.24069811e-15,31.1045695 7.10542736e-15,30 L1.77635684e-15,2 C1.64108609e-15,0.8954305 0.8954305,-2.82188033e-14 2,-2.84217094e-14 L16,2.84217094e-14 L16,4 L4,4 L4,28 L28,28 L28,16 Z M28,6.82842712 L16,18.8284271 L13.1715729,16 L25.1715729,4 L22,4 C20.8954305,4 20,3.1045695 20,2 C20,0.8954305 20.8954305,-1.24344979e-14 22,-1.24344979e-14 L32,-1.24344979e-14 L32,4 L32,11 C32,12.1045695 31.1045695,13 30,13 C28.8954305,13 28,12.1045695 28,11 L28,6.82842712 Z" id="Combined-Shape" fill="#2D2D2D" fill-rule="nonzero"></path>
    </g>
</svg>