<svg id="Fill" xmlns="http://www.w3.org/2000/svg" viewBox="0 0 100 100"><polygon points="65.12 61.76 61.59 65.31 67.62 71.37 20 71.37 20 76.39 67.62 76.39 61.59 82.45 65.12 86 77.19 73.88 65.12 61.76"/><polygon points="20 59.69 33 59.69 33 53.83 26.72 53.83 26.72 38.94 32.71 38.94 32.71 33.08 26.72 33.08 26.72 19.86 33 19.86 33 14 20 14 20 59.69"/><polygon points="52.67 14 45.85 14 43.75 25.19 41.65 14 34.82 14 40.13 36.72 34.4 59.69 41.23 59.69 43.75 47.28 46.27 59.69 53.09 59.69 47.49 36.72 52.67 14"/><rect x="55.54" y="14" width="6.72" height="45.69"/><polygon points="64.75 14 64.75 19.86 69.01 19.86 69.01 59.69 75.74 59.69 75.74 19.86 80 19.86 80 14 64.75 14"/></svg>