<?xml version="1.0" encoding="UTF-8"?>
<svg width="32px" height="32px" viewBox="0 0 32 32" version="1.1" xmlns="http://www.w3.org/2000/svg" xmlns:xlink="http://www.w3.org/1999/xlink">
    <!-- Generator: Sketch 53.2 (72643) - https://sketchapp.com -->
    <title>family-fill-fill</title>
    <desc>Created with Sketch.</desc>
    <g id="family-fill" stroke="none" stroke-width="1" fill="none" fill-rule="evenodd">
        <path d="M16,9 C18.209139,9 20,10.790861 20,13 C20,15.209139 18.209139,17 16,17 C13.790861,17 12,15.209139 12,13 C12.0028995,10.7920631 13.7920631,9.00289946 16,9 Z M6.80888889,14.4 C8.46574314,14.4 9.80888889,15.7431458 9.80888889,17.4 C9.80888889,19.0568542 8.46574314,20.4 6.80888889,20.4 C5.15203464,20.4 3.80888889,19.0568542 3.80888889,17.4 C3.80888889,15.7431458 5.15203464,14.4 6.80888889,14.4 Z M26.1733333,14.4 C27.8301876,14.4 29.1733333,15.7431458 29.1733333,17.4 C29.1733333,19.0568542 27.8301876,20.4 26.1733333,20.4 C24.5164791,20.4 23.1733333,19.0568542 23.1733333,17.4 C23.1762559,15.7443578 24.5176912,14.4029226 26.1733333,14.4 Z M3,31 L3,22.7136347 C4.91177353,22.0092008 6.98617694,21.8217497 9,22.1714516 L9,31 L3,31 Z M11,31 L11,19.9522297 C12.5698353,19.3082708 14.2504319,18.9848616 15.9447147,19.000683 C17.6797319,18.9826164 19.4000765,19.3231565 21,20.0013706 L21,31 L11,31 Z M29,31 L23,31 L23,22.1712538 C25.0137503,21.8218654 27.0876088,22.0092714 29,22.713449 L29,31 Z M-3.55271368e-15,8.12125786 L15.9733333,1.03111111 L32,8.1002935 L30.5688889,11.0311111 L16,4.59505241 L1.47555556,11.0311111 L-3.55271368e-15,8.12125786 Z" id="Combined-Shape" fill="#2D2D2D" fill-rule="nonzero"></path>
    </g>
</svg>