<?xml version="1.0" encoding="UTF-8"?>
<svg width="32px" height="32px" viewBox="0 0 32 32" version="1.1" xmlns="http://www.w3.org/2000/svg" xmlns:xlink="http://www.w3.org/1999/xlink">
    <!-- Generator: Sketch 50.2 (55047) - http://www.bohemiancoding.com/sketch -->
    <title>file-fill</title>
    <desc>Created with Sketch.</desc>
    <defs></defs>
    <g id="file" stroke="none" stroke-width="1" fill="none" fill-rule="evenodd">
        <path d="M32,6 L32,28 L0,28 L0,4 L30,4 C31.1053333,4 32,4.89466667 32,6 Z M8,17 L8,15 L4,15 L4,13 L9,13 L9,11 L2,11 L2,21 L4,21 L4,17 L8,17 Z M13,21 L13,11 L11,11 L11,21 L13,21 Z M17,19 L17,11 L15,11 L15,21 L22,21 L22,19 L17,19 Z M29,17 L29,14.9354396 L26,14.9354396 L26,13 L30,13 L30,11 L24,11 L24,21 L29.9930098,21 L30,19 L26,19 L26,17 L29,17 Z" id="Combined-Shape" fill="#212121"></path>
    </g>
</svg>