<svg id="Fill" xmlns="http://www.w3.org/2000/svg" viewBox="0 0 100 100"><path d="M76.45,68.53,73.72,84.62H68.59L65.86,68.53M38.11,52.85V18.54a4.85,4.85,0,0,0-4.85-4.85h-.82a4.85,4.85,0,0,0-4.84,4.85V52.85a4.84,4.84,0,0,0,4.84,4.84h.82A4.84,4.84,0,0,0,38.11,52.85Zm12.72,0V18.54A4.85,4.85,0,0,0,46,13.69h-.82a4.85,4.85,0,0,0-4.84,4.85V52.85a4.84,4.84,0,0,0,4.84,4.84H46A4.84,4.84,0,0,0,50.83,52.85Zm12.71,0V18.54a4.85,4.85,0,0,0-4.84-4.85h-.82A4.85,4.85,0,0,0,53,18.54V52.85a4.84,4.84,0,0,0,4.84,4.84h.82A4.84,4.84,0,0,0,63.54,52.85Zm12.75,4.27,0-38.58a4.85,4.85,0,0,0-4.84-4.85H70.6a4.85,4.85,0,0,0-4.85,4.85l0,38.58v1.23H76.29ZM61.67,62.79v1.26a2,2,0,0,0,2,2H78.6a2,2,0,0,0,2-2V62.79a2,2,0,0,0-2-2h-15A2,2,0,0,0,61.67,62.79Z"/></svg>