<svg id="Fill" xmlns="http://www.w3.org/2000/svg" viewBox="0 0 100 100"><path d="M50.87,21.25,65,23.62V15.13L50.87,17.5V16.09a2,2,0,0,0-2-2H47.54a2,2,0,0,0-1.9,1.31,10.15,10.15,0,0,0-9.13,7.83,2.24,2.24,0,0,0,1.7,2.68,2.05,2.05,0,0,0,.49.06,2.25,2.25,0,0,0,2.19-1.76A5.59,5.59,0,0,1,45.5,19.9v5.46a2,2,0,0,0,.35,1.14A13.29,13.29,0,0,0,35,39.48V86.05H61.86V39.48a13.29,13.29,0,0,0-11.3-13,2,2,0,0,0,.31-1.07ZM47.42,44.12,48.6,45.3c3.63,3.64,5.27,7,4.88,10.06-.31,2.48-2,4.64-5,6.42l-2.69,1.6,1.82-2.52s2.6-3.67,1.41-6.57a9.16,9.16,0,0,1-1.31,1.28c-1,.85-1.71,1.46-1.66,3.8l0,2.14-1.24-1.76c-3.27-4.67-1.26-7.19.51-9.42,1.11-1.39,2.15-2.71,2.09-4.56Z"/></svg>