<?xml version="1.0" encoding="UTF-8"?>
<svg width="32px" height="32px" viewBox="0 0 32 32" version="1.1" xmlns="http://www.w3.org/2000/svg" xmlns:xlink="http://www.w3.org/1999/xlink">
    <!-- Generator: Sketch 53.2 (72643) - https://sketchapp.com -->
    <title>f&amp;b-fill-fill</title>
    <desc>Created with Sketch.</desc>
    <g id="f&amp;b-fill" stroke="none" stroke-width="1" fill="none" fill-rule="evenodd">
        <path d="M25.8969849,0 C22.9774002,0.00429765849 20.4859595,2.11229585 19.9982858,4.99086632 L7.403766,4.99086632 L5.80066608,0.75726543 C5.6548224,0.370303703 5.28422362,0.114414068 4.87069099,0.115139773 L0.995794782,0.115139773 L0.995794782,2.10794354 L4.1842808,2.10794354 L5.27810865,4.99086632 L0.995794782,4.99086632 C0.613452798,4.99110271 0.264964932,5.2101007 0.0989004166,5.55449585 C-0.0671640984,5.89889101 -0.0215147099,6.30793874 0.216387088,6.60725159 L12.4477737,22.0094105 L12.4477737,30.0116247 L8.12117535,30.0116247 L8.12117535,32 L18.7494621,32 L18.7494621,30.0116247 L14.4405775,30.0116247 L14.4405775,22.0094105 L23.0007768,11.2305563 C23.8864765,11.722633 24.8837796,11.9788209 25.8969849,11.9745364 C29.0724666,11.8016211 31.5587091,9.17631121 31.5587091,5.9961251 C31.5587091,2.81593899 29.0724666,0.190629148 25.8969849,0.0177138112 L25.8969849,0 Z M20.9016902,6.98367008 L23.8333259,6.98367008 L19.9274305,11.8948242 L10.0209816,11.8948242 L8.16103143,6.98367008 L20.9016902,6.98367008 Z M6.03094563,6.98367008 L7.89089581,11.8948242 L6.95649226,11.8948242 L3.05502534,6.98367008 L6.03094563,6.98367008 Z" id="Shape" fill="#2D2D2D" fill-rule="nonzero"></path>
    </g>
</svg>