<?xml version="1.0" encoding="UTF-8"?>
<svg width="32px" height="32px" viewBox="0 0 32 32" version="1.1" xmlns="http://www.w3.org/2000/svg" xmlns:xlink="http://www.w3.org/1999/xlink">
    <!-- Generator: Sketch 50.2 (55047) - http://www.bohemiancoding.com/sketch -->
    <title>folder-opened-fill</title>
    <desc>Created with Sketch.</desc>
    <defs></defs>
    <g id="folder-opened" stroke="none" stroke-width="1" fill="none" fill-rule="evenodd">
        <path d="M14,6 L28,6 C29.1045695,6 30,6.8954305 30,8 L30,10 L2,10 L2,6 L2,4 C2,2.896 2.896,2 4,2 L12,2 C13.104,2 14,2.896 14,4 L14,6 Z M1.00746922,12 L30.9926196,12 C31.5489804,12 32,12.4477153 32,13 C32,13.0368952 31.9979431,13.073762 31.9938386,13.1104315 L30.3627053,27.6830796 C30.269739,28.513646 30.157337,28.8068657 29.970706,29.0998899 C29.784075,29.3929142 29.5308041,29.6179417 29.2168127,29.7697131 C28.9028213,29.9214846 28.5968315,30 27.7549862,30 L4.24510261,30 C3.40325734,30 3.09726755,29.9214846 2.78327616,29.7697131 C2.46928478,29.6179417 2.21601386,29.3929142 2.02938285,29.0998899 C1.84275183,28.8068657 1.73034981,28.513646 1.63738355,27.6830796 L0.00625024916,13.1104315 C-0.0551895253,12.5615247 0.343264699,12.0671059 0.896222669,12.0061163 C0.933162797,12.0020419 0.970301769,12 1.00746922,12 Z" id="Combined-Shape" fill="#212121"></path>
    </g>
</svg>