<svg id="Fill" xmlns="http://www.w3.org/2000/svg" viewBox="0 0 100 100"><path d="M58.2,69.49c7.24-.58,13.67-5.42,19.26-11C87.54,48.41,89.73,33,78.38,21.6s-26.83-9.1-36.91.9c-5.59,5.59-10.43,12-11,19.25M31.68,50v.09c.12.31.25.62.38.94a12.87,12.87,0,0,1,.69,5A9.85,9.85,0,0,1,30,62.19l-.14.13h0l-15,14.32a2.63,2.63,0,0,0-.06,3.72l.06.06,4.78,4.78a2.63,2.63,0,0,0,3.71.07l.06-.07L37.8,69.94a9.78,9.78,0,0,1,6.12-2.74,12.66,12.66,0,0,1,5,.69l.94.38H50a19.85,19.85,0,0,0,3.31.94L30.74,46.67A18.94,18.94,0,0,0,31.68,50Zm47.57,22.5a6.75,6.75,0,1,1-6.75,6.75A6.75,6.75,0,0,1,79.25,72.48Z"/></svg>