<svg id="Fill" xmlns="http://www.w3.org/2000/svg" viewBox="0 0 100 100"><path d="M81.47,14l-63,0a4.5,4.5,0,0,0-4.5,4.5l0,63a4.5,4.5,0,0,0,4.5,4.5l63,0a4.5,4.5,0,0,0,4.5-4.5l0-63A4.5,4.5,0,0,0,81.47,14ZM51.09,33.45H23.88a1.76,1.76,0,0,1-1.75-1.75V28.2a1.75,1.75,0,0,1,1.75-1.75H51.09a1.75,1.75,0,0,1,1.75,1.75v3.5A1.75,1.75,0,0,1,51.09,33.45Zm-10,13.37a1.76,1.76,0,0,1-1.75-1.75v-3.5a1.75,1.75,0,0,1,1.75-1.75H55.36a1.75,1.75,0,0,1,1.75,1.75v3.5a1.76,1.76,0,0,1-1.75,1.75ZM67.76,60.18H42.55a1.75,1.75,0,0,1-1.75-1.75v-3.5a1.75,1.75,0,0,1,1.75-1.75H67.76a1.76,1.76,0,0,1,1.75,1.75v3.5A1.75,1.75,0,0,1,67.76,60.18ZM78.71,68.3v3.5A1.75,1.75,0,0,1,77,73.55H53.75A1.75,1.75,0,0,1,52,71.8V68.3a1.75,1.75,0,0,1,1.75-1.75H77A1.76,1.76,0,0,1,78.71,68.3Z"/></svg>