<?xml version="1.0" encoding="UTF-8"?>
<svg width="32px" height="32px" viewBox="0 0 32 32" version="1.1" xmlns="http://www.w3.org/2000/svg" xmlns:xlink="http://www.w3.org/1999/xlink">
    <!-- Generator: Sketch 50.2 (55047) - http://www.bohemiancoding.com/sketch -->
    <title>globe-fill</title>
    <desc>Created with Sketch.</desc>
    <defs></defs>
    <g id="globe" stroke="none" stroke-width="1" fill="none" fill-rule="evenodd">
        <path d="M7.0218904,17 C7.1055379,19.1714472 7.42888322,21.1725172 7.991456,23 L1.60846581,23 C0.715962165,21.1684887 0.162784156,19.1412186 0.0307419841,17 L7.0218904,17 Z M9.02331883,17 L15,17 L15,23 L10.0945827,23 C9.47111245,21.2081532 9.11424439,19.209654 9.02331883,17 Z M14.309567,31.9117623 C9.51454491,31.4082559 5.35030895,28.786835 2.7693596,25 L8.73290524,25 C9.95098406,27.7777121 11.8105605,30.0863367 14.309567,31.9117623 Z M15,29.924845 C13.276291,28.5632829 11.924816,26.9241296 10.9444931,25 L15,25 L15,29.924845 Z M7.01177699,15 L0.0307419841,15 C0.162784156,12.8587814 0.715962165,10.8315113 1.60846581,9 L7.90054297,9 C7.36900939,10.8306242 7.07260133,12.8316666 7.01177699,15 Z M9.01252701,15 C9.07846616,12.7945206 9.40474798,10.7959745 9.99201156,9 L15,9 L15,15 L9.01252701,15 Z M13.8310647,0.145766918 C11.484274,1.97977285 9.7409326,4.26882835 8.6029354,7 L2.7693596,7 C5.26407128,3.33969516 9.23803199,0.768225116 13.8310647,0.145766918 Z M15,1.77115164 L15,7 L10.7938377,7 C11.7845754,4.9439508 13.1862092,3.20386952 15,1.77115164 Z M24.9835642,17 L31.969258,17 C31.8372158,19.1412186 31.2840378,21.1684887 30.3915342,23 L24.0546649,23 C24.6016108,21.1709322 24.9113986,19.1698761 24.9835642,17 Z M22.9825046,17 C22.904166,19.2075453 22.562714,21.2060682 21.9574993,23 L17,23 L17,17 L22.9825046,17 Z M17.9316148,31.8845907 C20.3541019,30.0542981 22.1551937,27.754929 23.3329099,25 L29.2306404,25 C26.6930602,28.7232026 22.6249562,31.3198283 17.9316148,31.8845907 Z M17,30.0768467 L17,25 L21.1318843,25 C20.1458279,26.9899483 18.768923,28.67957 17,30.0768467 Z M24.9835642,15 C24.9113986,12.8301239 24.6016108,10.8290678 24.0546649,9 L30.3915342,9 C31.2840378,10.8315113 31.8372158,12.8587814 31.969258,15 L24.9835642,15 Z M22.9825046,15 L17,15 L17,9 L21.9574993,9 C22.562714,10.7939318 22.904166,12.7924547 22.9825046,15 Z M17.9316148,0.115409319 C22.6249562,0.680171676 26.6930602,3.27679743 29.2306404,7 L23.3329099,7 C22.1551937,4.24507101 20.3541019,1.94570188 17.9316148,0.115409319 Z M17,1.92315334 C18.768923,3.32043004 20.1458279,5.01005171 21.1318843,7 L17,7 L17,1.92315334 Z" id="Combined-Shape" fill="#212121"></path>
    </g>
</svg>