<?xml version="1.0" encoding="UTF-8"?>
<svg width="32px" height="32px" viewBox="0 0 32 32" version="1.1" xmlns="http://www.w3.org/2000/svg" xmlns:xlink="http://www.w3.org/1999/xlink">
    <!-- Generator: Sketch 53.2 (72643) - https://sketchapp.com -->
    <title>governance-fill-fill</title>
    <desc>Created with Sketch.</desc>
    <g id="governance-fill" stroke="none" stroke-width="1" fill="none" fill-rule="evenodd">
        <path d="M26.1288889,4.71111111 L17.6844444,4.71111111 L17.6844444,1 L14.3555556,1 L14.3555556,4.71111111 L5.88444444,4.71111111 L0,16.2044444 L0,17.2755556 C0.133230137,20.9839275 3.17812444,23.9213928 6.88888889,23.9213928 C10.5996533,23.9213928 13.6445476,20.9839275 13.7777778,17.2755556 L13.7777778,16.2044444 L9.61333333,8.04 L14.3555556,8.04 L14.3555556,28 L8,28 L8,31 L24,31 L24,28 L17.6844444,28 L17.6844444,8.04 L22.3866667,8.04 L18.2222222,16.2133333 L18.2222222,17.2755556 C18.3554524,20.9839275 21.4003467,23.9213928 25.1111111,23.9213928 C28.8218756,23.9213928 31.8667699,20.9839275 32,17.2755556 L32,16.2044444 L26.1288889,4.71111111 Z M22.2577778,15.6088889 L25.1066667,10.0311111 L27.9555556,15.6088889 L22.2577778,15.6088889 Z M4.05777778,15.6088889 L6.89777778,10.0444444 L9.73777778,15.6088889 L4.05777778,15.6088889 Z" id="Shape" fill="#2D2D2D" fill-rule="nonzero"></path>
    </g>
</svg>