<?xml version="1.0" encoding="UTF-8"?>
<svg width="32px" height="32px" viewBox="0 0 32 32" version="1.1" xmlns="http://www.w3.org/2000/svg" xmlns:xlink="http://www.w3.org/1999/xlink">
    <!-- Generator: Sketch 53.2 (72643) - https://sketchapp.com -->
    <title>grow-revenue-fill-fill</title>
    <desc>Created with Sketch.</desc>
    <g id="grow-revenue-fill" stroke="none" stroke-width="1" fill="none" fill-rule="evenodd">
        <path d="M28,9.92 C28,10.7819414 27.2183945,11.6413534 26.2531507,11.6413534 C25.2879068,11.6413534 24.4924137,10.8840753 24.4449315,9.92 L24.4186301,5.91780822 L4.66630137,21.8257534 L2.47452055,19.090411 L21.4816438,3.65589041 L18.1019178,3.67780822 C17.4350214,3.7144563 16.8021181,3.3809435 16.4553295,2.8101269 C16.1085408,2.2393103 16.1042051,1.52392337 16.4440496,0.948945356 C16.783894,0.373967346 17.4127083,0.0328077661 18.08,0.061369863 L28,3.55271368e-15 L28,9.92 Z M0,32 L0,27 L8,27 L8,32 L0,32 Z M20,32 L12,32 L12,22 L20,22 L20,32 Z M32,16 L32,32 L24,32 L24,16 L32,16 Z" id="Combined-Shape" fill="#2D2D2D" fill-rule="nonzero"></path>
    </g>
</svg>