<?xml version="1.0" encoding="UTF-8"?>
<svg width="32px" height="32px" viewBox="0 0 32 32" version="1.1" xmlns="http://www.w3.org/2000/svg" xmlns:xlink="http://www.w3.org/1999/xlink">
    <!-- Generator: Sketch 53.2 (72643) - https://sketchapp.com -->
    <title>growth-fill-fill</title>
    <desc>Created with Sketch.</desc>
    <g id="growth-fill" stroke="none" stroke-width="1" fill="none" fill-rule="evenodd">
        <path d="M16.6885395,28.6098306 L16.6885395,25.1130242 C17.4004826,25.3898187 18.1578374,25.5270288 18.9203205,25.5173563 C20.6103433,25.4720937 22.2647269,25.014871 23.743423,24.1843932 C26.3742062,22.7670092 28.2245237,20.4920855 28.4963713,18.3771175 L28.5621409,17.8439322 L28.0885999,17.6039989 C26.2119746,16.6709247 23.3049592,16.9908359 20.6873299,18.4037767 C19.0488112,19.2547145 17.6673022,20.5380145 16.6885395,22.1183005 L16.6885395,15.3379617 C18.1047777,13.7295196 18.9773208,11.0858095 18.9685516,8.22882533 C18.9685516,4.81199667 17.701391,1.70619272 15.7546114,0.311024715 L15.3161476,-2.30926389e-14 L14.8776837,0.311024715 C12.9396734,1.71507914 11.694436,4.82976951 11.7032053,8.24659817 C11.7032053,11.139128 12.6152102,13.8050542 14.0709102,15.4046098 L14.0709102,19.7811719 C13.3412698,18.154054 12.2157723,16.7413839 10.7999698,15.6756457 C8.44103417,13.8583727 5.61732688,13.1163566 3.60916238,13.7339628 L3.10492894,13.8939184 L3.10492894,14.4271036 C3.03915936,16.5598445 4.52555186,19.1102472 6.88887209,20.9230769 C8.69972785,22.3138017 10.7780466,23.0869203 12.5494406,23.0869203 C13.0677566,23.0930118 13.5839004,23.0180779 14.0796795,22.8647598 L14.0796795,28.6098306 L2,28.6098306 L2,32 L30,32 L30,28.6098306 L16.6885395,28.6098306 Z" id="Path" fill="#2D2D2D" fill-rule="nonzero"></path>
    </g>
</svg>