<?xml version="1.0" encoding="UTF-8"?>
<svg width="32px" height="32px" viewBox="0 0 32 32" version="1.1" xmlns="http://www.w3.org/2000/svg" xmlns:xlink="http://www.w3.org/1999/xlink">
    <!-- Generator: Sketch 50.2 (55047) - http://www.bohemiancoding.com/sketch -->
    <title>help-question-fill</title>
    <desc>Created with Sketch.</desc>
    <defs></defs>
    <g id="help-question" stroke="none" stroke-width="1" fill="none" fill-rule="evenodd">
        <path d="M16,0 C24.836,0 32,7.164 32,16 C32,24.8373333 24.836,32 16,32 C7.16266667,32 0,24.8373333 0,16 C0,7.164 7.16266667,0 16,0 Z M14.1386667,24 L17.576,24 L17.576,20.6306667 L14.1386667,20.6306667 L14.1386667,24 Z M21.1106667,13.9546667 C21.292,13.5026667 21.384,12.9253333 21.384,12.2253333 C21.384,11.8026667 21.292,11.3466667 21.1106667,10.8573333 C20.928,10.3693333 20.6253333,9.91333333 20.2026667,9.48933333 C19.7786667,9.06666667 19.2213333,8.71333333 18.528,8.428 C17.8346667,8.14266667 16.9706667,8 15.9333333,8 C15.132,8 14.4053333,8.136 13.756,8.40666667 C13.1066667,8.676 12.552,9.05066667 12.0933333,9.53333333 C11.6333333,10.0146667 11.276,10.5826667 11.02,11.24 C10.7653333,11.8973333 10.6306667,12.6186667 10.616,13.408 L13.8333333,13.408 C13.8333333,13.012 13.876,12.6453333 13.9653333,12.3013333 C14.052,11.96 14.1866667,11.66 14.3693333,11.404 C14.552,11.1493333 14.7853333,10.944 15.0693333,10.792 C15.3533333,10.6386667 15.6933333,10.5613333 16.0866667,10.5613333 C16.6706667,10.5613333 17.1266667,10.7213333 17.4546667,11.044 C17.784,11.3653333 17.948,11.86 17.948,12.532 C17.9626667,12.9253333 17.8933333,13.2546667 17.74,13.516 C17.5866667,13.78 17.3853333,14.02 17.1373333,14.24 C16.8893333,14.4573333 16.62,14.676 16.328,14.8946667 C16.036,15.1146667 15.7586667,15.3746667 15.496,15.672 C15.2333333,15.9706667 15.004,16.332 14.8066667,16.756 C14.6106667,17.1786667 14.4893333,17.704 14.4453333,18.3306667 L14.4453333,19.316 L17.4,19.316 L17.4,18.484 C17.4586667,18.048 17.6013333,17.6826667 17.8266667,17.3906667 C18.0533333,17.0986667 18.312,16.84 18.604,16.6133333 C18.896,16.388 19.2066667,16.1613333 19.5346667,15.9346667 C19.8626667,15.7093333 20.1613333,15.4346667 20.432,15.1146667 C20.7013333,14.7933333 20.928,14.4066667 21.1106667,13.9546667 Z" id="Help-Question" fill="#212121"></path>
    </g>
</svg>