<?xml version="1.0" encoding="UTF-8"?>
<svg width="32px" height="32px" viewBox="0 0 32 32" version="1.1" xmlns="http://www.w3.org/2000/svg" xmlns:xlink="http://www.w3.org/1999/xlink">
    <!-- Generator: Sketch 50.2 (55047) - http://www.bohemiancoding.com/sketch -->
    <title>hospital-fill</title>
    <desc>Created with Sketch.</desc>
    <defs></defs>
    <g id="hospital" stroke="none" stroke-width="1" fill="none" fill-rule="evenodd">
        <path d="M29.9998125,27.9998 L31.9998,27.9998 L31.9998,31.9998 L29.9998125,31.9998 L24.7498453,31.9998 L7.24995469,31.9998 L1.99998751,31.9998 L0,31.9998 L0,27.9998 L1.99998751,27.9998 L1.99998751,5.99996249 C1.99998751,4.8959694 2.89598191,3.999975 3.999975,3.999975 L5.24996719,3.999975 L5.24996719,1.99998749 C5.24996719,0.8959944 6.14596159,-8.52651283e-14 7.24995469,-8.52651283e-14 L24.7498453,-8.52651283e-14 C25.8538384,-8.52651283e-14 26.7498328,0.8959944 26.7498328,1.99998749 L26.7498328,3.999975 L27.9998251,3.999975 C29.1038181,3.999975 29.9998125,4.8959694 29.9998125,5.99996249 L29.9998125,27.9998 Z M10,27.9998 L22,27.9998 L22,19.9998 L10,19.9998 L10,27.9998 Z M10,7.99978124 L10,11.9997562 L13.9999813,11.9997562 L13.9999813,15.9997375 L17.9999562,15.9997375 L17.9999562,11.9997562 L21.9999375,11.9997562 L21.9999375,7.99978124 L17.9999562,7.99978124 L17.9999562,3.9998 L13.9999813,3.9998 L13.9999813,7.99978124 L10,7.99978124 Z" id="Page-1" fill="#212121"></path>
    </g>
</svg>