<svg id="Fill" xmlns="http://www.w3.org/2000/svg" viewBox="0 0 100 100"><path d="M76.05,58.78a5.93,5.93,0,0,0-4.15,1.69L61.23,54.33A11.79,11.79,0,0,0,61,45.12L71.73,39a5.93,5.93,0,1,0-1.62-4.07,6.19,6.19,0,0,0,.16,1.37L59.41,42.51a12,12,0,0,0-7.81-4.38V25.66a5.95,5.95,0,1,0-3.07,0V38.13a12,12,0,0,0-7.81,4.38l-11-6.33a5.57,5.57,0,0,0,.15-1.3,6,6,0,1,0-1.58,4l10.81,6.22a11.86,11.86,0,0,0-1,4.87,12,12,0,0,0,.82,4.34L28.15,60.52a5.93,5.93,0,1,0,1.74,4.19,5.54,5.54,0,0,0-.21-1.53L40.37,57a11.93,11.93,0,0,0,8.16,4.83V74.34a5.95,5.95,0,1,0,3.07,0V61.85A12,12,0,0,0,59.76,57l10.57,6.09a6.06,6.06,0,0,0-.22,1.6,5.95,5.95,0,1,0,5.94-5.93Z"/></svg>