<?xml version="1.0" encoding="UTF-8"?>
<svg width="32px" height="32px" viewBox="0 0 32 32" version="1.1" xmlns="http://www.w3.org/2000/svg" xmlns:xlink="http://www.w3.org/1999/xlink">
    <!-- Generator: Sketch 50.2 (55047) - http://www.bohemiancoding.com/sketch -->
    <title>image-fill</title>
    <desc>Created with Sketch.</desc>
    <defs></defs>
    <g id="image" stroke="none" stroke-width="1" fill="none" fill-rule="evenodd">
        <path d="M30,4 C31.104,4 32,4.896 32,6 L32,26 C32,27.104 31.104,28 30,28 L2,28 C0.896,28 0,27.104 0,26 L0,6 C0,4.896 0.896,4 2,4 L30,4 Z M16,24 L28,24 L19,12 L13,19.9992803 L10,16.0007197 L4,24 L10,24 L16,24 Z M7,8 C5.344,8 4,9.344 4,11 C4,12.656 5.344,14 7,14 C8.656,14 10,12.656 10,11 C10,9.344 8.656,8 7,8 Z" id="Page-1" fill="#212121"></path>
    </g>
</svg>