<svg id="Fill" xmlns="http://www.w3.org/2000/svg" viewBox="0 0 100 100"><path d="M15.59,26.41,14,25.8V51l.79.27c2.34.8,6.88,2,13.5,3.7l1.45.36V30l-1-.14A51.41,51.41,0,0,1,15.59,26.41Z"/><path d="M84.41,26.41a51.41,51.41,0,0,1-13.14,3.42l-1,.14V55.36L71.71,55c6.62-1.66,11.16-2.9,13.5-3.7L86,51V25.8Z"/><path d="M76.53,71.72h0c-4.91-6.43-15.45-10.58-26.85-10.58S27.75,65.29,22.84,71.72a5.25,5.25,0,0,0-.53,5.57,5.33,5.33,0,0,0,4.8,3H72.26a5.33,5.33,0,0,0,4.8-3A5.27,5.27,0,0,0,76.53,71.72Z"/><path d="M18.9,24.66a52.7,52.7,0,0,0,11.79,2.69l.09,0a1.24,1.24,0,0,1,.27,0,2.23,2.23,0,0,1,2.23,2.22V43.83c1.26-.2,2.51-.38,3.75-.55a12.79,12.79,0,0,1,3.09-6.63,12,12,0,0,1,19.13,0,12.77,12.77,0,0,1,3.13,6.93c1.39.17,2.78.36,4.19.59V29.57a2.23,2.23,0,0,1,2.23-2.22,1.24,1.24,0,0,1,.27,0l.08,0a52.14,52.14,0,0,0,12.42-2.91A104.14,104.14,0,0,0,18.9,24.66Z"/><path d="M49.68,56A10.89,10.89,0,1,1,60.57,45.14,10.89,10.89,0,0,1,49.68,56Z"/></svg>