<?xml version="1.0" encoding="UTF-8"?>
<svg width="32px" height="32px" viewBox="0 0 32 32" version="1.1" xmlns="http://www.w3.org/2000/svg" xmlns:xlink="http://www.w3.org/1999/xlink">
    <!-- Generator: Sketch 53.2 (72643) - https://sketchapp.com -->
    <title>Infinity-fill-fill</title>
    <desc>Created with Sketch.</desc>
    <g id="Infinity-fill" stroke="none" stroke-width="1" fill="none" fill-rule="evenodd">
        <path d="M24.1603141,23.6632462 C21.9187965,23.6607745 19.7851488,22.7006331 18.2967207,21.0246291 L18.2522995,20.9668816 L16.0045887,18.1639063 L13.7080146,21.0246291 C11.551068,23.4658196 8.10874982,24.3178998 5.06209567,23.1647616 C2.01544153,22.0116234 0,19.0938176 0,15.8362373 C0,12.5786571 2.01544153,9.66085126 5.06209567,8.50771305 C8.10874982,7.35457485 11.551068,8.20665513 13.7080146,10.6478456 L13.7835306,10.7189194 L16.0045887,13.5085684 L18.2833943,10.665614 C20.6685872,7.95785964 24.5945588,7.22906966 27.7926511,8.90038196 C30.9907434,10.5716943 32.6339937,14.210941 31.772835,17.7151505 C30.9116763,21.2193601 27.7687871,23.6824141 24.1603141,23.6810146 L24.1603141,23.6632462 Z M20.5088946,19.110077 C21.8671521,20.6237131 24.0181427,21.1430056 25.9173856,20.4157959 C27.8166286,19.6885862 29.0707354,17.8655007 29.0707354,15.8317952 C29.0707354,13.7980898 27.8166286,11.9750042 25.9173856,11.2477945 C24.0181427,10.5205848 21.8671521,11.0398774 20.5088946,12.5535134 L17.888046,15.8273531 L20.5088946,19.110077 Z M7.84886324,10.9143725 C5.5920316,10.9125979 3.62425527,12.4485968 3.07806934,14.6383395 C2.53188341,16.8280822 3.54778421,19.1082975 5.54107963,20.166629 C7.53437504,21.2249605 9.99232632,20.7891718 11.5002828,19.110077 L14.1344577,15.8273531 L11.5136091,12.5535134 C10.5811874,11.5101856 9.24812846,10.9139446 7.84886324,10.9143725 L7.84886324,10.9143725 Z" id="Icon/Infinity/Fill" fill="#2D2D2D" fill-rule="nonzero"></path>
    </g>
</svg>