<?xml version="1.0" encoding="UTF-8"?>
<svg width="32px" height="32px" viewBox="0 0 32 32" version="1.1" xmlns="http://www.w3.org/2000/svg" xmlns:xlink="http://www.w3.org/1999/xlink">
    <!-- Generator: Sketch 50.2 (55047) - http://www.bohemiancoding.com/sketch -->
    <title>Information-fill</title>
    <desc>Created with Sketch.</desc>
    <defs></defs>
    <g id="Information" stroke="none" stroke-width="1" fill="none" fill-rule="evenodd">
        <path d="M16,0 C24.836,0 32,7.164 32,16 C32,24.836 24.836,32 16,32 C7.164,32 0,24.836 0,16 C0,7.164 7.164,0 16,0 Z M16,7 C14.896,7 14,7.89466667 14,9 C14,10.104 14.896,11 16,11 C17.104,11 18,10.104 18,9 C18,7.89466667 17.104,7 16,7 Z M14,25 L18,25 L18,15 L14,15 L14,25 Z" id="Combined-Shape" fill="#212121"></path>
    </g>
</svg>
