<svg id="Fill" xmlns="http://www.w3.org/2000/svg" viewBox="0 0 100 100"><polygon points="49.95 68.99 59.34 40.4 40.56 40.4 49.95 68.99"/><polygon points="31.51 20.45 15.31 34.56 14 35.65 35.1 35.65 31.51 20.45"/><polygon points="86 35.65 84.7 34.56 68.42 20.34 64.8 35.65 86 35.65"/><polygon points="49.33 19 36.06 19 39.13 32.01 49.33 19"/><polygon points="63.84 19 50.58 19 60.8 31.87 63.84 19"/><polygon points="50.13 24.31 42.05 35.65 42.67 35.65 57.25 35.65 58.08 35.65 50.13 24.31"/><polygon points="64.35 40.4 52.46 76.63 51.02 81 53.09 78.56 85.23 40.79 85.56 40.4 64.35 40.4"/><polygon points="47.45 76.63 35.55 40.4 14.44 40.4 46.87 78.37 48.73 80.55 47.45 76.63"/></svg>