<svg id="Fill" xmlns="http://www.w3.org/2000/svg" viewBox="0 0 100 100"><path d="M14,27V68.5A4.49,4.49,0,0,0,18.5,73h63A4.49,4.49,0,0,0,86,68.5V27ZM54.12,39a3.38,3.38,0,1,1,3.38,3.38A3.38,3.38,0,0,1,54.12,39ZM30.88,39A3.38,3.38,0,1,1,27.5,35.6,3.39,3.39,0,0,1,30.88,39Zm8.24,0a3.38,3.38,0,1,1,3.38,3.38A3.38,3.38,0,0,1,39.12,39Zm30,0a3.38,3.38,0,1,1,3.38,3.38A3.38,3.38,0,0,1,69.12,39Zm-15,11a3.38,3.38,0,1,1,3.38,3.37A3.39,3.39,0,0,1,54.12,50ZM30.88,50a3.38,3.38,0,1,1-3.38-3.38A3.38,3.38,0,0,1,30.88,50Zm8.24,0a3.38,3.38,0,1,1,3.38,3.37A3.39,3.39,0,0,1,39.12,50Zm36.76,0a3.38,3.38,0,1,1-3.38-3.38A3.38,3.38,0,0,1,75.88,50ZM38.31,58.51H61.69v5.25H38.31Z"/></svg>