<svg id="Fill" xmlns="http://www.w3.org/2000/svg" viewBox="0 0 100 100"><g id="Fill-2" data-name="Fill"><path d="M34,81h-.12c-3.78-.21-6.53-1.51-8.17-3.89-2.58-3.75-1.17-8.49-1-9a1.3,1.3,0,0,1,.1-.25L37.59,40.09V27.57a.4.4,0,0,0-.33-.43A4.33,4.33,0,0,1,34.56,26a4.13,4.13,0,0,1,3-7h16a2.24,2.24,0,0,1,2.25,2.23h0l.11,18.51c1.3,2.83,8.52,18.49,12.54,27.15,0,.09.08.17.11.26,1.35,4.21,1.12,7.63-.7,10.15C65.17,81,60.24,81,60,81ZM29.85,46.21V35.05A1.79,1.79,0,0,0,28,33.58H18c-2.58.12-4,1.18-4,3.43v.41a3.23,3.23,0,0,0,3.19,3V63.18c0,1.84.49,4.77,2.26,5.38Zm46,26.3C80.38,70.63,86,66.25,86,58.35a15.71,15.71,0,0,0-9-14.08V31.11a2.25,2.25,0,0,0-2.25-2.25h-8c-2.37,0-4.92,1.25-4.92,4a3.72,3.72,0,0,0,2.67,3.57v7.89c-.48.22-.9.44-1.29.66Zm-16.44-6-.64-2h-24l-.64,2c-.66,2-1.48,3.88-.9,5.18a3.45,3.45,0,0,0,3.35,2H57a3.44,3.44,0,0,0,3.34-2c.59-1.3-.23-3.14-.89-5.18"/></g></svg>