<?xml version="1.0" encoding="UTF-8"?>
<svg width="32px" height="32px" viewBox="0 0 32 32" version="1.1" xmlns="http://www.w3.org/2000/svg" xmlns:xlink="http://www.w3.org/1999/xlink">
    <!-- Generator: Sketch 53.2 (72643) - https://sketchapp.com -->
    <title>leader-fill-fill</title>
    <desc>Created with Sketch.</desc>
    <g id="leader-fill" stroke="none" stroke-width="1" fill="none" fill-rule="evenodd">
        <path d="M15.9333353,17.8666667 C11.0026362,17.8593238 7.00734476,13.8640324 7.00000193,8.93333333 C7.00000193,3.99958957 10.9995915,1.95399252e-14 15.9333353,1.95399252e-14 C20.867079,1.95399252e-14 24.8666686,3.99958957 24.8666686,8.93333333 C24.8666686,13.8670771 20.867079,17.8666667 15.9333353,17.8666667 Z M29.3927604,21.3511111 C29.7610853,21.5077369 30.0000174,21.8679828 30,22.2666667 L30,31 C30,31.5522847 29.5502143,32 28.9953756,32 L3.00462633,32 C2.4497876,32 2.00000194,31.5522847 2.00000194,31 L2.00000194,22.2666667 C1.99921799,21.8690464 2.23620022,21.5090937 2.60277657,21.3511111 C6.1459829,19.8648751 9.92460273,19.0118289 13.7652698,18.8311111 L15.9977685,20.8355556 L13.7027599,29.0222222 L15.8995385,31.2444444 L18.2927771,29.0222222 L15.9977685,20.8355556 L18.2302671,18.8311111 C22.0709342,19.0118289 25.849554,19.8648751 29.3927604,21.3511111 Z" id="Combined-Shape" fill="#2D2D2D" fill-rule="nonzero"></path>
    </g>
</svg>