<svg id="Fill" xmlns="http://www.w3.org/2000/svg" xmlns:xlink="http://www.w3.org/1999/xlink" viewBox="0 0 100 100"><defs><style>.cls-1{clip-path:url(#clip-path);}</style><clipPath id="clip-path"><path d="M41,72.5V83.75A2.25,2.25,0,0,0,43.25,86h13.5A2.25,2.25,0,0,0,59,83.75V72.5ZM14,68V83.75A2.25,2.25,0,0,0,16.25,86h18a2.25,2.25,0,0,0,2.25-2.25V68Zm49.5,0V83.75A2.25,2.25,0,0,0,65.75,86h18A2.25,2.25,0,0,0,86,83.75V68ZM41,68H59V63.5H41ZM23,48l0-.26v-9a2.25,2.25,0,0,1,4.49-.26v9.26A2.25,2.25,0,0,1,23,48M16.25,23A2.25,2.25,0,0,0,14,25.25V63.5H36.5V25.25A2.25,2.25,0,0,0,34.25,23ZM72.52,43.51l0-.26v-9A2.25,2.25,0,0,1,77,34l0,.26v9a2.25,2.25,0,0,1-4.48.26m-6.77-25a2.25,2.25,0,0,0-2.25,2.25V63.5H86V20.75a2.25,2.25,0,0,0-2.25-2.25ZM47.77,48l0-.26v-18a2.25,2.25,0,0,1,4.48-.26l0,.26v18a2.25,2.25,0,0,1-4.48.26M43.25,14A2.25,2.25,0,0,0,41,16.25V59H59V16.25A2.25,2.25,0,0,0,56.75,14Z"/></clipPath></defs><path d="M41,72.5V83.75A2.25,2.25,0,0,0,43.25,86h13.5A2.25,2.25,0,0,0,59,83.75V72.5ZM14,68V83.75A2.25,2.25,0,0,0,16.25,86h18a2.25,2.25,0,0,0,2.25-2.25V68Zm49.5,0V83.75A2.25,2.25,0,0,0,65.75,86h18A2.25,2.25,0,0,0,86,83.75V68ZM41,68H59V63.5H41ZM23,48l0-.26v-9a2.25,2.25,0,0,1,4.49-.26v9.26A2.25,2.25,0,0,1,23,48M16.25,23A2.25,2.25,0,0,0,14,25.25V63.5H36.5V25.25A2.25,2.25,0,0,0,34.25,23ZM72.52,43.51l0-.26v-9A2.25,2.25,0,0,1,77,34l0,.26v9a2.25,2.25,0,0,1-4.48.26m-6.77-25a2.25,2.25,0,0,0-2.25,2.25V63.5H86V20.75a2.25,2.25,0,0,0-2.25-2.25ZM47.77,48l0-.26v-18a2.25,2.25,0,0,1,4.48-.26l0,.26v18a2.25,2.25,0,0,1-4.48.26M43.25,14A2.25,2.25,0,0,0,41,16.25V59H59V16.25A2.25,2.25,0,0,0,56.75,14Z"/><g class="cls-1"><rect x="14" y="14" width="72" height="72"/><rect x="2.75" y="2.75" width="94.5" height="94.5"/></g></svg>