<svg id="Fill" xmlns="http://www.w3.org/2000/svg" viewBox="0 0 100 100"><path d="M85.91,66.54a36.1,36.1,0,0,0-1.27-4.94l-.08-.2-.16-.15c-.88-.79-3.36-.86-19.31.73L65,65.12a6.84,6.84,0,0,1-6.69,5.68h-21V66.67h21a2.64,2.64,0,0,0,2.56-2.1L61,61c-.06-1.67-1.8-2.31-3.31-2.46L38.71,56.21l-3.07-2.38L14,48.06V74.89l1.74.51C21.18,77,30,79.66,32.4,80.5a5.09,5.09,0,0,0,2.94.5l1.71,0c1.82,0,4.24-.06,6.66-.11l9.66-.22h.36l29.35-9.18A4.3,4.3,0,0,0,85.91,66.54Z"/><path d="M54.08,36.51c6.64,0,12.38,2.41,15,5.89a2.75,2.75,0,0,1-2.2,4.41H41.22A2.75,2.75,0,0,1,39,42.4C41.69,38.92,47.43,36.51,54.08,36.51Z"/><path d="M60.42,25.33A6.35,6.35,0,1,1,54.08,19,6.33,6.33,0,0,1,60.42,25.33Z"/></svg>