<svg id="Fill" xmlns="http://www.w3.org/2000/svg" viewBox="0 0 100 100"><path d="M57.42,71H42.12a2.15,2.15,0,0,0,0,4.23h15.3a2.15,2.15,0,0,0,0-4.23Z"/><path d="M55.23,76.4H44.31a2.15,2.15,0,0,0,0,4.23H55.23a2.15,2.15,0,0,0,0-4.23Z"/><path d="M52.75,81.77h-6a2.15,2.15,0,0,0,0,4.23h6a2.15,2.15,0,0,0,0-4.23Z"/><path d="M62.18,38c-2-2.47-5.82-5.42-12.28-5.42S39.65,35.51,37.61,38a17.56,17.56,0,0,0-3.75,11c0,3.75,1.71,6.47,3.37,9.1s3.22,5.13,3.22,8.74a1.75,1.75,0,0,0,1.76,1.75H57.58a1.75,1.75,0,0,0,1.76-1.75c0-3.61,1.56-6.1,3.22-8.74s3.37-5.35,3.37-9.1A17.56,17.56,0,0,0,62.18,38Z"/><path d="M49.77,29a3.13,3.13,0,0,0,3.13-3.12v-8.8a3.13,3.13,0,0,0-6.26,0v8.8A3.13,3.13,0,0,0,49.77,29Z"/><path d="M30.36,36.18a3.13,3.13,0,0,0,4.41-.39,3.1,3.1,0,0,0-.39-4.39l-6.76-5.66a3.15,3.15,0,0,0-4.41.39,3.07,3.07,0,0,0-.72,2.27,3.1,3.1,0,0,0,1.11,2.12Z"/><path d="M30.59,48.6a3.13,3.13,0,0,0-3.13-3.12H18.63a3.12,3.12,0,1,0,0,6.24h8.83A3.13,3.13,0,0,0,30.59,48.6Z"/><path d="M32.94,60.2a3.16,3.16,0,0,0-2.29.72l-6.76,5.66a3.1,3.1,0,0,0-1.11,2.11,3.12,3.12,0,0,0,3.12,3.39,3.11,3.11,0,0,0,2-.72l6.77-5.66a3.09,3.09,0,0,0,1.1-2.12,3,3,0,0,0-.72-2.27A3.12,3.12,0,0,0,32.94,60.2Z"/><path d="M69.64,60.57a3.14,3.14,0,0,0-2.29-.71,3.11,3.11,0,0,0-1.73,5.49L72.38,71a3.13,3.13,0,0,0,4.41-.39,3.1,3.1,0,0,0-.39-4.39Z"/><path d="M81.37,45H72.54a3.12,3.12,0,1,0,0,6.24h8.83a3.12,3.12,0,1,0,0-6.24Z"/><path d="M67.34,36.56a3.16,3.16,0,0,0,2-.73l6.76-5.66a3.1,3.1,0,0,0,1.11-2.11,3.14,3.14,0,0,0-5.13-2.67l-6.77,5.66a3.12,3.12,0,0,0,2,5.51Z"/></svg>