<?xml version="1.0" encoding="UTF-8"?>
<svg width="32px" height="32px" viewBox="0 0 32 32" version="1.1" xmlns="http://www.w3.org/2000/svg" xmlns:xlink="http://www.w3.org/1999/xlink">
    <!-- Generator: Sketch 50.2 (55047) - http://www.bohemiancoding.com/sketch -->
    <title>link-fill</title>
    <desc>Created with Sketch.</desc>
    <defs></defs>
    <g id="link" stroke="none" stroke-width="1" fill="none" fill-rule="evenodd">
        <path d="M18,20 L27,20 L27,12 L18,12 L18,8 L29,8 C30.1045695,8 31,8.8954305 31,10 L31,22 C31,23.1045695 30.1045695,24 29,24 L18,24 L18,20 Z M14,20 L14,24 L3,24 C1.8954305,24 1,23.1045695 1,22 L1,10 C1,8.8954305 1.8954305,8 3,8 L14,8 L14,12 L5,12 L5,20 L14,20 Z M7,14 L25,14 L25,18 L7,18 L7,14 Z" id="Combined-Shape-Copy" fill="#212121" fill-rule="nonzero" transform="translate(16.000000, 16.000000) rotate(-45.000000) translate(-16.000000, -16.000000) "></path>
    </g>
</svg>