<svg id="Fill" xmlns="http://www.w3.org/2000/svg" viewBox="0 0 100 100"><path d="M68.12,38.5l-6.66,6.8-6.6-6.6,6.67-6.8ZM38.45,74.74,25.26,61.5l8.6-8.59-6.6-6.6L15.37,58.25a4.64,4.64,0,0,0,0,6.56l0,0L35.16,84.63a4.63,4.63,0,0,0,6.55,0l0,0,11.9-11.89L47,66.14ZM84.61,35.16,64.82,15.37a4.64,4.64,0,0,0-6.56,0l0,0L46.34,27.26l6.6,6.6,8.59-8.6L74.72,38.5l-8.6,8.59,6.6,6.6,11.89-11.9a4.64,4.64,0,0,0,.07-6.56A.46.46,0,0,1,84.61,35.16ZM31.86,61.5l6.59,6.6L45.77,61l-6.6-6.59ZM76,82.42l6.55-6.64L24.05,17.58,17.5,24.22Z"/></svg>