<?xml version="1.0" encoding="UTF-8"?>
<svg width="32px" height="32px" viewBox="0 0 32 32" version="1.1" xmlns="http://www.w3.org/2000/svg" xmlns:xlink="http://www.w3.org/1999/xlink">
    <!-- Generator: Sketch 53.2 (72643) - https://sketchapp.com -->
    <title>location-fill-fill</title>
    <desc>Created with Sketch.</desc>
    <g id="location-fill" stroke="none" stroke-width="1" fill="none" fill-rule="evenodd">
        <path d="M32,15 L32,17 L30.0666667,17 C29.5597226,23.9957922 23.9957922,29.5597226 17,30.0666667 L17,32 L15,32 L15,30.0666667 C8.00420782,29.5597226 2.44027745,23.9957922 1.93333333,17 L0,17 L0,15 L1.93333333,15 C2.44027745,8.00420782 8.00420782,2.44027745 15,1.93333333 L15,0 L17,0 L17,1.93333333 C23.9957922,2.44027745 29.5597226,8.00420782 30.0666667,15 L32,15 Z M22,21.3733333 L22,14.5555556 C22,14.0032708 21.5522847,13.5555556 21,13.5555556 L20.1644444,13.5555556 L20.1644444,12.6977778 C20.2267056,10.3330785 18.3644771,8.36352837 16,8.29333333 C13.6355229,8.36352837 11.7732944,10.3330785 11.8355556,12.6977778 L11.8355556,13.5555556 L11,13.5555556 C10.4477153,13.5555556 10,14.0032708 10,14.5555556 L10,21.3733333 C10,21.9256181 10.4477153,22.3733333 11,22.3733333 L21,22.3733333 C21.5522847,22.3733333 22,21.9256181 22,21.3733333 Z M12,15.5555556 L20,15.5555556 L20,20.3733333 L12,20.3733333 L12,15.5555556 Z M18.1644444,12.6977778 L18.1644444,13.5555556 L13.8355556,13.5555556 L13.8355556,12.6977778 C13.7749721,11.4381354 14.7409428,10.3650551 16,10.2933333 C17.2590572,10.3650551 18.2250279,11.4381354 18.1644444,12.6977778 Z" id="Combined-Shape" fill="#2D2D2D" fill-rule="nonzero"></path>
    </g>
</svg>