<?xml version="1.0" encoding="UTF-8"?>
<svg width="32px" height="32px" viewBox="0 0 32 32" version="1.1" xmlns="http://www.w3.org/2000/svg" xmlns:xlink="http://www.w3.org/1999/xlink">
    <!-- Generator: Sketch 50.2 (55047) - http://www.bohemiancoding.com/sketch -->
    <title>login-fill</title>
    <desc>Created with Sketch.</desc>
    <defs></defs>
    <g id="login" stroke="none" stroke-width="1" fill="none" fill-rule="evenodd">
        <path d="M11.8918514,9.03788703 L18.8537643,15.9998 L11.9038512,22.9497131 C11.121861,23.7297034 9.8558768,23.7297034 9.07588655,22.9497131 C8.29389633,22.1677229 8.29389633,20.9017387 9.07588655,20.1217485 L11.1958601,17.999775 L0,17.999775 L0,13.999825 L11.1958601,13.999825 L9.0638867,11.8658517 C8.28189648,11.0858614 8.28189648,9.81987725 9.0638867,9.03788703 C9.84387695,8.2558968 11.1098611,8.2558968 11.8918514,9.03788703 Z M30.000025,0 C31.1040112,0 32,0.8959888 32,1.999975 L32,29.999625 C32,31.1036112 31.1040112,31.9996 30.000025,31.9996 L14.000225,31.9996 C12.8962388,31.9996 12.00025,31.1036112 12.00025,29.999625 L12.00025,28.483644 L16.0002,24.483694 L16.0002,27.99965 L28.00005,27.99965 L28.00005,3.99995 L16.0002,3.99995 L16.0002,7.51590605 L12.00025,3.51595605 L12.00025,1.999975 C12.00025,0.8959888 12.8962388,0 14.000225,0 L30.000025,0 Z" id="Login" fill="#212121"></path>
    </g>
</svg>