<svg id="Fill" xmlns="http://www.w3.org/2000/svg" viewBox="0 0 100 100"><path d="M85.76,45.2H80.05a.23.23,0,0,1-.24-.24V27.31a.24.24,0,0,1,.24-.24h3.26a.24.24,0,0,0,.24-.24V14.24a.24.24,0,0,0-.24-.24H63.85a.24.24,0,0,0-.24.24V26.83a.24.24,0,0,0,.24.24h2.29a.25.25,0,0,1,.25.24V45a.24.24,0,0,1-.25.24H59.07a.24.24,0,0,1-.25-.24V18.45a.23.23,0,0,0-.42-.14l-13,16.12a.24.24,0,0,1-.43-.15v-11A.24.24,0,0,0,44.7,23H18.54A4.21,4.21,0,0,0,14,27.5V86H85.76a.24.24,0,0,0,.24-.24V45.44A.24.24,0,0,0,85.76,45.2Zm-49.08,26H23.5v-13H36.68Zm19.88,0H43.37v-13H56.56Zm19.87,0H63.24v-13H76.43Z"/></svg>