<svg id="Fill" xmlns="http://www.w3.org/2000/svg" viewBox="0 0 100 100"><path d="M34.48,42.3a4.14,4.14,0,1,0-4.14-4.14h0A4.14,4.14,0,0,0,34.48,42.3Z"/><path d="M41.47,45.08a1,1,0,0,0-.6-.92,16.1,16.1,0,0,0-6.39-1.24,16,16,0,0,0-6.4,1.24,1,1,0,0,0-.6.92V47.8h14Z"/><path d="M50,42.3a4.14,4.14,0,1,0-4.14-4.14h0A4.16,4.16,0,0,0,50,42.3Z"/><path d="M57,45.08a1,1,0,0,0-.6-.92,17.14,17.14,0,0,0-12.79,0,1,1,0,0,0-.59.92V47.8H57Z"/><path d="M65.53,42.3a4.14,4.14,0,1,0-4.14-4.14h0A4.14,4.14,0,0,0,65.53,42.3Z"/><path d="M72.52,45.08a1,1,0,0,0-.6-.92,17.14,17.14,0,0,0-12.79,0,1,1,0,0,0-.6.92V47.8h14Z"/><path d="M76.29,50.11c-.27-.65-1.1-1.24-3.21-1.24H26.92c-2.11,0-2.94.59-3.21,1.24L14,63.73v.43C14,65,14.58,66,17.32,66H82.68C85.42,66,86,65,86,64.16v-.43Z"/></svg>