<svg id="Fill" xmlns="http://www.w3.org/2000/svg" viewBox="0 0 100 100"><path d="M46.54,48.49a2.59,2.59,0,0,0,.56,1.59,3.47,3.47,0,0,0,1.16.94V45.89a3.19,3.19,0,0,0-1.11.87A2.79,2.79,0,0,0,46.54,48.49Z"/><path d="M51.76,57.58v6.18a3.56,3.56,0,0,0,1.75-1,3.15,3.15,0,0,0,.82-2.14,2.78,2.78,0,0,0-.68-1.89A4.3,4.3,0,0,0,51.76,57.58Z"/><path d="M50,18,14,54.28H24.54L24.49,82H75.4l0-27.72H86Zm7.27,47.42a9.26,9.26,0,0,1-5.51,2.68v3.33h-3.5V68.18a9,9,0,0,1-5-2.26,9.31,9.31,0,0,1-2.64-5.46l0-.23L46,59.69l0,.2a5.49,5.49,0,0,0,1.07,2.33,5.13,5.13,0,0,0,1.19,1.07v-6.7a10.5,10.5,0,0,1-5.1-2.93,7.42,7.42,0,0,1-1.75-5,6.84,6.84,0,0,1,2-5,8.08,8.08,0,0,1,4.86-2.26V38.08h3.5v3.37a8.45,8.45,0,0,1,4.54,1.91,7.46,7.46,0,0,1,2.31,4.32l0,.23-5.19.63,0-.2a3.41,3.41,0,0,0-1.66-2.42V52.2c2.86.76,4.86,1.75,5.94,2.94a7,7,0,0,1,1.67,4.8A7.71,7.71,0,0,1,57.27,65.42Z"/></svg>