<?xml version="1.0" encoding="UTF-8"?>
<svg width="32px" height="32px" viewBox="0 0 32 32" version="1.1" xmlns="http://www.w3.org/2000/svg" xmlns:xlink="http://www.w3.org/1999/xlink">
    <!-- Generator: Sketch 50.2 (55047) - http://www.bohemiancoding.com/sketch -->
    <title>move-fill</title>
    <desc>Created with Sketch.</desc>
    <defs></defs>
    <g id="move" stroke="none" stroke-width="1" fill="none" fill-rule="evenodd">
        <path d="M26.4,10.39985 C25.618,9.61785 24.352,9.61785 23.572,10.39985 C22.79,11.18185 22.79,12.44785 23.572,13.22785 L24.344,13.99985 L18,13.99985 L18,7.65585 L18.772,8.42785 C19.554,9.20985 20.82,9.20985 21.6,8.42785 C22.382,7.64785 22.382,6.38185 21.6,5.59985 C21.6,5.59985 19.4539562,3.45380625 18.3809344,2.38078438 C17.3079125,1.3077625 16,-0.00015 16,-0.00015 L10.4,5.59985 C9.618,6.38185 9.618,7.64785 10.4,8.42785 C11.182,9.20985 12.448,9.20985 13.228,8.42785 L14,7.65785 L14,13.99985 L7.656,13.99985 L8.428,13.22785 C9.21,12.44785 9.21,11.18185 8.428,10.39985 C7.648,9.61785 6.382,9.61785 5.6,10.39985 L0,15.99985 L5.6,21.59985 C6.382,22.38185 7.648,22.38185 8.428,21.59985 C9.21,20.81985 9.21,19.55385 8.428,18.77185 L7.656,17.99985 L14,17.99985 L14,24.34385 L13.228,23.57185 C12.448,22.78985 11.182,22.78985 10.4,23.57185 C9.618,24.35185 9.618,25.61785 10.4,26.39985 L16,31.99985 L21.6,26.39985 C22.382,25.61785 22.382,24.35185 21.6,23.57185 C20.82,22.78985 19.554,22.78985 18.772,23.57185 L18,24.34385 L18,17.99985 L24.344,17.99985 L23.572,18.77185 C22.79,19.55385 22.79,20.81985 23.572,21.59985 C24.352,22.38185 25.618,22.38185 26.4,21.59985 L32,15.99985 L26.4,10.39985 Z" id="Fill-1" fill="#212121"></path>
    </g>
</svg>