<svg id="Fill" xmlns="http://www.w3.org/2000/svg" viewBox="0 0 100 100"><path d="M79.06,74.06l.38-48.12A3.45,3.45,0,0,0,76,22.5H51.89V51.91h6.89a3.38,3.38,0,0,1,3.44,3.32V74.06H58.78V55.32H48.44V30.14H24.33a3.44,3.44,0,0,0-3.44,3.4V74.06H14V77.5H86V74.06ZM32.94,65.85H29.5V62.41h3.44Zm0-12.23H29.5V50.19h3.44Zm0-11.45H29.5V38.73h3.44ZM43.28,69.29H39.83V62.41h3.45Zm0-15.66H39.83V50.19h3.45Zm0-11.46H39.83V38.73h3.45ZM53,65.85H49.57V62.41H53ZM63,47.52H59.54V44.08H63Zm0-13.75H59.54V30.33H63Zm9.46,35.52H69V62.41h3.44Zm.88-21.77H69.88V44.08h3.44Zm0-13.75H69.88V30.33h3.44Z"/></svg>