<svg id="Fill" xmlns="http://www.w3.org/2000/svg" viewBox="0 0 100 100"><path d="M26.74,19.24a29.36,29.36,0,0,0,0,40.73l-3.21,3.24a34,34,0,0,1,0-47.21ZM31,21.53a26.08,26.08,0,0,0,0,36.16l3.22-3.24a21.44,21.44,0,0,1,0-29.69Zm7.47,5.84a17.69,17.69,0,0,0,0,24.47l3.21-3.23a13.07,13.07,0,0,1,0-18Zm34.8-8.13a29.36,29.36,0,0,1,0,40.73l3.21,3.24a34,34,0,0,0,0-47.21Zm-7.47,5.52a21.44,21.44,0,0,1,0,29.69L69,57.69a26.08,26.08,0,0,0,0-36.16Zm-7.46,5.85a13.07,13.07,0,0,1,0,18l3.21,3.23a17.69,17.69,0,0,0,0-24.47Zm6,46.21V72.34h-12V44.27a4.61,4.61,0,1,0-4.62,0V72.34h-11v4.48H20.61V84H82.34V76.82Z"/></svg>