<?xml version="1.0" encoding="UTF-8"?>
<svg width="32px" height="32px" viewBox="0 0 32 32" version="1.1" xmlns="http://www.w3.org/2000/svg" xmlns:xlink="http://www.w3.org/1999/xlink">
    <!-- Generator: Sketch 53.2 (72643) - https://sketchapp.com -->
    <title>network-fill-fill</title>
    <desc>Created with Sketch.</desc>
    <g id="network-fill" stroke="none" stroke-width="1" fill="none" fill-rule="evenodd">
        <path d="M23.745227,8.79570147 L9.99252544,15.7242588 C9.99748697,15.8155426 10,15.9074778 10,16 C10,16.087407 9.99775716,16.1742901 9.9933259,16.260595 L23.7955276,23.1616958 C24.6632658,22.43647 25.7806614,22 27,22 C29.7614237,22 32,24.2385763 32,27 C32,29.7614237 29.7614237,32 27,32 C24.2385763,32 22,29.7614237 22,27 C22,26.912593 22.0022428,26.8257099 22.0066741,26.739405 L8.20447242,19.8383042 C7.33673416,20.56353 6.2193386,21 5,21 C2.23857625,21 0,18.7614237 0,16 C0,13.2385763 2.23857625,11 5,11 C6.21389087,11 7.32674758,11.4325786 8.1928269,12.1519927 L22.0036994,5.19412911 C22.0012406,5.12972408 22,5.06500692 22,5 C22,2.23857625 24.2385763,0 27,0 C29.7614237,0 32,2.23857625 32,5 C32,7.76142375 29.7614237,10 27,10 C25.7569678,10 24.6198789,9.54640262 23.745227,8.79570147 Z" id="Icon/Network/Fill" fill="#242424"></path>
    </g>
</svg>