<?xml version="1.0" encoding="UTF-8"?>
<svg width="32px" height="32px" viewBox="0 0 32 32" version="1.1" xmlns="http://www.w3.org/2000/svg" xmlns:xlink="http://www.w3.org/1999/xlink">
    <!-- Generator: Sketch 50.2 (55047) - http://www.bohemiancoding.com/sketch -->
    <title>notification-fill</title>
    <desc>Created with Sketch.</desc>
    <defs></defs>
    <g id="notification" stroke="none" stroke-width="1" fill="none" fill-rule="evenodd">
        <path d="M16,31.9994 C19.318,31.9994 22.238,30.4174 24.144,27.9994 L7.856,27.9994 C9.762,30.4174 12.682,31.9994 16,31.9994 Z M30.828,18.002 L28.406,16.9 L24.886,7.312 C24.598,6.524 23.848,6 23.008,6 L22,6 C22,2.692 19.308,0 16,0 C12.692,0 10,2.692 10,6 L8.992,6 C8.152,6 7.404,6.524 7.114,7.312 L3.596,16.9 L1.172,18.002 C0.458,18.328 0,19.04 0,19.824 L0,24 L32,24 L32,19.824 C32,19.04 31.542,18.328 30.828,18.002 Z M14,6 C14,4.898 14.896,4 16,4 C17.104,4 18,4.898 18,6 L14,6 Z" id="Combined-Shape" fill="#212121"></path>
    </g>
</svg>