<svg id="Fill" xmlns="http://www.w3.org/2000/svg" viewBox="0 0 100 100"><g id="Fill-2" data-name="Fill"><path d="M85.69,77.81c-.44-.17-.9-.39-1.44-.65a15.43,15.43,0,0,0-6.69-1.89,15.07,15.07,0,0,0-1.65.08V70.28h8.2V55.89H80V41.82H77.28V34.43h-1V17H70.39V34.43h-2V26.49h-6v7.94h-1v6.63L56.33,23.44l-.17-.63H49.7l-5.46,19h-.18L38,39.15h5.64V34.28l-16.24-.17-.77-.52a4,4,0,0,0-5.55,1,4,4,0,0,0,.42,5l.4.41V65.89H26.8V44.81L39.89,55.89H31.33V70.24h8.2v8.18h-.86A14.08,14.08,0,0,1,32.73,77,18,18,0,0,0,25,75.19a13.63,13.63,0,0,0-7,1.89,10.31,10.31,0,0,1-3.54,1.24l-.43.06L14.07,83H86V77.89Zm-44.79-27-10.68-9.6,10.68,4.4Zm6.83,24.9a20.07,20.07,0,0,0-3.29,1.16V70.24h3.29ZM60.18,49.44v4H55.31v-4ZM52.93,32.12l2.6,8.94H50.34Zm9.85,46A19.37,19.37,0,0,1,61,77.25a17.93,17.93,0,0,0-8.28-2v-5H62.78Zm4.29-24.66H62.2v-4h4.87ZM71,76.82l-.39.2-.13.07a11.49,11.49,0,0,1-2.77,1.12V70.26H71Zm3-23.44H69.08v-4H74Z"/></g></svg>