<svg id="Fill" xmlns="http://www.w3.org/2000/svg" viewBox="0 0 100 100"><g id="Fill-2" data-name="Fill"><path d="M31.46,75.51V21.88A11.76,11.76,0,0,0,21.5,33l.2,53h9.76Z"/><rect x="35.32" y="79.42" width="12.09" height="6.5"/><rect x="35.32" y="21.65" width="12.09" height="6.99"/><path d="M78.5,32.87a11.6,11.6,0,0,0-8.19-10.58V17.83A3.82,3.82,0,0,0,66.52,14H55.15a3.82,3.82,0,0,0-3.8,3.83h0v3.8h-.09V85.92H78.31Z"/><rect x="35.32" y="44.31" width="12.09" height="7.85"/><rect x="35.32" y="32.55" width="12.09" height="7.85"/><rect x="35.32" y="56.06" width="12.09" height="7.79"/><rect x="35.32" y="67.77" width="12.09" height="7.73"/></g></svg>