<svg id="Fill" xmlns="http://www.w3.org/2000/svg" viewBox="0 0 100 100"><path d="M86,14V65.29A5.77,5.77,0,0,1,83.57,70a5.71,5.71,0,0,1-3.33,1.08H34.91A5.71,5.71,0,0,1,31.57,70a5.83,5.83,0,0,1-2.42-4.7h0V19.78h0a5.66,5.66,0,0,1,1.08-3.37,5.46,5.46,0,0,1,1.35-1.32A5.76,5.76,0,0,1,34.91,14H86ZM27.75,73.61a5.9,5.9,0,0,1-2.42-4.7V28H19.76a5.71,5.71,0,0,0-3.33,1.08,5.42,5.42,0,0,0-1.34,1.32A5.74,5.74,0,0,0,14,33.74V80.22a5.87,5.87,0,0,0,2.42,4.7A5.74,5.74,0,0,0,19.76,86H66.05a5.68,5.68,0,0,0,3.33-1.08,5.77,5.77,0,0,0,2.43-4.7V74.69H31.09A5.83,5.83,0,0,1,27.75,73.61ZM71,33.76v7.93a3.18,3.18,0,1,0,6.36,0V22.88H58.6a3.19,3.19,0,0,0,0,6.37h7.91L50.44,45.37l4.5,4.51Z"/></svg>