<svg id="Fill" xmlns="http://www.w3.org/2000/svg" viewBox="0 0 100 100"><path d="M86,25.5s-6.68,16.71-10.28,25S68.54,67.15,66,74.19l-.11.31-.28-.18L49.5,63.81,43.22,59.7l-.32-.2.3-.23c3.36-2.48,11.5-9.21,19.29-15.65l8.89-7.23.67-.51,0,0,6.76-5.51L59.91,39.14c-8.63,4.45-17.56,9-26.32,13.58a2.6,2.6,0,0,1-1.24.36,2.47,2.47,0,0,1-1.21-.35c-3.77-2-7.61-4.07-11.33-6l-4.43-2.34c-.14-.08-.27-.17-.46-.3l-.4-.28L14,43.42l.61-.13c10.07-2.09,23.08-5.46,35.67-8.72C62.7,31.35,86,25.5,86,25.5Zm-14,10.38,0,0-.65.53Zm6.74-5.53c-1.43,1.08-3.86,3-6.8,5.44l0,.07Zm-9.14,7.36-7.16,5.91,8.89-7.23Zm-3.34.67c-9.12,4.85-27.1,14.39-31.2,16.53a1.78,1.78,0,0,0-.82.94c.58,3.68,1.24,7.34,1.93,11.21l.33,1.87c.24-.78.47-1.55.71-2.32l.08-.27c.63-2.09,1.28-4.25,2-6.35A5.16,5.16,0,0,1,41,57.68C44.6,55,58.75,44.16,66.31,38.38ZM72,35.86l0-.07-2.34,1.92,1.73-1.32ZM40.2,70.55,46.91,66,42.43,63.1Z"/></svg>