<svg id="Fill" xmlns="http://www.w3.org/2000/svg" viewBox="0 0 100 100"><path d="M31.64,49.77a8.82,8.82,0,1,0-8.83,8.76h0A8.81,8.81,0,0,0,31.64,49.77Zm27.17,0A8.81,8.81,0,1,0,50,58.53,8.78,8.78,0,0,0,58.81,49.77ZM77.18,41A8.77,8.77,0,1,0,86,49.77h0A8.8,8.8,0,0,0,77.18,41ZM35.12,66a8.77,8.77,0,1,0,8.82,8.76h0A8.82,8.82,0,0,0,35.12,66Zm27.17,0a8.77,8.77,0,1,0,8.82,8.76h0A8.79,8.79,0,0,0,62.29,66ZM35.12,34a8.77,8.77,0,1,0-8.82-8.76h0A8.8,8.8,0,0,0,35.12,34Zm27.17,0a8.77,8.77,0,1,0-8.81-8.77h0A8.8,8.8,0,0,0,62.29,34Z"/></svg>