<?xml version="1.0" encoding="UTF-8"?>
<svg width="32px" height="32px" viewBox="0 0 32 32" version="1.1" xmlns="http://www.w3.org/2000/svg" xmlns:xlink="http://www.w3.org/1999/xlink">
    <!-- Generator: Sketch 53.2 (72643) - https://sketchapp.com -->
    <title>partership-fill-fill</title>
    <desc>Created with Sketch.</desc>
    <g id="partership-fill" stroke="none" stroke-width="1" fill="none" fill-rule="evenodd">
        <path d="M15,17.4973576 L15,30 L0,30 L0,17.9930571 L0.547058824,17.703899 C2.86929487,16.5538524 5.41353353,15.9714052 7.98529412,16.0010795 C10.3989055,15.9783816 12.789714,16.4883551 15,17.4973576 Z M24,12 C21.2404131,11.9955705 19.0044295,9.7595869 19,7 C19,4.23857625 21.2385763,2 24,2 C26.7614237,2 29,4.23857625 29,7 C29,9.76142375 26.7614237,12 24,12 Z M7,12 C4.23949557,11.9977818 2.00221816,9.76050443 2,7 C2,4.23857625 4.23857625,2 7,2 C9.76142375,2 12,4.23857625 12,7 C12,9.76142375 9.76142375,12 7,12 Z M17,30 L17,17.4973576 C19.210286,16.4883551 21.6010945,15.9783816 24.0147059,16.0010795 C26.5864665,15.9714052 29.1307051,16.5538524 31.4529412,17.703899 L32,17.9930571 L32,30 L17,30 Z" id="Combined-Shape" fill="#2D2D2D" fill-rule="nonzero"></path>
    </g>
</svg>