<svg id="Fill" xmlns="http://www.w3.org/2000/svg" viewBox="0 0 100 100"><path d="M81.5,23V34.25h-63V23h9V14h9v9h27V14h9v9Zm-63,20.25h63V81.5A4.51,4.51,0,0,1,77,86H23a4.51,4.51,0,0,1-4.5-4.5ZM59.37,68.43a7,7,0,0,0-1.67-4.79c-1.08-1.2-3.08-2.19-5.94-3V54.42a3.37,3.37,0,0,1,1.66,2.41l0,.21,5.19-.64,0-.23a7.4,7.4,0,0,0-2.31-4.31,8.39,8.39,0,0,0-4.54-1.92V46.57h-3.5V50a8.08,8.08,0,0,0-4.86,2.26,6.83,6.83,0,0,0-2,5,7.42,7.42,0,0,0,1.75,5,10.35,10.35,0,0,0,5.1,2.93v6.71A5.22,5.22,0,0,1,46,68.39l0-.2-5.33.53,0,.24a9.34,9.34,0,0,0,2.64,5.46,9.08,9.08,0,0,0,5,2.25v3.26h3.5V76.6a9.32,9.32,0,0,0,5.51-2.68A7.72,7.72,0,0,0,59.37,68.43ZM47.1,58.58a2.62,2.62,0,0,1-.56-1.6,2.76,2.76,0,0,1,.61-1.72,3.1,3.1,0,0,1,1.11-.88v5.13A3.45,3.45,0,0,1,47.1,58.58Zm7.23,10.48a3.11,3.11,0,0,1-.82,2.14,3.56,3.56,0,0,1-1.75,1V66.07"/></svg>