<?xml version="1.0" encoding="UTF-8"?>
<svg width="32px" height="32px" viewBox="0 0 32 32" version="1.1" xmlns="http://www.w3.org/2000/svg" xmlns:xlink="http://www.w3.org/1999/xlink">
    <!-- Generator: Sketch 50.2 (55047) - http://www.bohemiancoding.com/sketch -->
    <title>pdf-fill</title>
    <desc>Created with Sketch.</desc>
    <defs></defs>
    <g id="pdf" stroke="none" stroke-width="1" fill="none" fill-rule="evenodd">
        <path d="M0,4 L30,4 C31.104,4 32,4.896 32,6 L32,28 L0,28 L0,4 Z M6.2427426,17.5728022 L7.68924523,17.5728022 C8.83495182,17.5728022 9.74398337,17.2717521 10.4163672,16.6696429 C11.0887509,16.0675336 11.4249378,15.2742723 11.4249378,14.2898352 C11.4249378,13.305398 11.0887509,12.510992 10.4163672,11.9065934 C9.74398337,11.3021948 8.83495182,11 7.68924523,11 L4,11 L4,21 L6.2427426,21 L6.2427426,17.5728022 Z M6.2427426,15.7870879 L6.2427426,12.7857143 L7.68924523,12.7857143 C8.18026234,12.7857143 8.55294316,12.9276543 8.80729887,13.2115385 C9.06165458,13.4954227 9.18883052,13.85943 9.18883052,14.3035714 C9.18883052,14.7385553 9.0605487,15.0945499 8.8039812,15.3715659 C8.5474137,15.648582 8.17583876,15.7870879 7.68924523,15.7870879 L6.2427426,15.7870879 Z M12.6657451,21 L16.2023777,21 C17.3392371,21 18.290292,20.6176778 19.0555709,19.853022 C19.8208498,19.0883661 20.2034835,18.1039437 20.2034835,16.8997253 L20.2034835,15.1002747 C20.2034835,13.900635 19.8208498,12.9173573 19.0555709,12.1504121 C18.290292,11.3834669 17.3392371,11 16.2023777,11 L12.6657451,11 L12.6657451,21 Z M14.9084877,12.7857143 L16.2023777,12.7857143 C16.7110891,12.7857143 17.1302168,13.0009136 17.4597733,13.4313187 C17.7893298,13.8617238 17.9541056,14.4134582 17.9541056,15.0865385 L17.9541056,16.8997253 C17.9541056,17.5819631 17.7893298,18.1382762 17.4597733,18.5686813 C17.1302168,18.9990864 16.7110891,19.2142857 16.2023777,19.2142857 L14.9084877,19.2142857 L14.9084877,12.7857143 Z M27.323196,16.9752747 L27.323196,15.1895604 L23.7865635,15.1895604 L23.7865635,12.7857143 L28,12.7857143 L28,11 L21.5438208,11 L21.5438208,21 L23.7865635,21 L23.7865635,16.9752747 L27.323196,16.9752747 Z" id="Combined-Shape" fill="#212121"></path>
    </g>
</svg>