<?xml version="1.0" encoding="UTF-8"?>
<svg width="32px" height="32px" viewBox="0 0 32 32" version="1.1" xmlns="http://www.w3.org/2000/svg" xmlns:xlink="http://www.w3.org/1999/xlink">
    <!-- Generator: Sketch 50.2 (55047) - http://www.bohemiancoding.com/sketch -->
    <title>physician-fill</title>
    <desc>Created with Sketch.</desc>
    <defs></defs>
    <g id="physician" stroke="none" stroke-width="1" fill="none" fill-rule="evenodd">
        <path d="M15.747965,24 C14.8598794,27.4504544 11.7276789,30 8,30 C3.581722,30 0,26.418278 0,22 C0,17.581722 3.581722,14 8,14 C11.7276789,14 14.8598794,16.5495456 15.747965,20 L20,20 L20,14.7769836 C15.9920226,13.8675252 13,10.2831748 13,6 L13,-5.8496692e-14 L19,-2.89728005e-14 C20.1045695,-2.89051651e-14 21,0.8954305 21,2 C21,3.1045695 20.1045695,4 19,4 L17,4 L17,6 C17,8.76142375 19.2385763,11 22,11 C24.7614237,11 27,8.76142375 27,6 L27,4 L25,4 C23.8954305,4 23,3.1045695 23,2 C23,0.8954305 23.8954305,-5.63599632e-14 25,-5.62923278e-14 L31,-5.51901457e-14 L31,6 C31,10.2831748 28.0079774,13.8675252 24,14.7769836 L24,20 L26,20 C29.3137085,20 32,22.6862915 32,26 C32,29.3137085 29.3137085,32 26,32 C22.6862915,32 20,29.3137085 20,26 L20,24 L15.747965,24 Z M24,24 L24,26 C24,27.1045695 24.8954305,28 26,28 C27.1045695,28 28,27.1045695 28,26 C28,24.8954305 27.1045695,24 26,24 L24,24 Z M8,26 C10.209139,26 12,24.209139 12,22 C12,19.790861 10.209139,18 8,18 C5.790861,18 4,19.790861 4,22 C4,24.209139 5.790861,26 8,26 Z M8,24 C6.8954305,24 6,23.1045695 6,22 C6,20.8954305 6.8954305,20 8,20 C9.1045695,20 10,20.8954305 10,22 C10,23.1045695 9.1045695,24 8,24 Z" id="Combined-Shape" fill="#212121" fill-rule="nonzero"></path>
    </g>
</svg>