<svg id="Fill" xmlns="http://www.w3.org/2000/svg" viewBox="0 0 100 100"><defs><style>.cls-1{fill-rule:evenodd;}</style></defs><path class="cls-1" d="M46.19,49.79l-.07-14.12h6.4V49.79Zm22-24.29H31.86a7.17,7.17,0,0,0-5.78,2.36l-10,10.42a7.52,7.52,0,0,0-1.68,2.5A6.62,6.62,0,0,0,14,43.32V63.89A10.65,10.65,0,0,0,24.64,74.5H75.37A10.65,10.65,0,0,0,86,63.89V43.32a6.62,6.62,0,0,0-.42-2.54,7.52,7.52,0,0,0-1.68-2.5l-10-10.42a7.17,7.17,0,0,0-5.78-2.36ZM72,63.34H67.69V49.21h6.4V63.34Zm-46.13,0V49.21h6.4V63.34Z"/></svg>