<?xml version="1.0" encoding="UTF-8"?>
<svg width="32px" height="32px" viewBox="0 0 32 32" version="1.1" xmlns="http://www.w3.org/2000/svg" xmlns:xlink="http://www.w3.org/1999/xlink">
    <!-- Generator: Sketch 50.2 (55047) - http://www.bohemiancoding.com/sketch -->
    <title>ppt-fill</title>
    <desc>Created with Sketch.</desc>
    <defs></defs>
    <g id="ppt" stroke="none" stroke-width="1" fill="none" fill-rule="evenodd">
        <path d="M32,6 L32,28 L0,28 L0,4 L30,4 C31.1053333,4 32,4.89466667 32,6 Z M6.2377931,17.5728022 L7.68110345,17.5728022 C8.82428158,17.5728022 9.73130699,17.2717521 10.4022069,16.6696429 C11.0731068,16.0675336 11.4085517,15.2742723 11.4085517,14.2898352 C11.4085517,13.305398 11.0731068,12.510992 10.4022069,11.9065934 C9.73130699,11.3021948 8.82428158,11 7.68110345,11 L4,11 L4,21 L6.2377931,21 L6.2377931,17.5728022 Z M6.2377931,15.7870879 L6.2377931,12.7857143 L7.68110345,12.7857143 C8.17103693,12.7857143 8.54289528,12.9276543 8.79668966,13.2115385 C9.05048403,13.4954227 9.17737931,13.85943 9.17737931,14.3035714 C9.17737931,14.7385553 9.04938059,15.0945499 8.79337931,15.3715659 C8.53737803,15.648582 8.16662312,15.7870879 7.68110345,15.7870879 L6.2377931,15.7870879 Z M14.8844138,17.5728022 L16.3277241,17.5728022 C17.4709023,17.5728022 18.3779277,17.2717521 19.0488276,16.6696429 C19.7197275,16.0675336 20.0551724,15.2742723 20.0551724,14.2898352 C20.0551724,13.305398 19.7197275,12.510992 19.0488276,11.9065934 C18.3779277,11.3021948 17.4709023,11 16.3277241,11 L12.6466207,11 L12.6466207,21 L14.8844138,21 L14.8844138,17.5728022 Z M14.8844138,15.7870879 L14.8844138,12.7857143 L16.3277241,12.7857143 C16.8176576,12.7857143 17.189516,12.9276543 17.4433103,13.2115385 C17.6971047,13.4954227 17.824,13.85943 17.824,14.3035714 C17.824,14.7385553 17.6960013,15.0945499 17.44,15.3715659 C17.1839987,15.648582 16.8132438,15.7870879 16.3277241,15.7870879 L14.8844138,15.7870879 Z M28,12.7857143 L28,11 L20.7106207,11 L20.7106207,12.7857143 L23.2132414,12.7857143 L23.2132414,21 L25.4510345,21 L25.4510345,12.7857143 L28,12.7857143 Z" id="Combined-Shape" fill="#212121"></path>
    </g>
</svg>