<svg id="Fill" xmlns="http://www.w3.org/2000/svg" viewBox="0 0 100 100"><rect x="38.13" y="72.14" width="3.44" height="9.46"/><rect x="48.24" y="72.14" width="3.44" height="13.86"/><polygon points="26 68.8 34.64 68.78 34.64 53 26 57.97 26 68.8"/><path d="M51,15.06,49.88,14,48.7,15C40,23,38.15,35.92,38.15,45.36l-.08,23.42,10.17,0V53.87h3.43V68.76l10,0-.06-23.38C61.63,35.93,59.79,23,51,15.06Zm-1.1,32.82a7.34,7.34,0,0,1,0-14.68h0a7.34,7.34,0,0,1,0,14.68Z"/><polygon points="65.13 52.91 65.13 68.73 74 68.72 74 57.83 65.13 52.91"/><path d="M49.88,44.39a3.86,3.86,0,1,1,3.79-3.85A3.83,3.83,0,0,1,49.88,44.39Z"/><rect x="58.24" y="72.14" width="3.44" height="9.46"/><rect x="69.35" y="72.14" width="3.44" height="5"/><rect x="26" y="72.14" width="3.44" height="5"/></svg>