<?xml version="1.0" encoding="UTF-8"?>
<svg width="32px" height="32px" viewBox="0 0 32 32" version="1.1" xmlns="http://www.w3.org/2000/svg" xmlns:xlink="http://www.w3.org/1999/xlink">
    <!-- Generator: Sketch 53.2 (72643) - https://sketchapp.com -->
    <title>profitability-fill-fill</title>
    <desc>Created with Sketch.</desc>
    <g id="profitability-fill" stroke="none" stroke-width="1" fill="none" fill-rule="evenodd">
        <path d="M29,2 L29,16 L5,16 L5,2 L29,2 Z M17,13 C19.209139,13 21,11.209139 21,9 C21,6.790861 19.209139,5 17,5 C14.790861,5 13,6.790861 13,9 C13,11.209139 14.790861,13 17,13 Z M31.96,24.2222222 C32.1525428,25.1662421 31.6139647,26.1063748 30.7022222,26.4177778 L17.6577778,30.5244444 L17.4977778,30.5244444 C17.4977778,30.5244444 15.3511111,30.5777778 13.2044444,30.6222222 C12.1288889,30.6444444 11.0533333,30.6711111 10.2444444,30.6711111 L9.48444444,30.6711111 C9.03597069,30.7303118 8.58011038,30.651234 8.17777778,30.4444444 C7.11111111,30.0711111 3.19111111,28.8888889 0.773333333,28.1777778 L-3.55271368e-15,27.9466667 L-3.55271368e-15,15.9466667 L9.63555556,18.5288889 L11,19.5911111 L19.4177778,20.6133333 C20.0888889,20.6844444 20.8622222,20.9644444 20.8888889,21.7111111 L20.84,23.3333333 C20.7249799,23.875483 20.2475438,24.2640938 19.6933333,24.2666667 L10.36,24.2666667 L10.36,26.1111111 L19.6933333,26.1111111 C21.1683698,26.0972163 22.4212407,25.0278751 22.6666667,23.5733333 L22.7066667,22.1733333 C29.7955556,21.4577778 30.8977778,21.4888889 31.2888889,21.84 L31.36,21.9066667 L31.3955556,22 C31.6359233,22.7264884 31.8245432,23.4690865 31.96,24.2222222 Z" id="Combined-Shape" fill="#2D2D2D" fill-rule="nonzero"></path>
    </g>
</svg>