<svg id="Fill" xmlns="http://www.w3.org/2000/svg" viewBox="0 0 100 100"><path d="M79.29,64.48H73.7a1.51,1.51,0,0,0,0,3h5.59a1.51,1.51,0,0,0,0-3Z"/><path d="M26.3,64.48H20.72a1.51,1.51,0,0,0,0,3H26.3a1.51,1.51,0,0,0,0-3Z"/><path d="M81.71,36.16H73.08a11.69,11.69,0,0,0-20,0H18.29A4.23,4.23,0,0,0,14,40.51V59.38a4.22,4.22,0,0,0,4.29,4.34H81.71A4.21,4.21,0,0,0,86,59.38V40.51A4.22,4.22,0,0,0,81.71,36.16Zm-42,21H22a1.51,1.51,0,0,1,0-3H39.74a1.51,1.51,0,0,1,0,3Zm0-5.67H22a1.51,1.51,0,0,1,0-3H39.74a1.51,1.51,0,0,1,0,3Zm0-5.66H22a1.51,1.51,0,0,1,0-3H39.74a1.51,1.51,0,0,1,0,3Zm23.32,5.48a8.88,8.88,0,1,1,8.77-8.88A8.74,8.74,0,0,1,63.06,51.27Zm15.86-6.42a1.51,1.51,0,1,1,1.48-1.51A1.36,1.36,0,0,1,78.92,44.85Z"/><path d="M63.06,36.16a6.23,6.23,0,1,0,6.16,6.23A6.2,6.2,0,0,0,63.06,36.16Z"/></svg>