<?xml version="1.0" encoding="UTF-8"?>
<svg width="32px" height="32px" viewBox="0 0 32 32" version="1.1" xmlns="http://www.w3.org/2000/svg" xmlns:xlink="http://www.w3.org/1999/xlink">
    <!-- Generator: Sketch 53.2 (72643) - https://sketchapp.com -->
    <title>purpose-fill-fill</title>
    <desc>Created with Sketch.</desc>
    <g id="purpose-fill" stroke="none" stroke-width="1" fill="none" fill-rule="evenodd">
        <path d="M27.7090751,16.8530409 L23.8224553,15.8857746 C23.9389993,15.2750687 24,14.6446581 24,14 C24,8.4771525 19.5228475,4 14,4 C8.4771525,4 4,8.4771525 4,14 C4,19.5228475 8.4771525,24 14,24 C14.6436383,24 15.2730743,23.9391922 15.8828763,23.8230079 L16.8486248,27.7099887 C15.9288577,27.9001078 14.9760944,28 14,28 C6.2680135,28 0,21.7319865 0,14 C0,6.2680135 6.2680135,0 14,0 C21.7319865,0 28,6.2680135 28,14 C28,14.9776566 27.8997878,15.9319075 27.7090751,16.8530409 Z M21.8776028,15.4017576 L18.9549085,14.6743843 C18.9846446,14.4538258 19,14.2287061 19,14 C19,11.2385763 16.7614237,9 14,9 C11.2385763,9 9,11.2385763 9,14 C9,16.7614237 11.2385763,19 14,19 C14.2283641,19 14.4531526,18.9846905 14.6733949,18.9550418 L15.3996201,21.8779803 C14.9451592,21.9581719 14.4774643,22 14,22 C9.581722,22 6,18.418278 6,14 C6,9.581722 9.581722,6 14,6 C18.418278,6 22,9.581722 22,14 C22,14.4782129 21.9580407,14.9466257 21.8776028,15.4017576 Z M16,16 L30.1025215,19.509706 L27.2696038,22.3449806 L32,27.0660011 L27.0568024,32 L22.3397063,27.2789795 L19.5067886,30.114254 L16,16 Z" id="Combined-Shape" fill="#2D2D2D"></path>
    </g>
</svg>