<?xml version="1.0" encoding="UTF-8"?>
<svg width="32px" height="32px" viewBox="0 0 32 32" version="1.1" xmlns="http://www.w3.org/2000/svg" xmlns:xlink="http://www.w3.org/1999/xlink">
    <!-- Generator: Sketch 53.2 (72643) - https://sketchapp.com -->
    <title>radio-fill-fill</title>
    <desc>Created with Sketch.</desc>
    <g id="radio-fill" stroke="none" stroke-width="1" fill="none" fill-rule="evenodd">
        <path d="M10.1424241,17.2948853 C9.4283682,14.061115 11.4690241,10.8602496 14.7016723,10.1434885 C17.9343205,9.42672749 21.1362705,11.4651727 21.8554922,14.6977976 C22.5747139,17.9304225 20.5391747,21.1345453 17.3076758,21.8564721 C15.7526348,22.2027691 14.123738,21.9166007 12.7797774,21.0610001 C11.4358167,20.2053996 10.4870374,18.8505519 10.1424241,17.2948853 L10.1424241,17.2948853 Z M0.385771089,19.4748658 C-0.466492913,15.677254 0.104280208,11.6992038 1.99003357,8.29382656 L3.0610232,6.60645766 C7.77651384,0.0716394469 16.6362813,-1.90984631 23.6897945,1.99283583 L25.3784918,3.06298296 C31.1482039,7.23423183 33.4638658,14.7140751 31.0591231,21.4120484 C28.6543804,28.1100218 22.1082879,32.4132737 15.0006742,31.9685065 C7.89306057,31.5237392 1.9354174,26.4380514 0.385771089,19.4926276 L0.385771089,19.4748658 Z M7.22047569,17.9787078 C8.31293716,22.824525 13.1259042,25.8684533 17.9728368,24.7789655 C22.8197694,23.6894777 25.8668404,18.8787793 24.7801154,14.0316726 C23.6933905,9.18456594 18.8840297,6.13494399 14.035811,7.21869507 C9.18256296,8.30865047 6.13147404,13.1256923 7.22047569,17.9787078 L7.22047569,17.9787078 Z" id="Icon/Radio/Fill" fill="#212121" fill-rule="nonzero"></path>
    </g>
</svg>