<?xml version="1.0" encoding="UTF-8"?>
<svg width="32px" height="32px" viewBox="0 0 32 32" version="1.1" xmlns="http://www.w3.org/2000/svg" xmlns:xlink="http://www.w3.org/1999/xlink">
    <!-- Generator: Sketch 50.2 (55047) - http://www.bohemiancoding.com/sketch -->
    <title>refresh-fill</title>
    <desc>Created with Sketch.</desc>
    <defs></defs>
    <g id="refresh" stroke="none" stroke-width="1" fill="none" fill-rule="evenodd">
        <path d="M18.6376117,3 C17.5336347,3 16.6376534,3.89598133 16.6376534,4.99995833 C16.6376534,6.10393533 17.5336347,6.99991667 18.6376117,6.99991667 C23.8001708,6.99991667 28.0000833,11.1998292 28.0000833,16.3623883 C28.0000833,21.5236141 23.8001708,25.7235266 18.6376117,25.7235266 C13.4750526,25.7235266 9.2751401,21.5236141 9.2751401,16.3623883 L9.2751401,12.6944647 L11.1364347,14.5557593 C11.5270932,14.9464178 12.0390825,15.1424137 12.5510719,15.1424137 C13.0630612,15.1424137 13.5737172,14.9464178 13.9643757,14.5557593 C14.7456928,13.7757755 14.7456928,12.5091352 13.9643757,11.7278182 L7.27518177,5.0386242 L0.585987792,11.7278182 C-0.195329264,12.5091352 -0.195329264,13.7757755 0.585987792,14.5557593 C1.36730485,15.3370763 2.63261182,15.3370763 3.41392888,14.5557593 L5.27522343,12.6944647 L5.27522343,16.3623883 C5.27522343,23.7302348 11.2697652,29.7234433 18.6376117,29.7234433 C26.0054582,29.7234433 32,23.7302348 32,16.3623883 C32,8.99454178 26.0054582,3 18.6376117,3" id="Fill-1" fill="#212121"></path>
    </g>
</svg>