<svg id="Fill" xmlns="http://www.w3.org/2000/svg" viewBox="0 0 100 100"><rect x="42.71" y="18.49" width="5.07" height="3.53"/><rect x="34.45" y="18.49" width="3.81" height="3.53"/><rect x="61.88" y="18.49" width="3.7" height="3.53"/><rect x="52.22" y="18.49" width="5.21" height="3.53"/><path d="M56.8,56c0-.79-3.24-3.06-9.4-3.06S38,55.2,38,56s3.23,3.07,9.4,3.07S56.8,56.78,56.8,56Z"/><path d="M58.65,60.54c-2.29,1.75-6.06,3-11.25,3a28.62,28.62,0,0,1-3.17-.17c.73,1,3.87,2.69,9.22,2.69,6.17,0,9.4-2.28,9.4-3.07C62.85,62.46,61.42,61.28,58.65,60.54Z"/><path d="M58.52,70.13s0,0,0-.07a26.58,26.58,0,0,1-5,.46c-4.7,0-8.24-1-10.57-2.52-2.08.73-3.16,1.67-3.16,2.13,0,.79,3.23,3.07,9.4,3.07S58.52,70.92,58.52,70.13Z"/><path d="M75.13,26.69,70,23h0V14H30l0,9c0,.06,0,.12,0,.18l-5.1,3.46A2.09,2.09,0,0,0,24,28.4V83.91A2.08,2.08,0,0,0,26.06,86H73.94A2.08,2.08,0,0,0,76,83.91V28.4A2.09,2.09,0,0,0,75.13,26.69Zm-13.25-8.2h3.7V22h-3.7Zm-9.66,0h5.21V22H52.22Zm-9.51,0h5.07V22H42.71Zm-8.26,0h3.81V22H34.45ZM62.76,68.71A4.62,4.62,0,0,1,63,70.13a4.94,4.94,0,0,1-.75,2.53,6,6,0,0,1,2.92,4.77,5.49,5.49,0,0,1-1.88,3.92h-24a5.49,5.49,0,0,1-1.88-3.92,4.88,4.88,0,0,1,.75-2.53,6,6,0,0,1-2.92-4.77c0-2.14,1.55-4.28,4.56-5.74A4.57,4.57,0,0,1,39.58,63c0-.21,0-.42.05-.63-4-1.41-6.1-3.89-6.1-6.36,0-3.74,4.76-7.53,13.87-7.53S61.27,52.25,61.27,56a4.46,4.46,0,0,1-.05.63c4,1.41,6.1,3.89,6.1,6.36C67.32,65.11,65.77,67.26,62.76,68.71Z"/><path d="M38,56c0-.79,3.23-3.06,9.4-3.06S56.8,55.2,56.8,56s-3.24,3.07-9.4,3.07S38,56.78,38,56Zm1.72,14.14c0-.46,1.08-1.4,3.16-2.13,2.33,1.5,5.87,2.52,10.57,2.52a26.58,26.58,0,0,0,5-.46s0,0,0,.07c0,.79-3.24,3.07-9.4,3.07S39.72,70.92,39.72,70.13ZM51.29,80.49c-6.17,0-9.41-2.27-9.41-3.06a1.11,1.11,0,0,1,.41-.64,24.72,24.72,0,0,0,6.83.87,21.25,21.25,0,0,0,9.52-1.91c1.35.63,2,1.31,2,1.68C60.68,78.22,57.45,80.49,51.29,80.49Zm2.16-14.44c-5.35,0-8.49-1.72-9.22-2.69a28.62,28.62,0,0,0,3.17.17c5.19,0,9-1.24,11.25-3,2.77.74,4.2,1.92,4.2,2.44C62.85,63.77,59.62,66.05,53.45,66.05Z"/><path d="M58.64,75.75a21.25,21.25,0,0,1-9.52,1.91,24.72,24.72,0,0,1-6.83-.87,1.11,1.11,0,0,0-.41.64c0,.79,3.24,3.06,9.41,3.06s9.39-2.27,9.39-3.06C60.68,77.06,60,76.38,58.64,75.75Z"/></svg>