<?xml version="1.0" encoding="UTF-8"?>
<svg width="32px" height="32px" viewBox="0 0 32 32" version="1.1" xmlns="http://www.w3.org/2000/svg" xmlns:xlink="http://www.w3.org/1999/xlink">
    <!-- Generator: Sketch 50.2 (55047) - http://www.bohemiancoding.com/sketch -->
    <title>save-fill</title>
    <desc>Created with Sketch.</desc>
    <defs></defs>
    <g id="save" stroke="none" stroke-width="1" fill="none" fill-rule="evenodd">
        <path d="M2,0 L23.1715729,0 C23.7020059,8.44799294e-16 24.2107137,0.210713681 24.5857864,0.585786438 L31.4142136,7.41421356 C31.7892863,7.78928632 32,8.29799415 32,8.82842712 L32,30 C32,31.1045695 31.1045695,32 30,32 L2,32 C0.8954305,32 1.3527075e-16,31.1045695 0,30 L0,2 C-1.3527075e-16,0.8954305 0.8954305,2.02906125e-16 2,0 Z M4,2 L4,8 C4,9.1045695 4.8954305,10 6,10 L18,10 C19.1045695,10 20,9.1045695 20,8 L20,2 L4,2 Z M6,16 C4.8954305,16 4,16.8954305 4,18 L4,30 L6,30 L6,18.3333333 L26,18.3333333 L26,30 L28,30 L28,18 C28,16.8954305 27.1045695,16 26,16 L6,16 Z M16,4 L18,4 L18,8 L16,8 L16,4 Z" id="Combined-Shape" fill="#212121"></path>
    </g>
</svg>