<svg id="Fill" xmlns="http://www.w3.org/2000/svg" viewBox="0 0 100 100"><path d="M84.84,56.52a4.19,4.19,0,0,0-.11-1.11l-.92-3.16,0-.12C79.93,41.57,67.53,34.19,53.61,34.19a68.33,68.33,0,0,0-14.72,1.68,15.07,15.07,0,0,0-9.11-3,14,14,0,0,0-7.4,2,4,4,0,0,0-1.11,5.61l3.08,4.38a23.8,23.8,0,0,0-3.26,4.78l-3.33,1A3.91,3.91,0,0,0,15,54.44v9.21a3.9,3.9,0,0,0,2.76,3.76l3.35,1c1.34,2.45,3.15,3.31,5.25,4.3a26.42,26.42,0,0,1,3.11,1.65l3,8.81A3.88,3.88,0,0,0,36.17,86H45.3A3.9,3.9,0,0,0,49,83.22l1.09-3.61a1.86,1.86,0,0,1,.71.49c.23.21.41.37.59.37h0a39.72,39.72,0,0,0,9.48-.61l1,3.1a3.9,3.9,0,0,0,3.78,3h8.93A3.9,3.9,0,0,0,78.38,83l5.09-16.29A20.14,20.14,0,0,0,85,59.05,21.21,21.21,0,0,0,84.84,56.52ZM46.56,48.2l-1.85-4.73.18-.08a25.25,25.25,0,0,1,17.25.43l.19.07-1.79,4.76-.19-.07a20.7,20.7,0,0,0-13.61-.45ZM30.4,52.73a3.88,3.88,0,1,1,3.88,3.91A3.9,3.9,0,0,1,30.4,52.73Z"/><path d="M53.52,14a8.34,8.34,0,1,0,8.26,8.33A8.3,8.3,0,0,0,53.52,14Z"/></svg>