<svg id="Fill" xmlns="http://www.w3.org/2000/svg" viewBox="0 0 100 100"><path d="M26,57.31a24.18,24.18,0,0,0-12-3.19V58.5A19.58,19.58,0,0,1,33.61,78H38A23.89,23.89,0,0,0,26,57.31Z"/><path d="M14,62.14v4.39a11.66,11.66,0,0,1,10,5.73A11.44,11.44,0,0,1,25.57,78H30a15.66,15.66,0,0,0-2.15-7.93A16.07,16.07,0,0,0,14,62.14Z"/><path d="M14,70.16,14.05,78l7.85,0a7.8,7.8,0,0,0-1-3.92A8,8,0,0,0,14,70.16Z"/><path d="M83.79,22H16.27a2.2,2.2,0,0,0-2.21,2.19L14,50.75a27.6,27.6,0,0,1,12.71,3.11v-19h46.5V65H38.12v0a27.06,27.06,0,0,1,3.36,13H83.79A2.2,2.2,0,0,0,86,75.75V24.19A2.2,2.2,0,0,0,83.79,22Z"/></svg>