<svg id="Fill" xmlns="http://www.w3.org/2000/svg" viewBox="0 0 100 100"><path d="M34.83,86l-1.28-.79L18.48,75.82,17,74.89l1.12-1.34a111.53,111.53,0,0,0,6.68-9.48c-.08-.36-.2-.94-.4-1.84-.53-2.39-1.56-7.13-3.6-16.51a3.91,3.91,0,0,1,.4-2.64c.37-.69,4.38-8,18.1-27.08,4.66-5,10.79.44,8,5.14C45.82,23.68,40.11,31.86,34,41.5a7.56,7.56,0,0,0-.82,5v.25s.21,1.72,3.18,16.57c.63-.19,1.44-.41,2.44-.66L35.25,46.13a2.85,2.85,0,0,1,.27-2.43A3.38,3.38,0,0,1,38,42.25a3,3,0,0,1,2.65.28,3.53,3.53,0,0,1,1.68,2.34c.2.56.39,1.37.67,2.55.76,3.17,2,8.73,3.7,16.52a2.42,2.42,0,0,1,0,2.22c-.64,2.1-4,7.62-6.82,12.1Zm25.3-7.74c-2.83-4.48-6.18-10-6.82-12.1a2.42,2.42,0,0,1,0-2.22C55,56.15,56.24,50.59,57,47.42c.28-1.18.47-2,.67-2.55a3.53,3.53,0,0,1,1.69-2.37A3,3,0,0,1,62,42.25a3.36,3.36,0,0,1,2.44,1.45,2.85,2.85,0,0,1,.27,2.43L61.12,62.68c1,.25,1.81.47,2.44.66,3-14.85,3.18-16.56,3.18-16.57v-.25a7.54,7.54,0,0,0-.74-5c-6.1-9.64-11.81-17.82-13.31-20.36-2.77-4.7,3.36-10.16,8-5.14C74.42,35.08,78.43,42.39,78.8,43.08a3.91,3.91,0,0,1,.4,2.64c-2,9.38-3.07,14.12-3.6,16.51-.2.9-.32,1.48-.4,1.84a111.53,111.53,0,0,0,6.68,9.48L83,74.89l-1.48.93-15,9.39L65.22,86Z"/></svg>