<?xml version="1.0" encoding="UTF-8"?>
<svg width="32px" height="32px" viewBox="0 0 32 32" version="1.1" xmlns="http://www.w3.org/2000/svg" xmlns:xlink="http://www.w3.org/1999/xlink">
    <!-- Generator: Sketch 53.2 (72643) - https://sketchapp.com -->
    <title>service-fill-fill</title>
    <desc>Created with Sketch.</desc>
    <g id="service-fill" stroke="none" stroke-width="1" fill="none" fill-rule="evenodd">
        <path d="M31.4218597,3.92360624 L27.6858425,7.65268178 L24.0965974,4.06583558 L27.7258712,0.434542704 C25.2854308,-0.495111654 22.5261925,0.094350401 20.6794165,1.93989205 C18.8326405,3.7854337 18.2427842,6.5428279 19.1730604,8.98163719 L8.94348935,19.2043711 C6.51074445,18.2974214 3.77210188,18.8938018 1.93752316,20.7300249 C0.102944441,22.5662481 -0.48954932,25.3039899 0.421811945,27.7336869 L4.05553347,24.1068387 L7.6447786,27.6936849 L3.913209,31.4272051 C6.42192191,32.5434665 9.35965708,31.997839 11.2995049,30.0553436 C13.2393528,28.1128481 13.779373,25.1759735 12.6572684,22.6712113 L22.6600098,12.6707107 C25.1684632,13.795438 28.1113419,13.2555116 30.0564281,11.3136988 C32.0015143,9.37188606 32.5447907,6.43152422 31.4218597,3.92360624 Z" id="Path" fill="#2D2D2D" fill-rule="nonzero"></path>
    </g>
</svg>