<?xml version="1.0" encoding="UTF-8"?>
<svg width="32px" height="32px" viewBox="0 0 32 32" version="1.1" xmlns="http://www.w3.org/2000/svg" xmlns:xlink="http://www.w3.org/1999/xlink">
    <!-- Generator: Sketch 50.2 (55047) - http://www.bohemiancoding.com/sketch -->
    <title>setting-fill</title>
    <desc>Created with Sketch.</desc>
    <defs></defs>
    <g id="setting" stroke="none" stroke-width="1" fill="none" fill-rule="evenodd">
        <path d="M1.00933333,20.2464233 C0.416,20.0984233 0,19.56509 0,18.95309 L0,13.0357566 C0,12.4237566 0.416,11.8904233 1.00933333,11.7424233 L2.27333333,11.4264233 C3.296,11.1704233 4.17066667,10.5117566 4.69466667,9.5984233 C4.724,9.54508997 4.75466667,9.49308997 4.78533333,9.44108997 C5.33066667,8.52108997 5.47466667,7.42108997 5.18133333,6.39308997 L4.82266667,5.1384233 C4.65333333,4.5504233 4.908,3.92375663 5.43733333,3.61708997 L10.5626667,0.658423305 C11.092,0.353089972 11.7626667,0.446423305 12.188,0.886423305 L13.1386667,1.8704233 C13.8826667,2.63975663 14.9093333,3.06508997 15.9786667,3.06375663 L16.0213333,3.06375663 C17.0906667,3.06508997 18.1173333,2.63975663 18.8613333,1.8704233 L19.812,0.886423305 C20.2373333,0.446423305 20.908,0.353089972 21.4373333,0.658423305 L26.5626667,3.61708997 C27.092,3.92375663 27.3466667,4.5504233 27.1773333,5.1384233 L26.8186667,6.39308997 C26.5253333,7.42108997 26.6693333,8.52108997 27.2146667,9.44108997 C27.2453333,9.49308997 27.276,9.54508997 27.3053333,9.5984233 C27.8293333,10.5117566 28.704,11.1704233 29.7266667,11.4264233 L30.9906667,11.7424233 C31.584,11.8904233 32,12.4237566 32,13.0357566 L32,18.95309 C32,19.56509 31.584,20.0984233 30.9906667,20.2464233 L29.7266667,20.5624233 C28.704,20.8184233 27.8306667,21.47709 27.3053333,22.3904233 C27.276,22.4437566 27.2453333,22.4957566 27.2146667,22.5477566 C26.6693333,23.4677566 26.5253333,24.5677566 26.8186667,25.5957566 L27.1773333,26.8504233 C27.3466667,27.4384233 27.092,28.06509 26.5626667,28.3717566 L21.4373333,31.3304233 C20.908,31.6357566 20.2373333,31.5424233 19.812,31.1024233 L18.8613333,30.1184233 C18.1173333,29.34909 17.0906667,28.9237566 16.0213333,28.92509 L15.9786667,28.92509 C14.9093333,28.9237566 13.8826667,29.34909 13.1386667,30.1184233 L12.188,31.1024233 C11.7626667,31.5424233 11.092,31.6357566 10.5626667,31.3304233 L5.43733333,28.3717566 C4.908,28.06509 4.65333333,27.4384233 4.82266667,26.8504233 L5.18133333,25.5957566 C5.47466667,24.5677566 5.33066667,23.4677566 4.78533333,22.5477566 C4.75466667,22.4957566 4.724,22.4437566 4.69466667,22.3904233 C4.16933333,21.47709 3.296,20.8184233 2.27333333,20.5624233 L1.00933333,20.2464233 Z M16,11.9944233 C13.7906667,11.9944233 12,13.78509 12,15.9944233 C12,18.2037566 13.7906667,19.9944233 16,19.9944233 C18.2093333,19.9944233 20,18.2037566 20,15.9944233 C20,13.78509 18.2093333,11.9944233 16,11.9944233 Z" id="Combined-Shape" fill="#212121"></path>
    </g>
</svg>