<?xml version="1.0" encoding="UTF-8"?>
<svg width="32px" height="32px" viewBox="0 0 32 32" version="1.1" xmlns="http://www.w3.org/2000/svg" xmlns:xlink="http://www.w3.org/1999/xlink">
    <!-- Generator: Sketch 50.2 (55047) - http://www.bohemiancoding.com/sketch -->
    <title>share-fill</title>
    <desc>Created with Sketch.</desc>
    <defs></defs>
    <g id="share" stroke="none" stroke-width="1" fill="none" fill-rule="evenodd">
        <path d="M2.66706667,0 L32.0004,0 L32.0004,29.3333333 C32.0004,29.9106667 31.8124,30.4413333 31.5004,30.8786667 C31.3284,31.1186667 31.1190667,31.328 30.8777333,31.5 C30.4417333,31.812 29.9110667,32 29.3337333,32 L2.66706667,32 C2.08973333,32 1.55906667,31.812 1.12173333,31.5 C0.881733333,31.328 0.6724,31.1186667 0.5004,30.8786667 C0.1884,30.4426667 0.0004,29.912 0.0004,29.3333333 L0.0004,2.66533333 C0.0004,2.088 0.1884,1.55733333 0.5004,1.12133333 C0.671066667,0.881333333 0.881733333,0.672 1.12173333,0.5 C1.5564,0.189333333 2.08706667,0.00133333333 2.66706667,0 Z M15,20 L24.0004,11 L24.0004,16 C24.0004,17.104 24.8964,18 26.0004,18 C27.1044,18 28.0004,17.104 28.0004,16 L28.0004,4 L16,4 C14.896,4 14,4.896 14,6 C14,7.104 14.896,8 16,8 L21,8 L12,17 L15,20 Z" id="Share" fill="#212121"></path>
    </g>
</svg>