<svg id="Fill" xmlns="http://www.w3.org/2000/svg" viewBox="0 0 100 100"><g id="Fill-2" data-name="Fill"><rect x="43.12" y="44.76" width="13.76" height="5.28"/><rect x="43.12" y="37.68" width="13.76" height="5.28"/><rect x="60.74" y="44.76" width="13.76" height="5.28"/><rect x="60.74" y="37.68" width="13.76" height="5.28"/><rect x="43.12" y="30.6" width="13.76" height="5.28"/><path d="M76.91,51.86,40,52l-1.78-3.9-4.67-12H32V30.61H21.13v5.47H18.28V48.14H14l.94,2.08c.08.17.8,2.11,1.63,4.36,2.51,6.76,4.8,11.9,5.23,12.74,1,1.89,1.6,2.08,3.77,2.08H75.19c2.87,0,3.71-.64,4.51-2.06a4.68,4.68,0,0,1,.3-.54,62.49,62.49,0,0,0,4.63-10.65l.49-1.37L86,51.86ZM22.07,47V39.26h7.79l3,7.77Z"/></g></svg>