<?xml version="1.0" encoding="UTF-8"?>
<svg width="32px" height="32px" viewBox="0 0 32 32" version="1.1" xmlns="http://www.w3.org/2000/svg" xmlns:xlink="http://www.w3.org/1999/xlink">
    <!-- Generator: Sketch 53.2 (72643) - https://sketchapp.com -->
    <title>shopping-cart-fill-fill</title>
    <desc>Created with Sketch.</desc>
    <g id="shopping-cart-fill" stroke="none" stroke-width="1" fill="none" fill-rule="evenodd">
        <g id="Icon/ShoppingChart/fill" transform="translate(0.000000, 2.000000)" fill="#2D2D2D" fill-rule="nonzero">
            <path d="M15.0000438,22 C13.7866748,22 12.692782,22.7309159 12.2284458,23.8519226 C11.7641095,24.9729294 12.0207731,26.263264 12.8787545,27.1212455 C13.736736,27.9792269 15.0270706,28.2358905 16.1480774,27.7715542 C17.2690841,27.307218 18,26.2133252 18,24.9999562 C17.9974546,23.3441816 16.6558184,22.0025454 15.0000438,22 L15.0000438,22 Z" id="Path"></path>
            <path d="M25.0000438,22 C23.7866748,22 22.692782,22.7309159 22.2284458,23.8519226 C21.7641095,24.9729294 22.0207731,26.263264 22.8787545,27.1212455 C23.736736,27.9792269 25.0270706,28.2358905 26.1480774,27.7715542 C27.2690841,27.307218 28,26.2133252 28,24.9999562 C27.9974546,23.3441816 26.6558184,22.0025454 25.0000438,22 L25.0000438,22 Z" id="Path"></path>
            <path d="M31.6929523,5.35527406 C31.4174156,4.99571639 30.9901773,4.78521749 30.5374106,4.7859426 L9.64877288,4.7859426 C9.57321824,4.47458946 9.51988554,4.26109016 9.49766359,4.17213212 C9.23100013,2.69542864 7.87990526,-2.84217094e-14 4.60883348,-2.84217094e-14 L0,-2.84217094e-14 L0,2.94451115 L4.5999447,2.94451115 C6.21770302,2.94451115 6.58214309,4.44790205 6.63547578,4.72367197 C6.63547578,4.75925519 6.63547578,4.79483841 6.65769773,4.82597372 C6.67991969,4.85710903 8.10212481,10.8128499 9.11100157,15.2029292 C9.99987977,19.0859477 12.7331802,20.0111113 14.0976083,19.9577365 L27.4663364,19.9977676 C28.0071594,20.0276418 28.5201773,19.7558687 28.7995756,19.2914794 C29.078974,18.82709 29.078974,18.2461736 28.7995756,17.7817842 C28.5201773,17.3173948 28.0071594,17.0456218 27.4663364,17.075496 L14.0620532,17.0354648 L13.9953873,17.0354648 C13.7909453,17.0354648 12.7731798,16.9020278 12.1687426,15.2829914 L29.6885319,15.3185746 L31.9551714,6.61403034 C32.0658213,6.17641431 31.9691146,5.71218355 31.6929523,5.35527406 Z" id="Path"></path>
        </g>
    </g>
</svg>