<svg id="Fill" xmlns="http://www.w3.org/2000/svg" viewBox="0 0 100 100"><path d="M50.63,23.39a.8.8,0,0,0-.63-.27.74.74,0,0,0-.62.28L38.38,40H61.67Z"/><path d="M80.64,40H67.23L54.45,20.8a5.43,5.43,0,0,0-8.9,0L32.81,39.92H19.36A5.37,5.37,0,0,0,14,45.32v0a4.78,4.78,0,0,0,.22,1.5L22,75.31a8.41,8.41,0,0,0,8.1,6.19H69.92a8.51,8.51,0,0,0,8.13-6.19L85.83,46.8,86,45.61v-.26A5.38,5.38,0,0,0,80.64,40ZM49.38,23.39a.74.74,0,0,1,.62-.28.8.8,0,0,1,.63.27L61.63,40H38.34ZM41.53,69.66H37V51.82h4.5Zm10.72,0h-4.5V51.82h4.5Zm10.72,0h-4.5V51.82H63Z"/></svg>