<svg id="Fill" xmlns="http://www.w3.org/2000/svg" viewBox="0 0 100 100"><path d="M26,59.55a2.1,2.1,0,0,0-2.09,2.09V64A2.09,2.09,0,1,0,28,64V61.64A2.09,2.09,0,0,0,26,59.55Z"/><path d="M34.15,59.55a2.1,2.1,0,0,0-2.09,2.09V64a2.09,2.09,0,1,0,4.17,0V61.64A2.09,2.09,0,0,0,34.15,59.55Z"/><path d="M42.34,59.55a2.1,2.1,0,0,0-2.09,2.09V64a2.09,2.09,0,1,0,4.17,0V61.64A2.09,2.09,0,0,0,42.34,59.55Z"/><path d="M50.53,59.55a2.09,2.09,0,0,0-2.08,2.09V64a2.08,2.08,0,1,0,4.16,0V61.64A2.09,2.09,0,0,0,50.53,59.55Z"/><path d="M26,74.6a2.09,2.09,0,0,0-2.09,2.08V79A2.09,2.09,0,0,0,28,79V76.68A2.08,2.08,0,0,0,26,74.6Z"/><path d="M34.15,74.6a2.09,2.09,0,0,0-2.09,2.08V79a2.09,2.09,0,0,0,4.17,0V76.68A2.08,2.08,0,0,0,34.15,74.6Z"/><path d="M42.34,74.6a2.09,2.09,0,0,0-2.09,2.08V79a2.09,2.09,0,0,0,4.17,0V76.68A2.08,2.08,0,0,0,42.34,74.6Z"/><path d="M50.53,74.6a2.08,2.08,0,0,0-2.08,2.08V79a2.08,2.08,0,1,0,4.16,0V76.68A2.08,2.08,0,0,0,50.53,74.6Z"/><path d="M26,68.16a2.09,2.09,0,0,0-2.09,2.08v.2a2.09,2.09,0,0,0,4.17,0v-.2A2.08,2.08,0,0,0,26,68.16Z"/><path d="M34.15,68.16a2.09,2.09,0,0,0-2.09,2.08v.2a2.09,2.09,0,0,0,4.17,0v-.2A2.08,2.08,0,0,0,34.15,68.16Z"/><path d="M42.34,68.16a2.09,2.09,0,0,0-2.09,2.08v.2a2.09,2.09,0,0,0,4.17,0v-.2A2.08,2.08,0,0,0,42.34,68.16Z"/><path d="M50.53,68.16a2.08,2.08,0,0,0-2.08,2.08v.2a2.08,2.08,0,0,0,4.16,0v-.2A2.08,2.08,0,0,0,50.53,68.16Z"/><path d="M65,14H53.36A18.21,18.21,0,0,0,35.18,32.18v.31A21.33,21.33,0,0,0,16.84,53.68v3.06H59.65V53.68A21.33,21.33,0,0,0,41.31,32.49v-.31a12.07,12.07,0,0,1,12-12H65A12.07,12.07,0,0,1,77,32.18V86h6.13V32.18A18.21,18.21,0,0,0,65,14Z"/></svg>