<svg id="Fill" xmlns="http://www.w3.org/2000/svg" viewBox="0 0 100 100"><rect x="33.44" y="28.5" width="12.79" height="16.17"/><path d="M30.2,28.5H21.78A7.84,7.84,0,0,0,14,36.35v8.32H30.2Z"/><path d="M86,55.63V48.7a31.44,31.44,0,0,0-.41-5A18,18,0,0,0,67.86,28.5H65.51V45.29Z"/><path d="M47.85,47.94H14v12.9c0,5.7,9.61,7.79,13.57,8.41a7,7,0,0,1,5.09-8.43A7,7,0,0,1,41,69.44h22.7a6.91,6.91,0,1,1,13.34,0h4.17A4.84,4.84,0,0,0,86,64.58v-5.3L63.5,47.94Z"/><rect x="49.47" y="28.5" width="12.79" height="16.17"/><path d="M34.3,64a3.7,3.7,0,0,0-3.67,3.7v.09a3.66,3.66,0,1,0,7.32,0v-.09A3.69,3.69,0,0,0,34.3,64Z"/><path d="M70.34,64a3.7,3.7,0,0,0-3.67,3.7v.09a3.66,3.66,0,1,0,7.32,0v-.09A3.69,3.69,0,0,0,70.34,64Z"/></svg>