<?xml version="1.0" encoding="UTF-8"?>
<svg width="32px" height="32px" viewBox="0 0 32 32" version="1.1" xmlns="http://www.w3.org/2000/svg" xmlns:xlink="http://www.w3.org/1999/xlink">
    <!-- Generator: Sketch 50.2 (55047) - http://www.bohemiancoding.com/sketch -->
    <title>spark-line-fill</title>
    <desc>Created with Sketch.</desc>
    <defs></defs>
    <g id="spark-line" stroke="none" stroke-width="1" fill="none" fill-rule="evenodd">
        <path d="M27.4422453,3.71966076 C27.0769265,2.61242624 26.0356346,1.92225454 24.8596814,2.00701247 C23.7077272,2.10522404 22.7797642,2.98105596 22.6024379,4.13403286 L20.0518727,20.7210249 L17.0719913,10.8891052 C16.7480042,9.81954088 15.7880424,9.10111653 14.6814198,9.10111653 C14.6787532,9.10111653 14.6787532,9.10111653 14.67742,9.10380726 C13.5694641,9.10515262 12.6095023,9.82492233 12.2908483,10.8917959 L9.70428455,19.4819447 L7.2883807,15.1243109 C6.83506541,14.3144018 5.96709995,13.8637049 5.05780281,13.8394883 C4.13517286,13.8569781 3.30053941,14.3830154 2.88055612,15.2144503 L0.219328701,20.4828955 C-0.283317961,21.4757741 0.107333158,22.6906377 1.091294,23.1964945 C2.0779214,23.7036968 3.27920692,23.3068144 3.78052031,22.3152812 L5.16979835,19.5707387 L7.93368835,24.5526214 C8.42300221,25.4392162 9.39229697,25.9302741 10.3842575,25.8320625 C11.3842177,25.7217427 12.2161846,25.0234988 12.5068397,24.0575275 L14.6867529,16.8194695 L18.1372823,28.2120113 C18.4626027,29.2856117 19.4292309,30 20.5251872,30 C20.5851848,30 20.6438492,29.9973093 20.7038468,29.9932732 C21.8744669,29.911206 22.8197626,29.0380648 23.0010887,27.8649074 L25.6089849,10.9052496 L28.102219,18.4137257 C28.4555383,19.4738725 29.5888265,20.0389254 30.6341183,19.68644 C31.6820765,19.3312639 32.2473874,18.18905 31.8954014,17.1329393 L27.4422453,3.71966076 Z" id="Fill-1" fill="#212121"></path>
    </g>
</svg>