<svg id="Fill" xmlns="http://www.w3.org/2000/svg" viewBox="0 0 100 100"><path d="M21.73,36.91l14.21,8.17a19.83,19.83,0,0,1,9.56-5.29V23.5A36,36,0,0,0,21.73,36.91Z"/><path d="M14,59.07a35.56,35.56,0,0,0,3.46,15.36l1,2.07,14.3-7,.13-.07-.93-2a19.58,19.58,0,0,1-.76-14.7L17.08,44.58A35.64,35.64,0,0,0,14,59.07Z"/><path d="M54.5,23.5V39.79a19.87,19.87,0,0,1,7.72,3.68l14.54-8.36A36,36,0,0,0,54.5,23.5Z"/><path d="M67.93,50.55a19.64,19.64,0,0,1,.14,16.81l-.93,2,14.31,7,.14.06,1-2.07a35.7,35.7,0,0,0-.66-31.86Z"/><path d="M61.45,48.91l-6-4-4,6A8.15,8.15,0,0,0,50,50.82a8.63,8.63,0,1,0,7.41,4.24Z"/></svg>