<svg id="Fill" xmlns="http://www.w3.org/2000/svg" viewBox="0 0 100 100"><polygon points="34.23 31.32 26.33 22.82 22.6 26.6 31.27 34.35 34.23 31.32"/><polygon points="30.09 35.81 20.32 29.54 17.65 34.12 27.97 39.48 30.09 35.81"/><polygon points="27.19 41.2 16.18 37.54 14.72 42.64 26.05 45.27 27.19 41.2"/><polygon points="25.72 47.12 14.14 46.31 14 51.62 25.63 51.35 25.72 47.12"/><polygon points="39.35 28 33.81 17.8 29.27 20.54 35.74 30.2 39.35 28"/><polygon points="71.39 38.25 81.28 32.19 78.32 27.79 69.01 34.76 71.39 38.25"/><polygon points="73.64 43.94 84.73 40.52 82.94 35.52 72.19 39.96 73.64 43.94"/><polygon points="60.17 15.45 54.99 14.34 53.11 25.82 57.25 26.68 60.17 15.45"/><polygon points="25.76 53.23 14.35 55.32 15.53 60.49 26.72 57.35 25.76 53.23"/><polygon points="74.41 49.99 86 49.43 85.51 44.15 74 45.78 74.41 49.99"/><polygon points="67.81 33.3 75.89 24.98 71.92 21.45 64.63 30.51 67.81 33.3"/><polygon points="62.81 29.21 68.43 19.06 63.68 16.7 59.01 27.35 62.81 29.21"/><polygon points="30.3 64.47 21.29 71.79 24.81 75.76 33.13 67.62 30.3 64.47"/><polygon points="51.61 74.37 52.93 85.9 58.17 85.06 55.77 73.68 51.61 74.37"/><polygon points="67.82 66.69 76.67 74.2 79.92 70.01 70.4 63.33 67.82 66.69"/><polygon points="57.6 73.21 61.75 84.05 66.61 81.93 61.47 71.5 57.6 73.21"/><polygon points="63.12 70.59 69.82 80.06 74.02 76.81 66.44 67.98 63.12 70.59"/><polygon points="73.65 56.05 85.01 58.39 85.86 53.15 74.3 51.87 73.65 56.05"/><polygon points="71.4 61.73 81.83 66.82 83.95 61.95 73.07 57.85 71.4 61.73"/><polygon points="45.14 26.05 42.31 14.81 37.22 16.32 41.1 27.29 45.14 26.05"/><polygon points="47.01 25.8 51.23 25.6 51.28 14 45.98 14.21 47.01 25.8"/><polygon points="35.3 82.89 40.3 84.68 43.67 73.55 39.68 72.15 35.3 82.89"/><polygon points="34.51 68.9 27.6 78.22 31.99 81.2 38.02 71.25 34.51 68.9"/><polygon points="43.92 85.51 49.21 86 49.72 74.38 45.5 74.01 43.92 85.51"/><polygon points="27.32 59.14 16.79 63.99 19.21 68.71 29.28 62.89 27.32 59.14"/></svg>