<?xml version="1.0" encoding="UTF-8"?>
<svg width="32px" height="32px" viewBox="0 0 32 32" version="1.1" xmlns="http://www.w3.org/2000/svg" xmlns:xlink="http://www.w3.org/1999/xlink">
    <!-- Generator: Sketch 53.2 (72643) - https://sketchapp.com -->
    <title>Stewardship-fill-fill</title>
    <desc>Created with Sketch.</desc>
    <g id="Stewardship-fill" stroke="none" stroke-width="1" fill="none" fill-rule="evenodd">
        <path d="M13.0000034,3.00456109 C12.9981754,1.79078272 13.7279311,0.695504102 14.8487919,0.229744057 C15.9696526,-0.236015989 17.2607275,0.0195311055 18.1196459,0.877155973 C18.9785643,1.73478084 19.236057,3.02546908 18.7719868,4.14703054 C18.3079166,5.268592 17.2137391,5.9999976 15.9999593,5.99999898 C14.3459202,5.99751917 13.0049761,4.65859464 13.0000034,3.00456109 Z M6,6.00002923 C6,5.19111656 6.48727723,4.46185465 7.23461509,4.15229717 C7.98195295,3.84273969 8.84217603,4.0138487 9.41416366,4.58583634 C9.9861513,5.15782397 10.1572603,6.01804705 9.84770283,6.76538491 C9.53814535,7.51272277 8.80888344,8 7.99997077,8 C6.89636819,7.99770798 6.00229202,7.10363181 6,6.00002923 Z M24,4 C25.1045695,4 26,4.8954305 26,6 C26,7.1045695 25.1045695,8 24,8 C22.8954305,8 22,7.1045695 22,6 C22,4.8954305 22.8954305,4 24,4 Z M6,16 L6,10.4886107 C7.2799236,10.0160093 8.65625402,9.88339581 10,10.1031988 L10,16 L6,16 Z M12,16 L12,8.72532526 C14.5786634,7.74579481 17.4304205,7.75880146 20,8.76181266 L20,16 L12,16 Z M31.96,24.2222222 C32.1525428,25.1662421 31.6139647,26.1063748 30.7022222,26.4177778 L17.6577778,30.5244444 L17.4977778,30.5244444 C17.4977778,30.5244444 15.3511111,30.5777778 13.2044444,30.6222222 C12.1288889,30.6444444 11.0533333,30.6711111 10.2444444,30.6711111 L9.48444444,30.6711111 C9.03597069,30.7303118 8.58011038,30.651234 8.17777778,30.4444444 C7.11111111,30.0711111 3.19111111,28.8888889 0.773333333,28.1777778 L-5.32907052e-15,27.9466667 L-5.32907052e-15,15.9466667 L9.63555556,18.5288889 L11,19.5911111 L19.4177778,20.6133333 C20.0888889,20.6844444 20.8622222,20.9644444 20.8888889,21.7111111 L20.84,23.3333333 C20.7249799,23.875483 20.2475438,24.2640938 19.6933333,24.2666667 L10.36,24.2666667 L10.36,26.1111111 L19.6933333,26.1111111 C21.1683698,26.0972163 22.4212407,25.0278751 22.6666667,23.5733333 L22.7066667,22.1733333 C29.7955556,21.4577778 30.8977778,21.4888889 31.2888889,21.84 L31.36,21.9066667 L31.3955556,22 C31.6359233,22.7264884 31.8245432,23.4690865 31.96,24.2222222 Z M22,16 L22,10.1034043 C23.3437032,9.88315977 24.7198487,10.0160403 26,10.4896442 L26,16 L22,16 Z" id="Combined-Shape" fill="#2D2D2D" fill-rule="nonzero"></path>
    </g>
</svg>