<?xml version="1.0" encoding="UTF-8"?>
<svg width="32px" height="32px" viewBox="0 0 32 32" version="1.1" xmlns="http://www.w3.org/2000/svg" xmlns:xlink="http://www.w3.org/1999/xlink">
    <!-- Generator: Sketch 50.2 (55047) - http://www.bohemiancoding.com/sketch -->
    <title>survey-fill</title>
    <desc>Created with Sketch.</desc>
    <defs></defs>
    <g id="survey" stroke="none" stroke-width="1" fill="none" fill-rule="evenodd">
        <path d="M25,2 L27,2 C28.104,2 29,2.896 29,4 L29,30 C29,31.104 28.104,32 27,32 L5,32 C3.896,32 3,31.104 3,30 L3,4 C3,2.896 3.896,2 5,2 L7,2 L7,8 L25,8 L25,2 Z M7,24 L25,24 L25,20 L7,20 L7,24 Z M7,16 L25,16 L25,12 L7,12 L7,16 Z M11,0 L21,0 L21,2 L21,4 L11,4 L11,2 L11,0 Z" id="Survey" fill="#212121"></path>
    </g>
</svg>