<?xml version="1.0" encoding="UTF-8"?>
<svg width="32px" height="32px" viewBox="0 0 32 32" version="1.1" xmlns="http://www.w3.org/2000/svg" xmlns:xlink="http://www.w3.org/1999/xlink">
    <!-- Generator: Sketch 50.2 (55047) - http://www.bohemiancoding.com/sketch -->
    <title>table-data-fill</title>
    <desc>Created with Sketch.</desc>
    <defs></defs>
    <g id="table-data" stroke="none" stroke-width="1" fill="none" fill-rule="evenodd">
        <path d="M0,20 L0,12 L14,12 L14,20 L0,20 Z M0,8 L0,1.99810135 C0,0.886706352 0.898053512,0 2.00585866,0 L14,0 L14,8 L0,8 Z M32,1.99810135 L32,8 L18,8 L18,0 L29.9941413,0 C31.1029399,0 32,0.894580447 32,1.99810135 Z M0,30.0018986 L0,24 L14,24 L14,32 L2.00585866,32 C0.897060126,32 0,31.1054196 0,30.0018986 Z M18,32 L18,24 L32,24 L32,30.0018986 C32,31.1132936 31.1019465,32 29.9941413,32 L18,32 Z M18,20 L18,12 L32,12 L32,20 L18,20 Z" id="Combined-Shape" fill="#212121"></path>
    </g>
</svg>