<?xml version="1.0" encoding="UTF-8"?>
<svg width="32px" height="32px" viewBox="0 0 32 32" version="1.1" xmlns="http://www.w3.org/2000/svg" xmlns:xlink="http://www.w3.org/1999/xlink">
    <!-- Generator: Sketch 55.2 (78181) - https://sketchapp.com -->
    <title>Tag-fill</title>
    <desc>Created with Sketch.</desc>
    <g id="Tag-fill" stroke="none" stroke-width="1" fill="none" fill-rule="evenodd">
        <g id="tag-fill" fill="#2D2D2D" fill-rule="nonzero">
            <path d="M18.6827519,0 L32,0 L31.9991668,13.3236748 C31.9991336,13.8542777 31.7883136,14.363139 31.4130779,14.7383319 L14.7355272,31.413978 C13.9540753,32.1953407 12.6870915,32.1953407 11.9056396,31.413978 L0.586088925,20.09572 C-0.195362975,19.3143574 -0.195362975,18.0475182 0.586088925,17.2661556 L17.2678498,0.586299691 C17.6431061,0.211086334 18.1520595,0 18.6827519,0 Z M21.8791334,5.87903298 C20.7069555,7.05107697 20.7069555,8.95133573 21.8791334,10.1233797 C23.0513112,11.2954237 24.951787,11.2954237 26.1239649,10.1233797 C27.2961427,8.95133573 27.2961427,7.05107697 26.1239649,5.87903298 C24.951787,4.706989 23.0513112,4.706989 21.8791334,5.87903298 Z" id="Icon"></path>
        </g>
    </g>
</svg>