<?xml version="1.0" encoding="UTF-8"?>
<svg width="32px" height="32px" viewBox="0 0 32 32" version="1.1" xmlns="http://www.w3.org/2000/svg" xmlns:xlink="http://www.w3.org/1999/xlink">
    <!-- Generator: Sketch 53.2 (72643) - https://sketchapp.com -->
    <title>talent-fill-fill</title>
    <desc>Created with Sketch.</desc>
    <g id="talent-fill" stroke="none" stroke-width="1" fill="none" fill-rule="evenodd">
        <path d="M25.2127693,22.3843422 L31.8942174,29.0657902 L29.0657902,31.8942174 L22.3843422,25.2127693 C20.0471811,26.9631929 17.1446702,28 14,28 C6.2680135,28 0,21.7319865 0,14 C0,6.2680135 6.2680135,0 14,0 C21.7319865,0 28,6.2680135 28,14 C28,17.1446702 26.9631929,20.0471811 25.2127693,22.3843422 Z M6.86833033,21.0099454 C8.81966802,19.7386995 11.1496912,19 13.652247,19 C16.3326262,19 18.8150827,19.8474084 20.8463209,21.2889299 C22.7875864,19.4648355 24,16.874005 24,14 C24,8.4771525 19.5228475,4 14,4 C8.4771525,4 4,8.4771525 4,14 C4,16.7304659 5.09433254,19.2053368 6.86833033,21.0099454 Z M14,16 C11.790861,16 10,14.209139 10,12 C10,9.790861 11.790861,8 14,8 C16.209139,8 18,9.790861 18,12 C18,14.209139 16.209139,16 14,16 Z" id="Combined-Shape" fill="#212121" fill-rule="nonzero"></path>
    </g>
</svg>