<svg id="Fill" xmlns="http://www.w3.org/2000/svg" viewBox="0 0 100 100"><g id="Fill-2" data-name="Fill"><path d="M76.9,48.87,74.9,52H73V48.39a4.49,4.49,0,0,0-4.5-4.5H63.2a4.49,4.49,0,0,0-4.5,4.5V52H56.26V48.39a4.49,4.49,0,0,0-4.5-4.5H46.43a4.52,4.52,0,0,0-4.5,4.5V52H40.51l-7-15.93H32V29.61H21.13v6.47H18.28V48.13H14s6.59,19.35,7,20.18c1,1.89,1.6,2.08,3.77,2.08H75.19c2.87,0,3.71-.63,4.5-2.06C79.78,68.17,86,48.87,86,48.87Zm-13.7-.48h5.32V52H63.2Zm-16.77,0h5.33V52H46.43Zm-23.17-.7V40.42H29.7l3.36,7.27Z"/></g></svg>