<?xml version="1.0" encoding="UTF-8"?>
<svg width="32px" height="32px" viewBox="0 0 32 32" version="1.1" xmlns="http://www.w3.org/2000/svg" xmlns:xlink="http://www.w3.org/1999/xlink">
    <!-- Generator: Sketch 50.2 (55047) - http://www.bohemiancoding.com/sketch -->
    <title>target-fill</title>
    <desc>Created with Sketch.</desc>
    <defs></defs>
    <g id="target" stroke="none" stroke-width="1" fill="none" fill-rule="evenodd">
        <path d="M32,15.9998667 C32,19.6972 30.7333333,23.0905333 28.628,25.7998667 L31.4146667,28.5865333 L28.5866667,31.4145333 L25.8,28.6278667 C23.0906667,30.7345333 19.6973333,31.9998667 16,31.9998667 C12.3026667,31.9998667 8.90933333,30.7345333 6.2,28.6278667 L3.41466667,31.4145333 L0.586666667,28.5865333 L3.372,25.7998667 C1.26533333,23.0918667 0,19.6972 0,15.9998667 C0,7.16386667 7.164,-0.000133333333 16,-0.000133333333 C24.836,-0.000133333333 32,7.16386667 32,15.9998667 Z M21.9906667,24.8185333 C23.1013333,24.0612 24.0613333,23.1012 24.8186667,21.9905333 C25.984,20.2812 26.6666667,18.2185333 26.6666667,15.9998667 C26.6666667,10.1185333 21.8813333,5.3332 16,5.3332 C10.1186667,5.3332 5.33333333,10.1185333 5.33333333,15.9998667 C5.33333333,18.2198667 6.016,20.2825333 7.18133333,21.9905333 C7.93733333,23.1012 8.89866667,24.0625333 10.0093333,24.8185333 C11.7186667,25.9838667 13.78,26.6665333 16,26.6665333 C18.22,26.6665333 20.2813333,25.9838667 21.9906667,24.8185333 Z M16,10.9998667 C18.7575,10.9998667 21,13.2423667 21,15.9998667 C21,16.6923667 20.8575,17.3511167 20.6025,17.9511167 C20.09625,19.1411167 19.14125,20.0961167 17.95125,20.6023667 C17.35125,20.8573667 16.6925,20.9998667 16,20.9998667 C15.3075,20.9998667 14.64875,20.8586167 14.04875,20.6023667 C12.85875,20.0973667 11.90375,19.1423667 11.3975,17.9523667 C11.1425,17.3511167 11,16.6923667 11,15.9998667 C11,13.2423667 13.2425,10.9998667 16,10.9998667 Z" id="Combined-Shape" fill="#212121"></path>
    </g>
</svg>