<svg id="Fill" xmlns="http://www.w3.org/2000/svg" viewBox="0 0 100 100"><g id="Fill-2" data-name="Fill"><path d="M72.43,15l-1-1-4.52,4.51,1,1a16,16,0,0,1,0,22.63l0,0-1,1,4.52,4.52,1-1a22.38,22.38,0,0,0,0-31.65l0,0Z"/><path d="M60.1,36.27l4.52,4.52,1-1a12.73,12.73,0,0,0,0-18h0l-1-1L60.1,25.3l1,1a6.37,6.37,0,0,1,0,9Z"/><path d="M32.12,42.14a16,16,0,0,1,0-22.63l0,0,1-1L28.56,14l-1,1a22.4,22.4,0,0,0,0,31.68h0l1,1,4.53-4.52Z"/><path d="M34.43,39.82l1,1L40,36.3l-1-1a6.36,6.36,0,0,1,0-9l0,0,1-1-4.52-4.51-1,1a12.74,12.74,0,0,0,0,18h0Z"/><path d="M57.7,30.81a7.7,7.7,0,1,0-11.76,6.51L29.94,86h6.13L50.34,71.73,64.64,86h6.21L54.12,37.29A7.59,7.59,0,0,0,57.7,30.81ZM54.92,58.12,50.34,62.7l-4.85-4.83,4.58-12.74ZM50,28a2.84,2.84,0,1,1-2.84,2.84h0A2.83,2.83,0,0,1,50,28ZM45.81,67.22,37.16,78.61,43.3,64.7ZM63.94,78.61,54.85,67.22l2.33-2.33Z"/></g></svg>