<?xml version="1.0" encoding="UTF-8"?>
<svg width="32px" height="32px" viewBox="0 0 32 32" version="1.1" xmlns="http://www.w3.org/2000/svg" xmlns:xlink="http://www.w3.org/1999/xlink">
    <!-- Generator: Sketch 53.2 (72643) - https://sketchapp.com -->
    <title>ticket-fill-fill</title>
    <desc>Created with Sketch.</desc>
    <g id="ticket-fill" stroke="none" stroke-width="1" fill="none" fill-rule="evenodd">
        <path d="M32,2.84217094e-14 L0,2.84217094e-14 L0,4 L4,4 L4,30 C4,31.1045695 4.8954305,32 6,32 L26,32 C27.1045695,32 28,31.1045695 28,30 L28,4 L32,4 L32,2.84217094e-14 Z M19,26 L8,26 L8,24 L19,24 L19,26 Z M19,22 L8,22 L8,20 L19,20 L19,22 Z M19,18 L8,18 L8,16 L19,16 L19,18 Z M19,14 L8,14 L8,12 L19,12 L19,14 Z M19,10 L8,10 L8,8 L19,8 L19,10 Z M24,26 L21,26 L21,24 L24,24 L24,26 Z M24,22 L21,22 L21,20 L24,20 L24,22 Z M24,18 L21,18 L21,16 L24,16 L24,18 Z M24,14 L21,14 L21,12 L24,12 L24,14 Z M24,10 L21,10 L21,8 L24,8 L24,10 Z" id="Shape" fill="#2D2D2D" fill-rule="nonzero"></path>
    </g>
</svg>