<?xml version="1.0" encoding="UTF-8"?>
<svg width="32px" height="32px" viewBox="0 0 32 32" version="1.1" xmlns="http://www.w3.org/2000/svg" xmlns:xlink="http://www.w3.org/1999/xlink">
    <!-- Generator: Sketch 50.2 (55047) - http://www.bohemiancoding.com/sketch -->
    <title>toggle-fill</title>
    <desc>Created with Sketch.</desc>
    <defs></defs>
    <g id="toggle" stroke="none" stroke-width="1" fill="none" fill-rule="evenodd">
        <path d="M11.6410667,20.0310667 C10.8210667,17.6924 8.6144,16.0004 5.99973333,16.0004 C2.69173333,16.0004 -0.000266666667,18.6910667 -0.000266666667,22.0017333 C-0.000266666667,25.3097333 2.69173333,28.0004 5.99973333,28.0004 C8.59173333,28.0004 10.7850667,26.3390667 11.6210667,24.0310667 L32,24.0310667 L32,20.0310667 L11.6410667,20.0310667 Z M6,24 C4.89733333,24 4,23.104 4,22 C4,20.8973333 4.89733333,20 6,20 C7.10266667,20 8,20.8973333 8,22 C8,23.104 7.10266667,24 6,24 Z M25.9997333,16.0004 C29.3077333,16.0004 31.9997333,13.3097333 31.9997333,9.99906667 C31.9997333,6.69106667 29.3077333,4.0004 25.9997333,4.0004 C23.3957333,4.0004 21.1957333,5.67773333 20.3677333,8.0004 L-0.000266666667,8.0004 L-0.000266666667,12.0004 L20.3690667,12.0004 C21.1970667,14.3244 23.3970667,16.0004 25.9997333,16.0004 Z M25.9997333,8.0004 C27.1024,8.0004 27.9997333,8.8964 27.9997333,10.0004 C27.9997333,11.1030667 27.1024,12.0004 25.9997333,12.0004 C24.8970667,12.0004 23.9997333,11.1030667 23.9997333,10.0004 C23.9997333,8.8964 24.8970667,8.0004 25.9997333,8.0004 Z" id="Combined-Shape" fill="#212121"></path>
    </g>
</svg>