<svg id="Fill" xmlns="http://www.w3.org/2000/svg" viewBox="0 0 100 100"><path d="M49.21,85.7a2,2,0,0,1-2-2,14.34,14.34,0,0,0-2.94-8.19,11.91,11.91,0,0,1-2.61-7.79v-4c.37-4.14.93-4.34,2.63-4.34l.47,0h.06a1.21,1.21,0,0,0,.84-.35c.41-.42.77-.78.56-18.4,0-1.06,0-4.42,2.36-4.53,1.43-.07,1.14-.07,2.61-.07,2.09,0,2.38,3.5,2.38,4.49l.11,12.3a1.14,1.14,0,0,0,.4.87,1.16,1.16,0,0,0,.75.28H55c.09,0,.24,0,.44-.11a5.46,5.46,0,0,1,1.66-.28,5.57,5.57,0,0,1,4.17,2.19,1.14,1.14,0,0,0,.87.4,1.11,1.11,0,0,0,.5-.12,3.81,3.81,0,0,1,1.65-.35c2.16,0,4.06,1.43,4.19,2a1.16,1.16,0,0,0,1.13.91H70c1,0,4.47.18,4.93,2.53.06.35.13.64.18.89.28,1.29.31,1.46.08,5.35,0,.48-.5,2.79-1,5a111,111,0,0,0-2,11.6,1.87,1.87,0,0,1-.65,1.42,2.07,2.07,0,0,1-1.36.5Z"/><path d="M33.23,30.65A18.39,18.39,0,0,1,66,47.31c-.2.4-.44.82-.74,1.32L65,49l4.73,4.8.81-1.24a22.91,22.91,0,0,0,1.34-2.3A25,25,0,1,0,37.66,60.9l2.5-6.16A18.41,18.41,0,0,1,33.23,30.65Z"/><path d="M62.72,45.63a14.69,14.69,0,1,0-21.15,5.62l2.33-5.77a8.67,8.67,0,1,1,13.94-3.74l4.51,4.58.16-.29C62.58,45.9,62.66,45.77,62.72,45.63Z"/></svg>