<svg id="Fill" xmlns="http://www.w3.org/2000/svg" viewBox="0 0 100 100"><g id="Fill-2" data-name="Fill"><path d="M63.35,67.14h9.06a2,2,0,0,0,2-2V16a2,2,0,0,0-2-2h-45a2,2,0,0,0-2,2V65.14a2,2,0,0,0,2,2h9.2L23.5,86h53Zm-2.23-7.31a6.58,6.58,0,1,1,6.55-6.58A6.57,6.57,0,0,1,61.12,59.83Zm-.93,9.72H39.81l1.69-2.41h17ZM53.65,19.26H68.16V38.55H53.65Zm-21.81,0H46.35V38.55H31.84Zm-.22,34a6.55,6.55,0,1,1,6.55,6.58,6.57,6.57,0,0,1-6.55-6.58Zm5.44,20.29H62.94l1.57,2.25H35.46Zm-6,8.45,1.55-2.22H67.33L68.91,82Z"/></g></svg>