<?xml version="1.0" encoding="UTF-8"?>
<svg width="32px" height="32px" viewBox="0 0 32 32" version="1.1" xmlns="http://www.w3.org/2000/svg" xmlns:xlink="http://www.w3.org/1999/xlink">
    <!-- Generator: Sketch 53.2 (72643) - https://sketchapp.com -->
    <title>Transform-fill-fill</title>
    <desc>Created with Sketch.</desc>
    <g id="Transform-fill" stroke="none" stroke-width="1" fill="none" fill-rule="evenodd">
        <path d="M23.0312329,21.7139726 L25.7358904,23.3183562 C22.9550296,27.6116634 17.745504,29.6528275 12.7882322,28.3914276 C7.83096041,27.1300277 4.23061478,22.8471526 3.84,17.7468493 L2.67835616,18.9041096 C2.06381901,19.4669651 1.11651713,19.4513394 0.520877819,18.868522 C-0.0747614964,18.2857047 -0.110994962,17.3389671 0.438356164,16.7123288 L5.37424658,11.7764384 L10.3364384,16.7430137 C10.8951269,17.3662443 10.8682274,18.3177496 10.2752212,18.9084212 C9.68221494,19.4990927 8.73061086,19.5222386 8.10958904,18.9610959 L7.01369863,17.8564384 C7.42904082,21.5179415 10.0896862,24.5289117 13.6722413,25.3917055 C17.2547965,26.2544993 20.9944973,24.7849371 23.0312329,21.7139726 Z M31.1232877,14.0821918 C31.7156816,14.6927013 31.7156816,15.663463 31.1232877,16.2739726 L26.1786301,21.209863 L21.2252055,16.2432877 C20.7933899,15.8531078 20.6121676,15.2564648 20.7540341,14.6920368 C20.8959006,14.1276088 21.3376914,13.6875573 21.9026746,13.5479185 C22.4676578,13.4082796 23.0635814,13.5918541 23.4520548,14.0252055 L24.5479452,15.129863 C24.132603,11.4683598 21.4719577,8.45738965 17.8894025,7.59459585 C14.3068473,6.73180205 10.5671466,8.20136429 8.53041096,11.2723288 L5.82575342,9.66794521 C8.60149929,5.35966112 13.8198846,3.30714332 18.7869,4.57001119 C23.7539154,5.83287907 27.3582598,10.1285834 27.7391781,15.2394521 L28.9008219,14.0821918 C29.1968173,13.7933498 29.5963752,13.6354217 30.009863,13.6438356 C30.4245073,13.6362038 30.8251362,13.7939318 31.1232877,14.0821918 Z" id="Combined-Shape" fill="#2D2D2D" fill-rule="nonzero"></path>
    </g>
</svg>