<svg id="Fill" xmlns="http://www.w3.org/2000/svg" viewBox="0 0 100 100"><path d="M74.25,34.47h-16V21H14V72.44H26.59a9,9,0,0,0,17.3,0h17.2a9,9,0,0,0,17.3,0H86v-27ZM31,69.08a4.31,4.31,0,0,1,3.07-3,4.48,4.48,0,0,1,5.49,3,4.34,4.34,0,0,1-3.07,5.36l-.26.07h0A4.45,4.45,0,0,1,31,71.4,4,4,0,0,1,31,69.08Zm34.5,0a4.31,4.31,0,0,1,3.07-3,4.55,4.55,0,0,1,3.39.41,4.32,4.32,0,0,1-1,8h0l-.26.07h0a4.45,4.45,0,0,1-5.23-3.09A4.23,4.23,0,0,1,65.46,69.08Zm12-14H62.28V42.87h8.54L77.36,49Zm-28,2.1v.2l-4.41-.09L45.1,57A18.58,18.58,0,0,0,30.47,35a19.38,19.38,0,0,0-7.7,0h-.28V30.63h.21a23.69,23.69,0,0,1,20.55,6.29A22.59,22.59,0,0,1,49.4,57.16Zm-11.59-15A16.27,16.27,0,0,1,42.21,57v.2l-4.3-.1.07-.29a12.3,12.3,0,0,0-9.09-15,12.72,12.72,0,0,0-6,0l-.3.06V37.66h.2A17,17,0,0,1,37.87,42.11Zm-5.17,5a10.26,10.26,0,0,1,2.58,9.8l-.05.19L30.89,57l.11-.31a6.23,6.23,0,0,0-3.93-8,6.48,6.48,0,0,0-4.15,0l-.32.11V44.53h.19A10.81,10.81,0,0,1,32.7,47.1Z"/></svg>