<svg id="Fill" xmlns="http://www.w3.org/2000/svg" viewBox="0 0 100 100"><g id="Fill-2" data-name="Fill"><path d="M14,21V73H24.34a9.69,9.69,0,0,1,7.14-10.26,9.91,9.91,0,0,1,12.18,6.8A9.61,9.61,0,0,1,44,73h9.64V21Z"/><path d="M74.25,34.61H57.11V73h2.81a9.88,9.88,0,0,1,.3-3.43,9.76,9.76,0,0,1,6.85-6.83A9.77,9.77,0,0,1,79.56,73H86V45.7Zm-11,18.21V43.06h7.28l6.35,5.36v4.36Z"/><path d="M30.78,78.12a6.91,6.91,0,0,0,3.39.88,7.16,7.16,0,0,0,1.46-.15h0l.37-.12a6.81,6.81,0,0,0-1.89-13.35,7.17,7.17,0,0,0-1.85.24,6.76,6.76,0,0,0-4.75,4.74,6.76,6.76,0,0,0,3.27,7.76Z"/><path d="M66.37,78.12a6.91,6.91,0,0,0,3.39.88,7.07,7.07,0,0,0,1.45-.15h0l.4-.11a6.81,6.81,0,0,0-1.89-13.35,7.17,7.17,0,0,0-1.85.24,6.76,6.76,0,0,0-4.75,4.74,6.76,6.76,0,0,0,3.25,7.75Z"/></g></svg>