<svg id="Fill" xmlns="http://www.w3.org/2000/svg" viewBox="0 0 100 100"><path d="M38,27.56l16.2,44.13H46.29L42.34,60H25.55L21.6,71.69H14L30.14,27.56Zm-4.06,7.6-6.37,19H40.4l-6.31-19Z"/><path d="M70.56,38.87c3.77,0,6.74.88,8.9,2.5A8,8,0,0,1,82.76,48V64.77a3.17,3.17,0,0,0,.35,1.73,1.75,1.75,0,0,0,1.48.49A6.16,6.16,0,0,0,86,66.87v4.88a17.06,17.06,0,0,1-4.24.81c-3,0-4.71-1.3-5.19-3.9A11.74,11.74,0,0,1,72,71.51a17.39,17.39,0,0,1-5.92,1,10.78,10.78,0,0,1-7.6-2.6,8.72,8.72,0,0,1-2.83-6.74A9.09,9.09,0,0,1,58,56.45q2.41-2.37,9.08-3.18l2.77-.37a22.92,22.92,0,0,0,4.33-.8,3.31,3.31,0,0,0,1.74-1.27,3.83,3.83,0,0,0,.53-2.07c0-2.84-2.11-4.29-6.31-4.33s-6.36,1.73-6.72,5.07H56.72a10.25,10.25,0,0,1,3.89-7.94Q64.14,38.88,70.56,38.87ZM62.31,62.61a3.75,3.75,0,0,0,1.6,3.21A6.88,6.88,0,0,0,68.09,67a9.23,9.23,0,0,0,5.71-1.67A5,5,0,0,0,76,61.12V55.68a9.61,9.61,0,0,1-4.53,1.42l-2.89.38C64.42,58,62.31,59.68,62.31,62.61Z"/></svg>