<svg id="Fill" xmlns="http://www.w3.org/2000/svg" viewBox="0 0 100 100"><path d="M14.18,52.23c-.23,1.39-.58,3.49,1.39,4.11a2.23,2.23,0,0,0,2.62-1c1.08-.93,8.36-3.19,16.6-1.11C34.48,42.08,40.3,29.35,44.37,22,19,25.27,14.38,51.08,14.18,52.23Z"/><path d="M52.06,22.61V17.19a2.21,2.21,0,0,0-4.41,0V23c-3.83,7.06-8.8,20.28-8.36,31.57l.14,0a42.35,42.35,0,0,1,8.22-1.3V75a7.64,7.64,0,0,1-1.18,4.72,2.19,2.19,0,0,1-1.7,1,1.64,1.64,0,0,1-1.64-1.79,2.21,2.21,0,0,0-4.41,0A6,6,0,0,0,44.77,85,6.55,6.55,0,0,0,50,82.31,11.81,11.81,0,0,0,52.06,75V53.28h.11a55.09,55.09,0,0,1,7.29,1.17c-.05-.9-.15-1.93-.32-3.14C57.83,41.77,55.12,29.27,52.06,22.61Z"/><path d="M85.82,52.57h0a2.46,2.46,0,0,0,0-.53,37.35,37.35,0,0,0-1.28-5.64c-2.1-6.69-9-21.8-28.79-24.38,3.58,7.93,6.72,20.28,7.87,28.7.2,1.47.33,2.8.39,4,8.64-2.36,16.81.11,17.84,1a2.26,2.26,0,0,0,2.62,1C86.4,56.06,86.05,54,85.82,52.57Z"/></svg>