<?xml version="1.0" encoding="UTF-8"?>
<svg width="32px" height="32px" viewBox="0 0 32 32" version="1.1" xmlns="http://www.w3.org/2000/svg" xmlns:xlink="http://www.w3.org/1999/xlink">
    <!-- Generator: Sketch 50.2 (55047) - http://www.bohemiancoding.com/sketch -->
    <title>upload-fill</title>
    <desc>Created with Sketch.</desc>
    <defs></defs>
    <g id="upload" stroke="none" stroke-width="1" fill="none" fill-rule="evenodd">
        <path d="M14.0002667,24 L0.000266666667,24 L0.000266666667,1.33333333 C0.000266666667,0.597333333 0.5976,0 1.3336,0 L30.6669333,4.73695157e-15 C31.4029333,4.73695157e-15 32.0002667,0.597333333 32.0002667,1.33333333 L32.0002667,24 L18.0002667,24 L18.0002667,12.828 L21.5242667,16.352 C22.3056,17.1333333 23.5709333,17.1333333 24.3522667,16.352 C25.1336,15.5706667 25.1336,14.3053333 24.3522667,13.524 L17.4149333,6.58666667 L17.4136,6.58533333 L16.0002667,5.172 L14.5882667,6.584 L14.5842667,6.588 L7.6496,13.524 C6.86826667,14.3053333 6.86826667,15.572 7.6496,16.352 C8.43093333,17.1333333 9.69626667,17.1333333 10.4776,16.352 L14.0002667,12.828 L14.0002667,24 Z M14.0002667,24.0001333 L18.0002667,24.0001333 L18.0002667,32.0001333 L14.0002667,32.0001333 L14.0002667,24.0001333 Z" id="Combined-Shape" fill="#212121"></path>
    </g>
</svg>