<?xml version="1.0" encoding="UTF-8"?>
<svg width="32px" height="32px" viewBox="0 0 32 32" version="1.1" xmlns="http://www.w3.org/2000/svg" xmlns:xlink="http://www.w3.org/1999/xlink">
    <!-- Generator: Sketch 50.2 (55047) - http://www.bohemiancoding.com/sketch -->
    <title>upload-light-fill</title>
    <desc>Created with Sketch.</desc>
    <defs></defs>
    <g id="upload-light" stroke="none" stroke-width="1" fill="none" fill-rule="evenodd">
        <path d="M10.4185581,11.2169571 C9.63618158,11.9973366 8.36915888,11.9973366 7.58678238,11.2169571 C6.80440587,10.4365775 6.80440587,9.17278881 7.58678238,8.39240928 L16.0006676,0 L24.4132176,8.39240928 C25.1955941,9.17278881 25.1955941,10.4365775 24.4132176,11.2169571 C24.0220294,11.6071468 23.5106809,11.8015759 22.9979973,11.8015759 C22.4853138,11.8015759 21.9726302,11.6071468 21.5814419,11.2169571 L18.0033378,7.64665409 L18.0033378,24 L13.9979973,24 L13.9979973,7.64665409 L10.4185581,11.2169571 Z M7,31.9986671 L7,28 L25,28 L25,31.9986671 L24.0694259,31.9986671 L24.0694259,32 L7.92923899,32 L7.92923899,31.9986671 L7,31.9986671 Z" id="Combined-Shape" fill="#212121"></path>
    </g>
</svg>