<?xml version="1.0" encoding="UTF-8"?>
<svg width="32px" height="32px" viewBox="0 0 32 32" version="1.1" xmlns="http://www.w3.org/2000/svg" xmlns:xlink="http://www.w3.org/1999/xlink">
    <!-- Generator: Sketch 50.2 (55047) - http://www.bohemiancoding.com/sketch -->
    <title>venn-ab-horizontal-fill</title>
    <desc>Created with Sketch.</desc>
    <defs></defs>
    <g id="venn-ab-horizontal" stroke="none" stroke-width="1" fill="none" fill-rule="evenodd">
        <path d="M14.8510776,26.3070288 C13.6525077,26.7550535 12.354859,27 11,27 C4.92486775,27 0,22.0751322 0,16 C0,9.92486775 4.92486775,5 11,5 C12.354859,5 13.6525077,5.24494654 14.8510776,5.69297121 C11.3465552,7.78818815 9,11.6200604 9,16 C9,20.3799396 11.3465552,24.2118119 14.8510777,26.3070288 Z M17.1489224,5.69297121 C18.3474923,5.24494654 19.645141,5 21,5 C27.0751322,5 32,9.92486775 32,16 C32,22.0751322 27.0751322,27 21,27 C19.645141,27 18.3474923,26.7550535 17.1489224,26.3070288 C20.6534448,24.2118119 23,20.3799396 23,16 C23,11.6200604 20.6534448,7.78818815 17.1489223,5.69297124 Z M16,7.33782195 C18.9890069,9.06686905 21,12.2985882 21,16 C21,19.7014118 18.9890069,22.9331309 16,24.662178 C13.0109931,22.9331309 11,19.7014118 11,16 C11,12.2985882 13.0109931,9.06686905 16,7.33782195 Z" id="icons/fill/venn/AB_1" fill="#212121"></path>
    </g>
</svg>