<?xml version="1.0" encoding="UTF-8"?>
<svg width="32px" height="32px" viewBox="0 0 32 32" version="1.1" xmlns="http://www.w3.org/2000/svg" xmlns:xlink="http://www.w3.org/1999/xlink">
    <!-- Generator: Sketch 50.2 (55047) - http://www.bohemiancoding.com/sketch -->
    <title>venn-abc-reversed-fill</title>
    <desc>Created with Sketch.</desc>
    <defs></defs>
    <g id="venn-abc-reversed" stroke="none" stroke-width="1" fill="none" fill-rule="evenodd">
        <path d="M25.9571916,10.0685389 C24.4461604,9.38222582 22.767717,9 21,9 C19.215572,9 17.5221135,9.38948667 16,10.0880844 C14.4778865,9.38948667 12.784428,9 11,9 C9.23228299,9 7.5538396,9.38222582 6.04280836,10.0685389 C5.68800117,10.229693 5.34242536,10.4076129 5.00709162,10.6012873 C5.2169574,4.71084279 10.0583406,0 16,0 C21.9416594,0 26.7830426,4.71084279 26.9929084,10.6012873 C26.6575746,10.4076129 26.3119988,10.229693 25.9571926,10.0685394 Z M25.9174842,12.2906118 C25.6063863,14.7049407 24.4342615,16.8495397 22.7190078,18.4065106 C22.0916275,15.5587849 20.4527209,13.0905634 18.1982453,11.3978034 C19.08724,11.138848 20.0274052,11 21,11 C22.7874764,11 24.4654162,11.4689823 25.9174842,12.2906118 Z M9.28099221,18.4065106 C7.5657385,16.8495397 6.39361365,14.7049407 6.08251579,12.2906118 C7.53458384,11.4689823 9.21252358,11 11,11 C11.9725948,11 12.91276,11.138848 13.8017547,11.3978034 C11.5472791,13.0905634 9.90837254,15.5587849 9.28099221,18.4065106 Z M11.0825158,19.7093882 C11.4888581,16.555898 13.3641499,13.8625789 16,12.337822 C18.6358501,13.8625789 20.5111419,16.555898 20.9174842,19.7093882 C19.4654162,20.5310177 17.7874764,21 16,21 C14.2125236,21 12.5345838,20.5310177 11.0825158,19.7093882 Z M9.00255767,20.7497447 C9.00085531,20.8329578 9,20.916379 9,21 C9,24.9267503 10.8860843,28.4129819 13.801754,30.6021961 C14.1382542,30.8548553 14.4884674,31.0902383 14.8510777,31.3070288 C13.6525077,31.7550535 12.354859,32 11,32 C4.92486775,32 0,27.0751322 0,21 C0,17.5442149 1.59358987,14.4606326 4.08599444,12.4440284 C4.49581607,15.8610724 6.34163396,18.8366079 9.00255767,20.7497447 Z M11.0428074,21.9314606 C12.5538389,22.617774 14.2322826,23 16,23 C17.7677174,23 19.4461611,22.617774 20.9571926,21.9314606 C20.651677,25.23904 18.735378,28.0798473 16,29.662178 C13.264622,28.0798473 11.348323,25.23904 11.0428074,21.9314606 Z M17.1489223,31.3070288 C20.6534448,29.2118119 23,25.3799396 23,21 C23,20.916379 22.9991447,20.8329578 22.9974423,20.7497447 C25.658366,18.8366079 27.5041839,15.8610724 27.9140056,12.4440284 C30.4064101,14.4606326 32,17.5442149 32,21 C32,27.0751322 27.0751322,32 21,32 C19.645141,32 18.3474923,31.7550535 17.1489223,31.3070288 Z" id="icons/fill/venn/ABC_2" fill="#212121" transform="translate(16.000000, 16.000000) scale(1, -1) translate(-16.000000, -16.000000) "></path>
    </g>
</svg>