<?xml version="1.0" encoding="UTF-8"?>
<svg width="32px" height="32px" viewBox="0 0 32 32" version="1.1" xmlns="http://www.w3.org/2000/svg" xmlns:xlink="http://www.w3.org/1999/xlink">
    <!-- Generator: Sketch 50.2 (55047) - http://www.bohemiancoding.com/sketch -->
    <title>view-fill</title>
    <desc>Created with Sketch.</desc>
    <defs></defs>
    <g id="view" stroke="none" stroke-width="1" fill="none" fill-rule="evenodd">
        <path d="M12.4644661,12.4644661 L16,16 L16,11 C18.7614237,11 21,13.2385763 21,16 C21,18.7614237 18.7614237,21 16,21 C13.2385763,21 11,18.7614237 11,16 C11,14.6192881 11.5596441,13.3692881 12.4644661,12.4644661 Z M23.5426667,7.96706048 L32,15.9995251 L23.5426667,24.0319898 C19.3773333,27.9893367 12.6226667,27.9893367 8.45733333,24.0319898 L0,15.9995251 L8.45733333,7.96706048 C12.6226667,4.01097984 19.3773333,4.01097984 23.5426667,7.96706048 Z M8,15.9992966 C8,20.4181834 11.5804097,24 15.9992966,24 C20.4181834,24 24,20.4181834 24,15.9992966 C24,11.5832234 20.4181834,8 15.9992966,8 C11.5804097,8 8,11.5832234 8,15.9992966 Z" id="Combined-Shape" fill="#212121"></path>
    </g>
</svg>