<?xml version="1.0" encoding="UTF-8"?>
<svg width="32px" height="32px" viewBox="0 0 32 32" version="1.1" xmlns="http://www.w3.org/2000/svg" xmlns:xlink="http://www.w3.org/1999/xlink">
    <!-- Generator: Sketch 53.2 (72643) - https://sketchapp.com -->
    <title>visitor-fill-fill</title>
    <desc>Created with Sketch.</desc>
    <g id="visitor-fill" stroke="none" stroke-width="1" fill="none" fill-rule="evenodd">
        <path d="M16,10 C17.6568542,10 19,11.3431458 19,13 C19,14.6568542 17.6568542,16 16,16 C14.3431458,16 13,14.6568542 13,13 C13,11.3431458 14.3431458,10 16,10 Z M4,2.00444444 C4,0.899874945 4.8954305,0.00444444444 6,0.00444444444 L26,0.00444444444 C27.1045695,0.00444444444 28,0.899874945 28,2.00444444 L28,29.9949658 C28,31.0995353 27.1045695,31.9949658 26,31.9949658 L6,31.9949658 C4.8954305,31.9949658 4,31.0995353 4,29.9949658 L4,2.00444444 Z M13,4 L13,6 L19,6 L19,4 L13,4 Z M8,26 L8,28 L20,28 L20,26 L8,26 Z M23.9875404,22.7698556 L23.9692533,9.01083032 C23.9692533,8.45256415 23.5107569,8 22.9451729,8 L9.02408037,8 C8.4584964,8 8,8.45256415 8,9.01083032 L8,22.7698556 C8.00009362,22.8473595 8.00929876,22.9245908 8.02743072,23 C7.96751068,22.741582 8.01004083,22.4703274 8.1462972,22.2418773 C8.25144831,22.0749097 10.7979339,18.1398917 15.7537514,18.1398917 C20.7095689,18.1398917 23.6766589,22.0027076 23.8000971,22.1651625 C23.9626631,22.3847355 24.0300986,22.6591048 23.9875404,22.9277978 C23.9875404,22.8736462 23.9875404,22.8240072 23.9875404,22.7698556 Z" id="Combined-Shape" fill="#2D2D2D" fill-rule="nonzero"></path>
    </g>
</svg>