<?xml version="1.0" encoding="UTF-8"?>
<svg width="32px" height="32px" viewBox="0 0 32 32" version="1.1" xmlns="http://www.w3.org/2000/svg" xmlns:xlink="http://www.w3.org/1999/xlink">
    <!-- Generator: Sketch 50.2 (55047) - http://www.bohemiancoding.com/sketch -->
    <title>volume-up-fill</title>
    <desc>Created with Sketch.</desc>
    <defs></defs>
    <g id="volume-up" stroke="none" stroke-width="1" fill="none" fill-rule="evenodd">
        <path d="M27.0208153,3.06549574 C31.3129534,7.3576339 32.9887965,13.6155289 31.4190195,19.4845152 C30.6482731,22.3624398 29.1279935,24.9999481 27.0208153,27.1071263 L24.1923882,24.2786992 C27.4733636,20.9977237 28.760298,16.2035397 27.5582164,11.7204827 C26.9642467,9.51430958 25.8045916,7.50612633 24.1923882,5.89392286 L27.0208153,3.06549574 Z M22.0710678,8.06549574 C24.595439,10.5898669 25.5783174,14.2738933 24.6590786,17.7245744 C24.2065303,19.4216306 23.3155757,20.9631234 22.0710678,22.2076314 L19.2426407,19.3792042 C20.7558492,17.8659957 21.35689,15.6527515 20.7982756,13.5809286 C20.529575,12.5626949 19.9851028,11.636385 19.2426407,10.8939229 L22.0710678,8.06549574 Z M7.54951657e-14,11.0081774 C8.02651689e-14,9.90360795 0.8954305,9.00817745 2,9.00817745 L5,9.00817745 L16.4348581,1.17500627 C16.6012758,1.06100586 16.79828,1 17,1 C17.5522847,1 18,1.44771525 18,2 L18,30.003329 C18,30.2045986 17.939266,30.4011843 17.8257395,30.5673806 C17.5142224,31.023424 16.8919917,31.1405856 16.4359484,30.8290685 L5,23.0173252 L2,23.0173252 C0.8954305,23.0173252 1.00504008e-14,22.1218947 1.77635684e-14,21.0173252 L6.74435247e-14,11.0081774 Z" id="Combined-Shape" fill="#212121" fill-rule="nonzero"></path>
    </g>
</svg>