<?xml version="1.0" encoding="UTF-8"?>
<svg width="32px" height="32px" viewBox="0 0 32 32" version="1.1" xmlns="http://www.w3.org/2000/svg" xmlns:xlink="http://www.w3.org/1999/xlink">
    <!-- Generator: Sketch 50.2 (55047) - http://www.bohemiancoding.com/sketch -->
    <title>volume on-fill</title>
    <desc>Created with Sketch.</desc>
    <defs></defs>
    <g id="volume-on" stroke="none" stroke-width="1" fill="none" fill-rule="evenodd">
        <path d="M25.0710678,9.06549574 C27.595439,11.5898669 28.5783174,15.2738933 27.6590786,18.7245744 C27.2065303,20.4216306 26.3155757,21.9631234 25.0710678,23.2076314 L22.2426407,20.3792042 C23.7558492,18.8659957 24.35689,16.6527515 23.7982756,14.5809286 C23.529575,13.5626949 22.9851028,12.636385 22.2426407,11.8939229 L25.0710678,9.06549574 Z M3,11.0081774 C3,9.90360795 3.8954305,9.00817745 5,9.00817745 L8,9.00817745 L19.4348581,1.17500627 C19.6012758,1.06100586 19.79828,1 20,1 C20.5522847,1 21,1.44771525 21,2 L21,30.003329 C21,30.2045986 20.939266,30.4011843 20.8257395,30.5673806 C20.5142224,31.023424 19.8919917,31.1405856 19.4359484,30.8290685 L8,23.0173252 L5,23.0173252 C3.8954305,23.0173252 3,22.1218947 3,21.0173252 L3,11.0081774 Z" id="Combined-Shape" fill="#212121" fill-rule="nonzero"></path>
    </g>
</svg>