<?xml version="1.0" encoding="UTF-8"?>
<svg width="32px" height="32px" viewBox="0 0 32 32" version="1.1" xmlns="http://www.w3.org/2000/svg" xmlns:xlink="http://www.w3.org/1999/xlink">
    <!-- Generator: Sketch 53.2 (72643) - https://sketchapp.com -->
    <title>wait-fill-fill</title>
    <desc>Created with Sketch.</desc>
    <g id="wait-fill" stroke="none" stroke-width="1" fill="none" fill-rule="evenodd">
        <path d="M21,4 L11,4 L11,10.8393549 L16,13.6964978 L21,10.8393549 L21,4 Z M25,4 L25,10.8393549 C25,12.2747823 24.2308557,13.6001561 22.9845558,14.3123275 L20.0311289,16 L22.9845558,17.6876725 C24.2308557,18.3998439 25,19.7252177 25,21.1606451 L25,28 L28,28 L28,32 L4,32 L4,28 L7,28 L7,21.1606451 C7,19.7252177 7.76914426,18.3998439 9.01544425,17.6876725 L11.9688711,16 L9.01544425,14.3123275 C7.76914426,13.6001561 7,12.2747823 7,10.8393549 L7,4 L4,4 L4,0 L28,0 L28,4 L25,4 Z M16,18.3035022 L11,21.1606451 L11,28 L21,28 L21,21.1606451 L16,18.3035022 Z M19.0520833,9.70893499 L16,11.4529826 L12.9479167,9.70893499 L12.9479167,5.94791667 L19.0520833,5.94791667 L19.0520833,9.70893499 Z M12.9479167,22.291065 L16,20.5470174 L19.0520833,22.291065 L19.0520833,26.0520833 L12.9479167,26.0520833 L12.9479167,22.291065 Z" id="Icon/Wait/Fill" fill="#242424"></path>
    </g>
</svg>