<svg id="Fill" xmlns="http://www.w3.org/2000/svg" viewBox="0 0 100 100"><path d="M79.83,49.33V44.47H69.39A24.82,24.82,0,0,0,72.9,32.6l-.12-6.72H71.57L67.65,26,69.11,16c.08-.64-.08-1-.73-1l-5.71-.86c-1.41-.21-2.81,1-3.09,2.91L56.87,35.51c-.28,1.91.7,3.46,2.12,3.68l5.7.85c.64.09.91-.16,1-.81l1.58-10.8,3.11-.06.09,4.29a21.67,21.67,0,0,1-4.13,11.81H51.85v4.85H70.69V72.94H24.17c-2.31,0-4,1.45-4,3.19v8.92c0,.79.35,1,1.14,1H78c.8,0,1.15-.26,1.15-1V76.13a3.19,3.19,0,0,0-.08-.62,3.11,3.11,0,0,0-.16-.46A3.25,3.25,0,0,0,78,73.88a3.94,3.94,0,0,0-1.26-.68,5.15,5.15,0,0,0-1.6-.26H73.43V49.33ZM37.59,83.1h-7.9a5.44,5.44,0,0,1-.38-7.16H38A5.46,5.46,0,0,1,37.59,83.1Zm16,0h-7.9a5.44,5.44,0,0,1-.38-7.16H54a5.4,5.4,0,0,1,1.15,3.36A5.47,5.47,0,0,1,53.59,83.1Zm16,0H61.69a5.48,5.48,0,0,1-.38-7.16H70a5.49,5.49,0,0,1-.37,7.16Z"/><path d="M33.64,76.67a2.64,2.64,0,1,0,2.63,2.63h0A2.63,2.63,0,0,0,33.64,76.67Z"/><path d="M65.65,76.67a2.63,2.63,0,1,0,2.61,2.64h0A2.64,2.64,0,0,0,65.65,76.67Z"/><path d="M49.64,76.67a2.64,2.64,0,1,0,2.63,2.63h0A2.63,2.63,0,0,0,49.64,76.67Z"/></svg>