<?xml version="1.0" encoding="UTF-8"?>
<svg width="32px" height="32px" viewBox="0 0 32 32" version="1.1" xmlns="http://www.w3.org/2000/svg" xmlns:xlink="http://www.w3.org/1999/xlink">
    <!-- Generator: Sketch 53.2 (72643) - https://sketchapp.com -->
    <title>wealth-fill-fill</title>
    <desc>Created with Sketch.</desc>
    <g id="wealth-fill" stroke="none" stroke-width="1" fill="none" fill-rule="evenodd">
        <path d="M29.1155556,20.0844444 L29.1155556,20.8666667 C29.1155556,21.7511111 27.3377778,22.7466667 24.9777778,22.7466667 C22.6177778,22.7466667 20.84,21.7555556 20.84,20.8666667 L20.84,20.0844444 C22.0901294,20.8262428 23.5246579,21.1991278 24.9777778,21.16 C26.4310366,21.2003473 27.8658987,20.8273757 29.1155556,20.0844444 Z M32,17.9866667 L30.5866667,17.9866667 L30.5866667,17.8266667 C30.5866667,16.8977778 29.9822222,16.0666667 28.8888889,15.2755556 L28.8888889,7.31555556 L4.44444444,7.31555556 L4.44444444,4 L32,4 L32,17.9866667 Z M24.9777778,28.6755556 C22.6088889,28.6755556 20.84,27.6711111 20.84,26.7822222 L20.84,26.0222222 C22.0901294,26.7640206 23.5246579,27.1369055 24.9777778,27.0977778 C26.4310366,27.1381251 27.8658987,26.7651534 29.1155556,26.0222222 L29.1155556,26.7955556 C29.1155556,27.68 27.3466667,28.6755556 24.9777778,28.6755556 Z M24.9777778,15.9422222 C27.3466667,15.9422222 29.1155556,16.9377778 29.1155556,17.8266667 C29.1155556,18.7155556 27.3377778,19.7066667 24.9777778,19.7066667 C22.6177778,19.7066667 20.84,18.7155556 20.84,17.8266667 C20.84,16.9377778 22.6088889,15.9422222 24.9777778,15.9422222 Z M20.84,23.1244444 C22.0901294,23.8662428 23.5246579,24.2391278 24.9777778,24.2 C26.4310366,24.2403473 27.8658987,23.8673757 29.1155556,23.1244444 L29.1155556,23.7644444 C29.1155556,24.6533333 27.3377778,25.6444444 24.9777778,25.6444444 C22.6177778,25.6444444 20.84,24.6533333 20.84,23.7644444 L20.84,23.1244444 Z M1.42108547e-14,8.67111111 L27.1733333,8.67111111 L27.1733333,14.2844444 C26.4543891,14.1112191 25.7172937,14.0246775 24.9777778,14.0266667 C21.8444444,14.0266667 19.3866667,15.4933333 19.3866667,17.3644444 L19.3866667,22.2933333 L1.42108547e-14,22.2933333 L1.42108547e-14,8.67111111 Z M13.5866667,20.5111111 C15.7066667,20.5111111 17.3688889,18.2933333 17.3688889,15.4844444 C17.3688889,12.6755556 15.7111111,10.4533333 13.5866667,10.4533333 C11.4622222,10.4533333 9.8,12.68 9.8,15.4844444 C9.8,18.2888889 11.4622222,20.5111111 13.5866667,20.5111111 Z" id="Combined-Shape" fill="#2D2D2D" fill-rule="nonzero"></path>
    </g>
</svg>