<svg id="Fill" xmlns="http://www.w3.org/2000/svg" viewBox="0 0 100 100"><path d="M50,52.14a5.3,5.3,0,0,0,5.29-5.31V37.08H44.72v9.75A5.3,5.3,0,0,0,50,52.14Z"/><path d="M83.72,17H16.28A2.28,2.28,0,0,0,14,19.29V71.43a2.29,2.29,0,0,0,2.28,2.29H47.73v4.7H36.11V83H63.89V78.42H52.29v-4.7H83.72A2.29,2.29,0,0,0,86,71.43V19.29A2.28,2.28,0,0,0,83.72,17ZM42.21,33.69a7.8,7.8,0,1,1,15.59,0V46.83a7.8,7.8,0,1,1-15.59,0Zm9,26.31v3.7h5.43v2.52H43.31V63.7h5.44V60A13.92,13.92,0,0,1,36.13,46.13h2.51a11.36,11.36,0,1,0,22.72,0h2.51A13.92,13.92,0,0,1,51.26,60Z"/><path d="M55.29,33.69a5.29,5.29,0,1,0-10.57,0v.87H55.29Z"/></svg>