<svg id="Fill" xmlns="http://www.w3.org/2000/svg" viewBox="0 0 100 100"><path d="M50,68.9a6.3,6.3,0,1,0,6.33,6.3A6.32,6.32,0,0,0,50,68.9Z"/><path d="M50,18.5A56,56,0,0,0,14.8,30.73a2.09,2.09,0,0,0-.34,2.95l2.93,3.68a2.1,2.1,0,0,0,3,.3,49.16,49.16,0,0,1,60.17-1,2.1,2.1,0,0,0,2.91-.37l2.1-2.63a2.09,2.09,0,0,0-.34-2.95A56,56,0,0,0,50,18.5Z"/><path d="M50,35.3a39.74,39.74,0,0,0-24.92,8.63,2.1,2.1,0,0,0-.31,2.93l2.94,3.67a2.12,2.12,0,0,0,3,.29,32.67,32.67,0,0,1,39.52-.93,2.12,2.12,0,0,0,2.89-.39l2.11-2.64a2.11,2.11,0,0,0-.34-3A39.81,39.81,0,0,0,50,35.3Z"/><path d="M35.51,57.15A2.05,2.05,0,0,0,35.25,60l2.92,3.67a2.07,2.07,0,0,0,2.92.36,15.6,15.6,0,0,1,18.76-.83,2.06,2.06,0,0,0,2.74-.49L64.75,60a2.05,2.05,0,0,0-.26-2.88A23.74,23.74,0,0,0,35.51,57.15Z"/></svg>