<svg id="Fill" xmlns="http://www.w3.org/2000/svg" viewBox="0 0 100 100"><path d="M80,54.78l-20.91-14a9.26,9.26,0,0,0-3-5.17l-1.4-18L54.47,14H45.54L43.9,35.6a9.26,9.26,0,0,0-3,5.17L20,54.79l4.48,7.75,19.65-9.72L38.92,85.15l-.08.85H61.22L55.88,52.82l19.67,9.72ZM41.38,46a9.19,9.19,0,0,0,1.38,2.39L26.3,56.51l-.18-.3m23.7-37.62h.37l1.18,14.8a8.93,8.93,0,0,0-2.73,0M50,38.49A4.12,4.12,0,1,1,45.9,42.6,4.11,4.11,0,0,1,50,38.49ZM45,81.2l3.82-29.39a9.16,9.16,0,0,0,2.34,0L55.12,81.2Zm28.87-25-.17.3L57.26,48.38A9.45,9.45,0,0,0,58.63,46M74.84,56Z"/></svg>