<svg id="Fill" xmlns="http://www.w3.org/2000/svg" viewBox="0 0 100 100"><defs><style>.cls-1{fill-rule:evenodd;}</style></defs><path class="cls-1" d="M41.74,14A2.25,2.25,0,0,1,44,16.25V41.76A2.25,2.25,0,0,1,41.74,44H16.25A2.25,2.25,0,0,1,14,41.76V16.25A2.25,2.25,0,0,1,16.25,14Z"/><path class="cls-1" d="M58.26,86A2.25,2.25,0,0,1,56,83.75V58.24A2.25,2.25,0,0,1,58.26,56H83.75A2.25,2.25,0,0,1,86,58.24V83.75A2.25,2.25,0,0,1,83.75,86Z"/><path d="M70.39,14.09,84.6,28.29a3.38,3.38,0,0,1-4.78,4.78l-6-6V47.65H67V27l-6,6a3.38,3.38,0,0,1-4.78-4.78Z"/><path d="M29.69,85.79l-14.2-14.2a3.38,3.38,0,0,1,4.78-4.78l6,6V52.23h6.76V72.85l6-6a3.38,3.38,0,0,1,4.78,4.78Z"/></svg>