<svg id="Fill" xmlns="http://www.w3.org/2000/svg" viewBox="0 0 100 100"><path d="M86,27.5V77H14V23H81.5A4.51,4.51,0,0,1,86,27.5ZM17.52,39.89l5.9,9.6L17,60.11H22.4l3.7-6.74,3.39,6.74H35.2L28.83,49.49l5.84-9.6H29.31L26.1,46.18l-3-6.29Zm18,0V60.11h8.83a7.34,7.34,0,0,0,5.12-1.6,6,6,0,0,0,1.76-4.69,5.48,5.48,0,0,0-.81-3,4.27,4.27,0,0,0-2.3-1.8,4.61,4.61,0,0,0,2.38-4.11,4.55,4.55,0,0,0-1.59-3.77,7.1,7.1,0,0,0-4.56-1.27Zm4.71,8V44h3.69a1.86,1.86,0,0,1,1.37.51,2,2,0,0,1,.5,1.44,1.8,1.8,0,0,1-.56,1.42,1.86,1.86,0,0,1-1.31.51Zm0,8V51.25h3.84a2.13,2.13,0,0,1,2.45,2.38c0,1.51-.81,2.26-2.45,2.26Zm12.47-16V60.11h4.7V52.75h3.64a2.08,2.08,0,0,1,1.79.9,7.94,7.94,0,0,1,.82,3.66,7.35,7.35,0,0,0,.48,2.8h4.65c-.38-.47-.62-1.78-.7-3.93-.16-3.16-1-5-2.69-5.47v-.06a4.08,4.08,0,0,0,2.13-2,6.75,6.75,0,0,0,.71-3.09,5.38,5.38,0,0,0-1.68-4.12A6.36,6.36,0,0,0,62,39.89Zm4.7,8.78V44.11h3.82a2.45,2.45,0,0,1,1.66.56,2.08,2.08,0,0,1,.64,1.65A2.47,2.47,0,0,1,63,48.07a2,2,0,0,1-1.55.6Zm12.47-8.78V60.11H83V55.58H74.59V39.89Z"/></svg>