<?xml version="1.0" encoding="UTF-8"?>
<svg width="32px" height="32px" viewBox="0 0 32 32" version="1.1" xmlns="http://www.w3.org/2000/svg" xmlns:xlink="http://www.w3.org/1999/xlink">
    <!-- Generator: Sketch 50.2 (55047) - http://www.bohemiancoding.com/sketch -->
    <title>xls-fill</title>
    <desc>Created with Sketch.</desc>
    <defs></defs>
    <g id="xls" stroke="none" stroke-width="1" fill="none" fill-rule="evenodd">
        <path d="M30,4 C31.104,4 32,4.896 32,6 L32,28 L0,28 L0,4 L30,4 Z M8.17792422,14.4178905 L6.62273476,11.1401869 L4.07248764,11.1401869 L6.82042834,15.9599466 L4,20.8598131 L6.57001647,20.8598131 L8.20428336,17.5153538 L9.83855025,20.8598131 L12.5403624,20.8598131 L9.5815486,15.9599466 L12.3294893,11.1401869 L9.75947282,11.1401869 L8.17792422,14.4178905 Z M15.5123558,19.1241656 L15.5123558,11.1401869 L13.2850082,11.1401869 L13.2850082,20.8598131 L19.630972,20.8598131 L19.630972,19.1241656 L15.5123558,19.1241656 Z M25.7726524,18.2830441 C25.7726524,18.5856713 25.6584306,18.8304397 25.4299835,19.0173565 C25.2015365,19.2042733 24.8544779,19.2977303 24.3887974,19.2977303 C23.8220729,19.2977303 23.4014292,19.1786839 23.1268534,18.9405874 C22.8522776,18.702491 22.7149918,18.3008484 22.7149918,17.7356475 L20.5469522,17.7356475 L20.5337727,17.7757009 C20.5118066,18.8883011 20.877536,19.7038247 21.630972,20.2222964 C22.3844079,20.7407681 23.3036739,21 24.3887974,21 C25.4783141,21 26.3525502,20.7585694 27.0115321,20.2757009 C27.670514,19.7928325 28,19.1241698 28,18.2696929 C28,17.4330176 27.7144455,16.7743682 27.1433278,16.293725 C26.5722102,15.8130817 25.7309226,15.4058762 24.6194399,15.0720961 C23.9648512,14.8139729 23.5178485,14.5992443 23.2784185,14.4279039 C23.0389884,14.2565635 22.9192751,14.0284838 22.9192751,13.7436582 C22.9192751,13.4499318 23.0356935,13.2029383 23.2685338,13.0026702 C23.501374,12.8024022 23.8198772,12.7022697 24.2240527,12.7022697 C24.7204857,12.7022697 25.0917066,12.80574 25.3377265,13.0126836 C25.5837464,13.2196272 25.7067545,13.5522897 25.7067545,14.0106809 L27.8682043,14.0106809 L27.8813839,13.9706275 C27.9033499,13.0271426 27.5804536,12.2961753 26.9126853,11.7777036 C26.244917,11.2592319 25.3640911,11 24.2701812,11 C23.2333831,11 22.378916,11.2514439 21.7067545,11.7543391 C21.034593,12.2572344 20.6985173,12.9158838 20.6985173,13.7303071 C20.6985173,14.562532 20.9873667,15.2000423 21.5650741,15.6428571 C22.1427816,16.085672 23.0269023,16.5028908 24.2174629,16.894526 C24.8061534,17.1036949 25.2125195,17.3006221 25.4365733,17.4853138 C25.6606271,17.6700054 25.7726524,17.9359128 25.7726524,18.2830441 Z" id="Combined-Shape" fill="#212121"></path>
    </g>
</svg>